<!-- Generator: Adobe Illustrator 23.0.4, SVG Export Plug-In  -->
<svg version="1.1" xmlns="http://www.w3.org/2000/svg" xmlns:xlink="http://www.w3.org/1999/xlink" x="0px" y="0px"
	 width="365.05px" height="448.38px" viewBox="0 0 365.05 448.38" style="enable-background:new 0 0 365.05 448.38;"
	 xml:space="preserve">
<style type="text/css">
	.st0{fill:#8E8E8E;}
	.st1{fill:url(#SVGID_1_);}
	.st2{fill:url(#SVGID_2_);}
	.st3{opacity:0.5;fill:#706867;}
	.st4{fill:#FCFAFA;}
	.st5{fill:#110F0F;}
	.st6{fill:#FFFAFA;}
	.st7{fill:#D8D8D8;}
	.st8{fill:#1C1919;}
	.st9{opacity:0.3;fill:#FCFAFA;}
	.st10{opacity:0.4;fill:#F4B5B0;}
	.st11{opacity:0.8;fill:#E2E0E0;}
	.st12{opacity:0.5;fill:#4F4B4A;}
	.st13{fill:#BFB7B6;}
	.st14{fill:url(#SVGID_3_);}
	.st15{fill:url(#SVGID_4_);}
	.st16{fill:url(#SVGID_5_);}
	.st17{fill:url(#SVGID_6_);}
	.st18{fill:url(#SVGID_7_);}
	.st19{fill:url(#SVGID_8_);}
</style>
<defs>
</defs>
<path class="st0" d="M203.16,441.89c0.95-0.88,2.6-0.83,3.5,0.1c-1.13-1.03-1.36-2.92-0.47-4.17c0.89-1.24,2.79-1.63,4.08-0.82
	c-6.79-5.35-15.83-6.98-24.47-6.87c-2.35,0.03-5.17,0.49-6.08,2.65c-0.82,1.96,0.55,4.26,2.4,5.29s4.05,1.18,6.15,1.48
	c2.51,0.37,4.97,1.02,7.34,1.91c1.88,0.71,4.77,3,6.68,2.94C202.42,443.55,202.43,442.56,203.16,441.89z"/>
<path class="st0" d="M124.13,447.31c0.84-0.09,0.99-1.23,1.37-1.98c0.51-0.99,1.7-1.47,2.81-1.45c1.11,0.02,2.17,0.45,3.2,0.87
	c-1.6-0.9-3.25-1.84-4.36-3.31c-1.1-1.47-1.52-3.62-0.48-5.14c-1.16-0.24-2.22-0.8-3.32-1.24c-2.91-1.17-6.07-1.51-9.18-1.85
	c-4.44-0.48-9.14-0.92-13.19,0.95c-2.17,1-4.61,3.01-3.93,5.66c0.84,3.31,5.07,2.34,7.94,2.55c3.34,0.25,6.68,0.6,9.94,1.37
	C117.06,444.26,122.32,447.51,124.13,447.31z"/>
<linearGradient id="SVGID_1_" gradientUnits="userSpaceOnUse" x1="182.2341" y1="231.9619" x2="182.2341" y2="-1.818989e-12">
	<stop  offset="0.3901" style="stop-color:#BBBBBB"/>
	<stop  offset="0.8911" style="stop-color:#F4E1DC"/>
</linearGradient>
<path class="st1" d="M108.76,221.23c-6.55-7.04-8.44-16.32-16.71-22.12c-7.69-5.39-17.71-6.59-26.75-4.45
	c-12.33,2.93-22.93,10.55-34.28,16.19c-9.85,4.9-23.06,7.82-30.8,0.01c3.67-6.52,7.33-13.03,11-19.55
	c-3.39-4.93-1.15-12.72,4.34-15.11c-3.96-0.93-7.93-1.86-11.89-2.8c4.21-4.24,8.42-8.48,12.63-12.73
	c-3.95,1.74-8.74,1.44-12.44-0.79c10.74-8.78,21.88-17.05,33.38-24.8c-6,4.63-14.56,5.67-21.5,2.63
	c12.25-7.91,26.95-11.05,39.93-17.7c10.6-5.43,19.88-13.11,30.3-18.87c17.11-9.45,36.64-13.39,55.81-17.2
	c10.18-2.02,20.5-4.06,30.85-3.38c17.16,1.13,33.02,9.62,46.94,19.72c10.39,7.53,20.85,17.62,21.23,30.45
	c0.19,6.29-5.4,22.19,1.19,26.82c5.54,3.89,16.44-4.31,19.56-8.61c5.07-6.98,6.12-16.02,6.81-24.62
	c1.26-15.77,1.84-31.71-0.71-47.32c-2.95-18.06-10.02-36.7-4.23-54.06c3.64-10.91,12.84-20.17,24.12-22.45
	c11.28-2.28,24.08,3.39,28.77,13.9c0.85,1.91,1.49,4.01,3.01,5.44c1.53,1.44,3.69,1.96,5.75,2.39c7.05,1.46,14.18,2.51,21.35,3.14
	c2.39,0.21,4.93,0.43,6.81,1.91c1.75,1.39,2.58,3.61,3.33,5.71c2.56,7.2,5.12,14.39,7.68,21.59C353.67,49,342.63,43.7,330.74,42.44
	c-11.89-1.27-24.91,2.17-32.42,11.47c-9.01,11.15-7.99,27.08-6.51,41.34c1.8,17.31,3.6,34.61,5.4,51.92
	c1.28,12.34-4.07,25.03-14.66,31.5c-13.25,8.1-30.07,5.24-45.56,4.24c-15.5-1-33.96,1.9-40.97,15.76
	c-3.21,6.34-3.27,13.78-5.41,20.55s-7.91,13.57-14.95,12.67c-8.42-1.08-11.51-11.35-16.77-18.01c-3.37-4.25-8.19-7.33-13.47-8.59
	c-1.85-0.44-4-0.6-5.49,0.59c-1.34,1.07-1.74,2.91-2.14,4.59c-1.71,7.2-5.83,14.8-13.02,16.59
	C118.99,228.5,112.82,225.59,108.76,221.23z"/>
<linearGradient id="SVGID_2_" gradientUnits="userSpaceOnUse" x1="191.7133" y1="92.4492" x2="308.7368" y2="92.4492">
	<stop  offset="0" style="stop-color:#BBBBBB"/>
	<stop  offset="1" style="stop-color:#F4E1DC"/>
</linearGradient>
<path class="st2" d="M209.92,130.61c8.28,0.81,16.12,5.35,20.95,12.12c3.26,4.58,5.78,10.56,11.19,12.11
	c6.33,1.81,12.22-3.62,16.57-8.56c3.24-3.67,6.56-7.48,8.09-12.14c1.22-3.72,1.2-7.71,1.17-11.62c-0.16-19.87-0.32-39.73-0.48-59.6
	c-0.05-6.11,0.05-14.5-0.74-20.56c-1.54-11.77,1.23-24.9,10.36-32.49c9.12-7.59,25.25-6.59,30.88,3.85
	c0.51,0.95,0.93,1.99,0.82,3.06c-0.37,3.51-5.5,3.87-8.71,2.39c-3.21-1.48-6.79-3.81-9.94-2.22c-3.95,1.98-2.7,8.6,1.18,10.71
	c3.88,2.11,8.67,1.08,12.89-0.2c3.15,5.79,6.09,13.59,1.51,18.34c-2,2.07-4.92,2.86-7.48,4.17c-8.81,4.49-13,15.09-13.11,24.97
	c-0.11,9.89,3.05,19.47,5.32,29.09c2.32,9.88,3.73,19.97,4.18,30.11c0.27,5.95,0.18,12.08-2.04,17.6
	c-2.22,5.52-6.99,10.37-12.9,11.11c-2.87,0.36-5.85-0.24-8.65,0.52c-2.95,0.8-5.27,2.99-7.68,4.85c-8.43,6.5-19.44,9.55-30.02,8.31
	c-5.08-0.59-10.36-2.1-15.17-0.35c-2.14,0.78-4.02,2.17-6.14,3.01c-6.98,2.75-15.86-2.04-17.4-9.38c0.99-0.41,1.98-0.82,2.98-1.23
	c-1.75-1.95,0.17-5.7,2.78-5.42c-2.3-0.26-4.61-0.52-6.91-0.78c2.88-2.19,5.77-4.38,8.65-6.57c-3.02,0.51-6.22-0.12-8.81-1.75
	c1.83-0.81,3.66-1.62,5.5-2.43c-2.59-0.6-5.04-1.86-7.04-3.62c2.79-1.85,6.05-2.98,9.38-3.25c-1.48-1.04-2.95-2.09-4.43-3.13
	c3.16-1.1,6.32-2.2,9.49-3.3c-2.06-0.68-4.12-1.36-6.19-2.04C202.95,134.76,206.93,132.17,209.92,130.61z"/>
<path class="st3" d="M289.06,84.73c0.39,9.81,2.71,19.42,4.26,29.12c2.25,14.02,2.91,28.3,1.96,42.47
	c-0.23,3.41-0.58,6.92-2.16,9.94c-1.59,3.03-4.28,5.34-7.12,7.26c-12.72,8.61-29.66,10.65-44.06,5.29c7.44-2.12,15.5-1.52,22.79-4.1
	c11.67-4.13,19.29-15.9,21.89-28.01c2.6-12.11,1.03-24.67-0.55-36.95c-1.28-9.91-2.55-19.82-3.83-29.74
	c-0.65-5.06-1.28-10.34,0.39-15.16c1.82-5.25,11-11.6,10.18-2.38c-0.31,3.51-2.63,7.42-3.2,11.08
	C289.05,77.25,288.91,81,289.06,84.73z"/>
<path class="st3" d="M318.75,20.35c-1.07,0.84-2.8,0.65-3.66-0.4c-0.32-0.39-0.53-0.87-0.91-1.19c-0.39-0.32-1.06-0.39-1.32,0.04
	c-0.09,0.15-0.12,0.33-0.18,0.49c-0.36,0.95-1.86,0.87-2.53,0.1s-0.78-1.85-0.97-2.85c-0.99-5.14-5.32-9.47-10.47-10.44
	c-2.94-5.91,8.81-2.3,10.93,0.01C310.79,7.37,318.06,20.89,318.75,20.35z"/>
<path class="st4" d="M305.23,25.46c-0.43-1.1-0.85-2.38-0.31-3.43c0.34-0.66,1-1.09,1.67-1.4c4.36-2.03,9.4,0.02,13.96,1.57
	c6.97,2.38,14.34,3.6,21.71,3.58c2.32-0.01,4.71-0.13,6.91,0.64c5.2,1.8,7.54,7.68,9.26,12.91c1.16-0.15,0.52-2.16-0.64-2.33
	c-1.16-0.17-2.31,0.52-3.47,0.39c-1.86-0.2-3.34-2.37-5.14-1.89c-0.64,0.17-1.15,0.66-1.77,0.86c-0.96,0.31-1.98-0.1-2.92-0.47
	c-4.59-1.8-9.47-2.86-14.39-3.1c5.58,1.14,11.09,2.65,16.47,4.5c0.99,0.34,2.18,1,2.06,2.04c-0.08,0.69-0.72,1.15-1.19,1.67
	c-1.03,1.11-1.35,2.83-0.8,4.24c-5.98-2.04-12.21-3.36-18.5-3.94c-5.73-0.53-12.29,0.94-17.71-0.03
	C310.77,36.2,307.03,30.13,305.23,25.46z"/>
<path class="st5" d="M338.57,34.95c1.48,0.3,2.98,0.64,4.26,1.44c1.28,0.79,2.32,2.14,2.35,3.64c0.04,1.84-1.14,4.22,0.43,5.16
	c4.37,0.62,8.87,1.77,12.18,4.69c2.13,1.89,4.17,4.64,7,4.35c1.13-4.97-1.67-9.91-4.51-14.13c-1.05-1.57-2.23-3.21-4-3.89
	c-1.76-0.68-4.22,0.14-4.52,2.01c-1.42-1.5-3.58-1.99-5.62-2.33c-6.03-1-12.1-1.7-18.12-2.73
	C331.55,33.67,335.08,34.23,338.57,34.95z"/>
<path class="st6" d="M302.95,26.11c-2.7-1.07-5.62,0.96-8.53,1.03c-2.81,0.07-5.54-1.97-6.27-4.69c-0.31-1.15-0.22-2.53,0.67-3.33
	c1.07-0.96,2.72-0.65,4.11-0.28c2.71,0.72,5.42,1.43,8.13,2.15c0.88,0.23,1.81,0.5,2.4,1.18c0.59,0.68,0.62,1.93-0.17,2.36
	c-1.13,0.06-2.26,0.12-3.4,0.18"/>
<path class="st7" d="M309.81,26.97c0.75,1.82,3.11,2.2,5.08,2.31c5.18,0.3,10.36,0.6,15.53,0.9c-1.35-0.2-1.98-2.2-0.99-3.14
	c-4.18-0.2-8.32-1.08-12.22-2.6C315.03,23.59,307.38,21.13,309.81,26.97z"/>
<path class="st8" d="M292.03,21.62c-0.58,1.02,0.45,2.47,1.61,2.35s1.91-1.59,1.41-2.65s-1.99-1.44-3.01-0.86
	c-0.05,0.37-0.11,0.74-0.16,1.1"/>
<path class="st9" d="M294.56,1.44c-1.44,0.86-2.91,1.76-3.88,3.12c-0.96,1.37-1.27,3.35-0.27,4.68c1.67,2.23,5.91,1.65,6.92,4.25
	c-3.77,1.68-8.49,0.16-12.06,2.22c-3.05,1.76-4.27,5.89-3.15,9.23c1.12,3.34,4.22,5.78,7.62,6.68c1.36,0.36,2.83,0.53,3.95,1.38
	c1.7,1.3,2.08,3.77,3.66,5.22c2.88,2.64,8.1,0.61,11.01,3.22c-5.41,0.78-9.09,6.56-14.52,7.22c-4.41,0.54-8.45-2.52-11.4-5.85
	c-2.95-3.33-5.5-7.22-9.4-9.34c-1.28-0.7-2.7-1.2-3.81-2.15c-5.27-4.54-1.69-16.35,2.27-20.64c2.33-2.53,6.11-5.17,9.17-6.63
	C284.69,2.15,291.19,3.45,294.56,1.44z"/>
<path class="st10" d="M299.87,19.39c0.92,0.58,1.63,1.61,1.5,2.69c1.36-0.34,2.02-2.06,1.57-3.39c-0.45-1.32-1.72-2.23-3.04-2.69
	c-1.32-0.46-2.74-0.57-4.11-0.83c-2.6-0.49-5.22-1.54-7.8-0.99c-3.46,0.74-5.81,4.47-5.53,8s2.81,6.63,5.98,8.2
	c2.28,1.13,4.95,1.61,6.84,3.31c3.27,2.92,3.52,8.78,7.58,10.44c-0.2,0.46-0.39,0.92-0.59,1.38c3.07-0.05,5.2-4.63,8.1-3.6
	c-1.81-2.06-2.23-5.07-4.06-7.12c-1-1.12-2.34-1.86-3.68-2.56c-3.06-1.59-6.21-3.01-9.43-4.25c-2.5-0.97-5.33-2.1-6.29-4.6
	C283.89,15.48,296.53,17.29,299.87,19.39z"/>
<path class="st10" d="M238,152.71c-2.79-5.33,0.16-11.68,1.33-17.59c1.79-9.02-1.04-18.84-7.36-25.52s-15.96-10.06-25.07-8.78
	c2.17,0.88,4.16,2.22,5.78,3.91c-4.11-2.24-9.03-2.13-13.68-2.73s-9.73-2.42-11.63-6.69c3.62,5.58,9.9,9.36,16.53,9.94
	c-2.08,0.24-4.16,0.49-6.24,0.73c4.34,0.88,8.51,2.56,12.25,4.92c-2.47,0.17-4.94,0.34-7.41,0.5c6.31,1.29,12.06,5.08,15.75,10.36
	c-1.86-0.12-3.71-0.23-5.57-0.35c3.81,1.25,6.96,4.36,8.25,8.15c0,0.33-5-0.68-5.22-0.74C224.02,137.09,232.99,141.13,238,152.71z"
	/>
<path class="st11" d="M136.96,214.03c1.85-1.94,1.66-5.04,2.88-7.43c1.55-3.04,5.15-4.46,8.54-4.85s6.86-0.03,10.2-0.7
	c5.81-1.16,10.5-5.25,15.45-8.5c8.58-5.63,18.44-8.93,28.18-12.17c-1.82-1.47-3.73-3.07-4.39-5.32c-0.66-2.24,0.67-5.2,3.01-5.28
	c-2.26-0.67-4.52-1.34-6.78-2.01c3.89-2.62,8.4-4.33,13.05-4.95c-4.33-0.2-8.63-1.28-12.55-3.14c3.8,0.09,7.61-0.05,11.4-0.42
	c-7.24-3.07-14.62-5.82-22.11-8.24c3.7,0.17,7.4,0.35,11.1,0.52c-0.22-1.39,1.82-1.96,3.17-1.56c1.35,0.4,2.91,1.15,4.05,0.33
	c-0.67-3.48-3.6-6.41-7.08-7.09c-3.48-0.68-7.29,0.93-9.23,3.9c-0.49-2.85-1.04-5.68-1.66-8.5c-5.32,10.29-14.81,17.99-25.3,22.91
	c-10.49,4.92-21.98,7.28-33.45,8.94c1.76,0.44,3.53,0.88,5.29,1.32c-4.75-1.7-10.07-0.58-14.75,1.33s-9.04,4.57-13.85,6.1
	c-12.26,3.89-25.6-0.06-38.4,1.25c-4.93,0.5-9.85,1.79-14.78,1.25c-2.28-0.25-4.51-0.89-6.8-0.98c-3.65-0.14-7.2,1.12-10.64,2.36
	c-7.07,2.55-14.13,5.1-21.2,7.65C9.61,198.21,5.21,205.11,0,210.49c4.54,4.96,12.16,5.46,18.84,4.7
	c10.36-1.18,20.45-4.56,29.42-9.87c3.68-2.18,7.21-4.69,11.21-6.21c4.86-1.85,10.16-2.13,15.36-2.33c3.73-0.15,7.57-0.25,11.05,1.11
	c7.6,2.96,10.96,11.6,16.28,17.78c4.27,4.95,10.33,8.56,16.85,8.98C125.53,225.06,132.46,218.77,136.96,214.03z"/>
<path class="st11" d="M175.98,205.62c0.21,1.77,0.43,3.54,0.64,5.3c1.36-0.43,2.26-1.99,1.95-3.38c0.2,0.65,0.41,1.31,0.61,1.96
	c0.46,0.4,1.32-0.04,1.27-0.65c0.26,0.79,0.51,1.59,0.77,2.38c0.09-0.38,0.4-0.71,0.78-0.81c0.84,2.1,1.68,4.21,2.53,6.31
	c0.95-5.14,1.89-10.28,2.84-15.41c-0.82,2.19-1.34,4.49-1.54,6.82c0.14-2.19-0.28-4.41-1.22-6.39c-0.5,1.52-1,3.04-1.49,4.56
	c-0.02-0.66-0.05-1.31-0.07-1.97c-0.47,0.39-0.78,0.97-0.83,1.58c-0.56-2.48-1.13-4.95-1.69-7.43c-0.89,2.88-1.34,5.9-1.31,8.92
	c-1.49-1.64-2.99-3.28-4.48-4.92c-0.01,1.93,0.14,3.87,0.45,5.78"/>
<path class="st11" d="M152.14,206.49c1.4,1.44,2.79,2.89,4.19,4.33c0.48-0.96,0.42-2.17-0.14-3.09c1.88,1.16,3.92,2.04,6.06,2.6
	c-1.52-1.88-3.28-3.58-5.22-5.04c0.1,0.86,0.38,1.7,0.82,2.44c-1.2-0.29-2.39-0.59-3.59-0.88c-0.22,0.45-0.44,0.9-0.67,1.35
	c-0.63-0.42-1.26-0.85-1.89-1.27"/>
<path class="st10" d="M170.97,104.39c-3.48-2.47-7.58-4.07-11.81-4.62c7.05-0.41,14.2,1.02,20.55,4.12
	c-5.92-5.39-14.68-5.91-22.69-6.13c4.95-2.06,10.35-3.05,15.71-2.88c-3.36-0.72-6.76-1.27-10.18-1.64c5.99-1.5,12.4-1.26,18.27,0.67
	c-14.9-4.33-31.38-2.96-45.36,3.76c3.57,0.17,7.16,0.04,10.72-0.38c-5.82,0.68-11.43,3.06-15.97,6.76c6.52-3.14,13.3-6.34,20.53-6.4
	c-4.98,1.28-9.77,3.3-14.17,5.97c1.19-0.72,6.76-0.14,8.52-0.4c2.46-0.37,4.91-0.88,7.38-1.13
	C158.7,101.45,165.08,102.21,170.97,104.39z"/>
<path class="st3" d="M176.51,99.48c6.39-1.51,13.34-0.44,18.98,2.91c-14.79-3.21-29.73-6.44-44.86-6.34
	c12.43-0.96,24.95-0.72,37.33,0.69c-6.74-3.31-14.06-5.42-21.52-6.23c8.7-1.38,18.08-2.65,25.91,1.38
	c-5.54-2.51-11.2-4.74-16.95-6.69c8.13,0.63,16.84,1.49,23.12,6.7c-3.05-2.24-6.3-4.23-9.68-5.94c4.08-0.16,8.01,1.83,11.02,4.59
	c3.01,2.76,5.25,6.23,7.46,9.67c-4.38-4.01-9.54-7.14-15.11-9.18c1.32,0.46,2.46,1.42,3.15,2.63c-2.43-0.14-4.85-0.28-7.28-0.42
	c5.81,2.71,11.17,6.38,15.81,10.8c-2.17-0.87-4.34-1.74-6.51-2.6c2.76,1.39,4.91,3.91,5.85,6.85c-0.47-1.46-8.17-4.31-9.67-5.07
	c1.9,1.52,4.57,3.81,3.71,6.33C191.64,103.8,184.77,99.71,176.51,99.48z"/>
<path class="st3" d="M211.59,125.06c-1.38-1.14-2.81-2.23-4.27-3.27c3.7,1.1,7.26,2.65,10.57,4.63c-1.36-1.01-2.38-2.48-2.86-4.11
	c2.08,1.27,4.01,2.79,5.72,4.53c-0.96-2.23-1.75-4.53-2.36-6.88c1.71,0.54,2.6,2.36,3.31,4c1.11,2.57,2.22,5.13,3.32,7.7
	c-0.61-3.16-1.4-6.28-2.37-9.34c1.96,2.23,3.57,4.77,4.75,7.5c-0.36-1.79-0.72-3.59-1.08-5.38c2.67,3.7,4.83,7.77,6.38,12.06
	c-0.32-2.73-0.65-5.47-0.97-8.2c1.43,3.8,2.38,7.79,2.8,11.84c-1.57-2.13-3.15-4.25-4.72-6.38c-0.14-0.19-0.37-0.41-0.59-0.32
	c-0.22,0.09,0.08,0.52,0.16,0.29c-0.06-1.16-0.49-2.29-1.21-3.2c0.02,0.5,0.03,1,0.05,1.5c0.15-0.8-0.39-1.67-1.17-1.89
	c-0.54,1.59-0.71,3.3-0.51,4.96c-0.4-1.51-1.26-2.89-2.43-3.92c-0.35,0.51-0.51,1.16-0.44,1.77c-1.24-2.19-3.3-3.9-5.67-4.72
	c0.23,1.18,0.46,2.36,0.69,3.55c-1.55-1.9-3.44-3.52-5.55-4.76c-0.2-0.1-0.24,1.55-0.21,1.71
	C212.85,127.87,212.71,125.99,211.59,125.06z"/>
<path class="st3" d="M105.9,125.37c-4.64,4.59-9.14,9.32-13.49,14.19c-0.28,0.31-0.57,0.68-0.53,1.09c0.09,0.89,1.41,0.87,2.22,0.51
	c2.34-1.03,4.4-2.69,5.89-4.77c0.91-1.27,1.61-2.68,2.55-3.92c1.75-2.31,4.24-3.95,6.16-6.13c1.78-2.02,3.24-4.38,4.74-6.6
	C110.5,120.05,107.94,123.35,105.9,125.37z"/>
<path class="st3" d="M73.29,140.58c-1.75,1.78-3.54,3.64-4.38,5.99c0.98,0.91,2.55,0.9,3.76,0.33c1.2-0.58,2.11-1.62,2.94-2.66
	c3.36-4.26,5.95-9.07,9.03-13.53c1.91-2.77,4.05-5.35,6.54-7.63C84.4,127.37,78.88,134.87,73.29,140.58z"/>
<path class="st3" d="M47.54,147.58c5.08-1.52,7.84-6.83,11.6-10.57c2.99-2.98,7.18-5.48,11.42-5.92
	C61.61,135.28,53.66,139.32,47.54,147.58z"/>
<path class="st3" d="M115.71,145.05c0.91,0.12,1.49-0.92,1.81-1.77c1.57-4.17,12.61-22.05,10.27-24.75
	C125.84,120.59,114.91,144.95,115.71,145.05z"/>
<path class="st3" d="M135.42,139.02c0.4,0.79,1.5-0.2,1.73-1.05c1.12-4.18,1.93-8.51,3.92-12.36c1.76-3.4,4.75-6.64,8.6-7.51
	C144.07,124.88,138.37,130.24,135.42,139.02z"/>
<path class="st3" d="M145.37,138.76c-0.34,0.89-0.64,2.02,0.03,2.72c0.75,0.79,2.18,0.28,2.76-0.64c0.58-0.92,0.61-2.07,0.82-3.14
	c0.21-1.07,0.74-2.23,1.78-2.54c0.23,3-0.12,6.04-1.02,8.9c1.59,0.19,3.25-0.66,4.04-2.05c-0.99,1.04-1.78,2.27-2.33,3.6
	c-0.12,0.29-0.2,0.67,0.04,0.87c0.14,0.11,0.32,0.11,0.5,0.1c3.62-0.19,7.1-2.22,9.05-5.28c-0.83,1.27-2.5,2.14-3.9,1.55
	c-1.4-0.6-1.7-2.99-0.29-3.57c-0.87,1.67-3.68,1.05-4.53-0.63c-0.85-1.68-0.38-3.69,0.11-5.51c0-0.16-2.01,1.24-2.15,1.38
	C148.47,128.88,146.17,136.66,145.37,138.76z"/>
<path class="st3" d="M161.4,149.41c-0.87,0.77-2.14,0.91-3.13,1.52c-0.99,0.61-1.53,2.28-0.51,2.84c0.45,0.25,1.01,0.15,1.5,0.01
	c1.91-0.54,3.67-1.6,5.05-3.03c-1.02,0.45-2.17,0.59-3.27,0.37c-0.02-1.01-0.04-2.02-0.07-3.03"/>
<path class="st12" d="M22.01,152.98c7.89,0.53,15.95-1.79,22.34-6.46c-3.76,1.98-7.52,3.97-11.27,5.95
	c-1.31,0.69-2.66,1.41-3.65,2.52c-0.99,1.11-1.56,2.72-1.05,4.11c4.68,1.49,9.77-0.5,13.88-3.19c4.11-2.69,7.79-6.12,12.32-8.01
	c-4.45,2.45-8.65,5.35-12.53,8.64c-2.13,1.81-4.29,4-4.51,6.78c6.36-0.62,11.43-5.32,16.81-8.77c3.41-2.18,7.1-3.91,10.95-5.13
	c-4.89,2.27-9.2,5.77-12.44,10.08c4.56-2.24,9.26-4.2,14.05-5.87c-4.98,3.67-10.81,6.17-16.91,7.26c-0.01-0.93-0.01-1.85-0.02-2.78
	c-4.51,3.93-10.24,6.45-16.19,7.11c0.13-1.74,0.7-3.44,1.63-4.92c-4.45,1.38-9.23,1.71-13.83,0.97c1.47-1.23,2.56-2.9,3.08-4.75
	c-2.33-0.48-4.68-0.82-7.05-1c-0.17-0.01,5.49-8.08,6.31-8.82c2.03-1.84,5.42-5,8.17-3.71C28.24,145.87,24.71,148.94,22.01,152.98z"
	/>
<path class="st12" d="M99.41,164.01c-2.85,2.04-6.38,3.23-9.15,1.37c0.22-2.15,0.93-4.26,2.06-6.11c-1.81,1.39-3.73,2.65-5.74,3.76
	c-1.02,0.57-2.48,1.02-3.22,0.12c-0.39-0.48-0.39-1.15-0.34-1.76c0.19-2.52,0.89-4.99,2.05-7.24c-3.88,4.96-9.39,8.63-15.46,10.3
	c0.94-2.12,6.48-11.61,0.75-8.66c-3.55,1.83-7.64,11.37-9.9,14.73c-0.33-2.16-0.66-4.32-0.99-6.48c-2.08,3.65-6.12,6.1-10.32,6.24
	c-0.38-1.47-0.14-3.1,0.66-4.39c-5.1,3.31-10.63,5.95-16.41,7.83c-1.94,0.63-4.14,1.16-5.96,0.23s-2.44-4-0.62-4.92
	c-4.36,0-8.78,0.02-12.97,1.2c-4.19,1.19-8.2,3.72-10.17,7.61c3.68,0,7.36-0.81,10.7-2.37c-3.73,0.97-6.88,3.92-8.1,7.57
	c2.27-0.42,4.55-0.83,6.82-1.25c-3.96,2.64-7.17,6.41-9.13,10.75c3.69-1.83,7.39-3.66,11.08-5.49c-3.21,4.72-6.43,9.45-9.64,14.17
	c8.53-4.21,16.57-9.4,23.93-15.44c2.02-1.66,4.05-3.42,6.51-4.32c2.56-0.94,5.36-0.86,8.09-0.78c11.07,0.35,22.13,0.7,33.2,1.05
	c7.08,0.22,14.28,0.43,21.1-1.46c8.34-2.32,15.59-7.65,23.91-10.05c8.85-2.55,18.77-1.77,26.71-6.43c-1.8,0.08-3.6,0.16-5.4,0.24
	c0.25-1.7,1.39-3.25,2.94-4c-2.19,1.87-4.95,3.47-7.79,3.02c-2.84-0.45-5.16-3.93-3.56-6.32c-2.39,2.51-5.24,4.58-8.37,6.08
	c-0.03-2.48-0.07-4.96-0.1-7.44c-0.93,2.54-1.99,5.24-4.2,6.8c-2.22,1.55-5.95,1.19-6.91-1.34c-0.9-2.38,0.87-5.66-1.05-7.33
	c-2.01,3.71-4.44,7.19-7.24,10.35c0.93-4.46,1.86-8.91,2.79-13.37c-1,4.8-6.09,7.99-8.4,11.98c-1.87,3.22-2.23,7.18-2.75,10.83
	c2.63-2,4.93-4.62,6.99-7.2c-0.57,0.84-0.54,2.05,0.08,2.85s1.78,1.15,2.74,0.82c0.97-0.34,1.61-1.23,2.2-2.07
	c0.72-1.04,1.43-2.07,2.15-3.11c-0.77,0.89-0.93,2.26-0.38,3.3c0.55,1.04,1.77,1.68,2.94,1.55c1.98-0.23,3.15-2.26,4-4.06
	c-0.21,1.61-0.53,3.28-1.5,4.59s-2.78,2.13-4.28,1.49c-0.54-0.99-1.08-1.98-1.62-2.97c-2.17,1.53-4.64,2.64-7.24,3.22
	c0.12-1.06-0.32-2.17-1.14-2.85c-0.83,3.38-3.77,6.14-7.2,6.76c-0.32,0.06-0.7,0.08-0.94-0.15c-0.24-0.24-0.21-0.63-0.17-0.97
	c0.24-1.73,0.48-3.45,0.71-5.18c-2.25,3.14-6.04,5.35-9.4,7.23c-0.05-2.43,0.34-4.88,1.17-7.17c-1.69,1.79-3.39,3.58-5.08,5.36
	c-0.86,0.9-2.26,1.85-3.19,1.04c-0.69-0.6-0.51-1.7-0.26-2.59c0.4-1.46,0.81-2.92,1.21-4.38c-1.11,4.86-6.17,8.46-11.12,7.93
	c0.51-2.57,1.01-5.13,1.52-7.7c-2.23,3.4-5.61,6.03-9.44,7.37c-0.08-1.87-0.15-3.73-0.23-5.6c-1.62,3.35-5.05,5.75-8.75,6.12
	c0.82-1.91,0.73-4.19-0.23-6.04c-1.65,3.53-4.87,6.3-8.61,7.4c0.09-2.28,0.63-4.55,1.56-6.63c-0.02,1.06-0.05,2.12-0.07,3.17
	c3.25-1.05,6.22-2.94,8.55-5.44c-1.19,1.1-0.61,3.33,0.83,4.06c1.45,0.74,3.28,0.22,4.51-0.84c1.22-1.06,1.96-2.58,2.59-4.07
	c0.55,1.92,1.11,3.84,1.66,5.75c2.02-3.39,5.17-6.1,8.83-7.58c0.23,2.49,0.46,4.98,0.69,7.47c3.72,0.69,6.54-3.16,8.34-6.48
	c0.14,2.21,0.28,4.41,0.42,6.62c1.56-2.23,3.11-4.46,4.67-6.69c0.45,1.61,0.9,3.23,1.35,4.84C91.58,169.91,95.5,166.57,99.41,164.01
	z"/>
<path class="st11" d="M38.65,138.54c-0.86,0.49-1.84,1.35-1.48,2.27c0.26,0.68,1.1,0.9,1.82,0.99c5.7,0.74,11.65-0.7,16.38-3.96
	c-4.77,2.82-9.55,5.65-14.32,8.47c-0.66,0.39-1.37,0.84-1.61,1.58c-0.6,1.9,2.23,2.89,4.21,2.7c5.74-0.57,11.31-2.68,15.98-6.07
	c-1.63,3.33-3.26,6.66-4.89,9.99c4.14-0.27,8.09-2.57,10.38-6.02c-0.99,1.81-2,3.75-1.84,5.8c0.17,2.05,2.08,4.09,4.07,3.57
	c0.97-0.25,1.71-1.02,2.39-1.76c5.14-5.65,9.76-11.8,15.36-17c5.6-5.2,12.42-9.48,20.01-10.35c-7.08-0.24-13.85,3.19-19.32,7.7
	c-5.47,4.51-9.93,10.09-14.88,15.17c-0.52,0.53-1.07,1.07-1.78,1.28c-1.69,0.49-3.35-1.28-3.44-3.04s0.85-3.38,1.77-4.88
	c-2.13,1.11-4.44,1.89-6.81,2.3c-0.73-1.64-0.78-3.57-0.15-5.25c-3.86,0.86-7.73,1.72-11.59,2.58c1.68-3.07,4.21-5.66,7.23-7.41
	c-2.39-0.16-4.78-0.32-7.16-0.47c4.12,0.27,11.47-8.92,14.7-11.31C56.11,131.15,46.83,133.88,38.65,138.54z"/>
<path class="st11" d="M177.03,119.01c-9.87-3.94-21.25-3.92-31.11,0.04c5,0.62,9.99,1.24,14.99,1.87c-3.28,0.67-6.54,1.48-9.75,2.44
	c-3.24,0.96-6.84,2.45-7.93,5.65c2.24,0.5,4.34-1.1,6.36-2.19c3.01-1.62,6.56-2.2,9.93-1.63c-2.56,0.43-5.16,0.86-7.51,1.95
	c-2.36,1.08-4.49,2.91-5.36,5.36c3.52,1.34,6.45-4.15,10.2-3.81c-1.99,2.27-2.95,5.4-2.6,8.39c1.74-2.05,3.91-3.74,6.32-4.94
	c-0.04,3.25-0.98,6.49-2.67,9.27c1.66-2.53,3.68-4.89,6.24-6.5s5.72-2.42,8.67-1.73c-0.9,1.54-1.8,3.09-2.7,4.63
	c1.25-1.71,2.25-3.63,3.8-5.08s3.85-2.36,5.8-1.53c-1.26-1.41-2.84-2.53-4.58-3.27c3.16-0.67,6.59,0.06,9.2,1.95
	c-1.72-1.14-3.43-2.28-5.15-3.41c2.5,1.66,5.73,0.07,4.92-2.49C183.37,121.63,179.09,119.84,177.03,119.01z"/>
<path class="st3" d="M166.24,215.44c0.44-5.04,1.36-10.04,2.73-14.91c0.23-0.81,0.49-1.65,1.11-2.22c1.12-1.04,3.03-0.72,4.19,0.28
	c1.16,1,1.75,2.49,2.3,3.92c0.26-2.92,0.52-5.85,0.78-8.77c-0.02,1.37,1.81,2.16,3.05,1.59s1.89-1.96,2.18-3.3
	c1.06,0.88,2.13,1.76,3.19,2.64c1.37-1.16,2.75-2.32,4.12-3.48c-0.03,5.39,0.49,10.79,1.54,16.08c-0.61-2.99-0.61-6.1,0.01-9.08
	c-0.09,4.48-0.18,8.96-0.26,13.44c0.62-9.07,2.17-19.66,10.15-24c-0.85,1.57-3.63,0.32-3.65-1.46s1.63-3.14,3.28-3.83
	c1.65-0.68,3.49-1.01,4.9-2.1c-2.53,1.26-5.9,0.55-7.69-1.64s-1.85-5.63-0.11-7.86c-1.76,0.23-3.59-0.07-5.18-0.86
	c0.77-3.44,4.22-6.08,7.74-5.92c-3.41,0.53-7.05-0.61-9.54-2.99c-1.94,4.19-4.81,7.95-8.33,10.94c2.65-0.75,5.3-1.51,7.95-2.26
	c-0.86,2.9-3.35,5.25-6.28,5.94c2.05-0.36,4.09-0.72,6.14-1.09c-1.74,0.96-3.49,1.92-5.23,2.88c0.91-0.01,1.81-0.01,2.72-0.02
	c0.23,4.15-3.65,7.2-7.12,9.48c1.87-0.66,3.75-1.33,5.62-1.99c-2.67,1.56-5.34,3.12-8.01,4.68c-4.12,2.4-8.23,4.81-12.44,7.04
	c-3.59,1.9-9.44,3.3-12.44,5.86C146.84,208.23,166.77,209.32,166.24,215.44z"/>
<path class="st3" d="M129.14,206.8c2.76-3.11,5.99-5.79,9.54-7.95c-1.46,1.11-3.27,1.78-5.1,1.88c-0.01-2.86-0.02-5.72-0.03-8.58
	c-4.64,3.42-9.47,7.09-11.78,12.37c-1.66-2.11-3.01-4.46-3.99-6.96c-0.27,2.03-0.53,4.06-0.8,6.08c-0.1,0.74-0.35,1.65-1.09,1.76
	c-0.31,0.05-0.62-0.07-0.91-0.19c-1.89-0.78-3.79-1.56-5.68-2.35c1.35,2.21,2.7,4.42,4.04,6.64c0.1,0.17,0.23,0.36,0.42,0.41
	c0.25,0.07,0.51-0.11,0.68-0.31c0.55-0.64,0.72-1.51,1.11-2.26c0.39-0.75,1.21-1.43,2.01-1.14c0.74,0.27,0.97,1.16,1.33,1.86
	s1.38,1.27,1.86,0.66c2.09-2.67,1.82-7.65,7.13-7.06c-0.29,0.74-0.32,2.15-0.79,2.92c1.26-0.74,2.38-1.81,3.21-3.06
	C130.09,202.59,129.88,205.96,129.14,206.8z"/>
<path class="st3" d="M42.94,199.42c4.97,0.57,10.12,1.12,14.88-0.4c1.61-0.52,3.14-1.26,4.72-1.86c6.19-2.34,13-2.39,19.61-2.06
	c-7.71-0.81-15.46-1.15-23.21-1c1.4-0.14,2.85,0.34,3.9,1.28c-4.22-0.65-7.93,2.71-12.08,3.71c-3.87,0.93-8.02-0.25-11.89,0.66
	c2.87,0.14,5.72,0.75,8.4,1.81c-1.68,0.09-3.33,0.57-4.79,1.4c2.78,0.85,6.08-0.91,6.92-3.69"/>
<path class="st10" d="M111,98.58c3.35-1.89,7.28-2.37,11.09-2.82c-6.94,4.71-14.86,9.47-22.94,11.84
	C98.62,105.51,108.53,99.98,111,98.58z"/>
<path class="st10" d="M107.35,120.2c-0.21,0.35-0.43,0.74-0.39,1.15c0.1,1.26,1.97,1.24,3.15,0.78c1.94-0.77,3.83-1.66,5.66-2.67
	c-0.74-0.5-1.64,0.35-2.51,0.53c-4.77,0.98-1.03-6.89,0.93-8.19C111.55,114.3,109.22,117.09,107.35,120.2z"/>
<path class="st10" d="M66.58,128.53c4.73-0.29,8.37-4.23,11-8.18c1.76-2.65,4.15-8.11,7.39-8.8c-3.17,2.72-6.67,5.13-9.78,7.99
	C73.7,120.9,68.16,128.44,66.58,128.53z"/>
<path class="st10" d="M109.6,136.82c-1.11,0.93-2.3,1.83-3.01,3.1s-0.76,3.03,0.29,4.03c0.55,0.52,1.31,0.76,2.06,0.84
	c2.26,0.24,4.62-0.96,5.75-2.93c-1.42-0.64-3.7,0.51-4.33-0.91c-0.13-0.31-0.12-0.65-0.1-0.99c0.34-5.58,3.5-13.13,8.8-15.58
	C118.79,128.78,112.92,134.05,109.6,136.82z"/>
<path class="st13" d="M173.05,227.28c0.55,8.08,1.11,16.15,1.66,24.23c0.67,9.74,1.34,19.49,2.01,29.23
	c0.73,10.66,1.46,21.34,1.27,32.02c-5.2,6.08-2.78,15.73-1.2,23.57c2.98,14.75,1.29,29.98,0.2,44.98
	c-1.31,18.09-1.73,36.24-1.24,54.36c0.02,0.79,0.06,1.63,0.52,2.28c0.57,0.81,1.62,1.08,2.59,1.29c4.68,1.04,9.36,2.08,14.04,3.12
	c3.68,0.82,6.72,1.67,10.23,3.05c-5.07-5.76-12.95-8-20.38-9.96c8.58-0.94,17.48,1.51,24.36,6.72c-5.38-6.68-14.63-8.53-23.1-9.94
	c9.13-1.52,18.78,0.31,26.72,5.06c-3-4-7.67-6.47-12.48-7.82c-4.25-1.2-9.17-0.08-13.32-1.66c-6.03-2.3-2.92-10.54-2.59-16.12
	c0.54-9.1,0.95-18.21,1.23-27.32c0.13-4.37,0.23-8.75,0.3-13.12c0.03-2.13-0.21-4.46,0.08-6.57c1.24-8.92,0.28-17.22,0.38-26.23
	c0.02-1.63,0.07-3.29,0.65-4.81c0.47-1.24,1.26-2.35,1.58-3.63c0.66-2.65-0.85-5.79-1.2-8.41c-0.57-4.27-0.77-8.75-1.09-13.07
	c-0.69-9.37-0.86-18.77-0.81-28.17c0.1-18.84,1.11-37.68,0.72-56.52c-1.6-0.7-3.56,1.36-2.77,2.92c0.73-0.08,0.33-1.41-0.41-1.37
	c-0.73,0.04-1.2,0.78-1.55,1.43c-0.61,1.15-1.22,2.31-1.83,3.46c-0.82-1.82-2.85-3.02-4.84-2.86"/>
<linearGradient id="SVGID_3_" gradientUnits="userSpaceOnUse" x1="175.4334" y1="336.9775" x2="184.7804" y2="336.9775">
	<stop  offset="0" style="stop-color:#E2E0E0;stop-opacity:0.8"/>
	<stop  offset="0.8911" style="stop-color:#F4B5B0;stop-opacity:0.4"/>
</linearGradient>
<path class="st14" d="M175.62,438.26c1.32-0.59,2.64-1.19,3.96-1.78c-0.36-0.79-1.13-1.37-1.99-1.49c1.25-1,2.24-2.33,2.84-3.82
	c-1.28,0.25-2.56,0.5-3.84,0.75c1.73,0.08,3.37-1.41,3.46-3.14c0.09-1.73-1.39-3.38-3.11-3.49c0.82-0.57,1.64-1.14,2.46-1.71
	c-0.68-0.28-1.04-1.17-0.73-1.84c-0.88-0.25-1.76-0.49-2.64-0.74c1.14,0.08,1.71-1.81,0.72-2.38c0.93-0.43,1.86-0.85,2.78-1.28
	c-1.8-1.54-2.77-4.01-2.48-6.36c1.01,0.14,1.72-1.42,0.95-2.09c1.36-0.21,2.66-0.76,3.76-1.59c-1.82-0.42-3.49-1.43-4.72-2.83
	c0.35-1.84,1.85-3.4,3.67-3.82c-0.87-0.6-1.74-1.2-2.61-1.8c0.96-0.6,1.92-1.2,2.89-1.81c-0.89-3.81-1.77-7.62-2.66-11.43
	c0.62-0.6,1.25-1.2,1.87-1.8c0.08-2.91-0.53-5.83-1.76-8.46c0.98-0.62,1.95-1.24,2.93-1.85c-2.51-2.53-2.82-6.94-0.69-9.8
	c-0.36-0.78-0.73-1.56-1.09-2.34c0.95-0.34,1.9-0.67,2.85-1.01c-1.97-7.08-2.38-14.59-1.17-21.85c-0.93-1.21-2.52-2.31-3.45-3.52
	c1.5,0.61,3.24,0.59,4.73-0.05c-2.13-0.84-3.9-2.53-4.84-4.61c1.77,0.84,3.74,1.24,5.69,1.16c-2.59-1-4.83-2.87-6.29-5.24
	c1.72,2.26,5.11,3.06,7.66,1.81c-3.08-0.99-5.83-3.02-7.68-5.68c1.8,1.69,4.55,2.28,6.88,1.48c-2.71-0.91-5.01-2.95-6.25-5.52
	c1.72,0.94,3.86,1.09,5.7,0.41c-1.28-1.08-2.56-2.16-3.84-3.25c0.37-8.02,0.74-16.04,1.11-24.06c0.61-0.41,1.23-0.83,1.84-1.24
	c-1.99-1.36-3.97-2.72-5.96-4.08c1.09-0.57,2.18-1.14,3.27-1.71c-1.36-0.94-1.23-3.35,0.23-4.13c-3.96-3.58-2.31-11.3,2.77-12.96
	c-3.2-1.27-5.29-4.86-4.82-8.27c0.94,0.36,1.88,0.73,2.83,1.09c-2.81-3.42-4.33-7.89-4.18-12.32c0.82,0.3,1.65,0.6,2.47,0.9
	c-1.11-1.91-2.21-3.82-3.32-5.73c0.95,0.31,1.91,0.62,2.86,0.93c-0.94-1.26-1.39-2.89-1.23-4.46c1.33,0.84,3.22,0.65,4.35-0.43
	c-2.34,0.25-4.75-1.2-5.65-3.37c1.15,16.43,1.03,33.38,2.18,49.81c0.71,10.13,1.41,20.44-0.86,30.34c-0.9,3.9-2.26,7.8-2,11.8
	c0.24,3.74,1.87,7.23,2.87,10.84c1.85,6.65,1.55,13.69,1.23,20.58c-0.39,8.42-0.77,16.85-1.16,25.27
	C177.62,401.82,176.51,420.77,175.62,438.26z"/>
<path class="st0" d="M175.37,422.45c-0.07,4.31-0.13,8.61-0.2,12.92c-0.02,0.97,0.03,2.09,0.79,2.71c0.41,0.33,0.95,0.45,1.47,0.55
	c4.25,0.84,8.49,1.68,12.74,2.52c-1.9-2.04-4.99-2.22-7.71-2.86c-2.18-0.52-4.27-1.42-6.14-2.66c0.25-0.75,0.97-1.31,1.75-1.39
	c-0.51-0.27-0.63-0.94-0.7-1.51c-0.16-1.33-0.31-2.66-0.47-3.99c-0.1-0.81-0.19-1.62-0.29-2.44c-0.13-1.14-0.27-2.3-0.05-3.43
	c0.31-1.63,1.26-3.56,0.1-4.76c1.05,0.02,1.45-1.42,1.18-2.44s-0.86-2.05-0.53-3.04c0.18-0.53,0.61-0.97,0.72-1.52
	c0.14-0.72-0.29-1.42-0.58-2.1c-0.51-1.22-0.54-2.58-0.57-3.9c-0.06-2.84-0.12-5.67-0.17-8.51c-0.02-0.75-0.02-1.54,0.39-2.17
	c0.5-0.78,1.6-1.37,1.37-2.27c-0.15-0.59-0.86-0.92-1-1.51c-0.11-0.5,0.22-0.98,0.48-1.43c1.82-3.17,0.13-7.29,1.27-10.76
	c0.35-1.05,0.96-2.06,0.91-3.16c-0.03-0.66-0.29-1.29-0.5-1.91c-0.79-2.44-0.71-5.07-0.62-7.64c0.08-2.44,0.17-4.88,0.25-7.32
	c-0.29-0.33-0.78-0.61-1.06-0.94c0.58,1.63,0.56,3.4,0.52,5.13c-0.21,9.56-0.86,19.11-1.52,28.65c-0.39,5.64-0.77,11.29-1.16,16.93
	c-0.06,0.94-0.5,2.02-0.33,2.95c0.11,0.58,0.29,1.14,0.33,1.73c0.06,0.79-0.12,1.57-0.24,2.35c-0.28,1.71-0.3,3.46-0.08,5.18
	C175.84,421.23,175.92,421.85,175.37,422.45z"/>
<path class="st13" d="M102.47,431.52c0.49-7.48,0.98-14.96,1.47-22.43c1.01-15.51,2.03-31.04,3.85-46.45
	c0.78-6.58,1.13-13.6,3.83-19.36c2.6-5.56,0.19-8.91,0.78-14.8c3.36-33.65,9.08-67.38,10.09-101.27c0.07-2.3,0.14-4.6,0.21-6.91
	c-0.18,1.86-0.55,3.7-1.09,5.45c-0.38-1.63-0.77-3.27-1.15-4.9c-0.56,1.33-0.99,2.74-1.28,4.18c-0.48-2.07-1.09-4.11-1.84-6.07
	c-0.76,1.67-1.3,3.48-1.59,5.35c-1.32-2.11-2.94-3.97-4.78-5.46c0.04,4.36,0.08,8.72,0.12,13.08c0.27,30.48-3.18,60.49-7.49,90.49
	c-0.24,1.66-0.51,3.34-1.15,4.84c-0.56,1.3-1.39,2.43-1.95,3.74c-3.01,7.01,2.6,15.65,0.7,23.18c-6.58,26.08-6.03,52.93-8.2,80.05
	c-0.25,3.18-0.33,6.88,1.76,9c1.85,1.88,4.6,1.66,7.04,1.49c8.01-0.55,16.13,0.7,23.77,3.67c-7.63-5.26-16.64-7.73-25.44-6.98
	c4.88-3.31,11.04-3.09,16.57-1.49c5.54,1.6,10.77,4.44,16.28,6.14c-8.83-8.24-20.83-9.77-32.09-10.37
	c8.32-2.97,17.49-2.76,25.77,0.61C120.04,429.97,110.93,430.6,102.47,431.52z"/>
<linearGradient id="SVGID_4_" gradientUnits="userSpaceOnUse" x1="95.5285" y1="329.7184" x2="120.0792" y2="329.7184">
	<stop  offset="0" style="stop-color:#E2E0E0;stop-opacity:0.8"/>
	<stop  offset="0.8911" style="stop-color:#F4B5B0;stop-opacity:0.4"/>
</linearGradient>
<path class="st15" d="M111.07,219.73c1.21,4.07,1.72,8.35,1.51,12.6c-0.22,4.57-1.27,9.1-1.11,13.68c0.08,2.34,0.48,4.65,0.8,6.97
	c1.06,7.61,1.34,15.31,1.61,22.99c0.2,5.57,0.39,11.15,0.59,16.72c0.1,2.9,0.2,5.84-0.44,8.66c-0.91,4.05-3.28,7.66-4.09,11.73
	c-0.9,4.51,0.18,9.21-0.54,13.75c-0.06,0.4-0.16,0.82-0.47,1.08c-0.35,0.29-0.85,0.26-1.3,0.22c-1.69-0.15-3.38-0.29-5.06-0.44
	c2.35-0.23,4.78,0.83,6.21,2.7c-2.86,0.31-5.71,0.62-8.57,0.93c2.37,0.62,4.74,1.23,7.11,1.85c-1.59,0.46-3.18,0.92-4.77,1.38
	c2.21-0.23,4.49,0.24,6.42,1.34c-2.04,0.76-4.25,1.07-6.42,0.9c2.53-0.16,5.09,0.12,7.53,0.82c-2,1.59-4.64,2.36-7.18,2.1
	c2.32,0.1,4.63,0.19,6.95,0.29c-1.96,1.43-4.25,2.4-6.64,2.81c1.44-0.51,3.01-0.65,4.52-0.4c-1.18,1.52-2.72,2.76-4.45,3.58
	c1.14,0.07,2.28,0.14,3.42,0.21c0.28,0.02,0.63,0.11,0.65,0.38c0.02,0.27-0.57,0.1-0.33-0.04c0.38,0.98,1.15,1.78,1.54,2.75
	c-1.81,0.46-2.47,2.65-2.81,4.49c-0.44,2.34-0.88,4.69-1.31,7.03c-0.39,2.11-0.79,4.21-1.11,6.33c1.08,1.54,2.02,3.56,1.18,5.24
	c-0.57,1.14-1.83,1.8-2.46,2.9c-0.63,1.11,0.19,3.06,1.36,2.56c-1.34,0.95-2.24,2.49-2.43,4.12c-1.5,1.59-1.43,4.4,0.14,5.92
	c0.74,0.18,1.49,0.37,2.23,0.55c-1.21,0.58-2.42,1.16-3.63,1.74c1.18,0.89,1.52,2.72,0.72,3.97c0.58,0.22,1.15,0.45,1.73,0.67
	c-1.1-0.24-1.94,1.06-1.99,2.18c-0.05,1.12,0.3,2.28-0.05,3.35c-0.23,0.7-0.73,1.28-0.91,1.99c-0.6,2.36,2.59,4.41,2.07,6.79
	c-0.22,1.01-1.08,1.76-1.47,2.72c-0.85,2.09,0.63,4.76-0.64,6.63c1.42-0.53,2.11,1.89,1.35,3.2c-0.76,1.31-2.12,2.59-1.71,4.05
	c0.16,0.58,0.6,1.09,0.59,1.69c-0.02,0.6-0.47,1.07-0.85,1.54c-1.5,1.86-1.98,4.5-1.22,6.77c-1.28,0.83-2.01,2.44-1.78,3.95
	c1.67,0.17,3.35-1.22,3.49-2.89c-0.59,0.28-1.18,0.56-1.76,0.84c1.43-1.45,2.86-2.91,4.29-4.36c-0.88,0.28-1.77,0.55-2.65,0.83
	c0.86-1.34,1.73-2.67,2.59-4.01c-0.78-0.8-1.28-1.86-1.39-2.98c1.3,0.37,2.01-1.48,2.05-2.83c0.22-8.47-1.2-16.97-0.25-25.39
	c1.19-10.57,6.06-21.34,2.75-31.45c1.37-5.55,2.7-11.22,4.07-16.77c0.56-2.27,0.64-5.46-1.61-6.11c1.11-1.12,2.22-2.24,3.33-3.36
	c0.04-1.95,0.08-3.9,0.13-5.85c-1.46-0.61-1.57-3.05-0.17-3.79c-0.76,0.17-1.35-0.78-1.22-1.55c0.13-0.77,0.68-1.38,1.05-2.07
	c1.34-2.5,0.16-5.52-0.51-8.27s-0.3-6.45,2.4-7.32c0.54-3.34,1.07-6.67,1.61-10.01c0.87-5.43,1.75-10.86,2.62-16.29
	c-0.42-1.17-0.83-2.35-1.25-3.52c0.46-0.54,0.92-1.07,1.39-1.61c-2.22-0.91-1.5-5.01,0.89-5.12c-1.4,0.42-2.46-2.26-2.03-3.66
	s1.42-2.79,1-4.2c-0.11-0.38-0.32-0.78-0.16-1.14c0.16-0.36,0.6-0.47,0.92-0.69c1.25-0.84,0.54-2.83-0.53-3.9
	c-1.06-1.06-2.49-2.15-2.38-3.65c1.03-0.82,2.06-1.64,3.09-2.45c-1.33-1.5-2.67-3.01-4-4.51c1.34-2.45,3.99-4.13,6.77-4.31
	c-0.46-1.54-1.52-2.9-2.9-3.73c0.48-0.23,0.96-0.45,1.44-0.68c-2.02-0.85,0.12-5-1.92-5.8c1.08-0.45,2.16-0.9,3.24-1.35
	c-1.38-1.44-2.76-2.87-4.14-4.31c0.92-0.18,1.79-0.54,2.57-1.05c-0.89-1.22-1.78-2.44-2.67-3.66c0.44-0.2,0.89-0.39,1.33-0.59
	C114.75,224.18,112.7,222.24,111.07,219.73z"/>
</svg>
