<!-- Generator: Adobe Illustrator 23.0.4, SVG Export Plug-In  -->
<svg version="1.1" xmlns="http://www.w3.org/2000/svg" xmlns:xlink="http://www.w3.org/1999/xlink" x="0px" y="0px"
	 width="486.61px" height="493.02px" viewBox="0 0 486.61 493.02" style="enable-background:new 0 0 486.61 493.02;"
	 xml:space="preserve">
<style type="text/css">
	.st0{fill:#D6939D;}
	.st1{opacity:0.8;fill:#E07575;}
	.st2{opacity:0.8;fill:#F8F6EE;}
	.st3{opacity:0.8;fill:#FCF0F0;}
	.st4{fill:#E2AF2D;}
	.st5{opacity:0.49;fill:#847A7D;}
	.st6{fill:#FFCC66;}
	.st7{opacity:0.3;fill:#ECEDCD;}
	.st8{fill:#191517;}
	.st9{opacity:0.8;fill:#2D292B;}
	.st10{fill:#CD4F58;}
	.st11{opacity:0.8;fill:#CC7D7D;}
	.st12{fill:#EAE1DF;}
	.st13{opacity:0.7;fill:#F5E8AA;}
	.st14{fill:#F5E8AA;}
	.st15{opacity:0.4;fill:#D6D6D6;}
	.st16{opacity:0.3;fill:#D6D6D6;}
	.st17{fill:none;stroke:#000000;stroke-width:0.5;stroke-miterlimit:10;}
</style>
<defs>
</defs>
<g>
	<path class="st0" d="M200.88,188.07c-1.22,17.81-1.08,35.45,0.33,53.25c-1.49-1.15-2.58-2.48-3.46-4.14
		c-0.74,3.19-1.47,6.38-2.21,9.57c-1.26-2.04-1.71-4.07-1.45-6.46c-0.82,2.45-1.63,4.9-2.45,7.35c-0.13-1.87-0.27-3.74-0.4-5.62
		c-0.56,1-1.13,2-1.69,2.99c0.25-0.64-0.28-1.28-0.95-1.23c-0.68,0.05-1.09,0.63-1.52,1.09c0.68-3.4,0.18-6.33-1.66-9.28
		c-0.56,1.97-1.43,3.65-2.72,5.23c-0.29-1.58-0.58-3.15-0.87-4.73c-0.71,0.54-1.15,1.19-1.44,2.03c0.27-0.62,0.08-1.47-0.66-1.63
		c-0.74-0.16-1.23,0.55-1.21,1.22c-0.69-3.02-1.37-6.06-2.07-9.08c-0.26,1.37-0.52,2.75-0.79,4.12c-0.55-1.53-1.11-3.06-1.67-4.58
		c-0.49,2.73-0.99,5.46-1.49,8.2c-0.86-3.5-1.12-6.88-0.8-10.47c-0.7,1.23-1.39,2.47-2.08,3.7c-0.07-1.13-0.14-2.26-0.2-3.39
		c-1.1,0.65-1.92,1.47-2.62,2.54c-0.01-2.01-0.03-4.03-0.04-6.04c-1.01,1.38-2.01,2.75-3.01,4.13c-0.15-1.87-0.3-3.74-0.45-5.61
		c-0.51,1.12-1.01,2.24-1.52,3.36c-0.02-0.85-0.05-1.71-0.07-2.56c-0.64,0.73-1.29,1.45-1.93,2.18c0.12-3.19,0.24-6.39,0.36-9.57
		c0.66,0.44-0.4,1.2-0.95,0.85c-0.55-0.35-0.89-1.27-1.6-1.49c-7.85-4.18-15.4-8.66-22.83-13.57c-4.36-2.88-8.71-5.94-12.91-9.06
		c-1.99-1.47-3.89-3.04-6.34-3.61c-3.26-0.76-6.31,0.17-9.42,1.09c-4.75,1.41-9.3,2.99-14.06,4.4c-3.33,0.98-6.43,2.06-10.05,1.74
		c-3.62-0.31-6.58-2.23-8.34-5.48c6.4-1.67,12.68-3.23,19.12-4.9c3.84-0.99,7.55-2.14,10.66-4.79c1.94-1.65,3.08-4,5.67-4.9
		c2.6-0.9,5.31,0.24,7.68,1.54c13.57,7.47,25.14,19.41,41.21,20.39c12.32,0.76,22.42-6.8,33.82-10.15
		C195.16,185.72,197.99,185.86,200.88,188.07z"/>
	<path class="st0" d="M249.92,248.85c0.81-0.26,1.65-0.48,2.47-0.73c0.03,1.11,0.05,2.21,0.08,3.32c0.85-1.65,1.69-3.31,2.54-4.95
		c0.03,1.12,0.08,2.24,0.13,3.35c2.55-3.65,3.89-7.39,4.33-11.81c0.97,0.87,1.6,1.84,2.02,3.07c0.77-1.88,1.54-3.76,2.31-5.63
		c0.58,1.03,1.17,2.06,1.75,3.09c1.8-1.51,2.89-3.25,3.52-5.52c0.49,1.03,1.13,1.82,2.05,2.5c0.29-1.2,0.58-2.41,0.87-3.61
		c0.9,0.88,1.43,1.85,1.68,3.08c0.3-2.13,0.6-4.27,0.9-6.4c1.01,0.75,1.49,1.69,1.58,2.94c0.16-1.11,0.53-2.05,1.2-2.96
		c1.09,0.26,2.18,0.52,3.28,0.78c0.35-1.27,0.7-2.53,1.05-3.8c1.96,0.9,3.64-0.27,3.91-2.33c0.73,1.26,1.46,2.51,2.18,3.77
		c1.36-1.53,2.17-3.18,2.61-5.18c0.21,0.91,0.43,1.82,0.64,2.74c1.36-3.44,2.39-6.93,3.16-10.55c0.64,1.56,1.46,2.91,2.56,4.19
		c0.96-3.11,1.41-6.16,1.39-9.41c0.22,0.73,0.59,1.28,1.2,1.74c0.48-0.44,0.77-0.93,0.93-1.56c1.44-0.11,2.88-0.23,4.31-0.34
		c0.35-0.73,0.7-1.47,1.06-2.2c8.76-2.47,16.81-5.89,24.62-10.57c3.7-2.22,7.06-4.82,10.85-6.92c5.22-2.89,10.47-5.08,16.35-6.48
		s11.51-1.48,17.27,0.59c0.69,0.25,1.28,0.72,2.05,0.59c2.26-0.36,2.96-3.18,1.81-5.03c-1.15-1.85-3.13-2.78-5.32-3.12
		c-17.45-2.66-32.26,2.79-47.82,10.17c-4.3,2.04-8.16,4.16-12.68,5.27c-5.86,1.43-11.72,1.14-17.59,0.44
		c-6.96-0.83-14.11-2.83-20.51-4.74c-3.55-1.05-3.2,1.25-6.02,1.95c-2.81,0.69-5.24-2.03-8.02-0.4c-5.11,2.98-2.95,10.33-3,15.12
		C257.42,219.27,254.82,233.82,249.92,248.85z"/>
	<g>
		<path class="st0" d="M1.23,206.47c20.51,2.71,37.92-0.52,55.93-10.52c4.27-2.37,7.54-5.61,11.81-7.53
			c9.66-4.36,19.65-6.61,28.65-12.27c2.92-1.83,4.8-4.96,8.12-6.34c7.02-2.91,13.66-1.64,20.44,1.23
			c6.78,2.87,12.43,7.47,19.46,9.44c7.42,2.08,14.61,1.76,22.2,0.84c10.23-1.24,19.66-3.92,29.13-8.11
			c4.15-1.83,7.22-4.94,11.81-6.41c15.51-4.96,31.13-7.03,47.13-2.5c4.1,5.9,8.74,10.95,15.76,12.9c7.02,1.95,13.75,2.1,20.82,1.45
			c19.23-1.78,37.39-6.05,55.67-12.35c8.78-3.03,17.77-5.67,26.34-1.57c11.92,5.7,24.63,6.46,36.57,8.71
			c12.72,2.4,22.66,7.11,34.06,11.27c4.98,1.82,8.12,3.44,13.36,3.63c8.12,0.29,16.31-2.48,24.19-4.5c0.21,1.73-0.42,3.37-1.79,4.39
			c-1.38,1.02-2.9,1.3-4.42,1.61c-4.03,0.82-7.95,1.35-11.93,2.26c2.87,2.81,6.03,3.12,9.92,2.7s7.4-0.71,11.1,0.89
			c-7.49,1.35-14.91,1.98-22.52,1.64c5.91,3.94,12.04,6.3,18.93,7.99c-4.52,0.09-9.05,0.17-13.57,0.32
			c1.36,1.44,2.86,2.65,4.51,3.74c-2.77,1.08-5.11,1.13-7.92,0.17c-0.21,2.15-1.36,3.92-3.17,4.86c-1.81,0.94-3.5,0.98-5.14,1.91
			c-1.64,0.93-2.84,2.45-4.32,3.46c-1.47,1.01-2.88,1.58-4.49,2.16c-3.64,1.31-6.98,2.5-10.71,3.74
			c-5.47,1.81-10.78,3.52-16.65,4.64c-4.58,0.87-9.55,0.81-14.25-0.22c-0.88-0.19-1.86-0.57-2.75-0.44
			c-0.89,0.13-1.41,0.63-2.25,0.86c-2.12,0.58-3.75,0.16-5.55-1.08c-1.82,3.22-4.15,4.28-7.7,3.09c-1.61,3.66-4.22,4.82-7.88,3.07
			c-0.4,2.7-2.47,3.37-4.87,3.67c-1.26,0.16-2.38,0.18-3.57,0.26c-5.06,0.36-10.04,0.54-15.12,0.43c-0.35,2.75-2.51,3.63-4.93,4.02
			c-3.44,0.54-6.61,0.83-9.99,1.31c-0.88,0.73-1.8,1.18-2.93,1.4c-0.1-0.86-0.46-1.37-1.21-1.78c-1.27-1.63-2.37,0.25-3.41,1.45
			s-1.73,3.65-3.59,4.05c-3.1,0.66-5.69-1.89-8.82-1.46c-0.68,0.09-1.16,0.7-1.84,0.84c-0.68,0.15-1.37,0.04-2.07-0.04
			c-2.81-0.32-5.63-0.34-8.46-0.24c-8.18,0.28-16.34,0.62-24.51,0.97c-5.75,0.98-11.5,1.72-17.32,2.16c0.07,1.63,0.15,3.27,0.23,4.9
			c-3.15,1.51-5.84,1.68-9.18,0.67c0.67,2.69-0.59,4.81-2.94,6c-2.35,1.19-4.74,1.13-7.05,2.24c-1.86,0.9-3.22,2.49-4.81,3.77
			c-4.58,3.69-9.01,7.11-14.85,8.44c-5.85,1.34-11.16,0.36-16.15-2.8c-3.39-2.15-5.4-5.56-8.7-7.7c-2.37-1.54-4.85-2.21-7.26-3.79
			c-2.41-1.59-3.82-3.76-4.12-6.69c-0.81,2.42-3.16,3.41-5.3,1.83s-2.19-4.18-2.64-6.56c-1.37,1.05-2.66,2.01-4.45,2.21
			c-8.26,0.89-15.76,0.64-23.7-2.01c0.35,3.01-2.14,4.21-4.74,3.68c-2.6-0.53-4.38-3.07-7.02-2.93c-4.32,0.23-7.32,3.71-11.75,3.26
			c-1.02-0.1-1.64-0.93-2.7-1.3c-1.06-0.38-2.31-0.55-3.54-0.74c-7.42-1.17-14.33-3.29-21.19-6.45c-1.86-0.86-3.58-1.69-5.68-1.43
			c-0.79,0.1-1.37,0.67-2.2,0.56c-1.77-0.23-2.64-1.57-3.57-2.98c-1.03,1.26-2.4,1.57-3.79,0.68c-1.39-0.89-1.86-2.35-2.63-3.72
			c-2.33,3.5-5.06,4.98-9.24,4.3c-1.03-0.17-1.64-0.72-2.68-0.44c-1.04,0.28-1.52,1.63-2.66,1.73c-2.53,0.24-3.45-3.25-5.79-3.39
			c-2.34-0.14-3.33,2.93-5.71,2.61c-1.14-0.15-1.5-1.53-2.57-1.8c-2.19-0.55-3.92,1.2-6.13,0.96c-1.1-0.12-1.69-1.22-2.64-1.82
			c-2.32-1.45-4.79-1.49-7.49-1.83c-6.17-0.78-11.5-2.65-16.9-5.84c-1.44-0.85-2.45-2.15-2.77-3.85c-2.6,2.07-5.17,3.1-8.49,3.35
			c0.45-3.63,1.84-6.01,4.93-7.99c-1.77,1.3-3.79,2.53-5.9,3.08c-2.1,0.55-4.97,0.28-5.14-2.26c-0.17-2.54,2.27-2.96,4.3-3.69
			c4.73-1.7,8.52-4.31,11.85-8.13c-3.76,1.67-7.15,3.57-11.32,4.22c-4.18,0.65-7.85-0.32-11.5-2.47c6.05-1.45,12.12-2.85,18.17-4.34
			c-3.75-0.04-7.27,0.12-10.92-1.04C5.52,211.98,3.06,209.85,1.23,206.47z"/>
		<path class="st1" d="M89.44,183.54c2.55-0.96,5.06-1.96,7.4-3.4c1.94-1.19,3.59-2.85,5.47-4.15c2.99-2.08,6.12-3.84,9.41-5.42
			c1.58-0.76,3.1-1.52,4.92-1.31c2.22,0.25,3.74,1.92,5.53,3.11c7.88,5.24,16.14,8.84,25.52,9.91c9.37,1.07,18.24,0.15,27.52-0.56
			c8.21-0.62,16.19-2.08,24.14-4.16c0.66,4.05-0.72,7.49-4,9.81c-3.29,2.32-6.89,2.85-10.45,4.17c-5.4,1.99-10.08,4.87-15.46,6.93
			c-5.38,2.06-10.65,2.84-16.24,1.06c-3.26-1.04-5.61-3.57-8.44-5.34c-6.91-4.31-14.05-7.79-21.67-10.66
			c-2.01-0.76-3.87-1.8-6.11-1.53c-7.83,0.94-12.39,7.06-19.44,10.15c-4.53,1.98-8.87,1.08-14.1,0.86
			c-3.67-0.16-8.94,0.03-12.31-2.49C77.06,187.85,83.32,185.84,89.44,183.54z"/>
		<path class="st1" d="M257.54,185.23c13.54-0.95,23.92,6.99,36.83,9.47c10.2,1.95,19.43-2.21,28.99-5.55
			c7.04-2.46,13.66-5.79,20.81-8.35s14.52-5.6,22.3-4.47c10,1.46,18.21,8.55,28.34,9.22c7.94,0.53,13.97-3.96,20.58-7.66
			c-12.05-3.82-23.93-7.5-36.15-10.93c-4.73-1.33-9.59-2.97-14.68-2.83c-10.66,0.3-19.94,5.32-29.93,8.45
			c-12.56,3.94-25.11,5.8-38.22,5.43c-13.11-0.36-25.73-3.76-38.78-4.57C257.91,177.4,259.24,181.37,257.54,185.23z"/>
		<path class="st2" d="M91.98,178.58c2.54-1.09,4.9-2.1,7.17-3.62c2.56-1.72,4.22-4.42,7.07-5.82c5.37-2.64,10.64-2.04,16.16-0.13
			s9.9,5.72,15.43,7.47c13.92,4.42,27.27,3.23,41.48,1.19c4.43-0.64,8.74-1.64,12.75-3.24s7.35-4.22,11.56-4.8
			c4.21-0.58,7.79,0.05,11.62-2.04c-4.85,2.04-7.41,6.49-11.51,9.49c-7.78,5.7-16.47,8.19-25.97,8.66
			c-20.93,1.04-40.42-2.68-60.06-9.54c-1.46-0.51-2.82-1.35-4.43-1.23c-4.16,0.31-7.07,2.85-10.55,4.91
			c-2.05,1.21-4.15,1.89-6.41,2.75c-12.7,4.83-25.16,10.01-38.48,13.17c5.72-3.61,10.73-5.96,16.93-9.31
			C79.84,183.72,85.81,179.53,91.98,178.58z"/>
		<path class="st2" d="M252.12,164.1c2.96,1.87,6.01,3.43,9.48,4.19c27,5.89,52.81,2.67,77.77-9.04c3.43-1.61,6.49-3.65,10.32-4.05
			c6.06-0.63,11.39,2.25,16.64,4.58c22.42,9.95,47.62,6.76,69.57,17.53c-9.09-1.54-17.85-2.95-27.03-4.5
			c-3.84-0.65-7.97-1.32-11.96-2.29c-5.16-1.26-10.34-3.17-15.58-4.59c-5.78-1.57-11.71-2.93-17.72-3.74
			c-4.19-0.57-8.3-0.74-12.42,0.47c-3.68,1.08-6.44,3.85-9.77,5.66c-10.9,5.94-21.95,9.86-34.36,10.56
			c-12.42,0.7-23.95-1.02-36.25-2.92C262.57,174.67,256.42,171.53,252.12,164.1z"/>
		<path class="st3" d="M276.58,175.61c22.9,2.87,44.57,0.06,66.16-8c7.86-2.93,15.23-6.3,23.75-5.57c4.27,0.37,7.98,2.98,11.8,4.13
			c17.97,5.4,36.59,6.25,53.75,13.97c-4.64,0.27-8.85,0.9-13.53,0.05c-5.74-1.05-10.98-3.76-16.86-5.02
			c-5.16-1.1-10.58-1.27-15.92-2.58c-5.34-1.31-9.95-4.87-15.67-5.56c-12.69-1.53-23.14,4.01-34.85,8.31
			c-20.43,7.49-40.65,8.68-61.95,4.26c-4.09-0.85-7.74-2.4-11.31-4.82c-2.73-1.85-4.6-4.91-5.67-8.06c3.28,0.97,5.7,4.19,8.63,5.58
			C268.72,174.12,272.53,175.11,276.58,175.61z"/>
		<g>
			<path class="st0" d="M235.06,27.62c-1.06,5.09-2.99,10.7-3.88,15.67c-0.78,4.34,0.53,8.96,0.57,12.83
				c0.13,11.47-0.43,21.99-2.57,33.07c-2.65,13.75-5.25,29.74-5.48,43.1c-0.34,19.91,1.04,19.82-10.7,36.28
				c-4.32,6.06-11.91,11.92-15.07,20.4c-4.33,11.62-6.57,24.85-5.01,37.9c1.55,13.05,7.3,25.67,10.42,38.54
				c3.97,16.41,3.91,33.06,4.09,49.87c1.05,0.21,1.94,0.07,2.93-0.37c0.33,2.26,0.89,4.39,1.73,6.51c1.47-0.87,2.72-1.89,3.87-3.15
				c0.69,1.42,1.06,2.99,2.37,4.01c1.3,1.01,2.71,0.98,3.88-0.21c0.65-0.66,0.23-1.63,0.26-2.43c0.86,0.94,1.45,2.09,2.78,2.43
				c1.33,0.34,2.06-0.42,2.36-1.66c0.9,0.53,1.78,1.1,2.66,1.66c2-16.7,6.83-31.8,13.05-47.43c3.03-7.62,6.98-15.59,9.52-23.41
				c4.92-15.22,10.61-30.99,11.61-46.72c1-15.73-4.54-26.5-12.92-38.8c-1.55-2.27-4.5-2-6.09-2.83c-1.59-0.83-3.64-1.35-3.26-3.05
				c6.62-29.9-3.76-61.18-0.35-91.56c0.1-0.94,1.12-2.29,2.21-2.33c0-4.7,1.5-8.52,2.57-13.08s1.17-9.34,0.81-14.13
				c-0.15-2.09-0.38-4.43-1.7-6.23C242.94,28.76,239.59,27.75,235.06,27.62z"/>
			<path class="st4" d="M236.64,21.15c1.35,0.67,2.54,1.6,4.07,1.83c1.52,0.23,2.59-0.38,3.73-1.34c0.44,0.68,0.72,1.41,0.79,2.23
				c0.24,3.01,0.4,6.02,0.59,9.02c-1.91-1.34-3.62-2.74-6.05-2.82c-2.43-0.07-4.25,1.23-6.32,2.29
				C234.31,28.57,235.34,24.82,236.64,21.15z"/>
			<path class="st5" d="M238.39,40.12c0.34-1.05,1.15-2.05,1.67-3.08c1.73,2.86,3.69,5.86,4.7,9c0.58,1.8,0.04,3.84-0.31,5.37
				c-6.02,26.08-11.47,50.8-9.42,77.93c0.2,2.64,3.47,3.59-0.94,7.72c-4.41,4.13-3.35,8.26-7.79-2.05
				c-2.75-6.39,1.44-34.24,3.92-40.43c4.98-12.43,3.17-18.61,4.6-28.94C236.16,56.06,235.48,49.06,238.39,40.12z"/>
			<path class="st5" d="M228.95,174.85c0.24,3,0.41,6.01,0.56,9.01c0.67-1.52,1.53-2.79,2.68-3.99c0.46,1.17,0.9,2.34,1.34,3.52
				c0.33-0.33,0.67-0.66,1-0.99c0.8-0.78,1.6-1.57,2.39-2.35c-0.84,5.67-0.94,11.22-0.57,16.94c1.03-2.18,2.06-4.36,3.13-6.52
				c0.35,5.73,0.2,11.39-0.34,17.1c0.9-2.21,1.8-4.42,2.7-6.63c0.28,3.79,0.37,7.57,0.28,11.37c0.52-1.34,1.04-2.69,1.56-4.03
				c0.21,8.48,0.7,16.9,1.45,25.35c0.35-2.67,0.81-5.3,1.43-7.92c0.6,2.28,1.45,4.38,2.62,6.43c0.18-1.95,0.36-3.9,0.54-5.85
				c0.96,1.53,1.69,3.1,2.25,4.82c-0.02-1.94-0.04-3.87-0.07-5.81c0.6,1.05,1.21,2.09,1.81,3.14c0.2-3.15,0.41-6.29,0.63-9.43
				c-0.06,1.87,0.37,3.1,1.73,4.41c-0.07-3.34-0.14-6.67-0.22-10.01c1.3,1.59,2.59,3.19,3.87,4.79c-0.56-3.55-1.13-7.09-1.73-10.64
				c0.86,0.77,1.76,1.34,2.83,1.78c-0.04-1.73-0.08-3.46-0.12-5.19c1.12,1.13,2.15,1.55,3.74,1.49c-1.84-4.27-3.68-8.54-5.53-12.81
				c2.12,0.61,4.05,1.46,5.94,2.61c-1.77-2.85-3.74-5.41-6.14-7.76c1.04,0.09,2.08,0.17,3.12,0.26c-0.58-2-0.15-3.05,1.71-4.01
				c-3.39-2.57-6.9-4.75-10.73-6.59c0.96-0.99,2.03-1.29,3.31-1.46c-5.81-3.75-12.3-9.09-15.13-15.03
				c-2.83-5.94-1.65-5.52-3.37-12.58c-4.36-17.9-2.25-38.07,0.29-57.35c1.01-7.67,1.27-15.36,3.31-23.68
				c2.19-8.93,5.09-19.62,5.62-29.45c0.11-2.15-0.72-5.12-2.28-6.93c-1.55-1.81-4.44-3.29-6.46-1.48
				c-5.07,4.58-6.21,9.62-6.78,16.15c3.55-2.95,5.39-6.36,6.41-10.68c3.97,7.34,4.85,18.84,3.38,26.45
				c-4.62,23.99-9.65,50.68-6.57,73.22c2.12,15.47,2.28,17.91-1.06,31.45c1.05-1.23,2.19-0.85,3.48-1.17
				c-0.86,0.98-1.74,1.93-2.59,2.92c1.18-0.23,2.37-0.44,3.55-0.67c-2.29,1.7-4.92,2.83-7.37,4.24c-2.45,1.41-3.75,3.1-4.62,5.76
				C226.84,176.1,227.76,175.37,228.95,174.85z"/>
			<path class="st6" d="M241.65,2.24c-0.25-0.78-1.63-0.48-2.02,0.16c-0.39,0.64-0.44,1.59-0.5,2.33
				c-0.48,5.46-3.44,12.38-2.21,17.47c1.43,5.91,6.22,4.87,9.86,8.32C245.45,20.9,244.58,11.51,241.65,2.24z"/>
			<path class="st4" d="M240.51,19.49c0.31,0.68,0.99,0.75,1.54,1.12c1.23,0.83,2.03,1.87,2.07,3.36c0.03,1.49-0.74,2.62-1.19,3.97
				c1.82,0.49,3.43,1.24,4.99,2.31c-1.32-7.37-1.54-14.79-1.99-22.25c-0.06-0.98-0.9-1.17-1.58-1.64c-0.77,2.4,0.19,4.05,0.06,6.6
				C244.27,15.52,242.47,17.81,240.51,19.49z"/>
			<path class="st7" d="M234.56,26.04c-0.1,0.49-0.39,1.07-0.05,1.56c0.56,0.8,1.42,0.97,2.32,0.65s1.5-1.07,2.25-1.6
				c0.43-0.31,0.87-0.58,1.4-0.54c0.53,0.04,0.9,0.33,1.28,0.66c1.65,1.42,3.22,2.91,4.84,4.36c-0.52-4.14-0.95-8.28-0.79-12.44
				c0.13-3.45,0.87-6.09,0.8-9.75c-0.05-2.49-0.76-6.33-3.67-7.3c-2.91-0.97-4.33,1.93-4.78,4.11
				C236.73,12.68,235.96,19.21,234.56,26.04z"/>
			<path d="M236.84,5.84c1.38,1.17,2.69,2.37,4.1,3.52c0.38,0.31,0.75,0.61,1.29,0.62c0.55,0.01,1.06-0.29,1.49-0.63
				c0.71-0.57,1.42-1.18,2.09-1.79c0.27-0.25,0.52-0.49,0.57-0.86c0.06-0.36-0.1-0.64-0.28-0.94c-1.06-1.79-2.18-3.56-3.31-5.31
				c-0.14-0.22-0.34-0.4-0.58-0.44c-0.24-0.05-0.41,0.09-0.56,0.23c-1.82,1.78-3.5,3.64-5.13,5.59"/>
		</g>
	</g>
	<path class="st8" d="M59.65,194.99c-17.74,11.79-38.02,13.64-58.97,12.07c7.18,5.06,14.36,6.48,22.88,4.28
		c-6.07,4.82-12.86,6.46-20.35,7.87c9.16,1.97,16.6-1.28,24.67-5.39c0.68,2.47-0.9,4.43-2.74,5.88
		c-5.85,4.63-12.01,8.21-18.75,11.32c4.87-0.84,9.51-2.11,14.12-3.89c-1.35,2.22-2.96,4-5.07,5.52c2.87,0.35,5.54,0.16,8.35-0.55
		c0.68,3.36,3.71,4.81,6.6,5.78c2.88,0.97,5.43,1.78,8.18,2.6c5.15,1.54,10.23,2.76,15.45,3.87c0.99,0.21,2.02,0.33,2.95,0.15
		c0.93-0.18,1.59-0.75,2.49-0.68c1.83,0.14,2.97,1.98,4.84,1.89c1.1-0.06,1.72-1.03,2.81-1.31s2.02,0.15,3.16,0.42
		c5.87,1.41,10.83,0.29,15.71-3.25c-0.53,1.91,1.38,3.66,3.13,3.82c1.75,0.16,3.24-0.51,4.8,0.42c0.78,0.46,1.06,1.27,1.8,1.81
		c1.88,1.36,3.95,0.97,5.4-0.82c0.64,0.6,1.26,1.21,1.9,1.82c0.83-0.42,1.66-0.84,2.49-1.25c0.51,1.41,1.24,3.1,2.94,3.01
		c0.66-0.04,0.94-0.7,1.58-0.71c3.06-0.04,3.56,4.1,6.65,4.03c0.7-1.02,1.52-1.7,2.69-2.11c0.04,1.68,1.63,2.23,3.08,2.4
		c1.89,0.22,3.71,0.34,5.58,0.54c0.97,0.58,1.94,1.16,2.92,1.74c0.8-0.88,1.72-1.35,2.88-1.45c0.42,1.9,2.36,1.26,3.91,0.56
		c4.26-1.94,8.5-1.63,12.45,1.12c0.73,0.51,1.24,1.18,2.17,1.22c1.54,0.06,2.27-1.15,3.58-1.92c1.31-0.78,3.01-0.91,4.6-0.93
		c6.75-0.07,13.52-0.12,20.27-0.21c0.78-6.35-0.58-12.13-4.56-17.07c-1.79-2.23-3.83-3.51-5.44-5.72c-1.3-1.78-1.99-3.8-3.11-5.67
		c-5.16-8.64-12.63-14.46-21.26-19.15c-8.64-4.7-17.11-8.23-24.95-13.98c-3.5-2.56-6.63-5.51-11.14-5.38
		c-2.32,0.07-4.02,1.37-6.01,2.29c-4.44,2.06-8.86,3.62-13.7,4.31c-1.56,0.22-3.11,0.37-4.58-0.21c-2.97-1.16-4.96-4.15-8.23-4.5
		c-1.2-0.13-2.21,0.43-3.26,0.83C69.38,192.39,64.57,191.71,59.65,194.99z"/>
	<path class="st8" d="M276.59,251.11c0.27-1.32,0.54-2.63,0.81-3.95c6.07-7.02,9.36-14.48,10.73-23.65c1.08,0.22,1.98,0.64,2.85,1.3
		c0.92-4.01,1.84-8.01,2.78-12.02c1.23,1.71,2.46,3.43,3.69,5.14c0.65-2.8,1.3-5.6,1.95-8.4c2.36,0.57,4.2-0.17,5.67-2.08
		c2.05,0.92,3.93,0.15,5.8-0.81c2.19-1.13,4.29-2.22,6.44-3.35c4.05-2.13,8.02-4.17,12-6.48c8.24-4.77,16.06-9.57,25.52-11.51
		c0.94-1.15,2-1.8,3.46-2.08c7.15-2.5,13.69-2.64,20.96-0.52c-0.27-1.14,1.41-1.57,2.32-1.31c0.92,0.26,1.53,1.23,2.37,1.73
		c0.84,0.5,2,0.53,2.39-0.53c0.71,0.77,1.48,1.27,2.5,1.54c0.46-1.1,1.49-1.63,2.65-1.44c1.16,0.19,1.93,0.94,2.83,1.6
		c0.33-0.89,0.83-1.56,1.62-2.1c1.62,2.03,4.15,1.3,4.87-1.09c2.7,1.52,5.23,1.6,8.01,0.23c0.32-1.25,0.63-2.52,0.93-3.77
		c11.18,2.77,22.23,5.87,33.36,8.84c12.89,3.44,24.96,3.05,37.98,0.42c-0.32,1.68-1.92,2.67-3.35,3.18
		c-5.9,2.15-11.64,3.35-17.84,3.7c8.14,1.14,16.28,2.17,24.42,3.19c-8.28,3.64-16.19,4.67-24.68,1.19c1.7,1.89,3.61,2.64,6.04,3.28
		c5.29,1.39,10.67,2.65,16,3.91c-4.05,1.98-7.91,2.56-12.3,1.41c0.72,1.63,1.66,2.96,3.02,4.11c-3.85-0.46-6.88,0.54-9.59,3.26
		c-0.77,0.77-1.27,1.67-2.01,2.36c-0.97,0.9-2.04,1.53-3.17,2.1c-7.4,3.78-14.83,7.2-22.53,10.3c-1.03,0.41-2.14,0.78-3.26,0.8
		c-1.11,0.02-1.98-0.33-3.13-0.19s-1.97,0.92-3.11,1.34c-6.56,2.39-13.59,0.4-20.34,2.23c-1.92,0.52-4.08,1.71-5.86,0.48
		c-1.32-0.91-2.04-2.95-3.72-2.21c-0.73,0.32-0.58,1.21-1.02,1.83c-1.55,2.17-4.28,1.87-5.48-0.52c-1.1,1.6-2.01,3.23-3.71,4.3
		c-1.69,1.06-3.54,1.07-5.16-0.15c-1.46,3.27-4.18,5.07-7.74,4.57c-1.33-0.19-2.36-0.81-3.56-0.22c-0.85,0.41-1.13,1.48-2.06,1.57
		c-1.84,0.17-2.56-2.36-4.36-2.22c-0.97,0.07-1.4,1.25-2.3,1.42s-1.49-0.45-2.37-0.53c-1.5-0.12-2.47,0.98-3.29,2.12
		c-0.82,1.14-1.41,2.53-2.77,3.08c-1.36,0.55-2.88-0.36-2.79-1.86c-2.64,0.81-5.26,1.65-7.91,2.47c-0.87-1.25-3.03-0.37-4.03,0.24
		c-1,0.61-1.83,1.67-2.98,1.69c-1.59,0.03-3.23-1.5-4.54-0.28c-0.54,0.5-0.26,1.41-0.79,1.89c-1.57,1.41-3.52-0.95-5.4-0.65
		c-1.2,0.19-1.63,1.94-2.85,2.32c-2.43,0.75-4.42-2.32-6.82-1.65c-1.49,0.42-2.2,2.65-3.91,1.91c-0.39-0.98-1.12-2.77-2.41-2.64
		c-2.27,0.23-2.95,3.92-5.3,3.26c-0.62-0.17-0.73-0.89-1.29-1.25c-1.94-1.25-3.75,0.17-5.24,1.55c-0.53-1.19-1.44-2.99-2.9-2.87
		c-1.95,0.16-2.93,2.96-4.91,2.34c-1.03-0.33-1.23-1.69-2.32-1.89c-0.57-0.1-0.96,0.21-1.47,0.44c-2.66,1.2-5.12,1.28-7.87,0.26
		C275.67,252.14,276.48,251.21,276.59,251.11z"/>
	<path class="st9" d="M99.25,219.64c0.46,2.17,0.92,4.34,1.37,6.52c1.69-4.79,3.38-9.58,5.07-14.37c-0.16,3.29-0.31,6.59-0.47,9.88
		c0.81-1.41,1.63-2.82,2.44-4.22c-0.15,2.5,0.57,4.49,2.42,6.2c0.72-3.07,1.43-6.15,2.15-9.22c0.33,3.97,0.67,7.94,0.98,11.92
		c1.14-2.6,2.28-5.2,3.41-7.8c0.05,2,0.09,3.99,0.13,5.99c0.38-0.95,0.75-1.9,1.13-2.85c-0.01,2.94,0.59,5.52,1.94,8.14
		c0.23-3.02,0.93-5.77,2.18-8.53c-0.14,2.45-0.04,4.84,0.32,7.27c-0.04-1.18,0.19-2.22,0.73-3.27c0.18,0.98,0.37,1.96,0.55,2.93
		c1.35,0.03,2.29,0.61,3.03,1.72c0.29-2.26,0.85-4.36,1.76-6.46c-0.11,2.54,0.11,4.97,0.68,7.45c0.44-2.42,1.17-4.65,2.28-6.85
		c0,2.12,0.01,4.23,0.01,6.35c0.36-0.65,0.72-1.31,1.09-1.96c-0.09,1.54,0.17,2.9,0.82,4.3c1.08-2.48,2.16-4.96,3.24-7.45
		c0.04,3.38,0.09,6.77,0.13,10.15c0.55-2.55,1.35-4.96,2.42-7.34c-0.03,2.06,0.24,3.98,0.85,5.94c0.36-1.15,0.72-2.29,1.09-3.44
		c-0.19,3.21,0.19,6.18,1.2,9.23c0.75-4.82,1.51-9.65,2.27-14.47c0.32,4.54,0.37,9.06,0.18,13.61c0.53-3.7,1.36-7.27,2.53-10.82
		c0.09,2.19,0.18,4.38,0.27,6.57c0.29-1.3,0.59-2.6,0.88-3.89c0.48,0.79,0.26,1.7,0.05,2.52c-0.21,0.82-0.33,1.9,0.35,2.4
		s1.63-0.66,0.9-1.09c-0.12,1.16,0.1,2.17,0.73,3.17c0.15-4.36,1.23-8.1,3.47-11.85c-0.66,6.44-0.36,12.57,0.94,18.91
		c-0.58-2.19-1.16-4.38-1.73-6.57c-1.17,3.31-1.67,6.54-1.57,10.05c-0.29-2.15-0.57-4.31-0.86-6.46c-0.65,1.27-2.2,1.06-2.61-0.27
		c-0.67,3.57-1.18,7.14-1.54,10.75c-0.15-3.59-1.04-6.7-2.88-9.79c-0.99,4.84-2.75,9.04-5.58,13.1c1.19-4.77,1.73-9.49,1.7-14.41
		c-0.46,1.43-0.92,2.86-1.37,4.3c-0.17-1.72-0.34-3.45-0.51-5.17c-0.29,0.99-0.57,1.98-0.85,2.97c-0.15-2-0.59-3.86-1.35-5.71
		c-1.18,5.91-3.47,10.75-7.43,15.3c0.79-4.49,1.57-8.99,2.35-13.49c-0.36,5.32-2.43,9.33-6.91,12.3c2.12-5.2,3.25-10.36,3.53-15.98
		c-0.85,1.24-1.7,2.48-2.55,3.71c0.16-0.61,0.4-1.34,0.04-1.9s-1.23-0.49-1.3,0.2c-0.17-0.89-0.32-1.8-0.48-2.7
		c-1.83,5.62-4.68,9.95-9.28,13.67c2.41-4.67,3.69-9.33,4.06-14.58c-3.38,5.49-7.55,9.11-13.65,11.29
		c4.15-3.46,5.94-7.66,6.03-13.03c-3.64,4.93-7.81,8.67-13.15,11.67c4.62-3.46,6.74-7.85,7.04-13.58
		c-2.79,5.95-6.56,10.27-12.28,13.54c3.36-3.09,5.25-6.57,6.21-11.02c-1.71,3.63-8.24,10.6-12.64,8.14
		C92.28,235,97.14,229.04,99.25,219.64z"/>
	<path class="st9" d="M295.03,240.9c1.15-4.95,2.28-9.92,3.43-14.88c0.09,2.01,0.35,3.97,0.79,5.94c0.31-0.63,0.61-1.26,0.93-1.9
		c-0.4,1.19,0,2.19,0.82,3.03c0.73,0.74,1.21,1.53,1.9,2.28c2.89-5.62,4.84-11.32,6-17.53c-0.05,4.18-0.1,8.35-0.15,12.53
		c1.33-5.24,3.24-10.07,5.88-14.8c-1.39,5.49-2.44,11-3.17,16.61c0.59-2.28,1.19-4.56,1.78-6.84c0.06,1.6,0.12,3.2,0.17,4.81
		c0.7-1.11,1.17-2.24,1.48-3.51c-0.09,1.85,0.14,3.54,0.75,5.29c0.76-4.34,1.93-8.47,3.58-12.55c-0.48,4.51-0.61,8.98-0.38,13.51
		c0.36-3.39,1.43-6.21,3.46-8.95c-0.06,1.79-0.13,3.57-0.19,5.36c0.32-1,0.65-1.99,0.97-2.99c0.28,2.78,0.9,5.38,1.92,7.98
		c1.91-6.34,2.79-12.58,2.73-19.2c0.53,6.43,0.54,12.78,0.05,19.21c0.89-3.55,1.97-7.02,3.27-10.45c0.01,2.62,0.02,5.23,0.03,7.85
		c0.06-1.21,0.3-2.32,0.75-3.44c-0.11,3.23,0.53,6.04,2.06,8.89c0.69-5.16,1.99-9.99,3.99-14.8c-0.87,7.46-0.52,14.51,1.08,21.84
		c-0.5-2.82-1.24-5.52-2.24-8.21c-1.06,3.29-1.78,6.59-2.18,10.03c-0.87-2.61-1.36-5.2-1.49-7.94c-0.35,1.13-0.7,2.25-1.05,3.38
		c-0.11-1.54-0.45-2.94-1.06-4.36c-0.22,0.62-0.44,1.24-0.66,1.86c-0.43-0.47-0.86-0.94-1.29-1.41c-0.36,3.37-0.71,6.73-1.07,10.1
		c-1.08-3.61-1.95-7.25-2.63-10.96c-0.36,3.85-1.31,7.34-2.98,10.83c0.26-3.55,0.06-6.96-0.61-10.46c-0.09,3.2-0.93,5.89-2.75,8.53
		c0.56-3.58,0.16-6.75-1.28-10.07c-1.07,4.02-2.71,7.51-5.19,10.86c0.61-2.85,0.88-5.66,0.83-8.57c-0.29,0.79-0.58,1.59-0.87,2.38
		c-0.1-0.47-0.15-1.03-0.56-1.34c-0.41-0.31-0.99-0.11-1.02,0.41c-0.06-2.21-0.54-4.17-1.54-6.14c-0.66,5.06-2.26,9.37-5.17,13.57
		c1.09-2.93,1.65-5.82,1.75-8.94c-0.34,2.36-1.32,4.12-3.27,5.53c-0.05-1.5-0.1-3-0.15-4.5c-1.2,0.59-1.77,1.55-1.87,2.87
		c-0.21-1.49-0.62-2.87-1.24-4.24c0.48,4.03-3.59,7.49-6.66,9.55C293.86,245.04,294.53,243.06,295.03,240.9z"/>
	<path class="st9" d="M406.49,231.53c-2.41-2.57-3.14-5.42-2.76-8.88c3.55,2.36,6.61,5.11,9.4,8.34c-1.24-2.51-2.47-5.01-3.71-7.52
		c0.45,0.75,0.9,1.51,1.34,2.26c0.04-0.72-0.04-1.56,0.49-2.11s1.36-0.22,1.42,0.51c0.25-1.46,0.49-2.93,0.73-4.4
		c2.84,5.35,6.7,8.91,12.86,9.59c-4.49-3.14-7-7.17-8.56-12.39c2.36,2.62,4.92,4.72,8.08,6.31c-0.91-1.57-1.38-3.16-1.54-4.96
		c0.48,0.68,0.96,1.37,1.44,2.05c-0.03-1.72-0.06-3.44-0.07-5.16c4.09,5.21,8.74,8.49,15.44,9.06c-5.4-1.02-8.41-4.62-10.4-9.56
		c2.03,1.33,4.06,2.67,6.09,4c-0.12-1.72-0.4-3.33-0.98-4.95c0.18,0.91,0.54,1.64,1.29,2.2c0.12-1.87,0.23-3.75,0.32-5.62
		c0.63,1.14,1.38,2.11,2.39,2.95c-0.02-1.1-0.03-2.2-0.05-3.3c2.1,4.26,4.87,7.25,9.72,7.96c-6-4.87-9.46-10.86-11.64-18.22
		c-0.1,2.15-0.15,4.31-0.16,6.47c-0.74-0.41-1.48-0.87-2.21-1.26c-0.23,2.39-1.19,5.19-3.95,5.47s-4.22-2.26-4.77-4.6
		c-0.39,2.35-0.1,4.46,0.99,6.61c-1.11-1.21-2.76-2.4-4.23-1.47c-0.64,0.4-1.52,0.92-1.53,0.06c-0.15,1.44-0.34,2.9-0.51,4.35
		c-2.43-2.97-4.92-5.89-7.41-8.82c1.01,3.45,2,6.9,2.99,10.35c-1.39-1.15-2.77-2.31-4.16-3.46c0.29,1.1-0.16,2.32-1.43,2.34
		c-0.04,0.88-0.08,1.76-0.12,2.64c-0.55-0.84-1.1-1.67-1.66-2.51c-0.17,1.35-0.35,2.7-0.53,4.05c-2.73-2.93-5.6-5.7-8.46-8.5
		c0.45,3.22,1.41,6.05,3.07,8.85c-3.36-1.59-5.9-3.74-8.08-6.75c0.13,3.28,0.96,6.14,2.56,9c-4.32-5.31-8.49-10.72-13.12-15.77
		C388.01,218.52,395.75,226.3,406.49,231.53z"/>
	<path class="st10" d="M172.68,239.17c0.66,3.13,1.01,6.63,4.18,8.17c0.08-0.89,0.17-1.79,0.25-2.69c3.12,3.48,3.67,7.47,1.78,11.72
		c2.06-0.83,3.12-2.35,3.47-4.52c1,1.56,1.68,3.16,2.12,4.96c0.32-0.68,0.63-1.36,0.95-2.03c0.11,2.75,1.65,4.72,4.47,4.93
		c-0.23-1.84,0.13-3.38,1.18-4.91c0.14,3.06,1.01,5.57,2.84,8.02c0.05-1.59,0.1-3.17,0.15-4.76c0.42,1.67,1.15,2.99,2.39,4.19
		c0.04-1.1,0.07-2.19,0.11-3.29c0.48,3.54,1.98,6.16,4.93,8.21c0.01-1.53,0.02-3.06,0.03-4.6c-0.12,1.62,0.3,2.92,1.4,4.12
		c-1.64-6.71-2.45-13.32-2.44-20.24c0.01-2.81,0.05-5.55-2.06-7.67c-1,4.24-2.42,8.22-4.35,12.14c-2.01-2.54-2.98-5.19-3.18-8.41
		c-0.52,1.09-0.81,2.18-0.91,3.39c-0.48-1.15-0.96-2.29-1.44-3.44c0.05,0.85-0.2,1.51-0.84,2.08c-0.93-2.64-2.04-5.16-3.36-7.62
		c-0.86,1.2-1.49,2.46-1.95,3.87c-0.47-1.46-0.95-2.92-1.42-4.39c-0.62,0.15-0.9,0.65-0.81,1.27c-0.29-0.65-0.6-1.31-0.89-1.95
		c0.4-0.02,0.32,0.67-0.06,0.72c-0.37,0.04-0.65-0.32-0.86-0.66c-1.29-2.06-2.61-4.16-3.92-6.23c-0.1,1.72-0.5,3.26-1.23,4.83
		c-1.16-2.73-1.51-5.29-1.19-8.27c-0.53,2.29-2.57,1.71-2.31,4.69C169.94,233.22,172.12,236.5,172.68,239.17z"/>
	<path class="st10" d="M245.45,267.13c3.02-0.21,7.16-1.2,9.06-4c0.96-1.42,1-3.98,3.03-3.96c1.1,0.01,1.55,1.36,2.57,1.28
		c2.31-0.17,2.09-3.67,3.69-4.98c0.58-0.47,1.5-0.32,2.21-0.63c0.71-0.31,1.31-1.05,0.89-1.85c0.48,0.37,0.95,0.75,1.42,1.12
		c0.4-0.3,0.8-0.61,1.2-0.91c1.61,0.87,3.14,1.17,4.95,0.86c-0.22-2.95,0.03-5.72,0.82-8.57c0.2,0.67,0.91,0.95,1.53,0.62
		s0.89-0.94,1.17-1.55c2.67-5.75,5.36-11.58,8.02-17.3c0.32-0.69,0.51-1.69-0.28-1.96c-0.37-0.13-0.64,0.22-0.89,0.47
		c-0.82,0.82-1.63,1.74-2.45,2.59c-0.64-0.56-1.31-0.89-2.15-1c-0.06,0.59-0.05,1.22-0.44,1.7c-0.39,0.48-1.04,0.54-1.43,0.05
		c-0.24,0.71-0.47,1.43-0.71,2.15c-1.07-0.41-1.94-0.99-2.74-1.82c0.13,1.82-0.37,3.27-1.71,4.53c-0.82-0.79-1.64-1.58-2.45-2.38
		c-0.2,1.17-0.4,2.34-0.6,3.51c-0.49-0.28-0.97-0.56-1.46-0.84c-0.56,1.53-1.37,2.73-2.62,3.78c-0.41-0.67-0.82-1.34-1.23-2.02
		c-0.62,2.26-1.64,4.07-3.31,5.73c-0.31-0.61-0.61-1.22-0.92-1.83c-1.64,2.91-3.27,5.84-4.91,8.74c-0.32,0.58-0.67,1.18-1.33,1.33
		c-0.66,0.15-1.29-0.5-1.03-1.13c-0.45,1.37-1.03,2.6-1.94,3.73c-0.18-0.73-0.5-1.4-0.68-2.13c-1.16,2.95-2.23,5.54-3.51,8.67
		C246.88,260.06,245.35,267.14,245.45,267.13z"/>
	<path class="st11" d="M189.98,258.67c0.45-1.57,0.91-3.13,1.36-4.7c0.44,1.15,0.89,2.3,1.33,3.46c0.6-1.15,1.19-2.3,1.79-3.44
		c0.21,3.22,1.2,5.87,3.21,8.4c0.1-2.02,0.2-4.03,0.3-6.05c0.98,4.34,2.73,7.97,5.6,11.38c-0.88-9.56-1.37-19.1-1.46-28.7
		c-0.92,2.17-1.66,4.36-2.25,6.64c-0.74-2.22-1.47-4.45-2.21-6.67c-0.38,2.9-0.76,5.81-1.14,8.71c-1.34-2.22-2.28-4.49-2.91-7.01
		c-0.21,2.16-0.29,4.32-0.24,6.49c-0.77-1.71-1.55-3.42-2.32-5.13c0.29,1.2-0.1,2.47-0.34,3.65c-0.54-0.29-1.11-0.33-1.67-0.53
		C189.29,249.67,189.94,254.14,189.98,258.67z"/>
	<path class="st11" d="M244.62,268.05c1.27-1.74,2.53-3.56,3.79-5.34c0.05,0.99,0.28,1.88,0.72,2.77c0.41-1.32,0.98-2.51,1.76-3.65
		c0.06,0.56,0.11,1.11,0.17,1.67c1.04-1.87,2.07-3.73,3.11-5.6c0.25,2.01,0.1,3.85-0.5,5.78c2.77-5.29,5.01-10.7,6.86-16.37
		c-1.02,1.51-1.84,3.08-2.5,4.78c-0.05-3.1,0.68-5.68,2.41-8.26c-2.59,2.27-4.22,4.84-5.28,8.11c-0.29-1.87-0.26-3.64,0.14-5.49
		c-0.96,2.12-1.93,4.05-3.55,5.74c-0.04-1.14-0.43-2.12-0.65-3.25c-1.47,3.44-2.98,6.06-4.33,9.76
		C245.82,261.27,246,265.41,244.62,268.05z"/>
	<path class="st0" d="M121.43,182.32c1.13,3.16,3.51,4.92,6.9,4.35c-0.04,1.72,0.45,3.1,1.62,4.37c0.15-1.25,0.62-2.22,1.57-3.04
		c0.22,1.26,0.44,2.53,0.66,3.79c0.53-0.73,1.06-1.46,1.59-2.2c0.33,1.15,0.66,2.31,0.99,3.46c0.91-0.27,1.48-0.8,1.89-1.66
		c0.94,1.25,1.88,2.51,2.83,3.75c0-1.53,0.5-2.72,1.68-3.7c0.54,2.25,1.3,4.37,2.32,6.45c0.43-1.33,0.87-2.65,1.3-3.98
		c0.38,1.47,0.75,2.94,1.13,4.41c0.39-1.08,0.77-2.16,1.16-3.24c0.74,1.44,1.49,2.87,2.23,4.31c0.26-1.02,0.52-2.05,0.79-3.07
		c0.57,0.84,1.14,1.68,1.71,2.52c0.76-0.77,1.52-1.53,2.27-2.3c0.17,1.84,0.6,3.54,1.32,5.25c0.65-2.12,1.67-3.8,3.3-5.29
		c0.07,1.53,0.14,3.06,0.22,4.58c0.59-2.01,1.59-3.53,3.28-4.79c0.13,0.92,0.26,1.84,0.38,2.76c0.86-0.79,1.28-1.7,1.41-2.85
		c0,0.97,0.33,1.71,1.1,2.31c0.03-1.05,1.48-1.07,1.6-0.04c1.43-2.18,3.1-3.91,5.26-5.38c0.11,0.85,0.21,1.7,0.32,2.55
		c0.63-1.39,1.43-2.58,2.49-3.69c0.07,0.84,0.15,1.68,0.22,2.51c1.85-1.34,3.4-2.86,4.79-4.68c0.17,0.82,0.55,1.42,1.24,1.89
		c0.58-1.82,1.47-3.26,2.91-4.53c0.18,1.59,0.35,3.19,0.53,4.78c0.32-2.23,1.28-3.84,3.2-5.04c0.11,0.89,0.21,1.77,0.32,2.66
		c0.38-0.45,0.76-0.91,1.15-1.36c2.59,0.26,5.18,0.53,7.77,0.79c-1.23-1.35-1.82-2.81-1.89-4.64c-0.83,0.68-1.66,1.36-2.49,2.04
		c-2.65-2.12-5.57-1.74-8.69-1.06c-1.18,0.26-2.2,0.52-3.35,0.78c-1.94,1.43-3.89,2.86-5.84,4.29c0.29-1.56,0.02-2.89-0.89-4.2
		c-0.83,1.56-1.66,3.12-2.49,4.68c-0.12-0.84-0.24-1.68-0.36-2.53c-0.02,1.15-1.22,1.72-2.02,0.83c-0.52,1.03-1.05,2.06-1.57,3.09
		c-0.17-1.04-1.57-1.11-1.75-0.04c0.02-1.22-0.35-2.21-1.26-3.04c-0.09,0.69-0.38,1.74-1.11,1.87c-0.73,0.13-1.18-1.25-0.38-1.28
		c-0.46,1.06-0.93,2.15-1.39,3.22c-0.12-0.86-0.23-1.72-0.35-2.59c-0.75,0.6-1.51,1.19-2.26,1.79c0.37-1-1.11-1.77-1.52-0.7
		c-0.15-1.45-0.3-2.9-0.44-4.35c-1.27,1.63-2.21,3.35-2.93,5.28c0.21-1.64-0.22-2.98-1.41-4.13c-0.51,1.13-0.72,2.25-0.69,3.49
		c-0.34-0.64-0.7-1.28-1.04-1.91c0.61,0.09,0.24,1.04-0.3,1.05c-0.53,0.01-0.99-0.61-1.5-0.79c-0.51-0.18-1.26,0.16-1,0.78
		c-0.08-1.05-1.48-1.24-1.73-0.18c-0.38-1-0.77-2-1.15-3c-0.77,0.7-1.54,1.41-2.32,2.11c-0.19-0.95-0.38-1.91-0.57-2.86
		c-0.89,0.13-1.33,0.8-1.31,1.68c-1.24-1.51-2.82-1.96-4.61-1.1c-0.85-1.51-1.71-3.01-2.57-4.52c-0.58,0.99-1.17,1.98-1.75,2.97
		c-0.16-1.76-0.67-3.25-1.66-4.72c-0.58,0.81-1.15,1.62-1.73,2.43c-3.12-1.93-8.88-6.6-9.11-0.27
		C120.16,183.17,120.78,182.74,121.43,182.32z"/>
	<path class="st0" d="M276.47,189.1c-0.52,0.36-0.36,1.14,0.17,1.43c0.53,0.29,1.11,0.09,1.66-0.09c1.35-0.45,2.69-0.93,4.03-1.39
		c0.73,1.69,1.46,3.38,2.18,5.08c0.32-1.25,0.65-2.51,0.97-3.77c0.68,1.45,1.61,2.49,3.02,3.27c0.09-0.59,0.74-0.57,1.21-0.39
		c1.83,0.68,3.67,1.4,5.5,2.09c0.25-1.02,0.49-2.04,0.74-3.06c0.26,1.59,0.8,2.96,1.7,4.3c0.08-0.92,0.34-1.7,0.84-2.47
		c0.09,1.14,0.5,2.02,1.33,2.8c0.24-1.51,1.96,0.02,2.39,0.64c0.45-0.68,0.9-1.37,1.35-2.05c0.87,0.82,1.8,1.26,2.99,1.37
		c0.46-1.01,0.92-2.03,1.38-3.04c0.68,1.02,1.37,2.04,2.05,3.06c0.44-1.17,0.88-2.33,1.32-3.5c0.42,0.74,0.84,1.5,1.26,2.23
		c0.85-0.63,1.91-1.53,2.71-2.09c0.53-0.37,1.81,0.19,1.19,0.45c1.97-1.68,3.95-3.4,5.93-5.1c0.49,0.68,0.98,1.37,1.48,2.05
		c0.58-0.77,1.17-1.56,1.74-2.32c-0.24,1.29,1.6,0.91,2.33,0.3c0.74-0.61,1.72-1.65,2.51-2.34c2.77-0.43,4.62-1.77,6.03-4.17
		c0.45,0.67,0.89,1.34,1.34,2.01c3.78-3.11,7.75-5.13,12.5-6.3c2.32-1.96,4.74-2.64,7.74-2.1c-0.46-1.68-1.18-3.11-2.3-4.45
		c-2.84,1.75-5.8,3.54-8.78,4.95c-1.52,0.72-3.72,0.88-4.04-1.05c0.08,0.86-0.17,1.92-0.95,2.38c-1.61,0.94-3.25,1.57-4.87,2.44
		c-0.44-0.27-0.88-0.52-1.32-0.78c-2.29,0.03-4.02,0.83-5.58,2.5c-0.2-0.76-0.41-1.52-0.61-2.27c-0.63,0.9-0.94,1.82-1.03,2.91
		c-0.21-0.75-0.68-1.22-1.47-1.33c-0.18,0.69-0.35,1.37-0.53,2.06c-2.01-0.45-3.56,0.21-4.75,1.87c0-1.02-0.26-1.87-0.85-2.71
		c-0.62,1.57-0.95,3.12-1.04,4.81c-0.27-1.32-0.55-2.64-0.83-3.96c-0.39,0.99-0.78,1.97-1.18,2.96c-0.16-0.92-1.28-0.34-1.78-0.15
		c-0.49,0.19-1.77-0.4-1.05-0.8c-1.1,0.87-1.74,1.91-2.09,3.27c-0.59-1.29-1.18-2.58-1.76-3.87c-0.23,1.51-0.46,3.01-0.69,4.52
		c-0.32-1.14-0.63-2.29-0.95-3.43c-0.88,0.86-1.24,1.84-1.21,3.06c-0.53-0.81-1.07-1.63-1.6-2.44c0,0.58,0.05,1.32-0.43,1.73
		c-0.48,0.4-1.25,0.01-1.11-0.61c-0.05,1.28-0.59,2.24-1.78,2.79c-0.13-1.56-0.51-2.97-1.19-4.38c-0.46,1.18-0.92,2.36-1.38,3.54
		c-0.19-0.8-0.38-1.59-0.57-2.39c-0.26,0.8-0.52,1.61-0.78,2.4c0.19-0.6-0.36-1.22-1-1.03c-0.64,0.2-0.8,0.91-0.85,1.51
		c-0.21-0.74-0.41-1.51-0.62-2.26c-1.18,0.82-2.37,1.64-3.55,2.45c-0.41-1.4-0.83-2.8-1.25-4.19c-0.28,1.15-0.56,2.3-0.84,3.45
		c-0.45-1.14-0.89-2.29-1.34-3.43c0.03,1.48-1.42,1.86-2.69,1.77c-1.27-0.09-2.64-0.27-3.28,1.06c-0.29-0.87-0.58-1.73-0.87-2.6
		c-0.46,0.66-0.93,1.32-1.4,1.98c-1.02-0.73-2.04-1.46-3.06-2.19c-2.1,1.33-4.22,1.12-6.61,1.37c0.02,0.79,0.21,1.45,0.55,2.16
		c0.75,0.3,1.51,0.57,2.25,0.89C275.54,190.1,276,189.59,276.47,189.1z"/>
	<path class="st5" d="M158.43,215.32c2.63,0.02,3.64-2.32,4.61-4.47c1.76-3.92,3.96-7.58,6.67-10.95c-0.23,3.36-1.35,6.42-2.64,9.49
		c-1.69,4.02-3.36,7.93-5.04,11.94c4.32-6.44,7.49-13.11,9.73-20.52c1.42,4.33,0.57,8.36-1.09,12.46c-1.66,4.1-3.49,7.73-3.91,12.16
		c1.25-0.6,1.7-1.79,2.07-3.05c1.8-5.97,3.58-11.94,5.38-17.91c1.86,4.58,1.26,8.95,0.1,13.63c-1.15,4.68-2.23,8.95-1.22,13.75
		c1.61-7.69,3.2-15.35,4.82-23.04c0.36-1.71,0.8-3.34,2.02-4.66c-0.35,9.1-3.44,17.71-3.19,26.85c1.43-8.66,3.11-17.43,5.13-25.9
		c0.31-1.3,1.24-2.74,2.49-1.98c-0.99,5-1.97,9.84-2.95,14.85c-1.15,5.85-2,11.55-1.21,17.53c1.73-10.57,3.71-21.07,6.13-31.51
		c1.36,6.49-0.28,12.49-1.55,18.84c-0.97,4.86-1.29,9.64-1.38,14.57c1.59-7.85,3.06-15.66,4.6-23.53c0.59-3.02,1.32-5.91,3.02-8.53
		c-0.87,8.16-1.77,16.22-2.64,24.41c-0.41,3.92-0.64,7.76,0.68,11.57c1.25-14.05,3.22-27.87,6.04-41.7
		c-1.87,0.18-2.89,1.5-3.92,2.94c-0.16-1.6-0.62-2.97-1.47-4.34c-0.19,1.81-0.87,3.19-2.26,4.37c-0.61-1.2-1.21-2.39-1.82-3.59
		c-0.52,0.73-1.05,1.47-1.57,2.2c-0.51-0.75-1.02-1.5-1.52-2.26c-0.35,1.2-0.9,2.19-1.77,3.1c-0.54-0.9-0.9-1.83-1.11-2.85
		c-0.55,0.81-1.09,1.86-2.15,2.03c-1.06,0.17-1.94-0.91-1.45-1.88c-1.01,0.96-2.02,1.95-3.03,2.92c-0.46-1.59-0.61-3.13-0.46-4.78
		c-1.6,2.78-5.18,2.58-5.31-0.85C165.71,203.76,162.83,209.52,158.43,215.32z"/>
	<path class="st5" d="M256.97,238.64c-0.13,1.11-0.16,2.13,0.64,3c3.59-13.76,5.24-27.36,5.07-41.57
		c2.7,10.41,0.39,20.56,0.24,31.12c1.47-1.46,1.73-3.36,1.9-5.33c0.7-7.88,1.44-15.72,2.14-23.59c0.22,5.48,0.4,10.89,0.6,16.39
		c0.15,3.96,0.47,7.8,1.9,11.55c0.24-9.56,0.63-19.12,0.94-28.68c0.52,8.63,1.48,17.16,2.91,25.69c1.43-7.89-0.22-15.56-0.47-23.48
		c-0.04-1.26,0.19-2.49,1.25-3.26c1.07,8.5,2.13,17.01,3.2,25.51c0.26-7.98,0.52-15.95,0.77-23.93c1.13,6.98,2.25,13.97,3.38,20.95
		c0.13-6.64,0.26-13.27,0.39-19.91c3.27,5.91,2.33,12.91,6.46,18.39c-1.47-6.52-2.25-13.01-2.4-19.69
		c4.19,4.18,2.39,10.46,6.24,14.89c-0.98-4.06-1.98-8.11-2.94-12.17c-0.18-0.73-0.35-1.49-0.1-2.22c0.25-0.73,0.95-1.14,1.66-0.79
		c0.76,4.01,2.02,7.68,3.92,11.3c-0.4-3.46-0.8-6.92-1.2-10.39c1.88-0.49,2.86,1.32,3.44,2.88c0.58,1.56,1.16,3.45,3.08,3.62
		c-0.91-4.03-2.14-7.9-3.73-11.71c-0.34,1.41-1.19,2.31-2.66,2.51c-0.25-2.08-1.08-3.65-2.72-4.96c-0.1,1.5-0.21,2.99-0.31,4.49
		c-0.81-1.08-1.62-2.16-2.43-3.24c-0.27,1.36-0.54,2.72-0.8,4.08c-0.96-0.69-1.49-1.54-1.74-2.69c-0.24,1.05-0.49,2.09-0.73,3.14
		c-1.46-0.75-2.34-1.82-2.88-3.36c-0.24,1.39-0.48,2.78-0.72,4.17c-0.55-1.23-1.23-2.32-2.11-3.35c-0.36,0.95-0.73,1.91-1.09,2.86
		c-0.86-1.19-1.71-2.38-2.57-3.57c-0.56,1.02-1.13,2.05-1.69,3.07c-0.62-1.31-1.41-2.38-2.5-3.34c-0.61,1.17-1.22,2.36-1.83,3.52
		c-0.29-1.23-0.81-2.6-2.16-2.92c-1.35-0.32-2.41,0.91-2.11,2.18c-0.48-1.05-0.84-2.25-1.88-2.89s-2.31-0.31-2.74,0.86
		c0.08-1.66-0.8-2.63-2.47-2.69c2.03,6.5,0.96,14.09,0.64,20.53C258.36,223.73,257.87,230.78,256.97,238.64z"/>
	<path class="st12" d="M219.13,458.8c2.05-4.01,4.01-7.88,4.97-12.23c0.69-3.13,0.73-6.29,0.84-9.43
		c0.28-7.98,0.98-15.78,1.41-23.75c0.29-5.48-0.03-10.8-0.58-16.29c-1.55-15.63,1.75-31.11,0.52-46.8
		c-0.43-5.47-1.09-10.46,1.68-15.5c-0.13-0.01-0.22,0-0.34,0c2.82-16.44,4.81-32.91,6.2-49.53c0.16-1.91,0.3-3.81,0.96-5.61
		c0.53-1.47,1.41-2.69,2.18-4.04c2.58-4.5,4.55-9.27,6.4-14.1c0.68,4.69-0.32,9.2-1.36,13.73c-3.84,16.86-6.96,33.62-9.3,50.74
		c-0.64,4.67-0.99,9.33-0.21,14.01c0.33,1.99,1.05,3.92,0.8,5.91c-0.25,1.99-1.25,3.44-1.92,5.28c-1.16,3.17-1.32,6.24-0.62,9.54
		c0.51,8.62-0.56,16.7-0.89,25.38c-0.72,18.82-1.7,37.94-2.81,56.81c-0.16,2.8-0.29,5.56-0.14,8.34c0.12,2.34,0.52,4.67,0.52,6.99
		s-0.3,4.56-0.64,6.83c-1.23,8.23-2.49,16.45-3.74,24.68c-0.45-1.33-0.67-2.63-0.69-4.04c0.07,2.44-0.53,4.47-1.89,6.5
		c-0.77-1.18-1.24-2.39-1.47-3.78c-0.38,1.15-0.61,2.31-0.71,3.52c-0.9-0.83-1.56-1.74-2.07-2.86c-0.5,0.54-0.98,0.96-1.48,1.58
		c-1.81-13.04-1.9-23.09-0.08-36.79c0.58-4.33,1.35-4.11,1.69-12.09c0.85-20.17-0.64-49.76-1.01-70.61
		c-0.18-10.05-0.29-13.38-1.39-21.68c-0.42-3.17-1.08-5.11-1.24-7.99c-0.27-4.68,0.51-8.48,2.11-12.78
		c-4.07-22.25-1.38-45.01-5.86-67.23c0.51-0.33,1.11-0.34,1.65,0.05c3.53,2.58,4.11,6.66,4.25,10.79c0.62,18,1.39,35.45,2.36,53.6
		c0.15,2.72,0.25,4.45,1.04,8.11c0.6,2.81,1.04,0.71,2,6.47c2.06,12.37,1.69,29.91,1.41,45.04c-0.18,9.84-0.25,21.94-1.71,33.55
		c-0.74,5.87-1.61,19.16-1.47,25.52C218.61,450.42,218.97,453.57,219.13,458.8z"/>
	<path class="st13" d="M226.99,334.19c-0.4,0.68-0.93,1.21-1.1,2.02c-0.3,1.49,0.42,2.75,1.79,3.39c-0.45,0.29-0.92,0.56-1.37,0.85
		c0.6,0.54,0.64,1.37,0.47,2.09c-0.18,0.72-0.47,1.57-0.39,2.19c0.08,0.62,0.31,0.88,0.47,1.35c0.36,1.11,0.4,2.17,0.4,3.29
		c0,3.02-0.01,6-0.01,9.01c0.31-2.4,1.08-4.45,2.44-6.45c0.17-0.26,0.36-0.47,0.38-0.79c0.04-0.75-0.84-1.07-0.95-1.78
		c-0.23-1.4,1.47-2.12,1.48-3.53c0-0.32-0.21-0.52-0.27-0.91c-0.07-0.38,0.02-0.74,0.06-1.22c0.42-4.44-0.46-8.81-1.86-13.04
		C228.12,331.9,227.65,333.07,226.99,334.19z"/>
	<path class="st13" d="M213.08,336.72c0.73,0.27,1.19,0.73,1.48,1.45c-0.83,0.45-0.9,1.41-0.18,2c-0.71,0.78-1.16,1.63-1.44,2.64
		c0.81,0.54,1.64,1.03,2.21,1.83c0.58,0.8,0.76,1.82,0.3,2.68c-0.25,0.48-0.69,0.97-0.48,1.4c0.21,0.43,0.38,0.25,0.62,0.57
		c0.24,0.32,0.25,0.75,0.2,1.16c-0.24,2.23-0.47,4.44-0.71,6.67c0.2-1.07,0.33-2.07,0.54-3.16c0.21-1.09,0.37-2.2,1.05-3.15
		s1.73-1.41,2.89-1.1c0.07-0.75-0.56-1.11-1.12-1.47c-0.55-0.36-1.1-0.9-0.76-1.57c0.46,0.27,1,0.01,1.16-0.49s0-0.98-0.16-1.47
		c-0.61-1.81-1.17-3.51-1.82-5.35c-0.64-1.85-1.59-3.77-2.25-5.65C214.22,334.78,213.76,335.79,213.08,336.72z"/>
	<path class="st13" d="M224.82,440.78c-0.11,3.5-0.24,6.94-0.34,10.46c-0.04,1.29-0.06,2.47,0.33,3.8c0.39,1.32,1.42,2.43,1.7,3.9
		c0.51,2.71-1,4.94-1.89,7.47c-1.54,4.38-1.44,8.86-1.22,13.45c0.14,2.9,0.39,5.7,0.99,8.52c-1.63-2.13-2.7-4.34-3.34-6.94
		c0.53,3.02,0.25,5.69-0.94,8.53c0.83-8.96-0.5-17.66-0.12-26.68c0.15-3.52,2.24-6.99,3.09-10.45
		C224.07,448.88,224.62,444.86,224.82,440.78z"/>
	<path class="st13" d="M213.27,454.82c-0.94,4.27-0.44,8.38-0.18,12.66c0.34,5.7,0.09,11.24-0.63,16.88
		c0.89-1.88,1.48-3.78,1.82-5.84c0.07,3.84-0.11,7.63-0.54,11.45c0.55-2.27,1.09-4.54,1.64-6.81c0.66,2.15,0.98,4.27,0.98,6.52
		c0.57-5.26,0.59-10.41,0.02-15.67c-0.24-2.24-0.68-4.38-0.69-6.66c-0.01-3.61,0.75-6.9,1.12-10.58c0.32-3.17,0.33-6.56-1.34-9.47
		C214.55,449.71,213.82,452.32,213.27,454.82z"/>
	<path class="st14" d="M228.86,352.89c-2.38,29.83-2.77,59.62-3.48,89.56c-0.14,5.93,0.01,11.84,2.1,17.51
		c0.35-4.09,0.12-7.95-0.66-12.01C220.75,416.3,228.5,384.69,228.86,352.89z"/>
	<path class="st15" d="M203.96,228.01c-0.25,4.04-0.11,6.34,0.33,9.82c0.39,3.08,1.45,5.45,1.99,8.38
		c1.22,6.54,0.9,12.54-0.88,18.94c-1.89-4.35-4.54-7.51-8.59-9.99c0.62-3.14,1.07-6.35-1.19-8.86c-0.78-0.87-1.81-0.98-2.52-1.88
		c-1.3-1.65-1.21-3.65-0.52-5.55c0.69-1.91,1.97-3.35,2.69-5.24c1.98-5.21,0.74-10.82,1.58-16.21c1.02-6.58,4.64-12.5,5.18-19.12
		c0.19-2.38,0.12-3.98,1.7-5.77C207.91,203.63,204.65,216.85,203.96,228.01z"/>
	<path class="st16" d="M221.32,194.69c3.18,3.66,7.99,5.66,11.99,1.14c6.03,17.26,7.58,33.99,3.52,51.69
		c-2.47,10.76-6.96,19.89-8.11,30.81c1.46-0.39,2.69,0.21,3.54,1.37c-2.52,2.71-6.32-0.1-9.31,1.48c-3.49,1.85-2.08,7.47,1.66,8.7
		s7.38-1.03,10.19-3.5c-4.16,7.21-6.57,14.96-7.2,23.17c-0.37,4.83-0.49,10.5-5.56,12c-2.51,0.75-4.69-0.73-6.21-2.71
		c-4.12-5.39-4.02-12.09-3.47-18.65c1.41-16.76,2.94-33.4,4.49-50.11c-3.23,2.05-4.6,5.22-5.97,8.62
		c-4.95-14.71-6.97-30.93-4.42-45.89C207.46,206.85,214.9,187.29,221.32,194.69z"/>
	<path class="st16" d="M212.3,268.35c-0.02-1.84,0.57-4.24,2.55-3.86c1.06,0.2,1.28,1.43,1.42,2.42c1.24,8.6,0.05,17.5,3.16,25.78
		c1.73,4.62,5.19,8.14,7.34,12.53c1.63,3.33,2.6,6.85,2.93,10.53c0.07,0.82,0.06,1.8-0.78,2.09c-1.18,0.4-1.85-1.02-2-2.07
		c-0.15-1.05-0.24-2.38-1.35-2.89c0,2.26,0.21,4.76-1.3,6.6c-1.51,1.84-4.45,1.94-5.49-0.28c-0.47-1.01,0.07-2.1-0.08-3.14
		c-0.15-1.04-0.71-2.09-1.91-1.92c-0.3,2.28-1.45,3.79-3.59,4.66c0.41-5.97-1.18-11.29-2.59-17.07c-0.9-3.67-1.48-7.33-0.75-11.1
		c1.01,1.56,2.09,2.84,2.57,4.67C212.53,286.37,212.39,277.18,212.3,268.35z"/>
</g>
<path class="st17" d="M484.52,197.25c-1.14-0.14-2.27-0.29-3.41-0.43c1.54-0.22,3.09-0.45,4.64-0.73c-3.7-1.6-7.21-1.31-11.1-0.89
	c-3.39,0.37-6.22,0.17-8.79-1.73c4.08-0.61,8.04-1.63,12.07-3.1c0.65-0.24,1.33-0.58,1.92-1.03c0.42-0.19,0.82-0.42,1.22-0.71
	c1.38-1.02,2-2.66,1.79-4.39c-7.88,2.01-16.07,4.79-24.19,4.5c-5.23-0.19-8.38-1.81-13.36-3.63c-11.4-4.16-21.34-8.87-34.06-11.27
	c-0.4-0.08-0.81-0.15-1.21-0.22c-10.47-2.31-21.14-3.92-31.58-7.06c-2.01-0.6-3.99-1.61-6.04-2.48c3.06,0.65,6.09,1.4,9.09,2.22
	c5.24,1.42,10.42,3.34,15.58,4.59c3.99,0.97,8.12,1.65,11.96,2.29c9.18,1.55,17.94,2.96,27.03,4.5
	c-21.95-10.76-47.14-7.58-69.57-17.53c-5.25-2.33-10.58-5.21-16.64-4.58c-3.84,0.4-6.9,2.45-10.32,4.05
	c-24.97,11.71-50.77,14.92-77.77,9.04c-1.25-0.27-2.43-0.65-3.59-1.1c-0.72-0.93-1.42-1.89-2.11-2.87
	c-4.09-1.16-8.15-1.88-12.19-2.24c-1.02-0.52-1.81-1.12-1.57-2.24c6.62-29.9-3.76-61.18-0.35-91.56c0.1-0.94,1.12-2.29,2.21-2.33
	c0-4.7,1.5-8.52,2.57-13.08s1.17-9.34,0.81-14.13c-0.15-2.02-0.37-4.29-1.59-6.06c-0.05-0.8-0.1-1.61-0.15-2.42
	c0.32,0.29,0.63,0.58,0.95,0.86c-0.04-0.28-0.06-0.56-0.1-0.84c0.1,0.08,0.19,0.16,0.29,0.25c-0.05-0.35-0.09-0.7-0.14-1.05
	c0.43,0.24,0.85,0.5,1.26,0.79c-0.96-5.38-1.34-10.79-1.65-16.22c0.2-1.6,0.38-3.22,0.34-5.12c-0.01-0.67-0.08-1.43-0.21-2.22
	c0,0,0-0.01,0-0.01c0.04-0.27-0.04-0.49-0.15-0.71c-0.38-1.57-1.1-3.09-2.41-3.93c-0.34-0.53-0.68-1.07-1.02-1.6
	c-0.14-0.22-0.34-0.4-0.58-0.44c-0.24-0.05-0.41,0.09-0.56,0.23c-1.82,1.78-3.5,3.64-5.13,5.59l0.3,0.01
	c0.38,0.32,0.74,0.64,1.11,0.96c-1.3,6.55-2.07,12.77-3.39,19.24c-0.1,0.49-0.39,1.07-0.05,1.56c0.03,0.04,0.07,0.08,0.1,0.12
	c-0.42,1.54-0.81,3.09-1.17,4.65c0.18-0.09,0.36-0.19,0.54-0.29c-1,3.78-2.16,7.66-2.8,11.21c-0.78,4.34,0.53,8.96,0.57,12.83
	c0.13,11.47-0.43,21.99-2.57,33.07c-2.65,13.75-5.25,29.74-5.48,43.1c-0.31,18.27,0.81,19.71-8.06,32.54
	c-2.29,0.59-4.58,1.25-6.87,1.99c-2.21,0.71-4.07,1.8-5.87,2.94c-3.88,0.76-7.07,3.15-10.85,4.66c-4.02,1.6-8.32,2.61-12.75,3.24
	c-14.22,2.04-27.56,3.23-41.48-1.19c-5.52-1.75-9.91-5.56-15.43-7.47c-5.51-1.9-10.78-2.5-16.16,0.13
	c-1.24,0.61-2.26,1.47-3.22,2.39c-1.17,0.95-2.21,2.04-3.32,3.04c-0.18,0.13-0.35,0.27-0.53,0.39c-2.28,1.52-4.63,2.53-7.17,3.62
	c-5.25,0.82-10.36,3.96-14.91,6.58c-2.71,1.01-5.42,2.05-8.11,3.27c-4.26,1.92-7.54,5.16-11.81,7.53
	c-18.01,10-35.42,13.23-55.93,10.52c0.12,0.23,0.26,0.43,0.38,0.65c-0.31-0.02-0.62-0.04-0.93-0.06c0.52,0.36,1.03,0.7,1.55,1.03
	c1.71,2.45,3.91,4.1,6.93,5.06c3.39,1.08,6.67,1.01,10.11,1.04c-0.22,0.12-0.45,0.24-0.67,0.36c-5.56,1.36-11.13,2.66-16.69,3.98
	c3.65,2.14,7.32,3.11,11.5,2.47s7.56-2.55,11.32-4.22c-3.33,3.82-7.12,6.43-11.85,8.13c-2.03,0.73-4.47,1.15-4.3,3.69
	c0.03,0.48,0.16,0.88,0.37,1.21c-0.84,0.41-1.69,0.82-2.55,1.21c1.04-0.18,2.07-0.39,3.1-0.61c1.05,0.81,2.81,0.82,4.22,0.45
	c1.76-0.46,3.46-1.4,5.01-2.46c-2.46,1.86-3.63,4.1-4.04,7.36c3.32-0.25,5.89-1.28,8.49-3.35c0.32,1.7,1.32,3,2.77,3.85
	c5.4,3.19,10.73,5.06,16.9,5.84c1.02,0.13,2.01,0.22,2.98,0.35c0.97,0.24,1.94,0.47,2.91,0.7c0.54,0.2,1.07,0.45,1.6,0.78
	c0.95,0.59,1.54,1.7,2.64,1.82c2.21,0.24,3.95-1.51,6.13-0.96c1.07,0.27,1.44,1.65,2.57,1.8c1,0.13,1.75-0.33,2.46-0.9
	c0.06,0,0.11,0.02,0.17,0.01c1.1-0.06,1.72-1.03,2.81-1.31c0.52-0.13,1.01-0.1,1.5-0.01c1.53,0.94,2.53,3.17,4.56,2.98
	c1.13-0.11,1.61-1.45,2.66-1.73c1.04-0.28,1.65,0.27,2.68,0.44c3.35,0.55,5.76-0.32,7.79-2.47c0.59,0.98,1.73,1.69,2.82,1.79
	c0.39,0.04,0.76,0.03,1.13,0.01c0.05,0.03,0.08,0.07,0.13,0.1c1.06,0.68,2.11,0.66,3,0.05c0.18,0.07,0.36,0.15,0.54,0.26
	c0.78,0.46,1.06,1.27,1.8,1.81c1.73,1.25,3.6,1.01,5.02-0.42c0.3,0,0.59,0.03,0.87,0.07c0.47,0.45,0.94,0.9,1.41,1.35
	c0.39-0.19,0.77-0.39,1.16-0.58c0.47,0.2,0.95,0.42,1.43,0.64c0.2,0.09,0.39,0.17,0.59,0.26c0.49,0.84,1.17,1.49,2.25,1.43
	c0.23-0.01,0.41-0.1,0.58-0.22c1.47,0.6,2.95,1.16,4.43,1.67c0.86,0.97,1.74,1.9,3.22,1.87c0.17-0.25,0.35-0.48,0.55-0.7
	c3.12,0.9,6.29,1.61,9.57,2.12c1.19,0.19,2.41,0.36,3.45,0.71c0.24,0.14,0.47,0.28,0.71,0.42c0.02-0.02,0.05-0.04,0.07-0.07
	c0.68,0.4,1.23,0.9,2.01,0.98c3.88,0.4,6.67-2.23,10.21-3.04c2.38,0.02,4.71,0.8,6.95,2.36c0.73,0.51,1.24,1.18,2.17,1.22
	c1.08,0.04,1.76-0.54,2.52-1.16c0.34-0.17,0.63-0.38,0.88-0.65c0.06-0.04,0.11-0.08,0.17-0.11c1.31-0.78,3.01-0.91,4.6-0.93
	c0.86-0.01,1.72-0.02,2.58-0.03c5.31,0.96,10.58,0.97,16.18,0.42c-0.13,0.38-0.27,0.76-0.44,1.14c0.82-0.33,1.48-0.78,2-1.33
	c0.96-0.21,1.78-0.65,2.57-1.18c0.43,0.94,0.78,1.91,1.03,2.95c0.22-0.47,0.44-0.94,0.66-1.41c0.31,1.57,0.81,3.06,2.22,4.1
	c1.65,1.22,3.43,0.9,4.52-0.42c0.46,1.3,1.13,2.53,2.04,3.75c0.01-0.42,0.03-0.83,0.04-1.25c0.69,1.09,1.63,2.01,2.82,2.79
	c1.16,0.76,2.33,1.31,3.5,1.85c0.38,0.34,0.78,0.66,1.23,0.97c0-0.13,0-0.27,0-0.4c0.82,0.39,1.64,0.81,2.45,1.32
	c3.34,15.54,3.3,31.28,3.47,47.16c1.05,0.21,1.94,0.07,2.93-0.37c0.33,2.26,0.89,4.39,1.73,6.51c0.54-0.32,1.04-0.66,1.52-1.03
	c0.32,2.78,0.72,5.55,1.23,8.31c-1.6,4.3-2.38,8.11-2.11,12.78c0.17,2.89,0.83,4.82,1.24,7.99c1.1,8.3,1.21,11.64,1.39,21.68
	c0.37,20.84,1.86,50.43,1.01,70.61c-0.13,3.03-0.32,4.88-0.54,6.24c-0.11-0.24-0.22-0.48-0.35-0.71c-0.92,2.4-1.65,5.01-2.2,7.51
	c-0.94,4.27-0.44,8.38-0.18,12.66c0.34,5.7,0.09,11.24-0.63,16.88c0.52-1.1,0.92-2.21,1.25-3.35c0.11,1.45,0.25,2.92,0.41,4.42
	c-0.09,1.51-0.21,3.02-0.38,4.53c0.2-0.84,0.41-1.68,0.61-2.53c0.13,1.05,0.26,2.12,0.41,3.21c0.5-0.62,0.99-1.04,1.48-1.58
	c0.03,0.06,0.06,0.12,0.1,0.19c0,0.14,0.01,0.28,0.01,0.42c0.01-0.11,0.02-0.22,0.03-0.34c0.49,0.99,1.11,1.83,1.93,2.59
	c0.1-1.21,0.33-2.36,0.71-3.52c0.22,1.39,0.69,2.6,1.47,3.78c1.36-2.03,1.96-4.06,1.89-6.5c0.01,1.4,0.24,2.71,0.69,4.04
	c0.14-0.9,0.27-1.79,0.41-2.68c0.29,0.45,0.59,0.9,0.92,1.34c-0.25-1.2-0.43-2.39-0.58-3.59c1-6.58,2.01-13.15,2.99-19.74
	c0.27-1.79,0.51-3.57,0.6-5.38c0.03,0.09,0.06,0.18,0.09,0.28c0.35-4.02,0.12-7.82-0.62-11.79c0.01-1.75,0.09-3.5,0.2-5.27
	c1.1-18.86,2.09-37.99,2.81-56.81c0.33-8.68,1.41-16.76,0.89-25.38c-0.7-3.3-0.54-6.37,0.62-9.54c0.67-1.84,1.67-3.29,1.92-5.28
	s-0.47-3.92-0.8-5.91c-0.79-4.68-0.43-9.34,0.21-14.01c2.04-14.9,4.67-29.53,7.85-44.18c0.88-2.37,1.8-4.75,2.75-7.15
	c0.84-2.1,1.75-4.24,2.68-6.38c0.62-0.54,1.27-1.06,1.98-1.48c1.34-0.27,2.7-0.71,3.91-1.37c1.25-0.29,2.5-0.57,3.74-1.2
	c1.9-0.96,3.07-2.53,3.1-4.52c0.44,0.37,0.83,0.79,1.41,0.74c0.98-0.07,1.5-0.75,1.9-1.6c1.9,0.08,3.71-0.34,5.7-1.29
	c-0.07-1.36-0.13-2.71-0.19-4.07c0.27,0.21,0.53,0.42,0.8,0.63c0.4-0.3,0.8-0.61,1.2-0.91c1.61,0.87,3.14,1.17,4.95,0.86
	c-0.05-0.7-0.08-1.39-0.07-2.08c0.54-0.06,1.08-0.12,1.62-0.18c-0.04,0.08-0.03,0.1,0.11-0.01c0,0,0,0,0,0
	c2.75,1.01,5.21,0.94,7.87-0.26c0.51-0.23,0.89-0.54,1.47-0.44c1.09,0.2,1.29,1.56,2.32,1.89c1.98,0.63,2.95-2.18,4.91-2.34
	c1.46-0.12,2.37,1.68,2.9,2.87c1.49-1.38,3.3-2.8,5.24-1.55c0.56,0.36,0.67,1.08,1.29,1.25c2.35,0.66,3.03-3.04,5.3-3.26
	c1.28-0.13,2.02,1.66,2.41,2.64c1.71,0.74,2.42-1.49,3.91-1.91c2.39-0.67,4.39,2.4,6.82,1.65c1.22-0.38,1.65-2.12,2.85-2.32
	c1.89-0.3,3.83,2.06,5.4,0.65c0.05-0.05,0.09-0.1,0.13-0.15c0.51,0.05,1.03,0.03,1.57-0.08c0.92-0.2,1.55-0.89,2.08-1.69
	c0.52,0.17,1.04,0.33,1.56,0.32c1.14-0.02,1.97-1.08,2.98-1.69c0.4-0.24,0.98-0.52,1.58-0.7c0,0.02,0.01,0.03,0.01,0.05
	c0.28-0.05,0.54-0.12,0.79-0.2c0.66-0.06,1.27,0.07,1.65,0.61c2.64-0.82,5.26-1.66,7.91-2.47c-0.08,1.5,1.43,2.41,2.79,1.86
	c1.36-0.55,1.95-1.94,2.77-3.08s1.8-2.24,3.29-2.12c0.88,0.07,1.46,0.7,2.37,0.53s1.33-1.34,2.3-1.42c1.81-0.14,2.53,2.39,4.36,2.22
	c0.94-0.09,1.21-1.15,2.06-1.57c1.2-0.58,2.23,0.04,3.56,0.22c3.56,0.49,6.29-1.3,7.74-4.57c1.62,1.22,3.46,1.21,5.16,0.15
	c1.61-1.01,2.51-2.53,3.54-4.05c0.12,0.03,0.24,0.06,0.36,0.08c1.27,2.08,3.82,2.25,5.29,0.19c0.44-0.62,0.29-1.51,1.02-1.83
	c1.68-0.74,2.4,1.3,3.72,2.21c1.78,1.23,3.94,0.04,5.86-0.48c6.75-1.83,13.78,0.16,20.34-2.23c1.14-0.42,1.96-1.19,3.11-1.34
	s2.01,0.21,3.13,0.19c1.11-0.02,2.23-0.39,3.26-0.8c7.7-3.09,15.13-6.52,22.53-10.3c1.12-0.57,2.19-1.2,3.17-2.1
	c0.74-0.69,1.25-1.59,2.01-2.36c2.72-2.73,5.75-3.73,9.59-3.26c-0.34-0.29-0.66-0.6-0.96-0.91c0.47-0.13,0.95-0.28,1.44-0.47
	c-1.24-0.82-2.4-1.72-3.48-2.72c4.3,1.12,8.1,0.57,12.07-1.33c0.16,0,0.31-0.01,0.47-0.01c-0.1-0.02-0.19-0.05-0.28-0.07
	c0,0,0.01,0,0.01,0c-0.09-0.02-0.17-0.04-0.26-0.06c-4.92-1.24-9.46-2.83-13.81-5.13C473.41,201,478.88,199.74,484.52,197.25z
	 M351.39,163.02c3.69-1.09,7.37-1.05,11.1-0.63c-6.81,0.43-13.01,3.16-19.56,5.6c-0.12,0.04-0.24,0.08-0.36,0.13
	C345.49,166.34,348.06,163.99,351.39,163.02z M218.68,444.98c-0.14-6.36,0.74-19.65,1.47-25.52c1.45-11.61,1.53-23.71,1.71-33.55
	c0.28-15.13,0.65-32.67-1.41-45.04c-0.96-5.77-1.4-3.66-2-6.47c-0.78-3.66-0.89-5.39-1.04-8.11c-0.1-1.81-0.19-3.61-0.28-5.41
	c0.34,0.67,0.75,1.29,1.38,1.78c1.3,1.01,2.71,0.98,3.88-0.21c0.21-0.22,0.3-0.47,0.34-0.73c0.34-0.13,0.67-0.28,0.96-0.45
	c0.46,0.53,0.98,0.99,1.74,1.19c1.33,0.34,2.06-0.42,2.36-1.66c0.71,0.42,1.41,0.86,2.1,1.31c-0.49,3.35-1.01,6.7-1.57,10.05
	c-0.31,0.83-0.68,1.63-1.13,2.41c-0.4,0.68-0.93,1.21-1.1,2.02c-0.19,0.94,0.03,1.78,0.55,2.44c-0.94,3.76-0.49,7.56-0.17,11.64
	c1.23,15.57-2.01,30.94-0.54,46.45c-1.07,12.67-1.74,25.32-0.69,37.98c-0.04,0.81-0.08,1.61-0.11,2.42
	c-0.11,3.15-0.15,6.3-0.84,9.43c-0.96,4.35-2.92,8.22-4.97,12.23C219.17,453.94,218.81,450.79,218.68,444.98z M226.54,413.76
	c-0.13,2.51-0.3,5-0.46,7.49c0.13-5.58,0.27-11.16,0.43-16.73C226.66,407.58,226.7,410.64,226.54,413.76z"/>
</svg>
