<!-- Generator: Adobe Illustrator 23.0.4, SVG Export Plug-In  -->
<svg version="1.1" xmlns="http://www.w3.org/2000/svg" xmlns:xlink="http://www.w3.org/1999/xlink" x="0px" y="0px"
	 width="105.11px" height="193.76px" viewBox="0 0 105.11 193.76" style="enable-background:new 0 0 105.11 193.76;"
	 xml:space="preserve">
<style type="text/css">
	.st0{fill:#E07C7C;}
	.st1{fill:#C65C5C;}
	.st2{opacity:0.6;fill:#603030;}
	.st3{fill:#F98585;}
	.st4{fill:#DB6363;}
	.st5{opacity:0.7;fill:none;stroke:#050100;stroke-width:0.25;stroke-miterlimit:10;}
	.st6{opacity:0.9;fill:#915A5A;}
	.st7{fill:#D37D7D;}
	.st8{fill:#F7C4C4;}
	.st9{opacity:0.8;fill:#7C4D4D;}
	.st10{opacity:0.5;fill:#915A5A;}
	.st11{opacity:0.7;fill:#C63E3E;}
	.st12{opacity:0.7;fill:#F46C6C;}
	.st13{opacity:0.9;fill:#230F0F;}
	.st14{opacity:0.8;fill:#F93D3D;}
	.st15{opacity:0.7;fill:#FCDBDB;}
	.st16{fill:none;}
	.st17{opacity:0.8;fill:#E22B2B;}
	.st18{opacity:0.8;fill:#210808;}
	.st19{opacity:0.9;fill:#020000;}
	.st20{opacity:0.7;fill:#140303;}
	.st21{opacity:0.8;fill:#491616;}
	.st22{opacity:0.7;fill:#66221A;}
	.st23{opacity:0.7;fill:#F9CA06;}
	.st24{opacity:0.5;fill:#FF3300;}
	.st25{opacity:0.7;fill:#050100;}
</style>
<defs>
</defs>
<g>
	<path class="st0" d="M52.56,132.5c-0.59,1.14,0.31,2.41,0.99,3.35c0.95,1.31,1.51,2.75,2.27,4.17c0.57,1.07,0.93,1.97,1.22,3.15
		c0.19,0.77,0.29,1.82,0.66,2.49c0.2-0.72,0.02-2.78,1.44-2.35c0.11,0.25,0.32,0.42,0.4,0.69c-0.02-0.94-0.04-1.9,0.01-2.83
		c0.76-0.13,1.53,0.93,1.63,1.6c0.24-0.64-0.29-1.76-0.7-2.4c-0.85-1.32-1.56-2.75-2.44-4.02c-1.15-1.67-3-3.87-5.24-3.6"/>
	<path class="st1" d="M31.6,130.01c-1.58-0.43-2.88-1.44-4.37-2.06c-1.27-0.53-2.25-0.94-3.45-1.6c-0.67-0.37-1.7-0.91-2.43-1.12
		c-0.55-0.16-0.93,0.28-1.44,0.15c-0.46-0.12-0.69-1.01-0.44-0.96c-0.84-0.17-0.56-0.18-0.64-0.98c-0.03-0.29-0.29-0.21-0.29-0.56
		c0-0.62,0.56-1-0.1-1.5c1.07-0.38,1.21-2.02,2.55-2.51c1.04-0.38,2.23-0.44,3.24-0.94c1.2-0.6,1.81-1.04,3.11-1.31
		c2.64-0.54,5.22-1.4,7.76-1.81c1.16-0.19,2.15-1.04,3.36-1.21c1.32-0.19,2.57-0.47,3.82-0.95c2.55-0.99,5.02-1.77,7.64-2.56
		c1.29-0.39,2.43-1.04,3.58-1.66c1.16-0.62,2.22-1.08,3.54-0.74c0.27,0.07,2.02,0.84,1.68,1.35c-2.53,3.86-8.16,3.92-12.12,4.81
		c-1.12,0.25-2.21,0.69-3.38,0.96c-1.56,0.35-3.3,0.81-4.81,1.42c-1.94,0.79-3.73,1.18-5.83,1.58c-1.14,0.22-2.7,0.23-3.75,0.68
		c-1.2,0.51-2.42,1.25-3.63,1.87c-0.96,0.49-1.88,0.63-2.83,1.05c-0.29,0.13-0.54,0.33-0.82,0.46c-0.04,0.1-0.1,0.43-0.1,0.53
		c0.19-0.03,0.45,0.07,0.64,0.04c1.62,2.19,5.61,2.89,8.24,4.01c5.33,2.27,11.22,2.07,16.72,3.53c4.33,1.15,9.04,1.2,11.24,5.86
		c1.02,2.17,2.54,4.03,2.87,6.45c-1.4-2.43-3.36-6.49-5.97-7.89c1.23,1.4,2.6,3.77,3.26,5.61c0.46,1.27,0.96,2.98,0.84,4.35
		c0.26-2.05-1.71-4.23-2.9-5.57c-0.95-1.08-1.62-2.59-2.82-3.38c1.28,1.65,2.6,3.83,3.25,5.88c0.45,1.43,0.36,3.22,0.86,4.59
		c0.1-1.71-1.61-3.73-2.41-5.21c-0.7-1.29-1.37-2.65-2.15-3.88c-0.49-0.77-2.39-2.7-1.85-3.47c-0.13,0.16-0.34,0.24-0.46,0.37
		c-0.19-0.55,0.19-1.5-0.6-1.51c0.06,0.24-0.08,0.59-0.04,0.84c-0.67,0.04-1.22-0.37-1.98-0.45c-0.99-0.11-2-0.03-2.99-0.12
		C40.67,131.98,36,131.22,31.6,130.01z"/>
	<path class="st2" d="M58.54,108.56c-0.42,1.8-2.9,2.29-4.36,2.73c-1.48,0.45-2.89,0.22-4.42,0.43c-1.42,0.2-2.68,0.59-4.03,1.01
		c-3.85,1.22-7.77,1.96-11.63,3.11c-1.77,0.53-3.7,0.79-5.32,1.64c-0.79,0.42-2.23,0.89-2.75,1.57c1.54,0.68,4.14-0.4,5.72-0.72
		c2.51-0.52,5.04-1.33,7.37-2.24c1.73-0.68,3.85-1.4,5.67-1.52c2.38-0.16,4.96-0.02,7.14-1.01c2.09-0.95,4.8-2.34,6.11-4.13"/>
	<path class="st3" d="M56.49,185.96c-0.61,0.25-1.18,1.37-0.75,1.99c0.26,0.38,1.65,0.78,2.1,0.94c0.87,0.33,1.84,0.53,2.69,0.93
		c1.44,0.67,2.6,1.9,4.06,2.45c0.34,0.13,0.9,0.25,1.18,0.5c0.29,0.25,0.34,0.69,0.68,0.89c0.09-1.16,0.02-2.17,0.93-2.95
		c0.62-0.53,1.06-0.66,1.81-0.88c0.04-0.74-0.47-1.71-0.17-2.48c0.23-0.58,0.86-0.62,1.34-0.77c-1.19,0.06-2.38-0.29-3.56-0.31
		c-1.52-0.03-3.05-0.13-4.58-0.13c-2.08,0-4.29-0.22-6.35-0.06"/>
	<path class="st4" d="M55.66,112.18c0.68,0.73,0.06,3.09,0.02,3.98c-0.26,5.36-0.27,10.71-0.53,16.06
		c-0.22,4.5-0.31,8.97-0.53,13.46c-0.11,2.39-0.14,5.15,0.58,7.4c0.64,2.03-0.61,4.17-0.71,6.2c-0.13,2.53-0.57,5.02-0.86,7.53
		c-0.36,3.17-0.34,6.41-0.49,9.6c-0.11,2.22-0.79,4.33-0.8,6.55c0,0.76-0.13,1.69,0,2.45c0.1,0.56,0.87,1.11-0.15,1.27
		c0.32,0.07,0.62-0.02,0.92-0.08c-0.46-1.35,1.67,1.52-1.14,1.16c-1.37-0.18-2.29-0.38-2.58-1.78c-0.48-2.37,0.1-5.1,0.28-7.48
		c0.23-2.95,0.6-5.88,0.9-8.82c0.22-2.13,0.3-4.27,0.4-6.41c0.1-2.13,0.68-3.91,0.41-6.03c-0.08-0.63-0.04-1.46-0.02-2.07
		c0.03-0.87,0.46-1.1,0.7-1.82c0.4-1.21,0.14-2.96,0.2-4.23c0.1-2,0.2-4.01,0.27-6.01c0.15-3.92,0.24-7.84,0.11-11.76
		c-0.11-3.37,0.3-6.74,0.35-10.12c0.03-2.06-0.4-4.1-0.81-6.13c-0.2-1-0.96-2.16,0.05-2.86C52.96,111.76,55.04,111.51,55.66,112.18z
		"/>
	<path class="st2" d="M51.81,113.4c-0.11,0.88,0.09,1.63,0.25,2.45c0.18,0.96,0.12,1.84,0.11,2.85c-0.01,1.4,0.09,2.78,0.16,4.16
		c0.16,2.99,0.16,6.03,0.05,9.03c-0.08,2.32,0.36,4.58,0.27,6.92c-0.07,1.91-0.11,3.79-0.27,5.71c-0.25,2.93-0.27,6.02-0.78,8.86
		c0,0-0.44,0.12-0.48,0.12c0.08,0.49,0.58,0.8,1.13,0.9c-0.1,0.07-0.11,0.21-0.35,0.31c0.48,0.59-0.26,0.72,0.13,1.26
		c-1.14,0.17-0.69,1.08-0.03,1.55c0.29-0.5,0.87-0.94,1.15-1.29c0.39-0.48,0.24-0.1,0.31-0.84c0.02-0.21,0.1-1.1,0.04-1.27
		c-0.16-0.48-0.63-0.58-0.81-1.09c-0.59-1.71,0.51-4.38,0.66-6.03c0.22-2.54,0.06-5,0-7.53c-0.14-5.87,0.32-11.78,0.61-17.66
		c0.1-2.1,0.27-4.59-0.27-6.68c-0.06-0.24-0.92-3.52-1.61-2.18"/>
	<path class="st2" d="M52.19,159.45c-0.28,3.03,0.52,6.11,0.33,9.2c-0.14,2.33-0.44,4.66-0.67,6.99c-0.3,2.91-1.28,5.87-1.9,8.73
		c-0.16,0.73-0.74,2.26,0.57,2.62c0.95,0.27,0.7-0.55,1.61-0.71c-0.32,0.37-0.32,0.89-0.31,1.36c0.43-0.19,0.74-0.55,0.95-0.96
		c1.68,1.53-2.49,1.31-3.3,0.64c-0.94-0.78-0.71-2.42-0.68-3.44c0.06-2.12,0.39-4.26,0.59-6.37c0.18-1.91,0.15-4.08,0.77-5.91
		c0.58-1.72,0.85-3.35,1.02-5.13c0.14-1.41-0.64-5.97,0.91-6.93"/>
	<path class="st4" d="M50.94,187.77c2.52,0.01,5.93,0.71,8.04,2.01c2.5,1.54,5.11,3.08,7.75,3.98c-0.83-1.64-3.65-2.83-5.2-3.74
		c-1.29-0.76-2.65-1.35-3.93-2c2.61,0.04,5.39-0.24,7.93,0.39c1.34,0.33,2.56,1.13,3.94,1.26c-1.45-1.05-3.37-1.42-4.98-2.04
		c-1.45-0.57-3.22-0.74-4.8-0.72c1.7-0.66,3.93-0.38,5.73-0.38c1.44,0,3.47-0.34,4.79,0.26c-4.03-1.48-8.9-1.06-13.15-1.01
		c-1.25,0.01-2.88,0.74-4.12,0.38c-1.11-0.32-1.41-0.8-2.72-0.74c-0.24,1.57,0.56,1.26,1.48,1.99"/>
	<path class="st2" d="M18.55,121.47c0.99,0,2-0.04,2.98,0.03c-0.63,0.26-1.45,0.65-2.08,0.95c0.79,0.05,1.78,0.17,2.53-0.11
		c-0.7,0.07-1.33,0.54-1.68,1.12c0.79,0.14,1.84-0.11,2.25-0.82c-0.83,1.59-1.85,1.97-3.27,2.24c0.25-0.12,0.39-0.39,0.63-0.55
		c-0.41-0.46-0.45-1.36-0.22-1.59c-0.65-0.05-0.78-0.68-0.64-1.26"/>
	<path class="st2" d="M49.2,132.5c1.01,0.26,2.14,1.55,2.36,2.59c0.3-0.79,0.37-1.67,0.49-2.46c-0.98,0.64-0.87-0.1-1.73-0.27
		c-0.71-0.14-1.51,0.17-2.24,0.16c0.38,0.12,0.99,0.09,1.49,0.1"/>
	<g>
		<path class="st5" d="M58.92,143.97c0.01-0.16,0.02-0.32,0.02-0.49C58.94,143.65,58.94,143.81,58.92,143.97z"/>
		<path class="st5" d="M0.84,101.56c0.13,0.29,0.34,0.56,0.51,0.84c-0.3,0.05-0.38,0.25-0.72,0.28c-0.05,1.18,1.18,1.04,1.92,1.35
			c-0.2,0.1-0.39,0.22-0.56,0.36c0.4,0.17,0.8,0.27,1.21,0.34c0.21,0.68-0.08,1.51,0.78,1.7c0.47,0.1,1.03-0.34,1.34-0.56
			c0.63-0.45,0.28-0.49,0.93-0.69c0.49-0.15,1.1-0.13,1.59-0.26c0.36-0.1,0.77-0.19,1.18-0.28c-0.16,0.55-0.81,0.99-0.84,1.54
			c1.09-0.6,2.5-1.09,3.41-2.03c0.21-0.09,0.43-0.2,0.66-0.32c0.3,0.41,0.31,1.18,0.47,1.71c2.41,0.44,2.33-2.28,4.46-2.36
			c3.09-0.13,4.81,2.89,7.46,3.83c0.22,0.08,0.44,0.15,0.66,0.21c0.58,0.32,1.22,0.55,1.97,0.6c2.04,0.15,4.15,0.15,6.26,0.11
			c0.9,0.02,1.8,0.05,2.7,0.14c2.76,0.27,5.51,0.27,8.26,0.53c1.06,0.1,2.07,0.42,3.12,0.59c0.67,0.11,1.77-0.1,2.38,0.18
			c0.08,0.04,0.15,0.07,0.21,0.12c-0.22,0.08-0.44,0.16-0.67,0.23c-2.62,0.79-5.09,1.57-7.64,2.56c-1.25,0.48-2.5,0.77-3.82,0.95
			c-1.21,0.17-2.2,1.02-3.36,1.21c-2.54,0.41-5.11,1.27-7.76,1.81c-1.3,0.26-1.91,0.71-3.11,1.31c-1.01,0.5-2.19,0.55-3.24,0.94
			c-1.34,0.49-1.48,2.13-2.55,2.51c0.04,0.03,0.08,0.07,0.12,0.1c0,0-0.01,0-0.01,0h0.01c0.48,0.46-0.01,0.83-0.01,1.41
			c0,0.35,0.26,0.27,0.29,0.56c0.08,0.8-0.21,0.81,0.64,0.98c-0.12-0.02-0.13,0.16-0.06,0.37c-0.04,0.03-0.08,0.06-0.13,0.09
			c0.05-0.01,0.1-0.02,0.15-0.03c0.09,0.23,0.26,0.48,0.48,0.54c0.51,0.13,0.89-0.31,1.44-0.15c0.73,0.21,1.76,0.75,2.43,1.12
			c1.2,0.66,2.18,1.07,3.45,1.6c1.48,0.62,2.79,1.63,4.37,2.06c4.4,1.2,9.07,1.97,13.61,2.39c0.98,0.09,1.97,0.01,2.95,0.12
			c-0.02,0-0.05,0-0.07,0c0.15,0.05,0.33,0.07,0.53,0.08c0.54,0.14,0.99,0.38,1.51,0.37c0.25,0.19,0.48,0.42,0.69,0.68c0,0,0,0,0,0
			c0,0,0,0,0,0c0.37,0.45,0.65,0.97,0.75,1.44c0.04-0.09,0.07-0.19,0.1-0.29c0.27,0.42,0.61,0.84,0.9,1.22
			c0.07,0.93,0.12,1.86,0.08,2.81c-0.07,1.91-0.11,3.79-0.27,5.71c-0.25,2.93-0.27,6.02-0.78,8.86c0,0-0.44,0.12-0.48,0.12
			c0.05,0.3,0.25,0.53,0.53,0.69c-0.14,0.25-0.25,0.52-0.26,0.95c-0.01,0.37-0.03,0.81-0.02,1.25c-0.03,0.11-0.03,0.22,0.01,0.34
			c0.01,0.17,0.02,0.33,0.04,0.48c0.27,2.12-0.31,3.9-0.41,6.03c-0.1,2.14-0.19,4.28-0.4,6.41c-0.02,0.2-0.04,0.39-0.06,0.59
			c-0.11,0.44-0.24,0.89-0.4,1.34c-0.62,1.83-0.59,4-0.77,5.91c-0.2,2.11-0.53,4.25-0.59,6.37c-0.03,1.02-0.26,2.66,0.68,3.44
			c0.42,0.35,1.74,0.57,2.68,0.5c2.32,0.18,5.06,0.85,6.84,1.96c2.4,1.48,4.9,2.95,7.43,3.86c0.01,0.01,0.02,0.02,0.03,0.02
			c0,0,0-0.01,0-0.01c0.1,0.03,0.19,0.07,0.29,0.11c-0.07-0.15-0.17-0.29-0.27-0.42c0.07-1.02,0.08-1.92,0.91-2.62
			c0.62-0.53,1.06-0.66,1.81-0.88c0-0.07,0-0.14-0.01-0.21c0.1,0.02,0.19,0.03,0.29,0.04c-0.1-0.07-0.2-0.13-0.31-0.2
			c-0.09-0.68-0.4-1.47-0.15-2.11c0.17-0.42,0.54-0.56,0.92-0.66c0.09,0.03,0.18,0.06,0.27,0.09c-0.08-0.04-0.16-0.07-0.24-0.1
			c0.13-0.03,0.27-0.07,0.39-0.1c-0.26,0.01-0.52,0.01-0.79-0.01c-3.9-1.22-8.48-0.84-12.52-0.8c-1.25,0.01-2.88,0.74-4.12,0.38
			c-0.11-0.03-0.21-0.07-0.31-0.1c-0.1-0.19-0.24-0.41-0.28-0.62c-0.14-0.76-0.01-1.68,0-2.45c0.01-2.22,0.69-4.34,0.8-6.55
			c0.15-3.19,0.12-6.43,0.49-9.6c0.29-2.52,0.73-5,0.86-7.53c0.1-2.04,1.35-4.17,0.71-6.2c-0.72-2.25-0.69-5.01-0.58-7.4
			c0.09-1.94,0.16-3.88,0.23-5.83c0.14,0.26,0.28,0.53,0.42,0.78c0.51,0.95,1.39,2.11,1.93,3.28c0.07,0.36,0.14,0.73,0.24,1.07
			c0.06,0.3,0.13,0.59,0.23,0.87c0.01-0.09,0-0.18,0-0.27c0.01,0.02,0.02,0.04,0.03,0.06c0.2-0.72,0.02-2.78,1.44-2.35
			c0.04,0.08,0.08,0.16,0.13,0.23c0.02,0.11,0.02,0.22,0.03,0.33c0-0.1-0.01-0.21-0.02-0.32c0.1,0.14,0.2,0.27,0.26,0.45
			c-0.02-0.94-0.04-1.9,0.01-2.83c0.76-0.13,1.53,0.93,1.63,1.6c0.16-0.42-0.01-1.03-0.26-1.59c-0.56-1.91-1.77-3.52-2.63-5.35
			c-0.78-1.65-1.87-2.72-3.15-3.47c0-0.05,0-0.09,0.01-0.14c0.26-5.35,0.27-10.7,0.53-16.06c0.03-0.65,0.37-2.09,0.28-3.11
			c0.02,0,0.05-0.01,0.07-0.01c0.41-0.67,0.7-1.46,1.01-2.25c0.42-0.31,0.81-0.67,1.15-1.07c0.5,0.09,0.98,0,1.42-0.45
			c0.68-0.71,1.04-1.27,1.8-1.92c0.49-0.42,1.25-1.11,1.73-1.77c0.36-0.23,0.71-0.46,1.07-0.69c0.86-0.32,1.71-0.65,2.49-1.09
			c1.9-1.09,3.54-1.76,5.49-3.04c0.83-0.55,1.58-0.71,2.37-1.23c0.28-0.19,0.51-0.43,0.74-0.66c0.74-0.34,1.44-0.71,2.01-1.15
			c0-0.04,0-0.08-0.01-0.13c0.68-0.36,1.26-0.71,2.01-1.4c0.89-0.82,2.08-1.23,3.15-1.81c1.37-0.74,2.39-1.8,3.77-2.71
			c0.61-0.4,0.81-0.56,1.37-1.25c0.44-0.54,1.03-0.94,1.47-1.47c1.87-2.29,3.26-5.1,3.96-8.03c0.83-3.47,0.52-6.82,0.53-10.33
			c0-4.4-1.04-8.51-1.68-12.8c-0.7-4.7-1.41-9.39-2.4-14.04c-0.63-2.95-0.92-6.1-1.5-9.14c-0.5-2.61-1.1-5.32-1.4-7.98
			c-0.3-2.67-0.65-5.26-0.28-7.89c0.05,0.67,0.15,1.26,0.27,1.61c0.53-1.2,0.38-2.94,1.02-4.14c2.37-0.15,4.49,0.71,6.83,0.73h0.09
			c0.15,0.1,0.34,0.17,0.54,0.26c0.6,0.28,1.82,0.99,1.82,0.99s0.47,0.93,0.69,1.5c0.61,1.57,0.87,3.16,1.48,4.73
			c0.15,0.39,0.37,0.79,0.64,1.17c0.01,0.06,0.01,0.12,0.03,0.18c0.1,0.54,0.29,1.1,0.38,1.68c0.05,0.32,0.06,0.65,0.1,0.97
			c0,0.4,0.08,0.79,0.4,1.17c0.36,0.44,1.35,0.81,1.87,0.63c0.69-0.23,0.73-1.59,0.91-2.23c0.33-1.2,0.76-2.37,1.02-3.6
			c0.19-0.9,0.24-1.79,0.36-2.69c0.04-0.19,0.07-0.39,0.11-0.57c0.42-2.1,0.3-4.65-0.06-6.77c-0.14-0.86-0.22-1.51-0.81-2.15
			c-0.01-0.02-0.03-0.03-0.05-0.05c-0.63-0.89-1.46-1.5-2.18-2.23c-0.21-0.24-0.41-0.49-0.62-0.72c-0.06-0.08-0.12-0.15-0.17-0.23
			c-0.37-0.56-0.82-0.64-1.25-1.03c-0.41-0.37-0.82-1.07-1.16-1.54c-0.27-0.37-0.46-0.68-0.66-0.95c0.05-0.02,0.1-0.04,0.16-0.06
			l-0.12-0.25c-0.62-1.42-2.18-1.73-3.57-2.23c0.13-0.01,0.27-0.01,0.41-0.02c-0.62-0.3-1.36-0.64-2.18-0.95
			C91.55,1,91.16,0.4,90.06,0.26c-0.76-0.1-2.31-0.25-3,0c-0.31,0.11-0.64,0.27-0.99,0.44c-0.54,0.13-1.05,0.35-1.5,0.68
			c-0.1,0.07-0.19,0.16-0.28,0.24c-0.07,0.03-0.15,0.07-0.22,0.1c-1.56,0.68-2.85,2.59-3.54,4.17c-0.34,0.77-0.88,1.57-1.17,2.34
			c-0.28,0.76-0.02,1.52-0.14,2.31c-0.04,0.24-0.09,0.48-0.14,0.72c-0.19,0.67-0.32,1.34-0.41,2.02c-0.03,0.2-0.05,0.4-0.06,0.6
			c-0.04,0.52-0.06,1.04-0.06,1.56c-0.03,0.6-0.05,1.21,0.07,1.75c0,0.02,0.01,0.04,0.02,0.06c0.28,3.4,1.17,6.86,1.33,10.22
			c0.11,2.27,0.32,4.43,0.52,6.67c0.22,2.37,0.62,4.75,0.85,7.12c0.66,6.76,1.18,13.62,1.24,20.42c0.03,2.87,0.49,6.29-0.23,9
			c-0.02,0.09-0.05,0.18-0.07,0.26c-0.06,0.06-0.12,0.12-0.19,0.16c-1.24,0.86-4.57-2.89-5.71-3.78c-0.89-0.69-1.66-0.65-2.77-0.9
			c-1.9-0.42-3.12-0.96-5.1-0.98c-2.5-0.03-4.97,0.1-7.42,0.43c-0.67-0.05-1.34-0.05-2.04,0.07c-0.79,0.14-1.54,0.44-2.29,0.72
			c-0.72,0.17-1.45,0.36-2.17,0.57c-0.11,0.03-0.21,0.07-0.32,0.1c-1.22,0.17-2.4,0.2-3.67,0.63c-1.04,0.36-1.9,0.77-2.91,1.34
			c-0.04,0.02-0.08,0.04-0.12,0.06c-0.41,0.14-0.8,0.28-1.19,0.42c-0.48,0.08-0.97,0.09-1.69,0.2c-1.3,0.2-2.39,0.88-3.41,1.69
			c-1.36,0.71-2.65,1.55-3.97,2.32c-0.56,0.33-1.23,0.37-1.83,0.63c-1.13,0.5-2.01,1.43-3.01,2.12c-0.05,0.03-0.1,0.07-0.15,0.1
			c-0.25,0.09-0.49,0.18-0.68,0.3c-0.96,0.6-1.84,1.33-2.73,2.03c-0.29,0.19-0.59,0.39-0.88,0.57c-1.31,0.84-2.86,1.3-4.11,2.27
			c-1.31,1.02-1.97,2.4-2.77,3.71c-0.15,0.13-0.3,0.26-0.44,0.4c-0.91,0.85-1.79,1.7-2.67,2.55c-0.19,0.14-0.38,0.28-0.57,0.46
			c-0.99,0.97-2.04,1.78-3.2,2.5c-0.24,0.07-0.51,0.15-0.85,0.29c-0.29,0.12-0.52,0.3-0.73,0.47c-0.87,0.19-1.55-0.11-2.56-0.14
			c-0.28-0.11-0.58-0.18-0.92-0.1c-0.02,0.06-0.03,0.12-0.05,0.18c-1.15,0.3-0.78,1.5-0.87,2.8c-1.22-0.65-1.98-1.04-3.44-0.97
			c-0.42,0.77-1.05,0.11-1.61,0.47c-0.93,0.61,0.01,0.7,0.08,1.47c-0.31-0.08-0.6-0.18-0.85-0.32c0.18,0.22,0.36,0.44,0.54,0.64
			c-1.12,0.26-1.93,1.28-2.81,1.97c0.62,0.67,0.95,1.35,1.41,2.13c-0.2-0.01-0.61,0.18-0.88,0.14c-0.07,0.27-0.05,0.51,0.03,0.73
			c-0.1,0-0.19,0-0.26-0.01C0.63,101.46,0.73,101.51,0.84,101.56z M68,186.05c0.41,0.01,0.81,0.05,1.18,0.14
			C68.79,186.16,68.4,186.11,68,186.05z M104.04,23.12c-0.01,0.02-0.02,0.04-0.02,0.06c0.1-0.51,0.19-1.03,0.28-1.53
			C104.24,22.14,104.22,22.66,104.04,23.12z M49.95,131.99c-0.03-0.01-0.06-0.01-0.1-0.01c0.01-0.08,0.01-0.15-0.01-0.22
			c0.3,0.01,0.43,0.15,0.49,0.36C50.23,132.07,50.1,132.02,49.95,131.99z M24.83,119.97c0.67-0.34,1.34-0.71,2.01-1.07
			c1.48,0.01,3.32-0.69,4.54-0.94c2.51-0.52,5.04-1.33,7.37-2.24c1.07-0.42,2.3-0.86,3.52-1.16c0.01,0,0.03-0.01,0.04-0.01
			c0.72-0.18,1.44-0.3,2.11-0.35c2.33-0.15,4.84-0.02,6.99-0.95c-0.05,0.79,0.12,1.48,0.26,2.23c0.18,0.96,0.12,1.84,0.11,2.85
			c-0.01,1.4,0.09,2.78,0.16,4.16c0.15,2.76,0.15,5.57,0.07,8.35c-1.71-0.5-3.56-0.79-5.34-1.26c-5.5-1.46-11.39-1.26-16.72-3.53
			c-2.46-1.04-6.11-1.72-7.9-3.6c0.04-0.07,0.08-0.13,0.11-0.21c-0.04,0.07-0.09,0.12-0.14,0.18c-0.11-0.12-0.22-0.25-0.32-0.38
			c-0.11,0.02-0.24,0-0.36-0.02c0.08-0.02,0.17-0.04,0.24-0.07c-0.11,0.01-0.21,0.03-0.32,0.06c-0.07-0.01-0.14-0.01-0.2-0.01
			c0-0.1,0.06-0.43,0.1-0.53c0.29-0.13,0.53-0.33,0.82-0.46C22.96,120.6,23.87,120.45,24.83,119.97z"/>
	</g>
	<path class="st6" d="M63.39,105.21c-0.43,0.76-1.4,1.64-1.99,2.15c-0.76,0.66-1.12,1.22-1.8,1.92c-1.12,1.17-2.56-0.06-3.86-0.69
		c0.9-1.87,0.21-3.08,2.82-3.17c1.4-0.05,2.99-0.03,4.33-0.01"/>
	<path class="st7" d="M98.04,5.4c-0.99,0.46-1.73-0.27-2.64-0.6c-1.01-0.37-2.2-0.32-3.32-0.26c-0.21,1.24,0.51,2.27,1.11,3.25
		c0.8,1.29,1.34,2.64,1.77,4.1c0.3,1.04,0.63,2.54,0.31,3.64c-0.34,1.19-1.22,1.15-2.47,1.16c-1.7,0-3.41-0.8-4.98-0.85
		c-1.34-0.04-1.12,0.85-1.36,1.99c-0.62,2.94-0.21,5.82,0.12,8.79c0.3,2.67,0.9,5.38,1.4,7.98c0.58,3.04,0.87,6.2,1.5,9.14
		c0.99,4.64,1.7,9.34,2.4,14.04c0.64,4.3,1.68,8.4,1.68,12.8c0,3.5,0.3,6.86-0.53,10.33c-0.7,2.93-2.08,5.73-3.96,8.03
		c-0.43,0.53-1.03,0.93-1.47,1.47c-0.56,0.69-0.77,0.85-1.37,1.25c-1.38,0.9-2.4,1.97-3.77,2.71c-1.07,0.58-2.26,0.99-3.15,1.81
		c-1.15,1.06-1.9,1.32-3.21,2.03c-0.64,0.36-0.98,0.93-1.55,1.31c-0.79,0.52-1.53,0.69-2.37,1.23c-1.96,1.28-3.6,1.95-5.49,3.04
		c-1.29,0.74-2.79,1.15-4.18,1.75c-0.68,0.29-1.15,0.67-1.79,1.12c-0.47,0.33-1,0.4-1.39,0.66c-1.96,1.31-2.24,3.94-3.32,5.72
		c-1.22,0.12-3.13,0.6-4.06-0.36c-0.85-0.89-0.37-2.4-1.6-2.96c-0.61-0.28-1.71-0.08-2.38-0.18c-1.05-0.17-2.06-0.49-3.12-0.59
		c-2.75-0.26-5.5-0.26-8.26-0.53c-3.92-0.38-7.95,0.23-11.59-1.05c-2.65-0.94-4.37-3.95-7.46-3.83c-2.13,0.09-2.05,2.8-4.46,2.36
		c-0.24-0.75-0.14-1.97-1.02-1.99c-0.48-0.01-0.92,0.53-1.34,0.7c-0.73,0.3-1.74,0.46-2.52,0.67c-0.49,0.13-1.11,0.11-1.59,0.26
		c-0.65,0.2-0.3,0.24-0.93,0.69c-0.31,0.22-0.87,0.66-1.34,0.56c-1.14-0.25-0.24-1.65-1.22-2.29c-0.69-0.46-2.17-0.16-2.12-1.45
		c0.34-0.03,0.42-0.23,0.72-0.28c-0.32-0.52-0.78-1.02-0.59-1.72c0.27,0.04,0.69-0.16,0.88-0.14c-0.46-0.78-0.8-1.46-1.41-2.13
		c0.96-0.75,1.83-1.9,3.11-2.02c0.15-1.03-1.11-1.07-0.08-1.74c0.56-0.37,1.19,0.3,1.61-0.47c1.47-0.08,2.22,0.32,3.44,0.97
		c0.1-1.44-0.36-2.74,1.27-2.87c1.73-0.13,2.48,0.66,4.09-0.25c1.41-0.8,2.66-1.74,3.83-2.88c0.91-0.89,2.01-1.12,2.83-2.16
		c1.29-1.62,1.88-3.61,3.62-4.96c1.26-0.98,2.8-1.43,4.11-2.27c1.48-0.95,2.98-2,4.44-3.01c1-0.69,1.88-1.62,3.01-2.12
		c0.59-0.26,1.26-0.3,1.83-0.63c2.36-1.38,4.65-2.99,7.34-3.65c1.15-0.28,2.07-0.72,3.19-1.07c1.22-0.37,2.54-0.37,3.71-0.91
		c1.02-0.48,1.98-0.82,3.03-1.13c4.57-1.35,9.18-1.84,13.91-1.79c1.98,0.02,3.21,0.55,5.1,0.98c1.11,0.25,1.88,0.21,2.77,0.9
		c1.14,0.89,4.47,4.64,5.71,3.78c1.37-0.95,0.63-3.73,0.89-5.11c0.32-1.72,0.56-2.71,0.23-4.4c-0.98-5.03-1.02-10.71-0.87-15.82
		c0.08-2.93-0.2-5.42-0.6-8.24c-0.43-3.06-1.21-6.13-1.52-9.17c-0.13-1.28,0.18-2.63,0.01-3.91c-0.05-0.42-0.3-1.01-0.41-1.45
		c-0.36-1.49-0.28-3.02-0.59-4.47c-0.11-0.5-0.5-0.85-0.61-1.32c-0.19-0.86-0.02-1.92-0.02-2.8c-0.01-1.42,0.42-2.56,0.63-3.85
		c0.13-0.78-0.14-1.55,0.14-2.31c0.29-0.78,0.83-1.57,1.17-2.34c0.69-1.58,1.98-3.49,3.54-4.17c0.97-0.42,2.08-1.15,2.98-1.47
		c0.68-0.24,2.24-0.09,3,0c1.43,0.18,1.66,1.15,2.87,1.83c1.54,0.86,3.82,0.9,4.61,2.69"/>
	<path class="st8" d="M9.61,92.53c-0.17,0.56-0.27,1.4-0.15,1.99c0.08,0.38,0.88,1.16,0.64,1.64c-0.76,1.47-3.89-0.62-5-0.65
		c0.32,0.87,1.03,2.18,1.65,2.52c-0.79,0-1.58,0.01-2.37-0.01c0.88,0.41,1.82,0.95,2.83,0.89c-0.61-0.01-2.81-0.26-2.99,0.5
		c-0.18,0.79,1.39,1.05,1.89,1.13c2.04,0.35,4.2-0.2,6.22,0.12c1.54,0.24,2.29,1.82,4.01,2.13c1.03,0.19,2.4,0.37,3.45,0.23
		c-0.57-0.66-0.96-1.35-1.11-2.21c1.77,1.66,4.46,1.3,6.69,1.36c-0.79-0.63-1.79-1.17-2.34-1.99c0.98-0.11,1.99,0.16,2.99,0.09
		c-0.32-1.99-5.61-1.99-3.16-4.31c0.97-0.92,2.61-1.12,3.15-2.31c0.79-1.75,0.43-3.65,2.64-4.61c1.56-0.68,3.2-0.7,4.71-1.53
		c0.24,1.47-0.75,1.88-1.22,2.98c0.66,0.12,1.42-0.09,1.98-0.34c-0.05,1.2-0.6,2.43-0.97,3.48c1.07,0.05,2.14-2.28,2.77-3.06
		c0.55-0.68,0.92-2.03,1.43-2.54c1.47-1.43,5.26-2.68,7.23-2.89c-0.46,2.01-3.34,1.88-4.11,3.48c1.22,0.75,2.84,0.63,4.23,0.63
		c-0.42,0.05-2.64,0.13-2.85,0.47c-0.57,0.97,1.53,1.48,2.17,1.66c-0.62,0.21-1.28,0.28-1.89,0.39c-0.29,1.19,1.78,1.87,2.63,1.99
		c3.09,0.45,4.98-2.76,7.55-3.8c2.54-1.02,6.03-0.23,8.77-0.35c2.48-0.11,6.9,1.29,8.7-0.99c-0.25-0.3-0.6-0.58-0.95-0.75
		c1.57-0.41,4.43-0.39,5.72-1.35c0.26-0.19,0.36-0.77,0.66-0.95c0.69-0.41,2.02,0.03,2.78-0.07c1.14-0.15,2.16-0.75,3.23-1.04
		c-0.38-0.2-0.89-0.37-1.24-0.56c1.02-0.34,1.95-0.89,2.93-1.3c-0.38,0.07-0.8,0-1.17-0.01c-0.08-1.59,3.19-2.15,4.27-2.83
		c1.15-0.71,2.8-1.25,3.17-2.68c0.58,0.48,2.08,1.24,2.89,0.88c0.74-0.33,0.82-1.94,0.88-2.92c0.1-1.95,0.62-5.43-0.93-6.73
		c-0.38-0.32-0.78-0.34-1.16-0.73c-0.69-0.7-0.98-1.89-1.49-2.72c-1.6-2.6-3.04-4.21-3.27-7.43c-0.19-2.66,0.27-5.39-0.01-8.04
		c-0.55-5.15-0.13-10.6-1.22-15.66c-0.78-3.61-1.12-7.59-1.27-11.27c-0.16-3.76-0.64-7.58,1.83-10.77c0.6-0.77,1.93-2.14,2.77-2.72
		c0.67-0.46,1.16-0.49,1.97-0.46c-0.24,0.07-0.58-0.01-0.82-0.02c-0.08-1.86,2.39-1.81,0.24-2.99c1.45-1.88,2.81-2.57,5.18-2.63
		c-2.51-1.22-7.14-3.09-9.8-1.14c-0.69,0.51-1.09,1.47-1.62,2.1C82.82,4.48,82.21,5,81.74,5.68c-1.1,1.62-1.53,3.65-2.14,5.51
		c-1.76,5.36,0.49,11.13,0.75,16.65c0.11,2.27,0.32,4.43,0.52,6.67c0.22,2.37,0.62,4.75,0.85,7.12c0.66,6.76,1.18,13.62,1.24,20.42
		c0.03,2.87,0.49,6.29-0.23,9c-0.7,2.66-1.67,1.12-3.54-0.45c-1.34-1.12-3.32-1.77-4.96-2.37c-2.51-0.92-5.01-1.5-7.72-1.41
		c-2.4,0.08-4.64-0.93-7.08-0.51c-1.37,0.24-2.6,0.96-3.92,1.24c-1.54,0.33-2.97,0.24-4.53,0.78c-1.04,0.36-1.9,0.77-2.91,1.34
		c-1.15,0.65-1.69,0.48-3,0.68c-3.33,0.5-5.21,4.12-8.35,5.12c-0.54,0.17-1.18-0.1-1.74,0.14c-0.58,0.25-0.87,0.89-1.37,1.22
		c-0.37,0.25-1.13,0.39-1.59,0.67c-1.51,0.94-2.82,2.2-4.28,3.19c-1.34,0.91-2.18,2.37-3.5,3.27c-1.09,0.73-2.14,1.59-3.15,2.53
		c-1.67,1.55-3.21,3.07-4.88,4.66c-0.94,0.89-1.28,0.67-2.41,1.14c-0.67,0.28-1.03,0.88-1.64,0.93
		C11.27,93.3,10.61,92.29,9.61,92.53z"/>
	<path class="st9" d="M94.42,16.93c-2.34-0.02-4.46-0.88-6.83-0.73c-0.64,1.2-0.48,2.93-1.02,4.14c-0.4-1.14-0.51-4.61,0.16-5.88
		c0.37-0.71,2.12-2.49,2.83-1.26c0.12-0.19,0.48-0.35,0.6-0.51c0.55,0.21,1.06,1.08,1.42,0.38c0.54-0.1,0.89,0.31,1.1,0.75
		c0.31-0.41,0.64-0.48,1-0.13c0.58-0.57,1.58-0.03,1.85,0.73c0.34,0.97-0.46,1.78-0.73,2.51"/>
	<path class="st10" d="M77.73,87.25c0.92,0.12,2.35-0.59,3.24-0.87C80.73,87,80,87.18,79.62,87.6c1.25,0.08,2.46-0.32,3.68-0.23
		c-1.03-0.03-2.16,0.83-3.19,1.02c-0.04,0.07-0.04,0.14,0,0.21c1.25,0.07,2.55,0.06,3.82,0.01c-0.86,0.91-1.85,1.47-2.92,2.03
		c0.63-0.02,1.33,0.09,1.9-0.16c-0.76,0.47-1.73,1.08-2.04,1.88c0.57,0.07,1.07-0.29,1.45-0.71c-1.04,1.81-2.47,2.91-4.42,3.49
		c-1.1,0.33-2.98,1.09-4.12,0.38c0.39-0.35,0.96-0.67,1.33-0.98c-0.39,0.03-0.83-0.07-1.23-0.04c0.51-0.72,1.32-1.4,1.86-2.15
		c-0.56-0.1-1.25,0.13-1.81-0.01c0.46-0.39,1.2-0.58,1.44-1.06c-0.89-0.06-1.86,0.11-2.74-0.02c-0.53-0.08-0.87-0.4-1.44-0.37
		c1.1-0.22,1.7-1.19,2.54-1.79c0.89-0.64,2.47-0.87,3.13-1.99c-0.05-0.09-0.15-0.07-0.18-0.11c0.54-0.15,1.31-0.68,1.55-0.13"/>
	<path class="st10" d="M60.66,100.91c1.97,0,3.44-0.1,4.73-1.73c-0.74-0.05-1.5-0.06-2.2,0.1c0.5,0.05,0.96-0.14,1.3-0.51
		c-1.31-0.04-3.11,1.16-4.06,1.87c0.22-0.03,0.39,0.12,0.49,0.15"/>
	<path class="st10" d="M58.17,82.36c0.7,0.15,1.26,0.98,1.87,1.39c0.44,0.29,1.27,0.66,1.73,0.85c-0.27-0.29-0.5-0.71-0.59-1.1
		c0.88,0.32,1.45,1.01,2.45,0.85c-0.42-0.28-0.83-0.65-1.18-1c0.74,0,1.44,0.19,2.18,0.15c-1.52-1.02-3.2-2.42-4.48-3.74
		c0.37,0.48,0.67,1.03,0.9,1.58c-0.77-0.16-1.48-0.56-2.24-0.79c0.35,0.42,0.65,0.92,0.98,1.35c-0.51-0.28-0.99-0.7-1.47-0.92
		c0.02,0.65,0.66,1.02,0.84,1.58c-0.44-0.42-0.89-0.86-1.27-1.35c-0.26,0.64,0.04,1.4,0.54,1.88"/>
	<path class="st11" d="M57.75,105.17c3.43-0.33,5.81-2.27,8.33-4.4c-0.02,0.21,0.11,0.5,0.11,0.71c1.14,0.5,4.22-2.74,5.28-3.44
		c-0.04,0.32,0.16,0.74,0.13,1.06c2.18,0.07,3.4-2.51,5.6-2.36c0.03,0.28,0.1,0.75,0.1,0.97c-1.39,1.1-3.64,1.76-5.23,2.59
		c-1.69,0.88-3.38,2-5.02,2.88c-2.33,1.25-4.31,2.76-6.63,4.08c-1.63,0.93-4.18,1.03-6.02,0.86c1.27-0.68,2.71-0.95,3.92-1.76
		c-0.87,0.09-2.02,0.32-2.84,0.18c1.09-0.62,2.35-0.84,3.37-1.48"/>
	<path class="st12" d="M43.1,108.06c-5.02,0-10.43,0.48-15.45,0.13c-2.93-0.21-4.14-3.02-6.7-3.76c1.65,0.02,3.35,0.35,5.04,0.39
		c-0.39-0.3-0.67-0.73-0.92-1.15c1.05,0.08,2.04,0.3,2.94,0.76c-0.09-0.76-0.95-1.25-1.22-1.86c0.49-0.07,0.97,0.12,1.44,0.23
		c-0.45-0.39-0.53-0.93-0.57-1.49c2.6-0.13,5.23,0.03,7.82,0.12c-0.58,1.55,0.49,1.41,1.85,1.36c-0.42,0.17-0.82,0.34-1.2,0.53
		c0.88,0.89,3.06,0.59,4.34,0.62c0.03,0.86,0.14,1.59-0.63,2.11c0.95,0.84,1.21,0.1,1.51,1.63"/>
	<path class="st13" d="M26.82,89.87c-1.09,0.09-2.15,0.84-3.39,0.87c-0.67,0.02-1.58-0.24-2.17-0.08c0.85,0.5,2.27,0.2,3.17,0.79
		c-0.23,0.77-1.22,1.21-1.92,1.44c0.76,0.1,1.5,0.34,2.2-0.03c-0.28,0.23-0.53,0.53-0.84,0.71c0.5,0.18,1.05,0.14,1.56,0.13
		c-0.25,0.08-0.46,0.31-0.67,0.41c0.99,0.63,4.96-0.58,5.8-1.4c-0.64-0.28-1.61,0.1-2.38,0.01c0.58-0.75,1.61-1.09,2.09-1.8
		c-0.84-0.33-2.14-0.04-3.06-0.11c0.66-0.16,1.42-0.61,1.65-1.26c-0.77,0.16-1.5,0.56-2.26,0.79c-0.21-0.09,0-0.14-0.07-0.28"/>
	<path class="st13" d="M28.14,96.5c1.09-0.25,2.05-1.16,3.3-1.38c0.68-0.12,1.63,0.01,2.21-0.23c-0.93-0.39-2.32,0.13-3.32-0.33
		c0.12-0.81,1.06-1.41,1.73-1.73c-0.78,0.01-1.56-0.12-2.22,0.35c0.25-0.27,0.46-0.61,0.74-0.84c-0.53-0.11-1.08,0.01-1.6,0.09
		c0.24-0.12,0.42-0.38,0.62-0.51c-1.09-0.49-4.93,1.3-5.66,2.26c0.68,0.19,1.61-0.34,2.41-0.36c-0.48,0.84-1.47,1.33-1.86,2.13
		c0.9,0.21,2.17-0.27,3.11-0.34c-0.64,0.26-1.35,0.82-1.49,1.51c0.75-0.27,1.43-0.79,2.16-1.13c0.23,0.06,0.03,0.14,0.12,0.27"/>
	<path class="st14" d="M33.01,84.74c-0.15,0.54-0.58,0.95-0.89,1.38c0.32,0.18,0.53,0.4,0.95,0.39c-0.62,0.43-1.54,1.58-0.21,1.51
		c-0.23,0.55-0.05,1.1,0.6,1.24c-0.61,0.02-1.21,0.44-1.6,0.86c0.62,0.61,1.94,0.5,2.7,0.16c-0.75,0.45-1.72,0.89-2.3,1.45
		c0.69,0.06,1.41,0.16,2.11,0.17c-0.27,0.38-0.69,0.82-0.99,1.21c0.4-0.03,0.84,0.06,1.24,0.05c-1.27,0.94-5.6,1.79-7.22,1.26
		c0.47-0.12,0.97-0.29,1.23-0.66c-0.36-0.09-0.78-0.25-1.1-0.43c0.43-0.3,0.93-0.67,1.34-1.05c-1.1-0.27-2.58-0.06-3.2-1.25
		c0.52-0.13,0.91-0.48,1.32-0.79c-0.52,0.01-1.16,0.05-1.58-0.09c0.49-0.12,1.05-0.34,1.31-0.76c-0.37,0.04-0.81-0.07-1.18-0.04
		c0.24-0.23,0.59-0.5,0.92-0.71c-0.57-0.16-1.18-0.3-1.58-0.65c0.89-0.59,1.9-0.22,2.85-0.97c-0.53,0.01-1.12-0.22-1.19-0.75
		c0.94-0.3,2.56,0.24,3.27-0.4c-0.35-0.02-0.68-0.17-0.91-0.22c1.3-0.12,2.81-0.42,4.1-0.4"/>
	<path class="st14" d="M32.13,89.88c-0.64,1.53-1.07,1.82-2.36,2.6c0.29-0.04,0.67,0.06,0.97,0.05c-0.38,0.94-1.14,1.26-2.04,1.7
		c0.6,0.27,1.39,0.11,2.05,0.2c-0.33,0.73-0.86,1.33-1.48,1.87c0.66,0.31,1.27-0.57,1.71-0.97c0.06,0.73-0.23,1.39-0.33,2.06
		c1.34-0.74,1.71-2.2,3.35-2.62c1.49-0.39,2.07-0.5,2.94-1.86c-0.41,0.02-0.78-0.12-1.18-0.16c0.16-0.22,0.19-0.53,0.57-0.74
		c-0.81,0.01-1.63,0.02-2.44,0c0.19-0.59,0.67-0.98,1.1-1.34c-0.52-0.04-1.07-0.01-1.6-0.04c0.22-0.28,0.35-0.64,0.69-0.86
		c-0.61,0.01-1.22,0.01-1.82,0.01"/>
	<path class="st14" d="M38.11,93.52c1.2,0.82,3.78,0.46,5.23,0.35c-0.88-0.27-2.08-0.05-3.05-0.12c0.86-0.22,1.9-0.52,2.42-1.27
		c-0.85-0.24-1.91,0.03-2.84,0.06c-0.02-0.03,0,0.34,0,0.34c0.16,0.03,0.29,0.09,0.44,0.15c-0.5,0.05-0.95,0.21-1.46,0.24"/>
	<path class="st14" d="M52.44,93.14c-0.85,0.29-1.95,0.51-2.86,0.53c1.13,0.58,2.51,0.56,3.29-0.38c-0.45,0.1-0.53-0.21-0.68-0.27"
		/>
	<path class="st14" d="M37.49,88.5c1.42,0,2.68,0.06,4.02-0.5c0.78-0.33,1.99-1.02,2.61-1.13c-1.29,0.09-2.28,1.59-3.51,1.89
		c-0.88,0.22-2.2,0.32-3.12,0.24"/>
	<path class="st14" d="M36.12,85.87c1.3-1.71,3.8-3.1,5.95-3.52c-1.33,0.33-2.25,1.43-3.33,2.14c-0.68,0.44-1.54,0.74-2.25,1.13"/>
	<path class="st15" d="M1.49,98.15c1.74,0.51,2.52,1.51,4.33,0.5c-1.29-0.53-2.11-1.47-2.94-2.49c1.23,0.7,3.32,0.48,4.7,0.49
		c-0.79,0.02-1.63-0.62-2.31-0.98c1.81-0.22,3.79,0.6,5.6,0.73c1.2,0.09,2.48,0.04,3.68-0.02c-1.13,0.58-2.61,2.13-3.53,3
		c1.22,0.06,2.41,0.12,3.39-0.71c-0.95,0.38-2.16,1.38-2.7,2.34c1.15,0.22,2.16-0.79,3.15-1.15c-0.84,1.46-1.64,3.24-2.77,4.52
		c-0.91,1.03-2.4,1.53-3.54,2.16c0.04-0.61,0.84-1.08,0.88-1.73c-2.38-0.18-4.76,0.93-7.06-0.05c1.12-0.92,2.9-0.9,3.85-2.08
		c-1.75-0.15-3.71-0.05-5.33-0.91c1.09,0.02,4.9,0.2,3.38-1.15c-0.99-0.88-2.49-0.6-3.29-1.73"/>
	<path class="st16" d="M87.23,4.99c-0.49,0.04-0.83,0.43-0.74,0.93c0.49,0.13,1.04-0.06,1.31-0.46c-0.19-0.11-0.37-0.39-0.48-0.47"
		/>
	<path class="st7" d="M87.79,3.3c-0.39-0.25-0.97,0.27-0.92,0.74c1.21,0.33,0.65-0.62,0.73-1.02"/>
	<path class="st7" d="M87.88,6.78c-0.25,0.34-0.54,0.58-0.55,1.02c1.17,0.11,0.99-0.81,0.45-1.49"/>
	<path class="st7" d="M86.85,4.33c-0.43-0.01-0.72,0.25-0.83,0.64C86.52,5.09,86.96,4.89,86.85,4.33"/>
	<path class="st7" d="M92.65,2.64c-0.37,0-0.74,0-1.11,0.01c-0.05,0.16-0.05,0.47,0,0.63c0.51,0.14,1.01-0.04,0.92-0.65"/>
	<path class="st7" d="M89.38,6.31c0.12,0.02,0.24-0.01,0.36,0.01c0.04,0.38-0.17,0.55-0.53,0.54c-0.07-0.23,0-0.41,0.08-0.55"/>
	<path class="st7" d="M90.12,3.77c0.08,0.06,0.19,0.12,0.25,0.18c0.09-0.05,0.4-0.3,0.48-0.39c-0.29-0.31-0.76-0.49-1.19-0.53
		c-0.02,0.4,0.2,0.71,0.55,0.93"/>
	<path class="st9" d="M94.33,12.23c-0.23,0.14-0.45,0.43-0.55,0.66c0.3,0.1,0.67,0.13,1.01,0.07c-0.03-0.26-0.17-0.56-0.36-0.74"/>
	<path class="st11" d="M73.12,79.45c0.67,0,1.3-0.05,1.91-0.19c-0.27,0.19-0.62,0.4-0.88,0.55c0.48,0.04,0.97,0.03,1.46,0.01
		c-0.45,0.48-0.81,0.81-1.46,0.97c0.34,0.2,0.8,0.19,1.2,0.18c-0.44,0.71-1.37,0.57-2.12,0.53c0.04-0.54,0.47-1.12,1.08-1.02
		c-0.76,0-1.72,0.25-1.47-0.85"/>
	<path class="st12" d="M15,97.59c-0.61-0.01-7.44-0.09-7.2,0.94c0.18,0.79,5.12,0.41,5.81,0.35c-0.43-0.12-0.94-0.14-1.39-0.27
		c-0.15-1.01,2.1-0.72,2.6-0.93"/>
	<path class="st12" d="M12.76,100.31c-1.11-0.12-3.71,0.74-4.01,1.96c1.34,0.51,3.56-0.28,4.78-0.73c-0.35-0.14-1.56,0.13-1.77-0.21
		c-0.36-0.56,0.6-1.06,1.01-1.11"/>
	<path class="st12" d="M15.66,101.07c-0.87,0-5.75,2.52-5.03,3.58c0.56,0.83,4.87-2.2,5.64-2.81c-0.9-0.01-1.53,0.81-2.47,0.72
		c-0.07-0.76,1.3-1.1,1.76-1.58"/>
	<path class="st8" d="M10.89,99.47c-1.59,0-3.19-0.05-4.78,0c-0.89,0.03-2.43,0.14-1.34,1.39c0.74,0.85,4.73,1,5.68,0.39
		c-1.17-0.33-2.73,0.25-3.38-1.11c0.99-0.31,2.61-1.04,3.64-0.86"/>
	<path class="st17" d="M94.12,3.39c-0.29,0.54-0.62,0.66-1.19,0.69c-0.92,0.04-1.21,0.37-0.99,1.55c0.22,1.2,0.98,2.35,1.58,3.33
		c0.56,0.93,1.01,2,1.32,3.07c0.23,0.77,0.27,2,0.14,2.82c-0.08,0.5-0.67,1.41-0.38,1.9c0.2,0.34,0.95,0.33,1.25,0.48
		c0.63,0.31,1.35,0.97,1.96,1.45c0.79,0.62,0.99,1.66,1.19,2.7c0.2,1.05,0.4,2.12,0.58,3.19c0.07,0.39,0.05,0.81,0.12,1.19
		c0.1,0.54,0.29,1.1,0.38,1.68c0.08,0.51,0.05,1.04,0.23,1.52c0.21,0.53,0.81,1.18,1.36,1.19c0.58,0.01,0.69-1.67,0.88-2.25
		c0.61-1.9,1.15-3.85,1.71-5.78c0.49-1.69,0.75-3.65,0.7-5.45c-0.05-1.57-0.13-3.25-1.01-4.5c-0.88-1.25-2.16-1.94-2.99-3.19
		c-0.37-0.56-0.82-0.64-1.25-1.03c-0.41-0.37-0.82-1.07-1.16-1.54c-0.65-0.88-0.8-1.41-1.79-1.88c-0.44-0.21-0.95-0.3-1.37-0.56
		c-0.41-0.25-0.73-0.7-1.08-1.01c-0.01,0.15-0.03,0.34-0.01,0.5"/>
	<path class="st18" d="M91.88,5.09c-0.01-0.66,0.92-0.45,1.29-0.69c0.31-0.2,0.35-0.53,0.77-0.63c0.4-0.09,0.86,0.06,1.22,0.2
		c0.35,0.14,0.57,0.31,0.79,0.63c0.29,0.42,0.32,0.46,0.67,0.75c0.51,0.41,0.99,0.91,1.47,1.32c0.65,0.55,1.07,1.06,1.88,1.55
		c0.98,0.59,1.59,1.6,2.42,2.44c0.52,0.52,1.08,1.01,1.58,1.56c0.58,0.64,0.66,1.29,0.81,2.15c0.35,2.11,0.48,4.67,0.06,6.77
		c-0.41,2.06-0.68,4.5-1.59,6.32c-1.74,0.44-3.57-1.39-4.21-3.03c-0.61-1.57-0.87-3.16-1.48-4.73c-0.22-0.58-0.69-1.5-0.69-1.5
		s-1.22-0.71-1.82-0.99c-0.46-0.21-0.9-0.31-0.76-0.91c0.12-0.54,0.51-0.93,0.59-1.5c0.05-0.42,0.04-0.99,0-1.41
		c-0.05-0.63-0.3-1.18-0.51-1.79c-0.17-0.52-0.21-1.1-0.38-1.6c-0.24-0.71-0.87-1.02-1.23-1.59c-0.13-0.2-0.31-0.64-0.4-0.86
		c-0.29-0.69-0.39-1.6-0.48-2.32"/>
	<path class="st19" d="M99.74,24.51c-0.06,0.94,0.47,1.73,0.5,2.63c0.03,0.93-0.28,1.68,0.34,2.45c0.36,0.44,1.35,0.81,1.87,0.63
		c0.69-0.23,0.73-1.59,0.91-2.23c0.33-1.2,0.76-2.37,1.02-3.6c0.2-0.95,0.24-1.89,0.38-2.84c-0.14,0.63-0.1,1.33-0.33,1.96
		c-0.27,0.72-0.68,1.36-0.87,2.14c-0.76,0.06-1.62,0.91-2.37,0.61c-0.4-0.16-1-0.83-1.27-1.23"/>
	<path class="st20" d="M99.34,9.1c0.07,0.35,0.2,0.76,0.18,1.12c-0.71,0.04-1.43-0.01-2.14,0.02c0.88,1.08,2.47,0.3,3.6,0.87
		c0.75,0.38,1.6,1.4,2.46,1.43c0.13-0.84-1.62-2.36-2.23-2.76c-0.49-0.32-1.22-1.06-1.8-1.05c-0.01,0.14-0.05,0.35-0.01,0.49"/>
	<path class="st21" d="M94.67,11.92c0.52,0.79,2.64,0.44,3.42,0.44c0.65,0,1.4-0.12,2.03,0.01c0.76,0.15,1.09,0.75,1.6,1.21
		c1.15,1.05,1.76,1.52,2.18,2.99c0.29,1,0.18,2.18,0.47,3.12c0.12-2.97,0.56-6.53-2.44-8.2c-0.51-0.28-0.95-0.46-1.48-0.63
		c-0.71-0.23-1.61-0.15-2.28-0.39c-0.68-0.25-0.84-0.77-0.81-1.42c0.2,0.04,0.37-0.07,0.54-0.08c0.27-1.21-1.9-2.88-2.61-3.61
		C94.91,4.95,94.46,4.3,94,4c-0.43-0.28-0.81-0.21-1.33-0.24c-0.28,0.71-0.54,2.09-0.2,2.83c0.16,0.34,0.62,1,0.93,1.19
		c0.33,0.2,0.78,0.03,1.14,0.12c0.77,0.19,1.47,1.1,1.49,1.94c0.04,1.01-0.39,1.16-1.11,1.51c-0.02,0.31-0.01,0.62-0.01,0.93"/>
	<path class="st22" d="M95.3,4.33c0.27-0.01,0.47,0.11,0.49,0.37c-0.43,0.34-0.95,0.01-1.39,0.24c-0.52,0.27-0.52,1.04-0.53,1.58
		c-0.01,1.32,0.99,2.07,0.93,3.45c-1.05-0.02-2.4-3.56-2.05-4.57c0.34-0.98,1.69-0.84,2.49-1.07"/>
	<path class="st23" d="M94.24,5.59c0,0.36-0.06,0.74,0.17,1.02c0.14,0.17,0.76,0.43,1.01,0.24c0.74-0.55-0.51-1.61-1.12-1.32"/>
	<path class="st24" d="M94.64,6.68c0.29,0,0.53,0.05,0.62-0.25c0.09-0.28-0.03-0.66-0.24-0.84c0.42-0.04,0.86,0.49,0.77,0.93
		c-0.08,0.39-0.95,0.56-1.18,0.2"/>
	<path class="st25" d="M94.73,6.15c0.06,0.06,0.11,0.09,0.21,0.06c0.02-0.07,0.02-0.2,0-0.27c-0.06-0.02-0.18-0.02-0.24,0
		C94.69,6.02,94.7,6.1,94.73,6.15"/>
</g>
</svg>
