<!-- Generator: Adobe Illustrator 23.0.4, SVG Export Plug-In  -->
<svg version="1.1" xmlns="http://www.w3.org/2000/svg" xmlns:xlink="http://www.w3.org/1999/xlink" x="0px" y="0px"
	 width="208.29px" height="290.9px" viewBox="0 0 208.29 290.9" style="enable-background:new 0 0 208.29 290.9;"
	 xml:space="preserve">
<style type="text/css">
	.st0{fill:#FBDAD1;}
	.st1{fill:#875151;fill-opacity:0.7;}
	.st2{fill:#FF8429;fill-opacity:0.66;}
	.st3{fill:#FF8429;fill-opacity:0.75;}
	.st4{fill:#776D71;}
	.st5{fill:#A08E8E;}
	.st6{fill:#F9685D;}
	.st7{opacity:0.53;fill:#FF8429;stroke:#000000;stroke-width:0.4015;stroke-miterlimit:10;}
	.st8{fill:#EC7152;fill-opacity:0.5;}
	.st9{fill:#F4BDBD;}
	.st10{fill:#EF7760;fill-opacity:0.69;}
	.st11{fill:#A39393;fill-opacity:0.64;}
	.st12{fill:#F4EFEF;fill-opacity:0.97;}
	.st13{fill:#EAD2B0;fill-opacity:0.95;stroke:#C69C6D;stroke-width:0.4618;stroke-miterlimit:10;}
	.st14{fill:#141010;}
	.st15{fill:#19110E;fill-opacity:0.61;}
	.st16{fill:#050404;}
	.st17{fill:url(#SVGID_1_);}
	.st18{fill:#EC7152;}
	.st19{fill:#9E3F33;fill-opacity:0.56;}
	.st20{fill:none;stroke:#000000;stroke-width:0.25;stroke-miterlimit:10;}
	.st21{fill:url(#SVGID_2_);}
</style>
<defs>
</defs>
<g>
	<path class="st0" d="M102.51,125.28c-1.74,0.98-4.15-1.78-5.72-0.55c-0.63,0.5-0.7,1.4-0.71,2.19
		c-0.22,13.38-0.44,26.76-0.66,40.14c-0.08,4.71-0.17,9.51-1.7,13.98c-0.53,1.56-1.6,3.18-1.8,4.81c0.27,0.33,0.54,0.67,0.82,1
		c-0.99,0.1-0.97,1.51-0.67,2.43c2.37,7.3,3.66,14.93,3.81,22.58c0.09,4.52-0.21,9.09,0.61,13.54c2.61,14.2,0.26,28.86,0.62,43.28
		c0.06,2.21,0.11,4.41,0.17,6.62c0.01,0.24,0.02,0.49,0.14,0.7c0.24,0.4,0.79,0.47,1.26,0.51c5.73,0.42,11.43,1.08,17.1,1.96
		c-2.13-0.97-4.85-2.43-7.14-2.99c3.47-0.55,7.08-0.18,10.35,1.06c-3.12-2.46-7.4-3.45-11.32-2.63c3.54-2.42,8.36-1.53,12.57-0.53
		c-1.15-1.23-2.87-1.79-4.55-2.15c-3.35-0.71-6.85-0.78-10.23-0.19c-0.69,0.12-1.44,0.26-2.07-0.04c-1.05-0.49-1.21-1.85-1.24-2.98
		c-0.24-11.73-0.47-23.46-0.67-35.2c-0.16-9.37-1.1-19.06-1.36-28.43c-0.05-1.73-0.09-3.48,0.29-5.17c0.33-1.47,0.97-2.85,1.26-4.33
		c0.37-1.87,0.15-3.84-0.62-5.58c-0.38-0.85-0.88-1.65-1.16-2.54c-0.32-1.02-0.33-2.1-0.34-3.17c-0.06-6.69-0.11-13.37-0.17-20.06
		c-0.1-12.31,1.74-24.79,3.67-36.96C103.17,125.77,103.25,124.87,102.51,125.28z"/>
	<path class="st1" d="M58.19,187.57c0.01,0.14,0.01,0.3-0.07,0.41c-0.24,0.31-0.73,0-0.97-0.31c-0.71-0.89-1.42-1.77-2.13-2.66
		c-0.93-1.16-1.82-3.16,0.47-2C56.9,183.73,58.06,186.11,58.19,187.57z"/>
	<path class="st1" d="M73.63,215.82c-6.04-9.41-12.68-18.45-19.88-27.06c-2.26-2.71-4.49-5.75-3.68-9.14
		c0.81,2.74,2.24,5.31,4.16,7.46c1.6,1.79,3.52,3.28,5.05,5.12c1.04,1.24,1.88,2.61,2.73,3.98c3.04,4.94,6.09,9.88,9.13,14.82"/>
	<path class="st1" d="M92.98,178.69c-0.54,3.33-1.96,6.61-1.52,9.96c0.24,1.83,1.02,3.54,1.62,5.29c1.76,5.16,1.91,10.68,2.04,16.12
		c0.88-4.46,1.73-9.22-0.01-13.43c-0.28-0.68-0.63-1.4-0.45-2.11c0.18-0.71,1.23-1.19,1.7-0.61c0.24-0.61-0.25-1.26-0.79-1.65
		c-0.54-0.38-1.2-0.66-1.56-1.22c-0.35-0.55-0.12-1.5,0.55-1.53c-0.17-0.43-0.35-0.85-0.52-1.28c1,0.06,1.96,0.56,2.57,1.33
		c-0.65-1.15-1.69-2.09-2.91-2.66c0.5-0.63,1.56-0.75,2.2-0.24c-0.38-0.87-1.26-1.53-2.22-1.66c-0.08-0.7,0.24-1.44,0.81-1.87
		c-1.18-0.74-0.76-2.48-0.3-3.77c1.09-3.08,1.58-6.36,1.46-9.61c-0.07-1.99-0.08-5.36-1.4-6.94c-0.82,1.52-0.53,3.92-0.61,5.6
		C93.47,171.82,93.53,175.32,92.98,178.69z"/>
	<path class="st0" d="M109.94,271.63c-5.03-8.63-10.03-17.27-15.01-25.93c-0.77-1.33-1.53-2.67-2.3-4c-1.15-2-2.29-3.99-3.44-5.99
		c-6.62-11.54-13.41-22.84-20.01-34.4c-2.79-4.9-5.3-9.94-7.52-15.11c-0.8-1.86-1.57-3.79-1.64-5.8c-0.09-2.57,0.95-5.04,1.97-7.41
		c0.88-2.04,1.76-4.08,2.63-6.11c1.25-2.89,2.5-5.8,4.19-8.47c0.98-1.56,2.11-3.03,3.14-4.55c1.39-2.05,2.6-4.2,3.8-6.36
		c4.49-8.11,8.66-16.57,14.82-23.57c0.11,0.06,0.23,0.11,0.34,0.17c-1.52-1.76-4.38-2.79-6.46-1.69c-1.18,0.62-1.89,1.82-2.54,2.95
		c-5.27,9.15-10.54,18.3-15.81,27.45c-1.23,2.13-2.46,4.26-3.88,6.28c-1.59,2.24-3.42,4.32-5.02,6.56
		c-2.36,3.3-4.21,6.92-6.05,10.52c-0.54,1.05-1.09,2.15-1.11,3.32c-0.04,1.61,0.9,3.06,1.82,4.4c2.54,3.69,5.19,7.3,7.96,10.83
		c1.42,1.82,2.88,3.62,4.1,5.57c0.76,1.21,1.42,2.47,1.99,3.77c0.73,1.67,1.84,3.86,2.87,5.37c4.25,6.26,8.25,12.69,12,19.25
		c5.33,9.33,10.13,18.93,14.92,28.53c0.22,0.44,0.43,0.97,0.16,1.38c-0.06,2.03,0.37,3.77,0.59,5.79c0.13,1.21,0.33,2.45,0.91,3.53
		c0.45,0.83,1.11,1.54,1.73,2.26c3.57,4.1,6.23,8.95,7.75,14.12c0.99-1.35,0.06-3.09-0.7-4.58c-1-1.98-1.82-4.06-2.42-6.19
		c0.9,0.47,1.45,1.39,1.91,2.28c2.39,4.55,3.9,9.53,4.44,14.61c1.17-2.85,0.37-6.09-0.74-8.96c-1.11-2.87-2.54-5.72-2.65-8.78
		c4.25,3.3,7.28,8.07,8.41,13.25c1.04-2,0.14-4.4-0.82-6.43C112.81,276.26,111.73,274.7,109.94,271.63z"/>
	<path class="st2" d="M57.42,179.73c0.65,0.29,1.41,0.77,1.31,1.46c-0.03,0.22-0.15,0.43-0.12,0.64c0.08,0.51,0.94,0.72,0.88,1.23
		c-0.04,0.3-0.42,0.55-0.31,0.84c0.07,0.19,0.32,0.26,0.44,0.43c0.16,0.23,0.01,0.57-0.24,0.71c-0.25,0.14-0.55,0.14-0.84,0.14
		c-2.39,0.04-4.77,0.68-6.85,1.84c-0.19-0.47-0.17-1.01,0.07-1.46c-0.44-0.03-0.87-0.05-1.31-0.08c-0.04-0.44-0.08-0.88-0.11-1.31
		c-0.39,0.26-0.98,0.16-1.28-0.2c-0.29-0.36-0.24-0.94,0.11-1.25c0.18-0.16,0.41-0.25,0.58-0.42c0.77-0.84-0.87-2.41-0.02-3.17
		c0.21,0.28,0.68-0.08,0.65-0.42s-0.29-0.63-0.36-0.96c-0.13-0.64,0.65-1.26,1.27-1.02c0.03-0.87,0.05-1.74,0.08-2.61
		c0.26-0.03,0.53-0.05,0.79-0.08c-0.4-0.46-0.63-1.06-0.63-1.66c0-0.14,0.03-0.31,0.17-0.35c0.08-0.02,0.17,0.01,0.25,0.04
		c0.7,0.29,9.66,3.82,5.75,4.96C57.85,177.24,59.06,180.46,57.42,179.73z"/>
	<path class="st3" d="M95.89,194.94c-0.95-0.29-1.89-0.99-2-1.95c0.5-0.02,0.99-0.04,1.49-0.06c0.25-0.68-0.59-1.2-1.15-1.67
		c-0.68-0.58-1.07-1.47-1.02-2.35c0.41-0.12,0.85-0.13,1.26-0.03c-0.82-0.59-1.38-1.51-1.53-2.49c0.44-0.07,0.91-0.01,1.32,0.16
		c-0.4-0.56-0.52-1.29-0.32-1.95c2.58,1.41,5.16,2.83,7.75,4.24c-0.11,0.43-1.01,0.21-1.11,0.64c-0.07,0.33,0.41,0.46,0.67,0.68
		c0.43,0.36,0.09,1.2-0.48,1.18c0.33,0.38,0.65,0.82,0.66,1.32c0.01,0.47-0.41,0.84-0.83,0.99
		C103.68,197.36,97.6,195.47,95.89,194.94z"/>
	<path class="st4" d="M91.82,124.08c2.06-0.41,3.88-1.85,4.71-3.73c-0.27-0.32-0.85,0.2-0.63,0.56c0.22,0.35,0.81,0.3,1.11,0.01
		s0.39-0.73,0.47-1.14c0.25,0.32,0.49,0.64,0.74,0.96c0.2-0.61,0.41-1.22,0.61-1.83c0.95,1.89,3.89,1.53,5.72,0.4
		c1.82-1.14,3.57-2.82,5.73-2.7c1.15,0.06,2.27,0.64,3.39,0.43c1.04-0.19,1.95-1.05,3-0.9c0.49,0.07,0.91,0.34,1.37,0.51
		c0.92,0.34,1.95,0.24,2.92,0.05c3.51-0.68,6.8-2.45,9.26-4.99c0.34-0.35,0.71-0.74,1.2-0.83c0.49-0.09,1.09,0.35,0.92,0.81
		c0.51-1.64,1.53-3.65,3.29-3.47c1.72,0.18,2.55,2.44,4.26,2.73c0.46,0.08,0.93,0,1.39,0.09c0.64,0.12,1.16,0.53,1.69,0.89
		c1.84,1.26,4.11,2.08,6.33,1.74c1.02-0.15,2-0.54,3.03-0.52c0.75,0.01,1.47,0.24,2.18,0.45c3.52,1.04,7.16,1.69,10.83,1.96
		c-1.02,0.5-2.3,0.35-3.28,0.92c-12.95,7.56-27.02,4.63-39.97,1.25c-3.76-0.98-6.69,3.16-10.67,3.21c-2.81,0.04-4.04,0.16-5.79,2.38
		c-1.37,1.75-2.32,3.65-4.84,4.01C97.2,127.84,95.3,123.38,91.82,124.08z"/>
	<path class="st5" d="M83.02,119.62c0.01,1.31,0.92,2.71,2.26,2.82c0.04,0.72-0.94,0.97-1.67,1.11c-0.73,0.14-1.58,0.9-1.07,1.42
		c-8.82-1.14-17.34-4.42-24.57-9.46c0.34,1.42-1.86,2.21-3.22,1.6c-1.36-0.62-2.3-1.92-3.69-2.48c-2.08-0.84-4.41,0.21-6.4,1.23
		c-5.79,2.99-11.58,5.97-17.37,8.96c0.87-1.44,2.1-2.68,3.57-3.55c-1.58-0.16-3.23,0.34-4.43,1.36c1.87-1.83,3.73-3.65,5.6-5.48
		c-7.71,1.93-14.67,6.58-19.29,12.89c-0.26-1.44-0.25-2.92,0.02-4.36c-0.44,0.32-0.87,0.64-1.31,0.96
		c0.4-5.58,5.48-10.49,11.23-10.84c-0.79,0.71-1.57,1.42-2.36,2.12c1.69-0.31,3.37-0.61,5.06-0.92c-0.48,0.37-0.96,0.74-1.44,1.11
		c2.04-1.5,4.09-3.01,6.13-4.51c-1.08,0.1-2.16,0.2-3.24,0.3c2.87-0.82,5.9-1.07,8.87-0.75c1.74,0.19,3.5,0.58,5.23,0.29
		c3.22-0.54,5.85-3.34,9.12-3.26c-0.49,0-0.97,0-1.46,0c1.47-0.83,3.4-0.83,4.88,0c0.19-0.7,0.37-1.41,0.56-2.11
		c-0.6,1.16,0.67,2.63,2,2.54c1.33-0.09,2.35-1.34,2.51-2.62c0.16,0.87,0.76,1.65,1.58,2.05c0.36-0.9,0.98-1.71,1.78-2.29
		c-0.3,1.37,1.19,2.61,2.63,2.68c1.44,0.07,2.79-0.64,4.08-1.26c1.29-0.63,2.74-1.2,4.15-0.86c-0.19,0.91-0.59,1.78-1.17,2.52
		c0.9,0.12,0.61,1.56-0.17,2.01s-1.85,0.58-2.29,1.35c1.05,0.52,2.41,0.4,3.33-0.31c-0.19,0.57-0.38,1.13-0.56,1.7
		c2.01-0.17,3.81-1.73,4.23-3.65c-0.52-0.15-1.04-0.3-1.56-0.45c0.18-0.85,0.69-1.62,1.4-2.14c-0.24-0.35-0.48-0.7-0.73-1.05
		c1.09-0.59,2.34-0.91,3.59-0.93c-0.34,2.38-0.21,4.82,0.37,7.15c0.18-0.42,0.6,0.29,0.71,0.73c0.42,1.77,3.41,0.22,4.47,0.68
		C83.76,117.05,83.01,118.24,83.02,119.62z"/>
	<path class="st6" d="M60.78,96.41c-1.26,2.86-1.74,6.04-1.36,9.13c-0.78-0.62-1.55-1.25-2.33-1.87c0.01,2.73,3.15,5.4,1.67,7.72
		c-0.79,0.82-2.26,0.63-3.13-0.11c-0.87-0.74-1.29-1.85-1.65-2.91c-0.39,1.32-1.53,2.41-2.9,2.76c-0.03-1.84-0.07-3.67-0.1-5.51
		c-0.36,0.41-0.72,0.81-1.08,1.22c0.14-1.29,0.28-2.58,0.43-3.86c-0.36,0.28-0.72,0.57-1.08,0.85c0.17-0.51,0.35-1.02,0.52-1.53
		c-0.26,0.42-0.53,0.84-0.79,1.26c0.14-0.55,0.27-1.09,0.41-1.64c-0.07,0.52-0.7,0.88-1.2,0.7c1.83-2.42,2.85-5.41,2.88-8.42
		c-2.39,3.7-3.86,7.96-4.26,12.31c-1.27-0.68-2.09-2.07-2.07-3.48c-0.88,2.06-1.38,4.27-1.45,6.5c-0.83-2.31-1.16-4.78-0.97-7.22
		c-0.44,2.38-1.11,4.71-1.99,6.97c-0.54-2.98-0.27-6.08,0.77-8.93c-0.92,1.22-1.84,2.45-2.76,3.67c0.24-1.18,0.49-2.35,0.73-3.53
		c-0.96,0.73-2.02,1.33-3.15,1.78c-0.08-0.65,0.15-1.34,0.62-1.82c-1.12,0.68-2.23,1.36-3.35,2.04c-0.02-0.43-0.04-0.86-0.06-1.29
		c-2.31,1.77-4.79,3.33-7.4,4.65c1.07-1.82,2.15-3.63,3.22-5.45c-2.75,2.79-6.69,4.43-10.66,4.43c1.32-0.27,2.64-0.53,3.96-0.8
		c-3.58,1.38-6.83,3.54-9.44,6.28c2.1-1.5,4.36-2.79,6.74-3.84c-6.31,5.09-12.14,10.76-17.39,16.89c1.77-2.98,4.29-5.54,7.27-7.4
		c-2.4,2.83-4.87,5.77-5.93,9.29c1.84-2.9,4.11-5.53,6.73-7.79c-1.19,1.53-2.39,3.05-3.58,4.58c2.86-2.85,6.08-5.36,9.56-7.47
		c-1.1,1.53-2.21,3.06-3.31,4.59c1.88-1.76,4.15-3.11,6.61-3.93c-2.37,2.71-4.75,5.42-7.12,8.13c1.93-2.26,3.99-4.4,6.19-6.41
		c-0.32,0.89-0.63,1.78-0.95,2.67c0.7-0.92,1.63-1.66,2.69-2.15c-0.66,1.36-1.44,2.66-2.33,3.9c1.52-2.42,3.66-4.38,5.79-6.32
		c2.26-2.06,4.51-4.12,6.77-6.18c-0.49-0.17-1.09,0.02-1.38,0.45c1.35-1.65,2.92-3.13,4.66-4.39c-0.66,0.98-1.13,2.07-1.37,3.22
		c1.06-0.77,2.13-1.54,3.19-2.31c-0.11,0.64-0.21,1.29-0.32,1.93c0.57-0.27,1.13-0.53,1.7-0.8c0.01,0.45,0.02,0.89,0.03,1.34
		c2.02-0.27,4.12,1.28,4.38,3.25c1.11-0.52,2.14-1.19,3.06-1.98c-0.27,0.91-0.55,1.82-0.82,2.73c0.76-1.18,1.63-2.3,2.6-3.33
		c0.97,0.6,1.94,1.2,2.92,1.8c1.03,0.64,2.1,1.29,3.3,1.48c1.05,0.17,2.19-0.01,3.15,0.43c0.56,0.26,1.02,0.71,1.61,0.9
		c1.06,0.34,2.18-0.24,3.13-0.8c1.3-0.76,2.6-1.52,3.9-2.29c-1.01-0.15-1.58-1.3-1.45-2.28c0.24-0.94,0.64-1.76,1.28-2.51
		c-0.42,0.56-0.97,1.05-1.45,1.56c0.2-1.59-1.52-1.28-2.08-2.42C59.67,103.09,60.72,98.46,60.78,96.41z"/>
	<path class="st7" d="M189.67,6.41c-3.92-5.47-11.86-7.45-18.4-5.44c-6.54,2.01-11.61,7.43-14.16,13.62
		c-2.56,6.19-2.85,13.08-2.06,19.7c0.89,7.45,3.1,14.75,6.51,21.48c3.33,6.57,7.79,12.6,10.53,19.42c1.54,3.81,2.52,7.83,2.9,11.91
		c0.36,3.84,0.16,7.88-1.71,11.27c-1.87,3.4-5.74,5.97-9.67,5.43c-5.36-0.74-8.27-6.36-10.07-11.32
		c-2.62-7.21-5.07-14.97-11.05-19.94c-6.99-5.81-17-6.32-26.19-6.23c-5.72,0.05-11.46,0.23-17.09,1.23
		c-11.11,1.97-21.74,7.09-33.03,6.72c0.1,1.56,0.92,3.07,2.19,4.02c-8.71-0.09-15.05,8.49-23.59,10.19
		c-0.59,0.12-1.25,0.24-1.6,0.71c-0.35,0.48,0.04,1.37,0.61,1.19c-1.37,0.21-2.74,0.42-4.1,0.63c-1.25,3-3.63,5.55-6.58,7.05
		c-2.67,1.36-5.55,2.6-8.06,4.23c-1.96,1.28-4.33,1.95-6.68,1.89c1.26,0.87,2.9,1.19,4.4,0.86c-1.04,0.81-1.95,1.77-2.71,2.84
		c2.68-1.15,5.07-2.92,6.93-5.11c0.03,0.8,0.05,1.59,0.08,2.39c2.12-1.13,4.14-2.44,6.03-3.91c0.16,0.93,0.02,1.91-0.39,2.76
		c1.48-0.5,2.83-1.36,3.9-2.48c0.6,0.46,1.27,0.82,1.99,1.05c0.85-0.63,1.7-1.26,2.55-1.89c-0.96,2.82-1.27,5.85-0.92,8.8
		c0.36-1.98,1.11-3.89,2.2-5.6c-0.06,1.79,0.58,3.6,1.78,4.96c-0.13-1.04,0.11-2.12,0.68-3.01c-0.23,0.65,0.28,1.43,0.98,1.51
		c0.87-5.4,3.12-10.58,6.49-14.95c-1.03,1.3-0.97,3.09-1.06,4.74c-0.09,1.64-0.56,3.52-2.08,4.22c1.09-0.11,2.14-0.47,3.07-1.03
		c-0.09,4.46,2.07,8.91,5.67,11.69c-0.61-1.31-0.89-2.75-0.82-4.19c0.45,0.05,0.91,0.1,1.36,0.16c0.24-0.75,0.31-1.55,0.2-2.32
		c0.63,0.99,1.48,1.85,2.47,2.5c-0.6-0.98-1.2-1.96-1.81-2.94c0.64,0.16,1.28,0.33,1.92,0.49c-0.41-0.75-0.82-1.5-1.23-2.25
		c0.15,0.38,0.63,0.62,1.04,0.51c-0.72-1.59-0.52-3.55,0.51-4.97c1.46,1.71,1.3,4.52-0.35,6.07c0.58,0.58,1.78,0.29,2.01-0.49
		c0.11,0.66-0.02,1.36-0.38,1.94c1.44-0.48,2.61-1.64,3.08-3.05c0.17,0.63,0.34,1.26,0.51,1.88c0.48-0.33,0.95-0.65,1.43-0.98
		c-0.93,1.82-2.84,3.14-4.92,3.38c0.2,0.84,1.39,1.28,2.11,0.78c-0.47,0.45-0.95,0.89-1.42,1.34c2.33,0.64,5.01-0.24,6.46-2.12
		c0.13,0.5,0.26,0.99,0.39,1.49c1.27-0.98,2.55-1.95,3.82-2.93c0.24,2.77-1.54,5.6-4.18,6.66c0.5,0.53,1.18,0.9,1.91,1.02
		c-0.4,0.34-0.81,0.69-1.21,1.03c0.65,2.03,3.55,2.31,5.63,1.65c2.08-0.66,4.16-1.86,6.3-1.42c1.21,0.25,2.25,1.02,3.43,1.37
		c1.19,0.35,2.77,0.09,3.19-1.05c0.37,0.33,0.33,0.98-0.07,1.27c1.03-0.11,2.03-0.48,2.87-1.08c-0.31,0.71,0.64,1.56,1.34,1.2
		c-0.29,0.5-0.78,0.83-1.07,1.32c1.32,0.19,2.69,0.04,3.94-0.43c-0.19,0.45-0.38,0.91-0.57,1.36c1.23-0.1,2.47-0.21,3.7-0.33
		c-0.78,0.26-0.76,1.48-0.09,1.94c0.67,0.46,1.62,0.29,2.33-0.12c0.71-0.41,1.27-1.02,1.93-1.49c2.47-1.76,5.87-1.34,8.88-0.83
		c0.55,0.09,1.1,0.18,1.65,0.27c0.9,0.15,1.82,0.3,2.73,0.24c1.65-0.1,3.17-0.86,4.6-1.67c2.82-1.59,5.5-3.41,8.01-5.43
		c1.17-0.95,2.66-2.01,4.08-1.46c0.53,0.21,0.95,0.62,1.41,0.95c1.19,0.86,2.68,1.2,4.13,1.52c10.94,2.42,22.5,4.83,33.22,1.6
		c4.72-1.42,8.01-5.62,10.56-9.74c2.85-4.61,3.37-10.31,2.54-15.63c-0.83-5.32-2.91-10.37-4.97-15.36
		c-1.28-3.11-2.57-6.23-4.02-9.27c-3.67-7.71-8.4-14.99-11.09-23.07s-3.06-17.47,1.72-24.59c6.04,3.39,13.2,4.86,20.14,4.11
		c-0.71-2.19-1.89-4.19-3.55-5.83c-0.37-0.37-0.78-0.74-0.93-1.23c-0.21-0.67,0.1-1.39,0.45-2c0.08-0.15,0.17-0.3,0.18-0.47
		c0.01-0.44-0.54-0.69-0.98-0.65c-0.45,0.04-0.87,0.25-1.32,0.23c-0.88-0.03-1.5-0.94-1.54-1.8c-0.07-1.22,0.78-2.43,1.98-2.82
		c1.19-0.39,2.62,0.08,3.33,1.09c0.33,0.47,0.59,1.09,1.16,1.2c0.39,0.08,0.78-0.13,1.12-0.34C188.24,7.68,188.64,7.02,189.67,6.41z
		"/>
	<path class="st8" d="M70.77,93.1c-1.54,2.57-1.8,5.65-2.02,8.61c-0.88-1.1-1.43-2.44-1.56-3.83c-0.42,2.64-0.85,5.27-1.27,7.91
		c-0.6-0.21-1.1-0.66-1.35-1.23c-0.82,0.86-1.65,1.72-2.47,2.58c-0.62-3.65-0.59-7.41,0.11-11.05c-1.49,1.2-2.31,3.15-2.09,5.02
		c-0.21-3.05-0.42-6.1-0.63-9.15c-1.02,4.72-0.75,9.7,0.77,14.29c-0.51-0.72-1.01-1.45-1.52-2.17c0.07,1.26,0.39,2.5,0.95,3.63
		c-0.56-0.79-1.01-1.65-1.32-2.56c-0.07,1.56-0.14,3.12-0.21,4.69c-0.02,0.5-0.08,1.06-0.48,1.38c-0.86,0.68-1.98-0.49-2.38-1.49
		c-1.47-3.69-2.08-7.69-1.78-11.64c-0.74,0.73-1.48,1.45-2.22,2.18c0.08-1.29,0.16-2.57,0.24-3.86c-0.14,0.47-0.54,0.86-1.02,1
		c0.12-2.61,0.87-5.2,2.17-7.49c-2.8,5-4.7,10.47-5.59,16.1c-0.4-0.57-0.8-1.15-1.19-1.72c-0.93,1.5-1.86,3-2.79,4.5
		c-0.14-0.78-0.27-1.55-0.41-2.33c-0.07,1.15-0.47,2.28-1.13,3.24c0.05-2.1,0.1-4.2,0.15-6.3c-0.67,2.28-1.49,4.52-2.44,6.7
		c-0.44-3.33,0.09-6.78,1.5-9.84c-0.83,0.88-1.8,1.63-2.87,2.2c0.51-0.84,0.82-1.79,0.89-2.76c-0.79,0.09-1.58,0.18-2.36,0.27
		c2.58-3.76,5.82-7.09,9.54-9.8c-1.06-0.07-2.14,0.26-2.98,0.9c4.86-4.55,11.17-7.29,17.34-9.94c6.23-2.67,12.55-5.38,19.29-6.39
		c6.79-1.03,13.93-0.33,20.38-2.64c-5.35,1.92-10.06,7.41-14.78,10.53C80.5,85.81,73.78,88.07,70.77,93.1z"/>
	<path class="st8" d="M144.67,86.66c-0.77,4.26-4.36,7.92-8.71,8.85c-1.1,0.24-2.28,0.33-3.22,0.94c-2.4,1.56-1.69,5.2-3.03,7.68
		c-0.46,0.86-1.19,1.58-2.07,2.06c-0.72,0.39-1.54,0.61-2.21,1.07c-0.82,0.56-1.35,1.42-2,2.16c-1.95,2.2-5.17,3.27-8.09,2.68
		c2.34-1.42,4.48-3.14,6.35-5.11c-1.84,0.49-3.87,0.27-5.55-0.61c1.37-0.32,2.74-0.64,4.1-0.97c-1.25,0.17-2.57-0.4-3.29-1.41
		c2.99,0.73,6.33-0.07,8.64-2.06c-11.47-0.23-22.56-6.95-27.82-16.86c4.64,3.04,9.28,6.09,13.93,9.13c1.86,1.22,3.88,2.49,6.13,2.47
		c-5.19-3.59-10.58-7.4-13.45-12.93c2.46,1.82,4.93,3.63,7.39,5.45c-0.84-1.42-1.69-2.83-2.53-4.25c3.55,4.29,9.08,6.97,14.74,7.14
		c-3.96-1.46-7.2-4.64-8.66-8.5c3.07,2.82,6.78,4.97,10.79,6.25c-2.89-1.86-5.07-4.75-6-8c1.09,0.8,2.17,1.59,3.26,2.39
		c-0.9-1.22-1.81-2.44-2.71-3.66c4.53,2.87,9.64,4.88,14.95,5.89c-1.34-0.15-2.63-0.7-3.66-1.54c1.44-0.28,2.74-1.16,3.51-2.38
		c-0.73-0.03-1.45-0.05-2.18-0.08c1.01-0.55,1.87-1.37,2.47-2.33c-0.85,0.03-1.69-0.52-1.98-1.3c0.98,0.45,2.07-0.8,1.81-1.83
		s-1.28-1.69-2.27-2.12c0.49-1.21,2.09-1.69,3.4-1.39C141.94,74.7,145.53,81.86,144.67,86.66z"/>
	<path class="st9" d="M182.38,4.32c-1.66-0.79-3.63-1.51-5.29-0.73c-1.66,0.77-2.35,2.9-1.8,4.61s2.1,2.98,3.81,3.65
		c1.71,0.67,3.58,0.83,5.42,0.93c0.34,0.02,0.76,0,0.93-0.29c0.2-0.34-0.13-0.76-0.47-0.97c-1.04-0.66-2.37-0.68-3.53-1.13
		s-2.18-1.79-1.52-2.81c0.52-0.8,1.68-0.84,2.65-0.8c0.39,0.02,0.81,0.05,1.1,0.31c0.55,0.48,0.25,1.39,0.57,2.03
		c0.78,1.57,3.93,1.58,3.3-0.52C186.99,6.72,184.02,5.11,182.38,4.32z"/>
	<path class="st10" d="M197.73,35.44c-0.45-1.63-0.91-3.26-1.36-4.89c-0.22-0.8-0.49-1.67-1.18-2.16c-0.7-0.49-1.67-0.48-2.41-0.92
		c-1.99-1.19-1.26-4.91-3.48-5.65c-0.99-0.33-2.05,0.18-3.07,0.43c-2.21,0.54-4.52-0.17-6.66-0.93c-2.77-0.97-5.52-2.02-8.23-3.14
		c-0.72-0.3-1.49-0.61-2.26-0.47c-0.43,0.08-0.83,0.29-1.19,0.52c-3.19,2.03-4.83,5.82-5.08,9.51s0.71,7.36,1.74,10.92
		c1.04,3.61,2.18,7.22,3.92,10.58c2.16,4.18,5.21,7.9,7.11,12.2c1.29,2.91,2.03,6.03,3.33,8.94c0.93,2.06,2.13,4,3.07,6.05
		c3.87,8.42,3.12,18.19,0.76,27.12c-0.55,2.08-1.21,4.2-2.55,5.91c-1.5,1.92-3.7,3.17-5.85,4.36c0,0.22-0.62-0.55-0.62-0.33
		c-3.47,0.7-9.44,0.55-12.11,2.82c-8.48,7.19-53.61,8.38-56.91,5.92c-1.14-0.85-1.38,2.43-2.18,3.59c-0.8,1.15-2.31,2.1-3.62,1.54
		c-1.32-0.56-1.63-2.26-2.67-3.25c-1.27-1.21-3.68-0.93-4.62,0.54c-1.94-2.87-6.98-2.94-9.01-0.12c-3.71,1.33-7.83,0.1-11.38-1.6
		c-3.55-1.7-6.71-4.1-10.23-5.87c-0.87-0.44-1.89-0.85-2.81-0.51c-0.47,0.17-0.85,0.52-1.32,0.69c-1.63,0.61-3.12-1.04-4.58-1.97
		c-3.03-1.93-7.13-0.81-10.26,0.98c-3.12,1.79-5.98,4.22-9.52,4.98c-1.36,0.29-2.85,0.35-3.96,1.18c-0.66,0.49-1.1,1.2-1.64,1.81
		c-1.74,1.97-4.41,2.87-6.95,3.69c0.75-1.52,1.68-2.95,2.76-4.26c-0.84,0.61-1.89,0.95-2.94,0.96c0.86-2.41,2.82-4.44,5.24-5.42
		c-4.72,0.97-8.87,4.28-10.76,8.6c-0.57,1.3-1.09,2.83-2.42,3.4c-0.67-2.16-0.59-4.54,0.23-6.65c-0.59-0.02-1.17-0.04-1.76-0.06
		c2.01-2.77,4.3-5.36,6.8-7.73c-2.49,1.26-4.99,2.52-7.48,3.78c-1.32,0.66-2.75,1.45-3.22,2.82c0.36-0.72,0.71-1.44,1.07-2.16
		c-1.34,0.99-2.47,2.26-3.28,3.7c0.2-0.86,0.39-1.71,0.59-2.57c-1.67,1.1-3.12,2.53-4.24,4.16c0.2-1.75,0.9-3.44,2-4.83
		c-0.58,0.43-1.41,0.53-2.08,0.24c0.92-1.45,2.16-2.71,3.61-3.68c0.06,0.29,0.11,0.59,0.17,0.88c2.53-3.14,5.55-5.91,8.93-8.18
		c-1.09,0.71-2.17,1.41-3.26,2.12c2.95-3.56,6.95-6.3,11.39-7.8c-1.2-0.02-2.4-0.03-3.6-0.05c7.57-3.95,15.14-7.89,22.7-11.84
		c-0.45,0.04-0.87-0.42-0.78-0.86c0.59-0.83,1.51-1.42,2.53-1.64c0.45-0.09,0.91-0.12,1.34-0.27c0.54-0.19,1.34-0.39,1.4-0.94
		c1.04-8.93,13.3-10.06,25.5-16.51c17.28-9.14,37.62-11.3,50.55-6.71c6.62-0.73,13.57,1.34,19.17,4.84
		c5.6,3.5,9.91,8.92,11.98,15.07c1.54,4.58,2.04,9.83,5.57,13.22c2.27,2.18,5.46,3.2,8.56,3.93c6.49-3.9,9.6-12.21,8.6-19.56
		c-1-7.35-4.74-14.04-8.21-20.64c-4.98-9.48-9.6-19.44-10.39-30.06c-0.43-5.71,1.3-11.39,3.41-16.73
		c2.15-5.43,5.33-10.73,10.32-13.96c1.65-1.07,3.52-1.9,5.5-2.08c2.77-0.25,5.49,0.78,7.97,2.01c7.11,3.53,13.14,8.77,19.08,13.95
		c1.22,1.06,2.46,2.15,3.26,3.53c0.95,1.64,1.23,3.56,1.47,5.43c-0.64,0.47-1.29,0.95-1.93,1.42c-0.05,0.39-0.09,0.78-0.14,1.17
		c-0.03-3.88-2.65-7.42-5.98-9.55c-3.33-2.14-7.31-3.1-11.24-3.8c0.81,2.16,3.8,2.3,6.06,2.99c2.86,0.87,5.1,3.14,6.46,5.73
		s1.95,5.5,2.39,8.38c-0.32-0.42-1.07-0.16-1.33,0.3c-0.26,0.46-0.24,1.02-0.4,1.53C200.8,34.65,198.87,35.8,197.73,35.44z"/>
	<path class="st11" d="M173.25,19.22c-1.93-0.71-4.2-1.45-5.93-0.37c-1.3,0.82-1.83,2.43-3.01,3.41c-0.27-2.2,1.8-4.02,2.19-6.21
		c0.41-2.3-1.08-4.67-0.49-6.93c2.83,6.1,9.4,10.39,16.28,10.62c0.75,0.03,4.44-0.22,4.83,0.62c0.64,1.4-2.02,1.33-2.74,1.32
		C180.56,21.63,176.8,20.52,173.25,19.22z"/>
	<path class="st12" d="M184.56,12.1c-0.9,0.12-1.93,0.2-2.59-0.4c-0.37-0.33-0.57-0.84-1.01-1.07c-0.49-0.26-1.11-0.09-1.64-0.27
		c-0.83-0.28-1.13-1.35-0.83-2.15c0.3-0.8,1.02-1.38,1.75-1.86c1.64-1.09,6.03,0.85,5.26,2.55C185.19,9.59,185.4,11.99,184.56,12.1z
		"/>
	<path class="st12" d="M182.28,7.4c0.73,0.17,1.58,0.44,1.79,1.14c0.17,0.58-0.22,1.21-0.75,1.51c-0.54,0.3-1.18,0.35-1.8,0.36
		c-0.57,0.01-1.23-0.05-1.58-0.49c-0.39-0.49-0.18-1.23,0.21-1.72c0.59-0.74,1.57-1.17,2.53-1.11"/>
	<path class="st13" d="M182.74,7.45c0.7,0.68,0.34,2.06-0.61,2.33c-0.95,0.28-2.03-0.68-1.82-1.63s1.58-1.41,2.34-0.79"/>
	<path class="st12" d="M184.72,19.05c0.82,0.71,1.94,1.01,2.78,1.7c0.76,0.63,1.66,2.35,2.68,3.74c1.02,1.4,2.17,2.48,2.52,2.72
		c2.41,1.63,4.2,4.1,4.97,6.85c0.19,0.67,0.42,1.47,1.1,1.66c0.79,0.23,1.51-0.56,1.79-1.32s0.42-1.64,1.08-2.12
		c0.35-0.26,0.81-0.37,1.09-0.7c0.22-0.25,0.29-0.58,0.35-0.9c0.76-4.22-1.18-9.01-5.15-10.88c-1.93-0.91-4.15-1.1-6.06-2.05
		c-0.35-0.18-0.75-0.49-0.65-0.86c0.05-0.19,0.22-0.33,0.39-0.44c1.27-0.79,2.95-0.39,4.32,0.23c4.63,2.08,8.11,6.44,9.04,11.32
		c0.9-0.16,1-1.36,0.89-2.24c0.48-0.1,1,0.02,1.39,0.31c0.88-2.06-0.45-4.35-1.88-6.09c-3.5-4.26-7.91-7.72-12.28-11.13
		c-0.92-0.72-1.93-1.47-3.11-1.46c-1.51,0.01-3.18,1.23-4.35,0.31c-0.33-0.26-0.53-0.65-0.79-0.98c-1.23-1.55-4.09-1.39-5.12,0.3
		c1.27-0.65,2.89-0.92,4.13-0.19c3.35,1.95-0.76,3.56-1.22,5.08C182.13,13.55,183.42,17.93,184.72,19.05z"/>
	<path class="st12" d="M181.85,11.67c2.81,1.44,1.2,6.28,3.71,8.18c0.81,0.61,1.9,0.77,2.75,1.32c2.1,1.34,2.23,4.57,4.39,5.83
		c0.7,0.41,1.55,0.56,2.15,1.09c0.43,0.38,0.69,0.91,0.93,1.43c1.83,3.99,3.33,8.12,4.49,12.33c0.46,1.68,0.54,3.2,1.24,4.8
		c0.1,0.23,0.21,0.47,0.4,0.63c0.84,0.72,2.01-0.42,2.46-1.42c1.99-4.49,2.88-9.37,3.55-14.21c0.37-2.68,0.67-5.48-0.21-8.04
		c-0.84-2.43-2.65-4.41-4.41-6.32c-1.03-1.11-2.34-2.33-3.86-2.1c0.53,0.97,1.07,1.95,1.6,2.92c-0.86,0.4-1.89-0.02-2.63-0.6
		c-0.74-0.58-1.36-1.34-2.22-1.73c-1.41-0.65-3.25-0.22-4.48-1.17c-0.43-0.33-0.75-0.81-1.24-1.06c-1.21-0.6-3.17,0.34-3.8-0.84
		c-0.21-0.39-0.14-0.9-0.41-1.25C185.39,10.28,182.97,12.65,181.85,11.67z"/>
	<path class="st14" d="M206.24,40.01c-0.08,1.53-0.15,3.08-0.71,4.51c-0.56,1.43-1.71,2.73-3.25,3.06
		c-1.28-3.87-2.56-7.75-3.84-11.62c-2.13-2.51,3.5-3.01,3.55-4.36c1.82-2.33,1.77-5.74,0.3-8.3s-4.16-4.3-7.04-5.18
		c-2.3-0.7-4.9-0.98-6.63-2.61c7.53-0.15,14.78,5.34,16.46,12.48c-0.12-0.52,1.05-2.15,0.86-3.16c3.11-0.08,1.53,3.24,1.24,4.81
		C206.55,33.02,206.43,36.59,206.24,40.01z"/>
	<path class="st15" d="M199.92,17.3c-1.85-0.13-3.61-1.17-4.58-2.71c1.52,0.74,3.01,1.55,4.46,2.4c0.24,0.14,0.52,0.43,0.35,0.65"/>
	<g>
		<g>
			<path class="st16" d="M182.25,8.22c-0.01,0-0.02-0.01-0.04-0.01c0.17,0.17,0.35,0.35,0.52,0.52c-0.01-0.03-0.01-0.05-0.02-0.08
				c0,0.13,0,0.27,0,0.4c0.01-0.03,0.01-0.05,0.02-0.08c-0.11,0.15-0.23,0.3-0.34,0.45c0.01-0.01,0.02-0.02,0.04-0.03
				c-0.3-0.04-0.61-0.08-0.91-0.12c-0.06-0.13-0.11-0.25-0.17-0.38c0.07-0.18,0.15-0.35,0.22-0.53c0,0-0.01,0.01-0.01,0.01
				c0.18-0.07,0.35-0.15,0.53-0.22c-0.02,0-0.04,0-0.05-0.01c0.24,0.18,0.48,0.37,0.72,0.55c0-0.02-0.01-0.03-0.01-0.05
				c0,0.13,0,0.27,0,0.4c0-0.02,0.01-0.03,0.01-0.05c0.2-0.94-1.24-1.34-1.45-0.4c-0.04,0.18-0.04,0.32,0,0.5
				c0.09,0.35,0.39,0.51,0.72,0.55c0.85,0.1,0.97-0.95,0.55-1.44c-0.2-0.22-0.66-0.31-0.91-0.12c-0.57,0.44-0.57,1.32,0.18,1.57
				C182.76,9.97,183.16,8.52,182.25,8.22L182.25,8.22z"/>
		</g>
	</g>
	
		<linearGradient id="SVGID_1_" gradientUnits="userSpaceOnUse" x1="326.4502" y1="0.8186" x2="331.9452" y2="15.9159" gradientTransform="matrix(-0.9977 0.0675 0.0675 0.9977 524.6616 -4.3188)">
		<stop  offset="0.1015" style="stop-color:#FFFBF4"/>
		<stop  offset="0.1425" style="stop-color:#FCE9DF"/>
		<stop  offset="0.2334" style="stop-color:#F8C7B7"/>
		<stop  offset="0.3303" style="stop-color:#F3AA94"/>
		<stop  offset="0.4325" style="stop-color:#F09278"/>
		<stop  offset="0.5418" style="stop-color:#ED7F62"/>
		<stop  offset="0.6616" style="stop-color:#EB7253"/>
		<stop  offset="0.8001" style="stop-color:#EA6A4A"/>
		<stop  offset="1" style="stop-color:#EA6847"/>
	</linearGradient>
	<path class="st17" d="M204.15,28.52c-0.83,3.22-2.95,5.29-6.11,6.44c-2.12-3.15-3.94-6.11-4-7.97l-2.46-10.55
		C197.19,17.49,204.54,22.39,204.15,28.52z"/>
	<path class="st18" d="M107.26,273.39c4.34,3.42,7.06,7.74,7.7,12.21c-1.21,0.01-3.39,0.51-4.6,0.52c-0.97-3.83-1.35-6.1-3.07-10.44
		"/>
	<path class="st18" d="M107.34,282.65c-0.21-1.4-1.89-4.84-2.09-5.13c-0.47-0.68-0.12-0.92,0.61-0.67c0.67,0.23,2.09,2.93,1.94,3.3"
		/>
	<path class="st18" d="M114.19,271.98c1.52-0.13,3.01,0.38,4.47,0.8c-1.09,0.04-1.91,1.34-1.45,2.31c0.06,0.13-5.1-1.17-5.83-1.4
		C107.69,272.51,111.45,272.2,114.19,271.98z"/>
	<path class="st19" d="M148.13,120.64c-12.83,2.75-27.02,3.6-42.5,2.68c-4.91-0.92,12.41-5.89,25.4-10.08L148.13,120.64z"/>
	<g>
		<path class="st20" d="M2.26,121.67c-1.1,1.4-1.8,3.09-2,4.83c1.08-1.59,2.48-2.97,4.09-4.06c-0.48,0.9-0.89,1.83-1.19,2.82
			c0.32-0.51,0.66-1.01,1.01-1.5c-0.09,0.38-0.17,0.76-0.26,1.15c0.69-1.22,1.6-2.32,2.69-3.23c-0.1,0.12-0.19,0.25-0.29,0.37
			c0.27-0.27,0.55-0.53,0.82-0.8c0.02-0.01,0.04-0.03,0.06-0.04c-0.25,0.5-0.5,1-0.74,1.5c0.64-0.98,1.8-1.62,2.89-2.16
			c1.17-0.59,2.34-1.18,3.5-1.77c-0.09,0.13-0.19,0.26-0.28,0.39c0.21-0.2,0.43-0.39,0.66-0.58c1.2-0.61,2.4-1.21,3.61-1.82
			c-2.51,2.36-4.79,4.95-6.8,7.73c0.5,0.02,1,0.04,1.5,0.05c-0.2,0.69-0.33,1.39-0.38,2.11c0.03-0.02,0.07-0.05,0.1-0.07
			c-0.25,1.54-0.15,3.14,0.31,4.63c1.13-0.48,1.67-1.65,2.16-2.79c2.12-2.54,4.64-4.77,7.43-6.6c-0.71,0.84-1.28,1.79-1.65,2.82
			c1.05,0,2.1-0.34,2.94-0.96c-1.08,1.31-2.01,2.75-2.76,4.26c2.54-0.82,5.21-1.72,6.95-3.69c0.54-0.61,0.98-1.32,1.64-1.81
			c0.48-0.36,1.04-0.57,1.63-0.73c-1.17,0.83-2.17,1.9-2.9,3.11c5.79-2.99,11.58-5.97,17.37-8.96c1.46-0.75,3.11-1.52,4.7-1.54
			c0.83,0.08,1.63,0.29,2.37,0.66c1.04,0.64,1.89,1.62,3.01,2.13c0.24,0.11,0.51,0.17,0.79,0.2c0.43,0.12,0.88,0.13,1.33-0.04
			c0.47-0.17,0.85-0.52,1.32-0.69c0.41-0.15,0.83-0.15,1.26-0.07c2.4,1.55,4.92,2.91,7.54,4.08c1.38,0.84,2.78,1.66,4.24,2.36
			c3.24,1.55,6.95,2.7,10.39,1.89c0.18,0.03,0.36,0.05,0.55,0.08c-0.08,0.14-0.16,0.28-0.24,0.42c-5.27,9.15-10.54,18.3-15.81,27.45
			c-1.23,2.13-2.46,4.26-3.88,6.28c-1.59,2.24-3.42,4.32-5.02,6.56c-1.57,2.19-2.91,4.53-4.17,6.9c-0.57-0.24-0.98-0.41-1.11-0.46
			c-0.08-0.03-0.17-0.07-0.25-0.04c-0.14,0.04-0.17,0.21-0.17,0.35c0,0.6,0.23,1.2,0.63,1.66c-0.26,0.03-0.53,0.05-0.79,0.08
			c-0.02,0.59-0.04,1.18-0.05,1.77c-0.04,0.08-0.09,0.17-0.13,0.25c-0.09,0.18-0.18,0.36-0.27,0.54c-0.52,0.05-1,0.55-0.9,1.07
			c0.04,0.2,0.15,0.38,0.24,0.57c-0.08,0.28-0.14,0.57-0.16,0.87c-0.13,0.07-0.27,0.07-0.36-0.05c-0.6,0.54,0.04,1.48,0.2,2.29
			c0.01,0.12,0.02,0.23,0.03,0.35c-0.01,0.2-0.07,0.38-0.21,0.54c-0.16,0.17-0.4,0.26-0.58,0.42c-0.35,0.31-0.4,0.89-0.11,1.25
			c0.29,0.36,0.88,0.45,1.28,0.2c0.04,0.44,0.08,0.88,0.11,1.31c0.31,0.02,0.61,0.04,0.92,0.05c0.08,0.13,0.16,0.26,0.25,0.39
			c-0.09,0.36-0.07,0.75,0.07,1.09c0.16-0.09,0.33-0.17,0.5-0.26c0.49,0.68,1.03,1.35,1.57,1.99c4.47,5.34,8.72,10.85,12.75,16.51
			c0.68,1.42,1.52,2.98,2.31,4.14c4.25,6.26,8.25,12.69,12,19.25c5.33,9.33,10.13,18.93,14.92,28.53c0.22,0.44,0.43,0.97,0.16,1.38
			c-0.06,2.03,0.37,3.77,0.59,5.79c0.1,0.94,0.25,1.9,0.58,2.78c0.01,0.51,0.01,1.02,0.03,1.53c0.06,2.21,0.11,4.41,0.17,6.62
			c0.01,0.24,0.02,0.49,0.14,0.7c0.24,0.4,0.79,0.47,1.26,0.51c1.73,0.13,3.46,0.28,5.19,0.45c1.26,2.33,2.28,4.78,3.03,7.31
			c0.99-1.35,0.06-3.09-0.7-4.58c-0.43-0.86-0.83-1.73-1.19-2.62c0.02,0,0.03,0,0.05,0.01c0.02,0.12,0.08,0.26,0.21,0.44
			c0.2,0.29,1.88,3.73,2.09,5.13l0.41-2.22c1.2,3.21,2,6.57,2.37,9.97c0.56-1.37,0.66-2.82,0.5-4.29c1.25-0.07,3.21-0.5,4.35-0.51
			c-0.06-0.46-0.16-0.91-0.27-1.36c0.17,0.55,0.32,1.11,0.44,1.67c1.04-2,0.14-4.4-0.82-6.43c-0.22-0.47-0.43-0.9-0.63-1.31
			c0.69,0.1,1.39,0.21,2.08,0.31c-0.78-0.36-1.64-0.78-2.53-1.2c-0.38-0.72-0.75-1.38-1.14-2.03c2.35,0.03,4.7,0.47,6.89,1.3
			c-0.82-0.64-1.71-1.18-2.66-1.62c0.55,0.12,0.91,0.19,0.9,0.16c-0.38-0.79,0.1-1.8,0.88-2.17c0.72,0.14,1.43,0.31,2.13,0.47
			c-1.15-1.23-2.87-1.79-4.55-2.15c-2.07-0.44-4.19-0.63-6.3-0.58c-2.49-4.27-4.97-8.54-7.44-12.82
			c-0.16-8.34-0.32-16.67-0.47-25.01c-0.16-9.37-1.1-19.06-1.36-28.43c-0.05-1.73-0.09-3.48,0.29-5.17
			c0.33-1.47,0.97-2.85,1.26-4.33c0.37-1.87,0.15-3.84-0.62-5.58c-0.02-0.04-0.04-0.08-0.06-0.13c0.29-0.07,0.64-0.09,0.7-0.35
			c-0.4-0.22-0.8-0.44-1.2-0.66c-0.23-0.46-0.45-0.92-0.6-1.4c-0.32-1.02-0.33-2.1-0.34-3.17c-0.06-6.69-0.11-13.37-0.17-20.06
			c-0.1-12.31,1.74-24.79,3.67-36.96c0.01-0.08,0.02-0.16,0.03-0.24c1.01-0.8,1.7-1.95,2.56-3.04c12.14,0.72,23.49,0.35,34.02-1.17
			c2.63-0.3,5.19-0.66,7.6-1.07c5.01-0.42,9.99-1.78,14.81-4.6c0.62-0.36,1.37-0.43,2.09-0.57c2.8-0.19,5.57-0.64,8.29-1.46
			c0.59-0.18,1.16-0.4,1.71-0.66c0.11,0.09,0.19,0.14,0.19,0.06c2.15-1.2,4.36-2.45,5.85-4.36c0.7-0.89,1.21-1.89,1.61-2.94
			c0.41-0.61,0.81-1.22,1.19-1.83c2.85-4.61,3.37-10.31,2.54-15.63c-0.33-2.08-0.84-4.12-1.47-6.13c-0.44-2.23-1.11-4.41-2.08-6.51
			c-0.47-1.03-1.01-2.02-1.54-3.02c-1.02-2.47-2.05-4.94-3.16-7.37c-0.52-1.55-1.04-3.1-1.7-4.6c-1.39-3.13-3.38-5.96-5.2-8.89
			c-1.88-3.64-3.64-7.32-4.92-11.19c-2.08-6.28-2.77-13.34-0.74-19.51c0.91-0.98,1.46-2.3,2.6-3.02c0.95-0.6,2.06-0.64,3.19-0.44
			c1.89,0.8,3.87,1.42,5.88,1.87c0.44,0.13,0.88,0.26,1.32,0.38c0.62,0.23,1.25,0.45,1.87,0.67c2.14,0.75,4.45,1.47,6.66,0.93
			c0.69-0.17,1.39-0.46,2.09-0.53c0.56,0.79,1.17,1.85,1.84,2.76c0.58,0.79,1.2,1.48,1.69,1.97c0.23,0.41,0.52,0.76,0.92,1
			c0.2,0.12,0.41,0.2,0.64,0.28c0.34,0.27,0.66,0.55,0.97,0.85c0.54,1.48,1.62,3.3,2.89,5.23c0.15,0.54,0.3,1.07,0.45,1.61
			c0.12,0.04,0.25,0.06,0.39,0.06c0.06,0.12,0.15,0.24,0.25,0.37c0.71,1.97,1.34,3.96,1.9,5.98c0.46,1.68,0.54,3.2,1.24,4.8
			c0.1,0.23,0.21,0.47,0.4,0.63c0.11,0.09,0.22,0.15,0.33,0.19c0.01,0.04,0.02,0.07,0.04,0.11c0.1-0.02,0.19-0.04,0.28-0.07
			c0.27-0.02,0.55-0.15,0.81-0.35c0.99-0.57,1.74-1.57,2.15-2.63c0.49-1.24,0.6-2.58,0.68-3.92c0.79-2.93,1.3-5.95,1.71-8.95
			c0.37-2.68,0.67-5.48-0.21-8.04c-0.35-1.03-0.89-1.98-1.51-2.88c-0.12-0.27-0.25-0.53-0.4-0.79c-0.81-1.38-2.04-2.47-3.26-3.53
			c-4.28-3.73-8.61-7.49-13.35-10.63c-4.06-4.99-11.63-6.74-17.92-4.81c-6.54,2.01-11.61,7.43-14.16,13.62
			c-2.56,6.19-2.85,13.08-2.06,19.7c0.89,7.45,3.1,14.75,6.51,21.48c3.33,6.57,7.79,12.6,10.53,19.42c1.54,3.81,2.52,7.83,2.9,11.91
			c0.01,0.14,0.02,0.29,0.04,0.43c-0.26,6.31-3.33,12.68-8.77,15.96c-3.11-0.73-6.29-1.75-8.56-3.93
			c-3.53-3.39-4.03-8.64-5.57-13.22c-1.36-4.05-3.7-7.78-6.74-10.86c-0.87-1.05-1.83-2.04-2.9-2.93c-2.91-2.42-6.35-3.92-10.03-4.84
			c-3.48-1.11-7.14-1.62-10.73-1.34c-0.35-0.01-0.69-0.02-1.04-0.03c-12.95-4.46-33.12-2.27-50.27,6.81
			c-0.75,0.39-1.49,0.77-2.24,1.13c-0.67,0.01-1.33,0.01-2-0.01c0.02,0.29,0.07,0.59,0.14,0.87c-10.11,4.54-19.37,6.39-21.15,13.25
			c-0.13,0.03-0.25,0.06-0.38,0.09c-0.59,0.12-1.25,0.24-1.6,0.71c-0.32,0.44-0.02,1.23,0.48,1.21c-1.33,0.2-2.65,0.41-3.98,0.61
			c-0.64,1.54-1.58,2.95-2.74,4.17c-5.71,2.98-11.42,5.96-17.13,8.93c-0.48,0.05-0.97,0.08-1.45,0.07c0.2,0.14,0.41,0.26,0.63,0.37
			c-0.15,0.08-0.3,0.16-0.45,0.23c-0.09,0.02-0.19,0.04-0.28,0.06c0.06,0,0.12,0,0.18,0c-0.24,0.12-0.48,0.25-0.72,0.37
			c0.62,0.01,1.23,0.02,1.85,0.03c-2.11,1.1-4.07,2.48-5.79,4.09c-1.42,1.11-2.71,2.36-3.85,3.73c1.09-0.71,2.17-1.41,3.26-2.12
			c-3.37,2.27-6.4,5.04-8.93,8.18c-0.06-0.29-0.11-0.59-0.17-0.88c-1.45,0.96-2.69,2.22-3.61,3.68
			C0.85,122.2,1.68,122.11,2.26,121.67z M93.29,123.44c-0.4,0.21-0.82,0.38-1.26,0.51C92.4,123.69,92.83,123.52,93.29,123.44z
			 M93.45,180.84c0.08-0.51,0.24-1.02,0.4-1.48c0.06-0.17,0.11-0.35,0.17-0.52C93.86,179.51,93.67,180.18,93.45,180.84z
			 M107.54,273.88c-0.02-0.02-0.04-0.04-0.07-0.05c0.06-0.04,0.12-0.08,0.18-0.12c0.05,0.04,0.09,0.08,0.14,0.12
			C107.71,273.85,107.63,273.86,107.54,273.88z M107.62,277.4c0.33,0.92,0.6,1.75,0.84,2.54c-0.35-0.85-0.7-1.7-1.01-2.56
			C107.51,277.39,107.56,277.4,107.62,277.4z M110.82,273.66c-0.01-0.02-0.03-0.05-0.04-0.07c0.07,0.03,0.15,0.05,0.23,0.08
			C110.95,273.66,110.89,273.66,110.82,273.66z M109.86,275.97c-0.05-0.02-0.11-0.04-0.16-0.06c-0.17-0.18-0.34-0.36-0.52-0.54
			c0.05-0.01,0.1-0.01,0.14-0.02C109.5,275.55,109.68,275.76,109.86,275.97z M105.98,277.22c0.03,0,0.06,0.01,0.09,0.01
			c0.04,0.08,0.08,0.16,0.12,0.25C106.12,277.38,106.05,277.29,105.98,277.22z M53.17,186.19c0.01,0,0.01,0,0.02-0.01
			c0.05,0.07,0.1,0.14,0.15,0.21C53.28,186.32,53.22,186.26,53.17,186.19z M90.28,123.92c0.11,0.06,0.23,0.11,0.34,0.17
			c-0.28-0.32-0.61-0.62-0.96-0.89c0.66,0.36,1.23,0.85,1.66,1.48c0.16-0.26,0.38-0.48,0.62-0.66c1.52-0.13,2.75,0.72,3.98,1.59
			c-0.12,0.41-0.15,0.88-0.16,1.31c-0.22,13.13-0.43,26.27-0.65,39.4c-0.17-1.36-0.5-2.68-1.19-3.51c-0.82,1.52-0.53,3.92-0.61,5.6
			c-0.15,3.41-0.09,6.91-0.64,10.28c-0.54,3.33-1.96,6.61-1.52,9.96c0.24,1.83,1.02,3.54,1.62,5.29c1.76,5.16,1.91,10.68,2.04,16.12
			c0.18-0.92,0.36-1.85,0.52-2.78c0.12,1.53,0.2,3.06,0.23,4.59c0.09,4.52-0.21,9.09,0.61,13.54c1.5,8.15,1.36,16.45,1.05,24.77
			c-0.86-1.49-1.72-2.98-2.58-4.47c-0.77-1.33-1.53-2.67-2.3-4c-1.15-2-2.29-3.99-3.44-5.99c-6.62-11.54-13.41-22.84-20.01-34.4
			c-2.79-4.9-5.3-9.94-7.52-15.11c-0.8-1.86-1.57-3.79-1.64-5.8c-0.09-2.57,0.95-5.04,1.97-7.41c0.88-2.04,1.76-4.08,2.63-6.11
			c1.25-2.89,2.5-5.8,4.19-8.47c0.98-1.56,2.11-3.03,3.14-4.55c1.39-2.05,2.6-4.2,3.8-6.36C79.95,139.38,84.12,130.92,90.28,123.92z
			"/>
		<path class="st20" d="M6.44,122.71c-0.11,0.22-0.22,0.44-0.32,0.66C6.2,123.13,6.31,122.92,6.44,122.71z"/>
	</g>
</g>
</svg>
