<!-- Generator: Adobe Illustrator 23.0.4, SVG Export Plug-In  -->
<svg version="1.1" xmlns="http://www.w3.org/2000/svg" xmlns:xlink="http://www.w3.org/1999/xlink" x="0px" y="0px"
	 width="229.19px" height="127.36px" viewBox="0 0 229.19 127.36" style="enable-background:new 0 0 229.19 127.36;"
	 xml:space="preserve">
<style type="text/css">
	.st0{fill:#F7F0F0;}
	.st1{opacity:0.6;fill:url(#SVGID_1_);}
	.st2{opacity:0.2;fill:#49382C;}
	.st3{opacity:0.6;fill:url(#SVGID_2_);}
	.st4{opacity:0.6;fill:url(#SVGID_3_);}
	.st5{opacity:0.6;fill:#49382C;}
	.st6{fill:#BCA4A4;}
	.st7{opacity:0.6;fill:url(#SVGID_4_);}
	.st8{opacity:0.6;fill:url(#SVGID_5_);}
	.st9{opacity:0.6;fill:url(#SVGID_6_);}
	.st10{opacity:0.6;fill:url(#SVGID_7_);}
	.st11{opacity:0.6;fill:url(#SVGID_8_);}
</style>
<defs>
</defs>
<path class="st0" d="M144.61,0.03c-9.13-0.5-13.97,5.98-20.83,9.19c-5.73,2.68-11.13,1.91-17.72,2.25
	c-0.02,1.32-0.95,2.42-0.88,3.78c-5.27,1.63-8.9,2.57-14.47,2.88c0.96,9.58-9.36,9.54-16.65,10.02c-2.69,7.01-2.88,6.15-10.67,6.67
	c-1.53,2.86-1.33,8.07-4.1,9.23c-4.43,1.85-5.93-3.63-9.91-3.25c-0.46,3.09-2.89,5.18-2.87,8.47c-3.02,0.78-6.24-0.26-7.34-3.12
	c-5.55-1.67-16.93,5.59-21.88,0.55c-1.56-1.58,0.01-4.16-0.8-6.02c-0.92-2.09-4.07-5.51-5.73-7.01c-3.69-3.32-4.57-4.03-10.03-3.44
	C0.4,35.6-2.41,60.9,5.84,61.26c-0.33-1.51,0.51-3.61,0.23-5.13C10.92,56.25,9.55,67.26,17,67.29c3.87-12.22,7.99,1.67,14.17,0.63
	c-2.18-11.97,10.57-3.27,15.3-1.98c2.08-5.6,2.25-10.27,9.93-9.28c-1.8,1.21-2.56,2.73-3.73,4.57c1.62,0.44,4.19,0.33,5.83,0.03
	c-0.03-1.04,0.77-2.95,0.77-3.33c0.63,1.45,1.7,2.16,2.1,4c0.84,0.04,1.62,0.05,2.47,0c-0.21-6.79,0.62-14.35,7.22-16.58
	c5.13-1.74,12.2,0.74,17.65,0.06c8.79-1.1,12.56-4.9,18.45-10.59c6.42-6.21,17.87-8.67,24.09-14.88c4.21-4.21,6.58-10.52,10.7-14.57
	"/>
<path class="st0" d="M55.24,115.36c7.98,0.28,9.75-4.27,16.55-7.19c12.53-5.38,24.09-12.99,37.48-16.63
	c7.15-1.94,13.14-5.58,20.03-8.2c7.01-2.66,14.47-3.85,21.26-7.64c5.48-3.05,10.47-5.83,16.18-8.18c3.88-1.6,9.41-6.14,12.98-6.17
	c-4.59,0-19.35,2.28-21.78-2.47c-5.62,9.2-26.17,15.96-36.06,19.15c-5.7,1.84-12.14,4.04-17.98,5.89
	c-5.52,1.75-11.11,3.8-16.56,5.43c-9.19,2.75-16.46,4.65-24.93,9.17c-4.19,2.23-13.05,2.73-15.73,7.06
	C42.75,111.97,49.55,115.16,55.24,115.36z"/>
<path class="st0" d="M33.27,121.36c1.44,6.19,9.73,6.52,15.38,5.2c3.01-0.7,5.79-3.45,8.74-4.55c4.09-1.53,7.75-1.38,11.88-1.98
	c6.34-0.93,12.99-1.58,19.34-2.67c8.62-1.48,19.56-0.89,27.9-3.28c3.89-1.12,7.97-5.24,12.28-6.61c3.14-1,6.23-1.2,9.18-2.53
	c10.13-4.58,19.13-8.26,29.25-11.89c16.03-5.75,25.21-18.9,38.79-27.56c7.79-4.97,13.73-17.27,23.19-18.25
	c-1.46-4.54-7.78-4.03-9.36-8.44c-5.87-1.47-10.08,5.61-14.46,8.68c-11.81,8.27-18.89,20.07-31.51,27.91
	c-5.95,3.69-12.65,6.55-18.6,9.93c-7.12,4.05-13.76,6.31-22.12,8.74c-7.9,2.3-15.81,2.82-23.86,5.33
	c-13.02,4.06-25.41,6.42-39.35,7.97c-14.1,1.57-24.64,9.5-37.32,14"/>
<linearGradient id="SVGID_1_" gradientUnits="userSpaceOnUse" x1="34.6054" y1="116.7021" x2="105.1865" y2="116.7021">
	<stop  offset="0" style="stop-color:#724802"/>
	<stop  offset="1" style="stop-color:#9B6719"/>
</linearGradient>
<path class="st1" d="M34.61,123.36c0.41,10.37,31.36-5.85,37.72-7.16c6.26-1.3,12.71-0.28,18.96-1.5c5.11-1,8.05-4.12,13.9-4.12
	c-4.43-8.78-22.58-2.54-29.93-0.07c-12.79,4.3-26.16,8.32-39.88,8.94c-0.13,2.6-0.08,5.28-0.1,7.91"/>
<path class="st2" d="M32.61,122.69c4.5,3.47,11.73,1.01,16.05-1.98c2.94-2.04,2.77-3.91,7.3-4.72c3.11-0.56,5.56,0.78,7.93-1.13
	c-6.47-2.72-28.06-2.39-29.28,6.5"/>
<path class="st2" d="M9.94,49.36c0.82-4.98-3.78-7.01-7.91-8.11c-1.15-6.34,7.9-5.86,11.81-4.44c0.56,6.13,1.52,10.55,4.75,14.57
	c0.52,0.65,2.42,0.13,3.36,1.34c0.9,1.16-0.06,3.28,0.62,4.14c1.93,2.43,1.64,4.85,5.92,3.77c0.36-3.55,1.17-7.4,5.33-6.5
	c0.83,8.18,5.04,1.48,7.95,1.7c4.63,0.35,3.55,3.51,7.33,5.46c1.48-4.01-0.29-6.85,3.51-8.6c2.95-1.36,3.81,1.77,6.69,0.22
	c-0.37,3.31-1.46,6.35-1.48,9.67c-3.23,1.27-6.54,0.67-9.78,0.17c0.24,1.32-0.51,3.24-0.2,4.53c-2.72-0.73-2.79-3.16-5.23-4.61
	c-1.14-0.67-5.02,1-7.23-0.53c0.13,1.37-0.42,3.11-0.2,4.46c-0.4,0.2-0.82,0.26-1.27,0.2c-0.7-2.74-0.76-6.5-4.53-6
	c-0.15,0.61,0.07,1.23-0.2,1.8c-5.14,0.94-12.71-1.69-11.35-7.79c-3.56-0.35-6.3-1.39-7.22-4.78"/>
<linearGradient id="SVGID_2_" gradientUnits="userSpaceOnUse" x1="26.4374" y1="59.98" x2="61.2212" y2="59.98">
	<stop  offset="0" style="stop-color:#724802"/>
	<stop  offset="1" style="stop-color:#9B6719"/>
</linearGradient>
<path class="st3" d="M28.61,59.36c1.53-0.36,3.7-0.01,5.22,0.12c0.4,2.05,1.72,3.3,2.26,5.13c3.28-3.7,9.54-2,12.39,1.35
	c0.45-4.71,5.27-3.49,8-1.33c-0.13-2.08,0.33-4.41,0.24-6.5c1.31,0.21,3.37-0.56,4.52-0.35c-0.46-2.91-2.37-4.21-5.18-3.65
	c-0.11,3.18-3.88,7.36-7.43,7.25c-4.75-0.15-4.49-5.51-8.55-5.91c-1.39,6.62-9.29-1.52-13.35-0.67c-0.82,2.94,0.29,3.36,2.57,3.9"/>
<linearGradient id="SVGID_3_" gradientUnits="userSpaceOnUse" x1="133.9389" y1="20.4042" x2="158.519" y2="20.4042">
	<stop  offset="0" style="stop-color:#724802"/>
	<stop  offset="1" style="stop-color:#9B6719"/>
</linearGradient>
<path class="st4" d="M135.27,17.36c2.02,5.34,2.01,16.97,11.18,13.35c4.31-1.7,7.44-11.15,12.06-14.53
	c-4.04-1.65-7.84-4.14-11.1-6.76c-2.65,6.54-7.38,8.42-13.48,10.61"/>
<path class="st5" d="M139.94,22.03c4.69-1,9.7-0.51,14.55-0.78c0.2-0.1,1.56-1.02,2.03-1.33c-2.9-10.32-17.15-5.06-17.25,4.11"/>
<path class="st6" d="M83.27,64.03c0,5.3,0.68,11.15-0.63,16.18c-0.83,3.19-3.04,5.1-2.6,9.05c20.52,0.98,36.3-12,53.38-21.73
	c12.68-7.23,24.65-4.83,38.52-7.5c6.24-1.2,11.41,2.72,15.83,1.31c1.17-0.37,3.37-3.72,5.42-4.64c3.59-1.62,8.57-0.44,12.08-1.99
	c5.66-2.5,10.15-10.5,6.03-16.03c-3.64-4.89-13.33-6.42-18.2-10.52c-4.85-4.09-5.01-7.52-7.02-13.41
	c-0.6,15.77-9.78,16.6-23.61,17.28c-5.25,0.26-14.71,2.38-13.2-5.33c1.28-6.53,8.22-2.65,11.94-7.2c-4.62,0.41-10.13-2.31-11.9-6.72
	c-11.63,2.19-13.01,10.17-12.72,19.93c0.15,5.05,0.31,8.02,2,12.67c1.81,4.98,4.62,6.91-3.81,8.7c-4.43,0.94-9.85-1.35-14.19-0.04
	c-5.92,1.78-9.98,8.96-16.01,11.36c-7.57,3.01-17.03,2.35-23.32,7.3"/>
<linearGradient id="SVGID_4_" gradientUnits="userSpaceOnUse" x1="131.4707" y1="22.1673" x2="159.2719" y2="22.1673">
	<stop  offset="0" style="stop-color:#724802"/>
	<stop  offset="1" style="stop-color:#9B6719"/>
</linearGradient>
<path class="st7" d="M159.27,16.03c-5.53-0.48-7.18-4.32-11.3-6.85c-4.14,4.7-8.58,8.34-12.75,12.71c-1.93,2.02-5.06,4.48-3.17,8.17
	c2.19,4.27,13.19,6.13,17.1,4.52c0.23-3.44-0.48-6.43,1.58-9.22c2.44-3.29,7.47-2,5.87-8"/>
<path class="st5" d="M139.27,20.69c5.25-3.78,13.17-0.29,18.63-3.32c-2.68-2.14-6.46-3.03-8.11-6.45c-2.91,4-8.04,4.16-10.52,8.43"
	/>
<path class="st0" d="M58.61,54.03c-0.25,8.72,4.56,5.55,6.66,11.3c1.67,4.59-2.99,12.63-2.56,17.93c8.76,2.74,14.04-5.72,21.72-9.08
	c9.61-4.2,20.98-2.11,30.23-8.83c3.25-2.36,5.9-5.71,9.9-7.3c5.38-2.14,10.53-0.54,16.05-1.35c5.3-0.78,4.17-3.2,7.88-4.7
	c4.42-1.78,13.17,0.19,18.01-0.07c2.21-7.46-5.89-5.87-10.65-5.9c-8.49-0.06-10.82-3.23-17.87-6.81
	c-2.81-1.43-16.19-1.34-17.43-3.83c-2.4-4.82,7.78-12.37,11.3-13.48c2.54-11.05,12.47-6.46,15.33-14.52
	c-0.18-1.88-0.42-3.99-0.69-5.94c-3.2,1.37-6.36,5.67-9.82,7.86c-4.85,3.07-9.09,5.85-13.41,9.38c-5.83,4.76-12.21,5.24-19.87,7.37
	c-10.35,2.87-19.55,10.22-28.52,15.95c-3.19,2.04-14.81,8.69-15.61,12.02"/>
<path class="st2" d="M124.61,52.03c-17.19,1.59-8.86-19.32-3.22-25.89c2.26-0.38,4.61-1.74,6.44-3.07
	c-0.51,5.41,2.99,13.06,7.45,16.17c2.71,1.9,11.81,1.12,12.73,4.78c2.56,10.19-23.52,7.33-28.06,7.33"/>
</svg>
