<!-- Generator: Adobe Illustrator 23.0.4, SVG Export Plug-In  -->
<svg version="1.1" xmlns="http://www.w3.org/2000/svg" xmlns:xlink="http://www.w3.org/1999/xlink" x="0px" y="0px"
	 width="103.73px" height="153.09px" viewBox="0 0 103.73 153.09" style="enable-background:new 0 0 103.73 153.09;"
	 xml:space="preserve">
<style type="text/css">
	.st0{fill:#FC8686;}
	.st1{fill:#ED7474;}
	.st2{fill:#875151;fill-opacity:0.59;}
	.st3{fill:#875151;fill-opacity:0.67;}
	.st4{fill:#FFFFFF;}
	.st5{fill:#776D71;}
	.st6{fill:#A08E8E;}
	.st7{fill:#F9685D;}
	.st8{fill:#F4D9D9;}
	.st9{fill:#F9E4E4;}
	.st10{fill:#F4BDBD;}
	.st11{fill:#EFD9D8;fill-opacity:0.5;}
	.st12{fill:#A39393;fill-opacity:0.64;}
	.st13{fill:#C49576;fill-opacity:0.6;}
	.st14{fill:#E2A58D;fill-opacity:0.3;}
	.st15{fill:#F7CB7F;fill-opacity:0.95;}
	.st16{fill:#050404;}
	.st17{fill:#E88282;fill-opacity:0.8;}
	.st18{fill:#F77272;fill-opacity:0.39;}
	.st19{fill:#070606;fill-opacity:0.5;}
	.st20{fill:#19110E;fill-opacity:0.61;}
	.st21{fill:#F7B2B2;}
	.st22{fill:#875151;fill-opacity:0.7;}
	.st23{fill:#F4B3B3;}
	.st24{fill:#FC8686;fill-opacity:0.66;}
	.st25{fill:#FC8686;fill-opacity:0.75;}
	.st26{fill:none;stroke:#000000;stroke-width:0.0647;stroke-miterlimit:10;}
</style>
<defs>
</defs>
<g>
	<path class="st0" d="M56.05,145.08c0.7,1.24,1.18,2.6,1.44,4.01c0.12,0.68,0.17,1.45-0.23,2.01c-0.11-0.42-0.69-0.52-1.05-0.3
		c-0.36,0.22-0.55,0.64-0.73,1.03c-0.18,0.39-0.39,0.8-0.77,0.99c-0.16-0.54-0.32-1.07-0.47-1.61c-0.2-0.69-0.56-1.51-1.26-1.54
		c0.2-1.88-1.71-3.37-1.9-5.25c-0.05-0.5,0.09-1.1,0.54-1.29c0.21-0.09,0.46-0.07,0.69-0.03c0.54,0.09,1.07,0.28,1.56,0.54
		c0.15,0.08,0.3,0.17,0.47,0.2c0.28,0.05,0.65-0.14,0.87-0.27C55.49,144.06,55.77,144.58,56.05,145.08z"/>
	<g>
		<path class="st1" d="M58.76,144.78c-0.14,0.37-0.05,0.8,0.13,1.17c-0.4-0.15-0.83-0.2-1.25-0.16c-0.24,0.33-0.38,0.74-0.37,1.15
			c-0.84-0.32-1.69-0.65-2.53-0.97c-0.35-0.13-0.69-0.27-1.03-0.42c-0.29-0.13-0.58-0.29-0.76-0.55c-0.18-0.26-0.22-0.66-0.01-0.9
			c0.17-0.19,0.45-0.23,0.7-0.26c1.07-0.12,2.14-0.24,3.21-0.37c0.61-0.07,1.26-0.14,1.83,0.12c0.31,0.14,0.64,0.35,0.88,0.58
			C59.27,144.26,58.89,144.45,58.76,144.78z"/>
		<path class="st0" d="M55.68,145.34c0.7,1.24,1.18,2.6,1.44,4.01c0.12,0.68,0.17,1.45-0.23,2.01c-0.11-0.42-0.69-0.52-1.05-0.3
			c-0.36,0.22-0.55,0.64-0.73,1.03c-0.18,0.39-0.39,0.8-0.77,0.99c-0.16-0.54-0.32-1.07-0.47-1.61c-0.2-0.69-0.56-1.51-1.26-1.54
			c0.2-1.88-1.71-3.37-1.9-5.25c-0.05-0.5,0.09-1.1,0.54-1.29c0.21-0.09,0.46-0.07,0.69-0.03c0.54,0.09,1.07,0.28,1.56,0.54
			c0.15,0.08,0.3,0.17,0.47,0.2c0.28,0.05,0.65-0.14,0.87-0.27C55.13,144.33,55.4,144.84,55.68,145.34z"/>
		<path class="st2" d="M50.58,136.16c-0.06-1.42-0.17-2.85-0.3-4.27c-0.2,0.09-0.46-0.05-0.51-0.27c-0.03-0.14,0.01-0.32-0.09-0.42
			c-0.08-0.08-0.21-0.07-0.32-0.08c-0.4-0.02-0.78-0.31-0.92-0.7c0.15,0.44-0.18,1.12-0.09,1.6c0.08,0.44,0.36,0.87,0.58,1.25
			C49.49,134.23,50.29,135.06,50.58,136.16z"/>
		<path class="st3" d="M48.09,141.7c-0.19,1-0.18,2.05,0.02,3.05c0.04,0.22,0.1,0.44,0.26,0.6c0.13,0.14,0.32,0.2,0.5,0.26
			c0.36,0.11,1.76,0.68,2.1,0.48c0.48-0.28-0.14-0.97-0.38-1.35C50.33,144.32,48.04,141.94,48.09,141.7z"/>
		<g>
			<path class="st4" d="M14.31,64.41c-0.03,0.04-0.06,0.08-0.09,0.12C14.29,64.53,14.31,64.47,14.31,64.41z"/>
			<path class="st4" d="M50.4,136.08c-0.02-0.03-0.04-0.06-0.05-0.1C50.29,136.02,50.37,136.15,50.4,136.08z"/>
			<path class="st4" d="M53.79,142.13c-1.08-2.01-2.16-4.01-3.24-6.02c-0.04-0.08-0.11-0.17-0.19-0.14c-0.01,0,0,0.01-0.01,0.01
				c0.02,0.03,0.04,0.06,0.05,0.1c-0.03,0.08-0.11-0.06-0.05-0.1c-4.8-8.31-9.47-17.04-14.11-25.44c-1.02-1.85-2.05-3.7-3.07-5.55
				c-0.98-1.76-1.95-3.53-2.72-5.4c-0.75-1.83-1.29-3.77-1.28-5.75c0.02-2.22,1.68-4.45,2.54-6.48c0.54-1.27,1.07-2.53,1.73-3.74
				c1.02-1.86,2.32-3.53,3.42-5.34c2.62-4.34,4.12-9.58,7.93-12.86c0.12-0.1,0.25-0.21,0.4-0.24c0.48-0.09,0.79,0.54,1.25,0.69
				c0.48,0.16,1.1-0.21,1.49,0.14c0.27,0.24,0.23,0.68,0.17,1.05c-0.31,2.16-0.15,4.36-0.06,6.54c0.29,7.17-0.26,14.38-1.64,21.42
				c-0.19,0.97-0.4,1.94-0.43,2.93c-0.05,1.46,0.27,2.9,0.59,4.32c0.52,2.3,1.03,4.6,1.55,6.9c-1.38,4.27,0.33,8.93,0.86,13.4
				c0.23,1.97,0.24,3.97,0.01,5.94c-0.1,0.83-0.23,1.67-0.09,2.5s0.63,1.64,1.4,1.91c-0.46-6.34-0.92-12.68-1.38-19.02
				c-0.21-2.91-0.42-5.86,0.17-8.72c0.17-0.84,0.41-1.67,0.51-2.52c0.22-1.86-0.25-3.72-0.71-5.53c-2.09-8.21,0.69-16.87,1.02-25.35
				c0.06-1.53,0.12-3.08,0.58-4.54c0.45-1.46,1.35-2.84,2.68-3.51c5.38-2.7,11.74-3.48,17.69-2.89c1.25,0.12,2.5,0.34,3.75,0.42
				c2.59,0.16,5.17-0.25,7.71-0.77c2.4-0.5,4.91-1.18,6.6-3c1.5-1.62,2.1-3.89,2.65-6.06c1.41-5.57-1.58-11.44-4.05-16.61
				c-2.47-5.17-5.35-10.2-6.76-15.77c-0.67-2.65-0.98-5.54,0.05-8.07c0.49-1.2,1.59-2.41,2.81-2.11c0.52,0.13,0.94,0.5,1.42,0.72
				c1.15,0.54,2.51,0.2,3.75,0.48c1.57,0.37,2.97,1.48,4.47,0.87c0.43,1.74,2.32,2.57,3.48,3.91c0.63,0.72,1.05,1.61,1.45,2.49
				c1.1,2.4,2.12,4.83,3.07,7.3c0.76-2.91,1.23-5.91,1.38-8.92c0.05-0.97,0.07-1.95-0.19-2.89c-0.26-0.94-0.79-1.77-1.35-2.54
				c-1.85-2.51-4.21-4.57-6.55-6.59c-1.08-0.93-2.17-1.88-3.45-2.47c-2.99-1.39-6.67-0.6-9.22,1.52c-2.55,2.12-4.04,5.39-4.55,8.73
				c-0.51,3.34-0.11,6.76,0.59,10.06c1.58,7.49,6.92,13.84,9.03,21.19c0.48,1.67,0.76,3.45,0.47,5.17c-0.31,1.86-1.28,3.55-2.5,4.97
				c-0.52,0.6-1.1,1.18-1.83,1.49c-1.56,0.67-3.42-0.05-4.6-1.29c-1.19-1.24-1.84-2.9-2.47-4.52c-1.06-2.72-2.11-5.44-3.17-8.16
				c-0.85-2.18-3.61-3.11-5.71-4.04c-1.41-0.62-2.94-0.91-4.47-1.1c-4.48-0.56-9.05-0.35-13.46,0.63
				c-5.56,1.23-10.95,3.68-16.63,3.67c0.46,0.44,0.93,0.88,1.39,1.32c-0.56,0.02-1.12,0.23-1.55,0.6c-3.06,2.58-7.14,3.35-10.4,5.66
				c0.15,0.16,0.31,0.32,0.46,0.48c-0.76,0.09-1.52,0.18-2.28,0.26c-0.12,0.01-0.26,0.03-0.35,0.12c-0.18,0.18-0.08,0.48-0.11,0.74
				c-0.04,0.33-0.32,0.57-0.58,0.77c-2.99,2.29-6.28,4.16-9.76,5.53c0.31,0.24,0.05,0.74-0.21,1.04c-2.26,2.56-4.52,5.11-6.77,7.67
				c1-0.26,1.95-0.73,2.77-1.39c-0.2,0.26-0.39,0.51-0.59,0.77c1.55-0.8,3.06-1.69,4.51-2.66c0.25,0.37-0.11,0.84-0.44,1.13
				c-1.09,0.97-2.18,1.93-3.27,2.9c0.2,0.18,0.48,0.26,0.74,0.2c-0.02,1.42-0.04,2.84-0.06,4.26c0.49-2.73,2.49-5.11,5.04-5.99
				c-0.28,0.8-0.72,1.55-1.29,2.16c0.49-0.06,0.99-0.12,1.48-0.18c-0.33,0.7-0.67,1.39-1,2.09c1.19-0.98,2.2-2.18,2.97-3.53
				c-0.03,0.46-0.06,0.91-0.09,1.37c0.16,0.13,0.39-0.04,0.5-0.22c0.11-0.18,0.2-0.4,0.4-0.44c0.13-0.03,0.22,0.12,0.22,0.23
				c0.24-0.35,0.58-0.62,0.97-0.77c-0.24,0.7-0.74,1.3-1.38,1.65c1.99-1.33,3.99-2.66,5.98-3.99c1.19-0.8,2.52-1.63,3.93-1.46
				c0.62,0.07,1.2,0.33,1.78,0.58c1.53,0.66,3.08,1.27,4.63,1.87c0.99,0.39,1.99,0.78,2.98,1.17c1.09,0.43,2.17,0.85,3.29,1.18
				c1.61,0.48,3.29,0.75,4.96,0.8c-1.88,2.78-3.46,5.77-4.69,8.91c-1.87,4.75-5.12,8.63-8.08,12.75c-0.95,1.32-1.93,2.65-2.51,4.19
				c-0.16,0.43-0.29,0.87-0.42,1.3c-0.45,1.54-0.9,3.15-0.6,4.73c2.49,1.81,4.17,4.53,5.79,7.19c4.15,6.79,8.32,13.6,11.53,20.91
				c2.06,4.69,5.33,8.91,5.9,14.02c0.1,0.92,0.17,1.9,0.63,2.68C50.59,142.12,52.19,142.12,53.79,142.13z"/>
			<path class="st5" d="M45.46,65.47c1.03-0.22,1.93-0.98,2.35-1.97c-0.13-0.17-0.42,0.11-0.31,0.29c0.11,0.19,0.4,0.16,0.55,0
				c0.15-0.16,0.19-0.38,0.23-0.6c0.12,0.17,0.24,0.34,0.37,0.51c0.1-0.32,0.2-0.64,0.3-0.96c0.47,1,1.94,0.81,2.85,0.21
				c0.91-0.6,1.78-1.49,2.85-1.43c0.57,0.03,1.13,0.34,1.69,0.23c0.52-0.1,0.97-0.55,1.49-0.48c0.24,0.04,0.45,0.18,0.68,0.27
				c0.46,0.18,0.97,0.13,1.45,0.03c1.75-0.36,3.38-1.3,4.61-2.63c0.17-0.19,0.35-0.39,0.6-0.44c0.25-0.05,0.54,0.19,0.46,0.43
				c0.25-0.87,0.76-1.93,1.64-1.83c0.86,0.09,1.27,1.29,2.12,1.44c0.23,0.04,0.46,0,0.69,0.05c0.32,0.06,0.58,0.28,0.84,0.47
				c0.91,0.66,2.04,1.1,3.15,0.92c0.51-0.08,1-0.29,1.51-0.28c0.37,0.01,0.73,0.13,1.09,0.24c1.75,0.55,3.56,0.89,5.39,1.03
				c-0.51,0.27-1.07,0.39-1.63,0.49c-6.6,1.1-13.68-1.89-19.9,0.66c-1.8,0.74-3.33,1.67-5.31,1.7c-1.4,0.02-2.01,0.09-2.88,1.26
				c-0.68,0.92-1.15,1.93-2.41,2.12C48.14,67.46,47.2,65.1,45.46,65.47z"/>
			<path class="st6" d="M41.08,63.12c0.01,0.69,0.46,1.43,1.13,1.49c0.02,0.38-0.47,0.51-0.83,0.59s-0.79,0.47-0.53,0.75
				c-4.39-0.6-8.63-2.34-12.23-5c0.17,0.75-0.92,1.17-1.6,0.84c-0.68-0.33-1.15-1.01-1.84-1.31c-1.03-0.45-2.2,0.11-3.19,0.65
				c-2.88,1.58-5.77,3.16-8.65,4.73c0.43-0.76,1.05-1.41,1.78-1.88c-0.79-0.09-1.61,0.18-2.21,0.72c0.93-0.96,1.86-1.93,2.79-2.89
				c-3.84,1.02-7.3,3.48-9.6,6.81c-0.13-0.76-0.12-1.54,0.01-2.3c-0.22,0.17-0.43,0.34-0.65,0.51c0.2-2.95,2.73-5.54,5.59-5.73
				c-0.39,0.37-0.78,0.75-1.17,1.12c0.84-0.16,1.68-0.32,2.52-0.49c-0.24,0.2-0.48,0.39-0.72,0.59c1.02-0.79,2.03-1.59,3.05-2.38
				c-0.54,0.05-1.08,0.11-1.61,0.16c1.43-0.43,2.94-0.57,4.42-0.39c0.87,0.1,1.74,0.31,2.6,0.15c1.6-0.28,2.91-1.76,4.54-1.72
				c-0.24,0-0.49,0-0.73,0c0.73-0.44,1.69-0.44,2.43,0c0.09-0.37,0.19-0.74,0.28-1.11c-0.3,0.61,0.34,1.39,1,1.34
				c0.66-0.05,1.17-0.71,1.25-1.39c0.08,0.46,0.38,0.87,0.78,1.08c0.18-0.48,0.49-0.9,0.89-1.21c-0.15,0.73,0.59,1.38,1.31,1.41
				c0.72,0.04,1.39-0.34,2.03-0.67s1.37-0.64,2.06-0.46c-0.1,0.48-0.3,0.94-0.58,1.33c0.45,0.06,0.3,0.83-0.09,1.06
				c-0.39,0.24-0.92,0.31-1.14,0.72c0.52,0.28,1.2,0.21,1.66-0.16c-0.09,0.3-0.19,0.6-0.28,0.9c1-0.09,1.9-0.91,2.1-1.93
				c-0.26-0.08-0.52-0.16-0.78-0.24c0.09-0.45,0.34-0.86,0.7-1.13c-0.12-0.19-0.24-0.37-0.36-0.56c0.54-0.31,1.16-0.48,1.79-0.49
				c-0.17,1.26-0.11,2.54,0.18,3.78c0.09-0.22,0.3,0.15,0.35,0.39c0.21,0.93,1.7,0.12,2.23,0.36
				C41.45,61.76,41.08,62.39,41.08,63.12z"/>
			<path class="st7" d="M30.01,50.85c-0.63,1.51-0.86,3.19-0.68,4.82c-0.39-0.33-0.77-0.66-1.16-0.99c0,1.44,1.57,2.85,0.83,4.08
				c-0.39,0.43-1.12,0.33-1.56-0.06c-0.43-0.39-0.64-0.98-0.82-1.54c-0.19,0.7-0.76,1.27-1.44,1.46c-0.02-0.97-0.03-1.94-0.05-2.91
				c-0.18,0.22-0.36,0.43-0.54,0.65c0.07-0.68,0.14-1.36,0.21-2.04c-0.18,0.15-0.36,0.3-0.54,0.45c0.09-0.27,0.17-0.54,0.26-0.81
				c-0.13,0.22-0.26,0.44-0.39,0.66c0.07-0.29,0.14-0.58,0.2-0.87c-0.04,0.27-0.35,0.47-0.6,0.37c0.91-1.28,1.42-2.86,1.43-4.45
				c-1.19,1.96-1.92,4.2-2.12,6.5c-0.63-0.36-1.04-1.09-1.03-1.84c-0.44,1.09-0.68,2.26-0.72,3.44c-0.41-1.22-0.58-2.53-0.48-3.82
				c-0.22,1.26-0.55,2.49-0.99,3.68c-0.27-1.57-0.13-3.21,0.38-4.72c-0.46,0.65-0.92,1.29-1.38,1.94c0.12-0.62,0.24-1.24,0.36-1.86
				c-0.48,0.39-1.01,0.7-1.57,0.94c-0.04-0.35,0.07-0.71,0.31-0.96c-0.56,0.36-1.11,0.72-1.67,1.08c-0.01-0.23-0.02-0.45-0.03-0.68
				c-1.15,0.94-2.38,1.76-3.68,2.46c0.54-0.96,1.07-1.92,1.61-2.88c-1.37,1.47-3.33,2.34-5.31,2.34c0.66-0.14,1.31-0.28,1.97-0.42
				c-1.78,0.73-3.4,1.87-4.7,3.32c1.05-0.79,2.17-1.48,3.36-2.03c-3.14,2.69-6.05,5.68-8.66,8.92c0.88-1.58,2.13-2.93,3.62-3.91
				c-1.2,1.5-2.42,3.05-2.95,4.91c0.91-1.53,2.05-2.92,3.35-4.12c-0.59,0.81-1.19,1.61-1.78,2.42c1.43-1.51,3.03-2.83,4.76-3.94
				c-0.55,0.81-1.1,1.62-1.65,2.43c0.93-0.93,2.07-1.64,3.29-2.07c-1.18,1.43-2.36,2.86-3.54,4.3c0.96-1.19,1.99-2.32,3.08-3.39
				c-0.16,0.47-0.32,0.94-0.47,1.41c0.35-0.49,0.81-0.88,1.34-1.13c-0.33,0.72-0.72,1.41-1.16,2.06c0.75-1.28,1.82-2.32,2.88-3.34
				c1.12-1.09,2.25-2.18,3.37-3.26c-0.24-0.09-0.54,0.01-0.69,0.24c0.67-0.87,1.46-1.65,2.32-2.32c-0.33,0.52-0.56,1.1-0.68,1.7
				c0.53-0.41,1.06-0.81,1.59-1.22c-0.05,0.34-0.11,0.68-0.16,1.02c0.28-0.14,0.56-0.28,0.84-0.42c0.01,0.24,0.01,0.47,0.02,0.71
				c1.01-0.15,2.05,0.68,2.18,1.72c0.55-0.28,1.06-0.63,1.53-1.04c-0.14,0.48-0.27,0.96-0.41,1.44c0.38-0.63,0.81-1.22,1.29-1.76
				c0.48,0.32,0.97,0.64,1.45,0.95c0.51,0.34,1.04,0.68,1.64,0.78c0.52,0.09,1.09-0.01,1.57,0.23c0.28,0.14,0.51,0.37,0.8,0.48
				c0.53,0.18,1.08-0.13,1.56-0.42c0.65-0.4,1.29-0.8,1.94-1.21c-0.5-0.08-0.79-0.69-0.72-1.2c0.12-0.49,0.32-0.93,0.64-1.33
				c-0.21,0.3-0.48,0.55-0.72,0.82c0.1-0.84-0.75-0.68-1.03-1.28C29.46,54.38,29.98,51.94,30.01,50.85z"/>
			<path class="st8" d="M94.18,3.31c-1.95-2.89-5.9-3.93-9.16-2.87c-3.26,1.06-5.78,3.92-7.05,7.19c-1.27,3.27-1.42,6.91-1.02,10.41
				c0.44,3.94,1.54,7.79,3.24,11.35c1.66,3.47,3.88,6.66,5.24,10.26c0.76,2.01,1.25,4.14,1.44,6.29c0.18,2.03,0.08,4.16-0.85,5.96
				c-0.93,1.79-2.86,3.15-4.81,2.87c-2.67-0.39-4.12-3.36-5.01-5.98c-1.3-3.81-2.53-7.91-5.5-10.53c-3.48-3.07-8.46-3.34-13.04-3.29
				c-2.85,0.03-5.71,0.12-8.51,0.65c-5.53,1.04-10.83,3.75-16.44,3.55c0.05,0.83,0.46,1.62,1.09,2.13
				c-4.34-0.05-7.49,4.49-11.74,5.38c-0.29,0.06-0.62,0.13-0.8,0.38c-0.17,0.25,0.02,0.72,0.3,0.63c-0.68,0.11-1.36,0.22-2.04,0.33
				c-0.62,1.59-1.81,2.93-3.28,3.72c-1.33,0.72-2.76,1.37-4.01,2.24c-0.97,0.67-2.15,1.03-3.33,1c0.62,0.46,1.44,0.63,2.19,0.45
				c-0.52,0.43-0.97,0.94-1.35,1.5c1.33-0.61,2.52-1.54,3.45-2.7c0.01,0.42,0.03,0.84,0.04,1.26c1.06-0.6,2.06-1.29,3-2.07
				c0.08,0.49,0.01,1.01-0.19,1.46c0.74-0.27,1.41-0.72,1.94-1.31c0.3,0.24,0.63,0.43,0.99,0.56c0.42-0.33,0.85-0.67,1.27-1
				c-0.48,1.49-0.63,3.09-0.46,4.65c0.18-1.05,0.55-2.06,1.09-2.96c-0.03,0.95,0.29,1.9,0.89,2.62c-0.07-0.55,0.06-1.12,0.34-1.59
				c-0.11,0.34,0.14,0.76,0.49,0.8c0.43-2.85,1.55-5.59,3.23-7.9c-0.51,0.69-0.48,1.63-0.53,2.5c-0.04,0.87-0.28,1.86-1.04,2.23
				c0.54-0.06,1.07-0.25,1.53-0.54c-0.04,2.36,1.03,4.71,2.82,6.17c-0.3-0.69-0.44-1.46-0.41-2.21c0.23,0.03,0.45,0.06,0.68,0.08
				c0.12-0.39,0.15-0.82,0.1-1.23c0.32,0.52,0.74,0.97,1.23,1.32c-0.3-0.52-0.6-1.04-0.9-1.55c0.32,0.09,0.64,0.17,0.96,0.26
				c-0.2-0.4-0.41-0.79-0.61-1.19c0.08,0.2,0.31,0.33,0.52,0.27c-0.36-0.84-0.26-1.87,0.25-2.63c0.73,0.91,0.65,2.39-0.17,3.2
				c0.29,0.31,0.89,0.15,1-0.26c0.06,0.35-0.01,0.72-0.19,1.02c0.72-0.25,1.3-0.87,1.53-1.61c0.08,0.33,0.17,0.66,0.25,0.99
				c0.24-0.17,0.48-0.34,0.71-0.52c-0.46,0.96-1.41,1.66-2.45,1.79c0.1,0.45,0.69,0.68,1.05,0.41c-0.24,0.24-0.47,0.47-0.71,0.71
				c1.16,0.34,2.49-0.13,3.22-1.12c0.06,0.26,0.13,0.52,0.19,0.79c0.63-0.52,1.27-1.03,1.9-1.55c0.12,1.46-0.76,2.96-2.08,3.52
				c0.25,0.28,0.59,0.47,0.95,0.54c-0.2,0.18-0.4,0.36-0.6,0.54c0.33,1.07,1.77,1.22,2.8,0.87s2.07-0.98,3.14-0.75
				c0.6,0.13,1.12,0.54,1.71,0.73s1.38,0.05,1.59-0.55c0.18,0.17,0.16,0.52-0.04,0.67c0.51-0.06,1.01-0.26,1.43-0.57
				c-0.15,0.37,0.32,0.82,0.67,0.64c-0.14,0.26-0.39,0.44-0.53,0.7c0.66,0.1,1.34,0.02,1.96-0.22c-0.09,0.24-0.19,0.48-0.28,0.72
				c0.61-0.05,1.23-0.11,1.84-0.17c-0.39,0.14-0.38,0.78-0.05,1.02c0.34,0.24,0.81,0.15,1.16-0.06s0.63-0.54,0.96-0.79
				c1.23-0.93,2.92-0.71,4.42-0.44c0.27,0.05,0.55,0.1,0.82,0.15c0.45,0.08,0.9,0.16,1.36,0.13c0.82-0.05,1.58-0.46,2.29-0.88
				c1.4-0.84,2.74-1.8,3.99-2.87c0.58-0.5,1.33-1.06,2.03-0.77c0.26,0.11,0.47,0.33,0.7,0.5c0.59,0.45,1.34,0.63,2.06,0.8
				c5.45,1.28,11.2,2.55,16.54,0.85c2.35-0.75,3.99-2.97,5.26-5.14c1.42-2.44,1.68-5.45,1.26-8.26c-0.41-2.81-1.45-5.48-2.48-8.12
				c-0.64-1.64-1.28-3.29-2-4.9c-1.83-4.07-4.18-7.92-5.52-12.19s-1.52-9.23,0.86-12.99c3.01,1.79,6.57,2.57,10.03,2.17
				c-0.36-1.16-0.94-2.22-1.77-3.08c-0.19-0.19-0.39-0.39-0.47-0.65C90.67,6.88,90.82,6.5,91,6.18c0.04-0.08,0.09-0.16,0.09-0.25
				c0.01-0.23-0.27-0.36-0.49-0.34s-0.43,0.13-0.66,0.12c-0.44-0.02-0.74-0.5-0.77-0.95c-0.03-0.64,0.39-1.29,0.98-1.49
				c0.59-0.21,1.31,0.04,1.66,0.58c0.16,0.25,0.29,0.58,0.58,0.63c0.2,0.04,0.39-0.07,0.56-0.18C93.46,3.98,93.66,3.63,94.18,3.31z"
				/>
			<path class="st9" d="M34.98,49.11c-0.77,1.36-0.9,2.98-1.01,4.55c-0.44-0.58-0.71-1.29-0.78-2.02c-0.21,1.39-0.42,2.79-0.63,4.18
				c-0.3-0.11-0.55-0.35-0.67-0.65c-0.41,0.45-0.82,0.91-1.23,1.36c-0.31-1.93-0.29-3.91,0.06-5.83c-0.74,0.63-1.15,1.66-1.04,2.65
				c-0.1-1.61-0.21-3.22-0.31-4.84c-0.51,2.49-0.37,5.12,0.38,7.55c-0.25-0.38-0.5-0.77-0.76-1.15c0.03,0.66,0.2,1.32,0.47,1.92
				c-0.28-0.42-0.5-0.87-0.66-1.35c-0.03,0.83-0.07,1.65-0.1,2.48c-0.01,0.26-0.04,0.56-0.24,0.73c-0.43,0.36-0.98-0.26-1.18-0.79
				c-0.73-1.95-1.04-4.06-0.88-6.15c-0.37,0.38-0.74,0.77-1.11,1.15c0.04-0.68,0.08-1.36,0.12-2.04c-0.07,0.25-0.27,0.45-0.51,0.53
				c0.06-1.38,0.43-2.75,1.08-3.95c-1.39,2.64-2.34,5.53-2.78,8.51c-0.2-0.3-0.4-0.61-0.59-0.91c-0.46,0.79-0.93,1.59-1.39,2.38
				c-0.07-0.41-0.14-0.82-0.2-1.23c-0.04,0.61-0.23,1.21-0.56,1.71c0.02-1.11,0.05-2.22,0.07-3.33c-0.33,1.2-0.74,2.39-1.21,3.54
				c-0.22-1.76,0.04-3.58,0.75-5.2c-0.41,0.46-0.9,0.86-1.43,1.16c0.26-0.44,0.41-0.95,0.44-1.46c-0.39,0.05-0.78,0.1-1.18,0.14
				c1.28-1.99,2.9-3.75,4.75-5.18c-0.53-0.04-1.07,0.14-1.48,0.48c2.42-2.41,5.56-3.85,8.63-5.25c3.1-1.41,6.25-2.84,9.6-3.38
				c3.38-0.54,6.94-0.17,10.15-1.39c-2.66,1.01-5.01,3.91-7.36,5.56C39.83,45.25,36.48,46.45,34.98,49.11z"/>
			<path class="st9" d="M71.77,45.7c-0.38,2.25-2.17,4.18-4.34,4.67c-0.55,0.12-1.14,0.17-1.6,0.5c-1.19,0.83-0.84,2.74-1.51,4.06
				c-0.23,0.45-0.59,0.84-1.03,1.09c-0.36,0.2-0.77,0.32-1.1,0.57c-0.41,0.3-0.67,0.75-0.99,1.14c-0.97,1.16-2.57,1.73-4.03,1.41
				c1.16-0.75,2.23-1.66,3.16-2.7c-0.92,0.26-1.93,0.14-2.76-0.32c0.68-0.17,1.36-0.34,2.04-0.51c-0.62,0.09-1.28-0.21-1.64-0.75
				c1.49,0.38,3.15-0.04,4.3-1.09c-5.71-0.12-11.23-3.67-13.85-8.91c2.31,1.61,4.62,3.22,6.93,4.82c0.93,0.65,1.93,1.32,3.05,1.31
				c-2.59-1.9-5.27-3.91-6.7-6.83c1.23,0.96,2.45,1.92,3.68,2.88c-0.42-0.75-0.84-1.5-1.26-2.24c1.77,2.27,4.52,3.68,7.34,3.77
				c-1.97-0.77-3.59-2.45-4.31-4.49c1.53,1.49,3.38,2.63,5.37,3.3c-1.44-0.98-2.52-2.51-2.99-4.23c0.54,0.42,1.08,0.84,1.62,1.26
				c-0.45-0.64-0.9-1.29-1.35-1.93c2.26,1.52,4.8,2.58,7.44,3.11c-0.67-0.08-1.31-0.37-1.82-0.81c0.72-0.15,1.37-0.61,1.75-1.26
				c-0.36-0.01-0.72-0.03-1.09-0.04c0.5-0.29,0.93-0.72,1.23-1.23c-0.42,0.01-0.84-0.27-0.99-0.68c0.49,0.24,1.03-0.42,0.9-0.97
				c-0.13-0.54-0.63-0.89-1.13-1.12c0.24-0.64,1.04-0.89,1.69-0.73C70.42,39.38,72.2,43.17,71.77,45.7z"/>
			<path class="st10" d="M90.55,2.21c-0.83-0.42-1.81-0.8-2.64-0.39c-0.83,0.41-1.17,1.53-0.89,2.43c0.28,0.9,1.05,1.57,1.9,1.93
				c0.85,0.36,1.78,0.44,2.7,0.49c0.17,0.01,0.38,0,0.46-0.16c0.1-0.18-0.06-0.4-0.23-0.51c-0.52-0.35-1.18-0.36-1.76-0.6
				C89.51,5.17,89,4.47,89.33,3.92c0.26-0.42,0.84-0.45,1.32-0.42c0.19,0.01,0.4,0.03,0.55,0.16c0.27,0.26,0.13,0.73,0.29,1.07
				c0.39,0.83,1.96,0.83,1.64-0.27C92.84,3.47,91.37,2.62,90.55,2.21z"/>
			<path class="st11" d="M98.19,18.65c-0.23-0.86-0.45-1.72-0.68-2.58c-0.11-0.42-0.24-0.88-0.59-1.14
				c-0.35-0.26-0.83-0.25-1.2-0.49c-0.99-0.63-0.63-2.59-1.73-2.98c-0.5-0.17-1.02,0.1-1.53,0.23c-1.1,0.29-2.25-0.09-3.32-0.49
				c-1.38-0.51-2.75-1.07-4.1-1.66c-0.36-0.16-0.74-0.32-1.12-0.25c-0.22,0.04-0.41,0.15-0.59,0.28c-1.59,1.07-2.4,3.07-2.53,5.02
				s0.35,3.89,0.87,5.77c0.52,1.91,1.09,3.82,1.95,5.59c1.07,2.21,2.59,4.18,3.54,6.44c0.64,1.54,1.01,3.19,1.66,4.72
				c0.46,1.09,1.06,2.11,1.53,3.2c1.93,4.45,1.55,9.61,0.38,14.33c-0.27,1.1-0.6,2.22-1.27,3.12c-0.75,1.01-1.84,1.67-2.91,2.31
				c0,0.12-0.31-0.29-0.31-0.17c-1.73,0.37-2.98,1.05-4.67,1.56c-4.79,1.43-9.87-0.07-14.83-0.54c-1.11-0.11-2.24-0.16-3.35,0.02
				c-2.45,0.4-4.64,1.9-7.09,2.27c-1.55,0.23-3.37,0.1-4.42,1.31c-0.47,0.55-0.68,1.28-1.08,1.89c-0.4,0.61-1.15,1.11-1.8,0.81
				c-0.66-0.3-0.81-1.2-1.33-1.72c-0.63-0.64-1.83-0.49-2.3,0.29c-0.97-1.52-3.48-1.55-4.48-0.06c-1.85,0.7-3.9,0.05-5.67-0.84
				c-1.77-0.9-3.34-2.16-5.09-3.1c-0.43-0.23-0.94-0.45-1.4-0.27c-0.23,0.09-0.42,0.27-0.66,0.37c-0.81,0.32-1.55-0.55-2.28-1.04
				c-1.51-1.02-3.55-0.43-5.11,0.52s-2.98,2.23-4.74,2.63c-0.68,0.15-1.42,0.19-1.97,0.62c-0.33,0.26-0.55,0.63-0.82,0.96
				c-0.87,1.04-2.19,1.52-3.46,1.95c0.38-0.8,0.84-1.56,1.38-2.25c-0.42,0.32-0.94,0.5-1.46,0.5c0.43-1.28,1.4-2.34,2.61-2.86
				c-2.35,0.51-4.41,2.26-5.36,4.54c-0.28,0.69-0.54,1.5-1.21,1.8c-0.33-1.14-0.29-2.4,0.11-3.52c-0.29-0.01-0.58-0.02-0.88-0.03
				c1-1.47,2.14-2.83,3.39-4.08c-1.24,0.66-2.48,1.33-3.73,1.99c-0.66,0.35-1.37,0.77-1.6,1.49c0.18-0.38,0.35-0.76,0.53-1.14
				c-0.67,0.52-1.23,1.19-1.63,1.95c0.1-0.45,0.19-0.9,0.29-1.36c-0.83,0.58-1.55,1.33-2.11,2.2c0.1-0.92,0.45-1.82,1-2.55
				c-0.29,0.23-0.7,0.28-1.03,0.13c0.46-0.77,1.07-1.43,1.8-1.94c0.03,0.15,0.06,0.31,0.08,0.46c1.26-1.66,2.76-3.12,4.44-4.32
				c-0.54,0.37-1.08,0.75-1.62,1.12c1.47-1.88,3.46-3.33,5.67-4.12c-0.6-0.01-1.19-0.02-1.79-0.03c3.77-2.09,7.54-4.17,11.3-6.26
				c-0.23,0.02-0.43-0.22-0.39-0.45c0.3-0.44,0.75-0.75,1.26-0.86c0.22-0.05,0.45-0.06,0.67-0.14c0.27-0.1,0.48-0.3,0.7-0.5
				c3.35-3.02,7.53-4.84,11.63-6.61c-0.27-0.18-0.53-0.35-0.8-0.53c1.3-0.47,2.74-0.51,4.07-0.12c6.97-3.67,15.14-5.33,22.96-5.02
				c3.29-0.39,6.76,0.71,9.55,2.56c2.79,1.85,4.93,4.71,5.96,7.96c0.77,2.42,1.02,5.19,2.77,6.98c1.13,1.15,2.72,1.69,4.26,2.08
				c3.23-2.06,4.78-6.45,4.28-10.33s-2.36-7.41-4.09-10.9c-2.48-5.01-4.78-10.27-5.17-15.88c-0.21-3.02,0.65-6.02,1.7-8.84
				c1.07-2.87,2.66-5.67,5.14-7.37c0.82-0.57,1.75-1,2.74-1.1c1.38-0.13,2.73,0.41,3.97,1.06c3.54,1.86,6.54,4.63,9.5,7.37
				c0.61,0.56,1.22,1.14,1.62,1.87c0.48,0.87,0.61,1.88,0.73,2.87c-0.32,0.25-0.64,0.5-0.96,0.75c-0.02,0.21-0.05,0.41-0.07,0.62
				c-0.02-2.05-1.32-3.92-2.98-5.05c-1.66-1.13-3.64-1.64-5.59-2.01c0.4,1.14,1.89,1.22,3.02,1.58c1.42,0.46,2.54,1.66,3.22,3.03
				s0.97,2.9,1.19,4.43c-0.16-0.22-0.53-0.08-0.66,0.16c-0.13,0.24-0.12,0.54-0.2,0.81C99.72,18.23,98.76,18.84,98.19,18.65z"/>
			<path class="st12" d="M86,10.08c-0.96-0.37-2.09-0.77-2.95-0.19c-0.65,0.43-0.91,1.28-1.5,1.8c-0.13-1.16,0.89-2.13,1.09-3.28
				c0.21-1.21-0.54-2.47-0.24-3.66c1.41,3.22,4.68,5.49,8.11,5.61c0.38,0.01,2.21-0.12,2.4,0.33c0.32,0.74-1,0.7-1.36,0.7
				C89.64,11.35,87.77,10.76,86,10.08z"/>
			<path class="st13" d="M91.94,6.28c-0.44,0.08-0.96,0.14-1.3-0.17c-0.19-0.17-0.3-0.43-0.52-0.55c-0.25-0.13-0.55-0.03-0.82-0.12
				c-0.42-0.13-0.58-0.7-0.45-1.12s0.49-0.74,0.84-1.01c0.24-0.18,0.48-0.35,0.74-0.51c0.07-0.05,0.15-0.09,0.24-0.08
				c0.09,0.01,0.16,0.09,0.22,0.16c0.39,0.45,1.27,1.12,1.46,1.7C92.48,4.95,92.35,6.2,91.94,6.28z"/>
			<path class="st14" d="M90.5,3.84c0.36,0.09,0.79,0.23,0.89,0.6c0.09,0.31-0.11,0.64-0.37,0.8c-0.27,0.16-0.59,0.18-0.9,0.19
				c-0.29,0-0.61-0.03-0.79-0.26c-0.19-0.26-0.09-0.65,0.11-0.91c0.29-0.39,0.78-0.62,1.26-0.59"/>
			<path class="st15" d="M90.57,4.03c0.3,0.31,0.15,0.95-0.26,1.07c-0.41,0.13-0.88-0.31-0.79-0.75s0.68-0.65,1.01-0.36"/>
			<path class="st16" d="M90.25,4.25c-0.16-0.09-0.35-0.1-0.52-0.02c-0.07,0.17,0.14,0.35,0.31,0.33c0.18-0.02,0.31-0.17,0.43-0.31
				c-0.06-0.06-0.16-0.09-0.24-0.05"/>
			<path class="st17" d="M91.71,9.99c0.41,0.38,0.97,0.53,1.38,0.9c0.38,0.33,0.82,1.24,1.33,1.98c0.51,0.74,1.08,1.31,1.26,1.44
				c1.2,0.86,2.09,2.16,2.48,3.62c0.09,0.35,0.21,0.77,0.55,0.88c0.39,0.12,0.75-0.3,0.89-0.69s0.21-0.87,0.54-1.12
				c0.17-0.14,0.4-0.2,0.55-0.37c0.11-0.13,0.15-0.31,0.17-0.48c0.38-2.23-0.59-4.76-2.56-5.75c-0.96-0.48-2.07-0.58-3.02-1.08
				c-0.18-0.09-0.37-0.26-0.33-0.45c0.02-0.1,0.11-0.18,0.19-0.23c0.63-0.42,1.47-0.21,2.15,0.12c2.31,1.1,4.04,3.4,4.5,5.98
				c0.45-0.09,0.5-0.72,0.44-1.18c0.24-0.05,0.5,0.01,0.69,0.16c0.44-1.09-0.22-2.3-0.93-3.22c-1.74-2.25-3.94-4.08-6.12-5.88
				c-0.46-0.38-0.96-0.77-1.55-0.77c-0.75,0-1.58,0.65-2.16,0.16C92,3.86,91.9,3.65,91.77,3.48c-0.61-0.82-2.04-0.73-2.55,0.16
				c0.63-0.35,1.44-0.48,2.06-0.1c1.67,1.03-0.38,1.88-0.61,2.69C90.42,7.08,91.07,9.4,91.71,9.99z"/>
			<path class="st18" d="M90.29,6.09c1.4,0.76,0.6,3.32,1.84,4.32c0.4,0.32,0.94,0.41,1.37,0.7c1.04,0.71,1.11,2.41,2.18,3.08
				c0.35,0.22,0.77,0.3,1.07,0.58c0.22,0.2,0.34,0.48,0.46,0.76c0.91,2.11,1.66,4.29,2.24,6.52c0.23,0.89,0.27,1.69,0.62,2.53
				c0.05,0.12,0.11,0.25,0.2,0.34c0.42,0.38,1-0.22,1.22-0.75c0.99-2.37,1.43-4.95,1.77-7.51c0.19-1.42,0.33-2.89-0.1-4.25
				c-0.42-1.28-1.32-2.33-2.2-3.34c-0.51-0.59-1.16-1.23-1.92-1.11c0.27,0.51,0.53,1.03,0.8,1.54c-0.43,0.21-0.94-0.01-1.31-0.32
				c-0.37-0.31-0.68-0.71-1.1-0.91c-0.7-0.34-1.62-0.12-2.23-0.62c-0.22-0.18-0.37-0.43-0.62-0.56c-0.6-0.32-1.58,0.18-1.89-0.44
				c-0.1-0.21-0.07-0.47-0.2-0.66C92.05,5.35,90.84,6.61,90.29,6.09z"/>
			<path class="st19" d="M102.43,21.06c-0.04,0.81-0.08,1.63-0.35,2.38c-0.28,0.75-0.85,1.44-1.62,1.62
				c-0.64-2.05-1.28-4.09-1.91-6.14c0.48,0.02,0.65-0.63,0.85-1.08c0.21-0.47,0.61-0.81,0.91-1.22c0.91-1.23,0.88-3.03,0.15-4.38
				s-2.07-2.27-3.5-2.73c-1.15-0.37-2.44-0.52-3.3-1.38c3.75-0.08,7.36,2.82,8.2,6.59c-0.06-0.27,0.52-1.13,0.43-1.67
				c1.55-0.04,0.76,1.71,0.62,2.54C102.58,17.37,102.52,19.25,102.43,21.06z"/>
			<path class="st20" d="M99.28,9.07C98.36,9,97.48,8.45,97,7.63c0.76,0.39,1.5,0.82,2.22,1.27c0.12,0.08,0.26,0.23,0.17,0.34"/>
			<path class="st21" d="M50.6,141.51c-0.12-6.2-0.23-12.4-0.33-18.59c-0.08-4.95-0.55-10.07-0.67-15.02
				c-0.02-0.91-0.05-1.84,0.14-2.73c0.16-0.77,0.48-1.51,0.63-2.29c0.18-0.99,0.07-2.03-0.31-2.95c-0.19-0.45-0.44-0.87-0.58-1.34
				c-0.16-0.54-0.17-1.11-0.17-1.68c-0.03-3.53-0.06-7.06-0.08-10.6c-0.05-6.5,0.87-13.1,1.83-19.52c0.06-0.43,0.1-0.91-0.26-0.69
				c-0.87,0.52-2.07-0.94-2.85-0.29c-0.32,0.26-0.35,0.74-0.35,1.16c-0.11,7.07-0.22,14.13-0.33,21.2
				c-0.04,2.49-0.08,5.02-0.85,7.38c-0.27,0.82-0.8,1.68-0.9,2.54c0.14,0.18,0.27,0.35,0.41,0.53c-0.49,0.06-0.48,0.8-0.33,1.28
				c1.18,3.86,1.82,7.89,1.9,11.93c0.04,2.39-0.11,4.8,0.3,7.15c1.3,7.5,0.13,15.25,0.31,22.87c0,0.09,0,0.18,0.01,0.27
				c0.86,0,1.71,0,2.56,0C50.62,141.92,50.6,141.71,50.6,141.51z"/>
			<path class="st22" d="M28.72,99.01c0.01,0.08,0.01,0.16-0.04,0.22c-0.12,0.16-0.36,0-0.48-0.16c-0.35-0.47-0.71-0.94-1.06-1.4
				c-0.46-0.62-0.91-1.67,0.23-1.06C28.08,96.98,28.66,98.24,28.72,99.01z"/>
			<path class="st22" d="M36.41,113.93c-3.01-4.97-6.31-9.75-9.9-14.29c-1.13-1.43-2.23-3.04-1.83-4.83c0.4,1.45,1.12,2.8,2.07,3.94
				c0.79,0.94,1.75,1.73,2.52,2.7c0.52,0.65,0.94,1.38,1.36,2.1c1.52,2.61,3.03,5.22,4.55,7.83"/>
			<path class="st22" d="M46.04,94.32c-0.27,1.76-0.98,3.49-0.76,5.26c0.12,0.97,0.51,1.87,0.81,2.79c0.88,2.72,0.95,5.64,1.01,8.51
				c0.44-2.36,0.86-4.87-0.01-7.1c-0.14-0.36-0.32-0.74-0.23-1.11c0.09-0.37,0.61-0.63,0.84-0.32c0.12-0.32-0.12-0.67-0.39-0.87
				s-0.6-0.35-0.77-0.64c-0.18-0.29-0.06-0.79,0.27-0.81c-0.09-0.22-0.17-0.45-0.26-0.67c0.5,0.03,0.98,0.29,1.28,0.7
				c-0.33-0.61-0.84-1.11-1.45-1.4c0.25-0.33,0.78-0.4,1.1-0.13c-0.19-0.46-0.63-0.81-1.11-0.87c-0.04-0.37,0.12-0.76,0.4-0.99
				c-0.59-0.39-0.38-1.31-0.15-1.99c0.54-1.63,0.79-3.36,0.73-5.08c-0.04-1.05-0.04-2.83-0.7-3.67c-0.41,0.8-0.27,2.07-0.3,2.96
				C46.28,90.69,46.31,92.54,46.04,94.32z"/>
			<path class="st23" d="M53.78,142.13c-2.27-4.13-4.52-8.27-6.77-12.41c-0.38-0.7-0.76-1.41-1.14-2.11
				c-0.57-1.05-1.14-2.11-1.71-3.16c-3.3-6.1-6.68-12.06-9.96-18.17c-1.39-2.59-2.64-5.25-3.74-7.98c-0.4-0.98-0.78-2-0.82-3.07
				c-0.05-1.36,0.47-2.66,0.98-3.92c0.44-1.08,0.87-2.15,1.31-3.23c0.62-1.53,1.24-3.06,2.09-4.48c0.49-0.82,1.05-1.6,1.57-2.4
				c0.69-1.08,1.3-2.22,1.89-3.36c2.24-4.28,4.31-8.75,7.38-12.45c0.06,0.03,0.11,0.06,0.17,0.09c-0.76-0.93-2.18-1.47-3.22-0.89
				c-0.59,0.33-0.94,0.96-1.27,1.56c-2.62,4.83-5.25,9.67-7.87,14.5c-0.61,1.13-1.22,2.25-1.93,3.32c-0.79,1.19-1.7,2.28-2.5,3.46
				c-1.18,1.74-2.1,3.65-3.01,5.56c-0.27,0.56-0.54,1.13-0.55,1.76c-0.02,0.85,0.45,1.62,0.91,2.32c1.26,1.95,2.59,3.86,3.96,5.72
				c0.71,0.96,1.43,1.91,2.04,2.94c0.38,0.64,0.71,1.3,0.99,1.99c0.36,0.88,0.92,2.04,1.43,2.84c2.12,3.31,4.11,6.7,5.97,10.17
				c2.65,4.93,5.04,10,7.43,15.07c0.11,0.23,0.22,0.51,0.08,0.73c-0.03,1.07,0.18,1.99,0.29,3.06c0.07,0.64,0.16,1.29,0.45,1.86
				c0.12,0.25,0.28,0.47,0.45,0.69C50.39,142.12,52.09,142.12,53.78,142.13z"/>
			<path class="st24" d="M28.33,94.87c0.32,0.16,0.7,0.41,0.65,0.77c-0.02,0.11-0.07,0.23-0.06,0.34c0.04,0.27,0.47,0.38,0.44,0.65
				c-0.02,0.16-0.21,0.29-0.16,0.44c0.04,0.1,0.16,0.14,0.22,0.23c0.08,0.12,0,0.3-0.12,0.37c-0.12,0.07-0.28,0.07-0.42,0.08
				c-1.19,0.02-2.38,0.36-3.41,0.97c-0.1-0.25-0.08-0.53,0.03-0.77c-0.22-0.01-0.43-0.03-0.65-0.04c-0.02-0.23-0.04-0.46-0.06-0.69
				c-0.2,0.14-0.49,0.09-0.64-0.1c-0.15-0.19-0.12-0.5,0.05-0.66c0.09-0.08,0.21-0.13,0.29-0.22c0.39-0.44-0.43-1.27-0.01-1.68
				c0.1,0.15,0.34-0.04,0.32-0.22c-0.02-0.18-0.15-0.33-0.18-0.51c-0.07-0.34,0.32-0.67,0.63-0.54c0.01-0.46,0.03-0.92,0.04-1.38
				c0.13-0.01,0.26-0.03,0.4-0.04c-0.2-0.24-0.31-0.56-0.32-0.88c0-0.07,0.02-0.17,0.09-0.19c0.04-0.01,0.08,0,0.12,0.02
				c0.35,0.15,4.81,2.02,2.86,2.62C28.55,93.56,29.15,95.25,28.33,94.87z"/>
			<path class="st25" d="M47.49,102.9c-0.47-0.16-0.94-0.52-0.99-1.03c0.25-0.01,0.49-0.02,0.74-0.03c0.12-0.36-0.29-0.63-0.57-0.88
				c-0.34-0.31-0.53-0.78-0.51-1.24c0.2-0.06,0.42-0.07,0.62-0.01c-0.41-0.31-0.69-0.8-0.76-1.32c0.22-0.04,0.45-0.01,0.66,0.09
				c-0.2-0.3-0.26-0.68-0.16-1.03c1.29,0.75,2.57,1.49,3.86,2.24c-0.06,0.23-0.5,0.11-0.55,0.34c-0.04,0.17,0.2,0.24,0.33,0.36
				c0.22,0.19,0.04,0.64-0.24,0.62c0.16,0.2,0.32,0.43,0.33,0.7c0.01,0.25-0.2,0.44-0.41,0.52
				C51.37,104.18,48.34,103.18,47.49,102.9z"/>
			<g>
				<path class="st26" d="M3.36,64.78c-0.05,0.11-0.1,0.21-0.15,0.32C3.25,64.98,3.3,64.88,3.36,64.78z"/>
				<path class="st26" d="M54.04,142.13c-0.35-0.64-0.69-1.29-1.04-1.93c0.01,0.69,0.12,1.33,0.29,1.93
					C53.54,142.13,53.79,142.13,54.04,142.13z"/>
				<path class="st26" d="M103.41,12.4c-0.18-0.54-0.44-1.04-0.75-1.51c-0.06-0.15-0.13-0.29-0.2-0.43c-0.4-0.73-1.02-1.3-1.62-1.87
					c-2.14-1.98-4.3-3.97-6.66-5.62c-2.03-2.63-5.78-3.55-8.91-2.53c-3.26,1.06-5.78,3.92-7.05,7.19
					c-1.27,3.27-1.42,6.91-1.02,10.41c0.44,3.94,1.54,7.79,3.24,11.35c1.66,3.47,3.88,6.66,5.24,10.26
					c0.76,2.01,1.25,4.14,1.44,6.29c0.01,0.06,0.01,0.12,0.01,0.18c-0.12,3.28-1.59,6.6-4.21,8.37c-0.1,0.03-0.2,0.05-0.29,0.06
					c-1.5-0.39-3.02-0.92-4.12-2.04c-1.76-1.79-2.01-4.56-2.77-6.98c-0.54-1.7-1.38-3.29-2.46-4.69c-0.06-0.16-0.12-0.31-0.18-0.47
					c-0.52-1.34-1.76-2.2-3.12-2.89c-1.22-0.85-2.59-1.42-4.03-1.8c-1.73-0.58-3.56-0.86-5.34-0.71c-0.42-0.02-0.85-0.02-1.27-0.03
					c-1.18-0.04-2.36-0.03-3.54,0.04c-2.15,0.06-4.29,0.21-6.4,0.61c-5.53,1.04-10.83,3.75-16.44,3.55
					c0.01,0.13,0.03,0.25,0.05,0.38c-0.06,0-0.11,0-0.17,0c0.07,0.07,0.14,0.14,0.21,0.2c0.11,0.41,0.3,0.79,0.56,1.11
					c-0.64,0.28-1.28,0.55-1.91,0.84c-0.6,0.21-1.18,0.49-1.75,0.81c-2.14,1.02-4.21,2.15-6.09,3.58c-0.11,0.07-0.22,0.15-0.33,0.23
					c-0.4,0.15-0.81,0.28-1.23,0.36c-0.29,0.06-0.62,0.13-0.8,0.38c-0.17,0.25,0.02,0.72,0.3,0.63c-0.16,0.03-0.32,0.05-0.48,0.08
					c-0.29,0.03-0.59,0.07-0.88,0.1c-0.11,0.01-0.22,0.03-0.31,0.09c-0.13,0.02-0.25,0.04-0.38,0.06c-0.32,0.81-0.79,1.56-1.37,2.21
					c-2.82,1.56-5.63,3.12-8.45,4.68c-0.04,0.01-0.07,0.03-0.11,0.04c-0.23,0.02-0.46,0.04-0.69,0.03c0.1,0.07,0.2,0.14,0.31,0.19
					c-0.07,0.04-0.15,0.08-0.22,0.12C9.2,55.29,9.15,55.3,9.1,55.31c0.03,0,0.06,0,0.09,0c-0.12,0.07-0.24,0.13-0.36,0.2
					c0.31,0,0.61,0.01,0.92,0.01c0,0,0,0,0,0c-1.05,0.58-2.02,1.31-2.88,2.16c-0.7,0.58-1.35,1.24-1.92,1.97
					c0.54-0.37,1.08-0.75,1.62-1.12c-1.68,1.2-3.18,2.66-4.44,4.32c-0.03-0.15-0.06-0.31-0.08-0.46c-0.72,0.51-1.34,1.17-1.8,1.94
					c0.33,0.15,0.75,0.1,1.03-0.13c-0.55,0.74-0.89,1.63-1,2.55c0.54-0.84,1.23-1.57,2.04-2.14c-0.24,0.48-0.44,0.97-0.59,1.49
					c0.16-0.27,0.33-0.53,0.5-0.79c-0.04,0.2-0.09,0.4-0.13,0.61c0.34-0.65,0.8-1.22,1.34-1.71c-0.05,0.07-0.1,0.13-0.14,0.2
					c0.13-0.14,0.27-0.28,0.41-0.42c0.01-0.01,0.02-0.02,0.03-0.02c-0.13,0.27-0.26,0.55-0.38,0.82c0.31-0.53,0.9-0.88,1.45-1.17
					c0.58-0.31,1.16-0.62,1.74-0.93c-0.05,0.07-0.09,0.14-0.14,0.21c0.11-0.11,0.22-0.21,0.33-0.31c0.6-0.32,1.2-0.64,1.8-0.96
					c-0.51,0.51-1,1.05-1.47,1.59c-0.47,0.42-0.95,0.84-1.42,1.26c0.08,0.07,0.17,0.12,0.27,0.16c-0.26,0.35-0.52,0.71-0.77,1.07
					c0.25,0.01,0.5,0.02,0.75,0.03c-0.1,0.36-0.16,0.73-0.19,1.11c0.02-0.01,0.03-0.03,0.05-0.04c-0.12,0.81-0.08,1.66,0.15,2.45
					c0.56-0.25,0.83-0.87,1.07-1.47c1.06-1.35,2.32-2.53,3.71-3.5c-0.16,0.19-0.3,0.39-0.43,0.61c-0.06,0.07-0.13,0.15-0.19,0.22
					c0.03,0,0.06-0.01,0.08-0.01c-0.11,0.22-0.22,0.45-0.3,0.68c0.52,0,1.04-0.18,1.46-0.5c-0.54,0.69-1,1.45-1.38,2.25
					c1.26-0.43,2.59-0.91,3.46-1.95c0.27-0.32,0.49-0.7,0.82-0.96c0.1-0.08,0.22-0.15,0.33-0.2c-0.03,0.04-0.06,0.08-0.09,0.13
					c0.08,0,0.1-0.06,0.1-0.13c0.15-0.07,0.3-0.13,0.46-0.17c-0.58,0.44-1.08,1-1.44,1.64c2.88-1.58,5.77-3.16,8.65-4.73
					c0.72-0.4,1.54-0.8,2.33-0.81c0.42,0.04,0.82,0.15,1.2,0.35c0.52,0.34,0.93,0.85,1.49,1.12c0.12,0.06,0.26,0.09,0.39,0.1
					c0.22,0.06,0.44,0.07,0.66-0.02c0.16-0.06,0.3-0.17,0.44-0.26c0.56,0.22,1.13,0.44,1.69,0.67c0.41,0.16,0.81,0.32,1.22,0.48
					c0.55,0.31,1.11,0.6,1.68,0.87c0.69,0.45,1.38,0.88,2.11,1.25c1.61,0.82,3.46,1.43,5.17,1c0.09,0.01,0.18,0.03,0.27,0.04
					c-0.04,0.07-0.08,0.15-0.12,0.22c-2.62,4.83-5.25,9.67-7.87,14.5c-0.61,1.13-1.22,2.25-1.93,3.32c-0.79,1.19-1.7,2.28-2.5,3.46
					c-0.78,1.16-1.45,2.39-2.08,3.65c-0.28-0.13-0.49-0.22-0.55-0.24c-0.04-0.02-0.08-0.03-0.12-0.02
					c-0.07,0.02-0.09,0.11-0.09,0.19c0,0.32,0.12,0.64,0.32,0.88c-0.13,0.01-0.26,0.03-0.4,0.04c-0.01,0.31-0.02,0.62-0.03,0.94
					c-0.02,0.04-0.04,0.09-0.06,0.13c-0.05,0.09-0.09,0.19-0.14,0.29c-0.26,0.03-0.5,0.29-0.44,0.56c0.02,0.11,0.07,0.2,0.12,0.3
					c-0.04,0.15-0.07,0.3-0.08,0.46c-0.06,0.04-0.14,0.04-0.18-0.03c-0.3,0.28,0.02,0.78,0.1,1.21c0,0.06,0.01,0.12,0.02,0.19
					c0,0.1-0.03,0.2-0.11,0.28c-0.08,0.09-0.2,0.14-0.29,0.22c-0.17,0.16-0.2,0.47-0.05,0.66s0.44,0.24,0.64,0.1
					c0.02,0.23,0.04,0.46,0.06,0.69c0.15,0.01,0.31,0.02,0.46,0.03c0.04,0.07,0.08,0.14,0.12,0.21c-0.05,0.19-0.04,0.39,0.04,0.58
					c0.08-0.05,0.16-0.09,0.25-0.14c0.25,0.36,0.51,0.71,0.78,1.05c2.22,2.82,4.34,5.73,6.35,8.72c0.34,0.75,0.76,1.57,1.15,2.19
					c2.12,3.31,4.11,6.7,5.97,10.17c2.65,4.93,5.04,10,7.43,15.07c0.11,0.23,0.22,0.51,0.08,0.73c-0.03,1.07,0.18,1.99,0.29,3.06
					c0.05,0.5,0.12,1,0.29,1.47c0,0.23,0.01,0.46,0.01,0.69c-0.02,0.13-0.04,0.26-0.05,0.4c0.24,0,0.48,0,0.71,0
					c0-0.74,0-1.49,0-1.98c0,0.5,0,1.24,0,1.98c1.43,0,2.86,0,4.29,0c-0.17-0.6-0.28-1.24-0.29-1.93c-0.73-1.36-1.47-2.73-2.2-4.09
					c-0.01-0.03-0.03-0.05-0.05-0.07c0-0.05,0-0.1,0-0.14c0.03,0.09,0.06,0.17,0.09,0.27c-0.03-0.7-0.07-1.41-0.12-2.11
					c-0.07-3.71-0.13-7.42-0.19-11.13c-0.08-4.95-0.55-10.07-0.67-15.02c-0.02-0.91-0.05-1.84,0.14-2.73
					c0.16-0.77,0.48-1.51,0.63-2.29c0.18-0.99,0.07-2.03-0.31-2.95c-0.01-0.02-0.02-0.04-0.03-0.07c0.14-0.04,0.32-0.05,0.35-0.19
					c-0.2-0.12-0.4-0.23-0.6-0.35c-0.11-0.24-0.22-0.48-0.3-0.74c-0.16-0.54-0.17-1.11-0.17-1.68c-0.03-3.53-0.06-7.06-0.08-10.6
					c-0.05-6.5,0.87-13.1,1.83-19.52c0.01-0.04,0.01-0.08,0.02-0.12c0.5-0.42,0.85-1.03,1.27-1.6c0.87-1.17,1.48-1.24,2.88-1.26
					c1.98-0.03,3.51-0.96,5.31-1.7c2.51-1.03,5.17-1.15,7.87-1.01c4.43,0.58,8.91,1.62,13.16,0.35c0.46-0.14,0.9-0.29,1.31-0.45
					c0.92-0.13,1.83-0.33,2.72-0.62c0.3-0.09,0.58-0.21,0.85-0.35c0.05,0.05,0.09,0.07,0.09,0.03c1.07-0.63,2.17-1.29,2.91-2.31
					c0.35-0.47,0.6-1,0.8-1.55c0.21-0.32,0.4-0.64,0.59-0.97c1.42-2.44,1.68-5.45,1.26-8.26c-0.16-1.1-0.42-2.18-0.73-3.24
					c-0.22-1.18-0.55-2.33-1.03-3.43c-0.24-0.54-0.5-1.07-0.77-1.6c-0.51-1.31-1.02-2.61-1.57-3.9c-0.26-0.82-0.52-1.64-0.85-2.43
					c-0.69-1.66-1.69-3.15-2.59-4.7c-0.94-1.92-1.81-3.86-2.45-5.9c-1.04-3.32-1.38-7.05-0.37-10.31c0.45-0.52,0.73-1.22,1.29-1.59
					c0.47-0.31,1.03-0.34,1.59-0.23c0.95,0.43,1.94,0.76,2.95,0.99c0.23,0.07,0.45,0.14,0.68,0.21c0.29,0.11,0.59,0.23,0.88,0.34
					c1.07,0.4,2.22,0.78,3.32,0.49c0.31-0.08,0.64-0.22,0.95-0.27c0.19,0.44,0.48,0.81,0.81,1.16c0.06,0.1,0.13,0.19,0.19,0.29
					c0.29,0.42,0.59,0.78,0.84,1.04c0.11,0.22,0.26,0.4,0.46,0.53c0.1,0.06,0.2,0.11,0.31,0.14c0.67,0.56,1.22,1.26,1.62,2.05
					c0.18,0.67,0.35,1.34,0.53,2.02c0.08,0.03,0.16,0.04,0.25,0.03c0.38,1.1,0.72,2.22,1.01,3.35c0.23,0.89,0.27,1.69,0.62,2.53
					c0.05,0.12,0.1,0.25,0.2,0.34c0.05,0.05,0.11,0.08,0.17,0.1c0.01,0.02,0.01,0.04,0.02,0.06c0.04-0.01,0.08-0.03,0.12-0.04
					c0.14,0,0.29-0.08,0.43-0.19c0.49-0.3,0.86-0.83,1.07-1.39c0.24-0.66,0.3-1.37,0.34-2.07c0.4-1.55,0.65-3.14,0.85-4.73
					C103.7,15.23,103.85,13.75,103.41,12.4z M46.01,65.38C46.02,65.38,46.02,65.38,46.01,65.38c0,0.01-0.01,0.01-0.02,0.02
					C46,65.39,46.01,65.38,46.01,65.38z M48.55,132.08c-0.43-0.79-0.86-1.57-1.28-2.36c-0.38-0.7-0.76-1.41-1.14-2.11
					c-0.57-1.05-1.14-2.11-1.71-3.16c-3.3-6.1-6.68-12.06-9.96-18.17c-1.39-2.59-2.64-5.25-3.74-7.98c-0.4-0.98-0.78-2-0.82-3.07
					c-0.05-1.36,0.47-2.66,0.98-3.92c0.44-1.08,0.87-2.15,1.31-3.23c0.62-1.53,1.24-3.06,2.09-4.48c0.49-0.82,1.05-1.6,1.57-2.4
					c0.69-1.08,1.3-2.22,1.89-3.36c2.24-4.28,4.31-8.75,7.38-12.45c0.06,0.03,0.11,0.06,0.17,0.09c-0.04-0.05-0.09-0.1-0.14-0.16
					c0.02-0.01,0.03-0.02,0.05-0.03c0.17,0.14,0.31,0.31,0.43,0.5c0.08-0.14,0.19-0.25,0.31-0.35c0.05,0,0.1-0.01,0.15-0.01
					c0.19,0.16,0.38,0.35,0.61,0.43c0.2,0.07,0.43,0.04,0.66,0.01c0.19,0.12,0.38,0.26,0.57,0.41c-0.06,0.22-0.07,0.46-0.08,0.69
					c-0.11,6.94-0.22,13.88-0.32,20.81c-0.08-0.72-0.25-1.42-0.59-1.86c-0.41,0.8-0.27,2.07-0.3,2.96c-0.08,1.8-0.05,3.65-0.32,5.43
					c-0.27,1.76-0.98,3.49-0.76,5.26c0.12,0.97,0.51,1.87,0.81,2.79c0.88,2.72,0.95,5.64,1.01,8.51c0.09-0.48,0.18-0.96,0.25-1.45
					c0.06,0.8,0.1,1.6,0.12,2.4c0.04,2.39-0.11,4.8,0.3,7.15C48.78,123.3,48.71,127.68,48.55,132.08z"/>
			</g>
		</g>
	</g>
	<g>
		<g>
			<path class="st0" d="M52.38,146.67c0.59,0.88,0.91,1.84,0.93,2.9c0.01,0.5,0.79,0.5,0.78,0c-0.02-1.19-0.37-2.31-1.03-3.3
				C52.78,145.87,52.1,146.26,52.38,146.67L52.38,146.67z"/>
		</g>
	</g>
	<g>
		<g>
			<path class="st0" d="M55.37,144.57c1.04,0.1,2.07,0.21,3.11,0.31c-0.09-0.22-0.18-0.44-0.27-0.66c-0.28,0.33-0.38,0.7-0.23,1.11
				c0.25-0.07,0.5-0.14,0.75-0.21c-0.14-0.35-0.34-0.58-0.69-0.72c-0.43-0.18-1.01-0.09-1.33-0.48c-0.31-0.39-0.86,0.16-0.55,0.55
				c0.18,0.23,0.41,0.36,0.69,0.45c0.3,0.09,0.98,0.05,1.12,0.41c0.18,0.46,0.92,0.27,0.75-0.21c0.01-0.12,0.02-0.24,0.03-0.36
				c0.23-0.27,0.07-0.63-0.27-0.66c-1.04-0.1-2.07-0.21-3.11-0.31C54.87,143.74,54.87,144.52,55.37,144.57L55.37,144.57z"/>
		</g>
	</g>
	<g>
		<g>
			<path class="st0" d="M55.77,145.66c0.3,0.21,0.45,0.49,0.51,0.84c0.03,0.15,0.22,0.3,0.37,0.28c0.53-0.06,0.9-0.34,1.07-0.85
				c0.06-0.16-0.04-0.35-0.18-0.44c-0.35-0.22-0.79-0.41-1.19-0.2c-0.35,0.18-0.51,0.57-0.4,0.94c0.14,0.48,0.89,0.27,0.75-0.21
				c-0.03-0.11,0.46,0.15,0.45,0.15c-0.06-0.15-0.12-0.29-0.18-0.44c-0.04,0.17-0.15,0.26-0.32,0.28c0.12,0.09,0.25,0.19,0.37,0.28
				c-0.1-0.56-0.41-0.99-0.87-1.31C55.75,144.7,55.36,145.38,55.77,145.66L55.77,145.66z"/>
		</g>
	</g>
</g>
</svg>
