<!-- Generator: Adobe Illustrator 23.0.4, SVG Export Plug-In  -->
<svg version="1.1" xmlns="http://www.w3.org/2000/svg" xmlns:xlink="http://www.w3.org/1999/xlink" x="0px" y="0px"
	 width="767.41px" height="398.84px" viewBox="0 0 767.41 398.84" style="enable-background:new 0 0 767.41 398.84;"
	 xml:space="preserve">
<style type="text/css">
	.st0{fill:#D18686;}
	.st1{fill:#070000;}
	.st2{fill:#FF6666;}
	.st3{fill:#F9B2B2;}
	.st4{fill:#934747;}
</style>
<defs>
</defs>
<path class="st0" d="M576.3,306.52c6.19,5.03,11.87,10.97,18.94,14.8c11.68,6.32,23.12,12.75,35.82,16.56
	c6.55,1.97,11.9,3.32,17.76,7.29c5.45,3.7,10.34,5.17,17.44,7.42c8.35,2.65,15.1,7.56,22.82,11.5c7.18,3.67,14.62,9.5,22.02,12.3
	c8.27,3.14,18.46,5.1,27.11,7.52c-1.18,0.56-2.09,1.73-3.05,2.23c3.73,2.99,10.45,2.51,14.23,5.1c-2.08,0.11-4.22,0.7-6.02,1.65
	c1.68,3.39,11.13,4.5,15.11,5.95c-6.15-0.39-12.31-0.64-18.46-1.04c-10.32-0.67-19.24-6.39-27.61-12.12
	c-15.64-10.73-33.22-18.79-51.1-24.49c-12.09-3.86-21.98-7.69-33.06-13.25c-8.13-4.07-15.61-10.59-24.12-15.01
	c-9.48-4.92-17.16-10.75-26.01-16.21c-2.66-1.64-6.16-1.73-8.72-3.11c-5.02-2.71-8.56-8.58-12.07-13.04
	c-3.27-4.16-4.29-5.21-3.52-10.97C565.71,285.85,568.7,300.33,576.3,306.52z"/>
<path class="st1" d="M281.71,192.41c1.82-21.29-6.64-33.06,20.59-28.71c9.23,1.48,14.81,2.68,22.92,8.04
	c6.26,4.14,12.97,15.16,20.2,14.2c-9.56,3.19-15.64,8.83-25.92,10c-11.13,1.27-23.95-1.34-35.16-1.96"/>
<path class="st1" d="M277.34,222.02c2.43,14.34,11.23,23.01,16.64,35.44c5.59,12.86,0.83,33.6,10.14,44.45
	c1.47-3.62,3.78-6.08,3.54-11.2c1.81,2.92,5.99,5.15,8.66,7.19c-0.42-3.79,1.52-8.52,1.09-12.3c3.01,1.14,7.48,0.16,10.35,1.64
	c-0.33-3.9,1.49-8.6,1.1-12.47c1.06,1.13,3.45,2.48,4.79,4.03c0.83-10.55,0.73-19.42,9.44-23.49
	c-5.35-33.71-46.85-14.05-61.86-30.22"/>
<path class="st2" d="M325.93,177.81c10.6,14,45.37,15.19,52.82-1.07c-12.2-1.44-25.22-2.12-37.52-2.12
	c-0.39,1.76-0.54,3.6-0.51,5.44"/>
<path class="st2" d="M258.66,192.07c1.04-18.63-6.11-27.32-8.2-44.31c20.09,0.07,39.71,1.28,57.92,9.85
	c12.59,5.92,25.92,17.24,39,21.14c-0.14,1.59-0.3,3.72-0.37,5.31c-1.55-0.98-2.91-2.12-4.76-2.78c-4.86,10.09-22.48-4.55-28.19-8.79
	c-9.48-7.04-17.44-13.03-30.51-8.7c-1.21,11.08-1.16,22.52-2.31,33.6c-8.14,0.23-18.66,0.38-23.83-6.8"/>
<path class="st2" d="M265.33,218.51c7.99,11.08,18.2,24.77,25.09,37.86c2.26-16.65-7.51-27.32-19.84-34.72"/>
<path class="st3" d="M5.49,110.19c8.53,1.21,17.1-0.52,25.77,0.01c10.6,0.65,10.17,2.49,17.19,8.06
	c17.96,14.25,29.44,17.37,52.92,18.59c24.08,1.26,41.52,16.28,62.49,27.58c21.19,11.42,40.32,23.63,61.71,33.65
	c10.7,23.29,65.62,27.54,87.1,28.74c13.87,0.78,20.32,1.27,30.85,10.78c17.4,15.7,35.55,25.85,55.63,36.73
	c15.26,8.27,32.18,20.19,49.32,24.46c15.42,3.84,32.48,2.81,48.4,3.7c26.79,1.49,54.01,4.4,80.78,4.25
	c-4.09-9.13-7.77-20.28-16.53-27.48c-9.6-7.89-28.85-14.26-34.55-27.65c-4.74-11.14-3.92-49.76,1.1-63.05
	c3.43-9.09,9.34-3.92,6.06-14.74c-3.23-10.67-18.25-14.07-20.36-24.94c-0.49,11.54-7.59,18.47-10.83,28.7
	c-3.79,11.98,0.8,25.38-1.47,36.79c-10.43,0.05-24.15,1.08-34.37-1.7c-14.55-3.97-17.15-14.74-24.6-27.5
	C427,159.3,406.34,166.63,383.4,178c-23.1,11.44-52.87,11.93-78.7,15.69c-24.33,3.55-50.05-2.59-72.71-11.24
	c-22.35-8.53-39.3-25.43-60.66-35.72c-23.31-11.24-50.46-14.09-66.87-36.07C91.68,93.53,80.05,83.01,58.1,90.34
	c-8.15,2.72-16.48,8.14-24.84,10.1c-12.25,2.88-20.82-2.07-29.13,9.68"/>
<path class="st4" d="M1.27,112.8c11.51,1.03,18.62-3.44,29.69-2.61c9.69,0.73,17.84,8.22,28.17,7.01c0.92-2.95,1.17-1.11,2.87-2.68
	c1.72-7.7,23.78-4.26,18.81-15.85c-1.54-3.59-23.29-9.23-27.96-11.16c-21.28-8.79-43.21-3.35-47.44,24.09"/>
<path class="st1" d="M0,111.31c10.19,2.31,14.84-7.2,24.46-4.54c1.17-7.92-0.26-24.88,9.32-24.85C18.98,78.7,8.37,97.3,1.51,108.55"
	/>
<path class="st1" d="M68.48,99.49c2.29,3.77,5.79,5.48,10.39,4.63c2.95-8.45-1.46-13.62-9.8-11.49c-0.37,2.39-1.09,5.83-0.67,8.28"
	/>
<path class="st3" d="M270.58,221.64c9.22,1.35,15.67,6.6,23.98,8.45c6.95,1.55,14.57,0.06,21.61,1.2
	c14.15,2.3,32.89,8.25,45.13,15.19c-1.19-11.08-18.34-25.42-26.53-31.63c-6.92-5.25-11.22-5.95-19.84-6.38
	c-17-0.84-32.4,8.36-48.48,14.36"/>
<path class="st2" d="M410.56,168.31c11.77-8.74,26.03-13.09,35.45-26.38c10.51-14.82,21.95-29.23,29.83-46.61
	c9.91-21.87,16.55-35.12,16.71-59.3c0.07-11.38-2.07-21.92-0.74-33.56c38.21,0.16,74.99-1.48,113.41,0.39
	C598.29,5,591.73,9.79,584.8,12c-7.94,2.53-16.57,1.02-24.59,2.55c-20.58,3.92-37.17,7.2-45.09,28.94
	c-8.31,22.79-2.32,47.49-2.54,71.05c-0.16,17.53-3.17,31.51,7.12,45.64c-1.05,0.66-1.61,2.75-1.98,3.91
	c-1.6-0.04-3.4,0.14-5.02,0.18c0.1,6.38-1.33,13.45-1.16,20.83c2.28,0.14,4.89,0.98,7.25,0.54c-4.33,0.41-8.31,1.14-12.73,1
	c-1.28,5.34,0.8,10.21,4.31,13.93c-6.19,2.71-5.5,8.92,0.43,11.71c-5.32,1.88-12.32,2.13-18.5,2.03
	c-2.05,7.95,6.45,12.91,10.03,14.56c-15.03-0.82-23.53-0.98-34.54-11.76c0.16,2.48-1.1,5.68-0.91,8.21
	c-13.13-0.11-22.6-24.32-32.03-32.45c-0.31,0.98-0.06,2.48-0.3,3.59c-12.03,3.01-17.35-11.1-17.8-21.87
	c-3.84-0.62-4.8-3.81-6.28-4.86"/>
<path class="st1" d="M505.22,149.42c14.51,0.25,19.33,30.6,29.1,39.51c0.2-6.29,1.39-13.21,8.43-10.88
	c0.79-6.93,0.61-15.07,1.85-21.63c3.81,1.78,7.7,0.68,11.49,1.31c-0.42-3.25,1.53-7.65,1.05-10.85
	c12.03-2.07,3.66-18.39,14.22-19.54c-0.47-3.77,1.52-8.56,1.09-12.34c12.41,3.34,11.95-12.02,8.88-21.17
	c1.51,0.19,5.76-1.63,8.23-1.06c-0.47-3.75,1.55-8.54,1.09-12.3c1.58,0.09,3.44-0.25,5.03-0.15c-0.45-2.75,1.39-6.72,0.94-9.47
	c14.08-1.34,29.21,4.86,44.08,4.87c-0.46-3.25,1.51-7.64,1.01-10.88c5.1,1.86,29.81,13.36,20.64-7.31
	c18.28-0.45,36.88,2.55,55.18,2.57c0.08-1.65,0.64-3.57,0.7-5.22c3.51,0.89,8.29-0.68,11.78,0.23c-0.98-3.95,0.75-4.87-1.62-8.51
	c3.88,1.45,15.34,1.72,11.94-6.05c-2.04-4.67-17.67-3.06-21.29-4.21c-11.57-3.69-23.85-8.52-35.46-11.97
	c0.53-0.73,1.95-1.97,2.61-2.84c-6.37-8.32-21.28-4.34-30.72-5.87c-10.76-1.74-20.33-6.24-30.74-9.21
	C609.12,1.99,591.06-0.1,574.83,0c-2.41,4.55-31.25,6.54-13.82,16.11c-6.55-1.39-12.01,2.26-15.88,1.92
	c-7.79-0.68-13.18-5.27-19.69-8.05c0.48,3.24-1.36,7.62-1.05,10.92c-2.56-0.78-6.53,0.7-9.08-0.07c-1.45,5.45-1.52,11.14,1.23,15.19
	c-4.03-0.54-8.81,0.22-12.91-0.22c-0.9,6.87,4,9.05,8.03,14.17c-3.88,5.12-2.94,20.49-1.17,26.94c-3-0.88-7.42,0.71-10.51-0.12
	c-2.29,10.71,2.37,13.21,4.03,21.37c1.49,7.35-0.5,16.02,4.03,22.68c-2.57-0.75-6.5,0.61-9.15-0.01
	C496.84,128.68,501.94,145.61,505.22,149.42"/>
<path class="st0" d="M541.62,283.2c12.34,0.29,16.4,3.7,24.13,9.92c9.18,7.38,8.29,7.88,20.9,9.65c20.08,2.83,38.55,9.61,55.8,20.45
	c22.04,13.85,49.31,13.2,71.57,25.32c17.2,9.37,30.26,27.2,51.62,25.16c-0.22-2.54-0.27-4.31-1.72-6.89
	c0.66-0.26,3.22,0.56,3.48-0.19c-2.76-7.06-16.85-7.8-22.25-10.95c-8.04-4.68-14.69-11.59-23.57-15.61
	c-19.69-8.9-42.79-13.42-62.54-21.5c-22.09-9.04-44.03-20.87-64.75-31.33c-17.51-8.84-32.57-10.92-53.44-10.98
	c-0.38,2.76-1.3,6.89-0.75,9.7"/>
</svg>
