<!-- Generator: Adobe Illustrator 23.0.4, SVG Export Plug-In  -->
<svg version="1.1" xmlns="http://www.w3.org/2000/svg" xmlns:xlink="http://www.w3.org/1999/xlink" x="0px" y="0px" width="90.46px"
	 height="133.49px" viewBox="0 0 90.46 133.49" style="enable-background:new 0 0 90.46 133.49;" xml:space="preserve">
<style type="text/css">
	.st0{fill:#E5B1BB;}
	.st1{opacity:0.1091;fill:#A09A98;}
	.st2{fill:#7F1D37;}
	.st3{opacity:0.81;fill:#191517;}
	.st4{opacity:0.5;fill:#A84040;}
	.st5{opacity:0.66;fill:#C47C7C;}
	.st6{opacity:0.24;fill:#A59390;}
	.st7{fill:#E2AF2D;}
	.st8{fill:#773838;}
	.st9{fill:#332719;}
	.st10{fill:#FFFFFF;}
	.st11{opacity:0.09;fill:#935A6C;}
	.st12{opacity:0.59;fill:#F7AD93;}
	.st13{opacity:0.05;fill:#847A7D;}
	.st14{opacity:0.52;fill:#A84040;}
	.st15{opacity:0.78;fill:#F7AD93;}
	.st16{opacity:0.86;fill:#A84040;}
	.st17{fill:#EAE1DF;}
	.st18{opacity:0.9;fill:#FA9173;}
	.st19{opacity:0.83;fill:#EFB659;}
	.st20{opacity:0.83;fill:#FFCC66;}
</style>
<defs>
</defs>
<path class="st0" d="M8.02,8.82c0.15,2.07,4.07,4.2,9.98,6.35c0,0,0.61,4.69,0.15,6.2c-0.31,1.04-4.54,13.61-4.54,13.61
	c-2.15,13.64-0.17,21.25,4.84,24.81c6.85,5.48,9.06,8,17.85,7.41l12.1-0.15c2.04,2.83,4.54,4.08,4.84,4.08s4.65-2.1,6.2-5.29
	c5.38,0.35,9.31-0.65,12.25-2.57c3.25-0.25,6.35,1.51,7.71,2.27c1.36,0.76,0.91-1.36,0.91-1.36s1.66,1.21,2.57,1.66
	c0.68,0.34,2.72,0.3,2.72,0.3s1.82,1.66,2.87,2.12c1.06,0.45,0.45-0.61,0.45-0.61s-4.24-3.78-3.63-4.54
	c0.61-0.76-0.15-1.51-0.15-1.51l5.14,4.08L90,64.19l-6.05-5.45l-5.45-5.29c-3.41-6.11-7.41-10.39-11.95-13.01
	c-7.58-5.57-13.21-7.73-18.3-8.02c-3.92-0.75-12.27-0.13-15.43,1.36l-4.54,2.87c0,0-3.78,3.18-4.24,3.93
	c-0.45,0.76-1.82,3.93-1.82,3.93s-0.76-3.93-0.91-5.75s3.78-14.07,3.78-14.07c2.79-11.15,1.61-19.23-5.14-22.99
	c-1.32-1.24-3.01-1.91-5.29-1.66c-1.69,0.56-2.63,1.31-2.72,2.27C14.92,6.4,12.92,8.26,8.02,8.82z"/>
<g>
	<g>
		<g>
			<path class="st1" d="M43.74,130.44c-0.08-1.77-1.48-2.52-2.14-4.03c-0.38-0.58-0.43-1.22-0.16-1.94
				c0.36-4.55,0.72-9.09,1.08-13.64c0.51-4.49,1.01-8.98,1.52-13.47c0.14-2.07,0.64-4.04,1.48-5.89c0.46-1.11,0.33-0.73,0.65-1.89
				c0.41-1.46,0.24-2.79-0.15-4.23c-0.31-1.11-0.74-2.18-1.06-3.28c-0.31-1.23-0.52-2.48-0.62-3.75c-0.45-4.12-0.87-8.24-1.25-12.36
				c0.05,0.52-1.28,1.29-1.21,1.93c0.5,4.14,0.95,8.28,1.36,12.43c0.09,1.24,0.28,2.47,0.56,3.69c0.27,1.05,0.62,2.08,0.88,3.13
				c0.93,3.74-1.16,7.12-1.71,10.79c-0.42,2.67-0.73,5.36-0.92,8.06c-0.86,6.81-1.33,13.66-1.4,20.53c-0.08,0.5-0.22,1-0.12,1.51
				c0.3,1.49,1.64,2,1.43,3.67C41.99,131.3,43.77,130.94,43.74,130.44z"/>
			<path class="st1" d="M43.83,130.68c-0.09-1.76-1.49-2.49-2.16-3.98c-0.38-0.57-0.43-1.22-0.15-1.93
				c0.35-4.55,0.71-9.11,1.06-13.66c0.51-4.49,1.01-8.98,1.52-13.47c0.15-2.08,0.64-4.05,1.48-5.91c0.47-1.13,0.33-0.71,0.66-1.89
				c0.41-1.46,0.24-2.79-0.16-4.23c-0.31-1.1-0.74-2.17-1.06-3.27c-0.31-1.23-0.52-2.48-0.62-3.74c-0.45-4.12-0.87-8.24-1.26-12.37
				c0.04,0.37-1.21,0.98-1.16,1.48c0.49,4.14,0.94,8.29,1.35,12.44c0.09,1.24,0.28,2.47,0.56,3.69c0.34,1.32,0.79,2.6,1.05,3.95
				c0.57,3-1.07,5.77-1.67,8.68c-1.54,7.54-1.81,15.34-2.2,23.01c0.17,2.58,0.01,5.13-0.48,7.64c0,0.24,0.01,0.48,0.01,0.72
				c0.29,1.5,1.69,2.05,1.51,3.73C42.14,131.32,43.85,131.06,43.83,130.68z"/>
			<path class="st1" d="M44.03,130.06c-0.08-1.56-1.05-2.43-1.89-3.71c-0.81-1.22-0.61-0.76-0.57-2.46
				c0.38-4.51,0.76-9.02,1.15-13.53c-0.06-5.79,0.76-11.4,2.47-16.85c0.48-1.72,0.79-2.85,1.23-4.38c0.42-1.47,0.24-2.8-0.17-4.25
				c-0.31-1.11-0.76-2.19-1.08-3.3c-0.32-1.23-0.53-2.48-0.64-3.75c-0.47-4.11-0.89-8.24-1.25-12.36c0-0.03-0.44,0.48-0.42,0.66
				c0.39,4.14,0.82,8.27,1.29,12.4c0.11,1.25,0.32,2.49,0.63,3.71c0.38,1.35,0.9,2.65,1.2,4.03c0.23,0.79,0.31,1.61,0.23,2.44
				c-0.42,1.22-0.83,2.44-1.25,3.66c-0.23,0.78-0.53,1.77-0.7,2.56c-1.63,7.46-1.87,15.25-2.48,22.85c-0.21,2.51-0.41,5.01-0.6,7.52
				c0,0.02,0,0.04,0,0.07c0.06,2.02,2.24,2.95,2.31,5.06C43.48,130.53,44.04,130.18,44.03,130.06z"/>
			<path class="st1" d="M44.15,130.87c-0.1-1.1,0.06-0.69-0.36-1.44c-0.26-0.53-0.61-1-1.03-1.41c-0.43-0.86-0.86-1.73-1.3-2.59
				c0.04-0.26,0.09-0.51,0.13-0.77c0.47-6.76,1.12-13.49,1.93-20.22c0.39-3.46,0.54-8.28,1.9-11.78c0.85-2.21,1.62-3.79,1.05-6.16
				c-0.34-1.42-0.92-2.75-1.3-4.15c-0.16-0.83-0.33-1.66-0.49-2.49c-0.51-4.52-0.97-9.05-1.37-13.59c-0.01-0.11-0.19,0.04-0.18,0.11
				c0.36,4.12,0.77,8.23,1.24,12.33c0.11,1.26,0.31,2.51,0.62,3.74c0.32,1.11,0.75,2.19,1.08,3.3c0.47,1.12,0.52,2.25,0.16,3.41
				c-0.01,1.27-0.34,2.45-0.99,3.54c-1.26,3.78-1.44,7.88-1.88,11.8c-0.78,6.96-1.64,14-2.05,20.99c-0.04,0.59,0.07,0.76,0.3,1.27
				c0.73,1.55,2.13,2.3,2.31,4.15C43.92,131.02,44.15,130.92,44.15,130.87z"/>
			<path class="st1" d="M43.67,130.81c-0.09-1.73-1.52-2.45-2.13-3.95c-0.78-1.9,0.43-9.49,0.38-8.75c0.27-4.54,0.7-9.07,1.28-13.58
				c0.17-4.65,1.04-9.16,2.61-13.55c0.13-0.45,0.49-1.47,0.54-1.93c0.12-1.09-0.13-2.24-0.42-3.28c-0.42-1.52-0.99-2.95-1.29-4.51
				c-0.93-4.79-1.18-10.32-1.64-14.87c0.04,0.39-1.26,1.04-1.2,1.56c0.51,4.14,0.97,8.29,1.36,12.45c0.09,1.24,0.27,2.46,0.54,3.68
				c0.27,1.05,0.62,2.08,0.88,3.14c0.69,2.77-0.04,3.96-0.85,6.9c-0.43,1.56-0.64,2.42-0.86,3.87c-0.42,2.67-0.73,5.35-0.92,8.05
				c-0.86,6.84-1.32,13.71-1.38,20.61c-0.09,0.48-0.25,0.96-0.15,1.46c0.28,1.47,1.64,1.92,1.43,3.58
				C41.89,131.45,43.69,131.2,43.67,130.81z"/>
			<path class="st1" d="M43.76,130.55c-0.09-1.76-1.48-2.5-2.15-4c-0.38-0.57-0.43-1.22-0.16-1.93c0.36-4.55,0.72-9.1,1.07-13.65
				c0.51-4.49,1.01-8.98,1.52-13.47c0.14-2.08,0.64-4.04,1.48-5.9c0.46-1.11,0.33-0.74,0.66-1.89c0.41-1.46,0.24-2.79-0.16-4.23
				c-0.31-1.1-0.74-2.17-1.06-3.28c-0.31-1.23-0.52-2.48-0.62-3.75c-0.45-4.12-0.87-8.24-1.26-12.37c0.05,0.49-1.34,1.24-1.27,1.86
				c0.51,4.14,0.96,8.28,1.36,12.44c0.09,1.24,0.27,2.47,0.55,3.68c0.27,1.05,0.62,2.08,0.88,3.13c0.69,2.77-0.05,3.96-0.85,6.89
				c-0.23,0.85-0.49,1.7-0.65,2.56c-0.96,5.13-1.55,11.89-1.84,16.14c-0.22,4.6-0.44,9.2-0.66,13.8c-0.12,0.37-0.16,0.74-0.14,1.13
				c0.12,1.58,1.63,2.3,1.41,3.99C41.91,131.37,43.78,131.03,43.76,130.55z"/>
			<path class="st1" d="M43.87,130.8c-0.04-0.94-0.3-1.52-0.89-2.28c-0.7-0.88-1.51-1.78-1.48-2.92c0.1-4.73,0.65-9.7,1.1-14.41
				c0.51-4.49,1.01-8.98,1.52-13.47c0.12-1.3,0.38-2.56,0.78-3.8c0.61-2.17,1.96-4.23,1.59-6.57c-0.18-1.14-0.58-2.22-0.93-3.32
				c-1.71-5.45-1.87-12.41-2.41-17.72c-0.01-0.06-0.52,0.4-0.5,0.56c0.48,4.6,0.76,10.09,1.68,14.9c0.3,1.54,0.85,2.99,1.21,4.51
				c0.12,1.08,0.24,2.17,0.35,3.25c-0.19,0.96-0.48,1.88-0.87,2.77c-0.76,1.92-1.13,3.9-1.43,5.94c-0.5,4.49-0.99,8.99-1.49,13.48
				c-0.33,4.82-0.67,9.64-1,14.46c0.04,0.48,0.08,0.74,0.28,1.19c0.6,1.39,1.74,2.1,1.71,3.76
				C43.08,131.12,43.88,130.98,43.87,130.8z"/>
			<path class="st1" d="M44.13,130.27c-0.05-1.01-0.3-1.54-0.92-2.32c-0.51-0.65-1.36-1.41-1.54-2.26c0.01-0.51,0.02-1.03,0.03-1.54
				c0.44-6.78,1.07-13.54,1.9-20.28c0.18-2.69,0.51-5.36,0.98-8.01c0.25-1.92,0.81-3.77,1.68-5.54c0.36-1.21,0.65-2.25,0.49-3.52
				c-0.04-0.35-0.3-1.34-0.39-1.68c-0.29-1.11-0.77-2.18-1.07-3.29c-0.17-0.83-0.33-1.66-0.5-2.49c-0.52-4.53-0.98-9.07-1.4-13.62
				c0-0.05-0.49,0.44-0.47,0.61c0.51,4.94,0.73,10.01,1.68,14.89c0.35,1.8,0.85,3.5,1.19,5.31c0.64,1.47,0.61,2.91-0.07,4.32
				c-0.24,0.6-0.49,1.2-0.73,1.81c-1.29,3.72-1.42,7.97-1.85,11.78c-0.58,4.51-1.01,9.02-1.29,13.56c-0.15,2.4-0.34,4.8-0.57,7.19
				c0.02,0.79,0.08,1.31,0.5,2c0.76,1.25,1.65,1.98,1.67,3.51C43.45,130.67,44.14,130.47,44.13,130.27z"/>
			<path class="st1" d="M43.8,130.92c-0.1-2.07-2.28-3.06-2.41-5.13c0.04-0.25,0.08-0.5,0.12-0.74c0.35-6.82,0.95-13.62,1.79-20.39
				c0.39-3.48,0.54-8.27,1.88-11.79c0.83-2.18,1.6-3.83,1.06-6.18c-0.32-1.4-0.88-2.72-1.25-4.11c-0.16-0.83-0.33-1.66-0.49-2.49
				c-0.51-4.54-0.97-9.08-1.4-13.63c0.02,0.2-0.87,0.63-0.83,0.96c0.5,4.62,0.82,10.09,1.7,14.92c0.28,1.51,0.78,2.94,1.14,4.43
				c0.48,2.03,0.23,4.02-0.52,5.99c-0.74,1.94-1.11,3.92-1.41,5.97c-0.49,4.5-0.98,9-1.47,13.5c-0.25,4.64-0.5,9.28-0.75,13.92
				c-0.07,0.44-0.18,0.96-0.07,1.41c0.35,1.55,1.76,2.09,1.61,3.84C42.51,131.32,43.82,131.17,43.8,130.92z"/>
			<path class="st1" d="M43.68,130.69c-0.09-1.75-1.47-2.48-2.13-3.97c-0.38-0.57-0.43-1.21-0.15-1.92
				c0.35-4.55,0.71-9.11,1.06-13.66c0.5-4.49,1.01-8.98,1.51-13.48c0.15-2.08,0.64-4.05,1.48-5.91c0.47-1.12,0.33-0.73,0.66-1.89
				c0.41-1.46,0.24-2.79-0.16-4.22c-0.31-1.1-0.74-2.17-1.05-3.27c-0.31-1.23-0.52-2.48-0.62-3.74c-0.45-4.12-0.87-8.24-1.26-12.37
				c0.04,0.44-1.28,1.14-1.21,1.7c0.51,4.14,0.97,8.29,1.36,12.44c0.09,1.24,0.27,2.47,0.55,3.68c0.33,1.31,0.78,2.59,1.02,3.92
				c0.55,3-1.07,5.79-1.66,8.7c-1.52,7.55-1.8,15.34-2.16,23.02c0.21,2.59,0.05,5.14-0.47,7.64c0,0.24,0,0.48,0,0.72
				c0.27,1.47,1.63,1.99,1.41,3.63C41.89,131.41,43.71,131.12,43.68,130.69z"/>
			<path class="st1" d="M43.9,130.79c-0.1-2.08-2.31-3.07-2.43-5.16c0.04-0.25,0.08-0.5,0.12-0.75c0.36-6.81,0.96-13.6,1.8-20.37
				c0.39-3.48,0.54-8.28,1.88-11.79c0.83-2.18,1.61-3.82,1.06-6.17c-0.32-1.4-0.88-2.72-1.25-4.1c-0.16-0.83-0.33-1.66-0.49-2.49
				c-0.5-4.54-0.97-9.08-1.4-13.63c0.02,0.23-0.91,0.68-0.87,1.04c0.47,4.15,0.92,8.3,1.35,12.45c0.1,1.25,0.29,2.48,0.58,3.7
				c0.28,1.07,0.64,2.12,0.92,3.2c0.39,1.1,0.42,2.22,0.07,3.34c-0.04,1.26-0.35,2.44-0.94,3.56c-1.18,3.82-1.37,7.87-1.8,11.81
				c-0.36,2.25-0.6,4.51-0.74,6.77c-0.27,4.62-0.52,9.25-0.75,13.87c-0.07,0.48-0.19,0.93-0.08,1.43c0.35,1.56,1.77,2.11,1.62,3.87
				C42.57,131.25,43.92,131.07,43.9,130.79z"/>
			<path class="st1" d="M44.23,130.91c-0.07-0.84-0.17-1.23-0.63-1.91c-0.24-0.32-0.49-0.63-0.75-0.93
				c-0.43-0.86-0.86-1.73-1.3-2.59c0.04-0.25,0.08-0.51,0.12-0.76c0.47-6.76,1.12-13.5,1.93-20.22c0.39-3.46,0.54-8.28,1.9-11.78
				c0.85-2.21,1.61-3.79,1.05-6.16c-0.34-1.42-0.92-2.75-1.3-4.15c-0.16-0.83-0.33-1.66-0.49-2.49c-0.51-4.52-0.97-9.05-1.37-13.59
				c-0.01-0.1-0.16,0-0.16,0.07c0.36,4.12,0.77,8.23,1.24,12.33c0.11,1.26,0.31,2.51,0.62,3.74c0.32,1.11,0.75,2.19,1.08,3.3
				c0.47,1.12,0.52,2.26,0.16,3.42c-0.01,1.27-0.34,2.45-0.99,3.54c-1.27,3.78-1.45,7.88-1.88,11.79
				c-0.56,4.48-1.01,8.98-1.34,13.48c-0.06,2.52-0.3,5.02-0.7,7.5c-0.03,0.57,0.09,0.76,0.31,1.26c0.74,1.58,2.12,2.35,2.28,4.23
				C44.01,131.06,44.24,131,44.23,130.91z"/>
		</g>
	</g>
</g>
<g>
	<g>
		<g>
			<path class="st1" d="M53.75,71.36c-0.33,3.1-0.43,6.06-0.09,9.18c0.33,3.11,0.91,6.21,1.14,9.32c0.17,2.29,0.15,4.52,0.06,6.81
				c-0.46,11.96,0.16,23.77,1.02,35.69c-0.02-0.3,1.34-0.82,1.31-1.27c-0.28-3.95-0.56-7.89-0.83-11.84
				c-0.26-5.98-0.37-11.96-0.32-17.94c-0.16-2.53-0.12-5.04,0.11-7.56c0.2-1.72,0.18-3.45-0.05-5.18c-0.21-2.46-0.56-4.9-0.83-7.36
				c-0.4-3.75-0.35-7.01,0.12-10.75C55.36,70.74,53.8,70.94,53.75,71.36z"/>
			<path class="st1" d="M53.79,71.62c-0.33,3.11-0.43,6.07-0.1,9.2c0.33,3.11,0.91,6.21,1.14,9.33c0.17,2.29,0.15,4.53,0.07,6.83
				c-0.44,11.96,0.16,23.75,1.02,35.67c-0.03-0.35,1.16-0.91,1.13-1.39c-0.28-3.95-0.56-7.9-0.84-11.84
				c-0.27-5.97-0.37-11.94-0.31-17.91c-0.14-2.52-0.1-5.04,0.11-7.55c0.18-1.73,0.16-3.47-0.07-5.21c-0.22-2.46-0.57-4.91-0.84-7.37
				c-0.41-3.78-0.36-7.05,0.11-10.81C55.17,70.89,53.84,71.16,53.79,71.62z"/>
			<path class="st1" d="M53.26,71.39c-0.3,3.13-0.38,6.11-0.03,9.26c0.34,3.12,0.94,6.23,1.17,9.36c0.17,2.3,0.16,4.56,0.09,6.86
				c-0.36,11.99,0.12,23.67,0.99,35.63c0.01,0.12,0.27-0.05,0.26-0.12c-0.72-9.9-1.26-19.74-1.09-29.69c0.07-4.19,0.4-8.6,0.01-12.8
				c-0.24-2.5-0.63-4.98-0.94-7.47c-0.49-3.86-0.53-7.26-0.16-11.11C53.58,71.19,53.27,71.32,53.26,71.39z"/>
			<path class="st1" d="M53.29,72.25c-0.32,3.13-0.41,6.11-0.07,9.25c0.34,3.12,0.93,6.23,1.17,9.35c0.17,2.3,0.17,4.56,0.1,6.87
				c-0.28,5.94-0.29,11.88-0.04,17.82c0.08,5.95,0.42,11.89,1.03,17.81c0.01,0.07,0.4-0.32,0.39-0.46
				c-0.72-9.9-1.25-19.74-1.08-29.68c0.07-4.19,0.39-8.61-0.01-12.81c-0.24-2.49-0.63-4.96-0.94-7.44
				c-0.48-3.84-0.49-7.2-0.09-11.05C53.75,71.83,53.3,72.13,53.29,72.25z"/>
			<path class="st1" d="M53.68,71.73c-0.33,3.11-0.42,6.07-0.09,9.2c0.33,3.11,0.91,6.21,1.14,9.33c0.17,2.29,0.15,4.54,0.07,6.83
				c-0.42,11.97,0.15,23.73,1.01,35.66c-0.03-0.46,1.46-1.14,1.42-1.73c-0.28-3.95-0.56-7.89-0.83-11.84
				c-0.26-5.97-0.36-11.94-0.32-17.91c-0.16-2.52-0.12-5.04,0.11-7.55c0.19-1.73,0.18-3.46-0.06-5.2c-0.21-2.46-0.56-4.9-0.83-7.36
				c-0.4-3.77-0.34-7.03,0.14-10.78C55.4,70.82,53.74,71.16,53.68,71.73z"/>
			<path class="st1" d="M53.78,71.46c-0.33,3.1-0.43,6.06-0.09,9.18c0.33,3.11,0.91,6.21,1.14,9.32c0.17,2.29,0.15,4.53,0.06,6.82
				c-0.45,11.96,0.16,23.76,1.02,35.68c-0.03-0.36,1.38-0.94,1.34-1.44c-0.28-3.95-0.56-7.89-0.83-11.84
				c-0.26-5.97-0.36-11.95-0.32-17.93c-0.16-2.53-0.12-5.04,0.11-7.55c0.2-1.73,0.18-3.45-0.05-5.19c-0.21-2.46-0.56-4.9-0.82-7.35
				c-0.4-3.76-0.34-7.01,0.13-10.75C55.42,70.74,53.83,70.99,53.78,71.46z"/>
			<path class="st1" d="M53.46,71.97c-0.26,2.47-0.44,4.85-0.28,7.34c0.21,3.13,0.77,6.24,1.14,9.35c0.57,4.81,0.28,9.81,0.21,14.64
				c-0.15,9.97,0.38,19.78,1.1,29.73c-0.02-0.24,0.85-0.68,0.82-1.05c-0.84-11.8-1.74-23.89-1.1-35.73
				c0.09-1.69,0.17-3.24,0.09-4.93c-0.16-3.11-0.65-6.17-0.98-9.27c-0.12-1.23-0.24-2.46-0.36-3.7c-0.18-2.41-0.05-4.81,0.38-7.2
				C54.45,71.38,53.5,71.62,53.46,71.97z"/>
			<path class="st1" d="M53.41,71.6c-0.31,3.13-0.39,6.12-0.05,9.27c0.34,3.12,0.94,6.23,1.17,9.36c0.17,2.3,0.16,4.56,0.09,6.86
				c-0.36,11.99,0.12,23.67,0.99,35.63c0.01,0.12,0.3-0.12,0.29-0.2c-0.72-9.9-1.26-19.74-1.09-29.68c0.07-4.19,0.4-8.6,0.01-12.8
				c-0.24-2.5-0.63-4.98-0.94-7.46c-0.49-3.86-0.52-7.25-0.13-11.12C53.77,71.35,53.42,71.52,53.41,71.6z"/>
			<path class="st1" d="M53.63,71.97c-0.4,3.86-0.37,7.22,0.11,11.08c0.39,3.11,0.88,6.2,1.04,9.33c0.09,1.68,0.03,3.3-0.02,4.98
				c-0.39,11.93,0.15,23.76,1.01,35.67c-0.03-0.39,1.09-0.97,1.05-1.48c-0.56-7.91-1.09-15.79-1.16-23.72
				c-0.06-6.89,0.6-13.77-0.16-20.64c-0.27-2.46-0.6-4.91-0.83-7.38c-0.29-3.1-0.13-5.9,0.26-9C54.9,71.17,53.68,71.49,53.63,71.97z
				"/>
			<path class="st1" d="M53.7,71.59c-0.33,3.11-0.42,6.07-0.09,9.19c0.33,3.11,0.91,6.21,1.14,9.33c0.17,2.29,0.15,4.53,0.07,6.83
				c-0.44,11.96,0.15,23.74,1.02,35.67c-0.03-0.41,1.45-1.04,1.41-1.59c-0.28-3.95-0.56-7.89-0.83-11.84
				c-0.26-5.97-0.36-11.94-0.32-17.92c-0.16-2.53-0.12-5.04,0.11-7.55c0.2-1.73,0.18-3.46-0.05-5.19c-0.21-2.46-0.56-4.9-0.82-7.35
				c-0.4-3.76-0.34-7.02,0.14-10.76C55.42,70.78,53.76,71.07,53.7,71.59z"/>
			<path class="st1" d="M53.7,71.83c-0.26,2.47-0.45,4.85-0.29,7.34c0.2,3.13,0.76,6.23,1.13,9.34c0.56,4.81,0.27,9.8,0.2,14.63
				c-0.14,9.97,0.38,19.78,1.1,29.73c-0.02-0.31,0.95-0.82,0.92-1.26c-0.6-5.91-0.93-11.84-1-17.78
				c-0.22-5.98-0.26-11.96-0.13-17.95c0.1-1.69,0.19-3.24,0.11-4.93c-0.15-3.11-0.64-6.15-0.96-9.24c-0.11-1.23-0.23-2.45-0.34-3.68
				c-0.16-2.4-0.03-4.79,0.41-7.16C54.82,71.15,53.74,71.43,53.7,71.83z"/>
			<path class="st1" d="M53.33,72.36c-0.31,3.13-0.38,6.11-0.04,9.26c0.34,3.12,0.94,6.23,1.17,9.36c0.17,2.3,0.16,4.56,0.09,6.87
				c-0.28,5.94-0.3,11.88-0.04,17.81c0.08,5.95,0.42,11.89,1.03,17.81c0.01,0.09,0.33-0.24,0.32-0.35
				c-0.72-9.9-1.26-19.74-1.09-29.68c0.07-4.19,0.41-8.6,0.01-12.8c-0.24-2.49-0.63-4.97-0.95-7.45c-0.5-3.85-0.54-7.23-0.17-11.09
				C53.68,72.01,53.34,72.26,53.33,72.36z"/>
		</g>
	</g>
</g>
<path class="st2" d="M12.55,2.32c0.27,0.13,0.67,0.36,1.06,0.76c0.53,0.54,0.55,0.93,0.91,1.21c0.32,0.26,0.95,0.45,2.27,0
	c0.85,0.25,0.78,0.98,0.3,1.51L15.28,6.4c-0.73,0.95-1.32,1.37-1.76,1.25C12.77,7.45,12.45,5.67,12.55,2.32z"/>
<path class="st3" d="M80.62,63.03c1.56,1.55,3.31,2.51,5.1,2.79c-0.74-0.64-1.51-1.05-2.25-1.71c-0.41-0.37-0.85-0.53-1.3-0.69
	C81.77,63.28,80.94,63.35,80.62,63.03z"/>
<path class="st4" d="M17.5,55.83c0.13-0.7,0.4-1.43,0.39-2.09c-0.01-0.77,1.31-0.2,2.6,0.3c0.8,0.31,1.73,0.38,2.52,0.71
	c0.79,0.33,1.7,0.54,1.64,1.58c-0.46-0.57-1.18-0.68-1.86-0.95c-0.85-0.34-2.98-1.16-3.75-1.02c-0.77,0.14,4.07,2.92,4.96,4.83
	c-1.47-2.04-3.17-2.39-5.6-3.1c1.46,2.01,2.08,3.5,4.71,3.88c-0.18,0.29-0.73,0.38-1.51,0.24S17.37,56.53,17.5,55.83z"/>
<path class="st3" d="M76.53,54.48c0.19,2.19,0.91,4.06,2.09,5.42c-0.15-0.96-0.48-1.78-0.61-2.75c-0.08-0.54-0.31-0.96-0.54-1.37
	C77.26,55.42,76.57,54.94,76.53,54.48z"/>
<path class="st3" d="M73.81,59.7c1.56,1.55,3.31,2.51,5.1,2.79c-0.74-0.64-1.51-1.05-2.25-1.71c-0.41-0.37-0.85-0.53-1.3-0.69
	C74.97,59.95,74.13,60.02,73.81,59.7z"/>
<path class="st3" d="M74.48,59.19c1.56,1.55,3.31,2.51,5.1,2.79c-0.74-0.64-1.51-1.05-2.25-1.71c-0.41-0.37-0.85-0.53-1.3-0.69
	C75.64,59.44,74.8,59.52,74.48,59.19z"/>
<path class="st5" d="M77.72,57.46c0.47,1.19,1.18,2.29,1.51,3.54c0.12-0.65,0.13-1.33,0.02-1.98c0.74,0.93,1.37,1.95,1.86,3.03
	c-0.19-0.91-0.43-1.81-0.73-2.69c0.99,0.83,1.45,2.12,1.85,3.35c-0.2-0.92-0.41-1.85-0.87-2.67c1.36,1.45,0.58,2.43,1.98,3.84
	c0.18,0.18,2.35,1.87,2.69,1.88c0.25,0.01,0.7,0.36,1.06,0.48c0.19,0.07,0.34-0.18,0.19-0.32c-0.36-0.33-0.76-0.85-1-1.12
	c-0.38-0.42-1.43-1.79-1.88-2.14c-1.54-1.19-1.62-2.09-2.81-3.63c-0.75-0.97-1.61-1.56-2.48-2.42
	C75.09,52.61,75.78,52.54,77.72,57.46z"/>
<polygon class="st6" points="75.93,52.69 77.75,59.95 70.19,63.73 80.17,64.49 84.41,65.85 84.86,65.55 84.41,61.46 "/>
<path class="st7" d="M13.46,7.61c0.57,0.06-1.11,0.74-2.57,0.91c-0.57,0.18-1.28,0.34-2.1,0.42C7.63,9.06,6.63,8.96,5.9,8.82
	C3.3,9.49,1.28,10.56,0,12.15c0.06-1.76,0.26-3.74,0.91-5.14C1.79,5.4,2.83,4.24,4.39,3.23c1.04-0.31,2.28-0.6,3.72-0.77
	c1.52-0.19,3.48-0.7,4.45-0.13c0.03,0.1,1.11,0.2,0.12,0.47c-0.75,0.21,1.64,2.87,0.68,3.87C13.31,7.46,13.11,7.57,13.46,7.61z"/>
<ellipse class="st8" cx="15.58" cy="5.27" rx="1.06" ry="0.68"/>
<ellipse class="st9" cx="15.43" cy="5.34" rx="0.76" ry="0.61"/>
<circle class="st10" cx="15.58" cy="5.19" r="0.15"/>
<path class="st11" d="M17.24,1.11c2.52,1.12,4.32,2.66,5.29,4.99c1.65,4.49,2.41,5.53,2.72,11.65c-0.58,6.33-3.3,13.84-5.6,20.12
	c-0.63,2.45,0.91,6.86,2.72,9.23c1.26,1.65,2.57,1.36,3.33,0c1.42-6.45,4.04-9.81,9.53-13.61c7.61-1.18,14.75,0.57,21.48,4.84
	c7.97,5.38,9.76,10.72,6.81,16.03c-4.41,3.73-7.37,9.47-9.53,16.34c0.59-0.87,2.72-0.26,4.54-2.87c1.54-2.22,4.63-1.57,8.62-2.27
	c1.6-1.02,3.24-2.1,4.9-3.24c2.1-1.45,4.1-2.89,5.99-4.32c-0.26-1.81-0.83-4.43-2.19-7.31c-2.88-6.07-7.22-9.58-11.27-11.9
	c-11.34-6.5-19.7-9.79-29.8-5.75c-6.14,2.5-9.9,6.25-11.65,11.04l-0.91-3.93c-0.66-2.63,0.52-7.86,2.12-11.65
	c1.53-5.02,2.76-9.92,2.42-14.22C25.14,3.98,19.67,0.72,17.24,1.11z"/>
<path class="st12" d="M40.44,37.09c-0.88,0.5-1.67,1.18-2.29,1.98c2.14-0.15,4.29-0.06,6.4,0.28c-0.46,0.88-1.59,1.15-2.58,1.23
	c-0.99,0.08-2.09,0.1-2.83,0.77c1.55,0.2,3.15-0.11,4.68,0.24c1.53,0.35,3.03,1.75,2.65,3.27c-1.16-0.97-2.51-1.7-3.96-2.14
	c2.02,0.81,3.71,2.39,4.66,4.35c-1.05-0.11-1.87-0.88-2.76-1.45c-1.5-0.95-0.62,1.38,0.96,3.43c-2.98,0.05-5.96,0.07-8.94,0.05
	c3.69,0.21,7.8,0.62,10.22,3.41c-1.4,0.77-3.14,0.37-4.64-0.17s-3.08-1.21-4.64-0.89c1.2,0.31,2.39,0.63,3.59,0.94
	c-3.06-1.33-6.29-2.28-9.58-2.8c1.9-1.42,4.28-2.19,6.65-2.13c-0.57-0.01-1.06-1.06-2.01-0.94c0.55,0.05,0.72-0.1,1.16-0.3
	c-1.89-0.38-3.96,0.41-3.96-2.23c0-2,1.52-4.24,2.9-5.55c-0.44,0.95-0.77,2.01-0.72,3.06C36.79,39.69,38.37,38.14,40.44,37.09z"/>
<path class="st13" d="M17.09,1.67c2.48,1.11,4.26,2.62,5.23,4.93c1.63,4.44,2.38,5.46,2.69,11.5c-0.57,6.25-3.26,13.67-5.53,19.87
	c-0.62,2.42,0.9,6.77,2.69,9.11c1.25,1.63,2.54,1.34,3.29,0c1.4-6.37,3.99-9.68,9.41-13.45c7.52-1.17,14.57,0.56,21.21,4.78
	c7.87,5.31,9.64,10.59,6.72,15.84c-4.35,3.68-7.28,9.35-9.41,16.13c0.58-0.86,2.69-0.25,4.48-2.84c1.52-2.19,4.57-1.55,8.52-2.24
	c2.76-2.59,6.46-4.26,11.06-5.08c-0.8-12.21-8.66-18.08-13.59-21.36c-11.2-6.42-19.45-9.67-29.43-5.68
	c-6.07,2.47-9.77,6.17-11.5,10.91l-0.9-3.88c-0.65-2.6,0.51-7.76,2.09-11.5c1.51-4.96,2.73-9.8,2.39-14.04
	C24.89,4.5,19.49,1.28,17.09,1.67z"/>
<path class="st12" d="M37.47,57.13c2.47,1.4,5.25,2.26,8.08,2.51c-1.17-0.57-2.4-0.94-3.56-1.54c-0.65-0.33-1.35-0.48-2.06-0.63
	C39.3,57.36,37.98,57.43,37.47,57.13z"/>
<path class="st12" d="M39.57,65.1c2.33,0.11,4.67,0.03,6.99-0.23c0.3-0.03,0.62-0.07,0.88-0.23c0.27-0.15,0.47-0.44,0.43-0.75
	c-2.9,0.57-5.84-0.84-8.8-0.82c2.96-0.8,6.11-0.87,9.1-0.21c-2.32-0.87-4.81-1.3-7.29-1.24c1.11,0.13,2.13-0.59,3.23-0.81
	c0.89-0.17,1.8-0.01,2.69,0.14c-0.72-0.77-1.91-0.9-2.94-0.71c-1.03,0.19-2.01,0.64-3.04,0.84c-1.66,0.34-3.39,0.64-2.81,1.18
	c0.5,0.47,0.79,1.12,1.18,1.69c0.4,0.56,1.01,1.07,1.69,1"/>
<path class="st12" d="M40.18,56.46c2.83,0.27,5.71-0.07,8.4-0.98c-1.31-0.05-2.57,0.11-3.88,0.04c-0.73-0.04-1.43,0.11-2.14,0.27
	C41.95,55.92,40.77,56.52,40.18,56.46z"/>
<path class="st14" d="M31.79,66.75c-5.99-2.17-14.03-9.4-14.54-11.64c0.93-0.04,11.63,7.15,13.42,7.45
	c-0.26-0.22-2.17-2.17-2.7-2.58c-1.37-1.07-7.84-5.47-9.21-6.54c1.84,1.16,9.06,5.2,11.23,5.39c-2.27-1.56-10.42-5.72-9.72-6.14
	s6.53,2.62,8.29,3.07c-2.55-2.67-10.25-4.38-10.2-4.3c0.05,0.09-1.54-0.93-2.44-0.84C9.24,51.28,24.19,67.68,31.79,66.75z"/>
<path class="st15" d="M75.73,52.04c0.19,0.7,0.37,1.42,0.74,2.03c0.21,0.34,0.48,0.65,0.74,0.95c0.74,0.84,1.48,1.69,2.34,2.4
	c0.46,0.38,0.89,0.82,1.4,1.12c1.63,0.95,3.67,5.35,4.1,6.32c0.44,1,1.68,1.41,2.45,2.18c-0.89-1.33-2.59-2.14-2.95-3.7
	c-0.04-0.18-0.06-0.38,0.03-0.54c0.13-0.23,0.44-0.3,0.69-0.24s0.47,0.24,0.67,0.41c1.4,1.19,2.77,2.52,4.52,3.06
	c0.03-0.36-0.24-0.68-0.5-0.93c-5.07-5.07-10.49-9.92-14.26-16.02c-0.24-0.38-1.44-2.63-1.94-2.39
	C74.38,48.5,75.22,50.19,75.73,52.04z"/>
<path class="st3" d="M62.27,61.22c2.47,1.4,5.25,2.26,8.08,2.51c-1.17-0.57-2.4-0.94-3.56-1.54c-0.65-0.33-1.35-0.48-2.06-0.63
	C64.11,61.44,62.79,61.51,62.27,61.22z"/>
<path class="st3" d="M63.94,60.92c2.47,1.4,5.25,2.26,8.08,2.51c-1.17-0.57-2.4-0.94-3.56-1.54c-0.65-0.33-1.35-0.48-2.06-0.63
	C65.77,61.14,64.45,61.21,63.94,60.92z"/>
<path class="st3" d="M65,60.46c2.47,1.4,5.25,2.26,8.08,2.51c-1.17-0.57-2.4-0.94-3.56-1.54c-0.65-0.33-1.35-0.48-2.06-0.63
	C66.83,60.69,65.51,60.75,65,60.46z"/>
<path class="st4" d="M18.71,59.01c0.13-0.7,0.4-1.43,0.39-2.09c-0.01-0.77,1.31-0.2,2.6,0.3c0.8,0.31,1.73,0.38,2.52,0.71
	c0.79,0.33,1.7,0.54,1.64,1.58c-0.46-0.57-1.18-0.68-1.86-0.95c-0.85-0.34-2.98-1.16-3.75-1.02s4.07,2.92,4.96,4.83
	c-1.47-2.04-3.17-2.39-5.6-3.1c1.46,2.01,2.08,3.5,4.71,3.88c-0.18,0.29-0.73,0.38-1.51,0.24S18.58,59.71,18.71,59.01z"/>
<path class="st4" d="M22.34,52.93c-0.15-0.37-0.2-0.74-0.43-1.1c-0.27-0.41,0.92-0.04,2.07,0.29c0.72,0.21,1.44,0.29,2.15,0.51
	s1.48,0.38,1.79,0.93c-0.55-0.33-1.13-0.42-1.74-0.61c-0.76-0.22-2.67-0.78-3.2-0.74s4.1,1.78,5.44,2.85
	c-1.82-1.17-3.23-1.45-5.33-1.95c1.81,1.15,2.8,1.99,4.92,2.32c-0.03,0.15-0.42,0.17-1.06,0.05C26.33,55.37,22.49,53.3,22.34,52.93z
	"/>
<path class="st16" d="M74.71,45.86c-0.97-0.37-3.22-0.21-4.2-0.18c1.62,1.55,4.33,2.93,5.61,4.76c-0.92,0.2-1.91-0.5-2.67-1.21
	c-0.76-0.71-3.56-2.33-4.54-2.48c0.97,1.32,2.47,2.31,3.33,3.69s2.84,4.26,1.54,4.92c-0.17-1.5-5.48-6.79-6.22-8.17
	c0.89,2.06,5.88,8.15,5.23,10.1c-0.67-0.87-4.23-5.87-4.49-6.9c-0.43-1.74,2.12,4.26,1.86,6.76c-2.16-2.26-4.3-4.53-6.41-6.83
	c2.49,2.96,5.14,6.37,4.98,9.98c-1.52-0.59-2.48-2.18-3.19-3.67c-0.71-1.49-1.38-3.12-2.71-4.12c0.64,1.12,1.28,2.23,1.93,3.35
	c-1.28-3.18-0.42-7.2,1.23-5.34c-0.4-0.45-0.04-1.48-0.8-2.14c0.36,0.46,1.37,0.78,1.82,0.99c-0.66-1.02-0.16-0.64-1.97-3.63
	c-1.46-2.42-4.53-3.47-3.93-3.63c1.51-0.41,7.73,1.04,9.6,1.28c-0.96,0.25-1.9,0.67-2.58,1.37C70.36,44.69,72.53,44.93,74.71,45.86z
	"/>
<path class="st3" d="M68.32,60.92c2.47,1.4,5.25,2.26,8.08,2.51c-1.17-0.57-2.4-0.94-3.56-1.54c-0.65-0.33-1.35-0.48-2.06-0.63
	C70.16,61.14,68.84,61.21,68.32,60.92z"/>
<path class="st3" d="M78.06,63.13c-1.17-0.57-2.4-0.94-3.56-1.54"/>
<path class="st3" d="M59.96,64.27c2.68,0.95,5.56,1.31,8.39,1.07c-1.25-0.36-2.52-0.51-3.77-0.89c-0.7-0.21-1.42-0.24-2.14-0.26
	C61.81,64.18,60.52,64.47,59.96,64.27z"/>
<path class="st3" d="M61.54,63.69c2.68,0.95,5.56,1.31,8.39,1.07c-1.25-0.36-2.52-0.51-3.77-0.89c-0.7-0.21-1.42-0.24-2.14-0.26
	C63.39,63.59,62.1,63.88,61.54,63.69z"/>
<path class="st3" d="M62.51,63.06c2.68,0.95,5.56,1.31,8.39,1.07c-1.25-0.36-2.52-0.51-3.77-0.89c-0.7-0.21-1.42-0.24-2.14-0.26
	C64.36,62.96,63.07,63.25,62.51,63.06z"/>
<path class="st3" d="M78.28,64.99c1.38,1.11,2.81,1.69,4.16,1.7c-0.64-0.44-1.27-0.69-1.91-1.15c-0.36-0.26-0.71-0.34-1.06-0.42
	C79.17,65.05,78.57,65.22,78.28,64.99z"/>
<path class="st3" d="M79,64.57c1.38,1.11,2.81,1.69,4.16,1.7c-0.64-0.44-1.27-0.69-1.91-1.15c-0.36-0.26-0.71-0.34-1.06-0.42
	C79.89,64.63,79.29,64.8,79,64.57z"/>
<path class="st3" d="M79.42,64.06c1.38,1.11,2.81,1.69,4.16,1.7c-0.64-0.44-1.27-0.69-1.91-1.15c-0.36-0.26-0.71-0.34-1.06-0.42
	C80.31,64.12,79.71,64.29,79.42,64.06z"/>
<path class="st3" d="M81.04,64.21c1.38,1.11,2.81,1.69,4.16,1.7c-0.64-0.44-1.27-0.69-1.91-1.15c-0.36-0.26-0.71-0.34-1.06-0.42
	C81.93,64.28,81.32,64.45,81.04,64.21z"/>
<path class="st3" d="M65.86,62.93c2.68,0.95,5.56,1.31,8.39,1.07c-1.25-0.36-2.52-0.51-3.77-0.89c-0.7-0.21-1.42-0.24-2.14-0.26
	C67.71,62.83,66.42,63.12,65.86,62.93z"/>
<path class="st5" d="M78.68,62.92c-1.28-0.2-2.57-0.3-3.86-0.29c-1,0-2.03,0.08-2.91,0.53c-0.2,0.1-0.4,0.23-0.49,0.44
	c1.25-0.6,2.71-0.49,4.08-0.28c0.56,0.08,1.12,0.18,1.64,0.4c0.96,0.4,1.72,1.17,2.44,1.93c0.22-0.37,0.15-0.86-0.07-1.23
	s-0.56-0.65-0.89-0.92c0.6,0.16,1.21,0.32,1.82,0.46c0.22,0.05,1.39,0.48,1.22,0.01c-0.12-0.34-1.05-0.59-1.36-0.69
	C79.77,63.11,79.23,63,78.68,62.92z"/>
<path class="st14" d="M25.73,58.03c-3.78-0.79-9.22-4.72-9.72-6.15c0.56-0.13,7.59,3.49,8.69,3.5c-0.17-0.12-1.49-1.2-1.84-1.42
	c-0.91-0.56-5.17-2.78-6.08-3.34c1.2,0.57,5.88,2.47,7.2,2.36c-1.5-0.79-6.74-2.67-6.35-3.03c0.39-0.36,4.15,1.04,5.24,1.14
	c-1.76-1.49-6.53-1.8-6.49-1.75c0.01,0.01,0.2,0.41,0.54,1.02C18.29,52.9,22.13,59.18,25.73,58.03z"/>
<path class="st17" d="M52.19,71.3l1.51,18v14.82l0.15,26.32c0.23,0.4,0.56,1.09,1.05,1.6c0.46-1.6,0.73,0.62,1.22,0.67l-0.91-21.78
	l0.45-15.13l-0.76-15.28l-0.23-10.11l0.94-0.72L52.19,71.3z"/>
<path class="st17" d="M43.11,67.51l-3.33-0.15l1.97,4.24l1.51,16.64l-3.33,29.04l-1.21,9.08c-0.23,1.03,0.55,2.21,1.51,1.36
	l0.91-10.44l3.03-21.78l0.61-10.44L43.11,67.51z"/>
<path class="st18" d="M46.34,87.95c0.06,0.75-0.14,1.49-0.34,2.21c-0.46,1.66-0.92,3.32-1.38,4.98c-0.06,0.23-0.15,0.49-0.37,0.58
	c-0.39,0.17-0.74-0.31-0.9-0.7c-0.44-1.08-0.89-2.16-1.33-3.24c-0.14-0.34-0.28-0.68-0.32-1.04c-0.11-0.91,0.39-1.77,0.87-2.55
	c0.22-0.35,0.45-0.72,0.81-0.92c0.27-0.15,0.61-0.19,0.87-0.36c0.29-0.19,0.47-0.63,0.84-0.68C45.89,86.12,46.29,87.34,46.34,87.95z
	"/>
<path class="st18" d="M54.47,90.36c0.09-0.72,0.07-1.61,0.7-1.97c0.43,0.43,0.77,0.95,0.97,1.52c0.35,0.97,0.34,2.02,0.29,3.05
	c-0.04,0.83-0.09,1.67-0.24,2.49c-0.04,0.22-0.09,0.44-0.21,0.62c-0.15,0.22-0.4,0.35-0.64,0.47c-0.27,0.13-0.56,0.24-0.86,0.28
	c-0.57,0.07-1.17-0.18-1.52-0.63c-0.51-0.66-0.47-1.57-0.41-2.4c0.02-0.27,0.06-0.57,0.29-0.71c0.12-0.07,0.26-0.09,0.38-0.15
	c0.28-0.14,0.64-0.86,0.79-1.13C54.25,91.35,54.4,90.86,54.47,90.36z"/>
<g>
	<g>
		<g>
			<path class="st1" d="M54.74,96.83c-0.03,0.17-0.05,0.35-0.08,0.52c0.28-0.35,0.56-0.69,0.84-1.04c-0.38,0.41-0.75,0.83-1.13,1.24
				c-0.06,0.04-0.1,0.1-0.11,0.17c0.49,0.15,0.94,0.06,1.34-0.26c0.29-0.14,0.01-1.31,0.04-1.38c-0.22,0.51-0.44,1.02-0.66,1.52
				c0.2-0.4,0.4-0.8,0.61-1.19c0.35-0.3,0.28-0.54,0.3-0.96C55.87,95.85,54.81,96.34,54.74,96.83z"/>
			<path class="st1" d="M54.78,97.07c-0.03,0.17-0.05,0.35-0.08,0.52c0.3-0.43,0.6-0.87,0.89-1.3c-0.4,0.51-0.8,1.03-1.2,1.54
				c-0.05,0.05-0.08,0.11-0.09,0.17c0.5,0.16,0.96,0.07,1.37-0.27c0.26-0.12-0.15-1.38-0.14-1.42c0.13,0,0.2-0.04,0.2-0.13
				c0.02-0.19,0.03-0.38,0.03-0.57C55.74,96.04,54.85,96.59,54.78,97.07z"/>
			<path class="st1" d="M54.35,97.01c-0.16,0.29-0.33,0.58-0.49,0.87c-0.04,0.04,0.01,0.08,0.05,0.08c0.9,0.08,0.5,0.16,1.29-0.28
				c0.08-0.05-0.02-0.16-0.08-0.13c-1.01,0.55-0.61-0.3-0.56-0.63C54.59,96.77,54.37,96.94,54.35,97.01z"/>
			<path class="st1" d="M54.39,97.84c-0.04,0.18-0.07,0.36-0.11,0.54c0.1-0.16,0.2-0.33,0.3-0.49c-0.18,0.21-0.37,0.42-0.55,0.62
				c-0.03,0.03-0.25,0.25-0.12,0.27c0.95,0.11,0.53,0.19,1.4-0.27c0.08-0.04-0.08-0.3-0.16-0.26c-0.29,0.03-0.58,0.06-0.87,0.09
				c-0.11,0.14-0.21,0.28-0.32,0.43c0.59-0.52,0.69-0.69,0.83-1.45C54.78,97.3,54.43,97.67,54.39,97.84z"/>
			<path class="st1" d="M54.67,97.24c-0.03,0.17-0.05,0.35-0.08,0.52c0.38-0.56,0.76-1.12,1.14-1.67c-0.47,0.61-0.94,1.21-1.42,1.82
				c-0.06,0.06-0.1,0.13-0.12,0.21c0.52,0.15,0.99,0.06,1.42-0.27c0.33-0.15,0.01-1.69,0.05-1.79c0.09-0.23,0.18-0.45,0.27-0.68
				C55.9,95.94,54.77,96.6,54.67,97.24z"/>
			<path class="st1" d="M54.76,96.94c-0.03,0.17-0.05,0.35-0.08,0.52c0.29-0.39,0.58-0.77,0.86-1.16c-0.38,0.45-0.76,0.9-1.14,1.35
				c-0.06,0.05-0.1,0.11-0.11,0.18c0.5,0.15,0.95,0.07,1.36-0.25c0.3-0.14,0-1.47,0.04-1.55c-0.43,0.54-0.85,1.08-1.28,1.62
				c0.41-0.4,0.83-0.8,1.24-1.2c0.34-0.61,0.27-0.35,0.29-1.06C55.92,95.84,54.84,96.39,54.76,96.94z"/>
			<path class="st1" d="M54.5,97.49c-0.03,0.17-0.06,0.34-0.08,0.52c0.22-0.33,0.45-0.66,0.67-0.99c-0.29,0.35-0.58,0.71-0.87,1.06
				c0.09-0.1-0.25,0.31-0.2,0.31c0.97,0.04,0.55,0.13,1.39-0.35c0.17-0.1-0.15-0.91-0.19-0.86c-0.11,0.06-0.22,0.12-0.32,0.18
				c-0.25,0.32-0.5,0.64-0.76,0.95c0.59-0.52,1.03-1.07,1.1-1.86C55.24,96.53,54.55,97.18,54.5,97.49z"/>
			<path class="st1" d="M54.5,97.2c-0.16,0.28-0.31,0.57-0.47,0.85c-0.01,0.01-0.1,0.11-0.02,0.11c0.91,0.08,0.51,0.16,1.33-0.28
				c0.1-0.05-0.08-0.21-0.14-0.17c-0.88,0.5-0.55-0.26-0.47-0.69C54.77,96.87,54.51,97.13,54.5,97.2z"/>
			<path class="st1" d="M54.64,97.47c-0.03,0.17-0.05,0.34-0.08,0.52c0.28-0.46,0.57-0.92,0.85-1.38c-0.33,0.45-0.66,0.9-0.99,1.35
				c0.1-0.14-0.31,0.42-0.26,0.42c0.53,0.16,1,0.05,1.42-0.32c0.25-0.13-0.2-1.35-0.19-1.38c-0.04,0.08-0.07,0.16-0.11,0.24
				c-0.35,0.48-0.71,0.95-1.06,1.43c0.7-0.62,1.31-1.42,1.37-2.37C55.57,96.16,54.7,97.03,54.64,97.47z"/>
			<path class="st1" d="M54.7,97.03c-0.03,0.19-0.06,0.39-0.09,0.58c0.38-0.51,0.76-1.03,1.13-1.54c-0.47,0.57-0.94,1.14-1.41,1.71
				c-0.06,0.05-0.1,0.12-0.12,0.2c0.51,0.15,0.97,0.06,1.39-0.27c0.32-0.15,0.03-1.59,0.07-1.68c-0.45,0.58-0.9,1.17-1.34,1.75
				c0.44-0.46,0.88-0.92,1.32-1.39c0.09-0.32,0.18-0.64,0.27-0.95C55.87,95.66,54.94,96.58,54.7,97.03z"/>
			<path class="st1" d="M54.7,97.33c-0.03,0.17-0.05,0.34-0.08,0.52c0.25-0.39,0.5-0.79,0.74-1.18c-0.3,0.4-0.61,0.81-0.91,1.21
				c0.09-0.12-0.28,0.36-0.22,0.37c0.51,0.15,0.97,0.05,1.38-0.31c0.21-0.11-0.25-1.17-0.25-1.16c-0.05,0.08-0.1,0.16-0.14,0.23
				c-0.31,0.41-0.63,0.82-0.94,1.23c0.65-0.58,1.19-1.27,1.24-2.15C55.52,96.19,54.76,96.96,54.7,97.33z"/>
			<path class="st1" d="M54.46,97.91c-0.12,0.23-0.24,0.46-0.36,0.69c-0.02,0.02-0.28,0.29-0.15,0.3c0.97,0.1,0.53,0.18,1.41-0.3
				c0.07-0.04-0.09-0.26-0.17-0.22c-0.34,0.05-0.67,0.1-1.01,0.16c-0.07,0.12-0.13,0.24-0.2,0.35c0.56-0.49,0.61-0.58,0.76-1.32
				C54.79,97.36,54.48,97.82,54.46,97.91z"/>
		</g>
	</g>
</g>
<path class="st19" d="M9.53,8.67c0.66-0.08,1.36-0.17,2.12-0.61c0.28-0.16,0.62-0.36,0.91-0.76c0.18-0.24,0.3-0.5,0.45-1.06
	c0.33-1.18-0.59-3.3-1.06-3.48c-1.47-0.55-2.84-0.34-4.99,0C4.76,3.12,4.5,3.61,4.39,3.83C3.95,4.73,4.73,5.92,4.84,6.1
	c0.3,0.46,0.35,0.29,1.97,1.66c0.62,0.53,0.87,0.77,1.36,0.91C8.57,8.78,8.89,8.75,9.53,8.67z"/>
<path class="st20" d="M9.19,8.31c0.54-0.06,1.12-0.14,1.74-0.5c0.23-0.13,0.51-0.3,0.75-0.62c0.15-0.2,0.25-0.41,0.37-0.87
	c0.27-0.97,0.4-1.45,0.25-1.86c-0.2-0.55-0.73-0.85-1.12-0.99c-1.2-0.46-2.33-0.28-4.1,0c-1.8,0.29-2.02,0.69-2.11,0.87
	C4.61,5.07,5.25,6.06,5.34,6.2c0.24,0.38,0.29,0.24,1.61,1.37C7.47,8,7.67,8.2,8.07,8.31C8.41,8.4,8.67,8.37,9.19,8.31z"/>
<path d="M12.31,6.64c-0.41-0.41-0.83-0.82-1.24-1.23c-0.34-0.44-1.55-1.92-3.66-2.34C6.32,2.86,5.39,3.01,4.83,3.15
	c-1.53,0.64-2.56,2.2-3.5,3.9l-1.3,4.95l1.47-4.66C1.37,7.2,3.22,4.46,3.54,4.16c0.25-0.23,1.19-0.88,1.3-0.86
	C5.48,3.12,6.04,3.07,6.5,3.08c3.4,0.07,5.57,3.41,5.9,3.93"/>
<g>
	<g>
		<g>
			<path class="st1" d="M44.97,86.41c0.05,0.63-0.26,1.1-0.95,1.41c-0.02,0.01,0.01,0.06,0.03,0.05c0.63-0.53,0.91-0.62,0.97-1.44
				C45.02,86.42,44.97,86.38,44.97,86.41z"/>
			<path class="st1" d="M44.92,86.76c-0.31,0.44-0.61,0.89-0.92,1.33c-0.03,0.03-0.03,0.1,0.01,0.07c0.64-0.52,0.95-0.67,1.01-1.49
				C45.02,86.59,44.92,86.72,44.92,86.76z"/>
			<path class="st1" d="M45,86.49c-0.31,0.46-0.62,0.93-0.93,1.39c-0.04,0.03,0,0.08,0.03,0.05c0.64-0.53,0.92-0.65,0.98-1.47
				C45.08,86.4,45,86.45,45,86.49z"/>
			<path class="st1" d="M44.94,86.79c-0.32,0.45-0.63,0.91-0.95,1.36c-0.02,0.01,0.03,0.05,0.04,0.04c0.65-0.53,0.93-0.66,0.99-1.45
				C45.03,86.67,44.95,86.75,44.94,86.79z"/>
			<path class="st1" d="M44.98,86.47c-0.3,0.45-0.6,0.91-0.89,1.36c0.02-0.02-0.08,0.08-0.02,0.06c0.94-0.35,0.61-0.14,1.28-0.8
				c0.03-0.03,0.05-0.21-0.01-0.15c-0.22,0.22-0.44,0.44-0.66,0.66c-0.07,0.07,0.14-0.04,0.16-0.06c0.3-0.26,0.5-1.16,0.51-1.5
				C45.35,86.05,44.99,86.34,44.98,86.47z"/>
			<path class="st1" d="M45,86.59c-0.3,0.45-0.61,0.9-0.91,1.35c0.01-0.01-0.06,0.08-0.01,0.06c0.98-0.38,0.58-0.12,1.3-0.82
				c0.04-0.04,0.03-0.24,0-0.21c-0.19,0.19-0.38,0.38-0.57,0.58c-0.02,0.02-0.16,0.25-0.09,0.18c0.31-0.26,0.59-1.24,0.6-1.62
				C45.32,86.13,45.01,86.44,45,86.59z"/>
			<path class="st1" d="M44.97,86.61c-0.3,0.44-0.59,0.89-0.89,1.33c0.01-0.01-0.08,0.09-0.02,0.06c0.97-0.39,0.59-0.13,1.28-0.82
				c0.05-0.05,0.04-0.3,0.02-0.28c-0.18,0.2-0.37,0.41-0.55,0.61c-0.02,0.02-0.19,0.28-0.09,0.2c-0.04,0.03,0.32-0.63,0.32-0.63
				c0.22-0.38,0.33-0.59,0.34-1.08C45.37,86.06,44.98,86.44,44.97,86.61z"/>
			<path class="st1" d="M45,86.51c-0.3,0.45-0.59,0.9-0.89,1.35c0.02-0.01-0.08,0.08-0.02,0.06c0.96-0.36,0.58-0.11,1.26-0.8
				c0.04-0.04,0.03-0.24,0.01-0.21c-0.21,0.23-0.43,0.45-0.64,0.68c-0.06,0.06-0.03,0.1,0.04,0.04c0.31-0.26,0.6-1.27,0.61-1.61
				C45.37,86.04,45,86.36,45,86.51z"/>
			<path class="st1" d="M44.91,86.73c-0.28,0.41-0.56,0.83-0.83,1.24c-0.02,0.01-0.15,0.17-0.11,0.16c1.05-0.42,0.61-0.14,1.4-0.88
				c0.02-0.02,0.05-0.17-0.01-0.12c-0.23,0.19-0.45,0.39-0.68,0.58c-0.03,0.02-0.08,0.16-0.03,0.12c0.28-0.22,0.5-1.13,0.51-1.45
				C45.16,86.37,44.92,86.62,44.91,86.73z"/>
			<path class="st1" d="M44.95,86.74c-0.23,0.36-0.46,0.72-0.69,1.09c-0.03,0.03-0.28,0.32-0.25,0.31c1.02-0.42,0.61-0.14,1.36-0.87
				c0.04-0.04,0.05-0.26,0.02-0.24c-0.22,0.2-0.44,0.41-0.66,0.61c-0.03,0.03-0.14,0.25-0.06,0.19c0,0,0.27-0.55,0.3-0.61
				c0.21-0.38,0.27-0.56,0.28-1.01C45.26,86.26,44.96,86.59,44.95,86.74z"/>
			<path class="st1" d="M44.98,86.56c-0.3,0.45-0.59,0.9-0.89,1.34c0.01-0.01-0.09,0.09-0.02,0.06c0.96-0.38,0.58-0.12,1.27-0.81
				c0.04-0.04,0.04-0.27,0.02-0.24c-0.2,0.22-0.4,0.44-0.6,0.65c0,0-0.14,0.2-0.05,0.13c-0.07,0.06,0.36-0.66,0.38-0.68
				c0.19-0.36,0.28-0.57,0.28-0.99C45.37,86.05,44.98,86.4,44.98,86.56z"/>
			<path class="st1" d="M44.98,86.67c-0.25,0.38-0.49,0.77-0.74,1.15c-0.02,0.02-0.25,0.28-0.21,0.26c1.03-0.41,0.6-0.14,1.37-0.86
				c0.03-0.03,0.04-0.23,0.01-0.2c-0.22,0.2-0.45,0.4-0.67,0.6c-0.03,0.02-0.12,0.21-0.05,0.16c-0.06,0.04,0.24-0.5,0.24-0.51
				c0.21-0.42,0.3-0.57,0.32-1.05C45.25,86.26,44.99,86.54,44.98,86.67z"/>
		</g>
	</g>
</g>
<g>
	<g>
		<g>
			<path class="st1" d="M45.44,88.44c0.3-0.12,0.6-0.25,0.91-0.37c-0.1,0.04-0.42-0.31-0.58-0.25c-0.29,0.11-0.57,0.21-0.86,0.32
				C44.98,88.11,45.29,88.5,45.44,88.44z"/>
			<path class="st1" d="M45.5,88.55c0.3-0.12,0.61-0.25,0.91-0.37c-0.09,0.04-0.43-0.38-0.59-0.32c-0.29,0.11-0.58,0.22-0.87,0.33
				C45.03,88.15,45.36,88.61,45.5,88.55z"/>
			<path class="st1" d="M45.42,88.4c0.31-0.13,0.62-0.26,0.94-0.38c0.03-0.01,0.02-0.07-0.02-0.06c-0.31,0.13-0.62,0.26-0.93,0.38
				C45.38,88.35,45.38,88.41,45.42,88.4z"/>
			<path class="st1" d="M45.46,88.69c0.31-0.13,0.62-0.26,0.93-0.39c0.05-0.02-0.02-0.09-0.05-0.08c-0.31,0.13-0.62,0.25-0.94,0.38
				C45.35,88.63,45.43,88.7,45.46,88.69z"/>
			<path class="st1" d="M45.45,88.57c0.3-0.12,0.6-0.25,0.91-0.37c-0.09,0.04-0.47-0.45-0.64-0.39c-0.28,0.1-0.57,0.21-0.85,0.31
				C44.94,88.09,45.3,88.63,45.45,88.57z"/>
			<path class="st1" d="M45.45,88.47c0.3-0.12,0.6-0.25,0.91-0.37c-0.1,0.04-0.46-0.36-0.63-0.3c-0.28,0.1-0.57,0.21-0.85,0.31
				C44.96,88.09,45.29,88.54,45.45,88.47z"/>
			<path class="st1" d="M45.47,88.64c0.31-0.13,0.62-0.26,0.93-0.39c-0.01,0-0.22-0.28-0.31-0.25c-0.31,0.12-0.62,0.25-0.93,0.37
				C45.18,88.38,45.39,88.68,45.47,88.64z"/>
			<path class="st1" d="M45.49,88.47c0.31-0.13,0.62-0.26,0.94-0.39c0.05-0.02-0.08-0.1-0.11-0.08c-0.31,0.13-0.62,0.25-0.93,0.38
				C45.33,88.4,45.45,88.48,45.49,88.47z"/>
			<path class="st1" d="M45.51,88.68c0.31-0.13,0.62-0.26,0.93-0.38c-0.05,0.02-0.37-0.43-0.49-0.38c-0.3,0.12-0.6,0.24-0.9,0.35
				C45.09,88.25,45.39,88.73,45.51,88.68z"/>
			<path class="st1" d="M45.44,88.52c0.3-0.12,0.6-0.25,0.91-0.37c-0.1,0.04-0.46-0.4-0.63-0.34c-0.28,0.1-0.57,0.21-0.85,0.31
				C44.95,88.09,45.29,88.58,45.44,88.52z"/>
			<path class="st1" d="M45.53,88.62c0.31-0.13,0.63-0.25,0.94-0.38c-0.05,0.02-0.35-0.38-0.48-0.33c-0.31,0.12-0.61,0.24-0.92,0.36
				C45.12,88.25,45.41,88.67,45.53,88.62z"/>
			<path class="st1" d="M45.5,88.73c0.31-0.13,0.62-0.26,0.93-0.39c0.04-0.02,0-0.08-0.04-0.07c-0.31,0.13-0.62,0.26-0.94,0.38
				C45.41,88.67,45.46,88.74,45.5,88.73z"/>
		</g>
	</g>
</g>
<g>
	<g>
		<g>
			<path class="st1" d="M44.44,90.54c0.49-0.03,0.98-0.05,1.48-0.08c-0.1,0.01-0.29-0.41-0.45-0.41c-0.48,0.02-0.95,0.04-1.43,0.05
				C44.12,90.1,44.29,90.55,44.44,90.54z"/>
			<path class="st1" d="M44.5,90.66c0.49-0.03,0.99-0.05,1.48-0.08c-0.1,0.01-0.3-0.48-0.47-0.47c-0.48,0.02-0.96,0.04-1.43,0.05
				C44.17,90.16,44.34,90.67,44.5,90.66z"/>
			<path class="st1" d="M44.42,90.5c0.5-0.03,1-0.05,1.5-0.08c0.02,0,0.05-0.05,0.01-0.05c-0.5,0.03-1,0.06-1.5,0.08
				C44.42,90.45,44.38,90.5,44.42,90.5z"/>
			<path class="st1" d="M44.46,90.82c0.5-0.03,1-0.06,1.5-0.09c0.06,0-0.01-0.12-0.05-0.12c-0.5,0.03-1,0.05-1.5,0.08
				C44.36,90.7,44.43,90.82,44.46,90.82z"/>
			<path class="st1" d="M44.46,90.68c0.49-0.03,0.99-0.05,1.48-0.08c-0.11,0.01-0.32-0.58-0.5-0.57c-0.48,0.02-0.95,0.03-1.43,0.05
				C44.1,90.08,44.28,90.69,44.46,90.68z"/>
			<path class="st1" d="M44.46,90.58c0.49-0.03,0.99-0.05,1.48-0.08c-0.11,0.01-0.31-0.48-0.49-0.47c-0.48,0.02-0.95,0.03-1.43,0.05
				C44.11,90.08,44.29,90.59,44.46,90.58z"/>
			<path class="st1" d="M44.47,90.77c0.5-0.03,1-0.06,1.5-0.09c-0.02,0-0.14-0.35-0.24-0.34c-0.5,0.03-1,0.05-1.5,0.08
				C44.26,90.42,44.37,90.78,44.47,90.77z"/>
			<path class="st1" d="M44.48,90.57c0.5-0.03,1-0.06,1.5-0.08c0.05,0-0.03-0.1-0.07-0.1c-0.5,0.03-1,0.05-1.5,0.08
				C44.36,90.47,44.45,90.57,44.48,90.57z"/>
			<path class="st1" d="M44.51,90.81c0.5-0.03,1-0.06,1.49-0.09c-0.07,0-0.24-0.53-0.4-0.52c-0.49,0.02-0.98,0.05-1.47,0.07
				C44.21,90.27,44.37,90.81,44.51,90.81z"/>
			<path class="st1" d="M44.45,90.63c0.49-0.03,0.99-0.05,1.48-0.08c-0.11,0.01-0.31-0.53-0.49-0.52c-0.48,0.02-0.95,0.03-1.43,0.05
				C44.1,90.08,44.28,90.64,44.45,90.63z"/>
			<path class="st1" d="M44.53,90.75c0.5-0.03,1-0.05,1.5-0.08c-0.07,0-0.24-0.46-0.38-0.46c-0.49,0.02-0.99,0.05-1.48,0.07
				C44.23,90.28,44.39,90.76,44.53,90.75z"/>
			<path class="st1" d="M44.5,90.86c0.5-0.03,1-0.06,1.5-0.09c0.06,0,0-0.1-0.04-0.1c-0.5,0.03-1,0.05-1.5,0.08
				C44.4,90.75,44.46,90.86,44.5,90.86z"/>
		</g>
	</g>
</g>
<g>
	<g>
		<g>
			<path class="st1" d="M43.5,88.88c0.1,0.34,0.02,0.21,0.33,0.46c0.02,0.02,0-0.04-0.01-0.05c-0.08-0.14-0.17-0.29-0.25-0.43
				C43.56,88.82,43.49,88.84,43.5,88.88z"/>
			<path class="st1" d="M43.48,89.17c0.08,0.32,0.04,0.23,0.33,0.47c0.02,0.01,0.05,0.01,0.03-0.01c-0.1-0.15-0.2-0.29-0.3-0.44
				C43.53,89.16,43.47,89.14,43.48,89.17z"/>
			<path class="st1" d="M43.51,88.93c0.2,0.78,1.87,0.59,2.31,0.63c0.06,0,0.12-0.36,0.09-0.36c-0.03,0-1.83,0.1-1.81-0.5
				C44.11,88.72,43.49,88.84,43.51,88.93z"/>
			<path class="st1" d="M43.53,89.03c0.2,0.8,1.86,0.6,2.34,0.63c0.06,0,0.1-0.39,0.07-0.4c-0.16-0.01-1.87,0.14-1.88-0.52
				C44.05,88.77,43.5,88.92,43.53,89.03z"/>
			<path class="st1" d="M43.45,89.17c0.24,0.91,1.83,0.61,2.42,0.64c0.02,0-0.03-0.02-0.04-0.02c-0.76-0.22-1.52-0.44-2.28-0.66
				C43.54,89.07,43.44,89.14,43.45,89.17z"/>
			<path class="st1" d="M43.5,89.06c0.19,0.77,1.9,0.58,2.33,0.61c0.06,0,0.13-0.5,0.09-0.5c0.03,0-1.82,0.09-1.78-0.48
				C44.14,88.76,43.47,88.93,43.5,89.06z"/>
			<path class="st1" d="M43.53,88.97c0.19,0.77,1.88,0.58,2.31,0.62c0.06,0,0.12-0.41,0.08-0.41c0.03,0-1.82,0.09-1.78-0.49
				C44.14,88.72,43.5,88.86,43.53,88.97z"/>
			<path class="st1" d="M43.43,89.14c0.23,0.85,1.87,0.6,2.41,0.63c0.06,0,0.11-0.25,0.08-0.25c-0.44-0.03-1.99,0.2-2.12-0.61
				C43.8,88.91,43.4,89.05,43.43,89.14z"/>
			<path class="st1" d="M43.54,88.94c0.24,0.89,1.8,0.61,2.38,0.64c0.02,0-0.03-0.02-0.04-0.03c-0.9,0.2-1.65-0.02-2.24-0.66
				C43.63,88.86,43.53,88.9,43.54,88.94z"/>
			<path class="st1" d="M43.47,89.16c0.21,0.84,1.87,0.61,2.39,0.64c0.07,0,0.12-0.41,0.1-0.42c-0.33-0.02-1.92,0.18-2-0.56
				C43.96,88.86,43.44,89.04,43.47,89.16z"/>
			<path class="st1" d="M43.51,89.02c0.19,0.77,1.89,0.58,2.32,0.61c0.06,0.01,0.13-0.46,0.09-0.46c0.04,0-1.82,0.09-1.78-0.48
				C44.14,88.74,43.48,88.89,43.51,89.02z"/>
			<path class="st1" d="M43.51,89.1c0.2,0.87,1.84,0.62,2.38,0.65c0.06,0,0.11-0.35,0.08-0.36c-0.39-0.02-1.94,0.21-2.04-0.57
				C43.94,88.84,43.48,89,43.51,89.1z"/>
		</g>
	</g>
</g>
<g>
	<g>
		<g>
			<path class="st1" d="M44.94,85.28c-0.02-2.04-0.65-3.9-0.87-5.92c-0.01-0.05-0.15,0.1-0.14,0.15c0.22,2.01,0.84,3.86,0.86,5.88
				C44.79,85.45,44.94,85.33,44.94,85.28z"/>
			<path class="st1" d="M44.99,85.36c0.09-1.01-0.02-1.99-0.34-2.95c-0.45-2.14-0.52-1.97-0.22,0.5c0,0.01,0.05,0.05,0.05,0.03
				c-0.12-1.17-0.24-2.33-0.36-3.5c-0.01-0.05-0.17,0.1-0.17,0.15c0.22,2.01,0.84,3.86,0.85,5.88
				C44.8,85.54,44.99,85.41,44.99,85.36z"/>
			<path class="st1" d="M44.92,85.37c-0.02-2.03-0.65-3.89-0.87-5.9c-0.16,0.2-0.32,0.4-0.47,0.6c0.5,2.11,0.8,4.25,0.91,6.42
				c0,0.05,0.15-0.09,0.15-0.14c-0.09-2.3-0.29-4.59-0.58-6.88c0.01,0.14-0.5,0.39-0.47,0.6c0.21,1.98,0.78,3.81,0.78,5.8
				C44.35,85.74,44.92,85.56,44.92,85.37z"/>
			<path class="st1" d="M44.96,85.46c-0.02-2.03-0.65-3.88-0.87-5.9c-0.15,0.15-0.3,0.3-0.45,0.45c0.29,2.15,0.59,4.31,0.88,6.46
				c0.01,0.06,0.15-0.02,0.15-0.06c-0.09-2.29-0.28-4.58-0.58-6.85c0.01,0.09-0.47,0.29-0.45,0.45c0.21,1.98,0.79,3.81,0.79,5.81
				C44.42,85.75,44.96,85.61,44.96,85.46z"/>
			<path class="st1" d="M44.89,85.51c-0.02-2.03-0.65-3.88-0.87-5.89c-0.15,0.15-0.31,0.31-0.46,0.46c0.31,2.14,0.61,4.27,0.92,6.41
				c0.01,0.06,0.15-0.01,0.15-0.05c-0.09-2.29-0.29-4.56-0.6-6.83c0.01,0.09-0.48,0.3-0.46,0.46c0.21,1.97,0.78,3.8,0.77,5.8
				C44.33,85.81,44.89,85.67,44.89,85.51z"/>
			<path class="st1" d="M44.92,85.42c-0.02-2.03-0.65-3.88-0.87-5.9c-0.17,0.19-0.33,0.38-0.5,0.57c0.31,2.14,0.61,4.27,0.92,6.41
				c0.01,0.06,0.17-0.07,0.16-0.11c-0.09-2.3-0.29-4.58-0.58-6.86c0.01,0.13-0.52,0.37-0.5,0.57c0.21,1.97,0.78,3.8,0.77,5.8
				C44.33,85.77,44.92,85.6,44.92,85.42z"/>
			<path class="st1" d="M44.9,85.55c-0.01-0.8-0.01-1.45-0.18-2.22c-0.03-0.81-0.12-0.97-0.28-0.48c-0.54,1.11-0.5,2.32,0.12,3.63
				c0,0.04,0.05,0.04,0.05,0.01c-0.07-2.29-0.27-4.57-0.59-6.84c-0.01-0.06-0.22,0.11-0.21,0.16c0.22,1.97,0.82,3.87,0.83,5.87
				C44.65,85.73,44.9,85.6,44.9,85.55z"/>
			<path class="st1" d="M44.93,85.56c-0.02-2.04-0.64-3.89-0.86-5.91c-0.12,0.1-0.23,0.19-0.35,0.29c0.47,2.17,0.75,4.36,0.83,6.58
				c0,0.04,0.1,0.02,0.1-0.02c-0.07-2.29-0.27-4.57-0.58-6.84c0,0.03-0.36,0.18-0.35,0.29c0.21,1.99,0.8,3.83,0.8,5.85
				C44.52,85.76,44.93,85.66,44.93,85.56z"/>
			<path class="st1" d="M44.89,85.47c-0.02-2.03-0.65-3.88-0.87-5.89c-0.16,0.17-0.31,0.34-0.47,0.51c0.31,2.14,0.61,4.27,0.92,6.41
				c0.01,0.06,0.15-0.04,0.15-0.08c-0.09-2.29-0.29-4.57-0.6-6.84c0.01,0.11-0.49,0.34-0.47,0.51c0.21,1.97,0.78,3.8,0.77,5.8
				C44.33,85.79,44.9,85.64,44.89,85.47z"/>
			<path class="st1" d="M44.96,85.51c-0.02-2.04-0.65-3.9-0.87-5.91c-0.12,0.1-0.24,0.21-0.36,0.31c0.47,2.17,0.74,4.36,0.82,6.57
				c0,0.06,0.11,0.02,0.11-0.02c-0.08-2.3-0.27-4.59-0.57-6.87c0,0.04-0.37,0.2-0.36,0.31c0.22,1.99,0.8,3.84,0.81,5.85
				C44.54,85.73,44.96,85.62,44.96,85.51z"/>
		</g>
	</g>
</g>
<g>
	<g>
		<g>
			<path class="st1" d="M44.33,86.05c-0.15,0.52-0.3,1.05-0.45,1.57c-0.01,0.02,0.03,0.06,0.04,0.03c0.55-0.98,0.4-0.46,0.46-1.58
				C44.38,86.05,44.33,86.02,44.33,86.05z"/>
			<path class="st1" d="M44.28,86.39c-0.15,0.51-0.3,1.02-0.45,1.54c-0.04,0.07,0.05,0.03,0.08-0.01c0.55-0.98,0.41-0.48,0.47-1.61
				C44.38,86.23,44.28,86.36,44.28,86.39z"/>
			<path class="st1" d="M44.36,86.12c-0.15,0.52-0.3,1.04-0.45,1.56c-0.03,0.05,0.04,0.05,0.07,0.01c0.55-0.99,0.4-0.47,0.46-1.6
				C44.44,86.03,44.36,86.09,44.36,86.12z"/>
			<path class="st1" d="M44.3,86.42c-0.15,0.51-0.3,1.03-0.45,1.54c-0.02,0.04,0.04,0.04,0.06,0c0.55-0.96,0.41-0.48,0.47-1.6
				C44.39,86.31,44.31,86.38,44.3,86.42z"/>
			<path class="st1" d="M44.35,86.11c0.18,0.36,0.29,0.46,0.35,0.31c0.12-0.32,0.15-0.66,0.12-1.02c0.01-0.07-0.09,0-0.09,0.03
				c-0.27,0.74-0.55,1.49-0.82,2.23c0.03-0.05,0.37-0.23,0.43-0.37c0.36-0.48,0.49-1.02,0.39-1.61
				C44.72,85.7,44.35,85.98,44.35,86.11z"/>
			<path class="st1" d="M44.36,86.22c0.19,0.3,0.3,0.38,0.32,0.23c0.06-0.35,0.1-0.69,0.14-1.04c0.01-0.06-0.07,0.04-0.08,0.07
				c-0.28,0.76-0.55,1.53-0.83,2.29c0.03-0.06,0.31-0.27,0.38-0.42c0.47-0.97,0.36-0.5,0.4-1.61
				C44.69,85.77,44.37,86.08,44.36,86.22z"/>
			<path class="st1" d="M44.33,86.25c0.22,0.25,0.34,0.3,0.38,0.16c0.09-0.33,0.13-0.67,0.11-1.01c0.01-0.09-0.1,0.09-0.11,0.13
				c-0.28,0.76-0.56,1.52-0.83,2.28c0.04-0.08,0.39-0.34,0.48-0.52c0.36-0.49,0.48-1.02,0.39-1.62
				C44.74,85.71,44.34,86.07,44.33,86.25z"/>
			<path class="st1" d="M44.36,86.14c0.19,0.32,0.31,0.41,0.35,0.26c0.1-0.32,0.14-0.66,0.11-1.01c0.01-0.07-0.09,0.03-0.09,0.07
				c-0.27,0.75-0.54,1.5-0.82,2.24c0.03-0.06,0.37-0.27,0.45-0.42c0.36-0.48,0.48-1.02,0.39-1.61C44.74,85.69,44.36,86,44.36,86.14z
				"/>
			<path class="st1" d="M44.27,86.36c0.14,0.34,0.24,0.44,0.29,0.3c0.15-0.35,0.22-0.73,0.21-1.13c0.01-0.06-0.06-0.03-0.07,0.02
				c-0.29,0.78-0.58,1.56-0.87,2.34c-0.06,0.12,0.23-0.17,0.26-0.23c0.52-1.01,0.39-0.51,0.45-1.65
				C44.52,86.01,44.27,86.25,44.27,86.36z"/>
			<path class="st1" d="M44.31,86.38c0.17,0.27,0.27,0.34,0.32,0.2c0.15-0.35,0.21-0.72,0.18-1.12c0.01-0.07-0.08,0.06-0.08,0.09
				c-0.28,0.78-0.57,1.55-0.85,2.33c-0.08,0.15,0.29-0.28,0.33-0.36c0.51-1.01,0.39-0.53,0.43-1.66
				C44.63,85.9,44.31,86.22,44.31,86.38z"/>
			<path class="st1" d="M44.34,86.19c0.21,0.29,0.33,0.36,0.37,0.21c0.1-0.32,0.14-0.66,0.11-1.01c0.01-0.08-0.1,0.06-0.11,0.1
				c-0.28,0.75-0.55,1.51-0.83,2.26c0.04-0.07,0.39-0.3,0.47-0.47c0.36-0.48,0.48-1.02,0.39-1.62
				C44.74,85.69,44.34,86.03,44.34,86.19z"/>
			<path class="st1" d="M44.34,86.31c0.14,0.32,0.24,0.41,0.29,0.27c0.14-0.35,0.2-0.72,0.18-1.11c0.02-0.1-0.06,0-0.07,0.05
				c-0.28,0.77-0.57,1.55-0.85,2.32c-0.07,0.14,0.26-0.23,0.29-0.29c0.51-1.02,0.39-0.53,0.44-1.67
				C44.62,85.9,44.35,86.18,44.34,86.31z"/>
		</g>
	</g>
</g>
<g>
	<g>
		<g>
			<path class="st1" d="M42.24,66.93c-0.48-0.02-0.95-0.04-1.43-0.06c-0.05,0,0.08,0.18,0.12,0.18c0.48,0.02,0.96,0.04,1.43,0.06
				C42.42,67.12,42.29,66.94,42.24,66.93z"/>
			<path class="st1" d="M42.31,67.04c-0.48-0.02-0.96-0.04-1.43-0.06c-0.06,0,0.07,0.14,0.1,0.15c0.29,0.08,0.59,0.15,0.88,0.23
				c0.01,0,0.04-0.04,0.04-0.04c0.17-0.04,0.34-0.09,0.51-0.13C42.46,67.19,42.35,67.04,42.31,67.04z"/>
			<path class="st1" d="M44.28,67.35c0.29,0.09,0.58,0.1,0.87,0.02c0.01,0,0.03-0.06,0.01-0.05c-0.29,0.08-0.59,0.08-0.88-0.02
				C44.29,67.29,44.28,67.35,44.28,67.35z"/>
			<path class="st1" d="M42.26,67.04c-0.47-0.02-0.94-0.04-1.41-0.07c0.16,0.01,0.35,0.52,0.57,0.54c0.54,0.06,1.09,0.27,1.6,0.31
				c-0.04,0,1.55-0.41,2.05-0.49c0.01,0,0.02-0.01,0.01-0.03c-0.65-0.87-2.24-0.18-3.05,0.01c-0.04,0.01,0.07,0.22,0.1,0.22
				c1.11,0.18,0.58,0.25,1.67-0.24c0.07-0.03-0.01-0.06-0.05-0.04c-0.43,0.16-0.87,0.33-1.3,0.49c-0.05,0.02,0,0.11,0.04,0.09
				c0.53-0.63,1.21-0.86,2.04-0.68c-0.28,0.05-0.56,0.09-0.84,0.14c-0.05,0.02-0.1,0.02-0.15,0.04c-0.12,0.04-0.24,0.19-0.36,0.2
				c-0.11,0.09-0.25,0.16-0.4,0.18c-0.62-0.29-1.25-0.54-1.91-0.74c0.18,0.18,0.36,0.36,0.55,0.54c0.46,0.02,0.93,0.04,1.39,0.06
				C42.66,67.58,42.48,67.05,42.26,67.04z"/>
			<path class="st1" d="M42.33,67.15c-0.47-0.02-0.94-0.04-1.41-0.06c0.01,0,0.29,0.37,0.42,0.39c0.55,0.08,1.16,0.48,1.73,0.39
				c0.09-0.09,0.18-0.17,0.28-0.26c0.29-0.06,0.59-0.12,0.88-0.18c1.95-0.2-1.04,0.29,0.91,0c0.02,0,0.02-0.01,0.01-0.02
				c-0.67-0.9-2.24-0.21-3.09-0.01c-0.04,0.01,0.04,0.13,0.06,0.14c1.17,0.22,0.6,0.27,1.73-0.17c0.07-0.03-0.07-0.07-0.1-0.05
				c-0.42,0.17-0.85,0.34-1.27,0.51c-0.02,0.01-0.04,0.06-0.01,0.05c0.29-0.22,0.58-0.44,0.86-0.65c0.37,0.04,0.74,0.08,1.11,0.12
				c-0.09,0.05-0.77,0.01-0.82,0.02c-0.08,0.01-0.11,0.1-0.2,0.11c-0.29,0.03-2.77-0.02-0.69,0.07
				C42.72,67.54,42.45,67.15,42.33,67.15z"/>
			<path class="st1" d="M42.31,67.2c-0.47-0.02-0.94-0.04-1.41-0.06c0.03,0,0.36,0.4,0.51,0.41c-1.63-0.17,1.36,0.38,1.6,0.35
				c0.4-0.07,0.77-0.22,1.13-0.44c0.31,0.08,0.61,0.08,0.92-0.02c0.02,0,0.02-0.01,0.01-0.02c-0.62-0.86-2.22-0.18-3.03,0.01
				c-0.06,0.02,0.06,0.14,0.09,0.14c1.08,0.18,0.59,0.21,1.66-0.19c0.07-0.03-0.06-0.09-0.1-0.08c-0.42,0.18-0.84,0.35-1.26,0.53
				c-0.03,0.01-0.01,0.07,0.03,0.05c3.17-1.21,2.26-0.62,1.03-0.52c-0.13,0.05-0.24,0.11-0.34,0.21c-1.55-0.19-1.66-0.18-0.35,0.04
				C42.78,67.6,42.46,67.2,42.31,67.2z"/>
			<path class="st1" d="M42.29,67.1c-0.47-0.02-0.94-0.04-1.41-0.07c0.15,0.01,0.35,0.49,0.56,0.51c0.54,0.06,1.05,0.27,1.57,0.31
				c-0.58-0.05,1.71-0.43,2.06-0.49c0.02,0,0.02-0.01,0.01-0.02c-0.63-0.84-2.24-0.17-3.04,0.02c-0.04,0.01,0.06,0.2,0.09,0.2
				c1.12,0.18,0.58,0.24,1.68-0.24c0.06-0.03-0.09-0.04-0.12-0.03c-0.41,0.16-0.83,0.33-1.24,0.49c-0.05,0.02-0.01,0.09,0.02,0.07
				c1.09-0.44,3.02-0.95,1.21-0.53c-0.05,0.01-0.1,0-0.15,0.02c-0.14,0.04-0.27,0.19-0.39,0.22c-0.12,0.06-0.24,0.13-0.35,0.19
				c-0.61-0.29-1.24-0.53-1.89-0.72c0.18,0.17,0.36,0.34,0.54,0.51c0.46,0.02,0.93,0.04,1.39,0.06C42.69,67.6,42.5,67.11,42.29,67.1
				z"/>
			<path class="st1" d="M42.25,67.2c-0.48-0.02-0.95-0.04-1.43-0.06c-0.03,0,0.18,0.19,0.24,0.2c0.58,0.13,1.36,0.69,1.98,0.6
				c0.48-0.06,0.93-0.38,1.41-0.43c-0.08,0.01,1.01-0.05,0.67-0.01c0.02,0,0.02-0.03,0.01-0.04c-0.66-0.92-2.27-0.22-3.14-0.02
				c-0.03,0.01-0.04,0.05-0.01,0.06c0.63,0.33,1.24,0.3,1.83-0.08c0.02-0.01,0.04-0.07,0-0.05c-0.49,0.17-0.98,0.34-1.46,0.51
				c-0.01,0,0.02,0.05,0.03,0.05c1.97-0.41,2.41-0.59,1.34-0.52c-0.08,0-0.14,0.04-0.2,0.11c-0.23,0.14-0.47,0.25-0.73,0.33
				c-1.17-0.32-1.28-0.47-0.31-0.45C42.52,67.4,42.33,67.21,42.25,67.2z"/>
			<path class="st1" d="M42.3,67.23c-0.48-0.02-0.96-0.05-1.44-0.07c-0.01,0,0.24,0.25,0.33,0.27c-2.44-0.44,1.7,0.52,1.86,0.53
				c0.14-0.02,0.24-0.11,0.31-0.28c0.6-0.03,1.2-0.09,1.79-0.16c0.03,0,0.01-0.03,0-0.04c-0.65-0.9-2.3-0.22-3.14-0.02
				c-0.05,0.01-0.01,0.07,0.02,0.07c1.21,0.26,0.65,0.29,1.83-0.11c0.05-0.02-0.02-0.09-0.06-0.08c-0.47,0.18-0.95,0.36-1.42,0.54
				c-0.03,0.01,0.02,0.04,0.04,0.03c2.75-0.95,2.6-0.61,1.26-0.53c-0.5,0.42-1.1,0.45-1.78,0.08c-0.27-0.09-0.03-0.09,0.74,0.01
				C42.64,67.49,42.4,67.24,42.3,67.23z"/>
			<path class="st1" d="M42.28,67.15c-0.47-0.02-0.94-0.04-1.41-0.06c0.15,0.01,0.36,0.44,0.55,0.46c2.22,0.23,0.89,0.35,1.61,0.33
				c-0.73,0.02,1.74-0.42,2.02-0.47c0.02,0,0.02-0.01,0.01-0.02c-0.6-0.81-2.3-0.16-3.03,0.01c-0.06,0.02,0.05,0.17,0.09,0.17
				c0.97,0.15,0.69,0.18,1.66-0.22c0.07-0.03-0.07-0.07-0.11-0.05c-0.42,0.17-0.83,0.34-1.25,0.51c-0.04,0.02-0.01,0.08,0.03,0.06
				c3.04-1.19,2.3-0.62,1.04-0.52c-0.12,0.01-0.35,0.2-0.35,0.2c-0.7,0.1-1.61-0.26-2.26-0.47c0.18,0.15,0.37,0.31,0.55,0.46
				c0.46,0.02,0.93,0.04,1.39,0.06C42.68,67.6,42.49,67.16,42.28,67.15z"/>
			<path class="st1" d="M42.32,67.19c-0.48-0.02-0.96-0.05-1.44-0.07c-0.02,0,0.22,0.27,0.3,0.28c0.54,0.1,1.34,0.62,1.9,0.52
				c0.32-0.06,0.54-0.44,0.95-0.47c0.4-0.03,0.74,0.08,1.15,0.04c0.03,0,0.01-0.03,0-0.04c-0.62-0.86-2.34-0.21-3.15-0.02
				c-0.04,0.01-0.04,0.07,0,0.08c1.23,0.28,0.63,0.31,1.84-0.11c0.05-0.02-0.01-0.08-0.05-0.07c-0.46,0.18-0.93,0.36-1.39,0.54
				c-0.01,0-0.05,0.03-0.04,0.02c3.42-1.14,2.58-0.57,1.31-0.51c-0.12,0.07-0.25,0.14-0.36,0.22c-1.71-0.16-1.95-0.21-0.72-0.14
				C42.64,67.46,42.41,67.2,42.32,67.19z"/>
		</g>
	</g>
</g>
<g>
	<g>
		<g>
			<path class="st1" d="M42.77,68.17c-0.22,4.5,0.73,9.42,1.2,13.67c-0.01-0.06,0.55-0.25,0.53-0.39c-0.47-4.34-1.39-9.1-1.14-13.61
				C43.36,67.91,42.78,68.02,42.77,68.17z"/>
			<path class="st1" d="M42.79,68.28c-0.22,4.5,0.73,9.42,1.2,13.67c-0.01-0.08,0.48-0.29,0.47-0.45c-0.47-4.33-1.4-9.11-1.15-13.61
				C43.3,67.98,42.79,68.11,42.79,68.28z"/>
			<path class="st1" d="M42.76,68.08c-0.22,4.56,0.71,9.19,1.2,13.68c0,0.03,0.06,0.06,0.05,0.03c-0.79-4.53-1.18-9.09-1.19-13.67
				C42.82,68.07,42.76,68.04,42.76,68.08z"/>
			<path class="st1" d="M42.7,68.42c-0.22,4.57,0.7,9.2,1.2,13.7c0.01,0.06,0.11-0.04,0.11-0.07c-0.78-4.53-1.18-9.08-1.19-13.66
				C42.81,68.31,42.7,68.38,42.7,68.42z"/>
			<path class="st1" d="M42.75,68.32c-0.22,4.5,0.73,9.42,1.2,13.67c-0.01-0.12,0.6-0.37,0.58-0.56c-0.47-4.34-1.39-9.1-1.14-13.6
				C43.39,67.95,42.76,68.11,42.75,68.32z"/>
			<path class="st1" d="M42.79,68.21c-0.22,4.5,0.73,9.42,1.2,13.67c-0.01-0.08,0.56-0.29,0.54-0.45c-0.47-4.34-1.39-9.1-1.14-13.6
				C43.38,67.91,42.79,68.04,42.79,68.21z"/>
			<path class="st1" d="M42.68,68.38c-0.22,4.57,0.71,9.21,1.2,13.7c0-0.04,0.35-0.21,0.34-0.34c-0.79-4.52-1.18-9.06-1.17-13.63
				C43.05,68.09,42.69,68.3,42.68,68.38z"/>
			<path class="st1" d="M42.8,68.17c-0.22,4.5,0.73,9.41,1.2,13.68c0.01,0.06,0.09,0.01,0.09-0.03c-0.47-4.28-1.41-9.16-1.19-13.67
				C42.9,68.09,42.8,68.13,42.8,68.17z"/>
			<path class="st1" d="M42.72,68.42c-0.22,4.5,0.73,9.41,1.2,13.68c-0.01-0.1,0.47-0.32,0.45-0.5c-0.47-4.32-1.39-9.12-1.16-13.62
				C43.21,68.09,42.73,68.25,42.72,68.42z"/>
			<path class="st1" d="M42.76,68.26c-0.22,4.5,0.73,9.42,1.2,13.67c-0.01-0.1,0.59-0.33,0.57-0.51c-0.47-4.34-1.39-9.1-1.14-13.6
				C43.39,67.93,42.77,68.07,42.76,68.26z"/>
			<path class="st1" d="M42.77,68.36c-0.23,4.51,0.72,9.4,1.19,13.69c-0.01-0.07,0.41-0.27,0.4-0.42
				c-0.47-4.33-1.39-9.13-1.16-13.64C43.19,68.07,42.77,68.21,42.77,68.36z"/>
			<path class="st1" d="M42.73,68.44c-0.22,4.51,0.73,9.41,1.19,13.69c0,0.04,0.08,0.03,0.07-0.01c-0.47-4.26-1.41-9.17-1.2-13.67
				C42.8,68.41,42.74,68.4,42.73,68.44z"/>
		</g>
	</g>
</g>
<g>
	<g>
		<g>
			<path class="st1" d="M53.78,69.84c0.07,5.34,0.34,10.61,0.75,15.94c0.22,2.86,0.78,5.63-1.01,8.29
				c-0.01,0.02-0.01,0.03-0.02,0.05c0.26,0.65,0.52,1.31,0.78,1.96c0.26-0.44,0.52-0.88,0.78-1.32c0.49-1.37,0.99-2.74,1.48-4.11
				c-0.04,0.1-1.04,0.51-1.13,0.87c-0.39,1.56-0.79,3.13-1.18,4.69c0.05-0.18,0.64-0.95,0.78-1.32c0.22-0.6,0.44-1.2,0.67-1.8
				c0.04-0.06,0.05-0.12,0.04-0.18c-0.07,0.01,0.33-4.58,0.33-4.55c-0.16-2.07-0.29-4.15-0.4-6.22c-0.44-4.47-0.58-8.94-0.41-13.43
				C55.22,69,53.77,69.4,53.78,69.84z"/>
			<path class="st1" d="M53.81,70.11c0.07,5.35,0.34,10.63,0.76,15.96c0.22,2.86,0.78,5.6-1.01,8.27c0,0.02-0.01,0.03-0.01,0.05
				c0.49,0.1,0.98,0.21,1.47,0.31c0.14-0.47,0.28-0.95,0.41-1.42c0.29-0.84,0.58-1.67,0.86-2.51c-0.03,0.11-0.78,0.61-0.86,0.94
				c-0.39,1.6-0.78,3.2-1.17,4.81c0.02-0.07,0.43-0.86,0.52-1.09c0.11-0.29,0.22-0.59,0.32-0.88c0.05-0.14,0.43-1.42,0.41-1.42
				c0.03,0,0.39-4.11,0.38-4.57c-0.15-2.08-0.29-4.16-0.41-6.24c-0.45-4.49-0.59-8.98-0.43-13.48
				C55.06,69.18,53.8,69.63,53.81,70.11z"/>
			<path class="st1" d="M53.32,69.95c-0.05,3.42,0.08,6.84,0.39,10.25c0.19,2.7,0.4,5.39,0.64,8.09c0.03,0.54,0.06,1.09,0.08,1.63
				c0.18,1.68-0.28,3.1-1.35,4.26c-0.01,0.02-0.02,0.07,0.01,0.07c0.7-0.9,1.39-1.8,2.09-2.7c0.02-0.09-0.12-0.11-0.13-0.03
				c-0.34,1.68-0.68,3.37-1.02,5.05c-0.02,0.11,0.22,0,0.24-0.07c0.18-0.65,0.36-1.3,0.55-1.95c0.01-0.02-0.03-0.05-0.05-0.06
				c-0.72-1.01-0.78-2.05-0.19-3.11c0.1-0.53,0.13-1.07,0.1-1.62c-0.08-2.09-0.23-4.18-0.45-6.27c-0.45-4.54-0.66-9.1-0.64-13.66
				C53.59,69.71,53.32,69.88,53.32,69.95z"/>
			<path class="st1" d="M53.36,70.78c0.08,5.36,0.34,10.66,0.78,16.01c0.24,2.86,0.77,5.59-1.07,8.24
				c-0.02,0.02-0.02,0.05-0.01,0.07c0.31,0.77,0.62,1.54,0.94,2.31c0.11-0.08,0.21-0.15,0.32-0.23c0.29-1.62,0.58-3.24,0.87-4.87
				c0.02-0.12-0.16,0.01-0.17,0.08c-0.34,1.69-0.68,3.37-1.02,5.06c-0.02,0.08,0.31-0.18,0.33-0.27c0.18-0.66,0.37-1.32,0.55-1.98
				c0.01-0.03,0-0.05-0.02-0.06c-0.15-0.05-0.57-1.61-0.57-1.68c0.02-0.77,0.41-1.57,0.46-2.38c0.09-1.6-0.09-3.18-0.22-4.77
				c-0.44-5.34-0.69-10.59-0.74-15.96C53.79,70.28,53.36,70.65,53.36,70.78z"/>
			<path class="st1" d="M53.7,70.22c0.07,5.35,0.34,10.63,0.77,15.97c0.22,2.84,0.78,5.61-1.01,8.25c-0.01,0.02-0.02,0.04-0.02,0.06
				c0.5,0.11,1,0.21,1.51,0.32c0.11-0.33,0.22-0.66,0.33-0.98c0.4-1.09,0.8-2.19,1.19-3.28c-0.06,0.17-1,0.79-1.1,1.22
				c-0.39,1.61-0.78,3.23-1.17,4.84c0.06-0.25,0.62-1.21,0.79-1.67c0.19-0.51,0.38-1.01,0.57-1.52c-0.06,0.17,0.21-0.54,0.15-0.54
				c-0.01,0,0.37-4.59,0.37-4.57c-0.16-2.08-0.3-4.15-0.4-6.23c-0.45-4.48-0.58-8.97-0.4-13.47C55.27,69.08,53.7,69.64,53.7,70.22z"
				/>
			<path class="st1" d="M53.8,69.94c0.07,5.34,0.34,10.62,0.76,15.95c0.22,2.85,0.78,5.62-1.01,8.28c-0.01,0.02-0.01,0.04-0.02,0.05
				c1.01-1.23,2.01-2.45,3.02-3.68c-0.04,0.13-1.02,0.64-1.11,1.01c-0.39,1.59-0.79,3.18-1.18,4.77c0.05-0.21,0.62-1.05,0.77-1.46
				c0.23-0.6,0.45-1.2,0.68-1.81c0.04-0.06,0.05-0.13,0.04-0.19c-0.04,0,0.34-4.58,0.34-4.55c-0.16-2.07-0.3-4.15-0.4-6.23
				c-0.44-4.47-0.58-8.95-0.4-13.44C55.28,68.99,53.79,69.45,53.8,69.94z"/>
			<path class="st1" d="M53.5,70.49c0.08,5.35,0.35,10.63,0.78,15.97c0.23,2.86,0.74,5.63-0.99,8.16c-0.04,0.04-0.06,0.08-0.06,0.13
				c0.49,0.1,0.98,0.21,1.47,0.31c0.04-0.34,0.07-0.68,0.11-1.03c0.26-0.74,0.52-1.48,0.78-2.23c0.01-0.05-0.43,0.22-0.46,0.35
				c-0.36,1.56-0.73,3.12-1.09,4.68c-0.08,0.34,0.41-0.7,0.45-0.85c0.09-0.35,0.18-0.7,0.27-1.05c0.03-0.11,0.21-1.01,0.11-1.03
				c-0.07-0.01,0.02-1.35,0.03-1.41c0.16-1.17,0.45-1.93,0.41-3.2c-0.04-1.32-0.17-2.66-0.26-3.97c-0.37-5.3-0.63-10.49-0.64-15.82
				C54.41,69.76,53.5,70.12,53.5,70.49z"/>
			<path class="st1" d="M53.47,70.15c-0.06,3.43,0.06,6.85,0.37,10.26c0.18,2.7,0.4,5.39,0.63,8.09c0.03,0.54,0.06,1.09,0.08,1.63
				c0.17,1.68-0.28,3.1-1.36,4.26c-0.02,0.02-0.02,0.07,0.02,0.08c0.7-0.91,1.4-1.83,2.1-2.74c0.02-0.1-0.14-0.06-0.15,0.01
				c-0.34,1.68-0.67,3.37-1.01,5.05c-0.02,0.11,0.25-0.06,0.27-0.13c0.18-0.65,0.35-1.31,0.53-1.96c0-0.02-0.01-0.04-0.03-0.05
				c-0.73-1.01-0.79-2.05-0.2-3.12c0.09-0.54,0.12-1.08,0.1-1.63c-0.07-2.09-0.22-4.18-0.45-6.26c-0.45-4.55-0.66-9.1-0.62-13.67
				C53.77,69.85,53.47,70.07,53.47,70.15z"/>
			<path class="st1" d="M53.65,70.48c-0.07,4.56,0.13,9.11,0.58,13.65c0.7,3.54,0.44,7.02-0.76,10.45c-0.05,0.05-0.08,0.1-0.09,0.17
				c0.49,0.11,0.99,0.21,1.48,0.32c0.08-0.48,0.17-0.97,0.25-1.45c0.29-0.8,0.59-1.59,0.88-2.39c-0.03,0.08-0.64,0.56-0.71,0.85
				c-0.38,1.57-0.75,3.14-1.13,4.71c-0.1,0.43,0.16-0.15,0.18-0.23c0.18-0.51,0.37-1.01,0.55-1.52c0.03-0.08,0.38-1.57,0.3-1.58
				c-0.12,0,0.44-3.56,0.45-3.77c0.04-1.59-0.14-3.19-0.24-4.77c-0.12-1.9-0.25-3.8-0.37-5.7c-0.3-3.36-0.37-6.72-0.21-10.09
				C54.82,69.49,53.65,69.98,53.65,70.48z"/>
			<path class="st1" d="M53.73,70.08c0.07,5.34,0.34,10.62,0.76,15.96c0.22,2.85,0.78,5.62-1.01,8.27
				c-0.01,0.02-0.02,0.04-0.02,0.06c1.02-1.27,2.04-2.54,3.06-3.81c-0.05,0.15-1.04,0.71-1.14,1.11c-0.39,1.6-0.78,3.2-1.18,4.8
				c0.06-0.23,0.65-1.14,0.81-1.57c0.23-0.61,0.46-1.21,0.68-1.82c0.04-0.07,0.05-0.14,0.04-0.21c-0.02,0,0.35-4.59,0.35-4.56
				c-0.16-2.07-0.3-4.15-0.4-6.23c-0.44-4.47-0.58-8.96-0.4-13.45C55.28,69.03,53.72,69.54,53.73,70.08z"/>
			<path class="st1" d="M53.73,70.34c0.07,5.35,0.34,10.63,0.77,15.96c0.23,2.85,0.74,5.62-0.96,8.16
				c-0.05,0.04-0.07,0.09-0.07,0.15c0.49,0.1,0.97,0.21,1.46,0.31c0.05-0.42,0.11-0.84,0.16-1.25c0.29-0.79,0.59-1.58,0.88-2.36
				c-0.01,0.04-0.55,0.44-0.61,0.67c-0.38,1.56-0.76,3.13-1.13,4.69c-0.09,0.37,0.15-0.13,0.17-0.19c0.19-0.53,0.37-1.05,0.56-1.58
				c0.02-0.07,0.3-1.36,0.2-1.36c-0.06,0,0.07-1.28,0.08-1.35c0.18-1.17,0.43-1.96,0.38-3.22c-0.04-1.32-0.18-2.66-0.26-3.97
				c-0.35-5.3-0.61-10.47-0.6-15.79C54.75,69.49,53.72,69.91,53.73,70.34z"/>
			<path class="st1" d="M53.41,70.9c0.09,5.36,0.37,10.67,0.81,16.02c0.23,2.81,0.77,5.55-1.04,8.15c-0.03,0.04-0.09,0.11-0.01,0.14
				c0.7-0.95,1.4-1.89,2.1-2.84c0.02-0.11-0.14,0.01-0.16,0.08c-0.34,1.68-0.68,3.36-1.03,5.03c-0.04,0.18,0.25-0.11,0.27-0.18
				c0.19-0.64,0.38-1.27,0.57-1.91c0.01-0.02,0.04-0.1-0.01-0.11c-0.25-0.07-0.64-1.47-0.64-1.6c0.01-0.38,0.37-1.19,0.43-1.57
				c0.17-1.05,0.08-2.15,0.03-3.21c-0.24-2.69-0.45-5.38-0.63-8.08c-0.31-3.41-0.43-6.83-0.36-10.26
				C53.75,70.47,53.41,70.79,53.41,70.9z"/>
		</g>
	</g>
</g>
<path class="st9" d="M3.48,3.44c-0.15,0-0.39,0.06-1.06,1.06C1.32,6.15,0.83,7.6,0.76,7.82C0.34,9.11-0.09,10.91,0.15,11
	c0.11,0.04,0.27-0.32,0.61-0.76c0.97-1.28,1.82-1.82,3.63-2.42c0.63-0.21,1.9-0.02,1.97-0.15c0.1-0.21-0.98-0.36-1.82-1.66
	C3.72,4.74,3.63,3.44,3.48,3.44z"/>
</svg>
