<!-- Generator: Adobe Illustrator 23.0.4, SVG Export Plug-In  -->
<svg version="1.1" xmlns="http://www.w3.org/2000/svg" xmlns:xlink="http://www.w3.org/1999/xlink" x="0px" y="0px" width="138.2px"
	 height="200.62px" viewBox="0 0 138.2 200.62" style="enable-background:new 0 0 138.2 200.62;" xml:space="preserve">
<style type="text/css">
	.st0{fill:#F2ADBF;}
	.st1{fill:#7F1D37;}
	.st2{opacity:0.81;fill:#191517;}
	.st3{opacity:0.5;fill:#A84040;}
	.st4{opacity:0.66;fill:#C47C7C;}
	.st5{opacity:0.24;fill:#A59390;}
	.st6{fill:#E2AF2D;}
	.st7{fill:#773838;}
	.st8{fill:#332719;}
	.st9{fill:#FFFFFF;}
	.st10{opacity:0.09;fill:#935A6C;}
	.st11{opacity:0.59;fill:#F7AD93;}
	.st12{opacity:0.05;fill:#898687;}
	.st13{opacity:0.52;fill:#A84040;}
	.st14{opacity:0.78;fill:#F7AD93;}
	.st15{opacity:0.86;fill:#A84040;}
	.st16{fill:#F9D9D9;}
	.st17{opacity:0.43;fill:#E2603D;}
	.st18{fill:#E2603D;}
	.st19{opacity:0.83;fill:#EFB659;}
	.st20{opacity:0.83;fill:#FFCC66;}
	.st21{opacity:0.1091;fill:#F2ADBF;}
	.st22{fill:none;stroke:#1D1D1B;stroke-width:0.25;stroke-miterlimit:10;}
</style>
<defs>
</defs>
<g>
	<path class="st0" d="M125.61,13.31c-0.23,3.06-6.19,6.2-15.21,9.38c0,0-0.92,6.92-0.23,9.16c0.48,1.54,6.91,20.1,6.91,20.1
		c3.28,20.14,0.25,31.37-7.37,36.63c-10.44,8.09-13.8,11.8-27.19,10.94l-18.44-0.22c-3.11,4.17-6.91,6.03-7.37,6.03
		s-7.09-3.1-9.45-7.82c-8.2,0.51-14.19-0.97-18.67-3.8c-4.95-0.37-9.68,2.23-11.75,3.35s-1.38-2.01-1.38-2.01s-2.54,1.79-3.92,2.46
		c-1.03,0.5-4.15,0.45-4.15,0.45s-2.77,2.46-4.38,3.13c-1.61,0.67-0.69-0.89-0.69-0.89s6.45-5.58,5.53-6.7
		c-0.92-1.12,0.23-2.23,0.23-2.23l-7.84,6.03l0.46-2.23l9.22-8.04l8.3-7.82c5.19-9.02,11.29-15.34,18.21-19.21
		c11.55-8.22,20.12-11.42,27.89-11.84c5.98-1.11,18.7-0.19,23.51,2.01l6.91,4.24c0,0,5.76,4.69,6.45,5.81
		c0.69,1.12,2.77,5.81,2.77,5.81s1.15-5.81,1.38-8.49c0.23-2.68-5.76-20.77-5.76-20.77c-4.25-16.47-2.45-28.39,7.84-33.95
		c2.01-1.83,4.59-2.82,8.07-2.46c2.58,0.83,4.01,1.93,4.15,3.35C115.09,9.73,118.15,12.47,125.61,13.31z"/>
	<path class="st0" d="M80.56,188.06c0.35,0.72,0.74,1.46,1.4,1.93c0.95,0.68,2.22,0.67,3.4,0.63c2.54-0.09,5.07-0.17,7.61-0.26
		c0.79-0.03,1.74,0.03,2.13,0.7c0.35,0.61-0.04,1.42-0.65,1.79c-0.62,0.36-1.38,0.39-2.1,0.36c0.05,0.45,0.1,0.9,0.16,1.35
		c0.02,0.14,0.03,0.3-0.04,0.42c-0.12,0.22-0.41,0.26-0.67,0.28c-1.83,0.13-3.7,0.25-5.46-0.24c-2.45-0.68-4.85-2.52-7.25-1.7
		c-0.55,0.19-1.04,0.51-1.57,0.75c-1.05,0.48-2.26,0.62-3.4,0.39c-0.22-1.03,0.67-1.93,1.28-2.8c0.87-1.25,1.25-2.81,1.04-4.3
		c0.79,0.16,0.92,1.35,1.69,1.59c0.71,0.22,1.33-0.53,1.57-1.21C80.08,186.68,79.94,186.8,80.56,188.06z"/>
	<path class="st0" d="M56.48,194.11c0.58,1.61,1.67,3.11,3.25,3.88c1.51,0.74,3.53,0.89,4.35,2.33c-2.47,0.95-5.16-0.63-7.81-0.74
		c-1.99-0.08-3.93,0.68-5.92,0.66c-0.13,0-0.28-0.01-0.38-0.1c-0.08-0.07-0.12-0.18-0.14-0.29c-0.13-0.54-0.04-1.13,0.24-1.62
		c0.34-0.59,0.92-1,1.38-1.51c0.82-0.92,1.21-2.18,1.04-3.38c0.26,0.57,1.15,0.61,1.66,0.23c1.01-0.77,0.83-2.27,1.61-3.14
		C55.93,191.67,56.05,192.92,56.48,194.11z"/>
	<path class="st1" d="M118.7,3.71c-0.41,0.19-1.03,0.53-1.61,1.12c-0.8,0.8-0.84,1.37-1.38,1.79c-0.49,0.38-1.44,0.67-3.46,0
		c-1.3,0.37-1.19,1.44-0.46,2.23c0,0,7.8,5.36,8.76,4.24C121.69,12.78,118.86,8.65,118.7,3.71z"/>
	<path class="st2" d="M15,93.34c-2.38,2.29-5.05,3.7-7.77,4.12c1.13-0.94,2.3-1.55,3.42-2.52c0.62-0.54,1.3-0.79,1.98-1.03
		C13.24,93.71,14.51,93.82,15,93.34z"/>
	<path class="st3" d="M111.17,82.71c-0.2-1.03-0.6-2.1-0.6-3.09c0.01-1.14-1.99-0.3-3.96,0.44c-1.22,0.46-2.63,0.55-3.84,1.04
		c-1.2,0.49-2.59,0.79-2.5,2.33c0.7-0.85,1.8-1,2.84-1.4c1.29-0.5,4.55-1.71,5.72-1.51s-6.19,4.32-7.56,7.13
		c2.23-3.01,4.83-3.53,8.54-4.58c-2.22,2.97-3.17,5.17-7.18,5.72c0.28,0.43,1.11,0.57,2.29,0.36
		C106.12,88.95,111.37,83.75,111.17,82.71z"/>
	<path class="st2" d="M21.23,80.72c-0.29,3.24-1.38,5.99-3.18,8.01c0.23-1.42,0.73-2.62,0.93-4.07c0.12-0.8,0.47-1.42,0.83-2.02
		C20.12,82.11,21.16,81.4,21.23,80.72z"/>
	<path class="st2" d="M25.37,88.43c-2.38,2.29-5.05,3.7-7.77,4.12c1.13-0.94,2.3-1.55,3.42-2.52c0.62-0.54,1.3-0.79,1.98-1.03
		C23.61,88.79,24.88,88.9,25.37,88.43z"/>
	<path class="st2" d="M24.36,87.68c-2.38,2.29-5.05,3.7-7.77,4.12c1.13-0.94,2.3-1.55,3.42-2.52c0.62-0.54,1.3-0.79,1.98-1.03
		C22.59,88.05,23.86,88.16,24.36,87.68z"/>
	<path class="st4" d="M19.41,85.12c-0.72,1.76-1.8,3.39-2.3,5.22c-0.19-0.96-0.2-1.96-0.03-2.92c-1.13,1.37-2.08,2.88-2.83,4.47
		c0.29-1.34,0.66-2.67,1.11-3.97c-1.52,1.22-2.2,3.13-2.82,4.95c0.31-1.36,0.63-2.73,1.33-3.94c-2.08,2.14-0.88,3.59-3.02,5.68
		c-0.28,0.27-3.58,2.75-4.1,2.78c-0.39,0.02-1.06,0.53-1.62,0.71c-0.29,0.1-0.51-0.27-0.29-0.47c0.55-0.48,1.16-1.26,1.52-1.65
		c0.58-0.62,2.18-2.65,2.86-3.16c2.35-1.76,2.47-3.09,4.28-5.36c1.15-1.43,2.46-2.3,3.78-3.58C23.43,77.96,22.37,77.85,19.41,85.12z
		"/>
	<polygon class="st5" points="22.13,78.08 19.37,88.8 30.89,94.38 15.68,95.5 9.23,97.51 8.54,97.06 9.23,91.03 	"/>
	<path class="st6" d="M121.23,12.86c0.87,0.26,1.95,0.51,3.2,0.63c1.77,0.17,3.28,0.02,4.4-0.18c3.96,0.98,7.04,2.57,8.99,4.91
		c-0.09-2.6-0.39-5.52-1.38-7.59c-1.34-2.37-2.93-4.09-5.3-5.58c-1.58-0.46-3.48-0.89-5.66-1.14c-2.31-0.27-5.3-1.03-6.78-0.2
		c-0.05,0.15,1.02-0.3-0.18,0.69C116.59,6.01,115.93,13.98,121.23,12.86z"/>
	<ellipse class="st7" cx="114.09" cy="8.06" rx="1.61" ry="1.01"/>
	<ellipse class="st8" cx="114.32" cy="8.17" rx="1.15" ry="0.89"/>
	<ellipse class="st9" cx="114.09" cy="7.95" rx="0.23" ry="0.22"/>
	<path class="st10" d="M111.55,1.92c-3.83,1.66-6.57,3.92-8.07,7.37c-2.51,6.64-3.67,8.16-4.15,17.2c0.89,9.35,5.02,20.43,8.53,29.7
		c0.96,3.62-1.38,10.13-4.15,13.62c-1.92,2.43-3.92,2.01-5.07,0c-2.16-9.52-6.16-14.48-14.52-20.1c-11.6-1.75-22.47,0.84-32.73,7.15
		C39.26,64.8,36.53,72.69,41.03,80.53c6.72,5.5,11.23,13.98,14.52,24.12c-0.9-1.29-4.15-0.38-6.91-4.24
		c-2.34-3.27-7.06-2.32-13.14-3.35c-2.44-1.51-4.94-3.1-7.47-4.79c-3.2-2.13-6.24-4.27-9.13-6.38c0.4-2.67,1.26-6.54,3.34-10.79
		c4.39-8.96,11-14.14,17.17-17.57c17.28-9.6,30.01-14.46,45.4-8.49c9.36,3.69,15.08,9.23,17.75,16.3l1.38-5.81
		c1.01-3.88-0.79-11.61-3.23-17.2c-2.33-7.41-4.21-14.65-3.69-20.99C99.53,6.16,107.86,1.34,111.55,1.92z"/>
	<path class="st11" d="M76.21,55.05c1.35,0.74,2.54,1.74,3.48,2.93c-3.25-0.22-6.53-0.08-9.75,0.42c0.7,1.31,2.42,1.7,3.93,1.81
		c1.51,0.11,3.18,0.15,4.31,1.13c-2.37,0.3-4.81-0.16-7.13,0.35c-2.33,0.51-4.62,2.58-4.04,4.83c1.76-1.43,3.83-2.51,6.03-3.16
		c-3.07,1.2-5.66,3.54-7.1,6.43c1.59-0.16,2.85-1.31,4.21-2.13c2.28-1.4,0.94,2.04-1.46,5.07c4.54,0.08,9.08,0.1,13.63,0.07
		c-5.62,0.31-11.88,0.91-15.56,5.03c2.13,1.14,4.78,0.54,7.07-0.26c2.29-0.8,4.69-1.78,7.08-1.31c-1.82,0.46-3.65,0.92-5.47,1.39
		c4.66-1.97,9.58-3.36,14.6-4.14c-2.89-2.1-6.52-3.23-10.13-3.14c0.87-0.02,1.61-1.57,3.07-1.39c-0.84,0.08-1.09-0.15-1.76-0.45
		c2.89-0.56,6.04,0.61,6.04-3.29c0-2.96-2.32-6.26-4.42-8.2c0.68,1.41,1.17,2.96,1.09,4.52C81.77,58.89,79.37,56.6,76.21,55.05z"/>
	<path class="st12" d="M111.78,2.74c-3.78,1.64-6.49,3.88-7.97,7.28c-2.48,6.55-3.62,8.06-4.1,16.98
		c0.88,9.23,4.96,20.18,8.42,29.34c0.95,3.58-1.37,10-4.1,13.46c-1.9,2.4-3.87,1.99-5.01,0c-2.13-9.41-6.09-14.3-14.34-19.85
		c-11.45-1.73-22.19,0.83-32.32,7.06c-12,7.85-14.68,15.63-10.24,23.38c6.63,5.43,11.09,13.81,14.34,23.82
		c-0.89-1.27-4.1-0.37-6.83-4.19c-2.31-3.23-6.97-2.29-12.97-3.31c-4.2-3.83-9.85-6.29-16.84-7.5c1.21-18.03,13.2-26.69,20.71-31.54
		c17.07-9.48,29.64-14.28,44.84-8.38c9.24,3.65,14.89,9.11,17.53,16.1l1.37-5.73c0.99-3.84-0.78-11.46-3.19-16.98
		c-2.3-7.32-4.16-14.47-3.64-20.73C99.91,6.93,108.13,2.17,111.78,2.74z"/>
	<path class="st11" d="M80.74,84.64c-3.77,2.06-7.99,3.34-12.3,3.71c1.79-0.85,3.65-1.39,5.42-2.27c0.99-0.49,2.06-0.71,3.14-0.92
		C77.95,84.97,79.96,85.07,80.74,84.64z"/>
	<path class="st11" d="M77.53,96.4c-3.55,0.16-7.12,0.04-10.66-0.34c-0.46-0.05-0.94-0.11-1.35-0.33s-0.72-0.66-0.66-1.1
		c4.42,0.85,8.89-1.24,13.4-1.2c-4.51-1.18-9.31-1.28-13.87-0.31c3.54-1.29,7.33-1.91,11.11-1.83c-1.69,0.19-3.25-0.88-4.92-1.19
		c-1.35-0.26-2.74-0.02-4.1,0.21c1.1-1.13,2.9-1.32,4.48-1.05c1.58,0.28,3.06,0.94,4.63,1.25c2.53,0.5,5.17,0.94,4.28,1.74
		c-0.77,0.69-1.2,1.66-1.8,2.49c-0.6,0.83-1.54,1.59-2.58,1.48"/>
	<path class="st11" d="M76.61,83.65c-4.31,0.4-8.7-0.1-12.8-1.45c1.99-0.07,3.92,0.16,5.91,0.06c1.11-0.06,2.18,0.16,3.26,0.39
		C73.92,82.85,75.72,83.73,76.61,83.65z"/>
	<path class="st13" d="M89.4,98.84c9.13-3.2,21.38-13.87,22.15-17.19c-1.42-0.06-17.72,10.56-20.45,11c0.39-0.33,3.31-3.2,4.12-3.81
		c2.09-1.58,11.94-8.07,14.03-9.65c-2.8,1.71-13.8,7.68-17.11,7.95c3.46-2.3,15.88-8.44,14.8-9.07c-1.08-0.63-9.95,3.87-12.63,4.53
		c3.89-3.94,15.62-6.47,15.54-6.34s2.34-1.37,3.71-1.24C123.74,76,100.97,100.21,89.4,98.84z"/>
	<path class="st14" d="M22.45,77.12c-0.29,1.03-0.56,2.09-1.13,3c-0.32,0.51-0.72,0.96-1.13,1.4c-1.12,1.24-2.25,2.49-3.56,3.55
		c-0.7,0.57-1.35,1.21-2.14,1.66c-2.48,1.4-5.59,7.9-6.24,9.33c-0.67,1.48-2.56,2.08-3.74,3.22c1.35-1.96,3.95-3.16,4.49-5.47
		c0.06-0.27,0.09-0.56-0.05-0.8c-0.19-0.34-0.67-0.45-1.05-0.35c-0.39,0.1-0.71,0.35-1.01,0.6C4.76,95.03,2.67,96.99,0,97.79
		c-0.05-0.54,0.37-1,0.76-1.38c7.72-7.48,15.98-14.65,21.73-23.65c0.36-0.57,2.19-3.88,2.95-3.53
		C24.5,71.89,23.22,74.38,22.45,77.12z"/>
	<path class="st2" d="M42.95,90.67c-3.77,2.06-7.99,3.34-12.3,3.71c1.79-0.85,3.65-1.39,5.42-2.27c0.99-0.49,2.06-0.71,3.14-0.92
		C40.15,91,42.16,91.1,42.95,90.67z"/>
	<path class="st2" d="M40.41,90.22c-3.77,2.06-7.99,3.34-12.3,3.71c1.79-0.85,3.65-1.39,5.42-2.27c0.99-0.49,2.06-0.71,3.14-0.92
		C37.62,90.56,39.63,90.65,40.41,90.22z"/>
	<path class="st2" d="M38.8,89.55c-3.77,2.06-7.99,3.34-12.3,3.71c1.79-0.85,3.65-1.39,5.42-2.27c0.99-0.49,2.06-0.71,3.14-0.92
		C36,89.89,38.02,89.98,38.8,89.55z"/>
	<path class="st3" d="M109.33,87.4c-0.2-1.03-0.6-2.1-0.6-3.09c0.01-1.14-1.99-0.3-3.96,0.44c-1.22,0.46-2.63,0.55-3.84,1.04
		c-1.2,0.49-2.59,0.79-2.5,2.33c0.7-0.85,1.8-1,2.84-1.4c1.29-0.5,4.55-1.71,5.72-1.51c1.17,0.21-6.19,4.32-7.56,7.13
		c2.23-3.01,4.83-3.53,8.54-4.58c-2.22,2.97-3.17,5.17-7.18,5.72c0.28,0.43,1.11,0.57,2.29,0.36
		C104.28,93.64,109.52,88.44,109.33,87.4z"/>
	<path class="st3" d="M103.78,78.44c0.22-0.54,0.3-1.1,0.66-1.63c0.42-0.61-1.4-0.06-3.15,0.43c-1.09,0.31-2.19,0.43-3.28,0.75
		s-2.25,0.56-2.73,1.37c0.84-0.49,1.72-0.63,2.66-0.89c1.16-0.33,4.06-1.15,4.88-1.1c0.81,0.05-6.25,2.63-8.29,4.21
		c2.78-1.73,4.93-2.14,8.12-2.89c-2.75,1.7-4.26,2.93-7.5,3.43c0.05,0.22,0.63,0.25,1.61,0.08S103.56,78.98,103.78,78.44z"/>
	<path class="st15" d="M24,68c1.47-0.54,4.9-0.31,6.4-0.27c-2.47,2.28-6.6,4.32-8.54,7.03c1.41,0.3,2.9-0.73,4.06-1.79
		s5.42-3.43,6.91-3.66c-1.48,1.95-3.77,3.4-5.07,5.45c-1.3,2.05-4.32,6.29-2.34,7.26c0.26-2.21,8.36-10.03,9.48-12.07
		C33.54,73,25.94,82,26.93,84.88c1.02-1.28,6.45-8.66,6.83-10.19c0.65-2.57-3.23,6.29-2.83,9.98c3.29-3.33,6.55-6.7,9.76-10.09
		c-3.79,4.37-7.83,9.41-7.59,14.73c2.31-0.87,3.78-3.22,4.86-5.42s2.1-4.61,4.13-6.09c-0.98,1.65-1.96,3.29-2.94,4.94
		c1.95-4.7,0.63-10.63-1.88-7.89c0.6-0.66,0.06-2.18,1.22-3.15c-0.55,0.67-2.09,1.15-2.78,1.46c1.01-1.5,0.24-0.95,3-5.36
		c2.23-3.57,6.91-5.12,5.99-5.36c-2.3-0.61-11.78,1.54-14.63,1.89c1.46,0.38,2.9,0.99,3.93,2.02C30.64,66.27,27.33,66.62,24,68z"/>
	<path class="st2" d="M33.73,90.22c-3.77,2.06-7.99,3.34-12.3,3.71c1.79-0.85,3.65-1.39,5.42-2.27c0.99-0.49,2.06-0.71,3.14-0.92
		C30.93,90.56,32.95,90.65,33.73,90.22z"/>
	<path class="st2" d="M18.89,93.49c1.79-0.85,3.65-1.39,5.42-2.27"/>
	<path class="st2" d="M46.48,95.18c-4.08,1.4-8.47,1.94-12.78,1.58c1.91-0.53,3.84-0.76,5.75-1.32c1.06-0.31,2.16-0.35,3.26-0.38
		C43.66,95.04,45.63,95.47,46.48,95.18z"/>
	<path class="st2" d="M44.06,94.32c-4.08,1.4-8.47,1.94-12.78,1.58c1.91-0.53,3.84-0.76,5.75-1.32c1.06-0.31,2.16-0.35,3.26-0.38
		C41.24,94.17,43.21,94.61,44.06,94.32z"/>
	<path class="st2" d="M42.59,93.38c-4.08,1.4-8.47,1.94-12.78,1.58c1.91-0.53,3.84-0.76,5.75-1.32c1.06-0.31,2.16-0.35,3.26-0.38
		C39.77,93.24,41.74,93.67,42.59,93.38z"/>
	<path class="st2" d="M18.56,96.24c-2.1,1.64-4.28,2.5-6.34,2.51c0.97-0.65,1.93-1.02,2.9-1.7c0.54-0.38,1.08-0.5,1.61-0.62
		C17.2,96.33,18.12,96.58,18.56,96.24z"/>
	<path class="st2" d="M17.46,95.62c-2.1,1.64-4.28,2.5-6.34,2.51c0.97-0.65,1.93-1.02,2.9-1.7c0.54-0.38,1.08-0.5,1.61-0.62
		C16.1,95.71,17.02,95.96,17.46,95.62z"/>
	<path class="st2" d="M16.83,94.87c-2.1,1.64-4.28,2.5-6.34,2.51c0.97-0.65,1.93-1.02,2.9-1.7c0.54-0.38,1.08-0.5,1.61-0.62
		C15.47,94.96,16.39,95.21,16.83,94.87z"/>
	<path class="st2" d="M14.36,95.09c-2.1,1.64-4.28,2.5-6.34,2.51c0.97-0.65,1.93-1.02,2.9-1.7c0.54-0.38,1.08-0.5,1.61-0.62
		C13.01,95.18,13.92,95.43,14.36,95.09z"/>
	<path class="st2" d="M37.48,93.19c-4.08,1.4-8.47,1.94-12.78,1.58c1.91-0.53,3.84-0.76,5.75-1.32c1.06-0.31,2.16-0.35,3.26-0.38
		C34.66,93.05,36.63,93.48,37.48,93.19z"/>
	<path class="st4" d="M17.94,93.17c1.94-0.29,3.91-0.44,5.88-0.43c1.52,0.01,3.09,0.12,4.44,0.78c0.31,0.15,0.61,0.35,0.75,0.65
		c-1.9-0.89-4.13-0.72-6.22-0.42c-0.85,0.12-1.71,0.27-2.5,0.59c-1.47,0.59-2.62,1.73-3.72,2.84c-0.34-0.54-0.23-1.26,0.1-1.81
		s0.85-0.96,1.36-1.36c-0.92,0.24-1.84,0.47-2.77,0.67c-0.34,0.08-2.11,0.7-1.85,0.02c0.19-0.51,1.6-0.86,2.07-1.01
		C16.29,93.46,17.12,93.3,17.94,93.17z"/>
	<path class="st13" d="M98.62,85.97c5.76-1.17,14.05-6.97,14.81-9.09c-0.85-0.19-11.56,5.15-13.24,5.16c0.26-0.18,2.27-1.78,2.8-2.1
		c1.39-0.83,7.88-4.11,9.27-4.94c-1.83,0.84-8.96,3.65-10.97,3.49c2.28-1.17,10.27-3.94,9.68-4.47c-0.59-0.53-6.32,1.53-7.98,1.69
		c2.68-2.2,9.94-2.66,9.88-2.59c-0.01,0.01-0.3,0.6-0.82,1.51C109.95,78.39,104.11,87.67,98.62,85.97z"/>
	<path class="st16" d="M58.32,105.55l-2.3,26.58v21.89l-0.23,38.86c-0.35,0.6-0.86,1.6-1.6,2.36c-0.71-2.36-1.12,0.91-1.86,0.99
		l1.38-32.16l-0.69-22.33l1.15-22.56l0.36-14.93l-1.43-1.06L58.32,105.55z"/>
	<path class="st16" d="M73.53,99.52l5.07-0.22l-3,6.25l-2.3,24.57L78.37,173l1.84,13.4c0.35,1.52-0.84,3.27-2.3,2.01L76.52,173
		l-4.61-32.16l-0.92-15.41L73.53,99.52z"/>
	<path class="st0" d="M68.61,130.14c-0.09,1.1,0.22,2.19,0.52,3.26c0.7,2.45,1.4,4.9,2.11,7.35c0.1,0.34,0.23,0.72,0.56,0.86
		c0.6,0.25,1.13-0.45,1.37-1.04c0.68-1.6,1.35-3.19,2.03-4.79c0.21-0.5,0.42-1,0.49-1.53c0.17-1.34-0.59-2.61-1.33-3.76
		c-0.33-0.52-0.69-1.06-1.23-1.36c-0.42-0.23-0.92-0.28-1.32-0.54c-0.44-0.28-0.72-0.94-1.28-1.01
		C69.3,127.44,68.68,129.24,68.61,130.14z"/>
	<path class="st0" d="M54.84,133.7c-0.14-1.06-0.11-2.37-1.07-2.91c-0.66,0.63-1.17,1.4-1.48,2.25c-0.54,1.43-0.51,2.99-0.44,4.5
		c0.06,1.23,0.14,2.47,0.37,3.68c0.06,0.32,0.13,0.64,0.32,0.91c0.23,0.32,0.61,0.52,0.98,0.69c0.42,0.19,0.85,0.36,1.31,0.41
		c0.87,0.1,1.78-0.27,2.31-0.93c0.78-0.97,0.72-2.32,0.62-3.55c-0.03-0.39-0.1-0.84-0.44-1.06c-0.18-0.11-0.39-0.13-0.58-0.22
		c-0.43-0.2-0.98-1.27-1.2-1.67C55.18,135.15,54.94,134.44,54.84,133.7z"/>
	<path class="st17" d="M57.3,198.89c0.23,0.27,0.45,0.58,0.78,0.71c0.13,0.05,0.26,0.07,0.38,0.13c0.12,0.07,0.21,0.2,0.17,0.32
		c-1.07-0.25-2.17-0.39-3.27-0.42c-0.46-0.01-0.92,0-1.37,0.09c-0.52,0.11-1.02,0.32-1.54,0.32c-0.1,0,0.63-1.33,0.73-1.44
		c0.26-0.29,0.79-0.81,1.1-0.98C55.23,197.11,56.68,198.18,57.3,198.89z"/>
	<path class="st18" d="M78.58,191.82c0.2-0.19,0.42-0.38,0.69-0.44c0.23-0.05,0.48,0.01,0.71,0.07c1.16,0.31,2.32,0.62,3.48,0.93
		c0.6,0.16,1.2,0.32,1.78,0.54c0.79,0.31,1.52,0.73,2.29,1.09c1.03,0.48,2.11,0.86,3.18,1.23c-1.98,0.31-4.04,0.07-5.89-0.69
		c-0.59-0.24-1.17-0.54-1.77-0.75c-1.42-0.5-3.01-0.52-4.46-0.09c-0.5,0.15-2.63,0.99-1.43-0.15
		C78.37,192.43,78.16,192.21,78.58,191.82z"/>
	<path class="st18" d="M91.34,193.22c-0.98,0.08-1.99,0.16-2.92-0.17c-0.29-0.11-0.57-0.25-0.86-0.38
		c-0.43-0.19-0.88-0.34-1.33-0.49c2.11,0.36,4.27,0.35,6.41,0.37c0.09,0,0.19,0,0.27,0.05s0.13,0.15,0.07,0.23
		c-0.03,0.04-0.08,0.06-0.12,0.08c-0.39,0.15-0.8,0.31-1.23,0.3c-0.14,0-0.32,0-0.37,0.13c-0.02,0.07,0,0.14,0.01,0.2
		c0.01,0.28-0.38,0.42-0.66,0.33c-0.28-0.09-0.5-0.29-0.77-0.39c-0.21-0.07-0.45-0.07-0.67-0.11c-0.22-0.04-0.45-0.15-0.53-0.36"/>
	<path class="st19" d="M123.31,13.09c-1.01-0.11-2.08-0.25-3.23-0.89c-0.43-0.24-0.94-0.54-1.38-1.12
		c-0.27-0.36-0.45-0.74-0.69-1.56c-0.5-1.74,0.89-4.87,1.61-5.14c2.23-0.82,4.33-0.51,7.61,0c3.35,0.52,3.75,1.23,3.92,1.56
		c0.67,1.32-0.52,3.09-0.69,3.35c-0.45,0.68-0.54,0.43-3,2.46c-0.95,0.78-1.33,1.14-2.07,1.34
		C124.76,13.25,124.28,13.2,123.31,13.09z"/>
	<path class="st8" d="M132.52,6.83c0.23,0,0.6,0.09,1.61,1.56c1.68,2.44,2.42,4.59,2.54,4.91c0.64,1.9,1.28,4.56,0.92,4.69
		c-0.17,0.06-0.42-0.47-0.92-1.12c-1.48-1.9-2.77-2.68-5.53-3.57c-0.96-0.31-2.9-0.03-3-0.22c-0.15-0.32,1.49-0.53,2.77-2.46
		C132.15,8.76,132.29,6.83,132.52,6.83z"/>
	<path class="st20" d="M123.82,12.55c-0.83-0.09-1.71-0.2-2.65-0.73c-0.35-0.2-0.77-0.44-1.14-0.92c-0.22-0.29-0.37-0.6-0.57-1.28
		c-0.41-1.43-0.61-2.14-0.38-2.75c0.31-0.82,1.11-1.25,1.7-1.47c1.83-0.67,3.55-0.42,6.24,0c2.75,0.42,3.08,1.01,3.22,1.28
		c0.55,1.08-0.42,2.54-0.57,2.75c-0.37,0.55-0.44,0.36-2.46,2.02c-0.78,0.64-1.09,0.94-1.7,1.1
		C125.02,12.69,124.62,12.64,123.82,12.55z"/>
	<path d="M119.07,10.09c0.63-0.6,1.26-1.21,1.89-1.81c0.51-0.66,2.36-2.84,5.57-3.45c1.67-0.32,3.08-0.1,3.93,0.11
		c2.33,0.95,3.9,3.25,5.33,5.76l1.98,7.31l-2.24-6.88c0.21-0.22-2.61-4.27-3.1-4.71c-0.38-0.33-1.81-1.3-1.98-1.26
		c-0.96-0.28-1.82-0.35-2.53-0.34c-5.18,0.1-8.49,5.04-8.99,5.81"/>
	<g>
		<g>
			<g>
				<g>
					<path class="st21" d="M71.65,102.34c0.17,1.23,0.13,2.46-0.11,3.67c-0.77,5.38-1.4,10.78-1.9,16.2
						c0.01-0.08,1.05-0.99,1.09-1.04c0.21-0.23,0.91-0.79,0.95-1.16c0.6-5.73,1.97-13.51,1.84-19.95c0,0.04-0.99,1.06-1.01,1.08
						C72.34,101.35,71.64,102,71.65,102.34z"/>
					<path class="st21" d="M71.71,102.83c-0.27,6.65-0.94,13.27-2.01,19.86c0.02-0.13,0.89-1.04,0.96-1.13
						c0.22-0.3,0.76-0.84,0.81-1.25c0.67-6.32,1.99-13.37,1.85-19.97c0,0.1-0.84,1.13-0.88,1.2
						C72.25,101.81,71.69,102.44,71.71,102.83z"/>
					<path class="st21" d="M71.02,102.68c0.14,4.41-2.05,20.12-2.01,19.79c-0.02,0.17,0.39-0.1,0.41-0.22
						c2.09-17.98,2.23-11.56,1.97-19.82C71.38,102.25,71.02,102.56,71.02,102.68z"/>
					<path class="st21" d="M71.08,104.02c0.16,1.24,0.12,2.47-0.13,3.69c-0.8,5.37-1.45,10.75-1.95,16.16
						c-0.01,0.05,0.59-0.55,0.62-0.8c0.47-5.43,1.11-10.84,1.92-16.23c0.24-1.22,0.3-2.45,0.16-3.69
						C71.7,103.08,71.07,103.76,71.08,104.02z"/>
					<path class="st21" d="M71.53,103.02c0.19,6.39-1.35,14.23-2,19.85c0.02-0.2,1.09-1.29,1.19-1.42c0.25-0.34,0.99-1.06,1.04-1.54
						c0.6-5.8,1.96-13.53,1.83-20c0,0.16-1.04,1.4-1.1,1.5C72.27,101.73,71.52,102.57,71.53,103.02z"/>
					<path class="st21" d="M71.68,102.52c0.18,6.39-1.36,14.25-2,19.86c0.01-0.12,1.06-1.1,1.12-1.18c0.23-0.27,0.93-0.89,0.98-1.3
						c0.6-5.77,1.96-13.52,1.83-19.97c0,0.09-1,1.19-1.04,1.24C72.38,101.42,71.67,102.13,71.68,102.52z"/>
					<path class="st21" d="M71.25,103.44c0.17,6.37-1.37,14.25-2.02,19.82c0.02-0.13,1.24-1.13,1.3-1.65
						c0.45-5.45,1.05-10.87,1.81-16.28c0.23-1.2,0.27-2.4,0.13-3.62C72.47,101.81,71.24,102.93,71.25,103.44z"/>
					<path class="st21" d="M71.26,103.01c0.11,4.27-2.13,20.57-2.04,19.82c-0.02,0.15,0.44-0.21,0.45-0.35
						c2.1-17.97,2.22-11.58,2-19.87C71.67,102.45,71.26,102.87,71.26,103.01z"/>
					<path class="st21" d="M71.48,103.49c-0.28,6.61-0.95,13.19-2.01,19.74c0.03-0.29,1.57-1.61,1.64-2.34
						c0.49-5.86,1.14-11.7,1.94-17.53c0.01-0.84,0-1.68-0.04-2.52c0,0.13-0.8,1.18-0.85,1.28
						C71.98,102.43,71.47,103.07,71.48,103.49z"/>
					<path class="st21" d="M71.57,102.77c0.18,6.39-1.35,14.24-2,19.86c0.02-0.16,1.1-1.2,1.18-1.3c0.24-0.3,0.99-0.98,1.03-1.42
						c0.6-5.78,1.96-13.52,1.83-19.98c0,0.12-1.04,1.3-1.09,1.37C72.31,101.56,71.56,102.35,71.57,102.77z"/>
					<path class="st21" d="M71.59,103.16c0.17,6.38-1.36,14.24-2.01,19.83c0.02-0.21,1.37-1.36,1.44-1.99
						c0.61-5.7,2.02-13.51,1.91-19.94c-0.01-0.31-0.48,0.55-0.44,0.48C72.27,101.9,71.58,102.72,71.59,103.16z"/>
					<path class="st21" d="M71.19,104.21c-0.3,6.66-0.99,13.28-2.07,19.87c-0.01,0.09,0.48-0.42,0.51-0.62
						c0.58-5.82,1.28-11.62,2.1-17.4c0.08-0.86,0.06-1.73-0.04-2.59C71.69,103.38,71.18,103.99,71.19,104.21z"/>
				</g>
			</g>
		</g>
	</g>
</g>
<path class="st22" d="M138.07,18.07c-0.09-2.6-0.39-5.52-1.38-7.59c-1.34-2.37-2.93-4.09-5.3-5.58c-1.58-0.46-3.48-0.89-5.66-1.14
	c-1.93-0.23-4.32-0.78-5.92-0.48c-0.29-1.28-1.69-2.29-4.09-3.07c-3.48-0.36-6.06,0.62-8.07,2.46c-5.91,3.2-9.01,8.5-9.78,15.56
	c-0.22,0.95-0.42,1.94-0.6,2.98c-0.53,6.34,1.36,13.58,3.69,20.99c2.44,5.59,4.23,13.31,3.23,17.2l-1.01,4.24
	c-0.63-1.37-1.39-2.98-1.76-3.57c-0.69-1.12-6.45-5.81-6.45-5.81l-0.48-0.3c-1.51-1.13-3.21-2.17-5.08-3.12L88.06,50
	c-0.6-0.28-1.34-0.53-2.16-0.77c-0.28-0.12-0.55-0.24-0.83-0.35c-10.69-4.15-20.1-3.07-30.64,1.19c-3.09,1.08-6.38,2.61-9.98,4.7
	c-1.56,0.82-3.15,1.68-4.79,2.59c-3.4,1.89-6.93,4.32-10.15,7.61c-0.64,0.57-1.27,1.17-1.89,1.8c-1.13,0.25-2.25,0.6-3.38,1.06
	c0.63-0.23,1.63-0.32,2.67-0.34c-0.48,0.5-0.95,1.03-1.42,1.57c-0.66,0.14-1.75,1.88-2.36,2.9c-1.12,1.47-2.2,3.04-3.25,4.71
	c-1.2,1.58-2.47,3.1-3.79,4.59l-5.92,5.58l-9.22,8.04l-0.39,1.87c-0.2,0.26-0.34,0.55-0.31,0.87c2.67-0.8,4.75-2.77,6.88-4.52
	c0.2-0.17,0.41-0.33,0.65-0.45c0.04,0.22,0.13,0.44,0.32,0.67c0.15,0.18,0.09,0.5-0.1,0.88c-0.56,0.65-1.1,1.3-1.38,1.61
	c-0.36,0.39-0.98,1.17-1.52,1.65c-0.09,0.08-0.1,0.19-0.07,0.28c-1.28,1.26-2.46,2.28-2.46,2.28s-0.92,1.56,0.69,0.89
	c1.61-0.67,4.38-3.13,4.38-3.13s3.12,0.05,4.15-0.45c0.18-0.09,0.39-0.2,0.6-0.32c0.43-0.09,0.87-0.22,1.3-0.39
	c-0.77,0.46-1.54,0.81-2.32,1.33c1.2-0.01,2.44-0.31,3.68-0.88c-0.86,0.55-1.72,0.92-2.58,1.5c2.06-0.01,4.24-0.87,6.34-2.51
	c-0.13,0.1-0.3,0.14-0.49,0.16c0.79-0.41,1.73-0.86,2.81-1.29l4.31-0.32c1.72,0.12,3.46,0.09,5.18-0.08
	c0.05,0.03,0.11,0.05,0.16,0.07c-0.24,0.06-0.48,0.11-0.71,0.18c0.42,0.03,0.84,0.05,1.26,0.07c0.43,0.2,0.87,0.41,1.33,0.59
	c-0.37,0.09-0.75,0.17-1.12,0.27c0.72,0.06,1.45,0.09,2.17,0.09c0.27,0.09,0.52,0.2,0.8,0.28c0.14,0.08,0.27,0.17,0.41,0.26
	c-0.32,0.07-0.64,0.15-0.96,0.24c0.49,0.04,0.98,0.07,1.47,0.08c0.11,0.07,0.23,0.14,0.34,0.21c6.08,1.03,10.8,0.08,13.14,3.35
	c1.65,2.3,3.46,2.91,4.86,3.3c0.36,0.23,0.71,0.43,1.03,0.61l-0.35,14.86l-0.61,11.85c-0.55,0.59-0.99,1.27-1.27,2.02
	c-0.54,1.43-0.51,2.99-0.44,4.5c0.06,1.23,0.14,2.47,0.37,3.68c0.06,0.32,0.13,0.64,0.32,0.91c0.13,0.18,0.3,0.31,0.49,0.43
	l0.67,21.5l-1.33,30.86c-0.17,0.66-0.47,1.29-0.93,1.81c-0.46,0.51-1.04,0.92-1.38,1.51c-0.28,0.49-0.37,1.07-0.24,1.62
	c0.02,0.11,0.06,0.21,0.14,0.29c0.1,0.08,0.24,0.09,0.38,0.1c0.7,0.01,1.4-0.08,2.1-0.2c0,0,0,0.02,0,0.02c0.36,0,0.71-0.1,1.06-0.2
	c0.46-0.08,0.92-0.16,1.38-0.21c0.16,0,0.31-0.01,0.47-0.01c1.1,0.02,2.2,0.16,3.27,0.42c0.01-0.03-0.01-0.07-0.02-0.1
	c1.87,0.44,3.72,1.03,5.46,0.36c-0.82-1.44-2.84-1.59-4.35-2.33c-1.57-0.77-2.67-2.27-3.25-3.88c-0.4-1.1-0.53-2.24-0.69-3.38
	l0.22-36.71v-10.93c0.44-0.16,0.85-0.42,1.14-0.78c0.78-0.97,0.72-2.32,0.62-3.55c-0.03-0.39-0.1-0.84-0.44-1.06
	c-0.18-0.11-0.4-0.13-0.58-0.22c-0.23-0.11-0.5-0.47-0.73-0.84v-4.51l2.3-26.58l-0.98-0.45c1.3-0.6,4.24-2.46,6.74-5.81l11.39,0.14
	l-1.94,0.09l-0.21,2.11c-0.02-0.38-0.06-0.76-0.13-1.14l-1.74,20.11c0.04-0.33,0.07-0.66,0.11-0.98l-0.57,5.81l0.15,2.52
	c-0.18-0.18-0.37-0.33-0.62-0.36c-1.23-0.15-1.84,1.66-1.91,2.56c-0.09,1.1,0.22,2.19,0.52,3.26c0.7,2.45,1.4,4.9,2.11,7.35
	c0.1,0.34,0.23,0.72,0.56,0.86c0.08,0.03,0.16,0.05,0.24,0.05l4.49,31.34l1.38,15.41c0.35,0.3,0.68,0.42,0.98,0.43
	c-0.23,0.14-0.48,0.19-0.75,0.11c-0.77-0.24-0.9-1.42-1.69-1.59c0.21,1.49-0.17,3.06-1.04,4.3c-0.61,0.87-1.5,1.77-1.28,2.8
	c1.14,0.22,2.35,0.09,3.4-0.39c0.02-0.01,0.04-0.02,0.06-0.03c0.39-0.11,0.83-0.27,1.02-0.33c1.44-0.43,3.04-0.41,4.46,0.09
	c0.61,0.21,1.18,0.51,1.77,0.75c0.65,0.26,1.33,0.44,2.02,0.58c0.14,0.03,0.29,0.06,0.44,0.08c0.27,0.04,0.53,0.08,0.8,0.1
	c0.34,0.03,0.69,0.05,1.03,0.05c0.06,0,0.11,0,0.17,0c0.84,0,1.68-0.05,2.51-0.11c0.25-0.02,0.55-0.06,0.67-0.28
	c0.07-0.13,0.05-0.28,0.04-0.42c-0.05-0.45-0.1-0.9-0.16-1.35c0.72,0.03,1.48,0.01,2.1-0.36c0.62-0.36,1-1.18,0.65-1.79
	c-0.38-0.67-1.34-0.73-2.13-0.7c-2.54,0.09-5.07,0.17-7.61,0.26c-1.18,0.04-2.45,0.05-3.4-0.63c-0.66-0.47-1.05-1.21-1.4-1.93
	c-0.14-0.3-0.24-0.52-0.32-0.69c0.05-0.31,0.05-0.65-0.02-0.97l-1.84-13.4l-4.13-34.94c0.32-0.76,0.64-1.52,0.97-2.28
	c0.21-0.5,0.42-1,0.49-1.53c0.17-1.34-0.59-2.61-1.33-3.76c-0.28-0.43-0.58-0.88-0.99-1.19l2.23-23.75l2.91-6.08l4,0.05
	c10,0.64,14.41-1.27,20.34-5.64c0.08-0.01,0.15-0.01,0.24-0.03c0.61-0.11,2.3-1.54,3.77-3.05c0.9-0.7,1.84-1.44,2.85-2.23
	c7.63-5.26,10.65-16.48,7.37-36.63c0,0-6.44-18.56-6.91-20.1c-0.69-2.23,0.23-9.16,0.23-9.16c8.78-3.1,14.65-6.15,15.16-9.14
	c1.28,0.03,2.4-0.09,3.27-0.24c3.46,0.86,6.24,2.17,8.18,4.05c0.28,0.41,0.45,0.68,0.58,0.64c0.01,0,0.01-0.01,0.01-0.01
	C137.92,17.91,138,17.98,138.07,18.07z"/>
</svg>
