<!-- Generator: Adobe Illustrator 23.0.4, SVG Export Plug-In  -->
<svg version="1.1" xmlns="http://www.w3.org/2000/svg" xmlns:xlink="http://www.w3.org/1999/xlink" x="0px" y="0px"
	 width="271.67px" height="389.37px" viewBox="0 0 271.67 389.37" style="enable-background:new 0 0 271.67 389.37;"
	 xml:space="preserve">
<style type="text/css">
	.st0{fill:#FC8686;}
	.st1{fill:#ED7474;}
	.st2{fill:#875151;fill-opacity:0.59;}
	.st3{fill:#875151;fill-opacity:0.67;}
	.st4{fill:#FFFFFF;}
	.st5{fill:#776D71;}
	.st6{fill:#A08E8E;}
	.st7{fill:#F9685D;}
	.st8{fill:#F4D9D9;}
	.st9{fill:#F9E4E4;}
	.st10{fill:#F4BDBD;}
	.st11{fill:#EFD9D8;fill-opacity:0.5;}
	.st12{fill:#A39393;fill-opacity:0.64;}
	.st13{fill:#C49576;fill-opacity:0.6;}
	.st14{fill:#E2A58D;fill-opacity:0.3;}
	.st15{fill:#F7CB7F;fill-opacity:0.95;}
	.st16{fill:#050404;}
	.st17{fill:#E88282;fill-opacity:0.8;}
	.st18{fill:#F77272;fill-opacity:0.39;}
	.st19{fill:#070606;fill-opacity:0.5;}
	.st20{fill:#19110E;fill-opacity:0.61;}
	.st21{fill:#F7B2B2;}
	.st22{fill:#875151;fill-opacity:0.7;}
	.st23{fill:#F4B3B3;}
	.st24{fill:#FC8686;fill-opacity:0.66;}
	.st25{fill:#FC8686;fill-opacity:0.75;}
	.st26{fill:none;stroke:#000000;stroke-width:0.25;stroke-miterlimit:10;}
</style>
<defs>
</defs>
<g>
	<path class="st0" d="M146.76,367.94c1.82,3.14,3.1,6.6,3.77,10.17c0.32,1.73,0.45,3.68-0.59,5.1c-0.3-1.05-1.8-1.31-2.74-0.75
		c-0.94,0.56-1.44,1.62-1.91,2.61c-0.47,0.99-1.02,2.03-2.01,2.52c-0.41-1.36-0.83-2.72-1.24-4.08c-0.53-1.75-1.48-3.84-3.31-3.9
		c0.52-4.78-4.47-8.54-4.97-13.32c-0.13-1.27,0.23-2.78,1.4-3.26c0.56-0.23,1.2-0.17,1.8-0.07c1.42,0.24,2.81,0.7,4.09,1.36
		c0.4,0.2,0.79,0.43,1.23,0.51c0.74,0.14,1.69-0.35,2.28-0.7C145.31,365.37,146.02,366.67,146.76,367.94z"/>
	<g>
		<path class="st1" d="M153.88,367.18c-0.38,0.95-0.12,2.04,0.33,2.96c-1.04-0.38-2.17-0.52-3.27-0.41
			c-0.64,0.83-0.99,1.87-0.98,2.92c-2.21-0.82-4.42-1.65-6.62-2.47c-0.91-0.34-1.82-0.68-2.7-1.07c-0.75-0.34-1.52-0.74-2-1.41
			c-0.48-0.67-0.59-1.67-0.03-2.28c0.45-0.49,1.17-0.59,1.83-0.67c2.8-0.31,5.61-0.62,8.41-0.93c1.61-0.18,3.3-0.34,4.79,0.29
			c0.82,0.35,1.67,0.89,2.3,1.47C155.19,365.87,154.2,366.35,153.88,367.18z"/>
		<path class="st0" d="M145.81,368.61c1.82,3.14,3.1,6.6,3.77,10.17c0.32,1.73,0.45,3.68-0.59,5.1c-0.3-1.05-1.8-1.31-2.74-0.75
			c-0.94,0.56-1.44,1.62-1.91,2.61c-0.47,0.99-1.02,2.03-2.01,2.52c-0.41-1.36-0.83-2.72-1.24-4.08c-0.53-1.75-1.48-3.84-3.31-3.9
			c0.52-4.78-4.47-8.54-4.97-13.32c-0.13-1.27,0.23-2.78,1.4-3.26c0.56-0.23,1.2-0.17,1.8-0.07c1.42,0.24,2.81,0.7,4.09,1.36
			c0.4,0.2,0.79,0.43,1.23,0.51c0.74,0.14,1.69-0.35,2.28-0.7C144.37,366.03,145.08,367.34,145.81,368.61z"/>
		<path class="st2" d="M132.45,345.32c-0.17-3.61-0.43-7.22-0.79-10.82c-0.52,0.22-1.21-0.13-1.33-0.69
			c-0.08-0.36,0.04-0.81-0.23-1.07c-0.21-0.21-0.54-0.19-0.84-0.2c-1.06-0.05-2.05-0.78-2.41-1.78c0.4,1.13-0.46,2.83-0.24,4.07
			c0.2,1.12,0.93,2.21,1.51,3.16C129.6,340.42,131.68,342.53,132.45,345.32z"/>
		<path class="st3" d="M125.92,359.38c-0.49,2.54-0.47,5.19,0.06,7.72c0.12,0.55,0.27,1.12,0.67,1.52c0.35,0.35,0.83,0.51,1.3,0.65
			c0.95,0.28,4.61,1.73,5.5,1.22c1.26-0.71-0.36-2.45-0.99-3.42C131.78,366.03,125.8,359.99,125.92,359.38z"/>
		<g>
			<path class="st4" d="M244.18,27.75c1.12,4.42,6.07,6.52,9.11,9.91c1.65,1.84,2.75,4.09,3.8,6.32c2.87,6.08,5.55,12.25,8.03,18.51
				c1.99-7.38,3.21-14.97,3.62-22.61c0.13-2.45,0.18-4.96-0.5-7.32c-0.68-2.37-2.06-4.48-3.55-6.45
				c-4.83-6.37-11.02-11.58-17.14-16.72c-2.82-2.36-5.68-4.76-9.03-6.27c-7.82-3.52-17.47-1.52-24.15,3.87
				c-6.68,5.38-10.58,13.68-11.9,22.15s-0.29,17.14,1.54,25.52c4.14,18.99,18.13,35.09,23.65,53.73c1.26,4.25,2,8.74,1.24,13.11
				c-0.82,4.72-3.36,9.01-6.54,12.59c-1.36,1.53-2.89,2.99-4.78,3.78c-4.08,1.71-8.95-0.13-12.05-3.27s-4.82-7.36-6.47-11.46
				c-2.77-6.9-5.54-13.79-8.3-20.69c-2.22-5.53-9.46-7.89-14.94-10.24c-3.7-1.58-7.71-2.31-11.7-2.8
				c-11.72-1.43-23.69-0.89-35.23,1.59c-14.56,3.13-28.66,9.34-43.55,9.31c1.21,1.11,2.42,2.23,3.63,3.34
				c-1.47,0.05-2.92,0.59-4.06,1.52c-8.02,6.54-18.69,8.51-27.23,14.35c0.4,0.4,0.8,0.81,1.2,1.21c-1.99,0.22-3.98,0.45-5.97,0.67
				c-0.33,0.04-0.68,0.08-0.91,0.31c-0.47,0.45-0.21,1.23-0.3,1.87c-0.11,0.85-0.85,1.45-1.53,1.96
				c-7.82,5.82-16.44,10.55-25.55,14.02c0.8,0.62,0.14,1.88-0.54,2.63c-5.91,6.48-11.83,12.96-17.74,19.45
				c2.63-0.65,5.11-1.86,7.25-3.52c-0.51,0.65-1.03,1.3-1.54,1.95c4.06-2.02,8.01-4.28,11.81-6.75c0.64,0.93-0.29,2.13-1.15,2.87
				c-2.85,2.45-5.7,4.91-8.55,7.36c0.51,0.46,1.25,0.66,1.93,0.51c-0.05,3.6-0.1,7.2-0.15,10.79c1.27-6.92,6.52-12.96,13.2-15.19
				c-0.72,2.04-1.88,3.92-3.38,5.48c1.29-0.16,2.58-0.31,3.87-0.47c-0.87,1.77-1.75,3.54-2.62,5.31c3.11-2.48,5.75-5.54,7.78-8.96
				c-0.08,1.16-0.15,2.31-0.23,3.47c0.42,0.32,1.02-0.1,1.3-0.55c0.28-0.45,0.53-1.02,1.06-1.12c0.52-0.1,0.88,0.87,0.35,0.89
				c0.63-1.04,1.62-1.85,2.77-2.26c-0.62,1.78-1.95,3.3-3.62,4.17c5.22-3.37,10.44-6.74,15.66-10.11c3.13-2.02,6.59-4.12,10.29-3.71
				c1.62,0.18,3.14,0.84,4.65,1.47c4,1.68,8.06,3.22,12.11,4.75c2.6,0.99,5.2,1.97,7.8,2.96c2.84,1.08,5.69,2.16,8.62,2.99
				c4.23,1.21,8.61,1.89,13,2.04c-4.92,7.04-9.05,14.63-12.29,22.59c-4.9,12.05-13.4,21.88-21.14,32.34
				c-2.49,3.36-5.06,6.73-6.57,10.62c-0.42,1.08-0.75,2.2-1.09,3.31c-1.17,3.91-2.35,8-1.58,12c6.51,4.59,10.92,11.49,15.17,18.22
				c10.87,17.21,21.78,34.49,30.18,53.03c5.39,11.89,13.96,22.59,15.45,35.56c0.3,2.62,0.43,5.46,2.06,7.53
				c0.69,0.88,1.61,1.54,2.46,2.26c5.05,4.21,8.32,10.49,8.88,17.04c1.86,1.39,3.03,3.66,3.09,5.98c-0.1-3,4.31-4.91,6.43-2.78
				c-0.14-4.72-1.59-9.39-4.15-13.36c1.42,0.91,3.42,0.59,4.36,1.99c-0.06-1.59,1.62-2.99,3.17-2.66c-0.95-1.81,0.28-4.38,2.29-4.77
				c-3.68-0.84-7.43-1.34-11.2-1.49c-0.46-0.02-0.95-0.04-1.36-0.26c-0.5-0.27-0.8-0.79-1.08-1.29c-3.08-5.55-6.17-11.1-9.25-16.65
				c-0.11-0.2-0.29-0.42-0.5-0.36s0.04,0.48,0.12,0.27c-12.61-21.15-24.89-43.38-37.1-64.77c-2.68-4.69-5.36-9.39-8.04-14.08
				c-2.55-4.47-5.11-8.96-7.12-13.7c-1.96-4.63-3.39-9.57-3.35-14.59c0.04-5.63,4.4-11.28,6.65-16.44c1.4-3.21,2.81-6.43,4.53-9.47
				c2.67-4.7,6.08-8.95,8.94-13.54c6.86-11.01,10.8-24.31,20.76-32.62c0.31-0.26,0.65-0.52,1.05-0.6c1.25-0.24,2.07,1.36,3.28,1.75
				c1.27,0.41,2.88-0.53,3.89,0.35c0.71,0.62,0.59,1.72,0.46,2.65c-0.81,5.48-0.38,11.05-0.15,16.58
				c0.77,18.19-0.68,36.47-4.29,54.31c-0.5,2.46-1.04,4.92-1.13,7.43c-0.14,3.7,0.7,7.36,1.54,10.96c1.35,5.84,2.7,11.67,4.06,17.51
				c-3.62,10.84,0.87,22.65,2.25,33.98c0.61,4.99,0.62,10.06,0.03,15.06c-0.25,2.11-0.6,4.25-0.23,6.34
				c0.37,2.09,1.64,4.17,3.66,4.83c-1.2-16.08-2.41-32.16-3.61-48.24c-0.55-7.37-1.1-14.87,0.44-22.1c0.45-2.13,1.09-4.23,1.35-6.39
				c0.57-4.71-0.65-9.43-1.85-14.02c-5.47-20.82,1.8-42.78,2.67-64.29c0.16-3.88,0.32-7.81,1.51-11.51c1.18-3.7,3.53-7.19,7.03-8.89
				c14.08-6.85,30.73-8.83,46.32-7.33c3.28,0.32,6.54,0.85,9.83,1.05c6.77,0.41,13.54-0.63,20.19-1.96
				c6.27-1.26,12.86-2.99,17.28-7.61c3.93-4.11,5.5-9.87,6.95-15.36c3.7-14.13-4.14-29.02-10.61-42.12s-14.01-25.86-17.7-40
				c-1.76-6.72-2.56-14.05,0.13-20.46c1.28-3.05,4.15-6.1,7.37-5.34c1.35,0.32,2.46,1.26,3.72,1.83c3.02,1.36,6.58,0.5,9.81,1.22
				C236.6,26.48,240.27,29.31,244.18,27.75z"/>
			<path class="st5" d="M119.04,166.06c2.69-0.55,5.06-2.47,6.15-4.99c-0.35-0.43-1.11,0.27-0.82,0.74
				c0.29,0.47,1.06,0.41,1.45,0.01s0.51-0.98,0.61-1.52c0.32,0.43,0.64,0.86,0.96,1.29c0.27-0.82,0.53-1.63,0.8-2.45
				c1.23,2.54,5.08,2.06,7.45,0.53c2.38-1.52,4.65-3.77,7.47-3.62c1.49,0.08,2.95,0.86,4.43,0.58c1.36-0.26,2.55-1.4,3.91-1.21
				c0.63,0.09,1.18,0.46,1.78,0.69c1.2,0.46,2.55,0.32,3.81,0.07c4.58-0.92,8.86-3.29,12.07-6.68c0.45-0.47,0.92-1,1.57-1.11
				c0.64-0.11,1.42,0.47,1.2,1.08c0.66-2.2,2-4.89,4.29-4.65c2.25,0.24,3.32,3.26,5.55,3.66c0.6,0.11,1.22,0,1.81,0.12
				c0.83,0.16,1.52,0.71,2.21,1.19c2.39,1.69,5.35,2.78,8.25,2.34c1.33-0.21,2.61-0.73,3.95-0.7c0.97,0.02,1.91,0.32,2.84,0.61
				c4.59,1.39,9.33,2.27,14.11,2.62c-1.33,0.67-2.8,0.99-4.27,1.23c-17.28,2.8-35.83-4.78-52.11,1.67
				c-4.71,1.87-8.72,4.23-13.91,4.3c-3.67,0.05-5.27,0.22-7.55,3.19c-1.79,2.34-3.02,4.88-6.31,5.37
				C126.05,171.1,123.59,165.14,119.04,166.06z"/>
			<path class="st6" d="M107.58,160.1c0.01,1.75,1.2,3.63,2.95,3.78c0.06,0.96-1.22,1.3-2.17,1.49c-0.95,0.19-2.06,1.2-1.39,1.9
				c-11.5-1.53-22.6-5.93-32.03-12.67c0.44,1.9-2.42,2.97-4.19,2.14c-1.77-0.83-3-2.57-4.81-3.32c-2.71-1.13-5.75,0.28-8.34,1.65
				c-7.55,4-15.1,8-22.65,12.01c1.13-1.93,2.74-3.58,4.65-4.76c-2.07-0.22-4.21,0.46-5.77,1.83c2.43-2.45,4.86-4.89,7.3-7.34
				c-10.05,2.59-19.13,8.82-25.15,17.27c-0.33-1.93-0.32-3.91,0.03-5.84c-0.57,0.43-1.13,0.86-1.7,1.29
				c0.52-7.48,7.15-14.05,14.64-14.52c-1.02,0.95-2.05,1.9-3.07,2.84c2.2-0.41,4.4-0.82,6.59-1.23c-0.62,0.5-1.25,0.99-1.87,1.49
				c2.66-2.01,5.33-4.03,7.99-6.04c-1.41,0.14-2.82,0.27-4.23,0.41c3.74-1.09,7.7-1.44,11.57-1c2.27,0.26,4.57,0.78,6.82,0.39
				c4.2-0.72,7.63-4.48,11.89-4.37c-0.64,0-1.27,0-1.91,0c1.92-1.11,4.44-1.11,6.36,0c0.24-0.94,0.48-1.88,0.73-2.83
				c-0.78,1.55,0.88,3.53,2.61,3.41s3.06-1.79,3.27-3.51c0.21,1.17,0.99,2.21,2.06,2.74c0.47-1.21,1.28-2.29,2.32-3.07
				c-0.39,1.84,1.55,3.49,3.43,3.59c1.88,0.09,3.63-0.85,5.32-1.69s3.58-1.61,5.4-1.15c-0.25,1.22-0.77,2.39-1.53,3.38
				c1.18,0.16,0.8,2.1-0.23,2.7s-2.41,0.78-2.99,1.81c1.37,0.7,3.14,0.53,4.35-0.42c-0.24,0.76-0.49,1.52-0.73,2.28
				c2.62-0.23,4.97-2.32,5.51-4.89c-0.68-0.2-1.35-0.4-2.03-0.6c0.24-1.13,0.9-2.17,1.83-2.87c-0.32-0.47-0.63-0.94-0.95-1.41
				c1.42-0.79,3.05-1.22,4.68-1.24c-0.44,3.18-0.28,6.45,0.48,9.58c0.24-0.56,0.79,0.38,0.92,0.98c0.55,2.37,4.44,0.3,5.83,0.91
				C108.53,156.65,107.56,158.25,107.58,160.1z"/>
			<path class="st7" d="M78.57,129c-1.65,3.83-2.27,8.1-1.77,12.23c-1.01-0.84-2.02-1.67-3.03-2.51c0.01,3.65,4.11,7.24,2.18,10.34
				c-1.03,1.1-2.95,0.84-4.08-0.14c-1.14-0.99-1.68-2.47-2.15-3.9c-0.5,1.77-1.99,3.23-3.78,3.69c-0.04-2.46-0.09-4.92-0.13-7.38
				c-0.47,0.55-0.94,1.09-1.41,1.64c0.18-1.73,0.37-3.45,0.55-5.18c-0.47,0.38-0.94,0.76-1.41,1.14c0.23-0.68,0.45-1.36,0.68-2.05
				c-0.34,0.56-0.69,1.12-1.03,1.68c0.18-0.73,0.36-1.47,0.53-2.2c-0.09,0.69-0.91,1.18-1.57,0.94c2.39-3.25,3.72-7.25,3.75-11.28
				c-3.11,4.96-5.03,10.66-5.55,16.49c-1.65-0.91-2.73-2.77-2.7-4.66c-1.15,2.76-1.79,5.73-1.89,8.71
				c-1.08-3.09-1.51-6.41-1.26-9.68c-0.57,3.18-1.44,6.31-2.6,9.34c-0.7-3.99-0.35-8.15,1-11.96c-1.2,1.64-2.4,3.28-3.6,4.92
				c0.32-1.57,0.63-3.15,0.95-4.72c-1.25,0.98-2.64,1.79-4.11,2.39c-0.11-0.88,0.19-1.8,0.81-2.43c-1.45,0.91-2.91,1.82-4.36,2.73
				c-0.03-0.58-0.06-1.15-0.08-1.73c-3.01,2.37-6.24,4.46-9.65,6.23c1.4-2.43,2.8-4.87,4.2-7.3c-3.58,3.74-8.72,5.93-13.9,5.93
				c1.72-0.36,3.44-0.71,5.16-1.07c-4.66,1.85-8.9,4.75-12.31,8.42c2.74-2.02,5.69-3.74,8.79-5.14
				c-8.23,6.82-15.83,14.41-22.67,22.62c2.31-3.99,5.59-7.42,9.48-9.91c-3.13,3.79-6.35,7.73-7.74,12.44
				c2.4-3.88,5.36-7.41,8.78-10.44c-1.56,2.04-3.11,4.09-4.67,6.14c3.73-3.82,7.93-7.18,12.46-10c-1.44,2.05-2.88,4.1-4.32,6.15
				c2.45-2.35,5.41-4.16,8.62-5.26c-3.09,3.63-6.19,7.26-9.28,10.89c2.51-3.02,5.21-5.89,8.07-8.59c-0.41,1.19-0.83,2.38-1.24,3.58
				c0.91-1.23,2.13-2.23,3.51-2.88c-0.86,1.82-1.88,3.57-3.03,5.22c1.98-3.24,4.78-5.87,7.54-8.47c2.94-2.76,5.88-5.52,8.82-8.27
				c-0.64-0.23-1.42,0.03-1.8,0.6c1.77-2.21,3.81-4.19,6.07-5.89c-0.86,1.31-1.47,2.78-1.79,4.31c1.39-1.03,2.77-2.06,4.16-3.09
				c-0.14,0.86-0.28,1.73-0.42,2.59c0.74-0.36,1.47-0.71,2.21-1.07c0.01,0.6,0.03,1.2,0.04,1.8c2.64-0.37,5.37,1.72,5.72,4.36
				c1.44-0.7,2.79-1.59,3.99-2.65c-0.36,1.22-0.72,2.44-1.07,3.66c0.99-1.59,2.12-3.08,3.38-4.46c1.27,0.81,2.53,1.61,3.8,2.42
				c1.34,0.85,2.73,1.73,4.3,1.99c1.37,0.23,2.85-0.02,4.11,0.58c0.73,0.34,1.33,0.95,2.1,1.2c1.38,0.46,2.84-0.32,4.08-1.07
				c1.69-1.02,3.39-2.04,5.08-3.06c-1.31-0.21-2.06-1.74-1.89-3.05c0.31-1.25,0.84-2.35,1.67-3.36c-0.55,0.75-1.27,1.41-1.89,2.09
				c0.26-2.13-1.98-1.72-2.71-3.24C77.14,137.94,78.5,131.74,78.57,129z"/>
			<path class="st8" d="M246.6,8.44c-5.11-7.33-15.46-9.98-23.99-7.29s-15.13,9.95-18.46,18.24s-3.71,17.52-2.68,26.39
				c1.16,9.98,4.04,19.76,8.49,28.78c4.34,8.8,10.15,16.88,13.73,26.01c2,5.11,3.28,10.49,3.78,15.95
				c0.47,5.14,0.21,10.55-2.23,15.1c-2.44,4.55-7.49,8-12.61,7.27c-6.98-0.99-10.78-8.52-13.13-15.17
				c-3.41-9.66-6.61-20.05-14.41-26.71c-9.11-7.78-22.16-8.47-34.14-8.35c-7.46,0.07-14.95,0.31-22.28,1.65
				c-14.48,2.63-28.35,9.5-43.06,9c0.13,2.09,1.2,4.11,2.86,5.39c-11.35-0.13-19.62,11.37-30.75,13.65
				c-0.77,0.16-1.63,0.32-2.08,0.96c-0.46,0.64,0.05,1.83,0.8,1.6c-1.78,0.28-3.57,0.56-5.35,0.84c-1.63,4.02-4.73,7.43-8.58,9.44
				c-3.48,1.82-7.24,3.48-10.5,5.67c-2.55,1.71-5.64,2.61-8.71,2.54c1.64,1.17,3.78,1.6,5.74,1.15c-1.35,1.09-2.55,2.37-3.53,3.8
				c3.49-1.55,6.61-3.91,9.04-6.85c0.04,1.07,0.07,2.13,0.11,3.2c2.76-1.52,5.4-3.27,7.86-5.24c0.2,1.25,0.02,2.55-0.51,3.7
				c1.93-0.67,3.69-1.83,5.08-3.33c0.78,0.62,1.66,1.1,2.6,1.41c1.11-0.84,2.22-1.69,3.32-2.53c-1.25,3.78-1.66,7.84-1.2,11.79
				c0.46-2.65,1.44-5.21,2.87-7.5c-0.08,2.4,0.76,4.82,2.32,6.64c-0.17-1.39,0.15-2.84,0.89-4.03c-0.3,0.87,0.37,1.92,1.28,2.02
				c1.14-7.23,4.07-14.17,8.46-20.03c-1.35,1.74-1.26,4.14-1.38,6.34c-0.11,2.2-0.72,4.72-2.72,5.66c1.42-0.15,2.79-0.63,4-1.38
				c-0.11,5.98,2.7,11.94,7.39,15.66c-0.79-1.75-1.16-3.69-1.07-5.61c0.59,0.07,1.18,0.14,1.77,0.21c0.32-1,0.4-2.07,0.26-3.11
				c0.83,1.32,1.93,2.47,3.22,3.35c-0.79-1.31-1.57-2.63-2.36-3.94c0.83,0.22,1.67,0.44,2.5,0.66c-0.54-1.01-1.07-2.01-1.61-3.02
				c0.2,0.51,0.82,0.83,1.35,0.69c-0.94-2.14-0.68-4.75,0.66-6.66c1.91,2.3,1.7,6.05-0.45,8.13c0.76,0.78,2.32,0.39,2.62-0.66
				c0.15,0.89-0.03,1.82-0.5,2.59c1.87-0.64,3.41-2.2,4.01-4.08c0.22,0.84,0.44,1.68,0.66,2.52c0.62-0.44,1.24-0.87,1.87-1.31
				c-1.21,2.44-3.7,4.2-6.41,4.53c0.26,1.13,1.81,1.72,2.76,1.04c-0.62,0.6-1.24,1.2-1.85,1.8c3.03,0.85,6.53-0.33,8.42-2.84
				c0.17,0.66,0.34,1.33,0.51,1.99c1.66-1.31,3.32-2.62,4.98-3.93c0.31,3.71-2,7.5-5.45,8.92c0.65,0.71,1.54,1.2,2.49,1.37
				c-0.53,0.46-1.06,0.92-1.58,1.38c0.85,2.72,4.63,3.1,7.34,2.22c2.71-0.88,5.43-2.5,8.22-1.9c1.58,0.34,2.93,1.36,4.48,1.84
				c1.55,0.48,3.62,0.12,4.15-1.4c0.48,0.44,0.43,1.32-0.1,1.7c1.35-0.14,2.65-0.65,3.74-1.45c-0.4,0.95,0.83,2.09,1.75,1.61
				c-0.38,0.67-1.01,1.11-1.39,1.77c1.72,0.26,3.51,0.06,5.13-0.57c-0.25,0.61-0.49,1.22-0.74,1.83c1.61-0.13,3.22-0.27,4.83-0.44
				c-1.01,0.35-1,1.98-0.12,2.6c0.88,0.62,2.12,0.39,3.04-0.16c0.92-0.55,1.65-1.37,2.51-2c3.22-2.36,7.65-1.79,11.58-1.12
				c0.72,0.12,1.44,0.25,2.15,0.37c1.18,0.2,2.37,0.4,3.56,0.33c2.15-0.14,4.13-1.15,5.99-2.23c3.68-2.13,7.17-4.56,10.44-7.28
				c1.53-1.27,3.47-2.7,5.32-1.96c0.69,0.28,1.23,0.82,1.83,1.27c1.55,1.15,3.5,1.61,5.38,2.04c14.27,3.25,29.33,6.47,43.31,2.15
				c6.16-1.91,10.45-7.53,13.77-13.04c3.72-6.18,4.39-13.81,3.31-20.94c-1.08-7.13-3.79-13.89-6.48-20.58
				c-1.68-4.17-3.35-8.34-5.24-12.42c-4.79-10.33-10.95-20.08-14.45-30.91c-3.5-10.83-3.98-23.41,2.24-32.94
				c7.87,4.54,17.21,6.5,26.25,5.51c-0.93-2.93-2.46-5.62-4.62-7.81c-0.49-0.49-1.02-0.99-1.22-1.65c-0.27-0.9,0.13-1.86,0.59-2.68
				c0.11-0.2,0.23-0.4,0.24-0.62c0.02-0.58-0.7-0.92-1.28-0.87s-1.14,0.33-1.72,0.31c-1.15-0.04-1.95-1.26-2.01-2.41
				c-0.09-1.64,1.02-3.26,2.58-3.78c1.55-0.52,3.42,0.11,4.34,1.46c0.43,0.63,0.76,1.46,1.51,1.61c0.51,0.1,1.02-0.18,1.46-0.45
				C244.74,10.14,245.26,9.25,246.6,8.44z"/>
			<path class="st9" d="M91.6,124.57c-2.01,3.44-2.35,7.57-2.64,11.54c-1.14-1.47-1.86-3.27-2.04-5.13
				c-0.55,3.53-1.11,7.07-1.66,10.6c-0.78-0.28-1.43-0.89-1.77-1.64c-1.07,1.15-2.15,2.3-3.22,3.46c-0.81-4.89-0.76-9.92,0.15-14.8
				c-1.95,1.6-3.01,4.22-2.72,6.73c-0.27-4.09-0.55-8.17-0.82-12.26c-1.33,6.32-0.98,12.99,1,19.14c-0.66-0.97-1.32-1.94-1.98-2.91
				c0.09,1.68,0.51,3.35,1.24,4.87c-0.73-1.05-1.31-2.21-1.72-3.43c-0.09,2.09-0.18,4.19-0.27,6.28c-0.03,0.67-0.1,1.43-0.62,1.85
				c-1.12,0.91-2.58-0.65-3.1-2c-1.92-4.94-2.72-10.31-2.32-15.59c-0.97,0.97-1.93,1.95-2.9,2.92c0.11-1.72,0.21-3.45,0.32-5.17
				c-0.18,0.63-0.7,1.15-1.33,1.34c0.16-3.5,1.13-6.96,2.83-10.03c-3.65,6.7-6.13,14.03-7.28,21.57c-0.52-0.77-1.04-1.54-1.55-2.31
				c-1.21,2.01-2.42,4.02-3.63,6.03c-0.18-1.04-0.35-2.08-0.53-3.12c-0.1,1.54-0.61,3.06-1.47,4.35c0.06-2.82,0.13-5.63,0.19-8.45
				c-0.87,3.05-1.94,6.05-3.18,8.98c-0.57-4.46,0.12-9.08,1.96-13.19c-1.08,1.18-2.35,2.18-3.74,2.95c0.67-1.12,1.07-2.4,1.15-3.7
				c-1.03,0.12-2.05,0.24-3.08,0.36c3.36-5.04,7.59-9.5,12.44-13.13c-1.38-0.09-2.79,0.35-3.88,1.21
				c6.33-6.1,14.56-9.77,22.61-13.32c8.13-3.58,16.37-7.2,25.14-8.56c8.86-1.38,18.16-0.44,26.57-3.54
				c-6.98,2.57-13.11,9.92-19.27,14.1C104.29,114.8,95.53,117.83,91.6,124.57z"/>
			<path class="st9" d="M187.94,115.94c-1,5.71-5.69,10.6-11.36,11.85c-1.44,0.32-2.98,0.44-4.2,1.26
				c-3.13,2.09-2.21,6.96-3.96,10.29c-0.61,1.15-1.56,2.12-2.7,2.75c-0.94,0.52-2,0.81-2.88,1.43c-1.06,0.75-1.75,1.91-2.6,2.9
				c-2.54,2.95-6.74,4.38-10.55,3.59c3.05-1.9,5.84-4.21,8.28-6.85c-2.4,0.66-5.05,0.36-7.24-0.81c1.78-0.43,3.57-0.86,5.35-1.29
				c-1.63,0.22-3.35-0.54-4.29-1.89c3.9,0.97,8.26-0.1,11.26-2.76c-14.95-0.31-29.4-9.31-36.26-22.58
				c6.05,4.08,12.1,8.16,18.16,12.23c2.43,1.64,5.06,3.34,7.99,3.31c-6.77-4.81-13.8-9.91-17.53-17.32c3.21,2.43,6.42,4.87,9.63,7.3
				c-1.1-1.9-2.2-3.79-3.3-5.69c4.62,5.75,11.83,9.34,19.21,9.57c-5.16-1.95-9.39-6.22-11.29-11.39c4,3.78,8.84,6.66,14.07,8.37
				c-3.77-2.49-6.6-6.37-7.83-10.72c1.42,1.07,2.83,2.13,4.25,3.2c-1.18-1.64-2.36-3.27-3.54-4.91c5.91,3.85,12.57,6.54,19.49,7.9
				c-1.75-0.2-3.43-0.93-4.77-2.06c1.88-0.37,3.58-1.56,4.58-3.19c-0.95-0.04-1.89-0.07-2.84-0.11c1.32-0.74,2.44-1.83,3.22-3.12
				c-1.11,0.04-2.2-0.7-2.59-1.74c1.28,0.61,2.69-1.08,2.36-2.45s-1.66-2.26-2.95-2.84c0.64-1.62,2.73-2.27,4.43-1.86
				C184.38,99.92,189.07,109.51,187.94,115.94z"/>
			<path class="st10" d="M237.1,5.64c-2.16-1.06-4.73-2.02-6.9-0.98c-2.17,1.03-3.07,3.88-2.34,6.17c0.72,2.29,2.74,3.99,4.97,4.89
				c2.23,0.9,4.67,1.11,7.07,1.24c0.45,0.02,0.99,0,1.21-0.39c0.26-0.46-0.17-1.01-0.61-1.3c-1.36-0.88-3.09-0.91-4.6-1.51
				c-1.5-0.61-2.84-2.39-1.98-3.76c0.67-1.07,2.19-1.13,3.46-1.07c0.51,0.03,1.05,0.07,1.43,0.41c0.71,0.65,0.33,1.86,0.75,2.73
				c1.02,2.11,5.12,2.11,4.3-0.69C243.11,8.85,239.24,6.69,237.1,5.64z"/>
			<path class="st11" d="M257.12,47.33c-0.59-2.18-1.18-4.37-1.77-6.55c-0.29-1.08-0.64-2.24-1.54-2.89
				c-0.91-0.66-2.17-0.64-3.14-1.23c-2.6-1.6-1.65-6.58-4.53-7.56c-1.3-0.44-2.67,0.24-4,0.58c-2.88,0.73-5.89-0.23-8.69-1.24
				c-3.61-1.3-7.19-2.71-10.73-4.21c-0.94-0.4-1.94-0.81-2.94-0.63c-0.56,0.1-1.08,0.39-1.55,0.7c-4.16,2.72-6.29,7.79-6.62,12.74
				c-0.32,4.95,0.92,9.86,2.27,14.63c1.36,4.84,2.85,9.68,5.1,14.17c2.81,5.6,6.79,10.59,9.27,16.34c1.68,3.9,2.64,8.08,4.35,11.98
				c1.21,2.76,2.77,5.36,4.01,8.11c5.04,11.28,4.07,24.37,0.99,36.33c-0.72,2.79-1.58,5.63-3.33,7.92
				c-1.95,2.57-4.83,4.24-7.63,5.85c0,0.29-0.81-0.74-0.81-0.44c-4.52,0.94-7.81,2.67-12.24,3.95c-12.54,3.63-25.84-0.18-38.84-1.37
				c-2.92-0.27-5.87-0.4-8.76,0.05c-6.41,1-12.14,4.81-18.56,5.74c-4.07,0.59-8.83,0.25-11.57,3.31c-1.24,1.39-1.79,3.26-2.84,4.8
				c-1.04,1.54-3.01,2.81-4.71,2.07c-1.73-0.76-2.13-3.03-3.47-4.35c-1.66-1.62-4.8-1.24-6.02,0.73c-2.54-3.85-9.1-3.94-11.74-0.16
				c-4.84,1.78-10.21,0.13-14.84-2.14c-4.63-2.28-8.75-5.49-13.33-7.86c-1.14-0.59-2.46-1.13-3.66-0.68
				c-0.61,0.23-1.11,0.7-1.72,0.93c-2.13,0.81-4.06-1.39-5.97-2.63c-3.95-2.58-9.3-1.09-13.37,1.31c-4.07,2.39-7.8,5.65-12.41,6.68
				c-1.77,0.39-3.72,0.47-5.16,1.58c-0.86,0.66-1.43,1.61-2.14,2.43c-2.27,2.64-5.75,3.85-9.06,4.94c0.98-2.03,2.19-3.95,3.6-5.71
				c-1.1,0.82-2.46,1.28-3.83,1.28c1.12-3.23,3.67-5.94,6.83-7.26c-6.16,1.3-11.56,5.74-14.03,11.52c-0.75,1.75-1.42,3.8-3.16,4.56
				c-0.87-2.9-0.77-6.08,0.29-8.91c-0.76-0.03-1.53-0.06-2.29-0.09c2.63-3.72,5.6-7.19,8.87-10.35c-3.25,1.69-6.5,3.37-9.76,5.06
				c-1.72,0.89-3.58,1.95-4.19,3.78c0.46-0.96,0.93-1.93,1.39-2.89c-1.75,1.33-3.22,3.03-4.27,4.95c0.25-1.15,0.51-2.29,0.76-3.44
				c-2.18,1.48-4.07,3.38-5.53,5.58c0.27-2.34,1.18-4.6,2.61-6.48c-0.76,0.58-1.84,0.71-2.71,0.33c1.2-1.95,2.81-3.63,4.7-4.92
				c0.07,0.39,0.15,0.79,0.22,1.18c3.3-4.21,7.24-7.92,11.64-10.96c-1.42,0.95-2.83,1.89-4.25,2.84c3.84-4.78,9.05-8.44,14.85-10.44
				c-1.56-0.02-3.13-0.04-4.69-0.07c9.87-5.29,19.73-10.58,29.6-15.86c-0.59,0.05-1.14-0.57-1.02-1.15
				c0.77-1.11,1.97-1.91,3.29-2.19c0.58-0.13,1.19-0.16,1.75-0.37c0.7-0.26,1.27-0.77,1.83-1.26c8.77-7.65,19.71-12.26,30.45-16.75
				c-0.7-0.45-1.4-0.9-2.09-1.35c3.41-1.19,7.18-1.3,10.65-0.3c18.26-9.31,39.65-13.52,60.13-12.72c8.63-0.98,17.69,1.8,24.99,6.48
				c7.3,4.69,12.92,11.95,15.61,20.19c2.01,6.14,2.66,13.17,7.26,17.7c2.97,2.92,7.11,4.28,11.16,5.27
				c8.46-5.23,12.51-16.36,11.21-26.21c-1.3-9.85-6.18-18.8-10.7-27.65c-6.49-12.7-12.51-26.05-13.55-40.27
				c-0.56-7.65,1.69-15.25,4.45-22.41c2.8-7.28,6.95-14.38,13.45-18.7c2.16-1.43,4.59-2.55,7.16-2.79
				c3.61-0.34,7.16,1.04,10.39,2.69c9.27,4.73,17.13,11.75,24.87,18.69c1.59,1.42,3.2,2.88,4.25,4.73c1.24,2.2,1.6,4.77,1.92,7.27
				c-0.84,0.63-1.68,1.27-2.52,1.9c-0.06,0.52-0.12,1.05-0.18,1.57c-0.04-5.2-3.45-9.93-7.79-12.8c-4.34-2.87-9.53-4.15-14.65-5.09
				c1.06,2.9,4.96,3.08,7.9,4c3.73,1.16,6.64,4.21,8.42,7.68c1.78,3.47,2.54,7.36,3.11,11.22c-0.42-0.57-1.39-0.21-1.73,0.41
				c-0.34,0.62-0.31,1.37-0.53,2.04C261.12,46.27,258.6,47.81,257.12,47.33z"/>
			<path class="st12" d="M225.2,25.6c-2.52-0.94-5.48-1.95-7.74-0.49c-1.7,1.09-2.39,3.26-3.92,4.57c-0.35-2.95,2.34-5.39,2.85-8.31
				c0.54-3.08-1.41-6.25-0.63-9.28c3.69,8.18,12.26,13.92,21.23,14.22c0.98,0.03,5.79-0.3,6.29,0.84c0.83,1.87-2.63,1.78-3.57,1.76
				C234.73,28.83,229.82,27.34,225.2,25.6z"/>
			<path class="st13" d="M240.74,15.96c-1.16,0.2-2.5,0.34-3.39-0.43c-0.49-0.43-0.77-1.1-1.35-1.39c-0.65-0.33-1.45-0.08-2.15-0.3
				c-1.09-0.34-1.53-1.76-1.17-2.85s1.28-1.88,2.2-2.56c0.62-0.46,1.27-0.89,1.93-1.3c0.19-0.12,0.4-0.24,0.62-0.21
				c0.24,0.03,0.42,0.22,0.58,0.4c1.02,1.13,3.34,2.84,3.82,4.31C242.15,12.59,241.82,15.78,240.74,15.96z"/>
			<path class="st14" d="M236.98,9.77c0.95,0.23,2.06,0.59,2.33,1.53c0.23,0.77-0.28,1.62-0.98,2.02c-0.7,0.4-1.54,0.47-2.35,0.48
				c-0.75,0.01-1.6-0.06-2.06-0.66c-0.5-0.66-0.23-1.64,0.28-2.3c0.77-0.99,2.05-1.57,3.3-1.49"/>
			<path class="st15" d="M237.15,10.25c0.8,0.8,0.39,2.4-0.69,2.72s-2.3-0.8-2.07-1.9c0.23-1.1,1.79-1.64,2.65-0.92"/>
			<path class="st16" d="M236.33,10.82c-0.41-0.22-0.92-0.24-1.35-0.05c-0.17,0.43,0.35,0.88,0.82,0.83s0.82-0.42,1.13-0.78
				c-0.16-0.16-0.42-0.22-0.63-0.13"/>
			<path class="st17" d="M240.15,25.38c1.07,0.95,2.54,1.35,3.62,2.28c0.99,0.85,2.16,3.14,3.49,5.01s2.82,3.32,3.29,3.64
				c3.14,2.18,5.48,5.49,6.48,9.17c0.24,0.89,0.55,1.96,1.44,2.23c1.03,0.31,1.97-0.75,2.33-1.76s0.55-2.2,1.41-2.85
				c0.45-0.35,1.06-0.5,1.43-0.93c0.28-0.33,0.38-0.78,0.46-1.21c0.99-5.65-1.54-12.07-6.71-14.58c-2.51-1.22-5.42-1.47-7.9-2.74
				c-0.46-0.24-0.97-0.65-0.85-1.15c0.06-0.26,0.28-0.45,0.51-0.59c1.65-1.06,3.85-0.52,5.63,0.3c6.04,2.79,10.57,8.62,11.78,15.16
				c1.17-0.22,1.3-1.82,1.15-3c0.63-0.13,1.31,0.03,1.81,0.42c1.15-2.76-0.58-5.83-2.45-8.16c-4.56-5.71-10.31-10.34-16.01-14.91
				c-1.19-0.96-2.52-1.96-4.05-1.96c-1.96,0.01-4.14,1.65-5.67,0.42c-0.43-0.35-0.69-0.87-1.03-1.31c-1.6-2.08-5.33-1.86-6.67,0.4
				c1.66-0.88,3.77-1.23,5.38-0.26c4.36,2.62-0.99,4.77-1.59,6.81C236.78,18.01,238.46,23.87,240.15,25.38z"/>
			<path class="st18" d="M236.42,15.49c3.66,1.92,1.57,8.41,4.83,10.95c1.06,0.82,2.47,1.03,3.59,1.76c2.73,1.8,2.91,6.12,5.72,7.8
				c0.91,0.55,2.02,0.75,2.81,1.46c0.57,0.51,0.9,1.22,1.21,1.92c2.38,5.34,4.34,10.87,5.85,16.52c0.6,2.25,0.71,4.28,1.61,6.43
				c0.13,0.31,0.28,0.63,0.53,0.85c1.09,0.97,2.63-0.56,3.2-1.9c2.6-6.02,3.75-12.55,4.63-19.04c0.48-3.59,0.88-7.33-0.27-10.77
				c-1.09-3.26-3.45-5.91-5.75-8.46c-1.35-1.49-3.05-3.12-5.04-2.81c0.7,1.3,1.39,2.61,2.09,3.91c-1.12,0.54-2.46-0.03-3.43-0.81
				c-0.96-0.78-1.77-1.79-2.89-2.32c-1.84-0.87-4.24-0.3-5.84-1.56c-0.56-0.45-0.97-1.09-1.61-1.42c-1.58-0.81-4.14,0.45-4.95-1.13
				c-0.27-0.53-0.18-1.2-0.53-1.68C241.03,13.62,237.88,16.8,236.42,15.49z"/>
			<path class="st19" d="M268.21,53.45c-0.11,2.04-0.2,4.13-0.93,6.04s-2.23,3.66-4.23,4.1c-1.67-5.19-3.34-10.38-5.01-15.57
				c1.26,0.05,1.69-1.6,2.23-2.73c0.56-1.18,1.6-2.06,2.39-3.1c2.38-3.13,2.31-7.69,0.39-11.12c-1.92-3.42-5.43-5.76-9.17-6.93
				c-3-0.94-6.39-1.31-8.65-3.5c9.81-0.2,19.26,7.16,21.46,16.71c-0.16-0.7,1.36-2.87,1.12-4.23c4.05-0.11,2,4.35,1.62,6.44
				C268.61,44.09,268.46,48.87,268.21,53.45z"/>
			<path class="st20" d="M259.97,23.03c-2.41-0.17-4.71-1.56-5.97-3.63c1.98,1,3.92,2.07,5.81,3.22c0.32,0.19,0.68,0.58,0.46,0.87"
				/>
			<path class="st21" d="M132.98,167.68c-2.27,1.31-5.42-2.39-7.46-0.74c-0.83,0.67-0.91,1.87-0.93,2.93
				c-0.29,17.92-0.58,35.84-0.87,53.77c-0.1,6.31-0.22,12.74-2.22,18.72c-0.7,2.09-2.09,4.26-2.35,6.44
				c0.35,0.45,0.71,0.9,1.06,1.34c-1.29,0.14-1.26,2.02-0.87,3.25c3.09,9.78,4.77,20,4.96,30.25c0.12,6.06-0.28,12.17,0.79,18.14
				c3.41,19.02,0.34,38.66,0.81,57.98c0.07,2.96,0.14,5.91,0.22,8.87c0.01,0.32,0.02,0.66,0.18,0.93c0.31,0.53,1.02,0.64,1.64,0.68
				c7.46,0.57,14.9,1.45,22.3,2.63c-2.78-1.3-6.33-3.26-9.3-4.01c4.52-0.74,9.23-0.24,13.5,1.42c-4.06-3.29-9.64-4.62-14.75-3.52
				c4.62-3.24,10.9-2.04,16.38-0.71c-1.5-1.65-3.74-2.4-5.93-2.87c-4.37-0.95-8.93-1.04-13.34-0.26c-0.9,0.16-1.87,0.35-2.7-0.05
				c-1.37-0.66-1.58-2.48-1.61-3.99c-0.32-15.72-0.61-31.43-0.87-47.15c-0.21-12.55-1.43-25.54-1.77-38.09
				c-0.06-2.32-0.12-4.66,0.37-6.93c0.43-1.96,1.27-3.82,1.64-5.8c0.48-2.5,0.19-5.14-0.81-7.48c-0.49-1.14-1.15-2.21-1.51-3.4
				c-0.42-1.37-0.44-2.82-0.45-4.25c-0.07-8.96-0.14-17.91-0.22-26.87c-0.13-16.49,2.27-33.21,4.78-49.51
				C133.84,168.34,133.94,167.12,132.98,167.68z"/>
			<path class="st22" d="M75.21,251.12c0.02,0.19,0.02,0.4-0.1,0.56c-0.31,0.41-0.95-0.01-1.27-0.41c-0.93-1.19-1.85-2.37-2.78-3.56
				c-1.22-1.56-2.38-4.24,0.61-2.69C73.53,245.97,75.04,249.16,75.21,251.12z"/>
			<path class="st22" d="M95.34,288.96c-7.87-12.6-16.54-24.72-25.92-36.24c-2.95-3.62-5.85-7.7-4.8-12.25
				c1.05,3.67,2.92,7.11,5.43,9.99c2.08,2.39,4.58,4.4,6.59,6.85c1.35,1.66,2.45,3.5,3.55,5.33c3.97,6.62,7.94,13.23,11.9,19.85"/>
			<path class="st22" d="M120.56,239.22c-0.7,4.46-2.55,8.85-1.99,13.34c0.31,2.45,1.33,4.74,2.11,7.08
				c2.29,6.91,2.48,14.31,2.65,21.59c1.15-5.98,2.26-12.35-0.01-18c-0.37-0.91-0.83-1.87-0.59-2.82c0.23-0.95,1.61-1.6,2.21-0.82
				c0.31-0.82-0.32-1.69-1.03-2.21c-0.71-0.51-1.57-0.89-2.03-1.63s-0.16-2.01,0.72-2.05c-0.23-0.57-0.45-1.14-0.68-1.71
				c1.3,0.08,2.56,0.74,3.35,1.78c-0.85-1.54-2.2-2.81-3.8-3.56c0.66-0.85,2.04-1,2.87-0.33c-0.5-1.17-1.64-2.04-2.9-2.22
				c-0.11-0.94,0.31-1.92,1.05-2.51c-1.54-1-0.99-3.32-0.39-5.05c1.42-4.13,2.06-8.52,1.91-12.88c-0.09-2.67-0.11-7.18-1.82-9.3
				c-1.07,2.03-0.7,5.25-0.8,7.5C121.19,230.01,121.27,234.71,120.56,239.22z"/>
			<path class="st23" d="M142.67,363.73c-6.56-11.56-13.08-23.14-19.56-34.74c-1-1.79-2-3.57-2.99-5.36
				c-1.49-2.67-2.99-5.35-4.48-8.02c-8.64-15.46-17.49-30.59-26.08-46.08c-3.64-6.56-6.92-13.32-9.8-20.24
				c-1.04-2.49-2.04-5.07-2.14-7.77c-0.12-3.45,1.24-6.75,2.57-9.93c1.14-2.73,2.29-5.46,3.43-8.19c1.63-3.88,3.26-7.77,5.46-11.35
				c1.28-2.09,2.75-4.05,4.1-6.1c1.81-2.74,3.39-5.63,4.95-8.52c5.86-10.86,11.29-22.19,19.32-31.57c0.15,0.07,0.3,0.15,0.44,0.22
				c-1.98-2.36-5.71-3.73-8.42-2.27c-1.53,0.83-2.46,2.43-3.32,3.95c-6.87,12.26-13.74,24.51-20.61,36.77
				c-1.6,2.85-3.2,5.71-5.06,8.41c-2.07,3.01-4.46,5.79-6.54,8.79c-3.08,4.42-5.49,9.27-7.88,14.09c-0.7,1.41-1.42,2.88-1.45,4.45
				c-0.05,2.15,1.18,4.1,2.38,5.89c3.31,4.94,6.77,9.78,10.38,14.51c1.86,2.44,3.76,4.85,5.35,7.47c0.99,1.62,1.85,3.31,2.59,5.05
				c0.95,2.24,2.4,5.17,3.74,7.2c5.54,8.39,10.76,16.99,15.64,25.78c6.94,12.5,13.2,25.36,19.46,38.21
				c0.29,0.59,0.57,1.31,0.21,1.85c-0.07,2.71,0.48,5.06,0.77,7.76c0.17,1.62,0.43,3.28,1.18,4.72c0.58,1.12,1.44,2.06,2.26,3.03
				c4.65,5.5,8.12,11.99,10.1,18.91c1.29-1.81,0.07-4.14-0.91-6.13c-1.31-2.66-2.37-5.43-3.16-8.29c1.18,0.63,1.89,1.86,2.49,3.05
				c3.11,6.09,5.09,12.77,5.79,19.57c1.52-3.82,0.49-8.15-0.96-12c-1.45-3.85-3.32-7.66-3.46-11.76
				c5.55,4.43,9.49,10.81,10.97,17.75c1.36-2.68,0.18-5.89-1.07-8.62C146.41,369.93,145,367.83,142.67,363.73z"/>
			<path class="st24" d="M74.19,240.61c0.84,0.39,1.83,1.04,1.71,1.96c-0.04,0.29-0.2,0.57-0.15,0.86c0.11,0.69,1.23,0.96,1.14,1.65
				c-0.05,0.41-0.55,0.74-0.41,1.13c0.09,0.26,0.42,0.35,0.57,0.57c0.21,0.31,0.01,0.76-0.32,0.95c-0.33,0.19-0.72,0.19-1.1,0.19
				c-3.12,0.05-6.22,0.91-8.93,2.46c-0.25-0.62-0.22-1.35,0.09-1.95c-0.57-0.03-1.14-0.07-1.7-0.1c-0.05-0.59-0.1-1.17-0.15-1.76
				c-0.51,0.34-1.28,0.22-1.66-0.27c-0.38-0.49-0.32-1.26,0.14-1.68c0.23-0.21,0.54-0.33,0.75-0.57c1.01-1.12-1.13-3.23-0.02-4.25
				c0.27,0.37,0.89-0.11,0.85-0.57c-0.04-0.46-0.38-0.84-0.47-1.29c-0.17-0.86,0.84-1.69,1.65-1.36c0.03-1.17,0.07-2.33,0.1-3.5
				c0.34-0.03,0.69-0.07,1.03-0.1c-0.52-0.62-0.82-1.42-0.83-2.23c0-0.19,0.05-0.42,0.23-0.48c0.11-0.03,0.22,0.01,0.32,0.05
				c0.92,0.39,12.6,5.11,7.5,6.65C74.76,237.28,76.34,241.59,74.19,240.61z"/>
			<path class="st25" d="M124.35,260.99c-1.24-0.39-2.46-1.32-2.6-2.61c0.65-0.03,1.29-0.05,1.94-0.08
				c0.33-0.91-0.77-1.61-1.49-2.24c-0.89-0.77-1.39-1.97-1.33-3.15c0.53-0.16,1.1-0.17,1.64-0.04c-1.07-0.8-1.8-2.02-1.99-3.34
				c0.58-0.09,1.18-0.02,1.72,0.22c-0.52-0.75-0.67-1.73-0.41-2.61c3.37,1.89,6.73,3.78,10.1,5.68c-0.15,0.58-1.32,0.28-1.44,0.86
				c-0.09,0.44,0.53,0.62,0.88,0.91c0.56,0.48,0.12,1.61-0.63,1.58c0.43,0.51,0.85,1.1,0.87,1.77c0.02,0.63-0.53,1.12-1.08,1.33
				C134.5,264.24,126.58,261.7,124.35,260.99z"/>
			<g>
				<path class="st26" d="M8.8,164.31c-0.13,0.27-0.26,0.54-0.39,0.81C8.5,164.83,8.64,164.56,8.8,164.31z"/>
				<path class="st26" d="M3.37,162.84c-1.43,1.87-2.34,4.14-2.61,6.48c1.41-2.13,3.23-3.98,5.33-5.44
					c-0.63,1.21-1.16,2.46-1.55,3.77c0.42-0.68,0.87-1.35,1.32-2.01c-0.11,0.51-0.23,1.02-0.34,1.53c0.9-1.64,2.09-3.11,3.5-4.33
					c-0.13,0.17-0.25,0.33-0.38,0.5c0.35-0.36,0.71-0.71,1.07-1.07c0.02-0.02,0.05-0.04,0.07-0.06c-0.33,0.69-0.67,1.39-1,2.08
					c0.82-1.35,2.36-2.22,3.8-2.97c1.52-0.79,3.04-1.58,4.57-2.37c-0.12,0.18-0.25,0.35-0.37,0.53c0.28-0.27,0.57-0.53,0.86-0.78
					c1.57-0.81,3.13-1.63,4.7-2.44c-1.34,1.29-2.61,2.65-3.84,4.04c-1.24,1.07-2.48,2.13-3.72,3.2c0.2,0.18,0.45,0.31,0.7,0.4
					c-0.69,0.89-1.36,1.79-2.01,2.71c0.65,0.02,1.31,0.05,1.96,0.07c-0.26,0.92-0.43,1.86-0.49,2.82c0.04-0.03,0.09-0.06,0.13-0.1
					c-0.32,2.06-0.2,4.2,0.4,6.2c1.47-0.64,2.18-2.21,2.81-3.74c2.78-3.42,6.07-6.41,9.72-8.87c-0.41,0.49-0.79,1-1.12,1.54
					c-0.16,0.19-0.33,0.38-0.51,0.56c0.07-0.01,0.15-0.02,0.22-0.03c-0.3,0.56-0.57,1.13-0.78,1.73c1.37,0,2.74-0.46,3.83-1.28
					c-1.41,1.76-2.62,3.68-3.6,5.71c3.31-1.09,6.79-2.3,9.06-4.94c0.7-0.82,1.28-1.77,2.14-2.43c0.27-0.21,0.57-0.37,0.87-0.52
					c-0.08,0.11-0.17,0.21-0.24,0.32c0.2-0.01,0.27-0.16,0.26-0.33c0.39-0.18,0.8-0.32,1.22-0.44c-1.52,1.11-2.82,2.53-3.77,4.16
					c7.55-4,15.1-8,22.65-12.01c1.9-1,4.03-2.02,6.1-2.06c1.09,0.1,2.15,0.38,3.14,0.89c1.35,0.86,2.45,2.16,3.91,2.84
					c0.32,0.15,0.67,0.23,1.03,0.27c0.57,0.16,1.14,0.17,1.74-0.06c0.41-0.16,0.78-0.42,1.16-0.65c1.47,0.57,2.95,1.13,4.42,1.69
					c1.06,0.4,2.13,0.81,3.19,1.21c1.44,0.78,2.92,1.51,4.41,2.2c1.8,1.13,3.62,2.23,5.52,3.16c4.22,2.07,9.06,3.62,13.55,2.53
					c0.24,0.04,0.47,0.07,0.71,0.11c-0.11,0.19-0.21,0.38-0.32,0.56c-6.87,12.26-13.74,24.51-20.61,36.77
					c-1.6,2.85-3.2,5.71-5.06,8.41c-2.07,3.01-4.46,5.79-6.54,8.79c-2.05,2.94-3.79,6.06-5.44,9.25c-0.74-0.32-1.28-0.55-1.45-0.62
					c-0.1-0.04-0.22-0.09-0.32-0.05c-0.18,0.06-0.23,0.29-0.23,0.48c0,0.81,0.3,1.61,0.83,2.23c-0.34,0.03-0.69,0.07-1.03,0.1
					c-0.02,0.79-0.05,1.58-0.07,2.38c-0.06,0.11-0.11,0.22-0.17,0.33c-0.12,0.24-0.24,0.48-0.36,0.73c-0.67,0.07-1.3,0.73-1.16,1.42
					c0.05,0.27,0.19,0.51,0.31,0.77c-0.1,0.38-0.18,0.76-0.21,1.16c-0.17,0.09-0.35,0.1-0.47-0.06c-0.79,0.72,0.05,1.99,0.26,3.06
					c0.01,0.16,0.03,0.31,0.04,0.47c-0.01,0.26-0.09,0.51-0.28,0.72c-0.21,0.23-0.52,0.35-0.75,0.57c-0.46,0.42-0.52,1.19-0.14,1.68
					c0.38,0.49,1.15,0.61,1.66,0.27c0.05,0.59,0.1,1.17,0.15,1.76c0.4,0.02,0.8,0.05,1.2,0.07c0.1,0.17,0.21,0.35,0.32,0.52
					c-0.12,0.48-0.09,1,0.09,1.46c0.21-0.12,0.43-0.23,0.65-0.35c0.65,0.92,1.34,1.81,2.05,2.67c5.82,7.16,11.37,14.54,16.62,22.12
					c0.88,1.9,1.98,3.99,3.01,5.55c5.54,8.39,10.76,16.99,15.64,25.78c6.94,12.5,13.2,25.36,19.46,38.21
					c0.29,0.59,0.57,1.31,0.21,1.85c-0.07,2.71,0.48,5.06,0.77,7.76c0.14,1.26,0.32,2.54,0.75,3.73c0.01,0.58,0.02,1.16,0.03,1.74
					c-0.47,2.52-0.45,5.13,0.08,7.64c0.03,0.16,0.07,0.32,0.12,0.48c0.01,0.35,0.02,0.71,0.03,1.06c0.01,0.32,0.02,0.66,0.18,0.93
					c0.31,0.53,1.02,0.63,1.64,0.68c2.05,0.16,4.1,0.34,6.14,0.54c1.61,3.13,4.06,6.04,3.69,9.47c0.3,0.01,0.57,0.08,0.82,0.19
					c0.02,0.07,0.04,0.13,0.06,0.2c0.03-0.04,0.05-0.09,0.08-0.13c1.21,0.61,1.91,2.24,2.34,3.65c0.41,1.36,0.83,2.72,1.24,4.08
					c0.16-0.08,0.31-0.18,0.45-0.29c0.04,0.3,0.08,0.59,0.11,0.89c0.19-0.47,0.34-0.95,0.45-1.44c0.41-0.5,0.72-1.1,0.99-1.68
					c0.47-0.99,0.97-2.05,1.91-2.61c0.94-0.56,2.44-0.3,2.74,0.75c0.11-0.15,0.2-0.3,0.28-0.46c0.11,0.08,0.21,0.16,0.31,0.26
					c-0.01-0.28-0.04-0.57-0.06-0.85c0.05-0.16,0.09-0.31,0.13-0.48c1-2.57-0.12-5.56-1.29-8.13c0,0,0-0.01-0.01-0.01
					c-0.2-0.57-0.41-1.14-0.64-1.7c0.84,0.13,1.68,0.24,2.52,0.38c-0.41-0.19-0.84-0.4-1.28-0.62c0.33,0.12,0.66,0.25,0.99,0.37
					c0-0.7,0.17-1.39,0.46-2.03c0.37-0.44,0.87-0.77,1.42-0.92c0.43,0.01,0.86,0.06,1.29,0.15c0.44,0.14,0.89,0.29,1.32,0.46
					c-0.08-0.07-0.16-0.12-0.25-0.19c-0.45-0.91-0.7-1.99-0.32-2.94c0.23-0.59,0.81-1,1.39-1.3c0.27,0.06,0.54,0.13,0.81,0.19
					c-0.13-0.14-0.26-0.26-0.4-0.39c0.09-0.04,0.18-0.08,0.27-0.11c-0.25-0.23-0.54-0.45-0.85-0.66c0.05-0.01,0.1-0.03,0.16-0.04
					c-0.1-0.02-0.21-0.04-0.31-0.06c-0.42-0.27-0.86-0.52-1.3-0.71c-0.5-0.21-1.03-0.33-1.57-0.4c-0.63-0.2-1.28-0.37-1.92-0.51
					c-2.68-0.58-5.43-0.84-8.18-0.77c-0.13-0.19-0.25-0.38-0.36-0.58c-3.08-5.55-6.17-11.1-9.25-16.65
					c-0.04-0.06-0.08-0.13-0.13-0.19c0-0.12,0-0.24-0.01-0.36c0.08,0.22,0.17,0.44,0.23,0.68c-0.08-1.79-0.19-3.57-0.32-5.35
					c-0.18-9.41-0.35-18.81-0.51-28.22c-0.21-12.55-1.43-25.54-1.77-38.09c-0.06-2.32-0.12-4.66,0.37-6.93
					c0.43-1.96,1.27-3.82,1.64-5.8c0.48-2.5,0.19-5.14-0.81-7.48c-0.02-0.06-0.05-0.11-0.08-0.17c0.38-0.09,0.83-0.13,0.92-0.47
					c-0.52-0.29-1.04-0.59-1.57-0.88c-0.3-0.61-0.59-1.23-0.79-1.88c-0.42-1.37-0.44-2.82-0.45-4.25
					c-0.07-8.96-0.14-17.91-0.22-26.87c-0.13-16.49,2.27-33.21,4.78-49.51c0.02-0.1,0.03-0.21,0.05-0.32
					c1.32-1.07,2.22-2.61,3.33-4.07c2.27-2.97,3.88-3.14,7.55-3.19c5.19-0.07,9.2-2.43,13.91-4.3c6.58-2.61,13.53-2.92,20.62-2.56
					c11.59,1.47,23.32,4.1,34.45,0.88c1.22-0.35,2.34-0.74,3.44-1.13c2.4-0.34,4.78-0.85,7.13-1.57c0.77-0.24,1.52-0.54,2.23-0.89
					c0.14,0.12,0.25,0.19,0.25,0.08c2.8-1.6,5.68-3.28,7.63-5.85c0.91-1.19,1.57-2.53,2.1-3.93c0.54-0.81,1.06-1.63,1.55-2.46
					c3.72-6.18,4.39-13.81,3.31-20.94c-0.42-2.79-1.1-5.52-1.92-8.22c-0.57-2.99-1.45-5.9-2.71-8.71c-0.62-1.38-1.31-2.71-2.01-4.05
					c-1.33-3.31-2.67-6.62-4.12-9.88c-0.68-2.08-1.36-4.15-2.22-6.16c-1.81-4.2-4.42-8-6.79-11.92c-2.45-4.86-4.73-9.79-6.41-14.97
					c-2.72-8.41-3.61-17.87-0.97-26.14c1.18-1.31,1.9-3.08,3.39-4.04c1.24-0.8,2.68-0.86,4.15-0.59c2.49,1.08,5.08,1.92,7.73,2.51
					c0.59,0.19,1.19,0.36,1.79,0.53c0.77,0.29,1.54,0.59,2.31,0.87c2.79,1.01,5.81,1.97,8.69,1.24c0.82-0.21,1.67-0.55,2.5-0.68
					c0.51,1.11,1.25,2.07,2.13,2.95c0.16,0.25,0.33,0.49,0.5,0.73c0.75,1.06,1.56,1.98,2.2,2.64c0.3,0.55,0.68,1.02,1.21,1.35
					c0.25,0.16,0.53,0.27,0.82,0.36c1.76,1.42,3.2,3.2,4.25,5.2c0.46,1.7,0.92,3.41,1.38,5.11c0.2,0.07,0.43,0.09,0.66,0.09
					c0.99,2.8,1.88,5.63,2.65,8.5c0.6,2.25,0.71,4.28,1.61,6.43c0.13,0.31,0.28,0.63,0.53,0.85c0.14,0.12,0.28,0.21,0.43,0.25
					c0.02,0.05,0.03,0.1,0.05,0.14c0.11-0.02,0.21-0.07,0.32-0.1c0.38-0.01,0.76-0.19,1.12-0.48c1.28-0.77,2.26-2.1,2.8-3.52
					c0.64-1.67,0.78-3.47,0.89-5.25c1.04-3.92,1.69-7.96,2.23-11.99c0.48-3.59,0.88-7.33-0.27-10.77c-0.46-1.37-1.15-2.63-1.96-3.83
					c-0.16-0.37-0.33-0.74-0.53-1.09c-1.05-1.85-2.67-3.31-4.25-4.73c-5.59-5.01-11.25-10.06-17.45-14.26
					c-5.3-6.66-15.14-9-23.32-6.42c-8.53,2.69-15.13,9.95-18.46,18.24c-3.33,8.29-3.71,17.52-2.68,26.39
					c1.16,9.98,4.04,19.76,8.49,28.78c4.34,8.8,10.15,16.88,13.73,26.01c2,5.11,3.28,10.49,3.78,15.95
					c0.01,0.16,0.03,0.31,0.04,0.47c-0.3,8.33-4.16,16.74-11.03,21.22c-0.25,0.07-0.51,0.12-0.77,0.16
					c-3.93-0.98-7.9-2.34-10.78-5.17c-4.6-4.53-5.26-11.57-7.26-17.7c-1.41-4.31-3.62-8.34-6.44-11.88
					c-0.16-0.4-0.32-0.79-0.48-1.19c-1.36-3.39-4.6-5.58-8.17-7.32c-3.2-2.15-6.77-3.6-10.54-4.57c-4.53-1.48-9.31-2.18-13.98-1.8
					c-1.11-0.04-2.22-0.06-3.32-0.07c-3.09-0.1-6.18-0.07-9.27,0.1c-5.62,0.16-11.24,0.54-16.77,1.55c-14.48,2.63-28.35,9.5-43.06,9
					c0.02,0.32,0.07,0.64,0.13,0.95c-0.15,0-0.29,0.01-0.44,0.01c0.19,0.17,0.37,0.34,0.56,0.51c0.28,1.03,0.79,2,1.48,2.82
					c-1.67,0.7-3.34,1.4-5.01,2.12c-1.57,0.53-3.09,1.24-4.59,2.04c-5.6,2.58-11.03,5.46-15.96,9.07c-0.29,0.19-0.57,0.38-0.85,0.58
					c-1.05,0.38-2.12,0.7-3.21,0.92c-0.77,0.16-1.63,0.32-2.08,0.96c-0.46,0.64,0.05,1.83,0.8,1.6c-0.42,0.07-0.84,0.13-1.26,0.2
					c-0.77,0.09-1.53,0.17-2.3,0.26c-0.28,0.03-0.57,0.08-0.8,0.23c-0.33,0.05-0.66,0.1-0.99,0.16c-0.84,2.06-2.07,3.96-3.58,5.6
					c-7.37,3.95-14.75,7.9-22.12,11.86c-0.1,0.04-0.19,0.08-0.28,0.11c-0.6,0.06-1.2,0.09-1.81,0.08c0.26,0.18,0.53,0.34,0.82,0.49
					c-0.19,0.1-0.39,0.21-0.58,0.31c-0.12,0.03-0.24,0.05-0.37,0.08c0.08,0,0.16-0.01,0.24-0.01c-0.31,0.17-0.62,0.33-0.93,0.5
					c0.8,0.01,1.6,0.02,2.4,0.03c0,0,0,0,0,0c-2.75,1.47-5.3,3.32-7.54,5.48c-1.85,1.48-3.53,3.16-5.02,5
					c1.42-0.95,2.83-1.89,4.25-2.84c-4.4,3.04-8.34,6.75-11.64,10.96c-0.07-0.39-0.15-0.79-0.22-1.18c-1.89,1.29-3.5,2.98-4.7,4.92
					C1.54,163.56,2.62,163.43,3.37,162.84z M84.28,223.39c1.63-3.88,3.26-7.77,5.46-11.35c1.28-2.09,2.75-4.05,4.1-6.1
					c1.81-2.74,3.39-5.63,4.95-8.52c5.86-10.86,11.29-22.19,19.32-31.57c0.15,0.07,0.3,0.15,0.44,0.22
					c-0.11-0.14-0.23-0.27-0.36-0.39c0.04-0.03,0.08-0.06,0.13-0.09c0.43,0.37,0.82,0.79,1.14,1.28c0.21-0.34,0.49-0.64,0.8-0.88
					c0.14-0.01,0.27-0.02,0.4-0.02c0.5,0.41,1,0.89,1.59,1.08c0.53,0.17,1.13,0.11,1.72,0.04c0.5,0.32,1,0.67,1.49,1.03
					c-0.16,0.56-0.19,1.18-0.2,1.76c-0.28,17.59-0.57,35.19-0.85,52.78c-0.22-1.82-0.65-3.59-1.55-4.71c-1.07,2.03-0.7,5.25-0.8,7.5
					c-0.2,4.56-0.12,9.26-0.83,13.77c-0.7,4.46-2.55,8.85-1.99,13.34c0.31,2.45,1.33,4.74,2.11,7.08
					c2.29,6.91,2.48,14.31,2.65,21.59c0.23-1.21,0.46-2.44,0.66-3.67c0.16,2.03,0.27,4.06,0.31,6.09
					c0.12,6.06-0.28,12.17,0.79,18.14c1.96,10.92,1.78,22.04,1.36,33.18c-1.12-2-2.24-3.99-3.36-5.99c-1-1.79-2-3.57-2.99-5.36
					c-1.49-2.67-2.99-5.35-4.48-8.02c-8.64-15.46-17.49-30.59-26.08-46.08c-3.64-6.56-6.92-13.32-9.8-20.24
					c-1.04-2.49-2.04-5.07-2.14-7.77c-0.12-3.45,1.24-6.75,2.57-9.93C81.99,228.85,83.14,226.12,84.28,223.39z M120.49,165.83
					c0.01,0.01,0.02,0.01,0.02,0.02c-0.03,0.01-0.06,0.02-0.09,0.02C120.45,165.86,120.47,165.84,120.49,165.83z"/>
			</g>
		</g>
	</g>
	<g>
		<g>
			<path class="st0" d="M136.75,372.25c1.5,2.14,2.31,4.49,2.37,7.1c0.04,1.93,3.04,1.93,3,0c-0.07-3.11-0.99-6.06-2.77-8.62
				C138.24,369.16,135.64,370.66,136.75,372.25L136.75,372.25z"/>
		</g>
	</g>
	<g>
		<g>
			<path class="st0" d="M140.48,371.23c0.97,1.89,1.87,3.81,2.64,5.79c0.67,1.71,2.09,4.4,1.03,6.18c0.91,0.12,1.83,0.24,2.74,0.36
				c-0.9-3.3-1.21-6.6-1.84-9.95c-0.41-2.16-1.52-3.73-3.85-3.73c-1.23,0-1.75,1.25-1.3,2.26c0.8,1.76,0.6,3.56,2.12,4.97
				c1.92,1.78,3.3,3.14,4.54,5.5c0.78,1.48,3.33,0.46,2.74-1.16c-1.01-2.77-1.91-5.61-3.07-8.32c-0.82-1.9-1.88-3.33-3.88-4.02
				c-1.83-0.63-2.62,2.27-0.8,2.89c1.79,0.62,2.27,3.18,2.85,4.75c0.67,1.83,1.34,3.66,2.01,5.5c0.91-0.39,1.83-0.77,2.74-1.16
				c-1.02-1.93-2.09-3.83-3.81-5.22c-1.01-0.82-1.65-1.52-2.07-2.79c-0.28-0.85-0.42-1.63-0.79-2.46c-0.43,0.75-0.86,1.5-1.3,2.26
				c1.25,0,1.31,4.5,1.46,5.42c0.33,2.05,0.8,4.06,1.34,6.06c0.34,1.25,2.08,1.46,2.74,0.36c1.3-2.18,0.74-4.41-0.06-6.68
				c-1-2.86-2.24-5.63-3.62-8.32C142.19,368,139.6,369.52,140.48,371.23L140.48,371.23z"/>
		</g>
	</g>
	<g>
		<g>
			<path class="st0" d="M144.98,367.16c2.71,0.26,5.42,0.53,8.14,0.79c-0.35-0.85-0.71-1.71-1.06-2.56
				c-0.84,0.96-1.18,2.09-0.74,3.33c0.96-0.27,1.93-0.53,2.89-0.8c-0.43-1.07-1.06-1.76-2.14-2.2c-1.01-0.41-2.53-0.2-3.26-1.08
				c-1.24-1.48-3.35,0.65-2.12,2.12c0.59,0.7,1.35,1.1,2.24,1.32c0.42,0.1,2.19,0.15,2.39,0.64c0.7,1.75,3.56,1.05,2.89-0.8
				c-0.01-0.14-0.02-0.27-0.03-0.41c0.9-1.03,0.25-2.43-1.06-2.56c-2.71-0.26-5.42-0.53-8.14-0.79
				C143.06,363.98,143.07,366.98,144.98,367.16L144.98,367.16z"/>
		</g>
	</g>
	<g>
		<g>
			<path class="st0" d="M145.78,369.86c0.67,0.43,0.99,1.06,1.12,1.83c0.1,0.61,0.84,1.13,1.45,1.1c1.55-0.08,2.83-1.04,3.28-2.54
				c0.19-0.64-0.13-1.36-0.69-1.69c-1.05-0.63-2.29-1.12-3.49-0.57c-1.08,0.51-1.88,1.81-1.4,3c0.31,0.75,1,1.28,1.85,1.05
				c0.71-0.2,1.36-1.09,1.05-1.85c0.07,0.17-0.3,0.52-0.28,0.56c0.07,0.12,0.63,0.32,0.76,0.4c-0.23-0.56-0.46-1.13-0.69-1.69
				c-0.06,0.2-0.21,0.33-0.38,0.34c0.48,0.37,0.96,0.73,1.45,1.1c-0.26-1.52-1.21-2.8-2.5-3.62
				C145.67,366.23,144.16,368.82,145.78,369.86L145.78,369.86z"/>
		</g>
	</g>
</g>
</svg>
