<!-- Generator: Adobe Illustrator 23.0.4, SVG Export Plug-In  -->
<svg version="1.1" xmlns="http://www.w3.org/2000/svg" xmlns:xlink="http://www.w3.org/1999/xlink" x="0px" y="0px"
	 width="276.52px" height="480.41px" viewBox="0 0 276.52 480.41" style="enable-background:new 0 0 276.52 480.41;"
	 xml:space="preserve">
<style type="text/css">
	.st0{fill:#808080;}
	.st1{fill:#808081;}
	.st2{fill:#B5B5B0;}
	.st3{fill:#666666;}
	.st4{fill:#342C3F;fill-opacity:0.28;}
	.st5{fill:#342C3F;}
	.st6{fill:#342C3F;fill-opacity:0.16;}
	.st7{fill:#333333;}
</style>
<defs>
</defs>
<path class="st0" d="M122.1,450.7c0.61-7.21-1.66-14.35-3.43-21.42c-4.57-18.29-5.87-37.16-3.82-55.77
	c-5.28-2.83-11.36-4.59-17.59-5.07c5.16,18.05,7.13,38.13,7.07,56.71c-0.06,16.76-1.75,34.2,5.91,49.66
	c0.52,1.06,1.14,2.15,2.27,2.79c1.1,0.62,2.49,0.69,3.81,0.75c16.79,0.69,33.58,1.39,50.37,2.08c-9.76-2.84-19.52-5.68-29.28-8.52
	c10.06,0.31,20.11,0.62,30.17,0.94c-7.42-4.29-16.76-5.24-25.69-6.06c-6.93-0.64-13.86-1.27-20.79-1.91
	C121.24,459.24,121.63,456.31,122.1,450.7z"/>
<path class="st1" d="M76.67,350.27c-1.84-0.03-3.86,0.45-4.85,1.76c-0.58,0.77-0.73,1.7-0.96,2.59
	c-2.57,9.95-26.52,17.81-18.88,25.68c7.52,7.75,5.6,75.35,18.21,91.92c7.83,10.28,30.48,2.35,44.88,1.42
	c-10.66-2.88-21.55-5.18-32.56-6.87c9.99-0.79,20.12-0.3,29.93,1.47c0.54-3.04-3.43-5.38-7.04-5.66c-3.62-0.28-7.28,0.64-10.87,0.19
	c-9.53-1.2-13.66-10.71-15.69-18.69c-5.1-20.05-8.94-40.32-11.5-60.71c-0.15-1.2-0.29-2.45,0.17-3.59c0.69-1.73,2.59-2.88,4.37-3.91
	C79.26,371.55,98.1,350.68,76.67,350.27z"/>
<path class="st2" d="M276.52,30.35c-13.78-12.64-32.97-20.81-53-22.58c-6.53-0.58-13.16-0.5-19.56-1.72
	c-7.1-1.35-13.72-4.26-20.86-5.46c-12.08-2.03-25.2,1.26-34.12,8.55c-8.92,7.3-13.4,18.41-11.65,28.9
	c2.58,15.49,17.21,27.44,23.13,42.23c3.52,8.8,3.84,18.29,4.11,27.59c0.68,23,1.32,46.35-5.32,68.64
	c-10.66-0.11-21.49,1.66-31.84,3.83c-12.25,2.57-24.31,9.41-36.76,7.7c-22.93-3.14-63.6,38.5-58.84,56.86
	c3.83,14.78-12.16,28.54-21.31,41.48c-3.9,5.52-8.42,10.94-9.93,17.26c-3.69,15.47,11.44,29.24,26.08,38.76
	c17.55,11.42,41.33,21.62,60.56,12.42c0.22,9.4,4.99,20.29,15.63,22.45c11.54,2.35,21.53-6.78,28.67-14.94
	c8.97-10.26,18.23-21.1,20.42-33.8c0.68-3.98,0.7-8.21,3.03-11.7c2.76-4.15,8.14-6.33,12.71-9.04
	c15.39-9.11,22.74-25.14,29.25-40.21c9.88-22.87,19.88-46.27,20.45-70.67c0.23-10.02-1.14-20.02-2.52-29.97
	c-3.86-27.71-7.95-55.83-20.61-81.52c-5.78-11.73-12.85-26.49-2.88-35.9c3.15-2.97,7.52-4.73,11.76-6.41
	c8.83-3.49,17.66-6.99,26.49-10.48c3.91-1.55,7.87-3.11,12.11-3.74c11.73-1.77,23.12,3.7,33.34,8.97
	C275.09,34.62,276.47,33.61,276.52,30.35z"/>
<path class="st3" d="M200.03,20.86c3.69,3.84,8.15,7.14,13.13,9.72c1.11,0.57,2.26,1.12,3.52,1.38c2.24,0.47,4.59-0.01,6.85-0.41
	c16.62-2.97,34.13-2.31,50.37,1.9c-7.23-11.6-22.78-17.29-37.17-22.14c-5.32-1.79-10.76-3.6-16.47-3.83
	c-3.57-0.14-9.88,0.09-12.99,1.95C205.65,10.41,198.81,19.59,200.03,20.86z"/>
<path class="st4" d="M172.82,135.4c2.78,9.57,6.03,19.1,11.05,28c2.12,3.76,4.61,7.46,8.24,10.29c2.2,1.71,4.75,3.05,7.04,4.67
	c7.19,5.11,11.39,13.12,11.05,21.07c0.13-3.11-16.72-12.32-19.69-14.22c-6.79-4.35-15.51-7.63-21.75-12.44
	C158.93,165.19,169.71,144.52,172.82,135.4z"/>
<path class="st5" d="M185.14,15.9c0.23,0.07,2.13,0.7,2.26,1.85c0.13,1.25-1.91,2.54-3.78,2.62c-2.41,0.1-4.79-1.82-4.51-3.08
	C179.41,15.96,182.76,15.11,185.14,15.9z"/>
<path class="st6" d="M98.31,362.86c0.57,3.67,2.54,7.36,6.16,9.44c3.62,2.08,9.03,2.09,12.05-0.59c1.16-1.03,1.89-2.34,2.51-3.66
	c1.18-2.51,2.02-5.14,3.52-7.52c1.5-2.38,3.8-4.56,6.85-5.33c2.34-0.59,4.94-0.32,7.15-1.19c2.35-0.93,3.83-3.02,4.39-5.17
	c0.56-2.15,0.32-4.38,0.09-6.57c-0.05-0.48-0.12-1.01-0.52-1.36c-0.29-0.26-0.72-0.38-1.13-0.47c-3.95-0.88-8.24,0.08-11.64,2
	c-3.4,1.91-5.99,4.7-8.13,7.64c-0.36-3.48-0.71-6.95-1.07-10.43c-0.18-1.76-0.82-3.97-2.88-4.26c-1.36-0.19-2.62,0.63-3.6,1.45
	c-5.3,4.4-5.83,9.32-9.13,14.44C99.98,355.85,97.29,356.26,98.31,362.86z"/>
<path class="st6" d="M31.44,324.38c2.56-0.76,5.46-2.57,4.74-4.79c2.06,0.49,3.76,1.7,5.4,2.86c12.22,8.62,25.13,16.54,38.63,23.67
	c-2.99,3.7-8.38,5.7-13.67,5.76s-10.45-1.64-14.85-4.12c-5.61-3.16-10.33-7.64-16.67-9.57c-2.62-0.8-5.43-1.12-8.01-2
	c-2.81-0.96-9.7-4.77-9.05-7.97C18.67,324.64,27.82,325.47,31.44,324.38z"/>
<path class="st7" d="M211.48,24.75c2.16,3.09,3.39,6.73,6.4,9.25c4.55-1.16,9.1-2.32,13.65-3.48c-4.21,0.4-8.42,0.79-12.64,1.19
	c-0.3,0.03-0.61,0.05-0.88-0.05c-0.48-0.18-0.66-0.65-0.81-1.08c-1.92-5.4-7.41-9.58-13.82-10.92
	C206.92,20.05,209.72,22.23,211.48,24.75z"/>
<path class="st7" d="M217.84,12.66c6.5,0.04,12.98,1.21,18.94,3.41c-6.44-0.15-12.86-1-19.05-2.52"/>
</svg>
