<!-- Generator: Adobe Illustrator 23.0.4, SVG Export Plug-In  -->
<svg version="1.1" xmlns="http://www.w3.org/2000/svg" xmlns:xlink="http://www.w3.org/1999/xlink" x="0px" y="0px"
	 width="370.78px" height="566.43px" viewBox="0 0 370.78 566.43" style="enable-background:new 0 0 370.78 566.43;"
	 xml:space="preserve">
<style type="text/css">
	.st0{fill:#FFB6B6;}
	.st1{fill:#F2A0A0;}
	.st2{fill:#FCC5C5;}
	.st3{opacity:0.8;fill:#F9E4E4;}
	.st4{opacity:0.92;fill:#F97897;fill-opacity:0.64;}
	.st5{opacity:0.92;fill:#F46E8E;fill-opacity:0.64;}
	.st6{fill:#422929;}
	.st7{fill:#FFEB73;stroke:#D8BF56;stroke-width:0.6502;stroke-miterlimit:10;}
	.st8{opacity:0.86;fill:#F9E4E4;}
	.st9{fill:#F9EAEA;}
	.st10{fill:#F46E8E;fill-opacity:0.64;}
</style>
<defs>
</defs>
<path class="st0" d="M50.4,129.92c10.46-26.43,20.92-52.86,31.38-79.29c2.5-6.32,5.1-12.8,9.74-17.77
	c3.72-3.98,8.52-6.75,13.24-9.46c10.52-6.03,21.39-13.01,32.73-17.3c31.06-11.75,66.8-5.55,96.07,10.14s52.95,40,74.27,65.45
	c19.04,22.73,36.8,47.04,47.8,74.57c19.69,49.3,16.19,104.43,11.43,157.3c-3.68,40.85-8.35,83.04-28.85,118.55
	c-9.41,16.29-21.84,30.6-34.2,44.79c-16.05,18.44-32.1,36.87-48.15,55.31c-13.82,15.87-29.59,30.17-50.24,34.2
	c9.45-23.19,18.56-46.52,27.34-69.97c8.67-23.16,17.01-46.44,24.65-69.95c9.36-28.82,17.66-57.99,24.86-87.43
	c4.45-18.18,8.5-36.54,9.95-55.21c2.93-37.72-5.07-76.22-22.78-109.65c-5.92-11.18-13.63-22.42-25.36-27.13
	c-6.21-2.5-13.03-2.93-19.72-3.24c-2.52-0.12-5.1-0.22-7.52,0.5c-3.96,1.18-6.95,4.37-9.78,7.37
	c-18.19,19.28-38.58,36.48-60.64,51.17c-11.51,7.66-24.3,15.64-28.88,28.69c-2.91,8.29-1.99,17.49-4.45,25.93
	c-1.24,4.24-3.3,8.19-4.93,12.3c-13.04,33,3.62,69.65,4.65,105.12c0.24,8.31-0.66,17.32-6.18,23.55
	c-12.24-1.33-21.37-14.42-28.62-24.37c-20.35-27.98-40.71-55.95-61.06-83.93c-5.02-6.9-10.13-13.97-12.68-22.11
	s-2.14-17.72,3.18-24.39c2.42-18.79,4.16-39.12,15.4-54.36c2.56-3.47,5.51-6.64,7.92-10.22c2.61-3.88,4.53-8.17,6.3-12.49
	C42.07,154.94,45.76,141.64,50.4,129.92z"/>
<path class="st1" d="M220.53,98.16c0.21-6.96,2.14-16.78,9.07-16.07c3.39,0.35,5.73,3.45,7.63,6.29
	c10.77,16.16,21.1,32.62,30.48,49.63c23.96,43.46,41.85,91.52,42.41,141.14c0.52,45.56-13.48,89.9-27.43,133.28
	c-11.72,36.44-23.59,73.05-41.29,106.99c-7.87,15.09-16.9,29.64-27.83,42.67c25.15-67.75,48.26-136.26,69.3-205.39
	c3.89-12.78,7.71-25.6,10.34-38.7c10.58-52.68,0.87-109.16-26.69-155.28c-7.44-12.45-18.38-25.38-32.88-25.32
	c-11.86,0.05-21.6,9.51-33.11,9.6C209,130.17,219.91,118.68,220.53,98.16z"/>
<path class="st2" d="M286.68,67.09c14.67,16.61,28.67,33.76,38.99,52.44c26.18,47.38,27.13,101.18,26.81,153.19
	c-0.12,18.86-0.38,37.95-6.13,56.21c-3.97,12.6-10.52,24.7-12.58,37.61c-1.31,8.24-0.76,16.69-3.2,24.75
	c-3.65,12.11-13.75,22.42-17.19,34.56c-2.03,7.16-1.65,14.61-2.7,21.9c-2.22,15.4-11.08,30.1-24.66,40.9
	c-3.29-9.14,0.38-18.87,3.9-27.95c6.88-17.75,13.3-35.62,19.23-53.59c11.62-35.17,21.43-70.78,27.68-106.86
	c5.37-30.97,8.11-62.28,7.12-93.55c-0.47-15.09-1.85-30.3-7.13-44.76c-4.39-12.01-11.39-23.25-18.36-34.41
	c-10.9-17.46-21.8-34.94-33.89-51.87c-8.45-11.83-31.76-30.69-31.96-44.38C265.49,41.41,276.13,55.15,286.68,67.09z"/>
<path class="st2" d="M228.76,32.98c1.79-0.01,4.18,0.51,4.26,2.3c0.06,1.36-1.36,2.26-2.6,2.85c-4.12,1.98-8.24,3.96-12.36,5.94
	c7.69-1.43,16.02,1.14,21.57,6.66c-5.19,0.09-10.37,0.17-15.56,0.26c4.69,1.14,9.15,3.19,13.07,6c0.52,0.37,1.05,0.78,1.28,1.37
	c0.92,2.26-2.76,3.42-5.16,2.95c-7.54-1.46-14.73-4.75-20.77-9.5c1.08-0.87,2.15-1.74,3.23-2.61c-2.35-1.45-4.97-2.45-7.69-2.95
	c3.78-0.32,6.64-4.65,5.46-8.26c-0.64-1.93-3-3.65-4.59-4.55C215.33,32.47,222.21,33.01,228.76,32.98z"/>
<path class="st2" d="M288.02,437.69c-3.35,2.59-5.48,6.71-5.65,10.95c6.66-3.05,12.17-8.54,15.25-15.19
	c-1.16,7.03-2.32,14.07-3.48,21.1c4.64-7.59,8.43-15.71,11.27-24.14c0.09,8.7,0.19,17.4,0.28,26.1c9.54-3.72,16.82-12.7,18.5-22.8
	c-3.7,1.52-5.55,5.58-8.26,8.53s-8.23,4.46-10.26,1.01c-0.87-1.48-0.7-3.33-0.49-5.04c0.66-5.62,1.32-11.23,1.99-16.85
	c-2.29,5.75-7.22,10.37-13.1,12.29c-1.61-2.97-0.82-7.03,1.79-9.18c-2.57,6.95-7.85,12.85-14.48,16.16"/>
<path class="st2" d="M281.37,389.38c-2.52,1.95-4.11,5.04-4.24,8.21c5-2.29,9.14-6.41,11.44-11.4c-0.87,5.28-1.74,10.56-2.61,15.84
	c3.48-5.7,6.33-11.79,8.46-18.12c0.07,6.53,0.14,13.06,0.21,19.59c7.16-2.79,12.63-9.53,13.88-17.11c-2.78,1.14-4.16,4.19-6.2,6.4
	c-2.03,2.21-6.18,3.35-7.7,0.75c-0.65-1.11-0.52-2.5-0.37-3.78c0.5-4.22,0.99-8.43,1.49-12.65c-1.72,4.31-5.42,7.79-9.83,9.22
	c-1.21-2.23-0.61-5.28,1.34-6.89c-1.93,5.21-5.89,9.64-10.87,12.13"/>
<path class="st3" d="M109,224.59c6.74-14.11,14.99-27.82,17.97-43.17c4.66-24.06-3.84-50.9,7.94-72.39
	c2.63-4.8,6.22-9.15,7.96-14.34c1.74-5.2,1.03-11.83-3.53-14.87c-2.27-1.51-5.09-1.88-7.8-2.21c-10.69-1.3-23.45-1.79-30.07,6.7
	c-2.41,3.1-3.57,6.97-5.5,10.39c-7.17,12.76-23.42,17.36-33.09,28.35c-4.85,5.51-7.82,12.38-10.71,19.13
	c-13.21,30.82-26.43,61.65-39.64,92.47c-1.39,3.24-2.81,6.61-2.7,10.14c0.29,10.07,12.22,15.56,22.28,15.87s20.76-2,29.82,2.41
	c4.77,2.33,8.5,6.29,12.62,9.64c9.87,8.02,21.48,7.3,24.78-5.53C103.11,252.53,102,239.24,109,224.59z"/>
<path class="st4" d="M13.98,218.73c0.83-3.84,1.73-7.76,3.8-11.1c1.98-3.21,4.91-5.7,7.47-8.47c13.63-14.77,16.2-36.87,28.28-52.93
	c2.02-2.68,5-5.42,8.27-4.67c1.17,0.27,2.19,0.97,3.14,1.71c18.68,14.63,15,44.31,27.68,64.36c6.01,9.51,15.87,17.17,17.84,28.24
	c1.21,6.81-0.85,13.73-2.96,20.32c-2.89,9.03-5.89,18.02-9.02,26.98c-1.01,2.89-2.27,6.05-5.02,7.39c-3.68,1.8-7.93-0.54-11.45-2.64
	c-10.32-6.17-21.49-10.93-33.1-14.1c-8.61-2.35-17.54-3.86-25.54-7.81C1.98,255.45,9.89,237.74,13.98,218.73z"/>
<path class="st5" d="M22.85,212.39c7.57-13.27,16.91-25.59,22.84-39.66c1.23-2.92,2.5-6.13,5.25-7.7
	c4.41-2.53,10.06,0.62,13.13,4.67c9.13,12.02,5.65,29.79,13.07,42.94c4.45,7.89,12.43,13.34,16.77,21.3
	c7.88,14.46,1.68,32.27-4.89,47.37c-1.07,2.46-2.37,5.13-4.86,6.12c-4.35,1.73-8.43-2.66-11.91-5.81
	c-8.56-7.75-20.78-9.46-32.08-11.83c-10.33-2.16-25.98-6.6-29.13-18.12C7.76,239.67,17.18,222.33,22.85,212.39z"/>
<path class="st6" d="M1.39,252.21c-4.76,14.47,3.59,29.67,12.09,42.43c22.15,33.24,47.48,64.49,75.55,93.23
	c5.22,5.35,11.19,10.93,18.76,11.68c2.93-9.87,4.71-20.54,4.73-30.81c0.01-8.64-2.06-17.14-3.61-25.66
	c-2.31-12.63-3.49-25.44-3.54-38.26c-0.03-7.64,0.26-15.65-3.27-22.48c-6.07-11.74-21.06-15.95-34.51-17.69S39.46,262,29.28,253.33
	c-7.15-6.09-13.85-16.36-23.03-13.89C4.6,243.75,2.83,247.84,1.39,252.21z"/>
<path class="st7" d="M109.75,105.87c-1.34-3.38-0.35-7.34,2.49-9.99c2.84-2.66,7.44-3.91,11.61-3.17c0.87,0.15,1.75,0.41,2.35,0.95
	c0.44,0.4,0.69,0.93,0.87,1.46c1.26,3.63-0.24,7.83-3.68,10.29s-8.62,3.07-12.73,1.48"/>
<path class="st6" d="M117.52,99.56c0.52,0.88,1.78,1.23,2.67,0.74c0.9-0.49,1.28-1.74,0.82-2.65c-1.45-0.56-3.05-0.72-4.58-0.45
	c-0.02,1.28-0.05,2.55-0.07,3.83"/>
<path class="st8" d="M122.46,114.42c3.7-4.14,5.42-9.66,6.7-15.07c0.96-4.08,1.54-8.92-1.35-11.95c-1.67-1.76-4.15-2.47-6.54-2.87
	c-4.05-0.68-8.22-0.66-12.27,0.04c-2.76,0.48-5.56,1.33-7.64,3.19c-6.01,5.35-3.17,15.25-5.67,22.9c-0.2,0.62-0.48,1.27-1.03,1.61
	c-1.53,0.95-3.15-1.17-3.55-2.93c-1.89-8.41,1.79-17.49,8.18-23.28c6.38-5.79,15.09-8.57,23.7-9.04c6.71-0.37,14.05,0.86,18.63,5.78
	c3.74,4.03,4.95,9.8,5.18,15.29c0.2,4.87-0.28,9.93-2.59,14.22c-3.26,6.05-9.87,9.83-16.68,10.81c-5.77,0.83-12.53,0.23-17.34-2.81
	C114.57,119.43,119.27,118,122.46,114.42z"/>
<path class="st2" d="M345.15,395.69c2.1,4.67,3.37,9.72,3.73,14.83c-1.58,2.32-5.17,2.45-7.53,0.94s-3.7-4.18-4.65-6.81
	c-0.99,2.61-1.98,5.23-2.96,7.84c-0.74,1.96-2.99,4.3-4.42,2.76c-0.53-0.57-0.59-1.48-1.18-1.98c-0.76-0.66-1.94-0.29-2.85,0.15
	c-2.98,1.41-5.81,3.14-8.44,5.15c-1.76-4.75-2-10.04-0.69-14.92c-0.28,4.45,4.07,8.59,8.5,8.09c0.32-4.01,1.12-7.97,2.39-11.79
	c0.72,1.77,1.43,3.53,2.15,5.3c2.12-2.88,3.57-6.25,4.21-9.77c2.07,2.58,2.22,7.22,5.47,7.83c2.21,0.41,4.22-1.76,4.49-3.98
	s-0.65-4.41-1.57-6.46"/>
<path class="st5" d="M112.35,82.03c-2.73-0.74-1.35-3.31,1.95-5.61s8.06-4.36,12.72-6.25c-3.63,0.93-7.25,1.86-10.88,2.79
	c2.14-2.35,6.17-4.91,10.96-6.95c-2.13,0.66-4.25,1.32-6.38,1.98c0.05-1.63,0.09-3.27,0.14-4.9c-4.96,3.84-10.18,7.68-15.63,11.5
	c-0.06-1.2-0.13-2.4-0.19-3.59C98,75.24,93.9,79.9,94.24,83.26c3.15-1.5,6.11-3.09,8.79-4.72c0.82,2.22,1.65,4.45,2.47,6.67
	c0.05-1.07,1.75-2.58,4.26-3.79c1.4,0.91,2.81,1.82,4.21,2.74"/>
<path class="st5" d="M93.68,67.4c-0.04-1.07-0.08-2.13-0.11-3.2c-2.45-0.2-4.73,1.53-5.93,3.68c-1.19,2.15-1.52,4.66-1.83,7.1
	c-0.71-2.85-1.42-5.69-2.13-8.54c-2.36-1.03-5.15,1.01-5.87,3.48c-0.73,2.47-0.02,5.11,0.69,7.59c-1.73-0.76,0.5-3.65,2.18-2.78
	c1.68,0.87,1.93,3.13,1.97,5.02c0.4-2.57,0.83-5.22,2.26-7.39s4.16-3.7,6.64-2.92c0.04,1.18,0.08,2.36,0.12,3.54
	c0-2.18,0-4.36,0-6.55"/>
<path class="st9" d="M112.43,114.75c4.43,1.82,8.86,3.64,13.29,5.45c-1.27-2.33-3.11-4.35-5.3-5.84c6.4,3.26,13.82,4.49,20.93,3.48
	c-4.73-1.81-9.45-3.62-14.18-5.42c6.23-0.11,12.45-0.23,18.68-0.34c-3.72-3.48-9.06-5.16-14.11-4.44c3.88,0.85,8.21-1,10.28-4.38
	c0.43-0.7,0.77-1.56,0.46-2.32c-0.41-0.99-1.67-1.25-2.74-1.33c-4.34-0.31-8.73,0.17-12.9,1.4c1.45,0.7,3.43-0.34,3.67-1.93
	c-0.08,3.86-0.77,8.62-4.4,9.94c-1.67,0.61-4.35,1.75-3.19,3.1c-4.74-0.21-9.54,1.58-12.99,4.84"/>
<path class="st1" d="M263.8,480.21c-1.2,5.65-1.5,11.48-0.89,17.22c2.78,0.69,5.73-0.75,7.63-2.89s2.95-4.88,3.97-7.55
	c-0.33,3.43-0.66,6.87-0.98,10.3c3.09,0.91,6.48-0.38,8.9-2.51s4.03-4.99,5.61-7.79c-5.13,7.66-10.35,15.26-15.66,22.79
	c-0.76,1.08-1.64,2.24-2.93,2.55c-1.84,0.44-3.67-1.17-4.17-3c-0.49-1.83-0.02-3.77,0.45-5.61c-2.4,4.69-6.58,8.44-11.5,10.34
	c-1.16-4.23-0.13-9,2.66-12.39c-4.25,2.41-8.65,4.56-13.16,6.45c-0.13,0.05-0.89-13.57,3.6-16.33c2.28-1.4,6.51,0.59,9.47-1.05
	C260.24,488.81,262.79,483.81,263.8,480.21z"/>
<path class="st1" d="M230.38,518.97c0.09,0.85,0.18,1.7,0.28,2.54c4.36,1.93,10.12-0.64,11.6-5.17c0.02,4.48,0.04,8.95,0.05,13.43
	c2.81-1.05,5.2-3.18,6.55-5.85c-1.26,5.02-3.76,9.73-7.22,13.58c-0.83,0.93-1.8,1.85-3.03,2.08c-2.06,0.38-4.01-1.43-4.54-3.46
	s-0.02-4.16,0.48-6.19c-2.42,1.16-5.1,1.75-7.78,1.71c-0.87-2.99-0.29-6.37,1.52-8.91"/>
<path class="st6" d="M77.51,260.34c5.06-11.11,11.81-21.37,17.23-32.31c5.02-10.15,8.88-20.87,11.47-31.89
	c0.3,7.29-3.02,14.18-6.13,20.78c-5.48,11.62-10.56,23.44-15.22,35.41c-4.56,11.71-7.53,24.66-12.8,35.97
	C66.89,282.64,74.86,266.15,77.51,260.34z"/>
<path class="st10" d="M61.68,206.95c3.05-4.04,5.26-8.29,7.12-12.59c2.79-6.43,4.81-12.99,6.05-19.59c2.66,2.86,3.93,6.18,3.62,9.45
	c-1.02-0.38-2.31-0.47-3.45-0.26c-0.04,5.7-3.12,11.22-6.17,16.63c-2.58,4.57-5.22,9.22-9.91,13.14c-3.42,2.86-8.03,5.43-8.67,9.11
	C54.85,218.21,57.88,211.99,61.68,206.95z"/>
</svg>
