<!-- Generator: Adobe Illustrator 23.0.4, SVG Export Plug-In  -->
<svg version="1.1" xmlns="http://www.w3.org/2000/svg" xmlns:xlink="http://www.w3.org/1999/xlink" x="0px" y="0px" width="777.4px"
	 height="800.51px" viewBox="0 0 777.4 800.51" style="enable-background:new 0 0 777.4 800.51;" xml:space="preserve">
<style type="text/css">
	.st0{fill:#EAA0BE;}
	.st1{fill:#EADCD6;}
	.st2{fill:#EA5C7E;}
	.st3{fill:#E6F2E2;stroke:#603813;stroke-width:0.5;stroke-miterlimit:10;}
	.st4{fill:#0C0A0A;}
	.st5{fill:#A3806F;}
	.st6{fill:#D3BCB4;fill-opacity:0.83;}
	.st7{fill:#8C6C61;}
</style>
<defs>
</defs>
<polyline class="st0" points="265.93,250.99 277.93,333.99 264.92,598.95 283.49,593.88 291.93,321.99 296.93,296.99 274.93,237.99 
	"/>
<polygon class="st0" points="378.02,409.89 437.1,573.63 445.22,568.48 389.93,406.99 "/>
<g>
	<path class="st1" d="M600.93,282.99l-42-62c-8.09-76.3-0.5-154.04-198-213c-11.55-13.92-25.3-8.2-40,6
		c-33.21-11.02-65.75,0.19-98,21c-61.85,37.22-99.39,92.04-116,162c-12.42,38.78-10.58,76.02,12,111c-8.65,18.26-12.3,36.26-11,54
		c43.77,41.51,68.54,49.09,84,40c3.61-11.31-0.85-21.14-27-27c9.46-35.49,15.24-90.62,11-199c27.3,74.88,56.04,120.17,89,78
		c9.12,20.78,22.89,17.42,39,2c7.42,71.73,26.49,126.87,61,160c26.36,12.83,53.04,14.91,80,8c22.09-17.11,37.25-36.6,44-59
		c0,0-4.78-38.98-4-52c4.41-73.75,43-107,73-13c4.64,14.54-3.71,45.84-2,61c1.96,17.3,25,65,25,65c9.47-29.16,27.03-36.68,54-19
		l4-65L600.93,282.99z M413.93,372.99c-43.48-10.11-48.85-60.64-28-139c0,0,12.72,24.88,21,26c24.68,3.35,81-58,81-58
		c-20.34,13.99-55.18,54.74-47.08,94.53C450.5,343.91,443.33,387.06,413.93,372.99z"/>
</g>
<path class="st0" d="M600.93,387.99l-24,28c17.82,22.38,22.53,45.26,5,69l13,9c10.8,1.85,20.83,0.63,29-8l16-18
	c2.19-16.81,0.29-33.19-7-49l3-15L600.93,387.99z"/>
<path class="st0" d="M128.15,351.16c-2.49,6.52-5.7,14.27-12.58,15.45c-6-7.13-6.85-17.42-4.94-26.54s6.18-17.54,9.51-26.24
	c1.31-3.42,2.49-7,2.35-10.66c-0.17-4.44-2.27-8.55-4.22-12.54c-6.16-12.53-11.5-25.77-12.5-39.7c-1-13.93,2.87-28.75,12.91-38.45
	c-4.92-2.05-10.4-4.7-11.93-9.81c-1.8-6.03,3.34-12.35,9.36-14.18c6.02-1.83,12.49-0.42,18.61,1c-0.78,11.29-1.46,23.11,3.17,33.42
	c1.39,3.1,3.26,6.04,4.03,9.35c1.7,7.31-2.15,15.4,0.82,22.3c0.96,2.22,2.55,4.11,3.53,6.32c4.3,9.75-4.77,20.98-2.32,31.35
	c0.26,1.11,0.7,2.25,1.59,2.96c0.97,0.78,2.29,0.91,3.52,1c6.97,0.51,14.23-0.21,20.02-4.43
	C151.9,309.68,137.14,327.59,128.15,351.16z"/>
<path class="st0" d="M526.37,199.09c10.22,6.61,20.59,12.99,31.1,19.14c0.04-12.55,0.08-25.1,0.11-37.65
	c0.01-4.52,0.02-9.09-1.05-13.48c-2-8.21-7.66-15.16-14.38-20.3c-3.02-2.31-14.72-11.53-18.76-10.26
	c-5.53,1.74-0.32,11.91,0.81,16.81c1.78,7.71,3.39,15.5,3.91,23.41C528.27,178.96,526.38,199.1,526.37,199.09z"/>
<path class="st2" d="M175.34,173.15c2.4,15.98-1.62,32.16-5.88,47.75c-1.78,6.52-3.63,13.16-3.29,19.91
	c0.54,10.68,6.53,20.86,5.27,31.48c-1.28,10.83-9.88,19.41-19.18,25.11c-1.32,0.81-2.72,1.6-4.27,1.78
	c-3.23,0.37-6.24-2.12-7.55-5.09s-1.3-6.34-1.27-9.59c0.1-10.82,0.21-21.63,0.31-32.45c0.06-6.12,0.02-12.61-3.18-17.83
	c-1.46-2.38-3.54-4.4-4.61-6.99c-1.07-2.57-1.04-5.45-0.97-8.24c0.19-7.72-0.27-16.15,1.06-23.76c1.35-7.68,1.25-6.95,8.42-7.91
	C153.85,185.47,165.29,183.82,175.34,173.15z"/>
<path class="st2" d="M504.75,130.58c-1.57-0.43-3.39-0.76-4.7,0.21c-0.65,0.47-1.06,1.19-1.44,1.9c-3.11,5.69-5.69,12.3-3.94,18.55
	c0.83,2.97,2.58,5.59,3.94,8.36c5.83,11.89,4.3,25.9,2.64,39.03c9.17-2.31,18.85-2.62,28.15-0.92c0.53-12.42,0.42-24.87-0.33-37.28
	C527.97,142.13,522.44,135.43,504.75,130.58z"/>
<ellipse transform="matrix(0.9642 -0.265 0.265 0.9642 -78.3474 173.2543)" class="st3" cx="602.93" cy="376.99" rx="5" ry="7"/>
<circle cx="602.93" cy="376.99" r="2"/>
<path class="st4" d="M624.81,460.08c-1.04,13.08-8.84,24.52-16.38,35.26c5.32-2.88,10.64-5.76,15.96-8.64
	c-6.65,5.21-11.45,12.38-17.34,18.44c-5.89,6.06-13.68,11.25-22.11,10.62c-1.13-0.08-2.34-0.32-3.09-1.16
	c-1.16-1.29-0.68-3.45,0.53-4.69c1.21-1.25,2.91-1.84,4.51-2.51c7.67-3.22,14.15-9.18,17.98-16.56
	c-12.5,0.91-18.85,18.83-31.38,18.93c0.08-8.61,2.49-17.18,6.91-24.57c9.07,1.1,19.79,1.6,25.66-5.4c2.15-2.56,3.29-5.8,4.3-8.99
	c6.18-19.49,6.51-36.3-1.33-55.11C618.55,427.32,626.03,444.74,624.81,460.08z"/>
<path class="st4" d="M144.23,325.71c-5.53,5.3-12.76,8.66-17.92,14.32c-8.05,8.82-9.61,22.92-3.7,33.29
	c4.12,7.23,11.14,12.26,17.94,17.05c8.71,6.14,17.43,12.29,26.78,17.4c7.47,4.08,17.77,7.1,23.67,0.95
	c5.55-5.78,2.67-15.82-3.05-21.43c-5.73-5.61-13.51-8.59-19.81-13.55c-1.73-1.37-3.4-2.95-4.23-5c-1.54-3.84,0.22-8.11,1.71-11.97
	c3.37-8.74,13.05-42.29,4.63-50.17C161.57,298.5,150.3,319.89,144.23,325.71z"/>
<path class="st5" d="M771.35,749.58L670.72,618.33c-1.19-1.55-2.53-2.98-4.01-4.26l-28.75-24.97c-4.57-3.97-10.26-6.41-16.29-6.99
	l-156.08-14.95c-1.1-0.11-2.21-0.15-3.32-0.13l-102.28,1.91c-2.03,0.04-4.06,0.29-6.04,0.75l-162.56,37.81
	c-4.25,0.99-8.22,2.92-11.62,5.65L10.92,748.78c-21.46,17.24-9.16,51.89,18.37,51.73l719.15-4.18
	C772.46,796.19,785.96,768.64,771.35,749.58z"/>
<path class="st6" d="M549.76,645.88c-14.74,6.07-31.24,5.63-47.17,5.1c-50.25-1.68-100.5-3.36-150.75-5.04
	c-5.25-0.18-10.76-0.3-15.46,2.07c-4.69,2.37-8.12,8.12-6.07,12.96c1.98,4.68,7.69,6.26,12.67,7.28
	c46.57,9.49,93.94,19.04,141.27,14.7c30.91-2.83,60.86-11.57,89.95-22.08c15.33-5.54,66.67-17.01,71.16-36.19
	c4.14-17.7-21.88-25.65-35.22-22.57C586.56,607.57,572.44,636.54,549.76,645.88z"/>
<path class="st7" d="M565.6,604.95c-74.91,2.33-149.93,0.76-224.67-4.72c-22.51-1.65-47.29-3.04-65.34,10.52
	c-6.52,4.89-12.01,13.29-8.97,20.86c2.51,6.26,9.67,9.1,16.21,10.76c33.55,8.54,68.85,3.56,103.47,4.32
	c55.58,1.22,113.05,17.1,165.5-1.32c9.7-3.4,20.35-9.83,20.92-20.1c0.42-7.59-5.31-14.44-12.16-17.73
	c-6.85-3.29-14.67-3.76-22.26-4.18"/>
</svg>
