<!-- Generator: Adobe Illustrator 23.0.4, SVG Export Plug-In  -->
<svg version="1.1" xmlns="http://www.w3.org/2000/svg" xmlns:xlink="http://www.w3.org/1999/xlink" x="0px" y="0px" width="86.51px"
	 height="118.99px" viewBox="0 0 86.51 118.99" style="enable-background:new 0 0 86.51 118.99;" xml:space="preserve">
<style type="text/css">
	.st0{fill:#F7D0CB;}
	.st1{fill:#FCE8E6;}
	.st2{opacity:0.8;fill:#EF8C84;}
	.st3{opacity:0.8;fill:#F77F79;}
	.st4{fill:#352C2C;}
	.st5{fill:#FCD9D6;}
	.st6{fill:#FCF5F5;}
	.st7{fill:#F9F4F4;}
	.st8{fill:none;}
	.st9{fill:#E5C6B7;}
	.st10{opacity:0.5;fill:#996633;}
	.st11{fill:#F4E08C;}
</style>
<defs>
</defs>
<g>
	<path class="st0" d="M69.45,3.74c-0.36-1.13-0.63-2.27-0.72-3.41c-9-0.55-18.5-0.51-27.46,0.74c-0.08,0.98-0.23,1.95-0.41,2.92
		c-0.12,4.06-0.37,8.15-0.42,12.21c4.45,0.7,9.31,0.24,13.54,0.1c5.34-0.18,11-0.43,16.12-2.19c-0.17-2.03-0.28-4.05-0.35-6.07
		C69.63,6.62,69.54,5.18,69.45,3.74z"/>
	<path class="st0" d="M84.42,42.8c-1.33-3.44-3.18-6.67-5.46-9.53c-1.63-2.05-3.47-3.91-5.25-5.81c-0.63-0.36-1.19-0.86-1.62-1.54
		c-0.14-0.23-0.26-0.46-0.38-0.69c-0.05-0.06-0.1-0.11-0.15-0.17c-0.01-0.06-0.02-0.11-0.03-0.17c-0.11-0.24-0.2-0.48-0.29-0.72
		c-5.58,1.53-11.48,1.95-17.25,2.14c-4.31,0.14-8.69,0.29-12.97-0.15c0.63,4.12,1.58,8.23,1.35,12.34c0.09,0.82,0.15,1.65,0.12,2.47
		c-0.1,2.41-0.83,4.74-1.46,7.06c-2.76,10.08-3.73,20.68-2.87,31.11c0.09,1.08,0.19,2.21-0.21,3.21c-0.41,1.02-1.28,1.75-2.06,2.52
		c-3.84,3.77-5.91,9.15-9.74,12.94c-5.21,5.15-12.78,6.59-19.25,9.86c-2.55,1.29-5.32,3.93-4.23,6.64c0.94,2.32,3.95,2.62,6.38,2.56
		c7.5-0.19,15-0.38,22.5-0.57c4.77-0.12,9.71-0.28,14.03-2.37c5.86-2.84,9.68-8.78,12.66-14.72c2.98-5.93,5.06-12.77,10.08-16.99
		c4.35-3.66,8.64-7.47,12.04-12.08s5.88-10.11,6.15-15.9C86.67,50.34,85.83,46.43,84.42,42.8z"/>
	<path class="st1" d="M36.82,83.83c1.81-2.68,3.86-5.53,6.95-6.48c2.33-0.72,4.97-0.23,7.18-1.27c4.92-2.31,4.71-10.45,9.68-12.64
		c2.56-1.13,5.91,0.07,7.17,2.57c2.49,4.95-3.1,11.15-0.79,16.18c-4.42,8.55-9.4,16.8-14.91,24.69c-2.42,3.46-5.25,7.08-9.34,8.17
		c-3.24,0.86-6.66-0.05-9.89-0.96c-3.19-0.9-6.5-1.85-9.02-4.01c-1.6-1.38-3.63-4.29-3.13-6.59c0.62-2.85,2.23-1.61,4.3-2.93
		c2.44-1.55,4.2-5.51,5.76-7.82C32.8,89.76,34.81,86.8,36.82,83.83z"/>
	<path class="st1" d="M45.12,79.35c1.4-0.56,2.91-0.85,4.33-1.35c3.9-1.36,7.2-4.35,8.93-8.1c0.65-1.41,1.1-2.94,2.04-4.17
		c0.94-1.23,2.58-2.13,4.04-1.61c1.33,0.47,2.04,1.89,2.61,3.18c0.44,1,0.89,2.09,0.64,3.15c-0.51,2.13-3.45,2.82-4.26,4.86
		c-0.96,2.42,1.55,4.66,3.48,6.41c0.38,0.35,0.78,0.77,0.79,1.28c0.01,0.34-0.15,0.65-0.31,0.95c-4.53,8.57-9.64,16.83-15.28,24.7
		c-2.29,3.2-5.2,6.63-9.14,6.8c-0.51-1.1-1.01-2.19-1.52-3.29c1.47-1.92,2.93-3.83,4.4-5.75c-2.8,1.66-5.64,3.22-8.54,4.7
		c-2.63,1.34-6.07,2.52-8.3,0.58c0.62-0.59,1.23-1.18,1.85-1.77c-2.33-0.58-4.5-1.77-6.25-3.42c-0.08-0.81-0.17-1.62-0.25-2.43
		c-0.08-0.79-3.03-0.88-1.83-3.19c0.62-1.18,2.36-1.04,3.44-1.54c2.78-1.3,4.83-3.75,6.61-6.16C36.25,88.26,39.09,81.77,45.12,79.35
		z"/>
	<path class="st2" d="M29.55,96.32c0.93-1.33,1.78-2.94,3.34-3.39c0.48-0.14,1-0.15,1.45-0.37c0.75-0.36,1.14-1.17,1.67-1.81
		c1.06-1.28,2.71-1.88,4.27-2.43c1.79-0.62,3.59-1.25,5.38-1.87c1.14-0.39,2.27-0.79,3.41-1.18c0.6,2.93-0.13,5.95-0.87,8.85
		c-0.31,1.21-0.61,2.41-1.06,3.57c-0.75,1.94-1.88,3.71-3,5.47c-0.82,1.29-1.64,2.57-2.47,3.86c-1.39,2.17-2.93,4.48-5.33,5.43
		c-2.73,1.08-6.18-0.11-7.65-2.66c-0.42-0.06-0.84-0.11-1.25-0.17c-0.14-1.25-0.27-2.5-0.41-3.75c-1.05-0.03-2.09-0.05-3.14-0.08
		c-0.16-0.55-0.07-1.17,0.23-1.66c-0.45,0.05-0.89,0-1.31-0.15C23.05,100.28,27.57,99.16,29.55,96.32z"/>
	<path class="st3" d="M33.98,94.25c-0.55,1.83-1.93,3.4-3.68,4.17c1.44-0.37,2.8-1.07,3.93-2.03c-0.45,1.18-0.9,2.35-1.35,3.53
		c1.4,0.08,2.3-1.4,3.02-2.61c1.27-2.14,2.97-4.03,4.97-5.52c-1.23,1.75-2.45,3.5-3.68,5.25c-1.9,2.7-4.01,5.57-7.15,6.59
		c1.46,0.47,3.13,0.23,4.4-0.63c0.32,0.66-0.81,1.18-0.84,1.91c-0.02,0.39,0.29,0.71,0.47,1.06c0.19,0.34,0.18,0.9-0.2,1
		c1.74,0.17,3.52-0.22,5.03-1.09c-0.45,1.22-1.09,2.36-1.88,3.39c1.09,0.21,2.25,0.06,3.24-0.44c-0.92,1.37-2.15,2.63-3.73,3.1
		s-3.56-0.13-4.22-1.64c-0.29-0.67-0.36-1.51-0.97-1.91c-0.71-0.47-1.68-0.01-2.5-0.2c-2.34-0.55-3.58-4.39-2.68-6.22
		C27.44,99.34,31.9,96.39,33.98,94.25z"/>
	<path class="st3" d="M41.77,113.22c1.64-1.3,3.2-2.69,4.67-4.16c0.05,0.66,0.1,1.32,0.15,1.98c0.43-0.13,0.86-0.25,1.29-0.38
		c-0.66,2.14-2.14,4.03-4.06,5.18c-0.37,0.22-0.81,0.42-1.21,0.27c-0.37-0.14-0.57-0.53-0.74-0.89c-0.39-0.83-0.78-1.65-1.17-2.48"
		/>
	<path class="st4" d="M56.36,91.4c0.14,3.62-3.56,6.44-3.72,10.06c1.75-2.75,2.86-5.91,3.22-9.15"/>
	<path class="st4" d="M22.61,100.71c1.36,0.71,0.88,3.39,2.4,3.63c0.39,0.06,0.8-0.08,1.17,0.06c1,0.38,0.35,2.04,1.06,2.83
		c0.63,0.7,1.89,0.27,2.7,0.76c0.88,0.54,0.78,1.85,0.32,2.75c-0.17,0.33-0.38,0.72-0.23,1.06c0.14,0.29,0.49,0.41,0.81,0.49
		c4.64,1.06,9.36-1.83,12.34-5.48c2.46-3.01,3.89-6.78,5.18-10.42c0.46-1.31,0.87-2.64,1.04-4.02c0.1-0.8,0.11-1.63,0.34-2.41
		c0.27-0.94,0.84-1.77,1.28-2.65c1.06-2.1,1.42-4.53,1.01-6.83c0.6,2.32,1.11,4.78,0.56,7.11c-0.26,1.1-0.76,2.13-1.05,3.23
		c-0.5,1.94-0.3,3.98-0.53,5.97c-0.78,6.63-6.18,11.69-11.25,16.14c1.36,1.15,3.4,1.46,5.05,0.77c-0.11,0.84,0.4,1.71,1.19,2.04
		c-1.31,1.21-2.82,1.96-4.5,2.61c-1.67,0.64-3.51,0.65-5.3,0.64c-7.06-0.01-14.12-0.03-21.17-0.04c-2.63-0.01-5.31-0.02-7.83-0.79
		c-2.68-0.82-5.07-2.5-6.72-4.73c-0.26-0.36-0.52-0.76-0.48-1.2c0.03-0.31,0.2-0.59,0.39-0.84c3.24-4.39,10.26-3.73,14.74-6.9
		C17.49,102.82,20.05,99.37,22.61,100.71z"/>
	<path class="st5" d="M37.06,86.49c0.41-0.7,0.78-1.42,1.26-2.08c0.77-1.06,1.79-1.9,2.8-2.73c1.09-0.89,2.17-1.79,3.26-2.68
		c0.29-0.24,0.6-0.49,0.97-0.55c0.37-0.06,0.75,0.07,1.12,0.16c1.87,0.48,3.98-0.15,5.29-1.58c-1.9,1.32-3.78,2.66-5.65,4.03
		c-1.64,1.2-3.31,2.47-4.33,4.22c-0.36,0.62-0.63,1.29-1,1.91c-1.02,1.71-2.73,2.91-4.54,3.73c-0.84,0.38-1.68,0.7-2.57,0.83
		C33.89,89.94,36.1,88.15,37.06,86.49z"/>
	<path class="st6" d="M68.15,84.05c-2.04-1.28-3.55-3.38-4.11-5.73c-0.32-1.34-0.31-2.85,0.44-4.01c0.64-0.99,1.74-1.6,2.43-2.57
		c1.06-1.5,0.85-3.74-0.41-5.09c-1.26-1.34-3.4-1.72-5.09-0.99c-0.43,0.18-0.83,0.44-1.13,0.79c-0.74,0.87-0.68,2.21-0.16,3.23
		c0.52,1.02,1.41,1.79,2.27,2.54c-0.88-0.98-1.49-2.21-1.72-3.51c-0.05-0.29-0.08-0.59,0.02-0.87c0.12-0.31,0.39-0.53,0.68-0.7
		c1.88-1.13,4.74-0.45,5.06,1.95c0.28,2.09-2.09,3.32-2.83,5.09C62.26,77.4,62.55,86.25,68.15,84.05z"/>
	<path class="st7" d="M41.98,82.72c1.03-0.91,2.51-1.02,3.85-1.31c2.97-0.63,5.6-2.28,8.17-3.91c1.45-0.92,2.98-1.93,3.69-3.49
		c0.54-1.2,0.79-2.88,2.08-3.15c-0.04,1.1,0.76,2.17,1.82,2.44c-1.1,1.61-1.85,3.44-2.2,5.36c-0.05,0.3-0.09,0.63,0.08,0.88
		c0.22,0.31,0.65,0.35,1.02,0.42c1.63,0.32,2.74,1.77,3.7,3.12c0.56,0.79,1.13,1.84,0.61,2.64c-0.47,0.73-1.54,0.74-2.38,0.52
		c-0.84-0.23-1.7-0.62-2.54-0.41c-1.57,0.39-2.24,2.65-3.86,2.76c-1.75-1.22-1.07-4.15-2.49-5.74c-1.2-1.34-3.41-1.14-4.98-0.28
		c-1.58,0.86-2.83,2.23-4.39,3.11c-1.77,0.99-3.82,1.33-5.59,2.33C40.41,86.85,40.33,84.17,41.98,82.72z"/>
	<path class="st8" d="M61.97,69.85c0.46,0.51,1.11,0.84,1.79,0.99c0.42,0.09,0.87,0.11,1.25-0.07c0.69-0.32,0.94-1.18,0.95-1.94
		c0-0.23-0.01-0.47-0.12-0.67c-0.11-0.21-0.31-0.35-0.51-0.48c-0.78-0.51-2.11-1.34-2.96-0.57C61.66,67.74,61.31,69.12,61.97,69.85z
		"/>
	<path class="st9" d="M63.54,65.95c0.49-0.05,1.03,0.07,1.38,0.45c0.22,0.23,0.35,0.54,0.5,0.84c0.17,0.34,0.36,0.68,0.48,1.05
		c0.12,0.37,0.16,0.79,0.02,1.15c-0.21,0.54-0.76,0.81-1.27,1.03c-0.28,0.12-0.56,0.23-0.85,0.28c-0.7,0.11-1.44-0.18-1.94-0.74
		s-0.73-1.36-0.67-2.13c0.02-0.2,0.05-0.4,0.13-0.58C61.69,66.42,62.75,66.03,63.54,65.95z"/>
	<path class="st10" d="M61.78,67.72c0.03-0.23,0.1-0.47,0.26-0.65c0.1-0.11,0.23-0.19,0.37-0.27c0.2-0.12,0.4-0.24,0.62-0.32
		c0.43-0.16,0.9-0.16,1.36-0.12c0.24,0.02,0.49,0.05,0.7,0.15c0.49,0.22,0.78,0.78,0.78,1.33c0,0.55-0.26,1.08-0.63,1.48
		c-0.54,0.59-1.4,1.29-2.19,0.94C62.14,69.87,61.65,68.69,61.78,67.72z"/>
	<path class="st11" d="M63.87,70.15c0.48-0.15,0.86-0.5,1.19-0.87c0.15-0.16,0.29-0.33,0.39-0.52c0.3-0.54,0.24-1.28-0.19-1.72
		c-0.43-0.45-1.2-0.53-1.68-0.14c-0.53,0.44-1.34,0.96-1.36,1.64c0,0.18,0.04,0.36,0.08,0.53c0.1,0.36,0.25,0.72,0.54,0.94
		C63.17,70.25,63.51,70.26,63.87,70.15z"/>
	<path class="st4" d="M63.67,69.08c0.18,0.1,0.39,0.15,0.59,0.14c0.09-0.19,0.05-0.45-0.1-0.6c-0.15-0.15-0.41-0.19-0.6-0.09
		c-0.09,0.21-0.12,0.45-0.08,0.67c0.12,0.05,0.25,0.08,0.38,0.08"/>
</g>
</svg>
