<!-- Generator: Adobe Illustrator 23.0.4, SVG Export Plug-In  -->
<svg version="1.1" xmlns="http://www.w3.org/2000/svg" xmlns:xlink="http://www.w3.org/1999/xlink" x="0px" y="0px"
	 width="695.46px" height="436.07px" viewBox="0 0 695.46 436.07" style="enable-background:new 0 0 695.46 436.07;"
	 xml:space="preserve">
<style type="text/css">
	.st0{fill:#F9D3C0;}
	.st1{fill:#F9B2B2;}
	.st2{fill:#934747;}
	.st3{fill:#070000;}
	.st4{fill:#FF6666;}
	.st5{fill:#D18686;}
</style>
<defs>
</defs>
<path class="st0" d="M43.67,7.42c12.01,2.59,21.34-8.09,30.99,1.63c7.69,7.74,8.03,29.19,1.07,37.54
	C61.65,63.47,24.46,27.33,40.4,9.29"/>
<path class="st1" d="M63.53,55.68c10.87,5.83,24.61,7.06,35.73,12.21c12.58,5.81,16.26,13.96,25.89,23.65
	c10.1,10.17,22.46,16.04,32.71,25.83c19.83,18.94,43.46,37.63,68.74,48.88c11.38,5.06,23.52,7.87,35.07,12.68
	c18.51,7.7,26.54,21.13,40.5,32.82c10.11,8.47,20.52,8.03,29.17,20.83c8.17,12.1,12.2,19.95,25.3,27.87
	c24.89,15.06,55.6,23.35,84.24,29.42c8.49-9.76,42.52,8.26,53.81,10.63c-1.99-17.82-32.21-28.11-36.78-48.24
	c-3.42-15.1-4.84-27.02-14.01-40.31c-13.78-19.96-19.1-20.12-37.76-25.18c-8.38-2.27-14.16-6.91-20.09-13.43
	c-3.7-4.07-9.66-9.4-12.71-13.8c-9.8-14.16-15.74-21.44-35.23-23.7c-17.84-2.07-35.35,5.04-53.22,3.93
	c-28.46-1.77-52.1-3.21-78.17-18.34c-25.34-14.71-49.1-29.75-72.62-46.48c-16.11-11.46-35.13-23.44-45.21-41.3
	C83.45,24,84.07,8.05,68.69,7.55c-1.39,16.14-18.4,8.18-21.79,22.69C44.37,41.08,55.22,51.22,63.53,55.68z"/>
<path class="st2" d="M7.58,18.25c8.86,3.72,44.8,11.87,48.85,3.96c5.85,1.24,11.82,3.1,17.67,4.39
	C82.32,12.22,53.37,7.18,43.44,3.22C30.79-1.83,11.64-1.81,4.78,13.34"/>
<path class="st3" d="M8.16,21.16c0.3-1.69,0.82-3.35,1.57-4.85c6.08-0.71,11.92,1.8,18.02,3.11C28.64,7.71,44.41-1.45,22.18,0.19
	C10.67,1.04,0.71,9,0,21.48c2.61,1.52,5.1,1.6,7.81,0.97"/>
<path class="st3" d="M69.58,18.66c-0.59,2.1-1.21,4.16-1.51,6.28c1.63,0.6,2.96,1.2,4.75,1.3c1.72-3.43,2.51-7.63,1.72-10.56
	c-2.28,1.72-2.56,4.28-3.44,7.53"/>
<path class="st3" d="M52.88,130.03c4.83,4.96,3.99,12.94,7.6,18.34c5.84,8.72,22.21,18.91,31.27,22.77
	c9.45,4.03,25.99,7.77,35.98,8.37c9.16,0.56,14.92-3.28,23.51-4.6c3.13-0.48,8.78,0.35,11.75,0.07c4.16-0.38,8.44-2.22,12.6-2.8
	c3.42-0.47,6.82,1.63,10.33,1.21c3.91-0.48,5.73-4.1,9.45-4.37c12.02-0.87,46.21,18.03,53.78,1.17
	c12.72,7.33,25.52,17.48,36.4,28.74c7.82,8.09,25.43,21.62,36.98,24.58c-23.5-3.26-46.9,4.82-71.16-1.85
	c-35.85-9.86-72.1-22.38-108.68-28.76c-21.47-3.75-57.07-7.58-76.62-19.23c-12.69-7.56-27.29-30.3-20.77-45.5
	c4.34,0.16,8.07,2.02,10.71,5.49"/>
<path class="st4" d="M61.61,158.64c21.13,5.79,42.08,13.48,63.62,8.94c10.54-2.22,18.65-8.29,30.03-8.17
	c10.65,0.11,21.22,4.18,32.02,4.4c7.76,0.16,18.5-6.38,24.88-5.55c3.87,0.5,12.89,8.22,19.44,9.67c7.47,1.65,16.32,1.29,23.48,4.98
	c6.97,3.59,10.47,9.29,18.38,12.01c-10.26-1.92-20.4-4.58-30.63-6.8c0.04,1.57-0.48,3.24-0.33,4.95
	c-7.69-0.97-14.49-5.59-22.19-7.28c-0.14,0.2,0.8,2.8,0.84,3.2c-2.03-1.15-4.86-1.37-7.05-1.83c-4.21,7.82,4.37,11.16,10.76,13.81
	c-9.05-1.91-15.16-9.16-24.07-10.53c-4.82,3.68-12.09-1.92-18.36-3.68c0.81,1.35,2.29,5.74,3.35,6.61c-2.94-2.13-7.64-3-10.8-4.53
	c-0.65,13.57-16.65,5.75-24.02,2.04c-0.25,1.69-1.75,3.91-1.97,5.64c-16.18-3.53-32.75-11.13-49.2-12.26
	c-16.4-1.12-30.32,0.71-39.84-14.68"/>
<path class="st4" d="M354.57,142.25c6.8-0.62,16.03,3.69,24.23,2.49c8-1.17,16.47-7.02,23.8-10.38
	c21.91-10.05,45.17-7.99,66.34-21.55c9.06-5.8,17.59-15.73,28.16-18.52c6-1.58,11.91,0.66,18.53-0.76
	c15.06-3.23,26.96-13.29,43.29-12.88c2.11-2.43,4.29-3.04,6.76-4.71c-1.13,18.86,0.13,22.47-17.1,33.09
	c-11.41,7.03-19.88,14.03-32.57,19.17c-13.12,5.31-20.67,11.3-30.36,22.56c-11.86,13.8-26.03,32.08-30.96,49.27
	c-3.36,11.73,1.13,22.4-2.14,33.6c-4.1-11.43-9.64-24.88-19.24-31.18c-8.71-5.71-20.45-5.74-30.16-9.57
	c-9.53-3.76-19.28-12.85-25.02-20.73c-5.59-7.66-7.54-19.95-16.21-26.52"/>
<path class="st3" d="M566.32,74.64c24.67,0.86,46.55-12.07,65.22-26.35c16.6-12.7,16.72-27.83,26.29-44.99
	c0.81,0.28,2.64,0.8,3.47,0.96c-2.79,12.6-1.88,25.7-5.83,38.03c13.88-2.94,18.53-15.39,22.79-27.9c0.61,0.29,2.77,0.84,3.47,0.98
	c-3.14,12.01-5.77,25-8.43,37.32c7.91-0.1,16.13-11.99,22.17-17.19c-3.86,19.23-12.49,36.87-27.86,46.18
	c-8.04,4.87-7.37-0.33-13.6,10.45c-4.32,7.48-3.79,8.09-9.42,13.27c-14.73,13.53-38.67,31.52-46.65,49.47
	c-14.31-6.29-19.1,17.47-30.06,15.65c-1.61,10.47-11.53,5.67-18.82,7.34c-5.44,1.25-19.91,6.15-21.74,12.96
	c-2.29-1.27-6.35-0.77-8.6-1.98c-9.59,12.85-14.7,4.16-27.89,6.2c-3.74,0.58-10.99,4.2-14.18,5.54c-3.41,1.43-4.76-1.99-8.54,0.6
	c-1.97,1.35-3.79,9.53-4.82,12.06c-14.95,0.52-13.23-39.57-12.03-51.32c1.42-13.95,20.56-45.8,37.58-36.92
	c0.15-2.21,2.25-4.99,2.39-7.21c11.76,5.85,16.19-12.28,31.81-6.79c8.02-23.82,5.31-7.41,22.53-11.94
	c9.49-2.5,12.03-18.57,19.71-20.55"/>
<path class="st5" d="M446.3,286.08c16.88,4.5,30.16,28.53,43.13,39.34c18.13,15.11,36.67,33.18,55.73,48.36
	c16.46,13.1,30.87,31.15,47.78,43.23c15.02,10.72,41.35,24.33,59.84,17c-2.74-0.33-5.91-2.36-8.64-2.92
	c2.17-1.52,2.45-3.88,3.9-5.35c-15.77-6.37-34-4.14-48.28-13.43c-9.75-6.34-18.2-15.24-26.35-22.08
	c-17.13-14.39-38.49-40.97-60.92-47.6c-1.96-5.58-9.32-9.88-13.87-14.6c-7.3-7.58-10.31-17.11-15.8-25.17
	c-7.61-11.19-20.34-15.04-33.24-18.62"/>
<path class="st5" d="M475.13,296.73c-0.04,1.28-0.79,2.37-0.81,3.71c33.06,9.41,59.37,43.23,81.23,66.62
	c25.2,26.96,56.2,53.64,94.25,61.42c-3.32-2.47-5.71-4.91-9.69-6.44c0.54-0.05,0.84-0.35,0.92-0.9c-2.87-1.03-8.97-1.53-11.32-3.41
	c-2.35-1.88-4.25-7.08-6.03-8.26c-6.57-4.38-16.5-3.61-23.12-7.93c-8.49-5.53-12.85-18.57-19.61-26.44
	c-5.19-6.05-12.79-12.84-19.24-19.08c-16.09-15.55-25.04-34.07-44.55-45.36c-16.21-9.38-34.16-19.66-52.77-23.5
	c2.77,4.12,6.29,8.11,8.75,11.78"/>
</svg>
