<!-- Generator: Adobe Illustrator 23.0.4, SVG Export Plug-In  -->
<svg version="1.1" xmlns="http://www.w3.org/2000/svg" xmlns:xlink="http://www.w3.org/1999/xlink" x="0px" y="0px"
	 width="124.14px" height="130.98px" viewBox="0 0 124.14 130.98" style="enable-background:new 0 0 124.14 130.98;"
	 xml:space="preserve">
<style type="text/css">
	.st0{fill:#FFFFFF;fill-opacity:0.56;}
	.st1{fill:#FBDAD1;}
	.st2{fill:#875151;fill-opacity:0.7;}
	.st3{fill:#FF8429;fill-opacity:0.66;}
	.st4{fill:#FF8429;fill-opacity:0.75;}
	.st5{fill:#776D71;}
	.st6{fill:#A08E8E;}
	.st7{fill:#F9685D;}
	.st8{opacity:0.53;fill:#FF8429;stroke:#000000;stroke-width:0.4015;stroke-miterlimit:10;}
	.st9{fill:#EC7152;fill-opacity:0.5;}
	.st10{fill:#F4BDBD;}
	.st11{fill:#EF7760;fill-opacity:0.69;}
	.st12{fill:#A39393;fill-opacity:0.64;}
	.st13{fill:#F4EFEF;fill-opacity:0.97;}
	.st14{fill:#EAD2B0;fill-opacity:0.95;stroke:#C69C6D;stroke-width:0.4618;stroke-miterlimit:10;}
	.st15{fill:#141010;}
	.st16{fill:#19110E;fill-opacity:0.61;}
	.st17{fill:#050404;}
	.st18{fill:url(#SVGID_1_);}
	.st19{fill:#9E3F33;fill-opacity:0.56;}
	.st20{fill:none;stroke:#000000;stroke-width:0.25;stroke-miterlimit:10;}
	.st21{fill:url(#SVGID_2_);}
</style>
<defs>
</defs>
<g>
	<g>
		<path class="st0" d="M3.99,74.87c0.01,0-0.08,0.32-0.09,0.32C3.9,75.19,3.99,74.87,3.99,74.87z"/>
		<path class="st0" d="M123.15,21.64c-0.78-3.79-1.78-7.53-3.2-11.16c-0.68-3.53-2.55-5.99-5.4-8.08c-1.02-0.74-2.09-1.36-3.19-1.72
			c-4.31-1.39-8.75-0.52-12.33,1.7c-3.58,2.23-6.09,5.09-7.61,8.68c-1.71,4.03-1.51,7.49-0.65,11.51s3.48,7.01,5.21,10.62
			c0.97,2.02,1.71,4.21,2.15,6.43c0.02,0.08,0.04,0.16,0.04,0.24c-0.15,3.55-1.26,6.62-3.82,9.16c-1.49-0.54-2.9-0.71-4-2.04
			c-1.75-2.1-1.85-4.85-2.77-7.47c-0.82-2.32-2.29-4.31-4.14-6.05c-0.57-0.54-1.09-1.09-1.8-1.54c-1.92-1.23-3.97-1.86-6.24-2.24
			c-1.91-0.32-3.78-0.44-5.7-0.21c-0.16,0.02-0.39,0.05-0.47,0.07c-0.03,0-0.04,0.01-0.04,0.01c-0.16,0.01-0.22,0.05-0.4,0.06
			c-0.19,0.01-0.29,0.06-0.51,0.03c-3.64-0.43-6.13-0.68-10.06-0.1c-7.5,1.1-14.88,4.13-21.35,8.47c-0.43,0.29-0.9,0.65-1.34,0.9
			c-0.14,0.08-0.35,0.05-0.49,0.09c-0.14,0.04-0.46,0.06-0.54,0.08c-0.01,0-0.02,0-0.02,0c0,0,0,0,0,0
			c-0.05,0.06-0.17-0.04-0.19,0.05c-0.02,0.09,0.11,0.37,0.14,0.49c-4.41,2.73-10.44,4.99-11.96,10.36
			c-0.07,0.03-0.15,0.07-0.23,0.1c-0.33,0.14-0.73,0.29-0.89,0.62c-0.16,0.33,0.05,0.67,0.39,0.67c-0.78,0.28-1.56,0.57-2.34,0.87
			c-0.27,1.03-0.67,1.96-1.23,2.87c-3.02,2.53-6.02,5.09-9.05,7.6c-0.28,0.09-0.56,0.17-0.84,0.22c0.08,0.06,0.35,0.08,0.39,0.14
			c0.03,0.04-0.18,0.15-0.21,0.18s-0.13,0.05-0.15,0.07c-0.02,0.02,0.13-0.06,0.08-0.01c-0.05,0.05-0.27,0.22-0.35,0.29
			c0.36-0.07,0.72-0.15,1.09-0.22c-1.09,0.91-2.01,1.97-2.87,3.09C5.61,67.33,5,68.16,4.5,69.1c0.08-0.07,0.29-0.3,0.34-0.33
			c0.04-0.02-0.17,0.28-0.14,0.28c0.02,0,0.15-0.15,0.19-0.18c-1.05,1.27-2.03,2.58-2.87,4.01c-0.04-0.06-0.09-0.26-0.14-0.29
			c-0.04-0.03-0.11,0.12-0.14,0.11c-0.03-0.01-0.03-0.08-0.05-0.1C0.96,73.31,0.41,74.08,0,75.01c0.2,0.04,0.4,0.03,0.6-0.01
			c0.19-0.03,0.35-0.07,0.52-0.16c-0.39,0.89-0.56,1.76-0.5,2.72c0.04-0.06,0.13-0.31,0.16-0.32c0.03-0.01,0,0.25,0.03,0.29
			c0.43-0.9,0.98-1.69,1.67-2.42c-0.14,0.49-0.24,0.98-0.29,1.48c0.09-0.21,0.18-0.42,0.27-0.63c-0.03,0.2-0.06,0.4-0.08,0.59
			c0.06-0.14,0.16-0.39,0.21-0.49c0.03-0.05-0.02,0.28,0,0.23c0.05-0.1,0.13-0.34,0.19-0.47c0,0.15-0.01,0.31-0.01,0.46
			c0.29-0.77,0.68-1.43,1.19-2.07c-0.02,0.05-0.11,0.19-0.12,0.22c-0.01,0.03,0.13-0.2,0.12-0.15c-0.03,0.13-0.11,0.39-0.15,0.55
			c0.08-0.19,0.2-0.36,0.32-0.52C4.1,74.5,4.05,74.68,4,74.85c0.31-0.65,0.89-1.11,1.45-1.52c0.56-0.4,1.05-0.75,1.59-1.15
			c0,0.01-0.05,0.09-0.04,0.08c0.01-0.01,0.07-0.1,0.11-0.13C7.16,72.1,7.27,72,7.3,71.99c0.03-0.01-0.14,0.25-0.09,0.22
			c0.08-0.06,0.18-0.28,0.3-0.38c0.49-0.4,1.02-0.82,1.51-1.23c-1.04,1.59-2,3.2-2.85,4.9c0.3-0.04,0.59-0.08,0.89-0.13
			c-0.02,0.4-0.02,0.82,0.04,1.21c0,0.02,0.04-0.07,0.05-0.04c0.08,0.91,0.32,1.74,0.76,2.55c0.04-0.02,0.11-0.09,0.14-0.1
			c0.03-0.02,0.02,0.08,0.05,0.07c0.59-0.46,0.76-1.08,0.91-1.79c0.91-1.52,1.95-2.92,3.15-4.23c-0.21,0.48-0.36,0.97-0.44,1.49
			c0.05-0.01,0.14-0.03,0.18-0.04c0.02-0.01,0,0.01,0,0.01c0.48-0.12,0.88-0.31,1.27-0.6c-0.39,0.81-0.7,1.63-0.93,2.49
			c0.05-0.02,0.17-0.1,0.2-0.11c0.03-0.01-0.03,0.06-0.01,0.07c1.38-0.79,2.66-1.57,3.53-2.93c0.27-0.42,0.4-0.87,0.73-1.25
			c0.17-0.19,0.35-0.32,0.56-0.46c-0.51,0.62-0.9,1.28-1.18,2.04c0.05-0.03,0.2-0.18,0.23-0.18c0.03-0.01-0.06,0.13-0.05,0.15
			c2.97-2.44,5.92-4.9,8.88-7.37c0.71-0.59,1.5-1.2,2.4-1.42c0.48-0.12,0.92-0.03,1.37,0.11c0.67,0.21,1.26,0.69,1.95,0.9
			c0.15,0.04,0.31,0.05,0.47,0.05c0.16,0,0.26,0.01,0.43-0.02c0.17-0.03,0.34-0.05,0.52-0.16c0.18-0.11,0.52-0.42,0.67-0.51
			c0.15-0.09,0.22-0.11,0.32-0.12c0.1-0.02,0.15-0.04,0.22-0.01c1.55,0.68,3.12,1.26,4.69,1.89c0.88,0.35,1.66,0.82,2.58,1.14
			c1.57,0.54,2.94,1.11,4.64,1c0.56-0.04,1.06-0.18,1.57-0.32c0.07-0.02,0.19-0.03,0.2,0.02c0.01,0.04-0.07,0.17-0.12,0.28
			c-3.13,6.64-6.51,13.19-9.87,19.73c-0.78,1.52-1.52,2.94-2.45,4.42c-0.93,1.48-2.12,3.06-3.07,4.56
			c-0.94,1.49-1.69,2.97-2.46,4.54c-0.13-0.04-0.42-0.11-0.52-0.14c-0.1-0.03-0.12-0.02-0.17-0.01c-0.05,0.01-0.03,0.03-0.05,0.03
			c-0.02,0,0,0-0.01,0c-0.07,0-0.09-0.04-0.16,0c-0.07,0.04-0.1,0.14-0.1,0.23c0.04,0.38,0.17,0.69,0.44,0.97
			c-0.17,0.04-0.33,0.07-0.5,0.11c-0.01,0.36,0.02,0.73,0,1.09c0,0.06-0.03,0.1-0.07,0.16c-0.05,0.06-0.05,0.29-0.16,0.33
			c-0.29,0.08-0.54,0.44-0.51,0.68c0.03,0.24,0.14,0.21,0.15,0.36c0.01,0.15-0.06,0.41-0.06,0.51c0,0.09-0.01-0.04-0.03,0
			c-0.01,0.04-0.01,0.01-0.05,0.06c-0.04,0.05-0.11-0.08-0.14-0.02c-0.3,0.41,0.04,0.9,0.19,1.35c0.02,0.06,0.03,0.12,0.03,0.21
			c0,0.1-0.01,0.21-0.11,0.33c-0.1,0.11-0.19,0.14-0.34,0.3c-0.15,0.16-0.18,0.54-0.01,0.73c0.17,0.19,0.42,0.15,0.56,0.16
			c0.14,0.01,0.2-0.06,0.23-0.02c0.12,0.14,0.03,0.53,0.14,0.66c0.09,0.1,0.44-0.07,0.53,0.01c0.09,0.07,0.14,0.09,0.17,0.23
			c0.03,0.13-0.03,0.48,0.11,0.61c0.04,0.04,0.12-0.1,0.16-0.08c0.04,0.01,0,0.06,0.04,0.07c0.04,0.01,0.11-0.12,0.16-0.08
			c0.33,0.31,0.66,0.67,1.01,0.98c3,2.8,5.96,5.62,8.7,8.68c0.43,0.74,1.05,1.6,1.57,2.23c1.56,1.89,3.07,3.79,4.51,5.74
			c1.08,0.11,2.17,0.26,3.25,0.42c-2.46-3.67-5.03-7.26-7.58-10.91c-1.89-2.7-3.74-5.37-5.38-8.25c-0.59-1.04-1.14-2.1-1.23-3.37
			c-0.11-1.63,0.47-3.16,1.05-4.71c0.5-1.33,1.02-2.66,1.55-4.03c0.76-1.94,1.56-3.91,2.58-5.77c0.6-1.08,1.33-2.13,1.96-3.22
			c0.85-1.46,1.64-2.98,2.38-4.51c2.77-5.73,5.39-11.53,8.89-16.88c0.01,0,0.06,0.03,0.07,0.02c0.01,0-0.05-0.04-0.05-0.05
			c0.01-0.01,0.01-0.06,0.04-0.05c0.03,0.01,0.01-0.02,0.08,0.03c0.08,0.05,0.29,0.3,0.37,0.38c0.02,0.02,0.07-0.12,0.09-0.13
			c0.03,0,0.08,0.13,0.1,0.1c0.06-0.1,0.27-0.4,0.34-0.45c0.06-0.05,0.03-0.02,0.04-0.02c0.87-0.05,1.52,0.3,2.24,0.73
			c-0.06,0.29-0.06,0.59-0.06,0.88c0.17,8.4,0.19,16.79,0.2,25.18c-0.13-0.42-0.3-0.88-0.58-1.19c-0.04-0.05-0.04,0.18-0.07,0.16
			c-0.03-0.02-0.08-0.13-0.13-0.15c-0.45,1.12-0.3,2.54-0.3,3.66c0.01,2.25,0.1,4.37-0.15,6.53c-0.25,2.16-0.96,4.18-0.67,6.34
			c0.16,1.18,0.74,2.11,1.15,3.18c1.21,3.16,1.52,6.35,1.76,9.7c0.05-0.29,0.09-0.59,0.14-0.88c0.02,0.29,0.04,0.58,0.06,0.87
			c0.05-0.29,0.09-0.59,0.14-0.88c0.06,0.65,0.14,1.29,0.17,1.95c0.1,2.4,0.12,4.75,0.38,7.14c1.05,0.11,2.1,0.19,3.15,0.22
			c-0.2-4.01-0.57-8.02-0.88-12.03c-0.08-1.06-0.13-2.18,0.03-3.18c0.16-1,0.52-1.77,0.65-2.73c0.16-1.22-0.06-2.31-0.54-3.43
			c-0.01-0.03-0.06-0.05-0.03-0.08c0.04-0.02,0.46-0.12,0.38-0.24c-0.14-0.21-0.55-0.17-0.73-0.39c-0.18-0.22-0.32-0.53-0.42-0.84
			c-0.22-0.64-0.27-1.27-0.3-1.97c-0.21-4.37-0.54-8.37-0.59-12.85c-0.1-8.24,0.77-16.76,1.59-25.04c0.01-0.05-0.02-0.12,0.02-0.16
			c0.58-0.7,1.02-1.49,1.44-2.3c2.18-0.38,4.38-0.64,6.55-1.08c0.32-0.06,0.61-0.13,0.92-0.2c0.08-0.02,0.17-0.04,0.25-0.06
			c3.86-0.86,7.86-1.84,11.6-2.89c1.48-0.41,2.65-0.79,4.03-1.14c2.84-0.73,5.24-1.75,7.62-3.46c0.31-0.22,0.69-0.34,1.06-0.41
			c1.45-0.26,2.86-0.57,4.24-1.09c0.27-0.1,0.53-0.24,0.78-0.37c0.02-0.01,0.03,0,0.04-0.02c0.01-0.02,0-0.01,0.02-0.01
			c0.01,0,0.02-0.04,0.05-0.02c0.03,0.01,0.07,0.06,0.11,0.03c1.17-0.8,2.3-1.57,3.23-2.66c0.43-0.51,0.68-1.13,0.96-1.72
			c0.19-0.39,0.45-0.71,0.66-1.09c1.56-2.9,1.96-5.59,1.42-8.8c-0.21-1.26-0.67-2.23-1.09-3.39c-0.42-1.16-0.81-2.33-1.38-3.43
			c-0.28-0.54-0.67-1.02-0.93-1.55c-0.62-1.24-1.34-2.44-1.97-3.66c-0.38-0.74-0.72-1.48-0.99-2.26c-0.56-1.64-1.79-3.02-2.32-4.62
			c-0.63-1.9-1.16-3.43-0.98-5.6c0.3-3.52,2.48-6.1,5.37-8.25c0.97-0.24,1.66-0.45,2.62-0.22c0.49,0.12,0.88,0.22,1.29,0.45
			c0.21,0.12,0.39,0.22,0.55,0.4c0.93,1.09,1.81,2.18,2.78,3.27c0.22,0.24,0.4,0.47,0.65,0.78c0.25,0.31,0.57,0.77,0.86,1.14
			c0.77,0.99,1.5,2.07,2.44,2.93c0.33,0.3,0.66,0.54,1.03,0.75c0.37,0.21,0.75,0.35,1.11,0.57c0.02,0.66-0.01,1.55-0.02,2.17
			c-0.01,0.62,0.12,1.33,0.15,1.8s0.04,0.68,0.12,0.98c0.09,0.3,0.17,0.21,0.22,0.48c0.06,0.27,0.23,0.56,0.18,0.9
			c-0.18,1.21-0.35,2.51-0.47,3.77c-0.03,0.3-0.3,0.64-0.35,0.94c-0.01,0.07,0.14,0.12,0.14,0.19c0,0.07,0.01,0.18-0.02,0.27
			c-0.35,1.12-0.83,2.47-1.25,3.51c-0.42,1.04-0.87,1.75-1.16,2.77c-0.04,0.15-0.05,0.32-0.04,0.44c0.01,0.12,0.06,0.16,0.08,0.22
			c0.02,0.06-0.04,0.04-0.01,0.07c0.02,0.03,0.12,0.05,0.15,0.07c0.02,0.01,0,0,0.01,0.01c0.02,0.02-0.05,0.01,0,0.05
			c0.04,0.03,0.04,0,0.15,0.06c0.11,0.07,0.31,0.13,0.52,0.14c0.71,0.03,1.29-0.1,1.96-0.47c0.67-0.38,1.16-1.08,1.74-1.59
			c1.34-1.16,2.8-2.39,4.01-3.63c1.21-1.24,2.2-2.33,2.81-3.92c0.25-0.64,0.26-1.26,0.34-1.93c0.02-0.18,0.08-0.36,0.09-0.56
			C123.51,23.61,123.37,22.71,123.15,21.64z"/>
		<path class="st0" d="M3.81,74.87c0.01,0-0.09,0.35-0.1,0.35C3.71,75.22,3.8,74.87,3.81,74.87z"/>
	</g>
	<g>
		<path class="st0" d="M4.56,74.78c0.01,0-0.08,0.32-0.09,0.32C4.46,75.1,4.55,74.78,4.56,74.78z"/>
		<path class="st0" d="M123.83,22.19c-0.76-3.76-1.72-7.49-3.13-11.09c-0.69-3.61-2.45-5.96-5.35-8.16
			c-0.09-0.06-0.19-0.14-0.24-0.17c-0.04-0.03-0.03-0.02-0.03-0.02c-0.98-0.64-2.1-1.33-3.19-1.71c-4.26-1.44-8.78-0.62-12.35,1.61
			s-6.12,4.99-7.61,8.59c-1.67,4.04-1.55,7.42-0.63,11.42c0.92,4,3.59,6.9,5.28,10.52c0.95,2.02,1.72,4.2,2.15,6.43
			c0.02,0.08,0.04,0.16,0.04,0.24c-0.16,3.55-1.35,6.57-3.91,9.09c-1.43-0.54-2.71-0.74-3.76-2.02c-1.73-2.11-1.78-4.87-2.7-7.49
			c-0.81-2.32-2.27-4.33-4.13-6.05c-0.58-0.54-1.08-1.09-1.78-1.54c-1.92-1.23-3.97-1.87-6.23-2.26c-1.91-0.32-3.77-0.45-5.69-0.22
			c-0.04,0.01-0.09,0.01-0.13,0.01c-0.04,0-0.02,0-0.06,0.01c-0.04,0.01-0.05,0.01-0.13,0.02c-0.08,0.01-0.39,0.06-0.45,0.06
			c-0.04,0.01-0.03,0.01-0.03,0c-0.11,0.01-0.19,0.04-0.3,0.04c-0.11,0-0.21,0.05-0.34,0.02c-3.3-0.59-6.57-0.53-9.9-0.16
			c-0.07,0.01-0.17,0.02-0.22,0.03c-0.05,0.01-0.05,0-0.08,0.01c-7.94,1.26-14.79,4.08-21.48,8.49c-0.44,0.29-0.88,0.63-1.33,0.9
			c-0.09,0.05-0.2,0.03-0.3,0.06c-0.1,0.03-0.38,0.06-0.44,0.07c-0.02,0-0.03,0.01-0.03,0.01c-0.06-0.01-0.16,0-0.18,0.02
			c-0.01,0.01-0.01,0.01-0.01,0.01c-0.02,0.03-0.08,0.01-0.09,0.02c-0.01,0,0,0,0,0c-0.04,0.05-0.17-0.04-0.19,0.05
			c-0.02,0.09,0.1,0.37,0.13,0.49c-4.41,2.71-10.46,4.99-11.98,10.34c-0.07,0.03-0.15,0.07-0.23,0.1c-0.33,0.14-0.73,0.29-0.89,0.62
			c-0.16,0.33,0.04,0.67,0.39,0.67c-0.78,0.28-1.57,0.56-2.34,0.86c-0.27,1.03-0.67,1.96-1.23,2.87c-3.04,2.5-6.02,5.08-9.06,7.6
			c-0.28,0.09-0.56,0.17-0.84,0.22c0.08,0.06,0.35,0.08,0.39,0.14c0.03,0.04-0.18,0.15-0.21,0.18c-0.03,0.04-0.13,0.05-0.15,0.07
			C8.85,63.22,9,63.13,8.95,63.18c-0.05,0.05-0.27,0.22-0.35,0.29c0.36-0.07,0.72-0.15,1.09-0.22c-1.1,0.92-2.01,1.97-2.87,3.1
			c-0.65,0.86-1.26,1.69-1.76,2.64c0.08-0.07,0.29-0.3,0.34-0.33c0.03-0.02-0.16,0.27-0.15,0.28c0.01,0,0.15-0.15,0.17-0.16
			c0.02-0.01,0,0.01-0.01,0.01c-0.97,1.18-1.87,2.39-2.66,3.7c-0.02-0.01-0.01-0.06-0.03-0.06c-0.03,0-0.11,0.12-0.13,0.12
			c-0.03,0-0.03-0.09-0.05-0.09c-0.02,0-0.05,0.06-0.07,0.06s0-0.05-0.03-0.04c-0.03,0.01-0.11,0.12-0.13,0.12
			c-0.03,0-0.03-0.08-0.05-0.1c-0.73,0.71-1.28,1.48-1.68,2.4c0.15,0.05,0.46,0.02,0.58,0c0.11-0.02,0.02-0.01,0.09-0.02
			c0.07-0.01,0.14-0.02,0.21-0.03c0.07-0.01,0.13-0.02,0.2-0.03c-0.37,0.87-0.52,1.71-0.46,2.65c0.04-0.07,0.13-0.3,0.16-0.33
			c0.03-0.02,0,0.28,0.03,0.28c0.02,0.01,0.06-0.14,0.08-0.14c0.02,0-0.01,0.15,0.02,0.13C1.5,77.4,1.6,77.1,1.63,77.1
			c0.03,0,0,0.25,0.03,0.29c0.35-0.72,0.77-1.38,1.29-2c-0.09,0.37-0.15,0.73-0.19,1.11c0.09-0.21,0.18-0.42,0.27-0.63
			c-0.03,0.2-0.06,0.4-0.08,0.59c0.03-0.06,0.1-0.26,0.12-0.28c0.02-0.02-0.04,0.26-0.03,0.25c0.02-0.02,0.09-0.22,0.11-0.26
			c0.02-0.04-0.02,0.09,0.01,0.03c0.02-0.06,0.1-0.27,0.14-0.35C3.28,76,3.23,76.31,3.23,76.4c0,0.04,0.1-0.24,0.11-0.25
			c0.01-0.01-0.01,0.06,0.01,0.04c0.01-0.02,0.07-0.2,0.09-0.22c0.02-0.02-0.02,0.24,0,0.2c0.05-0.1,0.13-0.34,0.19-0.47
			c0,0.15-0.01,0.31-0.01,0.46c0.2-0.56,0.47-1.09,0.81-1.57c0.01,0-0.06,0.2-0.04,0.16c0.06-0.13,0.2-0.36,0.32-0.5
			c-0.05,0.17-0.1,0.35-0.14,0.51c0.03-0.07,0.14-0.3,0.17-0.31c0.02-0.01-0.07,0.23-0.07,0.27c0.08-0.18,0.19-0.35,0.32-0.51
			c-0.05,0.17-0.1,0.35-0.14,0.52c0.3-0.64,0.91-1.12,1.44-1.51c0.54-0.39,0.95-0.7,1.45-1.08c0.01-0.01-0.01,0.01,0,0.01
			c0.01-0.01,0-0.01,0.02-0.02c0.02-0.01,0.09-0.08,0.11-0.09c0.02-0.01-0.05,0.09-0.03,0.08s0.07-0.11,0.11-0.14
			c0.04-0.03,0.15-0.13,0.18-0.14c0.03-0.01-0.13,0.26-0.09,0.22c0.07-0.07,0.18-0.28,0.3-0.39c0.32-0.28,0.69-0.56,1.02-0.83
			c-0.95,1.49-1.84,3-2.62,4.58c0.3-0.04,0.59-0.09,0.89-0.13c-0.02,0.4-0.02,0.82,0.04,1.21c0,0.02,0.04-0.07,0.05-0.04
			c0.08,0.91,0.32,1.74,0.76,2.55c0.04-0.02,0.11-0.09,0.14-0.1c0.03-0.01,0.02,0.07,0.05,0.07c0.02,0,0.05-0.04,0.07-0.05
			c0.02,0,0,0.04,0.03,0.03c0.03-0.01,0.11-0.09,0.14-0.1c0.03-0.01,0.02,0.09,0.05,0.07c0.59-0.45,0.75-1.08,0.91-1.79
			c0.79-1.34,1.67-2.59,2.69-3.76c-0.11,0.33-0.23,0.72-0.25,1.04c0,0.06,0.15-0.05,0.17-0.03c0.01,0.01,0,0.01,0,0.01
			c0.02,0,0.07-0.02,0.09-0.02c0.01,0,0,0.01,0,0c0.05-0.01,0.14-0.03,0.18-0.04c0.02-0.01,0,0.01,0,0.01
			c0.32-0.07,0.62-0.19,0.9-0.35c-0.34,0.74-0.63,1.5-0.84,2.29c0.05-0.02,0.16-0.1,0.2-0.11c0.03-0.01-0.03,0.07-0.01,0.07
			c0.02,0,0.08-0.05,0.1-0.05c0.02,0-0.03,0.04,0,0.03c0.03-0.01,0.17-0.1,0.19-0.1c0.03,0-0.02,0.06-0.01,0.07
			c1.36-0.77,2.58-1.54,3.48-2.85c-0.01,0.06-0.12,0.26-0.11,0.28c0.02,0.02,0.2-0.18,0.22-0.17s-0.06,0.14-0.05,0.14
			c0.02,0.01,0.1-0.09,0.11-0.09c0.02,0-0.05,0.08-0.02,0.07c0.03-0.01,0.2-0.18,0.22-0.18c0.02,0-0.05,0.12-0.05,0.15
			c2.97-2.43,5.91-4.91,8.87-7.37c0.66-0.55,1.41-1.13,2.24-1.36c0.43-0.12,0.87-0.01,1.28,0.11c0.67,0.21,1.25,0.72,1.93,0.92
			c0.15,0.04,0.32,0.05,0.46,0.05c0.14,0,0.31,0,0.42-0.02c0.11-0.02,0.11-0.01,0.19-0.03c0.08-0.02-0.01,0,0.11-0.02
			c0.13-0.02,0.32-0.04,0.51-0.16c0.18-0.12,0.47-0.39,0.69-0.52c0.05-0.03,0.14-0.07,0.18-0.08c0.04-0.01,0.06-0.02,0.09-0.01
			c1.55,0.69,3.1,1.29,4.67,1.92c0.88,0.36,1.65,0.8,2.58,1.15c1.58,0.59,2.92,1.12,4.66,0.99c0.06,0,0.12-0.01,0.16-0.02
			c0.04,0,0.03,0,0.06-0.01c0.03,0,0.06-0.01,0.08-0.01c0.5-0.04,0.97-0.15,1.44-0.29c0.01,0,0.05-0.04,0.03,0.01
			c-0.02,0.05-0.08,0.18-0.13,0.28c-3.14,6.63-6.48,13.18-9.84,19.71c-0.78,1.52-1.52,2.94-2.44,4.42
			c-0.93,1.48-2.14,3.08-3.07,4.56c-0.93,1.48-1.65,2.9-2.41,4.44c-0.08-0.03-0.22-0.06-0.29-0.08c-0.07-0.02-0.12-0.02-0.16-0.01
			c-0.04,0.01-0.03,0.03-0.04,0.03c-0.01,0,0,0-0.01,0c-0.05-0.02-0.12-0.02-0.15-0.01c-0.02,0.01,0,0.01-0.01,0.01
			c-0.03,0-0.07,0-0.09,0.01c-0.02,0.01-0.03,0.03-0.04,0.03c-0.01,0,0,0,0,0c-0.06,0-0.09-0.04-0.16,0
			c-0.07,0.04-0.1,0.14-0.1,0.23c0.04,0.38,0.17,0.69,0.44,0.97c-0.17,0.04-0.33,0.07-0.5,0.11c-0.01,0.36,0.02,0.73,0,1.1
			c0,0.06-0.03,0.11-0.08,0.17c-0.05,0.06-0.05,0.3-0.16,0.33c-0.3,0.08-0.54,0.44-0.51,0.68c0.03,0.24,0.14,0.21,0.15,0.36
			c0.01,0.15-0.06,0.41-0.06,0.51c0,0.09-0.01-0.04-0.03,0c-0.01,0.04-0.01,0.01-0.05,0.06c-0.04,0.05-0.11-0.08-0.14-0.02
			c-0.3,0.41,0.04,0.91,0.19,1.36c0.02,0.06,0.03,0.12,0.03,0.21c0,0.1-0.01,0.22-0.11,0.33c-0.1,0.11-0.19,0.14-0.34,0.3
			c-0.15,0.16-0.18,0.54-0.01,0.72c0.17,0.18,0.42,0.16,0.56,0.15c0.13-0.01,0.11-0.01,0.16-0.01c0.05,0,0.07-0.02,0.08,0
			c0.09,0.17,0.03,0.53,0.13,0.66c0.09,0.11,0.44-0.07,0.53,0.01c0.09,0.08,0.14,0.09,0.17,0.22c0.03,0.13-0.02,0.47,0.11,0.6
			c0.04,0.04,0.12-0.09,0.16-0.08c0.03,0.01,0.01,0.07,0.04,0.07c0.02,0.01,0.06-0.05,0.08-0.04c0.02,0,0,0.03,0.02,0.03
			c0.02,0.01,0.07-0.07,0.09-0.05c0.32,0.31,0.64,0.65,0.98,0.96c3.01,2.8,5.98,5.61,8.71,8.69c0.43,0.74,1.04,1.6,1.57,2.23
			c1.6,1.93,3.13,3.87,4.58,5.86c1.19,0.14,2.38,0.31,3.57,0.49c-2.49-3.75-5.1-7.42-7.68-11.14c-1.88-2.71-3.72-5.39-5.38-8.28
			c-0.6-1.04-1.13-2.12-1.22-3.39c-0.11-1.62,0.45-3.15,1.03-4.7c0.5-1.33,1.03-2.68,1.57-4.05c0.76-1.94,1.56-3.91,2.58-5.77
			c0.6-1.08,1.33-2.13,1.96-3.22c0.85-1.46,1.63-2.98,2.37-4.51c2.75-5.7,5.34-11.46,8.79-16.78c0.08,0.05,0.22,0.25,0.27,0.29
			c0.05,0.03,0.06-0.13,0.1-0.12c0.04,0.01,0.08,0.1,0.1,0.11c0.03,0.01,0.03-0.06,0.05-0.06c0.02,0,0.03,0.06,0.05,0.05
			c0.03-0.01,0.05-0.12,0.09-0.13c0.04-0.01,0.04,0.13,0.11,0.09c0.08-0.04,0.16-0.42,0.33-0.42c0.72-0.01,1.36,0.37,1.98,0.72
			c-0.05,0.29-0.06,0.59-0.06,0.88c0.19,8.13,0.21,16.26,0.22,24.38c-0.06-0.1-0.2-0.36-0.27-0.4c-0.07-0.04-0.04,0.17-0.08,0.16
			c-0.04-0.01-0.09-0.14-0.12-0.15c-0.03-0.01-0.02,0.08-0.04,0.08c-0.02,0-0.04-0.08-0.06-0.07c-0.03,0.01-0.04,0.17-0.07,0.17
			c-0.03,0-0.09-0.14-0.12-0.15c-0.45,1.11-0.3,2.54-0.3,3.66c0.01,2.25,0.1,4.38-0.15,6.54c-0.25,2.17-0.96,4.18-0.67,6.34
			c0.16,1.18,0.74,2.11,1.15,3.18c1.21,3.16,1.52,6.37,1.76,9.72c0.05-0.29,0.09-0.59,0.14-0.88c0.02,0.29,0.04,0.59,0.06,0.87
			c0.02-0.06,0.05-0.4,0.07-0.4c0.02,0,0.02,0.33,0.03,0.39c0.03-0.15,0.05-0.33,0.08-0.49c0.05,0.53,0.11,1.04,0.13,1.57
			c0.1,2.43,0.1,4.81,0.36,7.22c1.16,0.11,2.32,0.17,3.48,0.18c-0.2-4.04-0.58-8.06-0.89-12.09c-0.08-1.06-0.13-2.18,0.03-3.18
			c0.16-1,0.53-1.77,0.65-2.73c0.15-1.22-0.06-2.32-0.54-3.45c-0.01-0.03-0.06-0.05-0.03-0.08c0.04-0.02,0.46-0.12,0.38-0.23
			c-0.14-0.21-0.55-0.17-0.73-0.4c-0.18-0.22-0.32-0.53-0.42-0.84c-0.22-0.64-0.28-1.26-0.31-1.96c-0.21-4.38-0.53-8.39-0.58-12.88
			c-0.1-8.26,0.75-16.81,1.58-25.1c0.01-0.05-0.02-0.12,0.02-0.16c0.59-0.71,0.98-1.51,1.41-2.33c2.11-0.25,4.19-0.58,6.27-1.01
			c0.02,0,0.02,0,0.06-0.01c0.05-0.01,0.14-0.03,0.22-0.05c0.3-0.06,0.62-0.13,0.92-0.2c0.08-0.02,0.17-0.04,0.25-0.06
			c3.84-0.86,7.8-1.81,11.53-2.82c1.47-0.4,2.64-0.77,4.01-1.12c2.84-0.72,5.23-1.74,7.61-3.44c0.31-0.22,0.66-0.33,1.04-0.4
			c1.45-0.26,2.88-0.55,4.28-1.07c0.27-0.1,0.54-0.24,0.79-0.36c0.02-0.01,0.03,0,0.04-0.02c0.01-0.02,0-0.01,0.02-0.01
			c0.01,0,0.03-0.04,0.05-0.02c0.03,0.01,0.07,0.06,0.11,0.03c1.18-0.81,2.37-1.55,3.31-2.65c0.44-0.51,0.67-1.13,0.96-1.72
			c0.19-0.39,0.44-0.71,0.66-1.09c1.62-2.87,1.99-5.6,1.45-8.8c-0.21-1.25-0.64-2.23-1.06-3.39c-0.42-1.16-0.79-2.32-1.37-3.41
			c-0.28-0.54-0.67-1.01-0.94-1.53c-0.65-1.22-1.35-2.43-1.98-3.65c-0.38-0.74-0.75-1.49-1.03-2.26c-0.6-1.61-1.78-3-2.35-4.57
			c-0.68-1.86-1.15-3.35-1.02-5.49c0.22-3.47,2.51-5.96,5.35-8.04c0.91-0.23,1.84-0.1,2.72-0.08c0.39,0.01,0.86,0.18,1.1,0.32
			c0.24,0.14,0.31,0.17,0.43,0.32c0.95,1.13,1.79,2.25,2.78,3.36c0.22,0.25,0.4,0.47,0.65,0.78c0.25,0.32,0.58,0.76,0.86,1.14
			c0.74,1.02,1.45,2.09,2.4,2.95c0.02,0.02,0.03,0.03,0.07,0.06c0.04,0.04,0.12,0.11,0.18,0.16c0.29,0.26,0.68,0.55,1.01,0.72
			c0.33,0.17,0.55,0.25,0.86,0.42c-0.02,0.65-0.03,1.51-0.04,2.12c-0.01,0.61,0.12,1.33,0.14,1.8c0.02,0.47,0.04,0.68,0.12,0.98
			c0.09,0.3,0.17,0.21,0.22,0.48c0.06,0.27,0.23,0.56,0.18,0.9c-0.18,1.2-0.38,2.46-0.49,3.7c-0.03,0.3-0.3,0.63-0.35,0.93
			c-0.01,0.07,0.14,0.11,0.14,0.18c0,0.07,0.01,0.18-0.02,0.27c-0.35,1.12-0.83,2.47-1.25,3.51c-0.42,1.04-0.87,1.75-1.16,2.77
			c-0.04,0.15-0.05,0.32-0.04,0.44c0.01,0.12,0.06,0.16,0.08,0.22c0.02,0.06-0.03,0.04-0.01,0.07c0.02,0.03,0.12,0.05,0.15,0.07
			c0.02,0.01,0.01,0,0.01,0.01c0.01,0.01-0.02,0.03-0.01,0.04c0.01,0.01,0.06,0.02,0.08,0.03c0.01,0.01-0.02,0.01,0,0.03
			c0.02,0.02,0.12,0.05,0.15,0.07c0.02,0.01,0,0,0.01,0.01c0.02,0.02-0.05,0.01,0,0.05c0.04,0.03,0.04,0,0.15,0.06
			c0.11,0.07,0.31,0.13,0.52,0.14c0.71,0.03,1.29-0.1,1.96-0.47c0.67-0.38,1.16-1.08,1.74-1.59c1.34-1.16,2.8-2.39,4.01-3.63
			c1.21-1.24,2.2-2.33,2.81-3.92c0.25-0.63,0.26-1.26,0.34-1.92c0.02-0.18,0.08-0.35,0.09-0.55
			C124.19,24.16,124.04,23.25,123.83,22.19z"/>
		<path class="st0" d="M4.38,74.78c0.01,0-0.09,0.35-0.1,0.35C4.27,75.13,4.37,74.78,4.38,74.78z"/>
		<path class="st0" d="M4.84,74.74c0.01,0-0.08,0.32-0.09,0.32C4.75,75.05,4.84,74.73,4.84,74.74z"/>
		<path class="st0" d="M4.66,74.74c0.01,0-0.09,0.35-0.1,0.35C4.56,75.08,4.65,74.73,4.66,74.74z"/>
	</g>
	<g>
		<path class="st1" d="M54.79,109.89c1.54,4.47,2.72,8.85,3.02,13.56c0.16,2.47,0.14,4.78,0.38,7.22c0.99,0.09,1.99,0.16,2.99,0.18
			c-0.2-4.02-0.58-8.04-0.89-12.05c-0.08-1.06-0.13-2.18,0.03-3.18c0.16-1,0.53-1.77,0.65-2.73c0.16-1.22-0.04-2.31-0.54-3.44
			c-0.24-0.55-0.58-0.95-0.79-1.56c-0.2-0.61-0.27-1.26-0.31-1.96c-0.21-4.35-0.53-8.39-0.59-12.85c-0.1-8.22,0.77-16.85,1.58-25.01
			c0.05-0.55,0.14-1.07-0.36-0.84c-1.18,0.56-2.41-0.54-3.49,0.25c-0.43,0.32-0.39,0.95-0.38,1.48c0.19,8.87,0.18,17.85,0.22,26.7
			c0.01,3.12,0.08,5.94-0.73,8.95c-0.28,1.05-0.87,2.02-0.99,3.12c0.17,0.2,0.36,0.39,0.53,0.59
			C54.49,108.6,54.6,109.33,54.79,109.89z"/>
		<path class="st2" d="M33.32,111.11c0.02,0.1,0.08,0.13-0.04,0.27c-0.12,0.13-0.45,0.03-0.61-0.12c-0.45-0.46-1.01-0.95-1.45-1.4
			c-0.58-0.59-1.22-1.67,0.21-1.17C32.32,108.99,33.12,110.13,33.32,111.11z"/>
		<path class="st2" d="M44.06,126.48c-4.11-5.2-8.62-9.81-13.46-14.37c-1.52-1.43-2.8-2.95-2.62-5.17c0.65,1.61,1.55,3,2.85,4.16
			c1.08,0.96,2.34,1.67,3.4,2.62c0.71,0.65,1.3,1.37,1.9,2.1c2.15,2.64,4.18,5.34,6.28,8.02"/>
		<path class="st2" d="M55.08,103.17c-0.25,2.17-0.96,4.18-0.67,6.34c0.16,1.18,0.74,2.11,1.15,3.18c1.21,3.16,1.52,6.37,1.76,9.71
			c0.44-2.83,0.69-5.52-0.39-8.22c-0.17-0.43-0.45-0.77-0.34-1.23c0.11-0.46,0.63-0.72,1.03-0.46c0.09-0.44-0.2-0.72-0.55-0.93
			c-0.35-0.22-0.76-0.33-1-0.68c-0.24-0.36-0.14-0.85,0.29-0.98c-0.12-0.26-0.24-0.52-0.36-0.78c0.66,0.02,1.18,0.24,1.65,0.7
			c-0.5-0.71-1.1-1.18-1.9-1.52c0.38-0.42,0.87-0.53,1.38-0.27c-0.34-0.56-0.79-0.84-1.44-0.93c-0.04-0.49,0.11-0.87,0.46-1.22
			c-0.76-0.64-0.52-1.49-0.29-2.36c0.55-2.08,0.79-3.96,0.66-6.19c-0.08-1.36-0.16-3.17-0.98-4.37c-0.45,1.11-0.3,2.54-0.3,3.65
			C55.24,98.88,55.33,101.01,55.08,103.17z"/>
		<path class="st1" d="M37.52,118.05c0.53,0.65,0.98,1.31,1.4,2.06c0.53,0.97,1.28,2.1,1.96,2.93c1.6,1.93,3.12,3.86,4.57,5.84
			c1.01,0.12,2.01,0.25,3.02,0.4c-2.47-3.69-5.06-7.31-7.61-10.99c-1.89-2.71-3.73-5.37-5.38-8.26c-0.59-1.04-1.14-2.1-1.23-3.38
			c-0.11-1.63,0.46-3.16,1.04-4.71c0.5-1.33,1.02-2.67,1.56-4.04c0.76-1.94,1.56-3.91,2.58-5.77c0.6-1.08,1.33-2.13,1.96-3.22
			c0.85-1.46,1.64-2.98,2.38-4.51c2.78-5.76,5.41-11.58,8.93-16.96c0.07,0.02,0.14,0.06,0.21,0.07c-1.15-0.98-2.57-1.42-3.93-0.56
			c-0.77,0.49-1.08,1.28-1.47,2.1c-3.16,6.61-6.48,13.18-9.85,19.7c-0.78,1.52-1.52,2.93-2.44,4.42c-0.93,1.49-2.13,3.05-3.07,4.57
			c-1.39,2.24-2.5,4.6-3.58,6.97c-0.31,0.69-0.61,1.35-0.58,2.09c0.04,1.02,0.64,1.78,1.25,2.52c1.71,2.04,3.57,3.9,5.46,5.76
			C35.66,116.08,36.65,116.99,37.52,118.05z"/>
		<path class="st3" d="M32.53,106.48c0.41,0.15,0.84,0.3,0.87,0.79c0.01,0.16-0.11,0.22-0.04,0.42c0.07,0.2,0.58,0.42,0.57,0.65
			c0,0.23-0.23,0.37-0.16,0.54c0.07,0.17,0.2,0.1,0.3,0.24c0.1,0.14,0.03,0.32-0.12,0.42s-0.34,0.12-0.52,0.15
			c-1.53,0.25-2.88,0.74-4.19,1.55c-0.13-0.29-0.14-0.56-0.03-0.86c-0.27,0.01-0.54,0.02-0.8,0.03c-0.04-0.26-0.08-0.52-0.12-0.78
			c-0.26,0.16-0.55,0.16-0.78-0.05c-0.23-0.21-0.13-0.56,0-0.73c0.13-0.17,0.27-0.16,0.34-0.3c0.32-0.69-0.48-1.23-0.1-1.91
			c0.19,0.11,0.39-0.07,0.38-0.31c-0.02-0.23-0.2-0.28-0.24-0.59c-0.04-0.31,0.31-0.78,0.75-0.66c0-0.55,0-1.08-0.01-1.62
			c0.17-0.04,0.33-0.07,0.5-0.11c-0.26-0.28-0.4-0.59-0.44-0.97c-0.01-0.09,0.01-0.2,0.1-0.23c0.08-0.03,0.06-0.03,0.17,0
			c0.99,0.26,5.48,1.23,3.71,2.61C32.93,105.3,33.48,106.52,32.53,106.48z"/>
		<path class="st4" d="M57.38,113.14c-0.66-0.15-1.1-0.43-1.33-1.05c0.32-0.04,0.62-0.08,0.93-0.11c0.02-0.52-0.39-0.66-0.79-0.98
			c-0.4-0.32-0.68-0.85-0.69-1.41c0.26-0.1,0.51-0.12,0.79-0.09c-0.54-0.38-0.86-0.85-1.03-1.49c0.29-0.06,0.55-0.05,0.83,0.03
			c-0.26-0.38-0.33-0.76-0.25-1.21c1.65,0.75,3.33,1.49,4.96,2.27c-0.09,0.28-0.6,0.17-0.64,0.45c-0.05,0.28,0.24,0.22,0.43,0.42
			c0.19,0.2,0.12,0.7-0.28,0.74c0.2,0.24,0.43,0.47,0.45,0.79c0.02,0.32-0.22,0.5-0.48,0.64C61.83,114.32,58.57,113.4,57.38,113.14z
			"/>
		<path class="st5" d="M53.44,67.47c1.34-0.62,2.19-1.53,2.74-2.87c-0.22-0.16-0.49,0.21-0.34,0.42s0.5,0.12,0.66-0.1
			c0.16-0.22,0.22-0.51,0.25-0.78c0.16,0.19,0.32,0.38,0.47,0.57c0.11-0.42,0.21-0.84,0.32-1.25c0.99,1.17,2.42,0.49,3.46-0.35
			c1.03-0.83,1.96-1.99,3.31-2.26c0.71-0.14,1.35,0.12,1.99-0.14c0.64-0.26,1.05-0.81,1.72-0.89c0.31-0.04,0.52,0.12,0.82,0.15
			c0.6,0.06,1.15-0.03,1.72-0.25c2.09-0.82,3.69-2.09,5.1-3.82c0.2-0.24,0.36-0.5,0.66-0.59c0.3-0.09,0.56,0.1,0.53,0.39
			c0.24-0.88,0.69-2.21,1.74-2.25c1.05-0.04,1.4,1.14,2.39,1.25c0.27,0.03,0.46-0.06,0.77-0.03c0.31,0.04,0.6,0.24,0.9,0.42
			c1.05,0.62,2.18,0.9,3.37,0.63c0.55-0.12,1.09-0.42,1.57-0.45c0.48-0.03,0.79,0.07,1.17,0.15c1.88,0.4,3.68,0.64,5.59,0.71
			c-0.54,0.3-1.13,0.33-1.65,0.66c-6.86,4.37-13.57,4.17-21.49,3.52c-2.3-0.19-3.91,2.49-6.09,3.08c-1.53,0.42-2.47,0.73-3.35,2.18
			c-0.7,1.15-1.32,2.76-2.81,3.12C56.85,69.19,55.55,67.02,53.44,67.47z"/>
		<path class="st6" d="M48.01,65.28c0.09,0.86,0.54,1.54,1.43,1.65c-0.03,0.53-0.55,0.69-0.96,0.85c-0.41,0.17-0.88,0.56-0.61,1
			c-5.32-0.31-10.04-2.02-14.87-4.18c0.14,0.96-0.85,1.41-1.7,1.22c-0.85-0.19-1.47-0.91-2.38-1.03c-1.36-0.18-2.51,0.62-3.52,1.47
			c-2.96,2.47-5.9,4.93-8.88,7.37c0.37-0.97,0.88-1.76,1.61-2.49c-0.98,0.17-1.73,0.58-2.38,1.33c0.85-1.29,1.69-2.57,2.53-3.86
			c-4.22,2.35-7.25,5.42-9.54,9.65c-0.31-0.8-0.49-1.59-0.53-2.44c-0.22,0.23-0.43,0.45-0.65,0.68c-0.07-3.62,1.83-6.13,5.15-7.49
			c-0.36,0.51-0.73,1.01-1.09,1.52c0.94-0.39,1.87-0.78,2.81-1.17c-0.23,0.27-0.46,0.55-0.69,0.82c0.99-1.13,1.98-2.25,2.98-3.38
			c-0.61,0.2-1.22,0.39-1.83,0.59c1.61-0.82,3.27-1.32,5.05-1.57c1.04-0.15,2.1-0.08,3.06-0.52c1.79-0.83,3.01-2.47,4.96-3
			c-0.29,0.05-0.57,0.11-0.86,0.17c0.88-0.65,1.81-0.83,2.87-0.56c0.05-0.43,0.1-0.87,0.14-1.29c-0.11,0.8,0.56,1.42,1.38,1.25
			c0.82-0.18,1.19-1,1.27-1.77c0.21,0.52,0.56,0.86,1.1,1.05c0.18-0.6,0.46-1.09,0.89-1.54c0.08,0.9,0.87,1.4,1.76,1.34
			c0.89-0.05,1.56-0.57,2.3-1.03c0.75-0.46,1.51-0.88,2.42-0.86c-0.08,0.6-0.28,1.13-0.57,1.66c0.59,0.16,0.41,0.9,0.02,1.22
			c-0.39,0.33-0.98,0.48-1.23,0.99c0.73,0.2,1.35,0.07,1.93-0.42c-0.07,0.36-0.14,0.71-0.21,1.07c1.28-0.41,2.04-1.29,2.32-2.6
			c-0.32-0.05-0.65-0.09-0.98-0.13c0.1-0.58,0.34-1.03,0.74-1.46c-0.17-0.19-0.34-0.39-0.51-0.58c0.67-0.46,1.34-0.73,2.13-0.88
			c-0.07,1.54,0.13,2.98,0.57,4.44c0.23-0.22,0.33,0.2,0.48,0.43c0.58,0.89,1.79,0.09,2.68,0.09C48.3,63.67,47.92,64.42,48.01,65.28
			z"/>
		<path class="st7" d="M33.14,52.95c-0.47,1.89-0.48,3.67-0.05,5.58c-0.51-0.29-1.05-0.59-1.56-0.87c0.37,1.5,2.15,2.78,1.55,4.38
			c-0.25,0.67-1.25,0.58-1.78,0.25c-0.53-0.33-0.91-0.96-1.21-1.51c-0.2,0.88-0.66,1.5-1.46,1.94c-0.18-1.08-0.38-2.15-0.58-3.22
			c-0.17,0.28-0.35,0.56-0.52,0.84c-0.04-0.78-0.09-1.55-0.12-2.33c-0.19,0.21-0.38,0.42-0.56,0.63c0.05-0.32,0.11-0.65,0.17-0.97
			c-0.12,0.28-0.24,0.56-0.36,0.84c0.03-0.34,0.06-0.68,0.1-1.02c-0.05,0.35-0.3,0.56-0.66,0.56c0.84-1.76,1.13-3.43,0.96-5.37
			c-1.04,2.55-1.51,5.07-1.39,7.82c-0.85-0.34-1.35-0.92-1.56-1.81c-0.27,1.35-0.34,2.66-0.19,4.03c-0.7-1.33-1.13-2.67-1.33-4.16
			c-0.03,1.48-0.19,2.93-0.44,4.39c-0.6-1.81-0.75-3.52-0.49-5.4c-0.42,0.84-0.85,1.68-1.25,2.53c0.01-0.73,0.03-1.46,0.05-2.19
			c-0.51,0.55-1.05,1.04-1.66,1.48c-0.1-0.42-0.05-0.79,0.16-1.17c-0.58,0.56-1.16,1.12-1.74,1.67c-0.06-0.25-0.12-0.51-0.18-0.76
			c-1.18,1.36-2.43,2.6-3.81,3.75c0.41-1.22,0.84-2.44,1.27-3.66c-1.5,2.07-3.26,3.33-5.73,4.01c0.74-0.32,1.48-0.65,2.22-0.97
			c-1.92,1.34-3.43,2.89-4.72,4.84c1.07-1.13,2.21-2.15,3.46-3.08c-2.92,3.7-5.63,7.57-8.1,11.58c0.79-1.91,1.88-3.44,3.39-4.85
			c-1.08,1.86-2.03,3.63-2.36,5.78c0.79-1.83,1.78-3.46,3.03-5.01c-0.52,0.97-1.04,1.94-1.56,2.91c1.41-1.89,2.99-3.64,4.67-5.29
			c-0.44,1.02-0.88,2.04-1.34,3.06c0.95-1.25,2-2.24,3.33-3.09c-1.02,1.84-2.02,3.68-3.1,5.49c0.88-1.49,1.8-2.95,2.78-4.38
			c-0.07,0.55-0.14,1.11-0.21,1.66c0.32-0.63,0.73-1.13,1.28-1.58c-0.22,0.87-0.5,1.71-0.85,2.54c0.66-1.61,1.53-2.94,2.55-4.38
			s2.11-2.98,3.15-4.44c-0.34-0.01-0.59,0.14-0.75,0.44c0.62-1.15,1.35-2.2,2.2-3.19c-0.26,0.68-0.41,1.35-0.43,2.08
			c0.53-0.59,1.07-1.19,1.6-1.78c0.01,0.4,0.01,0.8,0.03,1.19c0.3-0.23,0.6-0.47,0.9-0.7c0.06,0.26,0.11,0.53,0.17,0.79
			c1.29-0.31,2.35,0.13,2.94,1.33c0.58-0.46,1.1-0.97,1.57-1.54c-0.07,0.57-0.14,1.14-0.2,1.71c0.33-0.79,0.73-1.54,1.18-2.27
			c0.63,0.24,1.24,0.48,1.89,0.71c0.64,0.24,1.37,0.5,2.05,0.48c0.68-0.01,1.24-0.22,1.88-0.07c0.37,0.09,0.62,0.34,1,0.37
			c0.7,0.07,1.26-0.36,1.79-0.78c0.72-0.57,1.43-1.16,2.14-1.72c-0.61-0.11-1.02-0.63-1-1.24c0.02-0.61,0.3-1.1,0.56-1.63
			c-0.22,0.39-0.49,0.7-0.75,1.09c-0.11-1.02-0.94-0.47-1.41-1.31C32.98,56.63,33.26,54.51,33.14,52.95z"/>
		<path class="st8" d="M120.25,11.21c-0.72-4.85-4-8.41-8.41-10.15c-4.41-1.73-8.76-0.58-12.37,1.57c-3.62,2.15-6.11,5.02-7.61,8.59
			c-1.7,4.01-1.54,7.44-0.63,11.43c0.9,3.99,3.59,6.94,5.27,10.53c0.93,2,1.78,4.28,2.14,6.41s0.39,4.43-0.52,6.28
			c-0.92,1.86-2.45,3.64-4.69,3.29c-3.06-0.47-3.77-3.44-4.81-6.19c-1.52-3.99-2.73-8.41-6.77-11.02
			c-4.72-3.05-10.45-2.69-16.03-2.02c-3.47,0.42-7.19,0.92-10.65,2.01c-6.83,2.16-13.22,5.76-20.37,7.06
			c0.25,1.01,0.78,1.67,1.66,2.2c-5.45,1.59-8.79,6.17-13.72,8.75c-0.34,0.18-0.73,0.28-0.9,0.63c-0.17,0.35,0.08,0.75,0.46,0.64
			c-0.8,0.29-1.61,0.57-2.42,0.89c-0.55,1.97-1.65,3.76-3.17,5.06c-1.51,1.3-2.91,2.31-4.28,3.65c-1.08,1.05-2.24,1.61-3.68,1.98
			c0.93,0.31,1.77,0.29,2.69-0.07c-0.49,0.62-0.89,1.27-1.21,1.99c1.42-1.09,2.5-2.33,3.4-3.87c0.1,0.47,0.21,0.93,0.32,1.4
			c1.11-0.97,2.14-2.02,3.1-3.14c0.18,0.58,0.2,1.11,0.07,1.7c0.82-0.55,1.47-1.19,2.02-2.01c0.42,0.19,0.83,0.3,1.29,0.36
			c0.43-0.49,0.88-0.96,1.32-1.44c-0.22,1.85-0.1,3.56,0.39,5.35c0.02-1.27,0.26-2.42,0.71-3.61c0.22,1.11,0.71,1.96,1.56,2.72
			c-0.16-0.65-0.13-1.24,0.09-1.87c-0.01,0.46,0.27,0.75,0.73,0.78c0.08-3.47,0.89-6.57,2.49-9.65c-0.46,0.99-0.33,1.9-0.23,2.95
			c0.1,1.06-0.04,2.02-0.86,2.76c0.65-0.22,1.22-0.54,1.75-0.97c0.56,2.81,1.96,4.76,4.35,6.33c-0.45-0.76-0.71-1.53-0.81-2.41
			c0.28-0.02,0.55-0.03,0.83-0.05c0.07-0.48,0.06-0.93-0.06-1.4c0.49,0.53,1.02,0.92,1.67,1.23c-0.43-0.52-0.87-1.04-1.3-1.56
			c0.4,0.03,0.79,0.06,1.19,0.1c-0.3-0.41-0.61-0.81-0.92-1.21c0.17,0.22,0.4,0.28,0.67,0.2c-0.55-1.01-0.57-1.95-0.12-3.01
			c1.03,1.12,1.09,2.37,0.3,3.64c0.5,0.24,0.99,0.02,1.17-0.5c0.1,0.42,0.07,0.79-0.08,1.19c0.84-0.51,1.35-1.16,1.6-2.11
			c0.14,0.37,0.29,0.74,0.43,1.1c0.26-0.23,0.51-0.46,0.77-0.69c-0.55,1.24-1.38,1.95-2.65,2.43c0.29,0.49,0.83,0.6,1.31,0.29
			c-0.25,0.3-0.49,0.61-0.74,0.91c1.56,0.1,2.73-0.47,3.63-1.74c0.11,0.29,0.22,0.58,0.33,0.87c0.72-0.72,1.44-1.44,2.16-2.16
			c0.14,1.88-0.56,3.36-2.11,4.44c0.36,0.28,0.73,0.44,1.19,0.48c-0.21,0.24-0.43,0.47-0.64,0.71c0.81,1.2,2.2,1.1,3.43,0.58
			c1.23-0.52,2.28-1.35,3.66-1.28c0.78,0.04,1.38,0.46,2.16,0.56c0.78,0.1,1.56-0.15,1.89-0.93c0.25,0.24,0.22,0.55,0.01,0.81
			c0.65-0.2,1.19-0.5,1.7-0.95c-0.06,0.53,0.37,0.85,0.86,0.64c-0.17,0.33-0.42,0.61-0.6,0.94c0.86-0.03,1.61-0.24,2.38-0.64
			c-0.1,0.31-0.19,0.61-0.29,0.92c0.75-0.18,1.49-0.37,2.23-0.55c-0.41,0.3-0.46,0.99,0.02,1.26c0.48,0.27,1,0,1.4-0.31
			c0.41-0.32,0.7-0.83,1.11-1.17c1.55-1.25,3.3-1.42,5.23-1.48c0.35-0.01,0.64,0,0.98-0.02c0.55-0.03,1.07,0,1.6-0.17
			c0.97-0.29,1.83-0.89,2.63-1.5c1.58-1.2,3.01-2.57,4.37-3.98c0.64-0.66,1.3-1.33,2.24-1.2c0.35,0.05,0.52,0.3,0.8,0.45
			c0.72,0.38,1.5,0.53,2.3,0.6c6,0.53,11.52,1.4,17.38-0.67c2.58-0.91,4.42-3.42,5.85-5.79c1.61-2.66,2.01-5.74,1.43-8.74
			c-0.58-3.01-2.11-5.56-3.3-8.21c-0.74-1.65-1.77-3.07-2.51-4.6c-1.86-3.88-4.02-7.11-3.8-11.65c0.22-4.54,4.09-8.29,8.55-9.34
			c2.89,3.97,6.08,7.55,9.98,10.55c0.33-1.54,0.31-2.97,0.03-4.53c-0.06-0.35-0.19-0.66-0.08-1.06c0.11-0.39,0.49-0.61,0.89-0.78
			c0.1-0.04,0.16,0.01,0.26-0.17c0.1-0.18-0.08-0.6-0.34-0.74c-0.26-0.14-0.61-0.27-0.83-0.47c-0.43-0.39-0.63-1.04-0.3-1.54
			c0.46-0.71,1.23-0.82,2.03-0.5c0.79,0.32,1.42,1.12,1.5,2c0.04,0.4,0.01,0.85,0.22,1.12c0.21,0.27,0.47,0.3,0.7,0.35
			C119,11.21,119.6,11.13,120.25,11.21z"/>
		<path class="st9" d="M39.09,49.91c-0.91,1.78-0.6,3.55-0.71,5.44c-0.57-0.64-0.98-1.34-1.2-2.18c-0.07,1.63-0.14,3.26-0.2,4.89
			c-0.38-0.11-0.66-0.31-0.89-0.63c-0.43,0.6-0.86,1.19-1.29,1.79c-0.61-2.19-0.89-4.33-0.83-6.6c-0.78,0.98-1.08,1.99-0.85,3.23
			c-0.39-1.81-0.76-3.62-1.14-5.44c-0.12,3.04,0.41,5.69,1.64,8.47c-0.36-0.38-0.72-0.76-1.09-1.14c0.17,0.75,0.45,1.42,0.86,2.06
			c-0.39-0.43-0.71-0.88-0.99-1.38c0.08,0.93,0.17,1.88,0.23,2.81c0.02,0.3,0.07,0.66-0.19,0.86c-0.56,0.43-1.15-0.09-1.48-0.66
			c-1.18-2.1-1.85-4.28-2.09-6.69c-0.38,0.52-0.76,1.04-1.14,1.56c-0.06-0.78-0.13-1.56-0.21-2.34c-0.07,0.32-0.23,0.55-0.52,0.72
			c-0.13-1.66,0.11-3.15,0.66-4.72c-1.19,3.36-1.83,6.67-1.89,10.24c-0.29-0.29-0.58-0.58-0.87-0.88c-0.39,1-0.78,2.01-1.17,3.01
			c-0.16-0.44-0.32-0.89-0.48-1.33c0.05,0.73-0.06,1.38-0.33,2.07c-0.2-1.25-0.39-2.51-0.58-3.76c-0.17,1.44-0.42,2.87-0.71,4.29
			c-0.61-2.04-0.63-3.96-0.18-6.04c-0.42,0.63-0.91,1.17-1.47,1.67c0.19-0.58,0.27-1.15,0.23-1.76c-0.46,0.15-0.91,0.31-1.37,0.47
			c1.21-2.64,2.77-4.93,4.75-7.06c-0.69,0.13-1.22,0.41-1.72,0.9c2.81-3.31,6.12-5.68,9.81-7.96c3.69-2.28,7.37-4.51,11.57-5.78
			c4.2-1.27,8.65-1.64,12.69-3.45c-3.4,1.95-5.74,5.1-8.66,7.6C44.38,44.7,40.87,46.42,39.09,49.91z"/>
		<path class="st9" d="M83.48,40.03c-0.39,2.91-2.41,4.57-4.84,5.78c-0.62,0.31-1.31,0.3-1.82,0.8c-1.29,1.3-1.01,3.15-1.62,4.78
			c-0.21,0.56-0.66,1.03-1.11,1.38c-0.45,0.35-0.81,0.45-1.25,0.84c-0.44,0.39-0.68,0.97-1.08,1.47c-1.2,1.49-2.72,2.3-4.67,2.35
			c1.33-1.11,2.51-2.31,3.58-3.67c-1.12,0.42-2.15,0.48-3.3,0.13c0.8-0.32,1.6-0.64,2.4-0.95c-0.78,0.16-1.42,0.01-1.98-0.56
			c2,0.04,3.58-0.61,5.02-1.98c-7.33,0.28-12.8-2.18-17.44-7.85c3.03,1.45,6.03,2.89,9.04,4.38c1.21,0.6,2.36,1.07,3.74,0.96
			c-3.34-1.81-6.36-3.66-8.7-6.7c1.62,0.89,3.23,1.79,4.84,2.69c-0.57-0.79-1.13-1.59-1.72-2.36c2.71,2.29,5.53,3.23,9.08,3.12
			c-2.47-0.79-4.18-2.18-5.41-4.46c2.04,1.43,4.14,2.38,6.57,2.95c-1.8-1.07-2.96-2.44-3.8-4.34c0.68,0.39,1.36,0.79,2.03,1.19
			c-0.58-0.67-1.18-1.32-1.77-1.98c2.91,1.32,5.82,2.12,9,2.48c-0.8-0.04-1.49-0.25-2.17-0.67c0.86-0.33,1.49-0.85,1.98-1.63
			c-0.44,0.02-0.88,0.06-1.32,0.09c0.59-0.42,1.03-0.91,1.39-1.53c-0.54,0.02-0.97-0.17-1.25-0.64c0.67,0.09,1.18-0.54,0.99-1.19
			c-0.19-0.65-0.85-0.87-1.42-1.12c0.35-0.7,1.17-1.19,1.99-0.99C81.75,33.61,83.92,36.75,83.48,40.03z"/>
		<path class="st10" d="M116.98,6.99c-0.69-1.14-1.55-2.12-2.73-2.45c-1.18-0.32-2.2,0.24-2.49,1.4c-0.29,1.16,0.27,2.25,0.96,3.26
			c0.69,1.01,1.82,2.01,2.71,2.88c0.17,0.16,0.36,0.38,0.59,0.28c0.24-0.1,0.18-0.45,0.06-0.69c-0.35-0.74-1.07-1.52-1.55-2.14
			c-0.47-0.62-0.75-1.71,0-2c0.74-0.29,1.25,0.38,1.78,0.72c0.21,0.14,0.45,0.4,0.52,0.63c0.13,0.44-0.3,0.89-0.33,1.26
			c-0.08,0.9,1.38,2.69,1.84,1.24C118.8,9.93,117.67,8.13,116.98,6.99z"/>
		<path class="st11" d="M114.29,29.3c0.38-0.97,0.75-1.88,1.13-2.87c0.19-0.49,0.35-0.98,0.19-1.54c-0.15-0.56-0.7-1.02-0.85-1.6
			c-0.42-1.56,0.9-3.04,0.16-4.54c-0.33-0.67-1.07-0.76-1.71-1.16c-1.38-0.87-2.3-2.23-3.26-3.54c-1.24-1.69-2.48-3.38-3.71-5.06
			c-0.33-0.45-0.68-0.78-1.16-1.02c-0.27-0.14-0.59-0.14-0.87-0.18c-2.48-0.36-4.56,0.48-6.14,2.16c-1.58,1.68-1.91,2.99-2.33,4.92
			c-0.42,1.93-0.22,3.53,0.25,5.33c0.59,2.24,2.06,4.02,2.95,6.19c0.6,1.47,1.24,2.93,2.02,4.41c0.56,1.05,1.33,1.86,1.89,3.08
			c2.3,4.97,2.26,9.61,0.86,14.93c-0.33,1.24-0.62,2.41-1.46,3.47c-0.84,1.06-2.11,1.87-3.24,2.64c-0.08,0.1-0.27-0.28-0.33-0.18
			c-2.27,0.46-4.28,0.56-6.27,1.99c-6.31,4.54-23.79,8.6-30.86,8.25c-2.43-0.12-0.66,2-1.5,2.65c-0.84,0.64-1.09,1.61-2.19,1.34
			c-1.1-0.28-0.91-1.23-1.8-1.84c-0.89-0.61-2.16-0.24-2.73,0.77c-1.8-1.71-3.98-1.2-5.45,0.63c-2.38,1.03-4.43,0.51-6.68-0.39
			c-2.25-0.9-4.09-2.01-6.31-2.87c-0.55-0.21-1.13-0.27-1.69-0.03c-0.28,0.12-0.4,0.39-0.71,0.52c-1.07,0.44-1.78-0.37-2.82-0.69
			c-2.16-0.65-4.11,0.35-5.73,1.8c-1.62,1.45-2.93,3.09-4.89,4.08c-0.75,0.38-1.53,0.56-2.11,1.18c-0.35,0.37-0.46,0.82-0.73,1.25
			c-0.88,1.36-2.14,2.14-3.53,2.93c0.26-0.96,0.61-1.85,1.05-2.74c-0.45,0.46-0.95,0.74-1.58,0.9c0.31-1.59,1.06-2.76,2.34-3.76
			c-2.61,1.39-4.31,3.33-5.14,6.17c-0.25,0.86-0.27,1.59-1.01,2.17c-0.62-1.22-0.85-2.38-0.69-3.74c-0.35,0.05-0.69,0.1-1.04,0.15
			c0.88-1.78,1.89-3.49,2.99-5.15c-1.27,1.04-2.55,2.05-3.89,3.01c-0.71,0.51-1.34,1.02-1.56,1.89c0.12-0.44,0.24-0.87,0.36-1.31
			c-0.66,0.71-1.14,1.48-1.48,2.39c0.01-0.5,0.02-1,0.03-1.49c-0.84,0.81-1.49,1.69-2,2.74c-0.06-1.04,0.13-1.96,0.58-2.9
			C1.32,74.9,0.94,75,0.47,74.93c0.41-0.93,0.96-1.7,1.68-2.41C2.23,72.68,2.3,72.84,2.37,73c1.2-2.04,2.62-3.88,4.23-5.61
			c-0.54,0.54-1.08,1.09-1.64,1.62c1.44-2.5,3.24-4.37,5.67-5.95c-0.71,0.14-1.42,0.29-2.12,0.43c4.02-3.34,8-6.75,12.05-10.05
			c-0.21,0.07-0.63-0.14-0.52-0.41c0.25-0.62,0.74-1,1.34-1.31c0.27-0.14,0.48-0.15,0.8-0.34c0.31-0.19,0.63-0.29,0.73-0.72
			c1.72-6.95,8.5-8.93,14.72-12.9c8.81-5.62,19.95-9.85,31.1-8.12c4.12-0.66,8.06-0.16,11.7,1.64c3.64,1.8,6,4.62,7.41,8.18
			c1.05,2.65,0.98,5.36,2.77,7.48c1.15,1.37,2.53,1.53,4.09,2.07c3.01-3,4.48-6.97,3.68-11.12s-3.36-7.23-4.9-11.06
			c-2.22-5.49-3.16-10.21-0.65-15.9c1.35-3.06,4.37-4.85,7.37-6.73c3.01-1.88,6.6-3.27,10.39-3c1.26,0.09,2.65,0.49,3.76,1.22
			c1.56,1.01,2.89,2.43,3.81,4.1c2.65,4.8,4.06,9.97,5.21,15.28c0.23,1.09,0.39,1.94,0.29,3.05c-0.1,1.11-0.71,2.16-1.24,3.14
			c-0.46,0.04-0.97-0.09-1.41,0c-0.21,0.04-0.31,0.38-0.5,0.48c1.31-2.3,1.41-4.43,0.53-7s-2.59-4.83-4.37-6.92
			c-0.09,1.68,1.24,2.83,2.09,4.18c1.08,1.7,1.44,3.82,1.18,5.74c-0.26,1.92-1.07,3.28-1.88,4.94c-0.08-0.36-0.41-0.46-0.74-0.34
			c-0.32,0.12-0.43,0.4-0.76,0.57C115.85,30.03,114.88,29.91,114.29,29.3z"/>
		<path class="st12" d="M106.98,10.22c-0.9-1.18-1.81-2.07-3.3-2.36c-1.12-0.22-1.94,0.02-3.02,0.2c0.89-1.21,2.42-0.87,3.42-1.82
			s0.98-2.46,2.02-3.4c0.08,4.84,2.43,8.29,5.89,11.71c0.38,0.37,2.36,1.77,2.24,2.44c-0.19,1.11-1.45-0.19-1.83-0.55
			C110.42,14.57,108.64,12.39,106.98,10.22z"/>
		<path class="st13" d="M115.69,11.74c-0.59-0.22-1.01-0.81-1.28-1.36c-0.15-0.31-0.05-0.64-0.26-0.97
			c-0.21-0.33-0.57-0.49-0.85-0.87c-0.28-0.38-0.27-1.06,0.23-1.32c0.5-0.26,1.06-0.29,1.59-0.16c1.19,0.29,3.12,2.38,2.12,3.53
			C116.82,11.06,116.28,11.96,115.69,11.74z"/>
		<path class="st13" d="M115.94,8.42c0.32,0.33,0.75,0.87,0.62,1.33c-0.12,0.46-0.5,0.49-0.89,0.41c-0.39-0.08-0.81-0.37-1.13-0.62
			c-0.31-0.25-0.71-0.52-0.74-0.94s0.17-0.66,0.69-0.74c0.52-0.08,1.32,0.16,1.76,0.57"/>
		<path class="st14" d="M116.18,8.64c0.15,0.69-0.48,1.1-1.06,0.86c-0.58-0.24-1.03-1.09-0.52-1.56c0.51-0.47,1.33,0.1,1.56,0.61"/>
		<path class="st13" d="M113.49,15.27c0.12,0.83,0.7,1.34,0.89,2.15c0.2,0.81,0.1,2.29,0.07,3.04c-0.03,0.75,0.21,2.22,0.3,2.54
			c0.62,2.2,0.61,3.63,0.01,5.6c-0.14,0.48-0.36,0.78-0.07,1.2c0.3,0.42,0.89,0.28,1.29,0.04c0.4-0.24,0.78-0.59,1.27-0.6
			c0.26-0.01,0.53,0.12,0.76,0.06c0.23-0.06,0.35-0.14,0.5-0.3c1.98-2.2,2.52-4.57,1.4-7.35c-0.54-1.35-1.67-2.49-2.29-3.8
			c-0.11-0.24-0.19-0.56-0.05-0.71c0.14-0.14,0.22-0.11,0.36-0.06c0.99,0.31,1.65,1.1,2.07,2.03c1.42,3.16,1.67,6.07,0.36,9.3
			c0.58,0.18,0.94-0.29,1.22-0.74c0.27,0.16,0.44,0.36,0.54,0.66c1.15-0.96,1.39-2.16,1.29-3.65c-0.24-3.67-1.1-7.22-2.2-10.78
			c-0.23-0.74-0.48-1.5-1.18-2.07c-0.7-0.57-1.97-0.79-2.36-1.76c-0.11-0.28-0.04-0.56-0.11-0.85c-0.33-1.39-1.54-2.31-2.97-2.09
			c0.9,0.27,2.02,0.79,2.37,1.67c0.94,2.38-1.01,1.21-2.22,2.04C113.54,11.68,113.29,13.96,113.49,15.27z"/>
		<path class="st13" d="M114.33,10.32c0.73,2.07-1.04,3.66-0.66,5.77c0.12,0.68,0.8,1.21,0.99,1.89c0.46,1.65-0.28,3.37,0.21,5.01
			c0.16,0.53,0.58,1.1,0.68,1.56c0.09,0.46,0.04,0.81-0.04,1.15c-0.6,2.62-1.38,5.12-2.34,7.57c-0.38,0.98-0.88,1.75-1.15,2.75
			c-0.04,0.14-0.1,0.3-0.03,0.45c0.28,0.66,1.09,0.55,1.66,0.22c2.53-1.49,4.72-3.36,6.8-5.45c1.15-1.16,2.26-2.33,2.79-3.9
			c0.53-1.58,0.32-3.12,0.19-4.78c-0.08-0.97-0.33-1.95-1.11-2.63c-0.07,0.73-0.15,1.46-0.24,2.19c-0.65-0.24-0.89-0.83-1.07-1.45
			c-0.18-0.62-0.21-1.31-0.53-1.88c-0.52-0.94-1.45-1.57-1.83-2.58c-0.13-0.36-0.11-0.75-0.31-1.06c-0.5-0.76-1.6-1.13-1.72-2.07
			c-0.04-0.31,0.28-0.5,0.17-0.81C116.42,11.2,114.95,11.25,114.33,10.32z"/>
		<path class="st15" d="M116.64,34.6c-0.63,0.71-1.15,1.38-1.97,1.88c-0.82,0.5-1.71,0.6-2.62,0.27c0.79-2.32,1.59-4.63,2.39-6.94
			c0.36-1.82,2.04-0.3,3.25-0.76c1.72-0.74,2.87-1.9,3.09-3.88c0.22-1.98-0.54-3.9-1.6-5.63c-0.85-1.38-2.02-2.64-2.47-4.24
			c3.74,3.64,5.35,8.11,3.73,13.17c0.43-0.5,1.15-0.64,1.54-1.18c1.29,1.16-0.34,2.03-1.1,2.72C119.21,31.49,118.04,33,116.64,34.6z
			"/>
		<path class="st16" d="M121.81,21.25c-0.86-1.02-1.31-2.12-1.35-3.45c0.5,1.06,0.98,2.14,1.4,3.23c0.07,0.18,0.13,0.39-0.05,0.51"
			/>
		<g>
			<g>
				<path class="st17" d="M116.02,7.99c-0.03-0.02-0.05-0.04-0.08-0.06c0.14,0.14,0.29,0.29,0.43,0.43
					c-0.02-0.03-0.03-0.06-0.05-0.09c0.04,0.31,0.08,0.62,0.12,0.93c0.01-0.03,0.01-0.06,0.02-0.1c-0.18,0.24-0.37,0.48-0.55,0.72
					c0.03-0.02,0.05-0.03,0.08-0.05c-0.2,0.05-0.41,0.11-0.61,0.16c0.03,0,0.06,0.01,0.09,0.01c-0.2-0.05-0.41-0.11-0.61-0.16
					c0.03,0.02,0.06,0.03,0.09,0.05c-0.14-0.14-0.29-0.29-0.43-0.43c-0.03-0.11-0.06-0.23-0.09-0.34c0.05-0.2,0.11-0.41,0.16-0.61
					c-0.01,0.01-0.01,0.03-0.02,0.04c0.35-0.2,0.69-0.4,1.04-0.6c-0.02,0-0.03,0-0.05,0c0.2,0.05,0.41,0.11,0.61,0.16
					c-0.06-0.04-0.04-0.03,0.05,0.03c0.12,0.28,0.24,0.57,0.35,0.85c0-0.03,0-0.06-0.01-0.09c-0.2,0.35-0.4,0.69-0.6,1.04
					c0.02-0.01,0.05-0.02,0.07-0.04c0.58-0.3,0.75-1.11,0.43-1.65c-0.34-0.59-1.07-0.73-1.65-0.43c-0.02,0.01-0.05,0.02-0.07,0.04
					c-0.35,0.18-0.63,0.64-0.6,1.04c0.06,0.75,0.62,1.46,1.43,1.45c0.92-0.01,1.42-0.93,1.18-1.75c-0.25-0.87-1.33-1.29-2.09-0.81
					c-0.39,0.25-0.61,0.68-0.61,1.14c0,0.53,0.33,0.89,0.72,1.19c0.52,0.4,1.35,0.08,1.65-0.43C116.81,9.02,116.54,8.39,116.02,7.99
					L116.02,7.99z"/>
			</g>
		</g>
		
			<linearGradient id="SVGID_1_" gradientUnits="userSpaceOnUse" x1="94.2806" y1="35.7585" x2="98.5826" y2="47.5783" gradientTransform="matrix(-0.9977 0.0675 0.0675 0.9977 211.8165 -24.3366)">
			<stop  offset="0.1015" style="stop-color:#FFFBF4"/>
			<stop  offset="0.1425" style="stop-color:#FCE9DF"/>
			<stop  offset="0.2334" style="stop-color:#F8C7B7"/>
			<stop  offset="0.3303" style="stop-color:#F3AA94"/>
			<stop  offset="0.4325" style="stop-color:#F09278"/>
			<stop  offset="0.5418" style="stop-color:#ED7F62"/>
			<stop  offset="0.6616" style="stop-color:#EB7253"/>
			<stop  offset="0.8001" style="stop-color:#EA6A4A"/>
			<stop  offset="1" style="stop-color:#EA6847"/>
		</linearGradient>
		<path class="st18" d="M119.8,28.37c-1.69,1.15-3.23,1.34-5.2,0.82c0.13-1.84,0.17-3.85,0.91-5.57c0.76-2.2,1.6-4.38,2.41-6.56
			C120.31,20.45,122.11,24.52,119.8,28.37z"/>
		<path class="st19" d="M85.55,59.91c-7.75,2.59-15.66,4.46-23.76,5.62c-2.07-1.22,9.63-6.39,14.36-8.79
			C79.32,57.69,82.46,58.75,85.55,59.91z"/>
		<g>
			<path class="st20" d="M123.22,21.7c-0.78-3.78-1.77-7.5-3.19-11.14c-0.98-4.6-4.07-7.96-8.4-9.63
				c-4.33-1.67-8.75-0.55-12.35,1.61s-6.1,5.05-7.61,8.62c-1.7,4.02-1.53,7.46-0.64,11.46c0.89,4,3.54,6.96,5.25,10.57
				c0.96,2.02,1.71,4.21,2.15,6.43c0.02,0.08,0.04,0.16,0.04,0.24c-0.16,3.59-1.32,6.65-3.94,9.19c-1.53-0.54-2.97-0.71-4.1-2.07
				c-1.74-2.1-1.84-4.85-2.77-7.47c-0.82-2.32-2.28-4.3-4.12-6.03c-0.58-0.55-1.11-1.11-1.81-1.56c-1.91-1.22-4-1.87-6.23-2.24
				c-2.23-0.38-4.28-0.43-6.5-0.09c-0.21,0.03-0.42,0.02-0.63,0.05c-11.61-1.35-21.47,2.19-31.21,8.32
				c-0.42,0.27-0.87,0.68-1.33,0.89c-0.38,0.17-0.85,0.11-1.25,0.23c0.03,0.17,0.09,0.34,0.15,0.51
				c-4.41,2.72-10.45,4.99-11.97,10.34c-0.07,0.03-0.15,0.07-0.23,0.1c-0.33,0.14-0.73,0.29-0.9,0.62
				c-0.16,0.33,0.05,0.67,0.39,0.67c-0.78,0.28-1.56,0.56-2.34,0.86c-0.27,1.03-0.67,1.96-1.23,2.87c-3.03,2.52-6.02,5.09-9.05,7.6
				c-0.28,0.09-0.56,0.17-0.84,0.22c0.08,0.06,0.35,0.08,0.39,0.14c0.03,0.04-0.18,0.15-0.21,0.18c-0.03,0.04-0.13,0.05-0.15,0.07
				c-0.02,0.02,0.13-0.06,0.08-0.01c-0.05,0.05-0.27,0.22-0.35,0.29c0.36-0.07,0.72-0.15,1.09-0.22c-1.09,0.92-2.01,1.97-2.87,3.1
				c-0.65,0.86-1.26,1.68-1.77,2.64c0.55-0.54,1.09-1.08,1.64-1.62c-1.61,1.73-3.04,3.56-4.23,5.6c-0.07-0.16-0.14-0.32-0.21-0.48
				c-0.73,0.71-1.27,1.48-1.68,2.41c0.46,0.07,0.85-0.03,1.2-0.34c-0.46,0.94-0.64,1.86-0.58,2.9c0.49-1.02,1.12-1.87,1.92-2.67
				c-0.17,0.56-0.29,1.11-0.35,1.69c0.13-0.32,0.27-0.63,0.41-0.94c0,0.22-0.01,0.44-0.01,0.67c0.29-0.77,0.67-1.43,1.19-2.07
				c-0.04,0.08-0.08,0.16-0.13,0.24c0.13-0.17,0.26-0.36,0.39-0.52c0.01-0.01,0.03-0.04,0.03-0.03C4.28,74.19,4.19,74.5,4.1,74.8
				c0.34-0.65,0.85-1.06,1.45-1.49c0.6-0.43,1.25-0.9,1.84-1.34c0.01,0.01-0.14,0.26-0.1,0.22c0.07-0.06,0.17-0.28,0.3-0.38
				c0.6-0.49,1.24-1,1.85-1.5c-1.1,1.66-2.11,3.36-2.99,5.14c0.3-0.04,0.59-0.09,0.89-0.13c-0.02,0.4-0.02,0.82,0.04,1.21
				c0,0.02,0.04-0.07,0.05-0.04c0.08,0.91,0.32,1.74,0.76,2.55c0.6-0.47,0.76-1.08,0.91-1.8c1-1.67,2.15-3.17,3.48-4.58
				c-0.29,0.58-0.49,1.16-0.59,1.8c0.62-0.16,1.13-0.44,1.58-0.9c-0.44,0.89-0.79,1.79-1.05,2.74c1.38-0.79,2.67-1.58,3.52-2.93
				c0.27-0.42,0.43-0.91,0.72-1.24c0.29-0.33,0.51-0.43,0.86-0.64c-0.57,0.66-0.98,1.35-1.28,2.16c2.97-2.44,5.92-4.9,8.88-7.37
				c0.75-0.62,1.59-1.25,2.54-1.46c0.5-0.11,0.95-0.03,1.41,0.11c0.68,0.21,1.24,0.7,1.95,0.91c0.15,0.04,0.27,0.04,0.48,0.05
				c0.21,0.01,0.52-0.02,0.74-0.15s0.46-0.42,0.69-0.52c0.23-0.1,0.48-0.25,0.72-0.15c1.56,0.64,3.1,1.27,4.68,1.89
				c0.89,0.35,1.63,0.8,2.58,1.15c2.11,0.77,3.83,1.32,6.09,0.67c0.12-0.03,0.28-0.02,0.31,0.02c0.03,0.04-0.07,0.18-0.12,0.28
				c-3.13,6.63-6.49,13.18-9.85,19.72c-0.78,1.52-1.52,2.93-2.45,4.42c-0.93,1.49-2.12,3.06-3.07,4.56
				c-0.95,1.5-1.72,3.03-2.49,4.61c-0.18-0.05-0.54-0.16-0.68-0.19c-0.14-0.03-0.09-0.04-0.18-0.01c-0.09,0.03-0.11,0.14-0.1,0.23
				c0.03,0.38,0.17,0.69,0.44,0.97c-0.16,0.04-0.33,0.07-0.5,0.11c-0.01,0.36,0.02,0.73,0,1.09c0,0.06-0.03,0.11-0.08,0.17
				c-0.05,0.06-0.05,0.29-0.16,0.33c-0.3,0.09-0.54,0.44-0.51,0.69c0.03,0.24,0.15,0.2,0.15,0.36s-0.04,0.4-0.07,0.52
				c-0.03,0.12-0.17,0.04-0.21,0.01c-0.3,0.45,0.04,0.91,0.19,1.37c0.02,0.07,0.03,0.11,0.03,0.21s-0.02,0.21-0.11,0.33
				c-0.09,0.11-0.2,0.14-0.34,0.3c-0.14,0.16-0.23,0.53,0,0.73c0.23,0.2,0.53,0.2,0.78,0.05c0.08,0.21,0.03,0.59,0.14,0.75
				c0.08,0.12,0.44-0.07,0.53,0.01c0.09,0.08,0.14,0.1,0.17,0.23c0.03,0.13-0.03,0.5,0.11,0.59c0.08,0.05,0.2-0.16,0.29-0.16
				c0.34,0.35,0.7,0.71,1.07,1.05c3,2.8,5.97,5.61,8.71,8.69c0.43,0.74,1.04,1.6,1.57,2.23c1.58,1.91,3.1,3.83,4.54,5.8
				c1.01,0.11,2.02,0.25,3.02,0.4c-2.47-3.68-5.04-7.28-7.59-10.93c-1.89-2.7-3.74-5.37-5.38-8.26c-0.59-1.04-1.14-2.1-1.23-3.38
				c-0.11-1.63,0.47-3.16,1.05-4.71c0.5-1.33,1.02-2.66,1.55-4.03c0.76-1.94,1.56-3.91,2.58-5.77c0.6-1.08,1.33-2.13,1.96-3.22
				c0.85-1.46,1.64-2.98,2.38-4.51c2.79-5.76,5.41-11.59,8.94-16.96c0-0.02,0.22,0.11,0.19,0.06c-0.12-0.15-0.39-0.36-0.59-0.49
				c0.42,0.2,0.76,0.47,1.04,0.82c0.12-0.11,0.18-0.42,0.36-0.46c0.93-0.19,1.66,0.22,2.45,0.68c-0.05,0.29-0.06,0.59-0.06,0.88
				c0.19,8.75,0.2,17.49,0.21,26.24c-0.12-0.8-0.29-1.58-0.78-2.23c-0.45,1.12-0.3,2.54-0.3,3.66c0.01,2.25,0.1,4.37-0.15,6.54
				c-0.25,2.17-0.96,4.18-0.67,6.34c0.16,1.18,0.74,2.11,1.15,3.18c1.21,3.16,1.52,6.36,1.76,9.71c0.09-0.57,0.18-1.13,0.25-1.7
				c0.1,0.92,0.22,1.83,0.26,2.75c0.1,2.41,0.12,4.78,0.38,7.18c0.99,0.1,1.97,0.17,2.96,0.19c-0.2-4.02-0.57-8.03-0.88-12.04
				c-0.08-1.06-0.13-2.18,0.03-3.18c0.16-1,0.52-1.77,0.65-2.73c0.16-1.22-0.06-2.31-0.53-3.44c-0.01-0.03-0.06-0.05-0.03-0.08
				c0.04-0.02,0.46-0.12,0.38-0.23c-0.14-0.21-0.55-0.17-0.73-0.39c-0.18-0.22-0.32-0.53-0.42-0.84c-0.22-0.64-0.27-1.27-0.31-1.97
				c-0.21-4.37-0.53-8.37-0.59-12.85c-0.1-8.25,0.76-16.77,1.59-25.05c0.01-0.05-0.02-0.12,0.02-0.16c0.59-0.71,1.02-1.5,1.45-2.32
				c6.49-0.9,13.07-2.42,19.29-4.19c1.55-0.44,2.65-0.78,4.04-1.14c2.87-0.74,5.23-1.75,7.62-3.46c0.31-0.22,0.68-0.34,1.06-0.41
				c1.45-0.26,2.86-0.58,4.25-1.08c0.3-0.11,0.61-0.29,0.88-0.41c0.06-0.03,0.07,0.05,0.11,0.03c1.17-0.81,2.31-1.57,3.24-2.66
				c0.43-0.51,0.67-1.13,0.96-1.72c0.19-0.39,0.45-0.71,0.66-1.09c1.57-2.9,1.97-5.59,1.42-8.8c-0.21-1.26-0.67-2.23-1.09-3.39
				c-0.42-1.16-0.81-2.33-1.38-3.43c-0.28-0.54-0.67-1.02-0.93-1.55c-0.62-1.24-1.35-2.44-1.97-3.66c-0.38-0.74-0.72-1.48-0.99-2.26
				c-0.57-1.63-1.79-3.01-2.32-4.61c-0.63-1.9-1.17-3.43-0.98-5.59c0.3-3.52,2.48-6.09,5.37-8.23c0.9-0.24,1.76-0.42,2.61-0.2
				c0.85,0.22,1.45,0.38,2.02,0.97c1.02,1.05,1.78,2.23,2.8,3.3c0.23,0.24,0.39,0.47,0.65,0.78c0.26,0.31,0.57,0.76,0.86,1.14
				c0.98,1.3,1.87,2.65,3.27,3.54c0.44,0.28,0.87,0.38,1.28,0.68c-0.01,0.67-0.03,1.59-0.03,2.22c-0.01,0.63,0.12,1.33,0.15,1.8
				c0.02,0.47,0.04,0.68,0.12,0.98c0.09,0.3,0.17,0.21,0.22,0.48c0.06,0.27,0.23,0.56,0.18,0.9c-0.18,1.21-0.37,2.48-0.48,3.74
				c-0.03,0.3-0.3,0.63-0.35,0.94c-0.01,0.07,0.14,0.11,0.14,0.18c0,0.07,0.01,0.18-0.02,0.27c-0.35,1.12-0.83,2.47-1.25,3.51
				c-0.42,1.04-0.87,1.75-1.16,2.77c-0.04,0.15-0.06,0.32-0.04,0.44c0.02,0.12,0.05,0.16,0.09,0.22s-0.06,0.03-0.01,0.07
				c0.05,0.04,0.05,0.01,0.17,0.08c0.11,0.07,0.3,0.12,0.5,0.12c0.72,0.03,1.3-0.1,1.97-0.47c0.67-0.38,1.16-1.08,1.74-1.59
				c1.34-1.16,2.8-2.39,4.01-3.63s2.2-2.33,2.81-3.92c0.25-0.64,0.26-1.27,0.34-1.95c0.02-0.18,0.08-0.35,0.09-0.55
				C123.58,23.67,123.44,22.77,123.22,21.7z M53.56,67.35c0.23-0.2,0.47-0.34,0.75-0.44C54.07,67.08,53.82,67.23,53.56,67.35z"/>
			<path class="st20" d="M55.44,104.51c0.03-0.27,0.14-0.71,0.2-0.92s0.05-0.2,0.1-0.36C55.66,103.66,55.56,104.09,55.44,104.51z"/>
			<path class="st20" d="M30.12,110.65c0,0,0.01-0.01,0.01,0c0.01,0.02,0.09,0.1,0.09,0.1C30.22,110.75,30.14,110.67,30.12,110.65z"
				/>
			<path class="st20" d="M4.09,74.83c0.01,0-0.09,0.35-0.1,0.35C3.99,75.17,4.09,74.83,4.09,74.83z"/>
		</g>
	</g>
</g>
</svg>
