<!-- Generator: Adobe Illustrator 23.0.4, SVG Export Plug-In  -->
<svg version="1.1" xmlns="http://www.w3.org/2000/svg" xmlns:xlink="http://www.w3.org/1999/xlink" x="0px" y="0px"
	 width="380.28px" height="407.2px" viewBox="0 0 380.28 407.2" style="enable-background:new 0 0 380.28 407.2;"
	 xml:space="preserve">
<style type="text/css">
	.st0{fill:#F7B2B2;}
	.st1{fill:#EFD9D8;}
	.st2{fill:#F77272;fill-opacity:0.39;}
	.st3{fill:#8A6956;fill-opacity:0.35;}
	.st4{fill:#8A6956;fill-opacity:0.43;}
	.st5{fill:#8A6956;fill-opacity:0.52;}
	.st6{fill:#9D9D9C;}
	.st7{fill:#1D1D1B;}
</style>
<defs>
</defs>
<g>
	<path class="st0" d="M148.98,127.36c-2.38,0.44-9.2,45.6-10.74,76.31c-0.43,8.59-0.26,17.37-2.58,25.53
		c-0.81,2.84-2.42,5.81-2.73,8.79c0.41,0.61,0.82,1.22,1.23,1.83c-1.5,0.19-1.46,2.76-1.01,4.44c3.59,13.33,5.53,27.27,5.76,41.25
		c0.14,8.26-0.32,16.6,0.92,24.73c3.95,25.94,0.4,52.73,0.94,79.07c0.08,4.03,0.17,8.06,0.25,12.09c0.01,0.44,0.02,0.9,0.21,1.27
		c0.36,0.73,1.19,0.87,1.9,0.93c8.66,0.77,17.3,1.97,25.88,3.59c-3.22-1.78-7.34-4.45-10.8-5.46c5.25-1,10.72-0.33,15.67,1.94
		c-4.71-4.49-11.19-6.3-17.13-4.8c5.36-4.42,12.65-2.79,19.01-0.97c-1.75-2.24-4.35-3.27-6.88-3.92c-5.08-1.3-10.37-1.42-15.49-0.35
		c-1.05,0.22-2.17,0.47-3.13-0.07c-1.59-0.9-1.84-3.38-1.87-5.44c-0.37-21.43-0.7-42.86-1.01-64.3
		c-0.25-17.12-1.66-34.82-2.05-51.94c-0.07-3.16-0.14-6.36,0.43-9.45c0.5-2.68,1.47-5.21,1.91-7.91c0.56-3.41,0.22-7.01-0.94-10.2
		c-0.57-1.55-1.33-3.02-1.76-4.63c-0.49-1.86-0.51-3.84-0.52-5.79c-0.08-11.48,3.32-98.34,4.78-99.62s0.35-3.19,0.52-4.53
		C149.98,128.25,150.25,127.12,148.98,127.36z"/>
	<path class="st0" d="M178.72,127.36c-2.64,1.79-6.29-3.25-8.66-1.01c-0.96,0.91-1.06,2.55-1.08,4
		c-0.34,24.44-0.67,48.88-1.01,73.32c-0.12,8.6-0.26,17.37-2.58,25.53c-0.81,2.84-2.42,5.81-2.73,8.79
		c0.41,0.61,0.82,1.22,1.23,1.83c-1.5,0.19-1.46,2.76-1.01,4.44c3.59,13.33,5.53,27.27,5.76,41.25c0.14,8.26-0.32,16.6,0.92,24.73
		c3.95,25.94,0.4,52.73,0.94,79.07c0.08,4.03,0.17,8.06,0.25,12.09c0.01,0.44,0.02,0.9,0.21,1.27c0.36,0.73,1.19,0.87,1.9,0.93
		c8.66,0.77,17.3,1.97,25.88,3.59c-3.22-1.78-7.34-4.45-10.8-5.46c5.25-1,10.72-0.33,15.67,1.94c-4.71-4.49-11.19-6.3-17.13-4.8
		c5.36-4.42,12.65-2.79,19.01-0.97c-1.75-2.24-4.35-3.27-6.88-3.92c-5.08-1.3-10.37-1.42-15.49-0.35c-1.05,0.22-2.17,0.47-3.13-0.07
		c-1.59-0.9-1.84-3.38-1.87-5.44c-0.37-21.43-0.7-42.86-1.01-64.3c-0.25-17.12-1.66-34.82-2.05-51.94
		c-0.07-3.16-0.14-6.36,0.43-9.45c0.5-2.68,1.47-5.21,1.91-7.91c0.56-3.41,0.22-7.01-0.94-10.2c-0.57-1.55-1.33-3.02-1.76-4.63
		c-0.49-1.86-0.51-3.84-0.52-5.79c-0.08-12.21-0.17-24.43-0.25-36.64c-0.15-22.49,2.63-45.29,5.55-67.51
		C179.72,128.25,179.84,126.6,178.72,127.36z"/>
	<path class="st1" d="M248.47,10.23C243.92,4.95,238-0.15,231.04,0c-12.04,0.26-17.86,14.8-27.77,21.63
		c-12.64,8.72-29.93,3.66-43.82-2.89c-8-3.77-18.2-7.72-24.91-1.96c-2.59,2.23-4.03,5.52-6.42,7.96
		c-5.73,5.85-15.04,5.36-23.18,6.28c-13.73,1.55-26.79,8.47-35.79,18.96c19.65-2.83,40.45,3.69,54.98,17.22
		C89.6,48.86,46.58,47.43,10.91,63.43c6.29-1.92,13.15-1.95,19.46-0.06c-3.18,2-6.36,4.01-9.54,6.01
		c27.38,21.16,55.16,42.55,86.99,56.12c18.38,7.83,37.79,12.9,56.6,19.61c-2.94,1.71-5.36,4.3-6.87,7.34
		c3.43,2.05,8.04,1.92,11.34-0.32c-1.66,1.67-3.32,3.34-4.98,5.01c3.14-1.05,5.99-2.92,8.2-5.38c-0.3,1.51-0.6,3.02-0.89,4.53
		c1.04,0.94,2.7,0.09,3.67-0.92c0.97-1.01,1.99-2.3,3.39-2.25s1.8,2.74,0.41,2.56c6.21-5.54,18.28,0.63,23.4-5.94
		c1.73-2.22,2.32-5.65,4.97-6.63c3.19-1.17,8.19,1.67,9.42-1.5c-5.4,3.36-10.81,6.73-16.21,10.09c-1.03,0.64-2.2,1.6-1.94,2.78
		c0.13,0.61,0.63,1.07,1.1,1.47c11.6,9.97,26.1,15.97,38.23,25.28c9.04,6.94,16.66,15.63,25.91,22.27
		c9.26,6.65,21.03,11.2,32.03,8.2c16.92-4.61,24.73-25.21,22.53-42.62c-0.43-3.38-1.12-6.87-0.17-10.14
		c0.95-3.27,4.24-6.19,7.54-5.32c2.46,0.65,3.99,3.08,4.95,5.43c6.77,16.76-3.9,36.86,3.04,53.55
		c4.17,10.03,13.98,16.79,18.53,26.66c6.05,13.15,0.27,30.53-12.46,37.43c7.46-2.2,15.45-1.83,23.05-3.46
		c7.61-1.63,15.49-6.2,17.29-13.77c1.58-6.65-1.96-13.28-3.99-19.81c-4.88-15.71-1.2-33.61-8.5-48.35
		c-3.18-6.43-8.25-11.75-11.66-18.06c-3.98-7.36-5.54-15.76-8.57-23.55c-3.03-7.8-8.18-15.53-16.13-18.14
		c-10.17-3.35-21.4,3.07-27.5,11.87s-8.46,19.56-11.67,29.78c-1.11,3.53-2.87,7.53-6.47,8.38c-3.91,0.93-7.45-2.43-9.86-5.65
		c-7.59-10.1-12.78-21.97-15.19-34.37c-1.17-6-2.28-12.94-1.53-19.06c0.58-4.74,3.31-8.71,5.11-13.09
		c8.6-20.85,9.27-44.74,2.61-66.23C262.8,31.16,256.73,19.8,248.47,10.23z"/>
	<path class="st0" d="M357.05,214.38c-0.75-0.19-1.52-0.16-2.07,0.37c-0.97,0.92-0.36,2.7,0.82,3.35c1.14,0.63,2.63,0.63,3.81,0.22
		c0.07,0.13,0.06-1.51,0.06-1.52c-0.12,0.25-1.26,0.4-1.52,0.43c-0.09-0.05,1.14,0.81,1.09,0.7c-2.3-7.84-11.72-7.71-6.13,2.35
		c1.29,2.32,2.76,4.82,2.33,7.44c-0.48,2.93-3.25,5.25-3.17,8.22c0.06,2.19,1.67,3.98,2.7,5.91c2.52,4.69,1.64,10.62-0.91,15.29
		c-2.55,4.67-6.55,8.35-10.48,11.94c4.98,0.66,10.05,0.6,15.01-0.18c1.82-0.28,3.69-0.69,5.21-1.73c2.02-1.39,3.17-3.71,4.89-5.47
		c2.03-2.07,4.81-3.31,6.74-5.48c3.39-3.82,3.33-9.59,2.27-14.58s-2.95-9.95-2.55-15.04c0.06-0.82,0.16-1.72-0.32-2.38
		c-0.47-0.65-1.35-0.84-2.15-0.87c-2.01-0.08-3.98,0.57-5.99,0.74c-2.01,0.17-4.29-0.28-5.41-1.96c-0.72-1.08-0.81-2.44-1.07-3.71
		c-0.53-2.64-1.86-5.12-3.78-7.01"/>
	<path class="st2" d="M226.63,126.19c-0.18-1.28-1.98-1.72-3.12-1.1c-1.14,0.62-1.78,1.84-2.49,2.93
		c-2.86,4.38-7.49,7.22-11.97,9.91c-2.58,1.55-5.15,3.1-7.73,4.65c-2.07,1.25-4.16,2.5-6.43,3.37c-4.91,1.88-10.34,1.8-15.59,1.42
		c-9.14-0.68-18.21-2.24-27.04-4.66c2.37-1.05,4.74-2.11,7.11-3.16c-9.14-0.31-18.26-1.4-27.22-3.26c-0.82-0.17-1.75-0.43-2.11-1.18
		c-0.36-0.76,0.58-1.87,1.22-1.32c-7.86-2-15.63-4.38-23.26-7.13c1.62-0.8,3.23-1.59,4.85-2.39c-8.99-2.69-17.99-5.37-26.98-8.06
		c2.22-0.94,4.62-1.46,7.03-1.52c-5.31-0.86-10.4-3.03-14.7-6.26c2.34-2.17,5.39-3.57,8.56-3.93c-6.01,0.4-12.1-0.35-17.84-2.2
		c8.96-3.64,17.62-8.05,25.83-13.16c-1.87,1.07-3.93,1.79-6.06,2.1c4.04-0.44,8.01-1.5,11.73-3.14c-4.27,0.76-8.65,0.94-12.96,0.51
		c5.72-4.62,12.7-7.67,19.97-8.73c-5.59,0.07-11.16,1.18-16.35,3.27c3.73-3.12,8.19-5.37,12.92-6.5c-5.33,0-10.3,2.66-15.57,3.42
		c-3.67,0.53-7.41,0.14-11.1-0.27c-10.83-1.21-21.65-2.57-32.45-4.08c11.58-6.78,27.17-1.55,39.16-7.59
		c-5.05-0.6-10.1-1.2-15.16-1.79c0.81-3.55,5.08-5.85,8.48-4.58C51.56,61.3,25.68,60.85,0,63.47c20.75-11.03,45.61-10.03,69.03-8.13
		c-6.73-2.37-13.96-3.32-21.07-2.77c26.09-5.09,54.1,0.54,76.19,15.31c-11.29-2.39-23.1-2.28-34.34,0.31
		c17.99,5.42,37.52-0.78,56.1,2.07c5.58,0.85,11,2.52,16.39,4.17c7.26,2.23,14.66,4.52,20.88,8.88
		c6.22,4.36,11.18,11.21,11.32,18.81c0.05,2.48-0.42,5,0.04,7.44c0.46,2.44,2.22,4.92,4.7,5.07c2.31,0.14,4.32-1.82,5.02-4.03
		c0.7-2.2,0.4-4.58,0.09-6.87c1.82-1.21,4.42-0.63,5.99,0.89c1.57,1.51,2.27,3.73,2.52,5.9c0.15,1.26,0.25,2.7,1.26,3.47
		c0.94,0.72,2.27,0.53,3.4,0.86c1.14,0.33,2.07,1.95,1.09,2.61c2.17-1.46,13.03-2.56,14.72-0.81
		C229.91,118.82,227.06,121.99,226.63,126.19z"/>
	<path class="st3" d="M231.71,137.6c-2.23,2.71-5.01,4.94-7.04,7.8c-3.23,4.54-4.3,10.22-5.29,15.7c-0.2,1.13-0.4,2.33-0.02,3.41
		c0.38,1.07,1.27,1.86,2.13,2.6c9.65,8.36,19.29,16.71,28.94,25.07c5.01,4.34,10.19,8.78,16.46,10.94
		c12.26,4.22,25.59-1.12,37.26-6.78c5.97-2.9,12.58-6.76,13.82-13.28c-4.51,6.98-10.07,13.41-17.01,17.98
		c-6.94,4.58-15.34,7.2-23.61,6.32c-7.6-0.81-14.59-4.47-20.99-8.64c-6.78-4.42-13.12-9.51-18.91-15.15
		c-3.4-3.32-6.62-6.83-10.29-9.85c-10.65-8.75-24.67-12.93-34.55-22.56c1.92-0.11,3.84-0.23,5.76-0.34
		c0.17-1.73,0.35-3.46,0.52-5.19c3.11,1.16,6.48-0.58,9.34-2.26c6.45-3.8,12.9-7.6,19.34-11.4c1.34-0.79,5.54-4.39,7.19-2.74
		C236.54,131.02,232.79,136.29,231.71,137.6z"/>
	<path class="st4" d="M84.14,82.43c0.61-1,1.52-1.79,2.12-2.8c2.15-3.65-1.94-9-6.02-7.89c3.56-0.94,7.11-1.89,10.67-2.83
		c-2.98-3.04-6.74-5.32-10.82-6.54c3.09-1.16,6.18-2.32,9.27-3.49c0.57-0.21,1.15-0.44,1.56-0.89c0.88-0.98,0.47-2.63-0.5-3.51
		c-0.97-0.88-2.32-1.19-3.6-1.47c2.66-1.97,6.55-2.12,8.65-4.67c0.71-0.86,1.13-1.9,1.55-2.93c1.95-4.84,3.9-9.67,5.85-14.51
		c-10.47,4.28-20.15,10.49-28.41,18.23c-2.29,2.15-4.5,4.43-7.21,6.03c-2.22,1.31-4.71,2.11-7.19,2.8c-8,2.23-16.28,3.5-24.58,3.75
		c2.99,0.78,5.98,1.56,8.96,2.34c-5.17-0.06-10.34,1.32-14.8,3.93c3.66,0.98,7.33,1.97,10.99,2.95c-3.36,0.46-6.73,0.92-10.09,1.38
		c2.12,2.06,4.75,3.59,7.59,4.4c-2.76,0.27-5.48,0.98-8.01,2.1c2.86,2.4,6.01,4.47,9.35,6.14c-1.98,0.32-3.96,0.65-5.94,0.97
		c0.81,0.48,1.71,1.08,1.84,2.01s-1.24,1.82-1.76,1.03c14.62,9.36,30.23,17.07,46,24.35c2.19,1.01,4.54,2.04,6.93,1.71
		c2.39-0.33,4.67-2.62,4.05-4.96c-1.07-4.01-8.82-4.26-8.25-8.36c0.43-3.09,3.75-4.19,3.53-7.74C85.6,89.82,81.38,86.94,84.14,82.43
		z"/>
	<path class="st5" d="M267.93,104.81c-8.58-12.23-2.14-31.24-12.02-42.44c-2.97-3.37-7.05-5.51-10.8-8
		C235.55,48,227.8,38.94,223,28.5c-2.83-6.16-4.81-13.01-9.66-17.75c-2.68,4.02-5.55,8.21-9.86,10.37c-2.38,1.2-5.51,2.16-6.01,4.78
		c17.31,8.17,29.38,24.28,39.77,40.37c4.97,7.7,9.71,15.62,13.33,24.07c1.78,4.16,3.3,8.44,4.38,12.83
		c0.57,2.33,0.47,11.56,1.91,12.92c4.57,4.34,8.33-13.85,8.5-16.61c0.47-7.49-1.45-15.19-5.82-21.35"/>
	<path class="st6" d="M355.36,220.12c-0.39,1.13,0.3,2.52,1.44,2.9s2.52-0.32,2.88-1.46c0.47-1.47-0.65-3.01-1.95-3.83
		c-0.94-0.6-2.16-0.98-3.15-0.49c-1.12,0.55-1.5,2.1-1,3.25s1.65,1.9,2.86,2.22"/>
	<path class="st7" d="M354.52,267.53c2.49,0.81,5.27,0.15,7.54-1.16c2.26-1.31,4.11-3.23,5.92-5.12c3.21-3.34,6.41-6.68,9.62-10.03
		c-4.67,13.1-13.02,21.73-26.21,25.6c-2,0.59-4,1.18-6.01,1.77c-4.85,1.43-10.3,0.97-15.31,1.09c4.3-3.28,8.22-6.69,13.22-8.75
		c9.86-4.08,17.21-13.4,19.24-23.83c-0.32,1.78-5.19,22.7-8.43,20.9c2.74,1.52,6.08-0.23,8.7-1.95c3.17-2.07,6.35-4.15,9.52-6.22
		c-0.39,4.78-3.66,8.95-7.66,11.6c-0.16,0.11-0.33,0.22-0.5,0.32"/>
	<path class="st7" d="M368.52,236.79c1.45,5.12,0.39,10.89-2.78,15.17c4.39-3.63,5.48-10.66,2.4-15.45"/>
	<path class="st7" d="M359.22,221.31c-0.38-0.82-0.79-1.68-1.55-2.17s-1.97-0.39-2.35,0.43c-0.24,0.51-0.09,1.13,0.18,1.63
		c0.44,0.82,1.37,1.5,2.26,1.24c0.89-0.26,1.12-1.82,0.22-2.06"/>
</g>
</svg>
