<!-- Generator: Adobe Illustrator 23.0.4, SVG Export Plug-In  -->
<svg version="1.1" xmlns="http://www.w3.org/2000/svg" xmlns:xlink="http://www.w3.org/1999/xlink" x="0px" y="0px"
	 width="324.82px" height="1232.93px" viewBox="0 0 324.82 1232.93" style="enable-background:new 0 0 324.82 1232.93;"
	 xml:space="preserve">
<style type="text/css">
	.st0{fill:#F7F0F0;}
	.st1{opacity:0.6;fill:#49382C;}
	.st2{opacity:0.6;fill:url(#SVGID_1_);}
	.st3{opacity:0.6;fill:url(#SVGID_2_);}
	.st4{opacity:0.3;fill:#49382C;}
	.st5{opacity:0.6;fill:url(#SVGID_3_);}
	.st6{opacity:0.4;fill:#49382C;}
	.st7{opacity:0.6;fill:url(#SVGID_4_);}
	.st8{opacity:0.6;fill:url(#SVGID_5_);}
	.st9{opacity:0.6;fill:url(#SVGID_6_);}
	.st10{opacity:0.6;fill:url(#SVGID_7_);}
	.st11{opacity:0.6;fill:url(#SVGID_8_);}
	.st12{opacity:0.6;fill:url(#SVGID_9_);}
	.st13{opacity:0.6;fill:url(#SVGID_10_);}
	.st14{opacity:0.6;fill:url(#SVGID_11_);}
	.st15{opacity:0.6;fill:url(#SVGID_12_);}
</style>
<defs>
</defs>
<path class="st0" d="M241.79,105.75c5.92-11.14,12.15-23.05,17.35-34.99c8.02-18.4,12.71-31.13,9.8-50.37
	c-1.95-12.86-3.79-27.09,12.48-16.94c2.79,1.74,5.81,4.77,8.69,6.02c2.23,0.96,5.84-0.93,7.86,0.12c5.55,2.9,8.97,10.42,13.97,14
	c2.09-6.39,2.38-15.55,11.83-12.77c1.55,6.2-2.81,12.22-7.67,15.02c-0.8,16.64-17.41,34.5-27.42,47.63
	c-9.35,12.26-18.38,24.09-24.71,38.24c-5.81,12.96-15.57,22.67-21.82,35.17c-6,11.99-10.04,24.62-15.44,36.77
	c-5.73,12.91-13.51,23.73-19.79,35.91c-4.29,8.34-6.29,18.33-9.99,26.92c-2.46,5.7-6.25,11.04-7.15,17.06
	c-13.08,1.88-20.83,33.18-25.83,43.14c-12.83,25.56-27.37,50.75-38.3,77.04c-3.37,8.1-8.81,16.05-10.88,25.81
	c-9.88,4.08-18.24,29.62-23.57,38.42c-9.68,15.99-19.36,34.15-27.52,50.45c-12.55,25.09-27.35,46.88-25.58,77.12
	c14.47,9.21-14.79,26.37-26.14,18.14c-4.93-3.58-10.15-9.8-11.08-16.96c-1.38-10.61,7.92-8.19,12.46-15.32
	c2.45-3.84,2.36-11.51,4.29-16.05c2.82-6.64,7.06-12.62,10.38-19.01c6.74-12.96,16.05-25.25,21.93-38.56
	c7.24-16.41,15.67-36.58,25.52-51.92c9.22-14.35,12.08-29.21,21.25-43.96c16.89-27.18,30.82-56.3,43.42-85.56
	c6.4-14.87,15.52-29.38,23.01-42.81c8.59-15.39,14.01-32.58,23.82-46.6c8.24-11.78,13.53-26.36,19.13-38.43
	c4.6-9.91,11.96-18.9,16.94-28.35C230.64,135.64,234.18,120.08,241.79,105.75z"/>
<path class="st1" d="M277.91,16.67c-4.38,2.2-3.26,12.51-3.78,17.78c-1.09,11.2-3.14,16.77-8.27,25.25
	c-3.67,6.07-6.05,13.08-7.98,19.9c-1.35,4.77-1.46,11.78-3.68,16.09c-1.9,3.69-5.82,6.67-7.16,9.88
	c15.8-6.83,23.26-38.4,27.85-52.15c3.19-9.56,15.5-16.54,17.04-25.73c1.78-10.61-9.04-15.92-17.02-10.02"/>
<linearGradient id="SVGID_1_" gradientUnits="userSpaceOnUse" x1="278.0945" y1="39.1764" x2="322.5363" y2="39.1764">
	<stop  offset="0" style="stop-color:#724802"/>
	<stop  offset="1" style="stop-color:#9B6719"/>
</linearGradient>
<path class="st2" d="M291.91,33.67c1.49,10.9-8.12,10.49-11.8,17.2c-1.82,3.32-0.99,11.07-2.02,14.73c5.72-3.6,9.54-9.53,14.6-13.93
	c3.27-2.84,8.92-4.42,11.27-7.95c1.56-2.34-0.6-7.35,1.68-10.2c1.71-2.14,5.79-1.49,8.02-3.05c5.67-3.97,8.71-8.13,8.87-14.52
	c-7.46,7.71-18.32,10.49-16.77-3.13c-4.81-0.44-8.98,1.64-13.7,2c-0.6,2.6-0.38,5.55,0.85,7.85"/>
<linearGradient id="SVGID_2_" gradientUnits="userSpaceOnUse" x1="295.0646" y1="34.7327" x2="324.8231" y2="34.7327">
	<stop  offset="0" style="stop-color:#724802"/>
	<stop  offset="1" style="stop-color:#9B6719"/>
</linearGradient>
<path class="st3" d="M295.91,50.67c8.68-6.23,13.95-2.57,13.15-16.85c6.13-0.31,16.68-8.4,15.69-15.02
	c-5.15,1.18-8.03,6.03-12.85,8.14c-5.26,2.3-11.17,1.54-16.85,1.88c0.05,6.47,6.03,12.58,2.85,18.85"/>
<path class="st4" d="M210.91,189.67c-5.28,18.86-18.76,28.89-28.2,45.02c-15.27,26.09-30.09,53.98-40.58,82.19
	c-5.98,16.07-16.53,27.87-23.91,43.12c-9.03,18.65-25.59,34.3-30.14,54.79c-1.05,4.7,0.44,9.41-1.95,13.94
	c-1.28,2.42-3.46,2.74-4.77,4.96c-4.51,7.67-4.61,17.53-8.58,26.26c-1.84,4.05-5.11,6.69-6.67,9.69
	c-4.63,8.91-5.21,18.92-12.37,26.76c-4.22,4.62-7.82,5.75-10.05,11.32c-3.29,8.23-1.56,16.99-6,24.93
	c-4.96,8.87-8.05,22.07-15.98,27.8c-1.7,1.23-4.78-0.25-6.82,0.96c-1.76,1.04-1.95,3.44-3.76,4.29c-3.96,1.86-5.53,3.6-11.07,3.1
	c-1.6,17.72,27.14,28.85,33.9,12.84c2.92-6.93-0.86-19.83-0.07-27.34c1.6-15.21,8.43-29.37,16.07-41.41
	c9.51-14.99,16.27-33.16,24.27-49.09c7.21-14.36,15.18-30.9,21.34-45.08c5.64-12.97,11.45-26.81,20.28-37.92
	c1.83-2.31,5.56-4.42,6.89-7.07c2.98-5.96,2.91-13.34,6.67-19.56c2.47-4.08,6.26-7.31,8.46-11.52
	c11.15-21.3,16.37-50.17,29.98-70.77c9.13-13.81,14.44-29.27,21.77-44c6-12.07,15.28-24.29,20.28-38.23"/>
<path class="st1" d="M16.91,589.67c3.05,3.34,7.55,5.09,11.85,3.63c-1.09-4.79-0.08-8.8,5-8.78c0.43-1.5,0.47-4.18,0.05-5.7
	c-4.2-0.19-8.55-0.23-12.73,0.02c-0.63,2.96-3.27,4.49-4.17,5.83"/>
<linearGradient id="SVGID_3_" gradientUnits="userSpaceOnUse" x1="9.9132" y1="564.6386" x2="38.958" y2="564.6386">
	<stop  offset="0" style="stop-color:#724802"/>
	<stop  offset="1" style="stop-color:#9B6719"/>
</linearGradient>
<path class="st5" d="M10.91,576.67c-1.99,15.65,14.12,9.74,24.85,14.9c1.62-10.79-11.38-19.92-8.48-29.9
	c2.3-7.89,14.01-13.41,11.25-23.85c-17.86-2.25-20.18,31.37-28.63,39.85"/>
<path class="st0" d="M179.77,1096.21c2.3,14.11,4.13,23.99,10.71,36.73c3.83,7.43,9.73,18.1,2.41,25.2
	c-3.17,3.07-8.68,2.41-12.32,5.47c-3.53,2.97-2.1,7.37-7.82,9.27c-7.9,2.62-15.83-3.88-12.63-12.05c1.11-2.83,5.85-2.97,6.82-5.15
	c1.42-3.17,0.8-6.45,0.98-10.02c0.43-8.62,1.04-18.79-0.2-27.27c-1.84-12.6-6.59-23.61-7.85-36.53c-1.1-11.29-1.07-22.25-3.17-33.27
	c-4.31-22.64-9.55-47.24-17.53-68.66c-8.81-23.64-15.92-48.26-22.05-72.14c-3.5-13.65-11.1-25.69-14.25-39.06
	C91.17,819.2,73.85,771.3,60.14,721.96c-5.89-21.21-13.44-41.4-23.32-61.11c-3.03-6.04-4.87-16.27-9.63-21.23
	c-9.04-9.41-25.69-12.32-25.09-29.78c3.35-2.01,7.75-2.85,11.67-2.33c3.08-11.5,4.37-13.99,15.14-17.85
	c9.7-3.48,11.05-0.62,13.95,10.01c2.95,10.83,3.19,22.2,6.05,33.05c3.67,13.94,11.37,28,16.08,40.87
	c10.99,30.01,21.09,61.02,31.08,91.55c5.01,15.32,6.83,30.04,12.81,45.4c5.69,14.61,9.01,30.01,13.22,45.39
	c13.75,50.2,30.29,100.85,41.96,150.98C170.86,1036.1,175.04,1067.19,179.77,1096.21z"/>
<path class="st6" d="M173.91,1120.67c0.8-16.67-4.97-31.01-8.27-47.22c-3.47-17.07-7.09-33.74-10.73-50.59
	c-3.69-17.08-12.02-34.66-17.03-51.16c-5.26-17.33-9.56-34.6-14.22-51.54c-2.04-7.42-3.2-14.11-4.75-21.31
	c-2.28-10.54-5.96-21.12-7.07-32.59c-2.05-21.16-13.08-39.73-20.12-59.55c-5.51-15.5-3.59-31.6-7.59-47.13
	c-5.92-22.94-18.76-44.98-25.88-68.04c-5.97-19.33-13.97-43.09-16.39-62.84c-1.38-11.28-0.26-24.44-7.95-33.68
	c-8.15,6.9-22.05,10.19-25.66,20.84c-6.12,18.09,10.43,17.1,19.36,26.07c20.7,20.78,23.25,57.66,31.29,84.57
	c4.27,14.27,5.54,27.58,12.56,40.44c6.27,11.48,8.44,24.64,12.39,36.88c8.67,26.83,15.98,54.09,22.88,81.7
	c5.53,22.09,15.31,43.6,20.95,66.15c5.96,23.84,11.67,46.82,17.49,70.77c4.72,19.42,11.94,39.27,16.56,58.21
	c2.65,10.87,5.29,30.84,12.17,39"/>
<path class="st1" d="M19.91,626.67c-2.57-3.69-3.79-8.36-4.87-12.75c3.68,4.99,5.86,9.35,7.87,14.75"/>
<linearGradient id="SVGID_4_" gradientUnits="userSpaceOnUse" x1="27.7761" y1="628.1129" x2="46.2201" y2="628.1129">
	<stop  offset="0" style="stop-color:#724802"/>
	<stop  offset="1" style="stop-color:#9B6719"/>
</linearGradient>
<path class="st7" d="M28.91,599.67c1.54,0.15,5.22,1.42,7.83,1.17c5.91,6.56,1.55,15.65,3.18,23.83c1.38,6.94,6.98,13.72,6.24,19.93
	c-1.84-3.8-2.12-2.29-5.09-3.77c-0.27,5.18-0.03,10.55-0.3,15.74c-4.17-1.41-11.76-22.12-12.65-28.09c-1.08-7.3,0.8-16.07,0.8-23.8"
	/>
<path class="st0" d="M143.83,1163.18c4.93,5.81,12.32,11.51,16.53,17.96c4.33,6.65,2.63,14.17,5.03,21.04
	c3.18,9.08,6.82,8.87,16.7,9.77c8.36,0.76,14.71,1.78,22.04,3.66c13.59,3.5,27.29,7.03,41.4,6.81
	c-1.95-11.5-46.75-11.06-56.94-17.42c-8.6-5.37-17.2-12.61-22.34-21.79c-3.28-5.85-12.81-31.12,0.11-29.88
	c-0.05,3.51-0.11,7.19-0.15,10.7c14.31-0.62,27.12-1.73,40.7,4.88c10.65,5.18,25.33,11.63,34.3,19.11c3.68,3.07,1.96,5.88,7.32,8.12
	c4.31,1.8,10.68,0.01,15.25,0.2c8.77,0.37,16.36,0.05,22.53,6.86c0.67-1.84,0.62-4.83,0.33-6.74c-9-0.86-17.21-9.07-26.36-12.28
	c-9.11-3.2-17.57-5.93-26.58-8.36c21.58-5.99,44.95-0.91,66.87-1.09c3.13-12.62-31.22-9.18-39.48-9.53
	c-17.07-0.72-36.46,0.59-52.68-3.51c-7.48-1.89-14.86-4.78-20.9-9.36c-7.9-6-6.62-11.34-11.12-18.78
	c-5.95-9.85-14.81-26.1-25.4-10.82c-3.55,5.12-4.49,12.25-7.46,17.8C138.06,1150.76,135.31,1153.15,143.83,1163.18z"/>
<linearGradient id="SVGID_5_" gradientUnits="userSpaceOnUse" x1="244.9133" y1="1227.4039" x2="269.5023" y2="1227.4039">
	<stop  offset="0" style="stop-color:#724802"/>
	<stop  offset="1" style="stop-color:#9B6719"/>
</linearGradient>
<path class="st8" d="M244.91,1223.67c2.43,6.38,17.75,13.38,23.29,6.29c7.44-9.5-19.42-8.58-23.29-7.29"/>
<linearGradient id="SVGID_6_" gradientUnits="userSpaceOnUse" x1="181.7491" y1="1172.2256" x2="304.3258" y2="1172.2256">
	<stop  offset="0" style="stop-color:#724802"/>
	<stop  offset="1" style="stop-color:#9B6719"/>
</linearGradient>
<path class="st9" d="M186.91,1175.33c-3.58-4.23-1.82-12.38-1.33-17.51c0.23-2.42,1.22-5.14,0.68-7.77
	c-0.74-3.57-3.78-6.25-4.51-9.33c8,1.12,10.52,12.08,16.58,16.73c9.94,7.64,18.08,13.26,29.93,17.7
	c8.66,3.25,15.77,6.77,23.68,11.01c5.87,3.16,13.94,1.18,18.85,4.62c-0.52,7.94,15.09,5.39,20.13,5.87
	c6.11,0.58,8.78,2.83,13.4,6.42c-7.78-4.19-20.07-0.59-28.08,0.27c-5.55,0.59-7.77,1.01-11.5-2.5c-3.57-3.37-4.05-5.48-9.45-8
	c-12.08-5.65-22.41-16-36.41-16.16c-8.79-0.1-27.42,4.05-32.65-4.67"/>
<path class="st1" d="M184.41,1169.17c-0.19-5.07,2.58-8.03,2.5-13.01c-0.09-5.7-5.06-10.3-4.42-15.91
	c5.39,0.2,11.73,17.1,15.24,20.96c-8.31,1.26-9.73,2.46-13.81,9.96"/>
</svg>
