<!-- Generator: Adobe Illustrator 23.0.4, SVG Export Plug-In  -->
<svg version="1.1" xmlns="http://www.w3.org/2000/svg" xmlns:xlink="http://www.w3.org/1999/xlink" x="0px" y="0px"
	 width="503.23px" height="496.75px" viewBox="0 0 503.23 496.75" style="enable-background:new 0 0 503.23 496.75;"
	 xml:space="preserve">
<style type="text/css">
	.st0{enable-background:new    ;}
	.st1{clip-path:url(#SVGID_3_);enable-background:new    ;}
	.st2{fill:#B3BDDC;}
	.st3{fill:#ADB7D8;}
	.st4{fill:#A8B1D4;}
	.st5{fill:#B8C3E0;}
	.st6{fill:#BDC9E4;}
	.st7{fill:#C2CFE9;}
	.st8{clip-path:url(#SVGID_4_);enable-background:new    ;}
	.st9{clip-path:url(#SVGID_6_);enable-background:new    ;}
	.st10{clip-path:url(#SVGID_8_);enable-background:new    ;}
</style>
<defs>
</defs>
<g>
	<g>
		<g class="st0">
			<g class="st0">
				<defs>
					<path id="SVGID_2_" class="st0" d="M0.02,247.93c-0.11-6.64,0.16-15.54,1.03-22.13c0.78-5.94,1.58-13.9,2.63-19.8
						c1.14-6.41,3-14.91,4.67-21.2c1.51-5.65,3.81-13.11,5.79-18.61c2.2-6.11,5.67-14.06,8.14-20.06
						c2.55-6.18,6.75-14.09,10.2-19.82c5.82-9.67,14.35-22.08,21.12-31.11c4.17-5.56,10.27-12.6,15.25-17.45
						c3.91-3.8,8.94-9.06,13.04-12.65c5.81-5.09,13.83-11.57,19.97-16.25c4.05-3.08,9.71-6.83,14-9.55c4.41-2.79,10.47-6.21,15-8.79
						c3.77-2.15,8.97-4.74,12.93-6.53c5.95-2.69,14-6.05,20.1-8.39c2.75-1.06,6.48-2.34,9.3-3.19c5.51-1.66,12.88-3.81,18.46-5.2
						c5.25-1.3,12.33-2.72,17.65-3.65c5.67-1,10.41-1.55,15-2.08c1.42-0.17,14.34-1.61,29.23-1.46c15.38,0.16,26.42,1.46,35.2,2.72
						c5.05,0.72,11.49,1.91,15.25,2.72c5.17,1.11,12,2.85,17.1,4.22c3.82,1.02,8.86,2.62,12.6,3.94c5.26,1.86,12.22,4.5,17.36,6.65
						c7.97,3.34,18.19,8.74,25.82,12.79c60.74,34.51,100.68,102.09,100.53,184.93c-0.24,131.58-101.54,251.84-226.25,268.61
						c124.71-16.77,226.01-137.03,226.25-268.61c0.15-82.84-39.79-150.42-100.53-184.93c5.52,3.2,12.73,7.71,18.02,11.27
						c4.29,2.89,9.83,7,13.88,10.21c5.11,4.07,11.71,9.78,16.5,14.23c4.04,3.75,9.05,9.14,12.91,13.08
						c4.5,4.59,10.07,11.16,13.8,16.4c3.28,4.61,7.85,10.61,10.93,15.36c3.46,5.34,7.92,12.57,10.86,18.21
						c4.25,8.14,10.08,19.28,16.19,37c3.84,11.13,7.37,26.48,9.68,38.02c1.29,6.42,2.16,15.13,2.71,21.65
						c0.51,6.07,0.57,14.19,0.79,20.28c0.25,7.09-0.3,16.58-1.17,23.63c-0.74,5.94-1.66,13.88-2.74,19.76
						c-1.18,6.4-3.09,14.88-4.8,21.16c-1.54,5.64-3.88,13.08-5.89,18.56c-2.24,6.1-5.74,14.03-8.27,20.02
						c-2.22,5.28-5.89,12.02-8.73,17c-3.29,5.75-8.13,13.14-11.69,18.73c-3.81,5.99-9.74,13.42-14.32,18.84
						c-7.05,8.35-17.11,18.97-25.36,26.14c-5.86,5.09-13.97,11.55-20.18,16.21c-4.05,3.04-9.75,6.68-14.01,9.42
						c-2.23,1.44-16.34,9.99-28.33,15.29c-5.55,2.45-12.99,5.62-18.69,7.7c-5.46,2-12.85,4.36-18.45,5.93
						c-11.11,3.12-20.64,4.98-26.68,6c-6.77,1.14-10.57,1.57-14.97,2.07c-2.86,0.33-9.25,0.87-12.33,1.03
						c-5.54,0.28-8.07,0.4-11.37,0.41c-1.66,0.01-3.87,0.03-5.53,0.02c-1.66-0.01-3.86-0.07-5.52-0.1
						c-1.67-0.03-3.89-0.13-5.56-0.23c-6.54-0.38-16.42-0.96-31.42-3.57c-12.51-2.18-23.16-5.18-27.16-6.37
						c-3.16-0.94-7.38-2.21-10.48-3.33c-5.25-1.88-12.22-4.49-17.36-6.65c-7.97-3.35-18.29-8.55-25.82-12.79
						c-6.88-3.87-15.85-9.45-22.17-14.17c-5.34-3.99-12.58-9.19-17.49-13.7c-4.01-3.69-9.52-8.45-13.36-12.32
						c-4.56-4.58-10.44-10.91-14.65-15.82c-7.34-8.55-15.86-21-22.09-30.39c-3.56-5.37-7.51-13.02-10.47-18.75
						c-2.92-5.65-6.55-13.35-8.69-19.34c-3.93-11.02-8.81-25.87-11.49-37.26c-2.34-9.95-3.97-23.54-5.07-33.71
						C0.16,262.15,0.12,254.01,0.02,247.93z"/>
				</defs>
				<clipPath id="SVGID_3_">
					<use xlink:href="#SVGID_2_"  style="overflow:visible;"/>
				</clipPath>
				<g class="st1">
					<path class="st2" d="M0.02,247.93c0.19,11.34,0.69,41.47,10.89,72.93c11.95,36.85,24.24,54.75,36.13,72.06
						c12.98,18.9,34.74,39.38,43.51,46.15c16.07,12.4,19.41,14.98,35.75,24.58c6.63,3.89,18.65,10.02,32.5,15.52
						c44.92,17.85,97.28,22.35,143.66,12.36c25.67-5.53,48.56-13.73,68.03-24.37c16.9-9.24,39.31-22.94,62.77-47.12
						c19.04-19.63,31.15-38.72,36.67-48.36c3.33-5.81,7.74-13.61,10.33-19.79c4.77-11.37,10.45-26.82,14.16-38.58
						c3.76-11.91,5.79-28.56,7.54-40.92c0.85-6.01,0.82-14.14,1.14-20.21c0.32-5.98,0.32-19.6-3.17-43.55
						c-5.53-37.95-24.07-76.54-37.03-95.02c-3.75-5.35-8.53-12.66-12.73-17.67c-7.11-8.47-16.84-19.62-24.92-27.18
						c-18.95-17.74-35.1-28.01-48.39-35.71c60.74,34.51,100.68,102.09,100.53,184.93c-0.24,131.58-101.54,251.84-226.25,268.61
						c124.71-16.77,226.01-137.03,226.25-268.61c0.15-82.84-39.79-150.42-100.53-184.93c-15.74-8.35-19.48-10.34-32.5-15.52
						c-12.23-4.87-20.93-7.2-31.95-10.15c-4.38-1.17-27.79-7.04-58.88-7.36C188.84-0.66,139.99,25.29,130.86,30.5
						c-10.51,5.99-19.58,11.17-29,18.34c-15.32,11.67-15.32,11.67-33.01,28.9C63.86,82.6,57.76,89.63,53.6,95.19
						c-6.76,9.03-15.3,21.45-21.12,31.11c-2.56,4.25-15.73,27.03-24.13,58.5C-0.05,216.29-0.06,242.91,0.02,247.93"/>
					<path class="st2" d="M477.39,217.97c-0.04,21.89-2.88,43.47-8.16,64.31c0.08,1.35,0.18,3.16,0.26,4.51
						c-2.67,43.11-14.33,92.48-80.55,131.85c-38.17,36.12-85.97,60.97-137.81,67.94c51.84-6.97,99.64-31.83,137.81-67.94
						c-0.49,0.21-1.15,0.49-1.64,0.71c-141.16,42.62-157.84-115.59-145.86-148.27C270.1,192.86,412.11,161.14,456.47,242
						c6.78,12.37,9.14,20.9,12.76,40.28C474.51,261.44,477.35,239.87,477.39,217.97c0.15-82.84-39.79-150.42-100.53-184.93
						c-3.87-2.05-9.03-4.79-12.9-6.84c-5.84-2.69-13.65-6.24-19.6-8.68l-10.69-3.92c-3.77-1.2-8.79-2.84-12.6-3.94l-8.67-2.3
						c-2.74-0.62-6.38-1.49-9.13-2.07l-7.25-1.39c-2.19-0.36-5.1-0.86-7.3-1.18l-6.34-0.85c-1.88-0.21-4.4-0.5-6.28-0.69l-5.79-0.49
						c-1.72-0.11-4.02-0.27-5.74-0.36l-5.53-0.22c-1.66-0.03-3.87-0.09-5.52-0.1L248,0.03c-1.67,0.04-3.91,0.08-5.58,0.14
						l-5.79,0.27c-1.78,0.13-4.17,0.27-5.95,0.42l-6.39,0.61c-2.01,0.24-4.7,0.54-6.71,0.81l-8.29,1.27
						c-19.07,3.59-31.19,6.58-52.56,14.78l-12.95,5.65c-16.53,8.34-17.88,9.03-27.93,15.32l-14,9.55
						c-6.07,4.77-14.15,11.17-19.97,16.25L68.84,77.75c-4.62,5.19-10.87,12.05-15.25,17.45l-11.11,15.1
						c-3.51,5.61-8.31,13.01-11.57,18.78l-8.64,17.06c-2.47,6.01-5.94,13.95-8.14,20.06L8.35,184.8c-1.43,6.35-3.53,14.79-4.67,21.2
						l-2.63,19.8c-0.33,6.64-0.99,15.48-1.03,22.13l0.79,20.28c1.23,10.15,3.14,23.66,5.07,33.71l5.03,18.95
						c2.14,6.05,4.8,14.19,7.2,20.15l7.95,17.5c3.11,5.64,7.11,13.25,10.47,18.75l10.51,15.66c4.08,5.19,9.4,12.2,13.7,17.2
						l12.53,13.35c5.13,4.73,11.93,11.11,17.27,15.6l13.58,10.41c6.57,4.37,15.38,10.14,22.17,14.17l12.9,6.84
						c5.84,2.69,13.65,6.24,19.6,8.68l10.69,3.92c3.77,1.2,8.79,2.84,12.6,3.94l8.67,2.3c2.74,0.62,6.38,1.49,9.13,2.07l7.25,1.39
						c2.19,0.36,5.1,0.86,7.3,1.18l6.34,0.85c1.88,0.21,4.4,0.5,6.28,0.69l5.79,0.49c1.72,0.11,4.02,0.27,5.74,0.36l5.53,0.22
						c1.66,0.03,3.86,0.09,5.52,0.1l5.52-0.02c1.67-0.04,3.91-0.08,5.58-0.14l5.79-0.27c1.78-0.13,4.17-0.27,5.95-0.42l6.39-0.61
						c2.01-0.24,4.7-0.54,6.71-0.81l8.26-1.26c15.88-2.99,28.84-5.75,50.95-14.14l12.86-5.49c16.2-8.02,17.89-8.86,28.33-15.29
						l14.01-9.42c6.14-4.76,14.29-11.14,20.18-16.21l13.1-12.56c4.67-5.17,10.97-12.01,15.39-17.4l11.19-15.02
						c3.54-5.6,8.4-12.98,11.69-18.73l8.73-17c2.51-5.99,6.02-13.92,8.27-20.02l5.89-18.56c1.47-6.34,3.62-14.76,4.8-21.16
						l2.74-19.76c0.4-7.09,1.11-16.53,1.17-23.63l-0.79-20.28c-0.79-6.5-1.63-15.2-2.71-21.65l-4.1-19.3
						c-1.84-6.16-4.1-14.45-6.21-20.53l-7.12-17.97c-2.83-5.77-6.44-13.54-9.51-19.18l-9.79-16.25
						c-3.79-5.32-8.72-12.51-12.73-17.67l-12-14.1c-4.8-4.86-11.13-11.43-16.14-16.07l-13.27-11.24
						c-17.7-13.03-19.15-14.1-31.9-21.48C437.6,67.55,477.54,135.13,477.39,217.97"/>
					<path class="st3" d="M476.52,196.57c53.31,120.02-28.99,259.39-160.11,271.14c-20.67,9.35-42.58,15.82-65.27,18.87
						c22.69-3.05,44.6-9.53,65.27-18.87c-1.1-0.04-2.58-0.09-3.68-0.13c-137.01-5.28-172.29-189-55.52-289.08
						C333.21,113.36,429.55,121.3,476.52,196.57c-6.13-73.02-44.24-132.04-99.66-163.53c-3.87-2.05-9.03-4.79-12.9-6.84
						c-5.84-2.69-13.65-6.24-19.6-8.68l-10.69-3.92c-3.77-1.2-8.79-2.84-12.6-3.94l-8.67-2.3c-2.74-0.62-6.38-1.49-9.13-2.07
						l-7.25-1.39c-2.19-0.36-5.1-0.86-7.3-1.18l-6.34-0.85c-1.88-0.21-4.4-0.5-6.28-0.69l-5.79-0.49c-1.72-0.11-4.02-0.27-5.74-0.36
						l-5.53-0.22c-1.66-0.03-3.87-0.09-5.52-0.1L248,0.03c-1.67,0.04-3.91,0.08-5.58,0.14l-5.79,0.27
						c-1.78,0.13-4.17,0.27-5.95,0.42l-6.39,0.61c-2.01,0.24-4.7,0.54-6.71,0.81l-8.29,1.27c-19.07,3.59-31.19,6.58-52.56,14.78
						l-12.95,5.65c-16.53,8.34-17.88,9.03-27.93,15.32l-14,9.55c-6.07,4.77-14.15,11.17-19.97,16.25L68.84,77.75
						c-4.62,5.19-10.87,12.05-15.25,17.45l-11.11,15.1c-3.51,5.61-8.31,13.01-11.57,18.78l-8.64,17.06
						c-2.47,6.01-5.94,13.95-8.14,20.06L8.35,184.8c-1.43,6.35-3.53,14.79-4.67,21.2l-2.63,19.8c-0.33,6.64-0.99,15.48-1.03,22.13
						l0.79,20.28c1.23,10.15,3.14,23.66,5.07,33.71l5.03,18.95c2.14,6.05,4.8,14.19,7.2,20.15l7.95,17.5
						c3.11,5.64,7.11,13.25,10.47,18.75l10.51,15.66c4.08,5.19,9.4,12.2,13.7,17.2l12.53,13.35c5.13,4.73,11.93,11.11,17.27,15.6
						l13.58,10.41c6.57,4.37,15.38,10.14,22.17,14.17l12.9,6.84c5.84,2.69,13.65,6.24,19.6,8.68l10.69,3.92
						c3.77,1.2,8.79,2.84,12.6,3.94l8.67,2.3c2.74,0.62,6.38,1.49,9.13,2.07l7.25,1.39c2.19,0.36,5.1,0.86,7.3,1.18l6.34,0.85
						c1.88,0.21,4.4,0.5,6.28,0.69l5.79,0.49c1.72,0.11,4.02,0.27,5.74,0.36l5.53,0.22c1.66,0.03,3.86,0.09,5.52,0.1l5.52-0.02
						c1.67-0.04,3.91-0.08,5.58-0.14l5.79-0.27c1.78-0.13,4.17-0.27,5.95-0.42l6.39-0.61c2.01-0.24,4.7-0.54,6.71-0.81l8.26-1.26
						c15.88-2.99,28.84-5.75,50.95-14.14l12.86-5.49c16.2-8.02,17.89-8.86,28.33-15.29l14.01-9.42
						c6.14-4.76,14.29-11.14,20.18-16.21l13.1-12.56c4.67-5.17,10.97-12.01,15.39-17.4l11.19-15.02c3.54-5.6,8.4-12.98,11.69-18.73
						l8.73-17c2.51-5.99,6.02-13.92,8.27-20.02l5.89-18.56c1.47-6.34,3.62-14.76,4.8-21.16l2.74-19.76
						c0.4-7.09,1.11-16.53,1.17-23.63l-0.79-20.28c-0.79-6.5-1.63-15.2-2.71-21.65l-4.1-19.3c-1.84-6.16-4.1-14.45-6.21-20.53
						l-7.12-17.97c-2.83-5.77-6.44-13.54-9.51-19.18l-9.79-16.25c-3.79-5.32-8.72-12.51-12.73-17.67l-12-14.1
						c-4.8-4.86-11.13-11.43-16.14-16.07l-13.27-11.24c-17.7-13.03-19.15-14.1-31.9-21.48C432.28,64.53,470.38,123.55,476.52,196.57
						"/>
					<g>
						<path class="st4" d="M369.35,467.76c-71.89,35.67-117.97,19.15-118.26,18.9l0.02-0.05l0.02-0.02l-0.17,0.03
							c-110.05-3.03-200.24-208.11-38.5-351.35c5.4-4.79,133.66-115.95,248.05-5.95c-17.18-41.73-46.53-75.18-83.66-96.27
							c-3.87-2.05-9.03-4.79-12.9-6.84c-5.84-2.69-13.65-6.24-19.6-8.68l-10.69-3.92c-3.77-1.2-8.79-2.84-12.6-3.94l-8.67-2.3
							c-2.74-0.62-6.38-1.49-9.13-2.07l-7.25-1.39c-2.19-0.36-5.1-0.86-7.3-1.18l-6.34-0.85c-1.88-0.21-4.4-0.5-6.28-0.69
							l-5.79-0.49c-1.72-0.11-4.02-0.27-5.74-0.36l-5.53-0.22c-1.66-0.03-3.87-0.09-5.52-0.1L248,0.03
							c-1.67,0.04-3.91,0.08-5.58,0.14l-5.79,0.27c-1.78,0.13-4.17,0.27-5.95,0.42l-6.39,0.61c-2.01,0.24-4.7,0.54-6.71,0.81
							l-8.29,1.27c-19.07,3.59-31.19,6.58-52.56,14.78l-12.95,5.65c-16.53,8.34-17.88,9.03-27.93,15.32l-14,9.55
							c-6.07,4.77-14.15,11.17-19.97,16.25L68.84,77.75c-4.62,5.19-10.87,12.05-15.25,17.45l-11.11,15.1
							c-3.51,5.61-8.31,13.01-11.57,18.78l-8.64,17.06c-2.47,6.01-5.94,13.95-8.14,20.06L8.35,184.8
							c-1.43,6.35-3.53,14.79-4.67,21.2l-2.63,19.8c-0.33,6.64-0.99,15.48-1.03,22.13l0.79,20.28c1.23,10.15,3.14,23.66,5.07,33.71
							l5.03,18.95c2.14,6.05,4.8,14.19,7.2,20.15l7.95,17.5c3.11,5.64,7.11,13.25,10.47,18.75l10.51,15.66
							c4.08,5.19,9.4,12.2,13.7,17.2l12.53,13.35c5.13,4.73,11.93,11.11,17.27,15.6l13.58,10.41c6.57,4.37,15.38,10.14,22.17,14.17
							l12.9,6.84c5.84,2.69,13.65,6.24,19.6,8.68l10.69,3.92c3.77,1.2,8.79,2.84,12.6,3.94l8.67,2.3c2.74,0.62,6.38,1.49,9.13,2.07
							l7.25,1.39c2.19,0.36,5.1,0.86,7.3,1.18l6.34,0.85c1.88,0.21,4.4,0.5,6.28,0.69l5.79,0.49c1.72,0.11,4.02,0.27,5.74,0.36
							l5.53,0.22c1.66,0.03,3.86,0.09,5.52,0.1l5.52-0.02c1.67-0.04,3.91-0.08,5.58-0.14l5.79-0.27c1.78-0.13,4.17-0.27,5.95-0.42
							l6.39-0.61c2.01-0.24,4.7-0.54,6.71-0.81l8.26-1.26c15.88-2.99,28.84-5.75,50.95-14.14l12.86-5.49
							c4.82-2.38,11.27-5.51,16-8.06L369.35,467.76"/>
						<path class="st4" d="M460.51,129.31c5.59,9.15,13.39,16.68,18.98,25.84c4.11,6.74,8.59,16.35,11.29,23.77
							c10.82,29.64,11.55,47.84,12.33,67.12l-1.01-20.23l-2.48-18.98l-4.1-19.3c-1.84-6.16-4.1-14.45-6.21-20.53l-7.12-17.97
							c-2.83-5.77-6.44-13.54-9.51-19.18l-9.79-16.25c-3.79-5.32-8.72-12.51-12.73-17.67l-12-14.1
							c-4.8-4.86-11.13-11.43-16.14-16.07l-13.27-11.24c-17.7-13.03-19.15-14.1-31.9-21.48C413.98,54.14,443.33,87.58,460.51,129.31
							"/>
					</g>
					<path class="st5" d="M267.78,315.73c9.8,23.11,38.83,42.98,62.13,42.54c45.22-0.87,58.44-14.61,70.99-45.09
						c0.17-0.4,5.49-47.52-19.16-63.29c-27.04-17.3-27.04-17.3-58.3-19.76c-10.46-0.82-23.63,7.23-32.64,12.6
						C273.19,253.23,254.86,285.27,267.78,315.73"/>
					<path class="st6" d="M286.64,307.33c1.66,3.11,4.35,7.1,6.97,9.45c4.94,4.45,11.32,13.39,17.95,12.97
						c8.06-0.51,19.67,2.06,26.87-1.59c3.29-1.67,8.15-3.3,10.82-5.85c5.57-5.32,13.24-12.81,16.18-19.93
						c2.6-6.28,4.24-16.02,2.31-22.54c-2.42-8.17-10.6-16.86-15.93-23.5c-0.74-0.92-27.63-8.06-29.67-7.87
						c-2.23,0.21-31.72,17.9-35.03,23.39C284.69,275.87,277.52,290.26,286.64,307.33"/>
					<path class="st7" d="M315.17,308.12c8.05,2.32,22.05-1.99,26.38-9.16c3.64-6.03,0.56-17.65-3.81-23.17
						c-3.55-4.48-11.73-8.19-17.43-7.7c-2.92,0.25-6.8,2.73-8.22,5.29c-3.37,6.07-8.22,15.25-6.97,22.08
						C305.99,300.23,310.51,306.78,315.17,308.12"/>
				</g>
			</g>
			<g class="st0">
				<defs>
					<path id="SVGID_1_" class="st0" d="M126.29,463.64c-4.35-2.53-10.16-5.92-14.3-8.77c-6.59-4.53-15.2-10.82-21.44-15.81
						c-8.52-6.82-18.78-17.21-26.35-25.08c-4.97-5.17-11.12-12.55-15.21-18.44c-3.79-5.45-8.93-12.67-12.45-18.3
						c-3.03-4.85-6.9-11.45-9.38-16.61C24.35,354.8,20.6,347,18.12,341c-2.22-5.38-4.85-12.69-6.61-18.24
						c-1.96-6.18-4.19-14.53-5.62-20.85c-1.31-5.8-2.61-13.63-3.52-19.51c-1.59-10.24-2.48-24.11-2.34-34.47
						c0.16-12.07,1.81-28.13,3.34-40.11c0.82-6.41,2.61-14.89,4.48-21.09c1.69-5.6,3.71-13.15,5.64-18.68
						c2.11-6.02,5.01-14.05,7.82-19.77c2.53-5.15,5.72-12.12,8.48-17.16c3.07-5.59,7.43-12.89,10.94-18.21
						c3.1-4.7,7.46-10.83,10.93-15.26c3.98-5.07,9.54-11.64,13.88-16.4c3.68-4.04,8.81-9.22,12.83-12.93
						c4.86-4.48,11.64-10.11,16.72-14.35c5.86-4.89,14.25-10.72,20.77-14.68c3.79-2.3,8.78-5.5,12.71-7.54
						c7.65-3.97,17.98-9.01,25.87-12.49c3.4-1.5,8.03-3.24,11.55-4.44c5.53-1.88,12.94-4.27,18.57-5.81
						c2.73-0.74,6.38-1.71,9.14-2.31c5.23-1.14,12.24-2.55,17.51-3.48c4.11-0.73,13.72-1.95,19.47-2.37
						c4.41-0.32,8.22-0.6,11.73-0.69c7.9-0.21,8.52-0.21,16.62-0.05c0.11,0,11.28,0.26,23.26,1.75c5.32,0.66,5.32,0.66,13.47,2
						c2.26,0.37,5.27,0.94,7.51,1.44c5.14,1.15,11.97,2.79,17.06,4.15c3.38,0.91,7.84,2.32,11.17,3.42
						c3.9,1.28,9.04,3.15,12.86,4.65c3.91,1.54,9.04,3.77,12.88,5.48c6.04,2.69,13.82,6.86,19.62,10.04
						c-35.73-20.3-78.65-29.15-124.84-22.94c46.19-6.21,89.11,2.64,124.84,22.94c0,0,0,0,0,0c8.72,5.35,20.38,12.5,28.44,18.8
						c5.14,4.02,11.86,9.56,16.72,13.92c4.1,3.67,9.4,8.77,13.12,12.83c4.65,5.07,10.72,11.97,15.03,17.33
						c3.54,4.41,7.94,10.53,11.1,15.21c3.68,5.45,8.22,12.96,11.42,18.7c2.8,5.02,6.1,11.95,8.59,17.13
						c2.8,5.83,5.87,13.92,8.04,20.02c1.96,5.51,4.01,13.06,5.72,18.65c1.9,6.21,3.75,14.73,4.59,21.17
						c0.77,5.94,2.05,13.84,2.55,19.81c0.55,6.62,0.93,15.47,0.94,22.12c0.02,12.08-1.55,28.17-3.34,40.11
						c-1.03,6.83-2.84,15.9-4.85,22.51c-1.7,5.6-3.78,13.12-5.75,18.63c-2.14,6.01-5.11,14-7.94,19.72
						c-2.54,5.14-5.79,12.08-8.58,17.1c-3.1,5.57-7.51,12.85-11.05,18.15c-3.13,4.68-7.51,10.78-11.01,15.18
						c-4.01,5.05-9.54,11.66-13.98,16.33c-5.54,5.82-14.81,15.55-29.7,27.11c-4.03,3.13-9.51,7.17-13.78,9.97
						c-5.82,3.82-13.79,8.59-19.83,12.06c-9.96,5.72-25.38,12.19-28.55,13.38c-5.47,2.07-12.83,4.7-18.42,6.42
						c-5.42,1.67-12.73,3.6-18.25,4.87c-20.62,4.72-36.9,5.81-47.35,6.22c-6.97,0.27-15.26,0.21-22.18-0.17
						c-4.39-0.24-12.57-0.69-24.06-2.38c-10.88-1.6-19.1-3.54-23.05-4.48c-9.99-2.37-19.73-5.65-19.82-5.68
						c-9.75-3.35-13.95-4.89-25.73-10.13C139.87,471,132.02,466.96,126.29,463.64z"/>
				</defs>
				<clipPath id="SVGID_4_">
					<use xlink:href="#SVGID_1_"  style="overflow:visible;"/>
				</clipPath>
				<g class="st8">
					<path class="st4" d="M126.29,463.64c-8.97-5.2-18.24-10.58-35.75-24.58c-8.52-6.82-18.78-17.21-26.35-25.08
						c-7.94-8.25-26.96-32.37-37.04-53.34c-5.33-11.08-11.93-26.16-15.65-37.88c-3.75-11.84-7.24-28.09-9.15-40.36
						c-1.59-10.24-2.48-24.11-2.34-34.47c0.16-12.07,1.81-28.13,3.34-40.11c2.01-15.72,10.9-45.21,17.94-59.53
						c5.34-10.86,12.75-25.26,19.42-35.37c10.61-16.08,19.5-25.83,24.81-31.66C83.57,61.48,123,25.8,184.56,9.02
						c40.27-10.98,75.38-9.95,97.74-7.15c43.26,5.4,73.26,19.5,94.55,31.18c-35.73-20.3-78.65-29.15-124.84-22.94
						c46.19-6.21,89.11,2.64,124.84,22.94c8.72,5.35,20.38,12.5,28.44,18.8c5.13,4.01,18.76,14.66,29.84,26.75
						c22.46,24.51,32.6,40.2,46.15,68.38c5.33,11.1,10.64,26.76,13.76,38.67c3.17,12.07,5.52,28.61,7.14,40.99
						c0.79,6.03,1.18,14.17,0.94,20.24c-0.49,12.63-1.46,29.49-3.34,41.99c-3.45,22.93-13.1,49.87-18.53,60.86
						c-5.37,10.85-12.9,25.18-19.62,35.25c-10.26,15.35-20.06,26.33-25,31.52c-8.07,8.49-15.88,16.38-29.7,27.11
						c-13.53,10.5-21.09,14.84-33.61,22.03c-6.62,3.8-30.87,16.81-65.22,24.67C220.18,510.43,151.67,478.36,126.29,463.64"/>
					<g>
						<path class="st4" d="M156.74,18.33c16.68-6.31,32.77-11.88,60.85-16.05l6.62-0.8c1.94-0.19,4.53-0.46,6.47-0.62l5.93-0.42
							c1.74-0.08,4.06-0.21,5.81-0.28L248,0.03c1.66,0,3.87-0.03,5.53-0.02l5.52,0.1c1.66,0.07,3.88,0.14,5.54,0.22l5.71,0.36
							c1.75,0.15,4.08,0.33,5.82,0.5l6.19,0.67c1.93,0.26,4.5,0.58,6.43,0.86l7.04,1.14c2.25,0.43,5.26,0.97,7.51,1.44l8.41,1.89
							c2.82,0.74,6.59,1.68,9.39,2.47l10.43,3.21c3.86,1.38,9.03,3.17,12.86,4.65L357.24,23c5.93,2.92,13.82,6.86,19.62,10.04
							c-35.65-20.25-78.47-29.12-124.54-22.98c-0.05,0.01-0.13,0.01-0.18,0.02l-0.12,0.02c-0.33-0.27-51.14-17.24-122.59,21.18
							l12.92-6.62C146.66,22.75,152.35,20.05,156.74,18.33"/>
						<path class="st4" d="M376.86,33.05l14.43,8.86c17.67,12.55,19.52,13.86,30.73,23.87l13.12,12.83
							c4.55,5.16,10.72,11.97,15.03,17.33l11.1,15.21c3.46,5.59,8.21,12.97,11.42,18.7l8.59,17.13c2.44,5.99,5.87,13.92,8.04,20.02
							l5.72,18.65c1.4,6.35,3.47,14.77,4.59,21.17l2.55,19.81c0.31,6.63,0.93,15.47,0.94,22.12l-0.87,20.27
							c-0.87,6.94-1.85,16.23-3.05,23.12l-4.28,19.23c-1.9,6.16-4.25,14.43-6.42,20.5l-7.27,17.85c-2.89,5.76-6.59,13.53-9.73,19.16
							l-9.9,16.09c-3.86,5.32-8.89,12.52-12.98,17.67l-12.01,13.85c-4.9,4.88-11.36,11.45-16.48,16.1l-13.23,11
							c-6.21,4.5-14.53,10.46-20.96,14.63l-12.65,7.4c-16.59,8.47-17.58,8.98-28.55,13.38l-9.19,3.41
							c-12.77,4.17-25.98,8.48-50.02,11.99l-6.62,0.8c-1.94,0.19-4.53,0.46-6.47,0.62l-5.93,0.42c-1.74,0.08-4.06,0.21-5.81,0.28
							l-5.58,0.14c-1.66,0-3.87,0.03-5.53,0.02l-5.52-0.1c-1.66-0.07-3.88-0.14-5.54-0.22l-5.71-0.36c-1.75-0.15-4.08-0.33-5.82-0.5
							l-6.19-0.67c-1.93-0.26-4.5-0.58-6.43-0.86l-7.04-1.14c-2.25-0.43-5.26-0.97-7.51-1.44l-8.41-1.89
							c-2.82-0.74-6.59-1.68-9.39-2.47l-10.43-3.21c-3.86-1.38-9.03-3.17-12.86-4.65l-12.88-5.48c-5.93-2.92-13.82-6.86-19.62-10.04
							l-14.3-8.77c-6.52-4.62-15.17-10.86-21.44-15.81l-13.58-12.01c-4.92-5.03-11.55-11.69-16.23-16.94l-11.76-14.56
							c-3.77-5.46-8.93-12.67-12.45-18.3l-9.38-16.61C24.42,354.77,20.6,347,18.12,341l-6.61-18.24
							c-1.71-6.25-4.19-14.53-5.62-20.85L2.37,282.4c-0.93-9.5-2.02-22.2-2.33-31.74l0.54,13.3
							c17.35,171.5,209.06,206.35,325.59,59.19c120.21-151.79,5.58-319.6-73.85-313.08C298.39,3.93,341.21,12.79,376.86,33.05"/>
					</g>
					<path class="st3" d="M313.57,136.41C340.22,280.01,182.71,414.18,69.3,344.48C-46.24,273.47,10.74,69.71,156.41,33.03
						C230.32,14.41,299.35,59.83,313.57,136.41"/>
					<path class="st2" d="M261.72,225.61C229.93,312.37,84.63,330.97,45.8,253.25C1.64,164.89,92.73,45.68,185.03,71.02
						C242.36,86.76,279.68,176.6,261.72,225.61"/>
					<path class="st5" d="M235.42,225.46c-0.07,0.17-9.72,18.64-23.07,28.49c-8.45,6.23-22.18,11.76-32.64,12.6
						c-9.25,0.74-22.32,0.87-30.8-2.91c-0.3-0.13-31.47-16.18-38.85-28.1c-6.1-9.85-15.05-53.81-0.27-69.67
						c17.1-18.36,18.49-19.86,39.02-25.31c13.82-3.67,37.7-1.8,47.56,2.31c7.73,3.22,17.16,9.73,23.15,15.57
						c0.27,0.27,15.68,22.14,15.85,22.5C244.56,200.4,235.52,225.23,235.42,225.46"/>
					<path class="st6" d="M216.05,224.82c-2.52,5.12-34.81,23.41-35.03,23.39c-4.97-0.49-27.71-6.53-29.67-7.87
						c-7.02-4.83-13.94-15.22-15.93-23.5c-1.59-6.61-0.41-16.31,2.31-22.54c3.07-7.06,10.43-14.81,16.19-19.93
						c2.76-2.45,7.2-5.13,10.82-5.85c7.92-1.56,19.11-3.84,26.87-1.59c0.18,0.05,20.23,11.32,24.92,22.43
						C221.24,200.54,224.36,207.92,216.05,224.82"/>
					<path class="st7" d="M191.06,223.31c-1.78,2.33-5.3,5.06-8.22,5.29c-5.7,0.45-13.95-3.16-17.43-7.7
						c-4.28-5.59-7.5-17.17-3.81-23.17c4.39-7.14,18.33-11.47,26.38-9.16c4.66,1.34,9.17,7.89,10.05,12.66
						C199.29,208.06,195.26,217.78,191.06,223.31"/>
				</g>
			</g>
		</g>
	</g>
</g>
</svg>
