<!-- Generator: Adobe Illustrator 23.0.4, SVG Export Plug-In  -->
<svg version="1.1" xmlns="http://www.w3.org/2000/svg" xmlns:xlink="http://www.w3.org/1999/xlink" x="0px" y="0px" width="184.5px"
	 height="184.5px" viewBox="0 0 184.5 184.5" style="enable-background:new 0 0 184.5 184.5;" xml:space="preserve">
<style type="text/css">
	.st0{fill:#FDAABA;}
	.st1{fill:#FFFFFF;}
</style>
<defs>
</defs>
<g>
	
		<ellipse transform="matrix(0.7071 -0.7071 0.7071 0.7071 -38.2113 92.2503)" class="st0" cx="92.25" cy="92.25" rx="92.25" ry="92.25"/>
</g>
<g>
	<path class="st1" d="M83.45,41.9c-1.48,0-2.77,0.54-3.85,1.63L51.08,72.05H28.64c-1.49,0-2.77,0.54-3.86,1.63
		c-1.09,1.08-1.63,2.37-1.63,3.85v32.89c0,1.48,0.54,2.77,1.63,3.85c1.09,1.09,2.37,1.63,3.86,1.63h22.44l28.52,28.52
		c1.09,1.08,2.37,1.63,3.85,1.63c1.49,0,2.77-0.54,3.85-1.63c1.09-1.08,1.63-2.37,1.63-3.85V47.39c0-1.48-0.54-2.77-1.63-3.85
		C86.22,42.45,84.94,41.9,83.45,41.9z"/>
	<path class="st1" d="M118.18,106.1c2.43-3.74,3.64-7.78,3.64-12.12s-1.21-8.4-3.64-12.17c-2.43-3.77-5.64-6.42-9.64-7.97
		c-0.57-0.28-1.29-0.43-2.14-0.43c-1.48,0-2.77,0.53-3.85,1.58c-1.08,1.06-1.63,2.36-1.63,3.9c0,1.2,0.34,2.21,1.03,3.04
		c0.68,0.83,1.51,1.54,2.48,2.14c0.97,0.6,1.94,1.26,2.91,1.97c0.97,0.71,1.8,1.73,2.48,3.04c0.68,1.31,1.03,2.94,1.03,4.88
		c0,1.94-0.34,3.57-1.03,4.88c-0.68,1.31-1.51,2.33-2.48,3.04c-0.97,0.71-1.94,1.37-2.91,1.97c-0.97,0.6-1.8,1.31-2.48,2.14
		c-0.68,0.83-1.03,1.84-1.03,3.04c0,1.54,0.54,2.84,1.63,3.9c1.08,1.06,2.37,1.59,3.85,1.59c0.86,0,1.57-0.14,2.14-0.43
		C112.55,112.51,115.76,109.84,118.18,106.1z"/>
	<path class="st1" d="M136.47,118.18c4.85-7.39,7.28-15.46,7.28-24.2c0-8.74-2.43-16.8-7.28-24.2
		c-4.85-7.39-11.28-12.77-19.27-16.14c-0.74-0.28-1.48-0.43-2.22-0.43c-1.48,0-2.77,0.54-3.86,1.63c-1.08,1.08-1.63,2.37-1.63,3.85
		c0,2.23,1.11,3.91,3.34,5.05c3.2,1.66,5.37,2.91,6.51,3.77c4.23,3.08,7.52,6.95,9.89,11.61c2.37,4.65,3.55,9.61,3.55,14.86
		c0,5.25-1.18,10.21-3.55,14.86c-2.37,4.65-5.67,8.52-9.89,11.61c-1.14,0.86-3.31,2.11-6.51,3.77c-2.23,1.14-3.34,2.83-3.34,5.05
		c0,1.48,0.54,2.77,1.63,3.85c1.09,1.09,2.4,1.63,3.94,1.63c0.69,0,1.4-0.14,2.14-0.43C125.19,130.95,131.62,125.57,136.47,118.18z"
		/>
	<path class="st1" d="M154.8,57.79c-7.25-10.99-16.9-19.09-28.95-24.28c-0.74-0.28-1.48-0.43-2.22-0.43c-1.48,0-2.77,0.54-3.85,1.63
		c-1.09,1.08-1.63,2.37-1.63,3.85c0,2.06,1.11,3.74,3.34,5.05c0.4,0.23,1.04,0.53,1.93,0.9c0.89,0.37,1.53,0.67,1.93,0.9
		c2.63,1.43,4.97,2.88,7.03,4.37c7.02,5.2,12.5,11.68,16.44,19.44c3.94,7.77,5.91,16.02,5.91,24.75c0,8.74-1.97,16.99-5.91,24.75
		c-3.94,7.77-9.42,14.25-16.44,19.44c-2.06,1.48-4.4,2.94-7.03,4.37c-0.4,0.23-1.04,0.53-1.93,0.9c-0.89,0.37-1.53,0.67-1.93,0.9
		c-2.23,1.31-3.34,3-3.34,5.05c0,1.48,0.54,2.77,1.63,3.85c1.08,1.09,2.37,1.63,3.85,1.63c0.74,0,1.48-0.14,2.22-0.43
		c12.05-5.19,21.7-13.29,28.95-24.28c7.25-10.99,10.88-23.05,10.88-36.19S162.05,68.78,154.8,57.79z"/>
</g>
</svg>
