<!-- Generator: Adobe Illustrator 23.0.4, SVG Export Plug-In  -->
<svg version="1.1" xmlns="http://www.w3.org/2000/svg" xmlns:xlink="http://www.w3.org/1999/xlink" x="0px" y="0px"
	 width="261.09px" height="225.24px" viewBox="0 0 261.09 225.24" style="enable-background:new 0 0 261.09 225.24;"
	 xml:space="preserve">
<style type="text/css">
	.st0{fill:#D38571;}
	.st1{fill:#F9A895;}
	.st2{fill:#BA8C8C;}
</style>
<defs>
</defs>
<path class="st0" d="M81.36,36.65c-5.83-2.16-12.06-4.39-15.89-9.3c-3.65-4.7-4.5-11.15-8.3-15.73c-5.31-6.4-14.7-7.34-23.01-6.95
	c-8.31,0.38-17.14,1.5-24.52-2.33C7.72,1.36,5.84,0.02,3.69,0s-4.43,2.21-3.45,4.13c0.31,0.61,0.87,1.04,1.43,1.42
	c8.16,5.61,18.85,5.11,28.75,5.45s21.11,2.6,26.19,11.1c3,5.01,3.32,11.49,7.18,15.87c5.3,6.01,14.58,5.5,22.36,7.45
	c12.62,3.15,20.55,13.11,24.02,25.12c1.75,6.06,2.32,23.04,9.5,13.58c4.16-5.48,1-19.32-2.05-24.49
	C110.55,47.66,93.68,41.22,81.36,36.65z"/>
<path class="st0" d="M74.34,141.29c-2.23,9.86-0.56,20.55-4.41,29.91c-4.11,10-13.67,16.5-20.69,24.72
	c-7.02,8.23-11.21,21.46-3.79,29.32c0.44-9.7,4.46-19.2,11.12-26.28c5.06-5.37,11.58-9.4,15.68-15.54
	c7.73-11.55,4.87-27.09,9.06-40.34c4.4-13.94,16.08-24.08,25.72-35.07c8.07-9.2,17.4-23.04,14.26-35.87
	c-8.16,9.95-13.05,22.45-22.24,32.53C89.16,115.55,77.72,126.39,74.34,141.29z"/>
<path class="st1" d="M177.61,17.87c15-5.71,31.56-8.6,47.18-4.91s30.04,14.81,34.71,30.16c6.89,22.68-9.63,47.35-31.24,57.09
	c-21.61,9.74-46.54,7.98-69.96,4.3c-14.08-2.21-28.69-4.96-41.63-11.22c-15.58-7.54-8.23-15.47-0.03-27.33
	C131.6,44.34,153.02,27.23,177.61,17.87z"/>
<g>
	<g>
		<path class="st2" d="M160.31,68.02c1.93,0,1.93-3,0-3C158.38,65.02,158.37,68.02,160.31,68.02L160.31,68.02z"/>
	</g>
</g>
<g>
	<g>
		<path class="st2" d="M172.25,36.17c1.93,0,1.93-3,0-3C170.32,33.17,170.32,36.17,172.25,36.17L172.25,36.17z"/>
	</g>
</g>
<g>
	<g>
		<path class="st2" d="M131.44,73.99c1.93,0,1.93-3,0-3C129.51,70.99,129.51,73.99,131.44,73.99L131.44,73.99z"/>
	</g>
</g>
<g>
	<g>
		<path class="st2" d="M141.39,93.9c1.93,0,1.93-3,0-3C139.46,90.9,139.46,93.9,141.39,93.9L141.39,93.9z"/>
	</g>
</g>
<g>
	<g>
		<path class="st2" d="M192.16,105.84c1.93,0,1.93-3,0-3C190.23,102.84,190.23,105.84,192.16,105.84L192.16,105.84z"/>
	</g>
</g>
</svg>
