<!-- Generator: Adobe Illustrator 23.0.4, SVG Export Plug-In  -->
<svg version="1.1" xmlns="http://www.w3.org/2000/svg" xmlns:xlink="http://www.w3.org/1999/xlink" x="0px" y="0px"
	 width="535.34px" height="497.05px" viewBox="0 0 535.34 497.05" style="enable-background:new 0 0 535.34 497.05;"
	 xml:space="preserve">
<style type="text/css">
	.st0{fill:#F8EDF0;}
	.st1{fill:#020000;}
	.st2{opacity:0.8;fill:#3D1724;}
	.st3{fill:#CD4F58;}
	.st4{opacity:0.8;fill:#CC7D7D;}
	.st5{opacity:0.8;fill:#E07575;}
	.st6{fill:#AF4653;}
	.st7{fill:#7A0113;}
	.st8{fill:#C63E3E;}
	.st9{opacity:0.9;fill:#7C4D4D;}
	.st10{opacity:0.8;fill:#F8F6EE;}
	.st11{opacity:0.8;fill:#FCF0F0;}
	.st12{fill:#D37D7D;}
	.st13{fill:#E22B2B;}
	.st14{opacity:0.9;fill:#F7C4C4;}
	.st15{fill:#210808;}
	.st16{opacity:0.8;fill:#210808;}
	.st17{fill:#C65C5C;}
	.st18{opacity:0.7;fill:#603030;}
	.st19{opacity:0.7;fill:#C65C5C;}
	.st20{fill:#603030;}
	.st21{fill:none;stroke:#000000;stroke-width:0.5;stroke-miterlimit:10;}
</style>
<defs>
</defs>
<g>
	<path class="st0" d="M1.37,238.26c21.83,1.68,41-2.91,59.55-14.44c4.4-2.73,7.93-6.07,12.44-8.37
		c10.21-5.21,21.35-7.51,30.75-14.24c3.04-2.18,5.11-5.27,8.56-7.03c7.29-3.72,14.88-2.75,22.37-0.09
		c7.48,2.66,13.94,6.86,21.68,8.62c8.17,1.86,16.26,1.27,24.54,0.39c11.15-1.18,21.73-3.42,32.17-7.54
		c4.57-1.8,8.24-4.47,13.03-6.18c16.16-5.79,31.19-5.48,47.14,1.25c4.37,6.26,9.48,11.08,17,12.94c7.52,1.86,14.81,1.68,22.39,0.91
		c20.61-2.08,40.28-6.83,59.8-13.74c9.38-3.32,18.93-6.73,28.22-2.02c12.92,6.56,26.27,6.1,40,8.39
		c14.61,2.44,28.07,7.56,42.15,11.72c6.15,1.81,12.17,3.71,18.61,4.11c9.99,0.62,19.43-1.69,29.11-3.9
		c0.31,1.81-0.49,3.41-2.03,4.39c-1.54,0.98-3.26,1.21-5,1.46c-4.61,0.68-9.21,1.26-13.81,1.92c3.33,3.07,7.31,3.34,11.65,2.97
		c4.34-0.36,8.23-0.83,12.25,1.11c-8.69,1.4-17.18,1.75-25.96,1.07c6.97,3.97,14.08,6.71,21.92,8.44c-5.14,0-10.28-0.01-15.43-0.01
		c1.6,1.49,3.3,2.75,5.2,3.84c-3.35,1.13-6.38,1.08-9.72-0.09c-0.39,2.51-2.25,3.98-4.53,4.75s-4.69,0.81-6.87,1.65
		c-2.17,0.84-3.96,2.34-5.96,3.32c-2,0.98-3.99,1.47-6.08,1.98c-4.74,1.16-9.4,2.3-14.13,3.43c-6.94,1.66-13.78,3.34-20.89,4.39
		c-5.53,0.82-11.02,1.02-16.53-0.19c-1.03-0.23-2.07-0.58-3.06-0.43c-0.99,0.15-1.54,0.63-2.43,0.9c-2.24,0.69-4.18,0.32-6.08-1.03
		c-1.66,3.36-4.81,4.59-8.3,3.21c-1.31,3.79-4.92,5.24-8.43,3.25c-0.08,2.79-2.87,3.51-5.25,3.81c-1.25,0.16-2.54,0.24-3.82,0.36
		c-5.39,0.51-10.79,0.9-16.21,0.86c-0.09,2.88-2.88,3.78-5.37,4.18c-3.54,0.57-7.14,0.99-10.7,1.53c-0.95,0.8-1.94,1.28-3.17,1.48
		c-0.04-0.88-0.49-1.44-1.29-1.76c-0.91-1.92-2.55,0.3-3.63,1.46c-1.08,1.16-1.95,3.75-3.9,4.26c-3.26,0.86-6.11-2.25-9.45-1.5
		c-0.72,0.16-1.24,0.72-1.97,0.88c-0.73,0.16-1.47,0.05-2.22-0.05c-3.02-0.41-6.04-0.28-9.06-0.25c-8.75,0.08-17.48-0.05-26.23-0.07
		c-6.09,0.41-12.23,0.14-18.32-0.19c0.09,1.42,0.17,2.84,0.26,4.26c-3.36,1.04-6.4,0.68-9.61-0.66c0.98,2.4-0.68,4.02-3,4.56
		c-2.32,0.54-4.91,0.11-7.21,0.67c-1.85,0.45-3.13,1.15-4.79,2.05c-4.78,2.6-9.48,4.71-15.02,5.6c-5.54,0.9-11.68,0.48-16.78-1.93
		c-3.46-1.63-5.94-3.76-9.34-5.3c-2.44-1.11-5.2-1.31-7.74-2.31s-4.34-2.88-4.51-5.65c-0.53,2.46-3.45,3.38-5.6,2.17
		c-2.14-1.22-2.49-3.67-2.85-5.91c-1.4,1.19-2.79,2.01-4.66,2.34c-8.59,1.52-16.71,2.15-25.16-0.4c0.83,2.96-2.44,4.4-5.01,3.97
		s-4.77-2.75-7.53-2.55c-4.52,0.34-7.67,4.74-12.36,4.22c-1.09-0.12-1.73-0.8-2.87-1.13c-1.14-0.34-2.51-0.4-3.82-0.48
		c-7.94-0.46-15.4-1.98-22.9-4.76c-2.03-0.75-3.97-1.53-6.17-1c-0.82,0.2-1.45,0.76-2.32,0.77c-1.85,0.03-2.93-1.34-3.97-2.72
		c-0.91,1.43-2.59,1.79-4.07,1.01c-1.49-0.78-2.14-2.21-2.98-3.56c-2.08,3.82-5.45,5.64-9.78,4.99c-1.06-0.16-1.8-0.65-2.88-0.27
		c-1.08,0.37-1.58,1.74-2.75,2.01c-2.62,0.61-3.96-3.24-6.44-3.19c-2.48,0.04-3.46,3.48-6,3.15c-1.21-0.15-1.7-1.45-2.85-1.74
		c-2.35-0.58-4.16,1.66-6.53,1.44c-1.18-0.11-1.88-1.12-2.92-1.72c-2.54-1.46-5.25-1.27-8.13-1.37c-6.6-0.23-12.5-1.78-18.4-4.78
		c-1.58-0.8-2.87-1.92-3.18-3.73c-2.57,2.4-5.32,3.69-8.83,4.07c0.06-3.76,1.61-6.51,4.78-8.5c-1.73,1.52-3.99,2.92-6.09,3.65
		s-5.38,0.7-5.69-1.83c-0.31-2.53,2.38-3.28,4.45-4.11c4.84-1.94,8.93-4.91,12.16-9.16c-3.85,2.02-7.44,4.15-11.76,5.19
		c-4.32,1.04-8.41,0.64-12.37-1.47c6.33-2.01,12.69-4.01,19.03-5.99c-3.92,0.31-7.72,0.78-11.62-0.04
		C6.3,243.48,3.36,241.77,1.37,238.26z"/>
	<path class="st1" d="M63.96,222.52c-18.73,12.97-40.49,16.14-62.99,15.85c7.96,4.71,15.65,5.59,24.5,2.91
		c-6.28,5.21-13.39,7.28-21.21,9.15c9.78,1.42,17.58-2.33,25.99-6.93c0.83,2.52-0.79,4.54-2.68,6.09
		c-6.02,4.97-12.41,8.99-19.35,12.5c5.1-1.14,9.97-2.7,14.77-4.76c-1.33,2.34-2.96,4.22-5.1,5.85c3.07,0.17,5.92-0.18,8.87-1.06
		c0.98,3.45,4.3,4.62,7.41,5.4s5.95,1.44,8.96,2.09c5.64,1.22,11.23,2.13,16.92,2.9c1.08,0.15,2.22,0.2,3.21-0.04
		c0.99-0.24,1.7-0.85,2.67-0.84c1.98,0.02,3.37,1.79,5.36,1.57c1.17-0.13,1.84-1.16,2.99-1.51c1.16-0.35,2.22,0.01,3.46,0.2
		c6.41,0.99,11.78-0.58,16.93-4.51c-0.47,2.05,1.79,3.54,3.62,3.55s3.49-0.8,5.22-0.01c0.87,0.39,1.21,1.16,2.05,1.64
		c2.12,1.2,4.32,0.61,5.82-1.3c0.72,0.55,1.43,1.1,2.14,1.65c0.88-0.48,1.75-0.97,2.63-1.45c0.66,1.45,1.54,2.97,3.31,2.74
		c0.68-0.09,1-0.77,1.67-0.83c3.18-0.28,4.12,3.77,7.32,3.47c0.72-1.09,1.59-1.82,2.8-2.3c0.15,1.73,1.9,2.08,3.41,2.14
		c1.97,0.08,4.01,0.07,5.99,0.13c1.06,0.5,2.12,1.01,3.18,1.51c0.83-0.93,1.8-1.46,3.01-1.63c0.56,1.9,2.61,1.07,4.19,0.28
		c4.35-2.17,8.92-2.25,13.31,0.25c0.82,0.46,1.37,1.08,2.34,1.06c1.61-0.04,2.37-1.28,3.75-2.12c1.38-0.85,3.18-1.08,4.87-1.2
		c7.16-0.5,14.35-1.14,21.52-1.61c0.74-6.16-0.93-11.4-5.17-15.88c-1.91-2.02-4.14-3.2-5.91-5.28c-1.43-1.68-2.12-3.52-3.41-5.36
		c-5.96-8.54-14.1-13.8-23.47-18.02c-9.38-4.22-18.84-7.29-27.64-12.58c-3.92-2.36-7.56-5.14-12.34-4.69
		c-2.46,0.23-4.34,1.66-6.46,2.73c-4.75,2.39-9.56,4.27-14.77,5.31c-1.68,0.34-3.37,0.6-5,0.12c-3.27-0.96-5.62-3.83-9.13-3.95
		c-1.28-0.04-2.4,0.6-3.52,1.07C74.5,219.19,69.16,218.92,63.96,222.52z"/>
	<path class="st1" d="M297.43,272.95c0.31-1.19,0.61-2.38,0.92-3.57c6.56-6.36,10.24-13.54,11.82-22.52c1.13,0.22,2.1,0.63,3.04,1.3
		c1.04-3.96,2.09-7.92,3.13-11.88c1.3,1.68,2.59,3.35,3.89,5.03c0.73-2.79,1.47-5.58,2.2-8.37c2.49,0.51,4.49-0.21,6.11-2.16
		c2.2,0.88,4.22,0.08,6.23-0.9c2.36-1.16,4.63-2.3,6.95-3.49c4.36-2.23,8.66-4.38,12.95-6.79c8.87-4.98,17.34-9.97,27.42-12.06
		c1.02-1.17,2.17-1.84,3.69-2.13c7.58-2.58,14.56-2.82,22.29-0.77c-0.28-1.18,1.55-1.57,2.49-1.33s1.63,1.22,2.51,1.7
		c0.88,0.48,2.12,0.54,2.55-0.54c0.76,0.78,1.59,1.27,2.65,1.53c0.53-1.14,1.63-1.62,2.86-1.44c1.22,0.19,2.11,0.93,3.1,1.6
		c0.37-0.91,0.93-1.57,1.77-2.09c1.73,1.97,4.52,1.42,5.34-1.08c2.96,1.51,5.77,1.57,8.81,0.24c0.37-1.24,0.76-2.49,1.12-3.72
		c13.85,3.04,27.18,6.39,41.12,9.45c16.14,3.55,32.12,4.4,48.57,1.88c-0.51,1.8-2.09,2.6-3.79,3.09
		c-7.08,2.05-14.05,2.98-21.41,3.03c9.54,1.33,19.07,2.67,28.61,4c-9.94,3.71-19.02,3.78-29.04,0.35c2.22,2,4.93,2.83,7.76,3.52
		c6.14,1.49,12.17,2.93,18.28,4.41c-4.67,1.94-9.01,2.25-13.91,1.03c0.76,1.71,1.81,3.03,3.29,4.18c-4.52-0.58-8.4,0.29-12.13,2.86
		c-1.06,0.73-1.81,1.59-2.85,2.25c-1.37,0.86-2.83,1.43-4.34,1.94c-9.93,3.41-19.92,6.54-30.01,9.42c-1.35,0.38-2.74,0.73-4.12,0.72
		c-1.38-0.01-2.54-0.37-3.92-0.26c-1.39,0.11-2.57,0.88-3.92,1.27c-7.75,2.21-15.81,0.12-23.59,2.06c-2.22,0.55-4.45,1.73-6.47,0.5
		c-1.5-0.91-2.31-2.95-4.11-2.2c-0.78,0.32-0.64,1.22-1.12,1.84c-1.65,2.16-4.58,1.96-5.88-0.49c-1.21,1.63-2.21,3.29-4,4.37
		c-1.79,1.08-3.75,1.16-5.49-0.06c-1.65,3.39-4.58,5.16-8.32,4.75c-1.4-0.15-2.53-0.75-3.8-0.14c-0.9,0.44-1.25,1.52-2.23,1.63
		c-1.93,0.21-2.75-2.31-4.64-2.13c-1.02,0.1-1.53,1.29-2.48,1.49c-0.96,0.19-1.6-0.42-2.53-0.47c-1.58-0.09-2.66,1.03-3.56,2.22
		s-1.59,2.6-3.01,3.16c-1.41,0.56-3.07-0.22-2.98-1.81c-2.84,0.87-5.66,1.77-8.51,2.65c-0.95-1.27-3.26-0.3-4.33,0.33
		c-1.07,0.63-1.99,1.72-3.21,1.75c-1.69,0.05-3.45-1.46-4.86-0.22c-0.58,0.51-0.3,1.43-0.87,1.92c-1.69,1.43-3.77-0.91-5.78-0.6
		c-1.27,0.2-1.79,1.97-3.08,2.36c-2.58,0.77-4.74-2.31-7.29-1.63c-1.58,0.42-2.41,2.67-4.2,1.93c-0.44-1.05-1.2-2.76-2.56-2.65
		c-2.4,0.19-3.24,3.84-5.71,3.12c-0.65-0.19-0.78-0.91-1.37-1.28c-2.03-1.28-3.97-0.03-5.65,1.33c-0.6-1.26-1.55-3-3.09-2.93
		c-2.07,0.09-3.22,2.8-5.29,2.12c-1.08-0.35-1.33-1.71-2.47-1.94c-0.6-0.12-1.02,0.16-1.58,0.38c-2.93,1.11-5.58,0.76-8.43-0.48
		C296.42,273.81,297.32,273.03,297.43,272.95z"/>
	<path class="st2" d="M108.12,244.38c0.59,2.14,1.19,4.27,1.79,6.41c1.62-4.93,3.26-9.84,4.91-14.76c-0.03,3.3-0.07,6.61-0.11,9.91
		c0.83-1.47,1.66-2.94,2.48-4.4c-0.07,2.55,0.83,4.47,2.86,6.02c0.66-3.12,1.31-6.25,1.97-9.37c0.51,3.94,1.02,7.88,1.53,11.83
		c1.13-2.68,2.26-5.36,3.38-8.03c0.13,1.99,0.26,3.98,0.39,5.97c0.37-0.97,0.73-1.95,1.1-2.92c0.12,2.95,0.88,5.45,2.45,7.95
		c0.13-3.06,0.77-5.84,1.99-8.65c-0.05,2.45,0.16,4.81,0.66,7.21c-0.09-1.19,0.11-2.23,0.65-3.3c0.24,0.96,0.48,1.91,0.72,2.87
		c1.4-0.07,2.46,0.39,3.33,1.49c0.23-2.29,0.76-4.42,1.66-6.53c-0.03,2.53,0.3,4.92,1,7.35c0.38-2.46,1.1-4.7,2.21-6.92
		c0.07,2.09,0.15,4.18,0.23,6.26c0.37-0.67,0.74-1.33,1.11-2c-0.04,1.54,0.28,2.86,1.03,4.2c1.08-2.51,2.16-5.02,3.25-7.54
		c0.16,3.34,0.32,6.67,0.48,10.01c0.52-2.57,1.29-4.99,2.37-7.39c0.03,2.04,0.39,3.91,1.12,5.81c0.35-1.15,0.7-2.3,1.06-3.45
		c-0.1,3.19,0.39,6.09,1.57,9.05c0.67-4.81,1.33-9.62,1.99-14.42c0.49,4.48,0.69,8.94,0.61,13.44c0.47-3.7,1.25-7.27,2.38-10.83
		c0.16,2.16,0.32,4.32,0.49,6.49c0.28-1.3,0.55-2.61,0.83-3.9c0.54,0.76,0.34,1.67,0.13,2.49s-0.27,1.91,0.44,2.35
		c0.71,0.44,1.75-0.73,0.94-1.13c-0.09,1.16,0.17,2.14,0.88,3.09c0.04-4.39,1.07-8.11,3.38-11.85c-0.57,6.34-0.05,12.33,1.53,18.5
		c-0.68-2.11-1.36-4.21-2.03-6.32c-1.16,3.27-1.61,6.44-1.41,9.91c-0.36-2.09-0.73-4.18-1.09-6.27c-0.64,1.24-2.3,1.23-2.8-0.12
		c-0.63,3.52-1.1,7.05-1.35,10.62c-0.28-3.55-1.31-6.51-3.36-9.42c-0.96,4.9-2.74,9.16-5.55,13.28c1.1-4.77,1.53-9.44,1.36-14.33
		c-0.45,1.43-0.9,2.86-1.34,4.3c-0.24-1.68-0.48-3.36-0.71-5.04c-0.28,0.99-0.56,1.97-0.83,2.96c-0.23-1.98-0.75-3.77-1.64-5.55
		c-1.09,6.05-3.43,10.97-7.42,15.65c0.68-4.5,1.36-9,2.03-13.5c-0.19,5.5-2.44,9.51-6.96,12.64c2.07-5.25,3.1-10.41,3.18-16.05
		c-0.86,1.29-1.73,2.58-2.59,3.87c0.15-0.61,0.38-1.35-0.02-1.89c-0.4-0.54-1.33-0.41-1.39,0.29c-0.21-0.87-0.41-1.76-0.62-2.64
		c-1.79,5.85-4.76,10.31-9.45,14.23c2.4-4.74,3.62-9.43,3.8-14.74c-3.5,5.83-8,9.67-14.29,12.26c4.15-3.65,6.07-7.9,5.93-13.43
		c-3.81,5.24-8.18,9.31-13.71,12.69c4.66-3.7,6.91-8.16,7-14.12c-2.83,6.32-6.81,10.89-12.68,14.55c3.4-3.28,5.36-6.88,6.24-11.52
		c-1.82,4-8.52,11.26-13.39,9.18C101.02,260.48,106.2,254.24,108.12,244.38z"/>
	<path class="st2" d="M317.34,263.96c1.3-4.87,2.58-9.77,3.86-14.65c0.07,2,0.32,3.93,0.77,5.88c0.34-0.64,0.67-1.27,1.02-1.91
		c-0.44,1.21-0.02,2.2,0.85,3.03c0.76,0.73,1.28,1.53,2,2.28c3.15-5.6,5.32-11.3,6.66-17.59c-0.1,4.19-0.21,8.37-0.31,12.56
		c1.5-5.31,3.62-10.14,6.49-14.85c-1.56,5.49-2.76,11.01-3.61,16.66c0.67-2.29,1.33-4.57,2-6.86c0.04,1.6,0.08,3.21,0.13,4.81
		c0.76-1.1,1.28-2.24,1.63-3.53c-0.13,1.86,0.11,3.55,0.73,5.3c0.88-4.39,2.2-8.52,4-12.61c-0.57,4.52-0.77,9-0.58,13.56
		c0.44-3.47,1.65-6.31,3.83-9.04c-0.09,1.79-0.19,3.59-0.28,5.38c0.36-1.01,0.72-2.01,1.08-3.02c0.27,2.79,0.9,5.37,1.95,7.96
		c2.12-6.36,3.16-12.61,3.19-19.31c0.49,6.46,0.42,12.82-0.2,19.27c1.01-3.59,2.22-7.09,3.64-10.54c-0.02,2.62-0.04,5.25-0.07,7.87
		c0.08-1.22,0.36-2.34,0.85-3.46c-0.17,3.26,0.49,6.05,2.1,8.9c0.82-5.25,2.29-10.11,4.48-14.94c-1.02,7.5-0.76,14.58,0.86,21.98
		c-0.5-2.84-1.25-5.56-2.28-8.25c-1.18,3.33-2,6.67-2.48,10.16c-0.9-2.63-1.38-5.23-1.48-8.01c-0.39,1.14-0.79,2.29-1.18,3.43
		c-0.09-1.56-0.44-2.97-1.07-4.39c-0.25,0.63-0.49,1.26-0.74,1.89c-0.46-0.47-0.91-0.94-1.37-1.41c-0.43,3.41-0.85,6.82-1.28,10.22
		c-1.1-3.63-1.99-7.29-2.67-11.02c-0.44,3.93-1.51,7.46-3.33,10.96c0.33-3.57,0.16-7-0.53-10.52c-0.14,3.28-1.1,5.98-3.05,8.62
		c0.65-3.6,0.26-6.77-1.24-10.1c-1.21,4.09-3.04,7.59-5.7,10.92c0.69-2.85,1.02-5.67,1-8.61c-0.32,0.8-0.64,1.6-0.96,2.39
		c-0.1-0.48-0.16-1.04-0.59-1.34c-0.43-0.3-1.05-0.12-1.1,0.42c-0.03-2.23-0.53-4.18-1.58-6.15c-0.78,5.13-2.56,9.41-5.71,13.54
		c1.19-2.9,1.83-5.76,1.97-8.88c-0.4,2.42-1.5,4.12-3.57,5.45c-0.04-1.47-0.08-2.94-0.12-4.41c-1.24,0.54-1.91,1.44-2.04,2.79
		c-0.22-1.48-0.63-2.83-1.28-4.17c0.49,4.08-4.09,7.38-7.26,9.2C316.02,268,316.77,266.09,317.34,263.96z"/>
	<path class="st2" d="M437.14,253.24c-2.6-2.49-3.6-5.32-3.13-8.9c3.87,2.37,7.28,5.09,10.45,8.33c-1.39-2.51-2.78-5.02-4.17-7.52
		c0.51,0.75,1.02,1.51,1.52,2.26c0.05-0.74,0.03-1.59,0.62-2.11s1.58-0.3,1.66,0.52c0.32-1.45,0.64-2.92,0.96-4.37
		c3.53,5.93,8.37,9.04,15.23,9.77c-5.11-2.98-8.28-6.87-10.13-12.49c2.88,2.8,5.99,4.87,9.7,6.43c-1.06-1.54-1.63-3.1-1.79-4.97
		c0.58,0.69,1.16,1.38,1.75,2.07c0.02-1.71,0.03-3.42,0.05-5.14c5.45,5.75,11.51,8.7,19.4,9.42c-6.16-1.05-10.34-4.18-13.08-9.8
		c2.59,1.38,5.18,2.77,7.77,4.15c-0.08-1.75-0.46-3.34-1.17-4.95c0.24,1,0.75,1.7,1.64,2.23c0.18-1.86,0.37-3.72,0.55-5.58
		c0.85,1.22,1.83,2.18,3.07,3c0.01-1.09,0.03-2.19,0.04-3.28c3,4.86,6.99,7.47,12.64,8.26c-7.18-4.73-11.88-10.52-15.01-18.52
		c-0.09,2.14-0.18,4.29-0.27,6.43c-0.96-0.44-1.93-0.91-2.89-1.32c-0.43,2.84-2.2,5.17-5.24,5.34c-3.05,0.17-5.13-1.94-5.94-4.7
		c-0.51,2.4-0.12,4.49,1.16,6.6c-1.47-1.33-3.51-2.4-5.29-1.56c-0.77,0.37-1.93,0.92-1.95,0.03c-0.19,1.43-0.44,2.89-0.66,4.33
		c-2.94-2.97-5.89-5.94-8.83-8.91c1.18,3.46,2.37,6.91,3.55,10.37c-1.64-1.17-3.28-2.34-4.91-3.51c0.4,1.25-0.37,2.31-1.69,2.31
		c-0.05,0.88-0.09,1.75-0.14,2.63c-0.65-0.84-1.31-1.68-1.96-2.52c-0.21,1.35-0.41,2.7-0.62,4.05c-3.09-2.83-6.19-5.66-9.28-8.49
		c0.51,3.24,1.56,6.07,3.31,8.84c-3.52-1.56-6.23-3.68-8.59-6.73c0.13,3.31,0.97,6.15,2.64,9c-4.56-5.3-8.97-10.7-13.9-15.66
		C417.35,240.74,425.87,248.3,437.14,253.24z"/>
	<path class="st3" d="M187.89,259.16c0.78,3.05,1.32,6.35,4.62,7.57c0.07-0.84,0.15-1.69,0.23-2.54c3.35,3.1,4.02,6.8,2.07,10.91
		c2.02-0.87,3.26-2.22,3.62-4.42c1.07,1.38,1.82,2.82,2.32,4.49c0.32-0.65,0.64-1.3,0.96-1.94c0.18,2.77,2.12,4.15,4.8,4.1
		c-0.29-1.73,0.12-3.13,1.15-4.54c0.21,2.8,1.18,4.96,3.13,6.97c0.03-1.44,0.05-2.87,0.08-4.31c0.48,1.52,1.29,2.61,2.57,3.55
		c0.02-0.99,0.04-1.99,0.06-2.98c0.59,3.33,2.27,5.2,5.31,6.59c-0.02-1.27-0.03-2.54-0.05-3.81c-0.1,1.43,0.43,2.44,1.54,3.33
		c-1.9-5.73-2.79-11.21-2.88-17.31c-0.03-2.48-0.08-5.15-2.28-6.84c-1,3.9-2.46,7.48-4.4,11.02c-2.21-2.12-3.24-4.49-3.52-7.53
		c-0.52,1.04-0.81,2.07-0.89,3.23c-0.53-1.05-1.06-2.1-1.59-3.15c0.07,0.83-0.21,1.46-0.84,2c-1.04-2.44-2.26-4.73-3.69-6.96
		c-0.87,1.15-1.51,2.36-1.97,3.73c-0.53-1.36-1.07-2.72-1.6-4.08c-0.61,0.15-0.95,0.61-0.83,1.24c-0.33-0.61-0.66-1.23-0.99-1.84
		c0.42-0.03,0.34,0.63-0.04,0.69c-0.38,0.06-0.7-0.28-0.93-0.6c-1.43-1.94-2.86-3.89-4.28-5.84c-0.09,1.67-0.49,3.17-1.22,4.67
		c-1.3-2.57-1.7-5.02-1.39-7.9c-0.54,2.24-2.73,1.64-2.4,4.58C184.84,253.61,187.22,256.55,187.89,259.16z"/>
	<path class="st3" d="M264.44,282.98c2.93,0.35,7.26,0.3,9.46-1.99c1.11-1.16,1.24-3.23,3.22-2.97c1.08,0.14,1.67,1.35,2.69,1.41
		c2.31,0.14,2.18-2.92,3.97-3.92c0.64-0.36,1.61-0.09,2.35-0.28c0.74-0.18,1.4-0.74,0.97-1.55c0.5,0.38,1,0.76,1.49,1.15
		c0.43-0.25,0.85-0.49,1.28-0.74c1.7,0.93,3.33,1.42,5.28,1.35c-0.21-2.74,0.08-5.27,0.97-7.87c0.23,0.67,0.97,0.99,1.63,0.76
		c0.66-0.23,0.96-0.8,1.27-1.38c2.9-5.49,5.96-10.93,8.84-16.41c0.35-0.66,0.55-1.69-0.27-1.94c-0.39-0.12-0.69,0.22-0.96,0.46
		c-0.89,0.81-1.75,1.71-2.66,2.5c-0.69-0.56-1.41-0.87-2.28-1c-0.07,0.57-0.07,1.15-0.49,1.6c-0.43,0.44-1.12,0.49-1.53,0.01
		c-0.27,0.67-0.52,1.34-0.79,2.01c-1.12-0.4-2.05-0.97-2.91-1.79c0.11,1.78-0.5,3.11-1.9,4.21c-0.86-0.79-1.71-1.57-2.57-2.36
		c-0.23,1.1-0.47,2.19-0.7,3.29c-0.51-0.29-1.02-0.57-1.54-0.86c-0.63,1.44-1.51,2.44-2.83,3.28c-0.43-0.64-0.85-1.28-1.28-1.92
		c-0.71,2.06-1.85,3.58-3.58,4.91c-0.32-0.57-0.63-1.15-0.95-1.72c-1.75,2.47-3.5,4.93-5.29,7.37c-0.36,0.48-0.79,0.98-1.41,1.03
		c-0.61,0.05-1.38-0.47-1.08-1.11c-0.49,1.2-1.13,2.2-2.08,3.09c-0.18-0.67-0.51-1.28-0.69-1.95c-1.21,2.39-2.37,4.51-3.74,6.99
		C265.92,277.39,264.34,282.97,264.44,282.98z"/>
	<path class="st4" d="M206.56,276.36c0.45-1.46,0.9-2.91,1.34-4.37c0.49,1,0.98,2,1.47,3c0.61-1.1,1.21-2.19,1.82-3.29
		c0.28,2.95,1.37,5.2,3.5,7.27c0.07-1.82,0.14-3.63,0.22-5.45c1.14,3.89,3.01,6.73,6.07,9.38c-1.14-8.26-1.75-16.52-1.96-24.86
		c-0.93,1.97-1.68,3.98-2.27,6.07c-0.81-1.99-1.62-3.98-2.43-5.97c-0.35,2.63-0.71,5.26-1.06,7.89c-1.48-1.93-2.49-3.98-3.2-6.3
		c-0.18,1.98-0.23,3.95-0.15,5.94c-0.86-1.55-1.7-3.11-2.55-4.67c0.33,1.11-0.06,2.33-0.29,3.44c-0.58-0.25-1.17-0.25-1.77-0.41
		C205.66,268.16,206.44,272.22,206.56,276.36z"/>
	<path class="st4" d="M263.58,283.55c1.38-1.14,2.65-2.45,3.92-3.73c0.05,0.88,0.3,1.62,0.75,2.38c0.45-1.06,1.05-1.95,1.85-2.78
		c0.05,0.47,0.11,0.95,0.16,1.42c1.1-1.43,2.2-2.85,3.28-4.29c0.24,1.7,0.11,3.2-0.55,4.8c3.03-4.19,5.39-8.65,7.38-13.41
		c-1.08,1.19-1.96,2.46-2.69,3.9c-0.01-2.8,0.84-4.95,2.64-7.09c-2.61,1.77-4.45,3.74-5.67,6.67c-0.28-1.66-0.23-3.2,0.21-4.82
		c-1.05,1.82-2.11,3.4-3.79,4.69c-0.03-1.03-0.42-1.92-0.64-2.93c-1.51,2.74-3.17,4.95-4.61,7.85
		C264.82,278.22,265.1,281.65,263.58,283.55z"/>
	<path class="st5" d="M95.42,209.19c2.74-1.15,5.47-2.3,7.96-3.94c2.07-1.37,3.82-3.11,5.81-4.58c3.16-2.35,6.54-4.28,10.04-6.11
		c1.68-0.88,3.33-1.77,5.3-1.68c2.4,0.1,4.1,1.59,6.11,2.81c8.83,5.33,18.18,8,28.41,8.74c10.23,0.74,20.2-0.19,30.33-0.91
		c8.96-0.64,17.71-1.58,26.45-3.65c0.9,4.16-1.16,7.49-4.68,9.63c-3.52,2.14-7.39,2.58-11.25,3.74c-5.85,1.76-11.09,4.62-16.86,6.8
		c-5.77,2.18-11.7,3.13-17.72,1.38c-3.51-1.02-6.14-3.3-9.25-5.05c-7.61-4.27-15.61-7.11-23.99-9.54c-2.22-0.64-4.31-1.49-6.73-1.23
		c-8.46,0.94-13.21,8.22-20.7,11.72c-4.81,2.25-9.66,1.78-15.24,1.78c-3.91,0-10.04,0.99-13.67-1.62
		C82.07,214.29,88.85,211.95,95.42,209.19z"/>
	<path class="st5" d="M275.54,211.54c14.34-1.97,25.41,7.03,39.22,9.15c10.91,1.67,21.11-2.71,31.29-6.48
		c7.5-2.77,14.7-6.06,22.32-8.89c7.62-2.83,15.56-6.07,23.89-5.06c10.71,1.3,19.39,8.58,30.26,9.12c8.52,0.42,15.78-4.08,23.14-7.86
		c-13.26-3.59-26.45-7.27-39.78-10.66c-5.16-1.31-10.2-2.78-15.65-2.69c-11.41,0.2-21.28,5.6-31.94,9.15
		c-13.41,4.46-27.1,6.52-41.18,6.46s-27.63-3.34-41.61-4.06C275.6,203.03,277.62,208.63,275.54,211.54z"/>
	<path class="st6" d="M131.23,203.19c1.21,3.36,3.9,4.92,7.43,4.38c-0.09,1.75,0.42,3.12,1.64,4.37c0.2-1.29,0.76-2.25,1.81-3.03
		c0.2,1.26,0.4,2.53,0.61,3.79c0.6-0.73,1.2-1.44,1.81-2.16c0.32,1.15,0.65,2.31,0.97,3.46c0.97-0.24,1.64-0.75,2.13-1.62
		c0.99,1.26,1.99,2.51,2.98,3.78c0.06-1.58,0.69-2.73,1.98-3.65c0.51,2.27,1.25,4.38,2.27,6.47c0.52-1.31,1.05-2.62,1.57-3.94
		c0.35,1.47,0.7,2.94,1.05,4.41c0.46-1.07,0.92-2.14,1.38-3.2c0.75,1.44,1.51,2.89,2.26,4.33c0.33-1.02,0.65-2.03,0.98-3.05
		c0.59,0.85,1.17,1.7,1.76,2.55c0.86-0.75,1.72-1.48,2.59-2.21c0.11,1.84,0.5,3.53,1.22,5.24c0.84-2.13,2.07-3.73,3.9-5.11
		c0.01,1.51,0.02,3.03,0.02,4.54c0.77-2.02,1.95-3.45,3.79-4.59c0.09,0.92,0.18,1.83,0.27,2.75c0.94-0.73,1.47-1.59,1.67-2.76
		c-0.06,0.98,0.29,1.73,1.06,2.34c0.09-1.05,1.65-1,1.72,0.03c1.68-2.12,3.59-3.76,5.96-5.07c0.06,0.85,0.14,1.69,0.21,2.53
		c0.77-1.37,1.74-2.47,2.95-3.46c0.03,0.82,0.06,1.65,0.08,2.47c2.08-1.17,3.89-2.55,5.56-4.26c0.14,0.84,0.54,1.44,1.24,1.93
		c0.77-1.79,1.85-3.1,3.46-4.2c0.08,1.58,0.17,3.16,0.25,4.73c0.51-2.23,1.71-3.69,3.78-4.67c0.05,0.88,0.11,1.76,0.16,2.64
		c0.44-0.41,0.88-0.83,1.32-1.24c2.75,0.48,5.5,0.96,8.26,1.44c-1.2-1.4-1.75-2.86-1.71-4.71c-0.93,0.59-1.87,1.19-2.8,1.78
		c-2.73-2.32-5.88-2.18-9.26-1.78c-1.28,0.15-2.44,0.34-3.7,0.52c-2.23,1.27-4.46,2.54-6.69,3.81c0.43-1.54,0.19-2.84-0.7-4.16
		c-1.01,1.47-2.02,2.94-3.04,4.41c-0.08-0.83-0.16-1.66-0.23-2.49c-0.1,1.21-1.5,1.55-2.27,0.68c-0.62,1-1.24,1.99-1.85,2.99
		c-0.14-1.06-1.64-1.17-1.89-0.12c0.09-1.24-0.28-2.22-1.2-3.07c-0.14,0.72-0.53,1.71-1.3,1.8c-0.76,0.09-1.2-1.29-0.35-1.28
		c-0.55,1.03-1.11,2.09-1.67,3.13c-0.08-0.86-0.16-1.72-0.25-2.58c-0.86,0.56-1.71,1.12-2.57,1.68c0.48-1.03-1.16-1.76-1.65-0.75
		c-0.1-1.44-0.19-2.88-0.29-4.32c-1.45,1.54-2.58,3.19-3.48,5.11c0.32-1.66-0.14-2.99-1.38-4.14c-0.61,1.09-0.9,2.17-0.93,3.42
		c-0.35-0.64-0.71-1.29-1.06-1.93c0.68,0.12,0.18,1.03-0.37,1.02c-0.55-0.01-1.08-0.63-1.6-0.82c-0.52-0.19-1.39,0.1-1.13,0.76
		c-0.05-1.09-1.57-1.25-1.87-0.21c-0.38-1-0.76-2.01-1.13-3.01c-0.87,0.69-1.73,1.37-2.6,2.06c-0.17-0.95-0.34-1.9-0.51-2.86
		c-0.92,0.11-1.49,0.71-1.5,1.65c-1.37-1.58-3.12-1.96-5.05-1.17c-0.89-1.51-1.79-3.02-2.68-4.53c-0.67,0.97-1.34,1.95-2.01,2.92
		c-0.12-1.79-0.65-3.26-1.69-4.72c-0.65,0.8-1.31,1.59-1.96,2.4c-3.27-1.89-9.52-6.73-9.94-0.3
		C129.81,204.04,130.51,203.61,131.23,203.19z"/>
	<path class="st7" d="M298.11,212.89c-0.54,0.36-0.41,1.15,0.16,1.44s1.19,0.07,1.77-0.12c1.44-0.47,2.88-0.99,4.32-1.48
		c0.76,1.69,1.52,3.39,2.28,5.08c0.36-1.27,0.72-2.54,1.08-3.81c0.73,1.48,1.72,2.49,3.19,3.23c0.11-0.6,0.8-0.58,1.31-0.42
		c1.95,0.64,3.92,1.34,5.88,1.99c0.28-1.03,0.55-2.06,0.83-3.1c0.26,1.61,0.82,2.97,1.77,4.3c0.1-0.94,0.4-1.73,0.93-2.5
		c0.09,1.16,0.52,2.03,1.39,2.8c0.28-1.52,2.08-0.05,2.56,0.6c0.49-0.7,0.98-1.39,1.47-2.09c0.94,0.82,1.94,1.23,3.19,1.32
		c0.51-1.03,1.01-2.06,1.51-3.1c0.72,1.01,1.44,2.03,2.16,3.04c0.49-1.19,0.97-2.38,1.46-3.56c0.44,0.74,0.88,1.49,1.33,2.22
		c0.92-0.65,2.08-1.59,2.93-2.16c0.56-0.38,1.93,0.16,1.27,0.42c2.13-1.74,4.29-3.52,6.43-5.27c0.52,0.68,1.04,1.36,1.56,2.03
		c0.63-0.79,1.28-1.6,1.9-2.38c-0.27,1.33,1.74,0.86,2.51,0.25c0.77-0.61,1.88-1.71,2.71-2.41c2.91-0.48,4.94-1.84,6.51-4.32
		c0.47,0.67,0.93,1.34,1.4,2.01c4.1-3.21,8.37-5.3,13.42-6.55c2.49-2.01,5.07-2.7,8.23-2.2c-0.48-1.7-1.24-3.12-2.41-4.44
		c-3.01,1.79-6.23,3.65-9.36,5.09c-1.59,0.73-3.95,1.02-4.32-0.98c0.08,0.9-0.21,1.94-1.04,2.41c-1.71,0.96-3.49,1.63-5.22,2.52
		c-0.47-0.26-0.93-0.51-1.4-0.77c-2.44,0.05-4.3,0.89-6,2.62c-0.21-0.76-0.42-1.52-0.62-2.29c-0.67,0.91-1.04,1.84-1.15,2.96
		c-0.22-0.78-0.74-1.23-1.55-1.31c-0.2,0.7-0.4,1.39-0.6,2.09c-2.13-0.41-3.82,0.27-5.13,1.99c0.02-1.04-0.25-1.89-0.87-2.72
		c-0.68,1.58-1.07,3.16-1.19,4.88c-0.28-1.33-0.55-2.66-0.83-3.99c-0.44,1.01-0.86,2.01-1.3,3.02c-0.17-0.95-1.41-0.3-1.91-0.11
		c-0.5,0.19-1.9-0.37-1.11-0.78c-1.17,0.88-1.89,1.94-2.29,3.35c-0.61-1.29-1.22-2.58-1.83-3.87c-0.27,1.53-0.54,3.06-0.81,4.59
		c-0.32-1.15-0.64-2.3-0.96-3.45c-0.93,0.87-1.36,1.85-1.35,3.12c-0.56-0.81-1.12-1.63-1.68-2.43c0,0.6,0.02,1.35-0.48,1.75
		c-0.5,0.4-1.34,0.08-1.18-0.59c-0.07,1.35-0.71,2.3-1.95,2.86c-0.12-1.58-0.51-2.99-1.21-4.4c-0.51,1.2-1.02,2.41-1.53,3.61
		c-0.19-0.8-0.39-1.6-0.58-2.4c-0.29,0.81-0.58,1.64-0.87,2.44c0.21-0.64-0.4-1.22-1.06-1.02c-0.66,0.2-0.87,0.92-0.93,1.55
		c-0.21-0.75-0.42-1.51-0.64-2.27c-1.28,0.85-2.56,1.7-3.84,2.55c-0.43-1.4-0.85-2.81-1.28-4.21c-0.31,1.17-0.63,2.34-0.94,3.51
		c-0.46-1.15-0.93-2.3-1.39-3.44c0,1.55-1.59,1.91-2.92,1.84c-1.32-0.06-2.83-0.24-3.53,1.13c-0.3-0.87-0.6-1.74-0.9-2.61
		c-0.51,0.68-1.01,1.35-1.52,2.03c-1.08-0.72-2.17-1.44-3.25-2.16c-2.24,1.38-4.52,1.2-7.05,1.49c0.01,0.81,0.21,1.46,0.56,2.19
		c0.8,0.3,1.6,0.55,2.39,0.87C297.1,213.92,297.61,213.4,298.11,212.89z"/>
	<path class="st8" d="M217.7,210.01c-1.35,16.85-1.38,33.35,0.41,50.16c-1.54-0.97-2.74-2.13-3.72-3.67
		c-0.72,2.92-1.46,5.83-2.19,8.74c-1.36-1.8-1.88-3.62-1.64-5.86c-0.83,2.28-1.67,4.55-2.46,6.84c-0.18-1.74-0.36-3.49-0.53-5.23
		c-0.59,0.95-1.15,1.93-1.73,2.88c0.25-0.66-0.37-1.18-1.04-1.1c-0.67,0.08-1.13,0.63-1.57,1.1c0.65-3.25,0.06-5.95-1.93-8.61
		c-0.57,1.92-1.46,3.53-2.76,5.06c-0.34-1.47-0.68-2.95-1.02-4.42c-0.71,0.53-1.18,1.15-1.47,1.98c0.29-0.64,0-1.42-0.74-1.54
		c-0.74-0.12-1.29,0.5-1.25,1.21c-0.8-2.87-1.59-5.75-2.37-8.63c-0.26,1.33-0.52,2.66-0.78,3.99c-0.61-1.45-1.22-2.9-1.83-4.35
		c-0.49,2.64-0.97,5.27-1.45,7.91c-1-3.34-1.31-6.56-1.02-10.03c-0.73,1.21-1.45,2.42-2.18,3.63c-0.09-1.08-0.17-2.17-0.26-3.25
		c-1.14,0.65-2.02,1.45-2.77,2.53c-0.04-1.95-0.09-3.89-0.14-5.84c-1.06,1.36-2.12,2.71-3.18,4.07c-0.2-1.81-0.39-3.62-0.59-5.44
		c-0.53,1.09-1.06,2.19-1.58,3.28c-0.04-0.83-0.08-1.65-0.13-2.48c-0.69,0.72-1.37,1.43-2.06,2.15c0.07-3.09,0.13-6.2,0.21-9.29
		c0.73,0.43-0.45,1.15-1.02,0.84s-1.03-1.22-1.75-1.41c-8.61-3.78-16.9-7.95-25.18-12.42c-4.86-2.63-9.69-5.39-14.42-8.27
		c-2.24-1.36-4.39-2.81-7.06-3.23c-3.55-0.57-6.87,0.58-10.2,1.73c-5.1,1.76-10.06,3.67-15.16,5.42c-3.57,1.23-6.98,2.53-10.87,2.48
		c-3.89-0.05-7.14-1.65-9.3-4.93c6.9-2.14,13.72-4.17,20.65-6.3c4.13-1.27,8.12-2.68,11.46-5.57c2.08-1.8,3.24-4.25,5.99-5.29
		c2.75-1.05,5.71-0.1,8.37,1.09c15.22,6.82,28.68,17.82,45.81,18.42c13.13,0.46,24.3-6.84,36.67-9.94
		C211.56,207.5,214.56,207.77,217.7,210.01z"/>
	<path class="st8" d="M269.2,268.16c0.85-0.17,1.73-0.26,2.6-0.4c0.01,0.98,0.03,1.95,0.04,2.93c0.91-1.37,1.81-2.73,2.72-4.1
		c0.03,0.99,0.07,1.98,0.1,2.97c2.75-2.97,4.18-6.13,4.72-10.14c0.97,0.82,1.65,1.73,2.1,2.93c0.84-1.63,1.68-3.27,2.52-4.9
		c0.6,0.98,1.21,1.95,1.81,2.93c1.93-1.22,3.09-2.68,3.82-4.84c0.52,1.02,1.2,1.79,2.13,2.45c0.33-1.13,0.66-2.25,0.98-3.38
		c0.92,0.84,1.47,1.77,1.74,2.99c0.36-2.01,0.71-4.01,1.07-6.02c1.02,0.71,1.57,1.59,1.65,2.83c0.19-1.07,0.61-1.94,1.33-2.77
		c1.17,0.28,2.33,0.55,3.5,0.83c0.4-1.21,0.79-2.41,1.18-3.62c1.99,0.86,3.89-0.13,4.22-2.29c0.76,1.25,1.53,2.49,2.29,3.74
		c1.45-1.49,2.36-3.09,2.86-5.11c0.22,0.9,0.43,1.81,0.65,2.71c1.5-3.39,2.66-6.83,3.53-10.44c0.67,1.55,1.54,2.87,2.69,4.11
		c1.06-3.08,1.58-6.11,1.61-9.36c0.23,0.74,0.63,1.27,1.27,1.7c0.51-0.43,0.83-0.92,1.01-1.57c1.54-0.14,3.09-0.27,4.63-0.41
		c0.39-0.73,0.77-1.47,1.16-2.2c9.4-2.59,18.11-6.25,26.54-11.14c3.99-2.32,7.64-5.02,11.71-7.19c5.6-2.99,11.26-5.29,17.49-6.76
		c6.24-1.47,12.22-1.64,18.36,0.37c0.74,0.24,1.39,0.69,2.17,0.57c2.31-0.35,3.22-3.11,1.96-5.01c-1.26-1.9-3.32-2.75-5.65-3.07
		c-18.54-2.53-34.45,3.19-51.09,10.91c-4.59,2.13-8.85,4.38-13.68,5.59c-6.25,1.56-12.61,1.41-18.87,0.83
		c-7.43-0.7-15.08-2.56-21.89-4.41c-3.78-1.03-3.46,1.36-6.45,2.04s-5.63-1.87-8.55-0.35c-5.38,2.79-3.21,10.71-3.32,15.17
		C277.5,242.16,274.74,254.71,269.2,268.16z"/>
	<path class="st9" d="M172.11,236.5c2.7,0.01,3.85-2.21,4.89-4.41c1.89-3.99,4.16-7.57,7.01-10.93c-0.19,3.35-1.35,6.41-2.68,9.42
		c-1.75,3.95-3.46,7.76-5.2,11.68c4.54-6.3,7.8-12.83,10.11-20.23c1.61,4.24,0.78,8.21-0.94,12.24c-1.72,4.02-3.59,7.5-3.97,11.87
		c1.27-0.55,1.79-1.75,2.18-2.99c1.84-5.87,3.64-11.68,5.44-17.54c2.08,4.42,1.55,8.65,0.37,13.22s-2.25,8.61-1.12,13.27
		c1.61-7.46,3.21-14.85,4.83-22.32c0.36-1.66,0.84-3.28,2.13-4.5c-0.34,8.78-3.48,17.06-3.11,25.89c1.42-8.37,3.01-16.77,5.23-24.93
		c0.34-1.26,1.39-2.68,2.67-1.86c-1.05,4.76-2.1,9.32-3.09,14.12c-1.15,5.61-2.04,11.13-1.05,16.87
		c1.61-10.15,3.61-20.18,6.25-30.11c1.43,6.19-0.26,11.81-1.57,17.85c-1,4.63-1.26,9.23-1.25,13.94c1.52-7.49,3.02-14.91,4.6-22.42
		c0.6-2.88,1.42-5.65,3.22-8.05c-0.97,7.71-1.83,15.36-2.67,23.11c-0.4,3.71-0.58,7.2,0.89,10.73c1.08-13.29,3.1-26.27,6.19-39.24
		c-1.92,0.13-3.05,1.34-4.22,2.75c-0.17-1.59-0.68-2.93-1.57-4.26c-0.21,1.82-0.97,3.14-2.42,4.25c-0.65-1.19-1.3-2.38-1.95-3.57
		c-0.56,0.71-1.12,1.42-1.68,2.13c-0.55-0.75-1.09-1.51-1.64-2.26c-0.39,1.2-0.99,2.15-1.91,3c-0.58-0.88-0.97-1.81-1.22-2.82
		c-0.6,0.84-1.26,1.83-2.34,1.98s-2.16-0.81-1.61-1.85c-1.1,0.94-2.18,1.93-3.25,2.91c-0.52-1.57-0.71-3.08-0.57-4.73
		c-1.65,2.73-5.55,2.76-5.75-0.76C179.73,225.14,176.74,230.83,172.11,236.5z"/>
	<path class="st9" d="M276.72,259.84c-0.15,1.02-0.16,1.94,0.64,2.71c4.17-12.66,5.93-25.09,5.92-38.41
		c2.7,9.91,0.22,19.35-0.14,29.38c1.52-1.27,1.9-2.98,2.12-4.86c0.88-7.51,1.69-14.98,2.54-22.49c0.15,5.3,0.28,10.65,0.45,15.93
		c0.12,3.8,0.45,7.25,1.87,10.79c0.44-9.18,0.9-18.34,1.36-27.52c0.43,8.36,1.31,16.61,2.79,24.85c1.64-7.6-0.07-15-0.21-22.69
		c-0.02-1.22,0.28-2.5,1.38-3.2c1.02,8.29,2.04,16.59,3.1,24.87c0.36-7.79,0.74-15.58,1.12-23.36c1.1,6.83,2.24,13.66,3.36,20.49
		c0.21-6.5,0.42-13.01,0.65-19.51c3.42,5.78,2.43,12.7,6.7,18.03c-1.49-6.42-2.28-12.78-2.34-19.37c4.38,4.02,2.5,10.32,6.51,14.64
		c-1-4.01-2.03-8.01-3.03-12.02c-0.18-0.73-0.36-1.45-0.08-2.17s1.05-1.14,1.78-0.81c0.78,3.99,2.09,7.6,4.08,11.14
		c-0.39-3.43-0.78-6.85-1.17-10.28c1.94-0.52,3.02,1.16,3.66,2.79c0.64,1.63,1.28,3.41,3.26,3.54c-0.94-4.01-2.22-7.85-3.87-11.63
		c-0.4,1.48-1.36,2.35-2.88,2.58c-0.25-2.12-1.13-3.67-2.85-4.94c-0.13,1.51-0.26,3.02-0.39,4.52c-0.85-1.07-1.71-2.14-2.56-3.21
		c-0.3,1.37-0.6,2.75-0.91,4.12c-1.01-0.66-1.57-1.5-1.83-2.67c-0.27,1.05-0.54,2.11-0.82,3.16c-1.52-0.7-2.47-1.73-3.04-3.31
		c-0.27,1.39-0.55,2.77-0.83,4.15c-0.57-1.22-1.29-2.28-2.2-3.27c-0.4,0.95-0.8,1.89-1.21,2.84c-0.9-1.16-1.79-2.33-2.69-3.49
		c-0.62,1.02-1.24,2.04-1.85,3.06c-0.65-1.3-1.47-2.37-2.62-3.27c-0.67,1.15-1.34,2.32-2.01,3.46c-0.29-1.25-0.9-2.51-2.25-2.78
		s-2.6,0.83-2.29,2.18c-0.51-1.05-0.89-2.22-1.97-2.85c-1.08-0.63-2.44-0.32-2.9,0.89c0.1-1.72-0.87-2.67-2.59-2.7
		c2.04,6.2,0.87,13.75,0.44,19.78C278.4,246.55,277.8,252.6,276.72,259.84z"/>
	<path class="st10" d="M98.06,204c2.73-1.24,5.28-2.4,7.68-4.12c2.71-1.94,4.48-4.69,7.45-6.41c5.58-3.23,11.56-2.92,17.62-1.22
		c6.06,1.69,11.05,5.11,17.12,6.81c15.29,4.29,30.53,2.51,46.05,0.48c4.84-0.63,9.65-1.43,14.07-2.95
		c4.42-1.52,8.24-3.99,12.74-4.42c4.5-0.44,8.49,0.76,12.39-1.87c-5.13,2.07-8.03,6.29-12.55,9.33c-8.57,5.75-18.29,7.45-28.53,7.9
		c-22.54,1.01-44.52-1.55-66.19-7.74c-1.62-0.46-3.12-1.11-4.86-0.96c-4.49,0.37-7.58,3.43-11.29,5.74
		c-2.18,1.36-4.45,2.19-6.88,3.19c-13.67,5.61-26.83,12.29-41.32,15.85c6.01-4.03,11.26-6.64,17.85-10.34
		C84.83,210.22,91.39,205.03,98.06,204z"/>
	<path class="st10" d="M273.15,194.92c3.15,2.11,6.47,3.47,10.19,4.26c28.86,6.13,57.3,1.73,83.77-10.94c3.63-1.74,6.9-3.82,11-4.31
		c6.46-0.79,11.92,1.87,17.73,4.47c24.8,11.12,53.09,5.85,77.83,17.24c-10.6-1.59-21.21-3.14-31.83-4.67
		c-4.44-0.64-8.87-1.28-13.25-2.24c-5.68-1.24-11.17-3.1-16.82-4.49c-6.24-1.53-12.45-2.75-18.87-3.49
		c-4.47-0.52-8.86-0.74-13.23,0.62c-3.9,1.22-6.89,3.91-10.42,5.95c-11.55,6.67-23.77,10.49-37.02,11.52
		c-13.26,1.02-25.82-0.31-38.93-2.07C284.52,205.59,277.43,203.11,273.15,194.92z"/>
	<path class="st11" d="M295.81,201.82c24.57,2.7,48.14-0.82,71.18-9.66c8.39-3.22,16.2-7,25.34-6.05c4.58,0.47,8.3,2.77,12.56,4.06
		c20.03,6.11,41.19,5.39,60.57,13.77c-5.4,0.31-10.76,0.81-16.14-0.03c-6.59-1.03-12.67-3.81-19.22-5.05
		c-5.76-1.08-11.51-1.1-17.29-2.41c-5.78-1.31-10.58-4.61-16.67-5.46c-13.49-1.89-24.79,4.36-37.22,9.1
		c-21.67,8.27-43.87,10.33-66.67,5.81c-4.38-0.87-8.27-2.26-12.09-4.72c-2.92-1.88-5.12-4.84-6.17-8.18
		c3.53,0.78,6.18,4.31,9.33,5.68C287.44,200.47,291.47,201.34,295.81,201.82z"/>
	<g>
		<path class="st12" d="M256.44,30.57c-2.6,5.42-3.57,12.18-3.83,17.9c-0.22,4.99,1.63,10.04,2.21,14.25
			c1.74,12.46,2.11,25.31,0.71,37.15c-1.74,14.69-3.44,31.26-5.55,44.55c-3.15,19.8-7.69,30.32-19.01,46.64
			c-4.17,6.01-13.44,11.64-17.12,19.69c-5.04,11.02-7.59,24.26-5.9,36.43c1.69,12.17,7.74,23.37,11.81,34.03
			c5.2,13.6,5.91,25.01,6.63,39.05c1.02,0.06,1.99,0,2.95-0.47c0.32,2.54,0.95,4.93,1.74,7.36c1.48-1,2.84-2.13,3.91-3.56
			c0.76,1.61,1.01,3.39,2.36,4.67c1.35,1.29,2.84,1.15,3.97-0.39c0.63-0.86,0.25-2.04,0.26-3.03c0.85,1.08,1.3,2.52,2.79,2.92
			c1.49,0.4,2.24-0.83,2.43-2.18c0.91,0.59,1.77,1.25,2.68,1.84c1.24-14.5,4.79-26.22,11.8-38.85c3.42-6.15,6.73-10.66,9.49-17.44
			c5.37-13.18,11.28-26.14,12.29-41.02c1.01-14.88-4.39-27.13-14.23-38.15c-1.82-2.03-4.68-2.32-6.3-3.79
			c-1.62-1.47-3.1-3.1-2.26-5.02c14.69-33.76,4.46-71.93,5.79-107.4c0.04-1.09,0.64-2.64,1.91-2.93c-0.71-5.21,0.29-9.67,1.18-14.82
			c0.89-5.15,1.19-10.45,1.46-15.79c0.12-2.32,0.71-4.6-0.56-6.99C267.43,30.24,261.66,29.94,256.44,30.57z"/>
		<path class="st13" d="M260.26,22.94c1.48,0.77,2.7,1.68,4.43,1.87c1.73,0.18,2.95-0.38,4.12-1.64c0.53,0.76,0.97,1.52,1.07,2.47
			c0.38,3.52,0.7,6.59,0.22,10.09c-2.37-1.97-4.4-3.06-7.65-2.92c-3.26,0.14-6.15,1.7-8.91,3.44
			C254.8,31.4,257.84,27.27,260.26,22.94z"/>
		<path class="st9" d="M260.07,44.33c0.33-1.19,1.44-2.48,2.07-3.63c2.03,2.99,4.16,6.28,5.07,9.74c0.52,1.98-0.04,4.39-0.27,6.08
			c-3.82,28.67-5.46,57.87-5.01,86.69c0.04,2.81,1.92,5.08-1.43,7.37c-3.35,2.29-2.93,10.67-7.69-1.79c-2.95-7.72,3.12-36.99,4.7-44
			c3.17-14.07,1.62-20.43,1.54-31.91C258.97,62.23,257.24,54.51,260.07,44.33z"/>
		<path class="st14" d="M246.46,198.85c0.14,3.1,0.27,6.2,0.37,9.31c0.66-1.49,1.53-2.66,2.75-3.74c0.45,1.22,0.89,2.44,1.33,3.66
			c0.34-0.29,0.67-0.59,1.01-0.88c0.8-0.7,1.61-1.4,2.4-2.11c-0.97,5.51-1.08,10.88-0.66,16.45c1.06-1.99,2.13-3.97,3.24-5.93
			c0.41,5.45,0.23,10.77-0.48,16.19c0.96-1.99,1.92-3.97,2.86-5.97c0.28,3.53,0.37,7.03,0.21,10.57c0.56-1.18,1.11-2.37,1.67-3.55
			c0.1,7.59,0.53,15.13,1.4,22.68c0.33-2.32,0.84-4.57,1.52-6.82c0.59,2.14,1.48,4.02,2.71,5.87c0.21-1.71,0.41-3.42,0.6-5.13
			c1.01,1.39,1.77,2.81,2.33,4.43c-0.01-1.71-0.02-3.42-0.04-5.13c0.63,0.97,1.26,1.94,1.88,2.91c0.23-2.77,0.46-5.53,0.68-8.3
			c-0.16,1.84,0.39,2.9,1.82,4.05c-0.08-3.01-0.16-6.01-0.22-9.02c1.35,1.51,2.71,3.02,4.06,4.54c-0.59-3.24-1.18-6.48-1.79-9.71
			c0.9,0.78,1.84,1.34,2.95,1.77c-0.04-1.61-0.08-3.22-0.13-4.83c1.19,1.18,2.27,1.52,3.93,1.35c-1.97-4.11-3.92-8.22-5.83-12.36
			c2.25,0.56,4.29,1.38,6.29,2.56c-1.86-2.89-3.94-5.41-6.52-7.69c1.1,0.09,2.2,0.17,3.31,0.26c-0.79-2.09-0.21-3.18,1.82-4.03
			c-3.62-2.65-7.44-4.85-11.49-6.75c1.03-1.09,2.16-1.28,3.54-1.36c-7.19-3.93-13.95-10.12-15.13-18.09s1.65-10.42,1.72-18.57
			c0.16-20.65,2.79-42.14,3.65-63.61c0.34-8.54,0.03-17.57,1.14-27.12c1.18-10.24,3.01-22.73,4.85-33.56
			c0.4-2.36,0.76-5.44-1.18-7.81s-6.21-3.27-9-1.23c-7.02,5.15-7.72,10.48-6.93,18.71c3.52-3.66,5.23-7.71,6.05-12.54
			c5.31,7.84,5.93,21.02,5.5,29.66c-1.36,27.22-4.43,55.86-4.14,81.61c0.2,17.67-3.39,24.59-9.26,39.68
			c1.11-0.87,2.19-0.45,3.4-0.48c-0.89,0.98-1.78,1.94-2.67,2.92c1.14-0.02,2.27,0,3.4-0.03c-2.28,1.58-4.8,2.32-7.28,3.55
			s-3.95,2.89-4.67,5.59C244.33,199.9,245.21,199.22,246.46,198.85z"/>
		<path class="st15" d="M264.84,2.42c-0.33-0.83-1.6-0.48-1.94,0.24c-0.34,0.73-0.28,1.62-0.24,2.47c0.3,6.24-2.91,13.54-2.49,19.4
			c0.49,6.8,7.83,4.71,11.6,8.5C269.85,22.58,268.78,12.32,264.84,2.42z"/>
		<path class="st13" d="M264.73,20.91c0.3,0.79,0.99,0.75,1.6,1.18c1.35,0.95,2.19,2.02,2.37,3.74s-0.65,2.96-1.45,4.43
			c2.17,0.4,3.94,1.06,5.62,2.53c-1.9-8.05-2.17-16.33-3.45-24.45c-0.17-1.07-0.94-1.18-1.71-1.66c-0.64,2.65,0.63,4.19,0.78,6.94
			C268.63,16.36,266.8,19.03,264.73,20.91z"/>
		<path class="st16" d="M256.39,28.75c-0.26,0.52-0.98,1.22-0.66,1.87c0.52,1.07,1.84,0.89,2.95,0.46c1.11-0.43,2.36-1.39,3.43-2.07
			c0.61-0.39,1.35-0.73,2.03-0.73c0.68,0,1.18,0.34,1.64,0.67c2.03,1.46,4,2.92,5.64,4.77c-0.2-4.57-1.29-9.34-1.27-13.88
			c0.02-3.76,0.49-6.59,0.02-10.43c-0.31-2.61-1.17-6.92-4.24-7.79c-3.07-0.87-3.9,2.28-4.18,4.76
			C260.84,14.32,259.98,21.49,256.39,28.75z"/>
		<path class="st15" d="M260.54,6.4c1.42,1.18,2.77,2.38,4.2,3.55c0.38,0.31,0.74,0.63,1.3,0.61s1.03-0.35,1.41-0.74
			c0.63-0.64,1.21-1.3,1.79-1.98c0.24-0.28,0.45-0.56,0.46-0.93c0.01-0.37-0.18-0.67-0.37-0.98c-1.18-1.83-2.39-3.65-3.57-5.48
			c-0.15-0.22-0.34-0.42-0.59-0.45c-0.25-0.04-0.38,0.12-0.51,0.27c-1.61,1.96-3.01,4.02-4.41,6.12"/>
	</g>
	<path class="st17" d="M237.2,463.32c2.09-3.8,4.12-7.52,5.16-11.68c0.75-2.99,0.87-6.07,1.05-9.05c0.46-7.56,1.35-14.89,1.83-22.41
		c0.33-5.17,0.03-10.04-0.53-15.23c-1.6-14.76,1.54-28.67-0.14-43.77c-0.59-5.27-0.95-11.82,1.74-17.07
		c-0.14-0.08-0.23,0.01-0.35-0.02c2.56-16.03,5.15-32.33,6.59-48.38c0.17-1.84,0.25-2.75,0.93-4.23c0.55-1.2,1.44-1.95,2.23-2.92
		c2.64-3.26,4.67-6.69,6.55-10.46c0.59,4.02-0.12,6.68-1.36,10.6c-4.61,14.58-7.27,28.28-9.51,44.05
		c-0.61,4.3-1.46,12.31-0.56,17.28c0.38,2.12,1.04,4.36,0.83,6.4c-0.21,2.04-1.25,3.66-1.88,5.46c-1.08,3.11-1.2,5.84-0.45,9
		c0.64,8.09-0.27,15.55-0.57,23.73c-0.64,17.74-1.88,35.76-3.39,53.56c-0.22,2.64-0.41,5.38-0.34,8.05c0.07,2.25,0.4,4.53,0.35,6.78
		c-0.05,2.25-0.4,4.4-0.75,6.61c-1.28,8.02-2.59,16.04-3.88,24.06c-0.43-1.31-0.64-2.59-0.64-3.97c0.05,2.39-0.55,4.36-1.91,6.32
		c-0.75-1.17-1.2-2.36-1.4-3.74c-0.38,1.12-0.62,2.24-0.72,3.42c-0.87-0.83-1.52-1.74-2-2.85c-0.49,0.52-0.97,0.92-1.47,1.5
		c-1.64-12.67-1.73-22.69,0.34-35.89c0.65-4.17,1.41-4.1,1.93-11.56c1.3-18.86-0.03-46.34-0.85-65.8c-0.4-9.38-0.6-12.26-1.89-20.17
		c-0.49-3.02-1.23-4.74-1.41-8c-0.28-5.28,0.73-10.9,2.39-16.08c-1.98-19.75-1.38-40.26-6.6-59.49c0.49-0.32,1.19-0.35,1.71-0.07
		c3.42,1.82,4.29,4.86,4.56,8.54c1.19,16.02,2.6,30.73,2.88,47.32c0.04,2.49,0.07,6.55,0.74,10.46c0.51,3,1.14,2.24,1.88,7.89
		c1.58,12.13,2.32,28.23,2.27,42.7c-0.03,9.42-0.18,20.35-1.7,31.31c-0.77,5.54-1.95,18.05-1.96,24.1
		C236.88,455.18,237.15,458.31,237.2,463.32z"/>
	<path class="st18" d="M245.31,343.38c-0.42,0.88-1,1.68-1.16,2.62c-0.31,1.72,0.15,3.28,1.78,4.04c-0.47,0.4-0.95,0.79-1.42,1.19
		c0.64,0.6,0.64,1.59,0.47,2.35c-0.17,0.77-0.48,1.73-0.39,2.37c0.09,0.63,0.33,0.87,0.49,1.31c0.38,1.06,0.44,2.13,0.47,3.18
		c0.07,2.84,0.13,5.58,0.2,8.39c0.27-2.29,1.02-4.19,2.32-6.09c0.17-0.24,0.36-0.44,0.36-0.76c0.02-0.74-0.87-0.96-1-1.67
		c-0.25-1.4,1.47-2.25,1.46-3.69c0-0.33-0.22-0.48-0.29-0.89c-0.07-0.41,0.01-0.76,0.06-1.32c0.45-5.21-0.45-10.55-1.69-15.65
		C246.54,340.33,246.02,341.92,245.31,343.38z"/>
	<path class="st18" d="M231.1,347.38c0.8,0.31,1.22,0.94,1.48,1.73c-0.87,0.56-0.91,1.7-0.2,2.41c-0.69,0.91-1.16,1.85-1.43,2.96
		c0.78,0.56,1.65,1.13,2.26,1.89c0.6,0.76,0.82,1.73,0.37,2.57c-0.25,0.46-0.68,0.94-0.46,1.35c0.22,0.41,0.39,0.24,0.64,0.54
		c0.25,0.3,0.27,0.71,0.23,1.09c-0.19,2.09-0.37,4.15-0.56,6.24c0.18-1.01,0.28-1.92,0.47-2.95c0.19-1.03,0.32-2.08,0.99-2.99
		c0.67-0.92,1.74-1.39,2.89-1.14c0.05-0.72-0.62-1.03-1.16-1.33c-0.55-0.3-1.15-0.79-0.8-1.44c0.46,0.22,1.01,0,1.16-0.51
		c0.15-0.51,0-0.86-0.2-1.39c-0.74-1.98-1.25-3.75-1.87-5.91c-0.62-2.16-1.57-4.73-2.18-6.99
		C232.3,344.84,231.84,346.17,231.1,347.38z"/>
	<path class="st19" d="M243.22,446.06c-0.19,3.38-0.4,6.7-0.58,10.1c-0.07,1.24-0.12,2.39,0.24,3.68c0.36,1.29,1.34,2.39,1.58,3.82
		c0.44,2.64-1.07,4.77-1.97,7.22c-1.56,4.26-1.49,8.65-1.32,13.14c0.11,2.83,0.34,5.59,0.9,8.37c-1.57-2.12-2.61-4.31-3.22-6.87
		c0.49,2.96,0.2,5.56-0.99,8.33c0.89-8.76-0.34-17.31,0.13-26.12c0.18-3.44,2.31-6.71,3.23-10.04
		C242.28,453.86,242.91,450.01,243.22,446.06z"/>
	<path class="st19" d="M231.53,459.32c-1.03,4.13-0.54,8.16-0.33,12.34c0.27,5.56-0.03,10.99-0.8,16.5
		c0.89-1.83,1.49-3.67,1.84-5.67c0.03,3.75-0.18,7.46-0.63,11.19c0.55-2.21,1.11-4.42,1.66-6.62c0.63,2.12,0.92,4.2,0.9,6.41
		c0.6-5.14,0.66-10.19,0.16-15.34c-0.21-2.2-0.62-4.31-0.6-6.53c0.03-3.52,0.79-6.71,1.24-10.27c0.39-3.07,0.47-6.31-1.1-9.16
		C232.91,454.46,232.13,456.9,231.53,459.32z"/>
	<path class="st20" d="M247.25,363.67c-1.75,28.03-2.15,55.92-3.52,84.04c-0.27,5.57-0.27,11.54,1.66,16.95
		c0.46-3.86,0.29-7.78-0.37-11.6C239.93,423.19,247.61,393.61,247.25,363.67z"/>
	<path class="st9" d="M220.89,248.1c-0.23,3.82-0.11,5.68,0.39,8.84c0.45,2.8,1.58,4.92,2.18,7.49c1.35,5.73,1.16,10.68-0.61,16.26
		c-2.21-3.78-5.24-6.26-9.17-8.14c0.62-2.89,0.96-5.6-1.4-7.72c-0.81-0.73-1.94-0.84-2.7-1.65c-1.37-1.47-1.36-3.3-0.64-5.09
		s1.99-3.06,2.77-4.83c2.15-4.87,0.68-10.05,1.53-15.17c1.04-6.25,5-11.73,5.63-18.09c0.22-2.28,0.14-3.92,1.84-5.55
		C224.94,224.98,221.53,237.55,220.89,248.1z"/>
	<path class="st9" d="M239.48,217.24c3.2,3.76,8.43,5.85,12.7,1.71c5.75,15.45,7.78,31.44,3.32,46.94
		c-2.71,9.43-7.02,15.22-8.34,24.56c1.39-0.36,2.68,0.06,3.7,0.99c-2.76,2.19-6.52-0.21-9.58,1.06c-3.58,1.48-1.62,5.77,1.92,6.56
		s7.24-0.62,10.36-2.59c-4.25,5.69-6.39,10.83-6.99,18.16c-0.35,4.31-0.83,11.1-5.88,12.78c-2.5,0.83-4.83-1.29-6.16-3.08
		c-3.61-4.88-4.08-11.42-3.67-16.82c1.03-13.8,2.41-26.4,3.7-39.9c-3.18,1.62-4.64,4.18-6.1,7.31c-5.7-13.11-7.75-27.27-4.91-41.26
		C224.67,228.1,233.02,209.64,239.48,217.24z"/>
	<path class="st12" d="M230.08,282.73c-0.04-1.45,0.84-3.5,2.6-3.11c0.95,0.21,1.32,1.14,1.49,1.92c1.41,6.8,0.36,13.41,3.79,19.74
		c1.91,3.53,5.45,5.96,7.77,9.51c1.76,2.69,2.8,6.27,2.98,9.64c0.04,0.75,0.05,2.11-0.86,2.4c-1.27,0.4-1.86-1.3-1.98-2.41
		c-0.12-1.11-0.14-2.59-1.31-3.17c-0.03,2.58,0.05,5.35-1.49,7.53s-4.61,2.47-5.58-0.2c-0.44-1.21,0.12-2.49,0-3.66
		s-0.67-2.18-1.92-1.92c-0.34,2.43-1.38,4.21-3.71,5.13c0.48-5.54-0.98-10.33-2.72-15.37c-1.1-3.2-1.7-5.57-1.07-8.8
		c1.06,1.17,2.18,1.99,2.75,3.49C230.72,296.51,230.27,289.71,230.08,282.73z"/>
</g>
<path class="st21" d="M513.73,225.58c-1.79-0.84-3.57-1.75-5.34-2.73c8.82,2.42,17.03,2.02,25.93-1.3
	c-0.19-0.03-0.38-0.05-0.58-0.08c-3.09-1.46-6.1-1.52-9.3-1.3c-4.48-0.63-8.95-1.25-13.43-1.88c-0.36-0.26-0.72-0.55-1.07-0.87
	c0.07-0.01,0.14-0.02,0.2-0.03c4.23-0.25,8.37-0.81,12.5-1.74c0.37-0.05,0.74-0.1,1.11-0.16c1.74-0.26,3.46-0.48,5-1.46
	c0.34-0.22,0.64-0.47,0.9-0.74c0.57-0.47,1.02-1.06,1.25-1.87c-0.06,0.01-0.13,0.02-0.19,0.03c0.15-0.57,0.19-1.18,0.08-1.81
	c-5.25,1.2-10.42,2.42-15.65,3.19c-9.73,0.25-19.36-0.63-29.03-2.51c-1.01-0.3-2.02-0.6-3.03-0.89c-3.79-1.12-7.54-2.31-11.27-3.5
	c0.61,0.09,1.21,0.18,1.82,0.27c-7.99-3.68-16.34-5.61-24.84-6.93c-1.09-0.24-2.17-0.48-3.27-0.7c-0.74-0.15-1.49-0.3-2.24-0.44
	c-12.78-2.41-25.83-3.55-38.44-7.39c-1.45-0.44-2.83-1-4.21-1.56c-1.12-0.55-2.24-0.98-3.37-1.31c-1.58-0.56-3.21-1.01-4.97-1.19
	c-0.69-0.07-1.37-0.11-2.05-0.13c-3.88-1.54-7.79-2.59-12.17-2.05c-4.09,0.5-7.37,2.58-11,4.31c-25.67,12.28-53.2,16.8-81.16,11.46
	c-0.87-0.3-1.74-0.64-2.62-1.02c-2.57-1.12-4.81-3.68-7.47-5c-0.79-0.97-1.55-1.98-2.29-3.03c-4.22-1.78-8.38-3.1-12.51-3.99
	c-0.86-1.06-1.35-2.22-0.79-3.5c14.69-33.76,4.46-71.93,5.79-107.4c0.04-1.09,0.64-2.64,1.91-2.93c-0.71-5.21,0.29-9.67,1.18-14.82
	c0.89-5.15,1.19-10.45,1.46-15.79c0.12-2.26,0.67-4.48-0.48-6.81c0.12-0.95,0.17-1.87,0.19-2.78c0.37,0.36,0.74,0.73,1.09,1.12
	c-0.02-0.36-0.04-0.71-0.07-1.07c0.14,0.12,0.28,0.23,0.41,0.36c-0.07-0.4-0.15-0.81-0.22-1.21c0.45,0.28,0.88,0.6,1.31,0.97
	c-1.36-5.75-1.89-11.62-2.54-17.46c0.08-1.88,0.12-3.72-0.14-5.9c-0.1-0.8-0.24-1.76-0.49-2.73c-0.01-0.07-0.03-0.13-0.05-0.19
	c-0.49-1.83-1.34-3.65-2.87-4.51c-0.33-0.51-0.67-1.02-1-1.53c-0.15-0.22-0.34-0.42-0.59-0.45c-0.25-0.04-0.38,0.12-0.51,0.27
	c-1.61,1.96-3.01,4.02-4.41,6.12l0.29,0c0.37,0.31,0.73,0.62,1.1,0.93c-0.87,7.55-1.8,14.45-5.25,21.42
	c-0.26,0.52-0.98,1.22-0.66,1.87c0.01,0.02,0.03,0.04,0.04,0.06c-0.92,1.78-1.72,3.6-2.23,5.55c0.34-0.21,0.68-0.42,1.03-0.63
	c-0.59,2.06-1.04,4.19-1.35,6.31c-0.21,1.02-0.33,2.09-0.37,3.21c-0.1,1.13-0.19,2.25-0.24,3.33c-0.22,4.99,1.63,10.04,2.21,14.25
	c1.74,12.46,2.11,25.31,0.71,37.15c-1.74,14.69-3.44,31.26-5.55,44.55c-2.89,18.21-6.99,28.58-16.42,42.82
	c-2.35,0.59-4.72,1.3-7.12,2.16c-2.24,0.8-4.23,1.81-6.19,2.85c-4.27,0.57-7.96,2.88-12.2,4.34c-4.42,1.52-9.24,2.32-14.07,2.95
	c-15.52,2.03-30.76,3.81-46.05-0.48c-6.07-1.7-11.06-5.12-17.12-6.81c-6.06-1.69-12.05-2-17.62,1.22c-1.25,0.72-2.28,1.63-3.26,2.58
	c-1.39,1.15-2.63,2.45-3.97,3.66c-0.07,0.05-0.14,0.11-0.22,0.17c-2.4,1.72-4.95,2.87-7.68,4.12c-5.52,0.86-10.96,4.55-15.74,7.53
	c-3.02,1.19-6.02,2.44-8.95,3.93c-4.5,2.3-8.04,5.63-12.44,8.37c-7.24,4.5-14.57,7.92-22.12,10.35
	c-11.31,3.16-23.22,4.23-35.38,4.21c-0.68-0.04-1.36-0.07-2.05-0.12c0.02,0.04,0.05,0.07,0.07,0.11c-0.16,0-0.31,0-0.47,0
	c0.24,0.14,0.49,0.27,0.73,0.41c1.98,3.15,4.8,4.74,8.49,5.52c3.63,0.77,7.17,0.42,10.8,0.11c-0.24,0.14-0.48,0.28-0.73,0.42
	c-5.83,1.83-11.66,3.66-17.48,5.51c3.97,2.11,8.05,2.5,12.37,1.47c4.32-1.04,7.91-3.17,11.76-5.19c-3.22,4.24-7.32,7.22-12.16,9.16
	c-2.08,0.83-4.76,1.58-4.45,4.11c0.05,0.37,0.16,0.68,0.32,0.95c-0.8,0.43-1.6,0.85-2.42,1.26c0.97-0.22,1.93-0.46,2.88-0.71
	c1.17,0.99,3.36,0.86,4.91,0.32c1.42-0.5,2.91-1.3,4.27-2.24c-1.94,1.83-2.91,4.14-2.96,7.08c3.5-0.38,6.26-1.67,8.83-4.07
	c0.31,1.8,1.6,2.92,3.18,3.73c5.9,3,11.81,4.55,18.4,4.78c1,0.03,1.97,0.04,2.93,0.08c1.21,0.21,2.42,0.41,3.62,0.6
	c0.53,0.18,1.06,0.39,1.58,0.69c1.04,0.6,1.74,1.61,2.92,1.72c2.38,0.22,4.18-2.02,6.53-1.44c1.15,0.29,1.64,1.58,2.85,1.74
	c1.13,0.14,1.95-0.45,2.73-1.17c0.13,0,0.26,0.02,0.4,0c1.17-0.13,1.84-1.16,2.99-1.51c0.4-0.12,0.79-0.15,1.19-0.14
	c1.73,0.92,3.02,3.35,5.14,2.86c1.17-0.27,1.67-1.64,2.75-2.01c1.08-0.37,1.81,0.11,2.88,0.27c3.69,0.55,6.68-0.69,8.77-3.44
	c0.67,1.04,2.07,1.7,3.28,1.7c0.07,0,0.13-0.01,0.2-0.01c0.16,0.11,0.33,0.22,0.51,0.31c1.32,0.69,2.78,0.48,3.73-0.56
	c0.26,0.05,0.52,0.13,0.78,0.25c0.08,0.04,0.14,0.09,0.21,0.13c0.67,0.81,1.42,1.51,2.42,1.77c1.62,0.67,3.24,0.34,4.53-0.81
	c0.67-0.02,1.32,0.06,1.96,0.21c0.3,0.23,0.6,0.46,0.9,0.69c0.17-0.09,0.34-0.19,0.51-0.28c0.5,0.17,1,0.36,1.5,0.55
	c3.57,1.32,7.14,2.35,10.75,3.13c0.62,0.38,1.31,0.61,2.17,0.53c0.02-0.03,0.05-0.06,0.07-0.09c3.24,0.59,6.53,0.99,9.91,1.19
	c1.31,0.08,2.68,0.14,3.82,0.48c1.14,0.34,1.79,1.01,2.87,1.13c4.64,0.52,7.77-3.77,12.19-4.2c0.45-0.01,0.89,0,1.34,0.04
	c2.23,0.38,4.16,2.12,6.35,2.48c0.15,0.03,0.3,0.04,0.46,0.06c0.36,0.21,0.74,0.36,1.23,0.35c1.61-0.04,2.37-1.28,3.75-2.12
	c1.21-0.74,2.75-1.01,4.25-1.15c6.79,1.17,13.46,0.53,20.43-0.7c-0.1,0.26-0.22,0.53-0.34,0.79c0.79-0.34,1.45-0.75,1.99-1.26
	c0.97-0.37,1.84-0.91,2.68-1.59c0.24,0.42,0.46,0.84,0.66,1.28c0.35,1.74,0.93,3.4,2.58,4.33c2.11,1.2,4.97,0.31,5.56-2.07
	c0.02,0.06,0.05,0.12,0.07,0.18c0.27,2.62,2.03,4.42,4.47,5.38c2.53,1,5.3,1.19,7.74,2.31c0.05,0.02,0.1,0.05,0.16,0.08
	c4.36,12.51,5.03,23.36,5.71,36.52c1.02,0.06,1.99,0,2.95-0.47c0.32,2.54,0.95,4.93,1.74,7.36c0.4-0.27,0.79-0.55,1.16-0.84
	c0.24,3.54,0.5,7.06,0.86,10.57c-1.66,5.18-2.68,10.8-2.39,16.08c0.18,3.26,0.92,4.98,1.41,8c1.28,7.91,1.49,10.79,1.89,20.17
	c0.82,19.46,2.15,46.94,0.85,65.8c-0.2,2.86-0.43,4.61-0.68,5.92c-0.1-0.23-0.2-0.46-0.32-0.68c-0.95,2.3-1.74,4.74-2.34,7.16
	c-1.03,4.13-0.54,8.16-0.33,12.34c0.27,5.56-0.03,10.99-0.8,16.5c0.52-1.06,0.92-2.13,1.25-3.24c0.1,1.42,0.22,2.86,0.36,4.33
	c-0.1,1.48-0.23,2.95-0.41,4.43c0.21-0.82,0.41-1.64,0.62-2.46c0.12,1.04,0.24,2.08,0.38,3.15c0.5-0.59,0.98-0.99,1.47-1.5
	c0.03,0.06,0.06,0.12,0.09,0.18c0,0.14,0.01,0.27,0.01,0.41c0.01-0.11,0.02-0.22,0.03-0.33c0.47,0.98,1.07,1.82,1.87,2.58
	c0.11-1.18,0.34-2.3,0.72-3.42c0.21,1.37,0.66,2.57,1.4,3.74c1.36-1.96,1.96-3.93,1.91-6.32c0,1.38,0.21,2.66,0.64,3.97
	c0.14-0.87,0.28-1.74,0.42-2.62c0.28,0.45,0.57,0.89,0.9,1.33c-0.24-1.18-0.41-2.35-0.54-3.53c1.04-6.42,2.08-12.83,3.11-19.24
	c0.28-1.75,0.55-3.46,0.68-5.21c0.03,0.09,0.05,0.17,0.08,0.26c0.45-3.8,0.29-7.66-0.34-11.43c0.06-1.7,0.17-3.4,0.31-5.06
	c1.51-17.79,2.75-35.82,3.39-53.56c0.29-8.18,1.2-15.64,0.57-23.73c-0.75-3.16-0.63-5.88,0.45-9c0.63-1.8,1.67-3.42,1.88-5.46
	c0.21-2.04-0.45-4.28-0.83-6.4c-0.9-4.97-0.05-12.98,0.56-17.28c2.17-15.28,4.76-28.62,9.1-42.69c0.27-0.5,0.53-0.99,0.81-1.49
	c0.86-1.55,1.71-2.99,2.55-4.4c0.81-0.38,1.64-0.7,2.64-0.94c0.18-0.04,0.36-0.07,0.54-0.1c0.91,0,1.84-0.07,2.75-0.23
	c1.32-0.03,2.66-0.05,3.91-0.34c2.32-0.54,3.97-2.15,3-4.54c0.01,0,0.02,0,0.03,0c0.51,0.21,1.02,0.39,1.52,0.55
	c0.49,0.38,0.95,0.82,1.55,0.85c0.46,0.03,0.82-0.08,1.13-0.26c1.75,0.21,3.51,0.08,5.37-0.5c-0.07-1.14-0.14-2.29-0.21-3.43
	c0.01,0,0.01,0,0.02,0c0.46-0.12,0.9-0.38,1.05-0.76c0.34,0.02,0.67,0.04,1.01,0.05c0.13,0.1,0.27,0.21,0.4,0.31
	c0.15-0.09,0.31-0.18,0.46-0.27c0.66,0.03,1.32,0.06,1.98,0.09c1.3,0.56,2.62,0.85,4.12,0.79c-0.02-0.22-0.02-0.44-0.04-0.66
	c3.09,0.06,6.18,0.03,9.26-0.18c1.3,0,2.6,0.01,3.9,0.02c0.32,0.39,0.64,0.78,1.15,0.94c1.12,0.37,1.97-0.26,2.84-0.92
	c1.51,0.01,3.03,0.02,4.54,0.03c0.41,0.54,0.74,1.17,1,1.71c0.89-0.71,1.85-1.39,2.85-1.69c0.68,0,1.37,0.01,2.05,0.01
	c0.25,0.09,0.49,0.2,0.74,0.36c0.58,0.37,0.72,1.09,1.37,1.28c1.44,0.42,2.33-0.65,3.3-1.65c0.83,0,1.65,0,2.48-0.01
	c0.63-0.01,1.27-0.02,1.9-0.03c0.24,0.42,0.43,0.86,0.59,1.23c1.27,0.52,2.05-0.45,2.96-1.21c1.2,0.03,2.41,0.1,3.61,0.26
	c0.59,0.08,1.18,0.16,1.77,0.11c1.02,0.49,2.05,0.87,3.15,0.53c0.72-0.22,1.2-0.86,1.71-1.43c2.35,0.52,4.57,2.1,7,1.46
	c1.8-0.48,2.68-2.7,3.66-3.95c0.73,0.21,1.48,0.49,2.22,0.47c1.01-0.03,1.82-0.78,2.67-1.4c0.15,0.26,0.26,0.56,0.27,0.92
	c1.23-0.21,2.22-0.68,3.17-1.48c0.45-0.07,0.91-0.13,1.36-0.19c0.02,0.03,0.05,0.04,0.07,0.07c0.15-0.05,0.29-0.09,0.44-0.14
	c2.83-0.4,5.68-0.77,8.5-1.22c0.57,0.66,1.61,0.89,2.55,0.52c1.41-0.56,2.11-1.98,3.01-3.16c0.45-0.6,0.96-1.18,1.55-1.6
	c3.18-0.02,6.35-0.17,9.52-0.4c0.63,0.53,1.27,1,2.15,0.9c0.74-0.08,1.12-0.72,1.64-1.21c0.5-0.04,1-0.08,1.49-0.13
	c0.81-0.08,1.63-0.14,2.45-0.22c0.15,0.03,0.29,0.05,0.45,0.07c3.21,0.35,5.82-0.91,7.53-3.41c1.72,0.55,3.4,0.3,4.73-0.62
	c0.53-0.14,1.05-0.35,1.55-0.66c0.95-0.57,1.68-1.32,2.34-2.13c1.33,0.24,2.58,0.08,3.68-0.44c1.32,0.45,2.84,0.03,3.86-1.31
	c0.26-0.35,0.34-0.77,0.49-1.14c1.14,0.54,2.32,0.72,3.58,0.55c0.36,0.35,0.73,0.71,1.15,0.97c2.02,1.23,4.25,0.05,6.47-0.5
	c1.02-0.25,2.04-0.44,3.06-0.57c4.05,0.43,8.1,0.19,12.17-0.39c2.81-0.07,5.61-0.31,8.36-1.1c0.82-0.23,1.58-0.61,2.35-0.89
	c0.57-0.12,1.13-0.25,1.69-0.38c1.33-0.08,2.46,0.25,3.8,0.26c1.38,0.01,2.77-0.34,4.12-0.72c10.09-2.88,20.08-6.01,30.01-9.42
	c1.51-0.52,2.97-1.08,4.34-1.94c1.04-0.66,1.79-1.52,2.85-2.25c1.56-1.07,3.14-1.83,4.78-2.33c1.98,0.22,3.93,0.01,6-0.65
	c0.45,0.03,0.9,0.06,1.35,0.12c-1.43-1.11-2.45-2.39-3.21-4.03c0.21,0,0.41,0,0.62,0c3.35,0.75,6.46,0.77,9.62,0.01
	c0.7,0,1.39,0,2.09,0c-0.38-0.08-0.75-0.18-1.13-0.27c0.87-0.25,1.75-0.54,2.63-0.91C525.44,228.4,519.63,227.01,513.73,225.58z
	 M236.84,450.21c0.01-6.06,1.2-18.56,1.96-24.1c1.52-10.96,1.67-21.89,1.7-31.31c0.05-14.48-0.69-30.58-2.27-42.7
	c-0.74-5.65-1.36-4.89-1.88-7.89c-0.67-3.91-0.7-7.97-0.74-10.46c-0.04-2.63-0.12-5.21-0.22-7.76c0.14,0.15,0.29,0.29,0.44,0.43
	c0.34,0.88,0.75,1.72,1.48,2.42c1.35,1.29,2.84,1.15,3.97-0.39c0.2-0.27,0.29-0.57,0.33-0.89c0.34-0.18,0.65-0.39,0.95-0.63
	c0.44,0.63,0.94,1.18,1.77,1.41c1.49,0.4,2.24-0.83,2.43-2.18c0.62,0.4,1.23,0.83,1.84,1.26c-0.66,4.42-1.36,8.82-2.06,13.22
	c-0.35,1.14-0.76,2.26-1.28,3.32c-0.42,0.88-1,1.68-1.16,2.62c-0.2,1.13-0.07,2.18,0.51,2.99c-0.81,4.1-0.51,8.47-0.1,12.19
	c1.67,15.02-1.42,28.87,0.12,43.54c-1.05,11.87-1.86,23.72-1.1,35.61c-0.05,0.76-0.12,1.51-0.17,2.27c-0.18,2.98-0.3,6.06-1.05,9.05
	c-1.04,4.16-3.07,7.88-5.16,11.68C237.11,458.88,236.84,455.75,236.84,450.21z M245.19,420.75c-0.19,2.98-0.45,5.93-0.71,8.88
	c0.23-6.21,0.45-12.41,0.66-18.6C245.35,414.25,245.4,417.44,245.19,420.75z"/>
</svg>
