<!-- Generator: Adobe Illustrator 23.0.4, SVG Export Plug-In  -->
<svg version="1.1" xmlns="http://www.w3.org/2000/svg" xmlns:xlink="http://www.w3.org/1999/xlink" x="0px" y="0px"
	 width="389.84px" height="473.26px" viewBox="0 0 389.84 473.26" style="enable-background:new 0 0 389.84 473.26;"
	 xml:space="preserve">
<style type="text/css">
	.st0{fill:url(#SVGID_1_);}
	.st1{fill:url(#SVGID_2_);}
	.st2{fill:url(#SVGID_3_);}
	.st3{fill:url(#SVGID_4_);}
	.st4{fill:url(#SVGID_5_);}
	.st5{fill:url(#SVGID_6_);}
	.st6{fill:url(#SVGID_7_);}
	.st7{fill:url(#SVGID_8_);}
	.st8{fill:url(#SVGID_9_);}
	.st9{fill:url(#SVGID_10_);}
	.st10{fill:url(#SVGID_11_);}
	.st11{fill:url(#SVGID_12_);}
	.st12{fill:url(#SVGID_13_);}
	.st13{fill:url(#SVGID_14_);}
	.st14{fill:url(#SVGID_15_);}
	.st15{fill:url(#SVGID_16_);}
	.st16{fill:url(#SVGID_17_);}
	.st17{fill:url(#SVGID_18_);}
	.st18{fill:url(#SVGID_19_);}
	.st19{fill:url(#SVGID_20_);}
</style>
<defs>
</defs>
<linearGradient id="SVGID_1_" gradientUnits="userSpaceOnUse" x1="132.8074" y1="234.1599" x2="132.8074" y2="465.8912">
	<stop  offset="0" style="stop-color:#54B06D"/>
	<stop  offset="0.377" style="stop-color:#56AE6B"/>
	<stop  offset="1" style="stop-color:#956C1F"/>
</linearGradient>
<path class="st0" d="M144.19,388.73c-0.94-3.7-1.98-7.45-1.87-11.27c0.27-9.66,7.78-17.72,16.13-22.58
	c8.36-4.86,17.85-7.48,26.3-12.17s16.24-12.36,17.09-21.99c-6.39,12.19-15.13,25.97-28.86,26.76c13.16-9.26,12.77-31.5,27.03-38.95
	c-15.76,4.04-15.08,28.41-28.16,38.07c1.24-10.4,2.47-20.8,3.71-31.2c-2.86,11.46-5.71,22.92-8.57,34.39
	c1.51-6.72,1.16-13.85-1-20.4c1.69,6.05-0.37,12.99-5.09,17.14c-3.91,3.44-9.14,4.87-13.8,7.21c-4.65,2.34-9.2,6.38-9.28,11.59
	c-4.33-10.02-8.67-20.05-13-30.07c-0.93-2.16-1.89-4.41-1.81-6.77c0.09-2.76,1.56-5.25,2.75-7.75c8.68-18.27,3.4-42.42,16.87-57.5
	c-3.89,1.61-7.93,3.31-10.69,6.49c-2.77,3.17-3.82,8.27-1.21,11.57c0.3-6.54,0.6-13.09,0.9-19.63c-5.88,10.15-6.68,23.1-2.08,33.89
	c-1.11-3.2-3.62-5.89-6.74-7.22c2.88,9.8,3.36,20.29,1.37,30.31c-10.23-13.51-14.49-31.37-11.47-48.04
	c-2.42,4.12-4.84,8.25-7.26,12.37c3.2-6.25,4-13.69,2.21-20.47c-1.52,4.26-3.03,8.52-4.55,12.78c1.39-13.71,2.78-27.42,4.17-41.13
	c-7.08,10.76-10.04,24.16-8.17,36.9c0.21-9.81-1.46-19.65-4.89-28.84c-0.19,10.62-0.38,21.24-0.57,31.87
	c-2.64-4.01-6.47-7.23-10.87-9.15c2.7,3.92,5.4,7.85,8.1,11.77c-9.05-6.09-18.09-12.18-27.14-18.26
	c14.59,8.37,27.52,19.62,37.81,32.92c-4.35-1.4-8.7-2.8-13.06-4.2c9.06,3.95,16.35,11.79,19.63,21.12
	c-10.43-6.9-22.57-11.21-35.02-12.42c10.48,2.2,21.53,4.7,29.33,12.04c8.49,8,11.4,20.11,13.92,31.5
	c-8.23-6.79-18.16-11.5-28.62-13.58c4.93,2.36,9.46,5.56,13.32,9.43c-9.54-3.14-19.74-4.24-29.73-3.2
	c14.98-0.08,31.43,0.37,42.67,10.27c9.4,8.28,12.86,21.27,15.39,33.54c-5.13-5.63-11.55-10.08-18.63-12.91
	c3.29,3.64,6.58,7.28,9.86,10.92c0.89,0.98,1.84,2.24,1.45,3.5s-2.9,1.08-2.55-0.2c4.11,2.94,8.21,5.88,12.32,8.82
	c7.02,13.18,11.05,27.93,11.7,42.85c0.09,1.97,0.09,4.03-0.83,5.77c-1.72,3.26-5.86,4.14-9.36,5.32c-3.5,1.17-7.34,4.07-6.52,7.67
	c3.31-1.55,6.14-4.11,8.02-7.24c1.44-0.04,2.88-0.08,4.32-0.12c-1.87,6.28-0.12,13.5,4.42,18.22c-4.42-5.07-5.52-12.8-2.67-18.89
	c5.04,0.98,6.72,7.31,6.92,12.44c0.21,5.13,0.53,11.28,4.98,13.85c-3.12-11.07-6.86-21.97-11.2-32.62
	c9.67,7.43,6.99,26.82,18.82,29.77c-4.4-4.7-7.52-10.58-8.95-16.85c5.07,1.03,9.89,3.31,13.91,6.58c-4.81-2.29-9.62-4.59-14.44-6.88
	c0.52-2.45,1.03-4.9,1.55-7.35c6.23,2.62,12.47,5.25,18.7,7.87c-4.73-1.99-15.84-4.52-19.16-8.3c-4.29-4.88-1.15-1.61-1.33-7.93
	C150.36,416.28,147.62,402.22,144.19,388.73z"/>
<g>
	
		<linearGradient id="SVGID_2_" gradientUnits="userSpaceOnUse" x1="-559.1391" y1="252.9845" x2="-429.844" y2="252.9845" gradientTransform="matrix(-0.9317 -0.3633 -0.3633 0.9317 -305.1147 -66.4222)">
		<stop  offset="0" style="stop-color:#6FDB6C"/>
		<stop  offset="0" style="stop-color:#728B69"/>
		<stop  offset="1" style="stop-color:#A4891F"/>
	</linearGradient>
	<path class="st1" d="M72.39,405.73c-1.11-4.65-2.07-9.3-4.93-13.07c-1.84-2.43-4.04-4.28-6.66-5.39
		c-8.37-3.55-16.72-2.22-25.35-0.27c9.6-7.79,21.25-10.24,28.99,0.77c-2.52-4.29-0.13-9.37-2.11-14.05c-1.01-2.4-4.08-4.07-6.3-5.31
		c-11.55-6.47-22.74-10.69-35.85-12.41c13.32-5.18,24.48-3.47,36.17,4.53c-2.56-7.96-7.43-15.48-14.37-20.09
		c-6.94-4.61-14.36-5.73-22.07-8c8.24-0.89,15.54,0.3,22.99,3.98c-2.53-1.87-5.1-3.7-7.66-5.53c2.14-1.33,4.22-1.29,6.35,0.02
		c3.47-4.74,1.59-9.91-3.01-13.12c-4.6-3.21-9.89-3.18-15.24-2.79s-10.44,1.5-15.8,0.67c11.89-4.1,22.92-4.4,35.03-0.98
		c0.74-1.5,1.49-2.98,2.31-4.44c-3.57-3.12-7.28-4.02-11.9-2.97c3.02-2.56,6.49-3.76,10.37-2.65c1.02-3.62,0.13-8.87-3.31-10.79
		s-6.66,0.37-9.85,1.53c3.32-4.05,6.7-6.77,12.06-4.95c-17.01-12.5-12.64-1.35-28.1,9.75c17-18.73,11.84-30.4,38.06-10.98
		c-7.59-9.16-16.05-16.15-25.64-23.09c10.67,3.47,18.33,8.45,26.7,15.84c-2.61-7.71-5.15-15.44-7.56-23.22
		c6.68,4.91,10.48,10.78,12.5,18.8c2.4-7.49,0.88-13.82-5.52-18.58c4.26,1.21,7.46,3.22,10.27,6.66c1.96-3.81,2.35-7.51,1.2-11.65
		c2.45,1.71,2.96,4.22,1.89,6.94c1.27-3.53,4.52-5.16,8.05-3.75c-1.93,2.15-3.92,4.25-5.88,6.38c3.67,1.17,7.34,2.35,11.02,3.52
		c-4.63,1.03-9.16,2.34-13.6,4.04c5.42,1.97,10.82,3.98,16.26,5.89c-8.13-0.99-15.25,0.36-22.53,4.08
		c6.99,0.63,13.97,1.28,20.94,2.1c-6.61,2.36-13.1,3.94-20.15,3.89c-1.08,5.48,3.84,8.1,8.64,8c4.8-0.1,9.33-1.57,13.33,1.51
		c-8.79,3.33-19.29-4.02-27.32,1.38c-4.94,3.33,0.34,9.54,5.58,10.28c5.25,0.74,11.54-0.31,17.35-1.17
		c5.81-0.87,11.83-0.32,16.35,3.9c-8.62,0.38-17.43,0.61-26.05,1.06c-3.75,0.2-7.44,0.12-10.87,1.65c-3.43,1.53-5.29,4.51-4.32,8.19
		c7.44-2.45,14.79-4.22,22.65-4.41c-8.63,3.57-15.44,8.48-21.07,15.95c2.58-2.15,5.24-3.19,8.6-3.23
		c-1.61,3.98-3.83,7.21-6.76,10.33c7.84-6.22,16.15-9.04,26.13-9.32c-9.3,4.15-16.39,9.58-22.82,17.47
		c3.52-0.61,7.03-1.23,10.55-1.84c-3.23,4.12-6.09,8.43-8.94,12.82c2.16-1.11,4.22-2.37,6.38-3.48c-2.42,1.66-3.64,3.73-4.37,6.54
		c9.92-4.91,20.24-7.33,31.2-8.47c-5.87,1.58-11.63,2.54-16.84,5.98c-5.2,3.43-8.26,8.69-7.32,15.05c0.89-4.32,3.82-7.02,8.03-8.04
		c-7.54,18.8-4.55,34.53,1.53,54.25c2.83,9.19,13.48,23.09,11.67,34.17C81.08,440.48,76.62,423.52,72.39,405.73z"/>
</g>
<linearGradient id="SVGID_3_" gradientUnits="userSpaceOnUse" x1="158.1546" y1="459.5093" x2="158.1546" y2="250.029">
	<stop  offset="0" style="stop-color:#B8E191"/>
	<stop  offset="1" style="stop-color:#95C11F"/>
</linearGradient>
<path class="st2" d="M138.81,442.06c-1.88,5.51-6.49,7.86-5.99,14.83c4-1.34,6.66-5.87,5.87-10.02c1.31,4.21,2.63,8.42,3.94,12.64
	c-0.61-4.22-1.22-8.44-1.83-12.65c3.59,1.58,7.06,3.43,10.37,5.52c-26.65-16.82,15.29-41.67,19.51-61.02
	c0.91-4.15,0.91-8.5,2.22-12.55c1.3-4.05,4.4-7.97,8.63-8.41c6.06-0.64,10.47,5.73,16.29,7.53c0.65-7.61-10.71-9.36-15.66-15.17
	c-2.99-3.51-3.43-8.46-3.73-13.06c-0.34-5.09-0.6-10.51,1.88-14.97s8.83-7.14,12.86-4.02c-3.17-5.88-11.05-8.7-17.23-6.15
	c-5.1-2.63-4.95-10.01-3.15-15.46s4.51-11.42,2.1-16.64c-4.66,4.54-8.17,10.25-10.11,16.46c-5.83-3.69-2.2-13.37,3.83-16.73
	c6.03-3.36,13.53-3.71,19.1-7.79c-2.43-5.1-9.77-6.04-14.76-3.42s-8.18,7.66-11.14,12.47c-3.86-3.47-7.72-6.95-11.58-10.42
	c3.78,0.1,7.56,0.2,11.35,0.31c-6.24-0.51-8.37-8.8-7.22-14.95s3.84-12.73,1.1-18.36c-5.81,6.35-9.16,14.9-9.22,23.5
	c-0.39-2.33-1.6-4.51-3.36-6.08c-1.19,3.99-0.37,8.52,2.14,11.84c-6.94-6.56-16.16-10.68-25.68-11.47
	c6.27,4.76,13.19,8.66,20.52,11.56c-7.01-1.58-14.29-1.95-21.43-1.08c8.83,3.53,17.93,6.41,27.18,8.63
	c-3.37,0.14-6.73,0.28-10.1,0.43c3.39,2.25,7.31,3.7,11.35,4.2c-2.71,4.2-3.79,9.43-2.97,14.36c4.08-3.8,6.1-9.69,5.2-15.19
	c6.43,12.95,12.86,25.89,19.29,38.84c-5.89-8.03-16.44-12.37-26.27-10.81c12.89,4.66,27.37,10.89,31.58,23.94
	c2.77,8.59,0.2,17.89-2.36,26.54c-3.07,10.35-4.82,20.23-7.73,30.63c1.13-6.52-1.7-13.58-7.04-17.5
	c-0.58,5.89,0.37,11.93,2.73,17.36c-5.75,8.94-11.51,17.88-17.26,26.82c-3.16,4.9-1.51,10.33-3.2,15.41
	C138.83,441.99,138.82,442.02,138.81,442.06z"/>
<g>
	<linearGradient id="SVGID_4_" gradientUnits="userSpaceOnUse" x1="298.5309" y1="266.5175" x2="298.5309" y2="468.3198">
		<stop  offset="0" style="stop-color:#B8E1B3"/>
		<stop  offset="1" style="stop-color:#958F1F"/>
	</linearGradient>
	<path class="st3" d="M280.73,451.57c1.96,5.67,2.77,11.61,6.01,16.75c2.35-4.92,1.34-8.12-2.18-12.11
		c3.79,2.53,7.63,4.89,11.61,7.12c-3.39-2.81-6.71-5.69-9.99-8.61c4.21-0.98,8.39-1.52,12.7-2.11
		c-41.01-2.33-26.32-46.08-16.98-71.09c2.01-5.37,1.78-9.16,3.95-13.51c2.16-4.35,5.26-7.79,9.94-6.91
		c6.71,1.25,9.62,7.56,14.88,11.11c-0.38-8.56-8.05-11.7-11.58-18.88c-2.13-4.33,1.48-7.96,4.95-11.13
		c3.83-3.52,8.15-8.32,12.25-12.05s8.14-5.63,13.48-3.33c-3.91-5.18-7.41-7.91-14.09-6.57c-2.28-5.58,0.65-10.27,2.33-15.86
		c1.68-5.59,2.93-11.25-0.21-16.71c-3.04,5.38-4.07,11.75-6.11,17.57c-1.74-5.14-2.45-12.39,1.29-17.12s11.71-5.7,16.32-9.78
		c-4.56-4-10.68-5.07-15.8-1.59s-3.86,8.96-4.73,14.24c-2.79-1.62-5.19-2.25-8.41-1.49c1.39-2.77,3.01-5.35,5.24-7.51
		c-5.1,1.41-7.52-0.04-11.4-4.11c-3.88-4.07-8.34-9.39-14.24-11.34c3.1,8.18,7.28,14.83,13.63,20.96c-2.02-0.82-3.91-0.97-6.06-0.69
		c2.61,2.87,5.19,4.91,9.19,5.03c-7.48,3.9-14.61,8.64-20.6,14.6c6.93-1.93,14.67-3.69,19.17-9.69c-2.71,6.2-7.3,11.29-10.63,17.2
		c7.59-5.09,11.88-10.11,15.75-18.34c-0.73,3.1-1.48,6.1-2.07,9.24c1.5-2.31,2.56-4.95,3.95-7.35c0.43,3.97,0.12,8.01,1.8,11.69
		c0.41-5.01,0.69-9.05-1.23-13.79c7.21,8.74,4.92,18.61,5.14,29.25c-4.25-9.33-13.74-10.13-22.95-9.9
		c9.88,3.5,25.53,7.95,19.79,21.15c-3.78,8.69-14.69,12.76-18.79,21.49c-4.92,10.45-8.2,21.61-10.97,32.82
		c0.28-7.59-1.25-13.68-5.8-19.82c-0.8,6.9-0.15,13.01,1.73,19.67c-4.01,13.57-4.88,25.69-2.02,39.83
		c1.57,7.75,7.88,14.57,11.64,21.57C280.65,451.46,280.72,451.53,280.73,451.57z"/>
</g>
<g>
	<linearGradient id="SVGID_5_" gradientUnits="userSpaceOnUse" x1="232.5771" y1="460.7626" x2="232.5771" y2="232.4845">
		<stop  offset="0" style="stop-color:#B8E191"/>
		<stop  offset="1" style="stop-color:#95C11F"/>
	</linearGradient>
	<path class="st4" d="M228.72,444.94c-4.91,2.69-9.75,2.6-12.67,7.87c4.35,0.91,7.54-0.72,9.9-4.43c-1.27,4.06-1.76,8.19-2.39,12.39
		c1.29-3.87,2.6-7.63,4.28-11.35c2.42,3.36,4.26,7.02,6.34,10.53c-9.37-25.14,28.89-23.36,17.89-54.89
		c-2.36-6.77-2.87-2.51-6.57-10.59c-3.7-8.08-8.93-37.49-6.81-46.31c3.05-12.64,9.05-0.97,15.5-0.19
		c-0.98-7.44-12.08-10.52-17.2-14.94c-3.09-2.67-5.97-5.11-7.63-8.08c-1.84-3.29-2.72-4.36,0.81-6.41s9.5-1.02,12.09,2.49
		c-1.94-6.58-7.08-9.11-13.55-10.38c-3.51-4.17-0.48-7.05,4.18-8.15s10.12-0.77,13.72-4.66c-6.81-2.68-12.93-3.06-19.95-0.88
		c-0.9-8.49,9.03-9.21,15.27-5.58c6.25,3.63,12.15,11.9,19.8,14.15c1.31-6.87-1.46-11.22-7.32-15.32c-5.86-4.1-12.1-5.92-19.45-5.39
		c-1.15-6.92-2.86-13.56-5.05-20.19c4.01,3.63,7.74,7.58,11.35,11.52c-4.87-6.53-5.29-16.19-1.03-22.38
		c4.26-6.19,9.04-8.28,10.82-15.29c-8.9,2.55-15.21,6.74-20.67,14.21c0.76-2.51,0.82-4.71,0.12-7.25
		c-3.62,3.28-4.77,6.64-4.15,11.46c-3.9-9.63-8.07-17.52-16-24.4c2.7,7.46,6.12,14.33,10.75,20.79c-5.36-5.25-11.03-9.5-17.66-13.05
		c6.14,8.56,13,16.28,19.94,24.18c-3.36-2.44-6.73-4.8-10.22-7.05c2.57,4.56,5.74,8.52,9.22,12.41c-4.51,1.88-7.7,5.98-10.11,10.14
		c6.06-0.79,10.16-3.4,12.61-9.11c-0.95,13.51-6.11,26.62-4.3,40.19c-4.54-8.73-8.66-15.11-17.48-20.53
		c8.52,12.06,12.28,16.31,20.82,30.83c5.62,9.55,6.4,31.53,9.73,46.8c3.98,18.27,10.01,30.01,17.45,45.6
		c-3.75-4.9-9.29-7.04-15.82-6.49c3.53,3.97,7.73,6.34,12.43,8.72c0.06,8.75-1.96,14.63-8.99,19.88c-3.86,2.88-6.26,6.14-9.92,9.09
		C228.79,444.91,228.76,444.92,228.72,444.94z"/>
</g>
<g>
	
		<linearGradient id="SVGID_6_" gradientUnits="userSpaceOnUse" x1="270.4695" y1="435.4492" x2="407.5163" y2="435.4492" gradientTransform="matrix(0.8321 -0.5546 0.5546 0.8321 -168.8346 164.2978)">
		<stop  offset="0" style="stop-color:#6FDB6C"/>
		<stop  offset="1" style="stop-color:#B1B31F"/>
	</linearGradient>
	<path class="st5" d="M340.48,402.35c-1.82-4.46-3.77-8.19-3.54-12.95c0.15-3.07,1.26-5.59,2.85-8.21
		c5.1-8.37,11.9-13.94,20.84-17.95c-13.46-0.79-22.62,7.38-23.89,20.75c0.15-4.85-5.04-7.28-5.52-11.92
		c-0.25-2.38,1.3-4.26,2.92-6.01c8.43-9.14,18.66-15.67,29.89-21.02c-13.69-0.8-24.96,3.72-33.34,14.69
		c-0.69-7.77,1.3-14.74,7.34-19.87c6.05-5.13,13.25-7.3,20.37-10.34c-8.25,0.24-15.11,2.39-22.09,6.8c2.25-2.04,4.47-4.11,6.68-6.19
		c-2.32-0.87-4.36-0.51-6.32,0.98c-4.23-3.72-3.74-9.44,0.67-12.89c4.41-3.45,9.74-3.65,15.15-3.45c5.4,0.2,10.62,1.13,15.99,0.12
		c-12.32-3.69-23.17-3.42-35.4,0.47c-0.86-1.49-1.69-2.99-2.53-4.49c3.73-2.97,7.59-4.2,12.31-3.34c-3.1-2.56-6.35-3.17-10.25-2.3
		c-0.5-4.87,2.66-8.41,7.28-9.75s9.09-0.09,13.67,0.88c-4.85-4.23-10.06-5.62-16.4-4.4c17.2-8.99,34.53-17.29,52.68-24.19
		c-22.22,4.34-43.75,11.59-64.09,21.52c9.55-8.06,19.13-16.09,28.67-24.17c-10.43,4.65-20.02,10.21-29.15,17.07
		c3.13-7.67,6.14-15.39,9.05-23.15c-6.77,4.81-11.04,10.5-13.77,18.34c-2.03-7.44,0.42-13.58,6.66-18.02
		c-4.29,1.18-7.6,3.21-10.59,6.5c-1.74-3.92-1.71-7.6-0.19-11.59c-2.48,1.62-3.37,4.01-2.5,6.85c-0.98-3.59-4.08-5.12-7.55-3.82
		c1.74,2.12,3.48,4.22,5.22,6.34c-3.68,1.08-7.36,2.15-11.03,3.22c4.47,1.07,8.79,2.5,13.02,4.28c-5.49,1.64-10.92,3.48-16.39,5.15
		c8.08-0.77,14.83,0.4,21.99,4.3c-7.02,0.15-13.94,0.73-20.9,1.59c6.49,2.18,12.99,3.31,19.79,4.06c0.52,5.15-4.96,6.96-9.49,6.81
		c-4.53-0.15-9.34-1.7-13.38,1.12c8.28,3.28,20.35-4.37,26.6,3.09c3.85,4.59-2.02,10.55-7.79,11.01c-5.76,0.46-13.01-3-19.11-5.01
		s-12.39-2.81-18.01,1.14c9.51,1.49,19.09,3.52,28.39,6.22c4.05,1.18,8.6,2.22,12.39,4c3.79,1.79,6,4.93,5.93,9.04
		c-7.89-1.82-15.33-2.84-23.43-2.3c9.16,2.84,16.88,7.53,24.1,13.81c-3.01-1.57-5.9-2.36-9.28-1.81c2.45,3.61,5.24,6.34,8.95,8.65
		c-9.17-4.21-17.57-5.53-27.56-3.9c9.87,2.34,18.47,6.48,26.85,12.18c-3.62,0.38-7.26,0.6-10.88,0.92c4.49,3.1,8.99,6.15,13.54,9.16
		c-2.47-0.33-4.94-0.67-7.42-0.98c2.83,0.71,4.99,2.08,6.9,4.28c-11.14-0.4-21.31,1.35-31.85,4.92c5.98-0.99,11.54-2.44,17.7-1.44
		c6.15,1.01,11,4.3,13.68,10.04c-3.26-3.14-6.91-4.06-11.32-3.25c15.3,12.72,24.13,25.08,29.37,45.31
		c2.44,9.43-0.03,27.22,7.26,36.01C351.42,436.85,347.43,419.43,340.48,402.35z"/>
</g>
<g>
	
		<linearGradient id="SVGID_7_" gradientUnits="userSpaceOnUse" x1="-770.1049" y1="476.3386" x2="-770.1049" y2="292.2199" gradientTransform="matrix(-0.9185 0.3954 0.3954 0.9185 -799.3837 335.3388)">
		<stop  offset="0" style="stop-color:#DFE191"/>
		<stop  offset="1" style="stop-color:#95AC1F"/>
	</linearGradient>
	<path class="st6" d="M115.6,440.32c2.44,5.66,6.49,10.32,7.19,16.59c-4.81-2.07-6.76-5.56-6.62-10.75
		c-1.06,4.46-2.12,8.91-3.27,13.34c0.41-4.48,0.76-8.95,1.14-13.43c-3.59,1.79-6.93,4.11-10.28,6.33
		c32.52-28.78-29.76-33.47-41.55-44.08c-2.53-2.28-4.38-6.63-7.11-9.21c-2.72-2.58-6.34-5.75-10.56-5.02
		c-6.04,1.04-8.91,7.47-13.78,10.72c-1.32-8.57,7.61-11.57,11.44-18.72c2.31-4.32,3.48-11.77,3.15-17.05
		c-0.36-5.84-2.33-11.55-8.21-13.13c-5.87-1.58-10.69,0.78-12.77,6.24c-1.14-7.02,0.72-13.44,7.33-16.78
		c-0.15-6.06-6.04-9.02-9.26-14.03c-3.23-5.01-3.11-11.18,1.41-15.79c0.65,5.24,1.37,10.01,4.57,14.48
		c1.24-3.94,1.71-9.36-0.52-13.82c-2.23-4.46-8.73-9.01-11.67-13.56c4.48-3.45,11.54-2.13,14.71,2.28c3.17,4.4,0.23,8.91,0.33,13.65
		c2.9-1.83,5.63-3.01,9.12-3.18c-1.57-1.88-3.14-3.96-5.16-5.33c4.85,0.56,7.63-3.77,10.21-8.14c2.57-4.37,6.01-11.37,11.59-13.64
		c-1,8.89-4.12,16.43-9.86,23.41c1.9-1.3,3.76-1.81,6.06-1.75c-2.16,3.38-4.6,5.66-8.57,6.57c9.08,2.1,16.54,4.87,23.76,10.92
		c-7.38-1.27-14.78-3.05-21.34-6.76c5.3,4.83,10.28,9.19,14.59,14.99c-8.27-3.99-14.32-8.19-20.81-14.59
		c1.59,2.62,3.1,5.24,4.48,7.98c-2.57-1.54-4.48-3.74-6.58-5.86c-0.05,4.28,0.24,7.43-1.82,11.34c-1.18-4.27-1.17-9.22,1.06-13.15
		c-9.74,7.87-2.68,14.34,2.78,23.46c-3-10.18,5.88-16.84,14.01-21.48c-13.42,15.59-11.52,16.33-7.69,34.2
		c2.52,11.77,1.27,23.88,6.5,32.41c6.25,10.2,11.22,14.51,18.92,22.13c-4.31-5.62-4.1-11.14-1.27-17.26c2.5,4.65,4.38,9.7,4.99,14.9
		c10.43,4.39,20.46,5.01,30.16,11.96c5.32,3.81,7.08,12.21,9.14,18.48C115.55,440.2,115.58,440.29,115.6,440.32z"/>
</g>
<linearGradient id="SVGID_8_" gradientUnits="userSpaceOnUse" x1="144.7625" y1="234.1599" x2="389.8418" y2="234.1599">
	<stop  offset="0" style="stop-color:#F8E191"/>
	<stop  offset="1" style="stop-color:#41781F"/>
</linearGradient>
<path class="st7" d="M185.25,428.98c33.27-68.28,24.65-151.67,60.16-218.81c7.88-14.9,17.76-28.63,27.62-42.31
	c5.54-7.69,14.03-16.36,22.88-12.98c5.28,2.02,8.21,7.96,8.39,13.61c0.18,5.65-1.83,11.11-3.81,16.4c0.74,1.77,3.37,2,4.93,0.87
	c1.55-1.12,2.25-3.07,2.77-4.92c2.37-8.52,2.36-18.36-2.92-25.46c-5.28-7.1-16.98-9.53-23.11-3.16
	c-2.09-10.76-0.19-22.25,5.27-31.76c6.08,2.39,9.08,10.5,6.03,16.27c0.23-6.54,0.47-13.08,0.7-19.63
	c0.37-10.25,1.65-22.17,10.34-27.62c5.94-3.72,14.37-2.83,19.4,2.06s6.15,13.3,2.59,19.33c6.05-5.58,7.07-15.79,2.25-22.46
	c-4.82-6.67-14.84-8.91-22.03-4.92c0.93-11.32,13.11-20.31,24.2-17.86c2.37,0.52,4.67,1.5,6.56,3.02c4.22,3.41,5.9,9.84,3.38,14.64
	c6.8-1.08,8.07-11.6,3.11-16.39c-4.95-4.79-12.73-4.97-19.53-3.91c2.89-7.96,14.38-10.39,21.26-5.45s8.84,14.91,6.03,22.9
	c2.21-4.29,4.47-8.74,4.78-13.56c0.31-4.82-1.86-10.14-6.31-12.02c-3.43-1.45-7.36-0.6-11.07-1.03c15.27-11.76,39.75-7.73,50.59,8.2
	c1.07-6.87-4.23-13.45-10.6-16.21c-6.38-2.77-13.59-2.61-20.54-2.41c7.49-7.12,18.08-10.86,28.38-10.03
	c-3.23-5.24-10.33-7.16-16.3-5.69s-10.92,5.71-14.81,10.49c1.06-2.5,0.72-5.53-0.87-7.73c-1.24,2.8-2.49,5.59-3.73,8.39
	c-2.98-6.04-1.78-13.19-1.12-19.89c0.67-6.71,0.39-14.34-4.52-18.96c-0.19,8.48-1.18,16.94-2.95,25.23
	c-5.9-2.91-12.75-3.87-19.22-2.7c6.18-0.04,12.76,2.65,15.64,8.12c2.88,5.47,0.38,13.58-5.6,15.11c1.52-3.86,0.36-8.62-2.78-11.34
	c-1.3,7.98-4.86,15.57-10.17,21.67c-3.69-1.53-6.25-4.87-8.66-8.05c-2.41-3.18-5.03-6.49-8.76-7.93s-8.82-0.07-9.99,3.75
	c4.17-1.2,8.98,0.26,11.77,3.58c4.28,5.1,3.24,12.86,0.47,18.91c-2.78,6.05-7.03,11.46-8.82,17.88
	c-5.07-3.11-11.02-7.08-16.09-10.19c-3.8,3.75-6.01,9.06-5.98,14.4c0.24-3.91,4.94-6.48,8.71-5.4c3.77,1.09,6.29,4.85,6.98,8.71
	c0.69,3.86-0.13,7.82-1.12,11.61c-2.49,9.55-6.09,18.82-10.72,27.54c-2.52-3.57-8.29-3.27-11.64-0.47
	c-3.35,2.8-4.81,7.22-5.87,11.46c4.06-2.21,8.12-4.42,12.18-6.64c1.46,9.57,0.24,19.53-3.51,28.46c1.72-0.41,1.3-3,0.37-4.51
	c-3.33-5.41-8.68-10.27-15.03-10.34s-12.49,6.93-9.67,12.62c0.63,0.88,2.13,0.41,2.71-0.5c0.59-0.91,0.64-2.06,1.04-3.06
	c1.68-4.24,7.99-3.16,10.45-0.33c4.36,5.03-1.26,10.37-3.93,15.19c-7.05,12.7-13.28,25.86-18.63,39.36
	c-26.78,67.6-31.06,142.13-54.3,211.04c-1.3,3.85-3.74,8.44-7.79,8.13c-4.36,2.7-9.57,0.44-14.68,0.02
	c-6.18-0.51-12.5,3.06-15.25,8.61c1.86-1.37,3.24-3.34,5.19-4.58c1.95-1.24,4.95-1.43,6.24,0.49c-3.32,0.92-6.47,2.44-9.25,4.46
	c3.82,0.5,7.84-0.86,10.59-3.56c1.74-1.72,3.06-3.98,5.27-5.02s5.68,0.33,5.31,2.74c-2.8,2.28-4.78,5.47-5.96,8.88
	c-1.75,5.06-1.8,10.69-0.12,15.78c1.19-5.72,2.38-11.44,3.57-17.15c0.39-1.85,0.8-3.77,1.93-5.29c1.13-1.52,3.19-2.52,4.95-1.83
	c-0.22,2.57-0.44,5.13-0.66,7.7c1.73-2.65,3.47-5.31,5.2-7.96c1.18,8.38,0.83,16.98-1.03,25.24c-0.27,1.18-0.57,2.37-1.18,3.42
	c-1.02,1.75-2.88,3.06-3.31,5.04c7.07-4.53,11.39-13.05,10.87-21.43c1.3,2.96,2.6,5.93,3.9,8.89c-2.55-6.41-4.08-13.23-4.52-20.12
	c2.08-0.67,4.37,0.5,5.81,2.15s2.28,3.72,3.38,5.61c2.35,4.01,6.01,7.24,10.29,9.08C197.1,443.48,192.79,435.43,185.25,428.98z"/>
<g>
	
		<linearGradient id="SVGID_9_" gradientUnits="userSpaceOnUse" x1="-557.8246" y1="278.8025" x2="-391.1585" y2="278.8025" gradientTransform="matrix(-1 0 0 1 -391.1585 0)">
		<stop  offset="0" style="stop-color:#F8E191"/>
		<stop  offset="1" style="stop-color:#41781F"/>
	</linearGradient>
	<path class="st8" d="M134.7,440.57c-20.59-56.89-16.09-123.89-52.35-175.02c-8.04-11.35-19.21-21.55-28.04-32.21
		c-4.96-5.99-10.53-13.22-18.78-11.66c-4.93,0.93-7.09,5.6-8.03,10.02c-0.94,4.43,0.47,8.97,1.25,13.33
		c-0.92,1.29-2.77,1.38-3.91,0.3c-1.14-1.08-1.6-2.55-1.71-4.12c-0.54-7.23-0.33-14.35,4.99-19.92s12.8-5.92,18.59-0.97
		c1.89-8.86,0.81-17.3-1.56-25.97c-5.57,1.69-8.43,6.07-7.63,11.84c0.85-5.21,2.05-10.45,2.85-15.69c1.25-8.2,3.58-17.1-2.34-23.89
		c-4.04-4.64-10.19-5.31-15.53-2.53c-5.34,2.79-7.27,8.61-6.43,14.3c-2.88-6.26-2.35-13.2,3.37-17.77
		c5.72-4.57,12.63-3.73,18.15,0.58c0.31-8.93-3.41-18.06-9.9-24.26c-1.39-1.33-3.03-2.03-4.98-2.25c-4.36-0.5-7.94,1.46-9.7,5.53
		c-2.65-5.19,1.57-10.63,7.3-10.4c5.73,0.23,8.96,5.21,12.16,9.32c1.54-6.28-0.44-14.03-7.58-15.69s-12.94,3.24-16.54,8.91
		c1.33-3.62,2.36-7.29,5.16-10.24c2.8-2.94,7.06-4.54,10.88-3.11c2.95,1.11,3.73,4.14,5.89,6.04C28.23,106.15,18.96,97.78,0,96.74
		c4.67-3.88,10.35-3.97,15.7-1.31s8.72,7.18,12.41,11.68c0.21-9.02-2.91-16.11-8.91-22.77c5.35,0.02,9.74,2.63,12.26,7.34
		c2.51,4.71,2.23,9.37,1.56,14.44c1.27-2.02,2.98-3.08,5.36-3.37c-1.13,2.3-2.36,4.53-3.64,6.75c5.54-1.83,9.27-5.42,13.39-9.39
		c4.11-3.97,8.27-6.71,14.14-6.56c-5.12,4.43-9.68,9.25-14.18,14.3c5.16,2.61,9.01,5.78,12.25,10.54c-3.86-3.77-8.55-6.58-14.04-5.5
		c-5.49,1.08-9.41,5.67-8.31,11.17c2.19-2.99,5-4.59,8.75-4.52c-4.4,5.08-8.03,10.54-8.81,17.31c2.98,0.75,5.59-0.51,8.38-1.54
		c2.78-1.03,5.65-2.26,8.75-1.73c3.09,0.52,5.5,2.93,5.17,6.16c-2.57-2.14-5.95-3.32-9.17-2.09c-4.94,1.89-7.75,6.33-8.02,11.47
		c-0.27,5.14,2.45,9.89,2.53,15.02c5.11-1.46,10.08-3.09,15.15-4.58c2.08,4.08,2.55,8,1.53,12.43c0.22-3.36-2.32-5.98-5.72-5.9
		c-3.4,0.07-5.96,2.27-7.44,5.2c-1.48,2.92-1.81,6.08-1.87,9.29c-0.15,8.08,1.19,15.63,3.86,23.22c2.99-2.26,6.73-1.75,9.3,0.9
		c2.57,2.65,2.82,6.08,3.36,9.53c-2.94-2.18-5.85-4.37-8.84-6.48c-1.94,7.68-0.61,15.09,2.3,22.34c-1.39-0.67-1.19-2.47-0.29-3.59
		c3.23-4.02,7.3-7.87,12.75-7.71c5.45,0.16,9.02,5.13,6.99,10.13c-0.35,0.85-1.69,0.25-2.05-0.44c-0.35-0.69-0.35-1.71-0.69-2.48
		c-1.43-3.22-6.13-2.94-8.11-0.46c-3.53,4.39,1.15,7.99,3.84,11.61c7.11,9.55,14.67,18.58,20.13,29.34
		c27.38,53.82,35.01,111.53,47.64,169.62c0.71,3.24,2.09,6.51,5.62,7.14c3.93,2.35,7.55,1.01,11.93,1.22c5.3,0.26,9.32,3.26,11.72,8
		c-1.42-1.24-2.37-2.9-3.93-4.04c-1.56-1.14-3.53-1.47-5.05-0.1c2.64,1.08,4.99,2.47,7.18,4.29c-3.31-0.09-6.06-1.29-8.3-3.66
		c-1.42-1.51-2.18-3.42-3.98-4.39c-1.8-0.97-4.16-0.41-4.45,1.74c2,2.27,3.49,4.64,4.2,7.61c1.05,4.41,0.61,8.45-0.9,12.69
		c-0.62-4.69-1.15-9.37-1.78-14.08c-0.2-1.52-0.38-3.03-1.23-4.39c-0.85-1.36-2.24-2.1-3.85-1.86c0,2.08,0.01,4.16,0.02,6.25
		c-1.23-2.27-2.45-4.53-3.68-6.8c-1.35,6.84-1.65,13.46-0.82,20.38c0.12,0.99,0.3,1.94,0.74,2.84c0.74,1.49,1.97,2.64,2.33,4.31
		c-5.48-4.97-7.85-10.68-7.38-18.07c-1.25,2.29-2.5,4.57-3.74,6.86c2.41-5.11,4.04-10.27,4.98-15.85c-1.82-0.53-3.43,0.04-4.79,1.3
		s-2.05,2.8-3.17,4.25c-2.38,3.09-5.24,5.15-8.9,6.52C124.15,451.42,128.38,445.49,134.7,440.57z"/>
</g>
<linearGradient id="SVGID_10_" gradientUnits="userSpaceOnUse" x1="193.0173" y1="346.6235" x2="331.6092" y2="346.6235">
	<stop  offset="0" style="stop-color:#6FDB6C"/>
	<stop  offset="1" style="stop-color:#B1B31F"/>
</linearGradient>
<path class="st9" d="M213.71,393.02c0.83-4.46,1.57-9.19,4.45-12.69c1.86-2.26,4.45-3.8,7.12-5c8.53-3.82,18.41-4.55,27.41-2.01
	c-8.05-9.19-24.99-7.82-31.46,2.53c3.29-3.16-0.19-9.3,2.37-13.07c1.31-1.93,3.82-2.6,6.11-3.04c11.98-2.26,24.44-2,36.32,0.78
	c-8.95-9.01-23.28-12.22-35.22-7.88c3.59-6.89,11.31-10.83,19.01-11.87s15.48,0.39,23.12,1.82c-6.64-4.28-14.71-6.29-22.58-5.63
	c3.03-0.65,6.06-1.3,9.09-1.95c-1.17-1.95-3.68-2.98-5.88-2.42c-2.18-4.84,2.21-10.64,7.41-11.71c5.19-1.07,10.48,1.24,14.99,4.02
	s8.81,6.15,13.92,7.56c-7.98-8.88-19.27-14.71-31.14-16.08c-0.01-1.78-0.02-3.56-0.03-5.34c4.22-1.38,9.16-0.21,12.32,2.9
	c-1.04-3.57-4.16-6.46-7.81-7.22c1-4.54,6.75-6.64,11.24-5.41c4.49,1.23,7.93,4.74,11.14,8.11c-1.28-5.84-5.9-10.82-11.63-12.53
	c19.43,1.23,38.74,4.23,57.63,8.96c-20.87-9.2-43.19-15.09-65.89-17.41c12.46-1.69,24.92-3.38,37.38-5.07
	c-11.12-1.92-22.49-2.37-33.73-1.35c6.92-4.82,13.85-9.65,20.77-14.47c-7.93-0.33-15.94,2.48-21.93,7.67
	c1.6-6.94,8.77-12.13,15.87-11.47c-3.9-1.58-8.34-1.8-12.38-0.62c0.51-4.01,2.93-7.73,6.39-9.81c-2.67-0.4-5.47,1.62-5.93,4.29
	c1.6-3-0.73-7.28-4.12-7.57c0.26,2.77,0.53,5.55,0.79,8.32c-3.65-1.23-7.31-2.46-10.96-3.69c3.16,3.42,5.95,7.18,8.32,11.19
	c-5.5-1.71-11-3.43-16.5-5.14c6.95,3.39,12.58,9.38,15.54,16.52c-5.82-3.91-11.84-7.53-18.01-10.85c3.85,5.67,8.53,10.77,13.85,15.1
	c-1.17,4.56-8.14,3.75-11.79,0.79c-3.65-2.96-7.25-7.3-11.91-6.66c4.7,8.41,20.73,8.23,21.12,17.85c0.24,5.92-6.96,9.75-12.8,8.76
	c-5.85-0.99-10.63-5.01-15.63-8.2c-5-3.19-11.3-5.68-16.74-3.31c7.79,3.94,15.57,7.88,23.36,11.81c3.39,1.72,6.9,3.53,9.21,6.55
	s3.02,7.62,0.58,10.53c-5.43-5.34-11.95-9.56-19.04-12.33c6.56,5.92,11.28,13.85,13.36,22.44c-1.4-2.84-3.9-5.12-6.86-6.24
	c-0.11,4.02,0.79,8.06,2.58,11.67c-4.57-8.21-12.19-14.68-21.03-17.85c6.88,6.53,12.17,14.73,15.28,23.7
	c-3.16-1.68-6.32-3.37-9.48-5.05c1.74,4.8,3.48,9.6,5.21,14.39c-1.8-1.67-3.6-3.34-5.4-5.01c1.83,1.94,2.88,4.59,2.89,7.25
	c-8.42-6.98-18.29-12.2-28.79-15.22c5.46,2.55,11.04,5.18,15.27,9.47s6.87,10.66,5.13,16.43c-0.38-4.17-3.34-7.99-7.28-9.4
	c6.34,17.35,4.21,36.8-1.49,54.38c-2.66,8.19-15.84,27.65-13.51,34.99C204.42,429.69,210.53,410.07,213.71,393.02z"/>
</svg>
