<!-- Generator: Adobe Illustrator 23.0.4, SVG Export Plug-In  -->
<svg version="1.1" xmlns="http://www.w3.org/2000/svg" xmlns:xlink="http://www.w3.org/1999/xlink" x="0px" y="0px"
	 width="388.65px" height="448.31px" viewBox="0 0 388.65 448.31" style="enable-background:new 0 0 388.65 448.31;"
	 xml:space="preserve">
<style type="text/css">
	.st0{fill:#F7D0CB;}
	.st1{fill:#FCE8E6;}
	.st2{opacity:0.8;fill:#EF8C84;}
	.st3{opacity:0.8;fill:#F77F79;}
	.st4{fill:#352C2C;}
	.st5{fill:#FCD9D6;}
	.st6{fill:#FCF5F5;}
	.st7{fill:#F9F4F4;}
	.st8{fill:none;}
	.st9{fill:#E5C6B7;}
	.st10{opacity:0.5;fill:#996633;}
	.st11{fill:#F4E08C;}
	.st12{fill:#E8BCBC;}
	.st13{fill:#DDABAB;}
	.st14{fill:#BC9595;}
	.st15{fill:#8E7676;}
	.st16{fill:#9E7D7D;}
	.st17{fill:#F7BEBA;}
	.st18{fill:#EF8C84;}
	.st19{fill:#F9E6E5;}
	.st20{fill:#FCECEB;}
</style>
<defs>
</defs>
<g>
	<path class="st0" d="M371.59,330.17c-0.36-1.13-0.63-2.27-0.72-3.41c-9-0.55-18.5-0.51-27.46,0.74c-0.08,0.98-0.23,1.95-0.41,2.92
		c-0.12,4.06-0.37,8.15-0.42,12.21c4.45,0.7,9.31,0.24,13.54,0.1c5.34-0.18,11-0.43,16.12-2.19c-0.17-2.03-0.28-4.05-0.35-6.07
		C371.78,333.04,371.68,331.6,371.59,330.17z"/>
	<path class="st0" d="M386.56,369.22c-1.33-3.44-3.18-6.67-5.46-9.53c-1.63-2.05-3.47-3.91-5.25-5.81
		c-0.63-0.36-1.19-0.86-1.62-1.54c-0.14-0.23-0.26-0.46-0.38-0.69c-0.05-0.06-0.1-0.11-0.15-0.17c-0.01-0.06-0.02-0.11-0.03-0.17
		c-0.11-0.24-0.2-0.48-0.29-0.72c-5.58,1.53-11.48,1.95-17.25,2.14c-4.31,0.14-8.69,0.29-12.97-0.15c0.63,4.12,1.58,8.23,1.35,12.34
		c0.09,0.82,0.15,1.65,0.12,2.47c-0.1,2.41-0.83,4.74-1.46,7.06c-2.76,10.08-3.73,20.68-2.87,31.11c0.09,1.08,0.19,2.21-0.21,3.21
		c-0.41,1.02-1.28,1.75-2.06,2.52c-3.84,3.77-5.91,9.15-9.74,12.94c-5.21,5.15-12.78,6.59-19.25,9.86
		c-2.55,1.29-5.32,3.93-4.23,6.64c0.94,2.32,3.95,2.62,6.38,2.56c7.5-0.19,15-0.38,22.5-0.57c4.77-0.12,9.71-0.28,14.03-2.37
		c5.86-2.84,9.68-8.78,12.66-14.72c2.98-5.93,5.06-12.77,10.08-16.99c4.35-3.66,8.64-7.47,12.04-12.08s5.88-10.11,6.15-15.9
		C388.81,376.76,387.97,372.85,386.56,369.22z"/>
	<path class="st1" d="M338.96,410.25c1.81-2.68,3.86-5.53,6.95-6.48c2.33-0.72,4.97-0.23,7.18-1.27c4.92-2.31,4.71-10.45,9.68-12.64
		c2.56-1.13,5.91,0.07,7.17,2.57c2.49,4.95-3.1,11.15-0.79,16.18c-4.42,8.55-9.4,16.8-14.91,24.69c-2.42,3.46-5.25,7.08-9.34,8.17
		c-3.24,0.86-6.66-0.05-9.89-0.96c-3.19-0.9-6.5-1.85-9.02-4.01c-1.6-1.38-3.63-4.29-3.13-6.59c0.62-2.85,2.23-1.61,4.3-2.93
		c2.44-1.55,4.2-5.51,5.76-7.82C334.94,416.19,336.95,413.22,338.96,410.25z"/>
	<path class="st1" d="M347.27,405.77c1.4-0.56,2.91-0.85,4.33-1.35c3.9-1.36,7.2-4.35,8.93-8.1c0.65-1.41,1.1-2.94,2.04-4.17
		s2.58-2.13,4.04-1.61c1.33,0.47,2.04,1.89,2.61,3.18c0.44,1,0.89,2.09,0.64,3.15c-0.51,2.13-3.45,2.82-4.26,4.86
		c-0.96,2.42,1.55,4.66,3.48,6.41c0.38,0.35,0.78,0.77,0.79,1.28c0.01,0.34-0.15,0.65-0.31,0.95c-4.53,8.57-9.64,16.83-15.28,24.7
		c-2.29,3.2-5.2,6.63-9.14,6.8c-0.51-1.1-1.01-2.19-1.52-3.29c1.47-1.92,2.93-3.83,4.4-5.75c-2.8,1.66-5.64,3.22-8.54,4.7
		c-2.63,1.34-6.07,2.52-8.3,0.58c0.62-0.59,1.23-1.18,1.85-1.77c-2.33-0.58-4.5-1.77-6.25-3.42c-0.08-0.81-0.17-1.62-0.25-2.43
		c-0.08-0.79-3.03-0.88-1.83-3.19c0.62-1.18,2.36-1.04,3.44-1.54c2.78-1.3,4.83-3.75,6.61-6.16
		C338.39,414.69,341.23,408.19,347.27,405.77z"/>
	<path class="st2" d="M331.7,422.74c0.93-1.33,1.78-2.94,3.34-3.39c0.48-0.14,1-0.15,1.45-0.37c0.75-0.36,1.14-1.17,1.67-1.81
		c1.06-1.28,2.71-1.88,4.27-2.43c1.79-0.62,3.59-1.25,5.38-1.87c1.14-0.39,2.27-0.79,3.41-1.18c0.6,2.93-0.13,5.95-0.87,8.85
		c-0.31,1.21-0.61,2.41-1.06,3.57c-0.75,1.94-1.88,3.71-3,5.47c-0.82,1.29-1.64,2.57-2.47,3.86c-1.39,2.17-2.93,4.48-5.33,5.43
		c-2.73,1.08-6.18-0.11-7.65-2.66c-0.42-0.06-0.84-0.11-1.25-0.17c-0.14-1.25-0.27-2.5-0.41-3.75c-1.05-0.03-2.09-0.05-3.14-0.08
		c-0.16-0.55-0.07-1.17,0.23-1.66c-0.45,0.05-0.89,0-1.31-0.15C325.19,426.71,329.71,425.58,331.7,422.74z"/>
	<path class="st3" d="M336.12,420.67c-0.55,1.83-1.93,3.4-3.68,4.17c1.44-0.37,2.8-1.07,3.93-2.03c-0.45,1.18-0.9,2.35-1.35,3.53
		c1.4,0.08,2.3-1.4,3.02-2.61c1.27-2.14,2.97-4.03,4.97-5.52c-1.23,1.75-2.45,3.5-3.68,5.25c-1.9,2.7-4.01,5.57-7.15,6.59
		c1.46,0.47,3.13,0.23,4.4-0.63c0.32,0.66-0.81,1.18-0.84,1.91c-0.02,0.39,0.29,0.71,0.47,1.06c0.19,0.34,0.18,0.9-0.2,1
		c1.74,0.17,3.52-0.22,5.03-1.09c-0.45,1.22-1.09,2.36-1.88,3.39c1.09,0.21,2.25,0.06,3.24-0.44c-0.92,1.37-2.15,2.63-3.73,3.1
		c-1.58,0.46-3.56-0.13-4.22-1.64c-0.29-0.67-0.36-1.51-0.97-1.91c-0.71-0.47-1.68-0.01-2.5-0.2c-2.34-0.55-3.58-4.39-2.68-6.22
		C329.59,425.76,334.04,422.81,336.12,420.67z"/>
	<path class="st3" d="M343.91,439.64c1.64-1.3,3.2-2.69,4.67-4.16c0.05,0.66,0.1,1.32,0.15,1.98c0.43-0.13,0.86-0.25,1.29-0.38
		c-0.66,2.14-2.14,4.03-4.06,5.18c-0.37,0.22-0.81,0.42-1.21,0.27c-0.37-0.14-0.57-0.53-0.74-0.89c-0.39-0.83-0.78-1.65-1.17-2.48"
		/>
	<path class="st4" d="M358.5,417.82c0.14,3.62-3.56,6.44-3.72,10.06c1.75-2.75,2.86-5.91,3.22-9.15"/>
	<path class="st4" d="M324.75,427.13c1.36,0.71,0.88,3.39,2.4,3.63c0.39,0.06,0.8-0.08,1.17,0.06c1,0.38,0.35,2.04,1.06,2.83
		c0.63,0.7,1.89,0.27,2.7,0.76c0.88,0.54,0.78,1.85,0.32,2.75c-0.17,0.33-0.38,0.72-0.23,1.06c0.14,0.29,0.49,0.41,0.81,0.49
		c4.64,1.06,9.36-1.83,12.34-5.48c2.46-3.01,3.89-6.78,5.18-10.42c0.46-1.31,0.87-2.64,1.04-4.02c0.1-0.8,0.11-1.63,0.34-2.41
		c0.27-0.94,0.84-1.77,1.28-2.65c1.06-2.1,1.42-4.53,1.01-6.83c0.6,2.32,1.11,4.78,0.56,7.11c-0.26,1.1-0.76,2.13-1.05,3.23
		c-0.5,1.94-0.3,3.98-0.53,5.97c-0.78,6.63-6.18,11.69-11.25,16.14c1.36,1.15,3.4,1.46,5.05,0.77c-0.11,0.84,0.4,1.71,1.2,2.04
		c-1.31,1.21-2.82,1.96-4.5,2.61c-1.67,0.64-3.51,0.65-5.3,0.64c-7.06-0.01-14.12-0.03-21.17-0.04c-2.63-0.01-5.31-0.02-7.83-0.79
		c-2.68-0.82-5.07-2.5-6.72-4.73c-0.26-0.36-0.52-0.76-0.48-1.2c0.03-0.31,0.2-0.59,0.39-0.84c3.24-4.39,10.26-3.73,14.74-6.9
		C319.63,429.24,322.19,425.79,324.75,427.13z"/>
	<path class="st5" d="M339.21,412.91c0.41-0.7,0.78-1.42,1.26-2.08c0.77-1.06,1.79-1.9,2.8-2.73c1.09-0.89,2.17-1.79,3.26-2.68
		c0.29-0.24,0.6-0.49,0.97-0.55c0.37-0.06,0.75,0.07,1.12,0.16c1.87,0.48,3.98-0.15,5.29-1.58c-1.9,1.32-3.78,2.66-5.65,4.03
		c-1.64,1.2-3.31,2.47-4.33,4.22c-0.36,0.62-0.63,1.29-1,1.91c-1.02,1.71-2.73,2.91-4.54,3.73c-0.84,0.38-1.68,0.7-2.57,0.83
		C336.04,416.37,338.24,414.57,339.21,412.91z"/>
	<path class="st6" d="M370.29,410.47c-2.04-1.28-3.55-3.38-4.11-5.73c-0.32-1.34-0.31-2.85,0.44-4.01c0.64-0.99,1.74-1.6,2.43-2.57
		c1.06-1.5,0.85-3.74-0.41-5.09c-1.26-1.34-3.4-1.72-5.09-0.99c-0.43,0.18-0.83,0.44-1.13,0.79c-0.74,0.87-0.68,2.21-0.16,3.23
		s1.41,1.79,2.27,2.54c-0.88-0.98-1.49-2.21-1.72-3.51c-0.05-0.29-0.08-0.59,0.02-0.87c0.12-0.31,0.39-0.53,0.68-0.7
		c1.88-1.13,4.74-0.45,5.06,1.95c0.28,2.09-2.09,3.32-2.83,5.09C364.4,403.82,364.69,412.67,370.29,410.47z"/>
	<path class="st7" d="M344.12,409.14c1.03-0.91,2.51-1.02,3.85-1.31c2.97-0.63,5.6-2.28,8.17-3.91c1.45-0.92,2.98-1.93,3.69-3.49
		c0.54-1.2,0.79-2.88,2.08-3.15c-0.04,1.1,0.76,2.17,1.82,2.44c-1.1,1.61-1.85,3.44-2.2,5.36c-0.05,0.3-0.09,0.63,0.08,0.88
		c0.22,0.31,0.65,0.35,1.02,0.42c1.63,0.32,2.74,1.77,3.7,3.12c0.56,0.79,1.13,1.84,0.61,2.64c-0.47,0.73-1.54,0.74-2.38,0.52
		c-0.84-0.23-1.7-0.62-2.54-0.41c-1.57,0.39-2.24,2.65-3.86,2.76c-1.75-1.22-1.07-4.15-2.49-5.74c-1.2-1.34-3.41-1.14-4.98-0.28
		c-1.58,0.86-2.83,2.23-4.39,3.11c-1.77,0.99-3.82,1.33-5.59,2.33C342.56,413.27,342.48,410.6,344.12,409.14z"/>
	<path class="st8" d="M364.11,396.27c0.46,0.51,1.11,0.84,1.79,0.99c0.42,0.09,0.87,0.11,1.25-0.07c0.69-0.32,0.94-1.18,0.95-1.94
		c0-0.23-0.01-0.47-0.12-0.67c-0.11-0.21-0.31-0.35-0.51-0.48c-0.78-0.51-2.11-1.34-2.96-0.57
		C363.8,394.17,363.45,395.54,364.11,396.27z"/>
	<path class="st9" d="M365.68,392.37c0.49-0.05,1.03,0.07,1.38,0.45c0.22,0.23,0.35,0.54,0.5,0.84c0.17,0.34,0.36,0.68,0.48,1.05
		s0.16,0.79,0.02,1.15c-0.21,0.54-0.76,0.81-1.27,1.03c-0.28,0.12-0.56,0.23-0.85,0.28c-0.7,0.11-1.44-0.18-1.93-0.74
		c-0.49-0.56-0.73-1.36-0.67-2.13c0.02-0.2,0.05-0.4,0.13-0.58C363.83,392.85,364.89,392.45,365.68,392.37z"/>
	<path class="st10" d="M363.92,394.14c0.03-0.23,0.1-0.47,0.26-0.65c0.1-0.11,0.23-0.19,0.37-0.27c0.2-0.12,0.4-0.24,0.62-0.32
		c0.43-0.16,0.9-0.16,1.36-0.12c0.24,0.02,0.49,0.05,0.7,0.15c0.49,0.22,0.78,0.78,0.78,1.33c0,0.55-0.26,1.08-0.63,1.48
		c-0.54,0.59-1.4,1.29-2.19,0.94C364.28,396.3,363.79,395.11,363.92,394.14z"/>
	<path class="st11" d="M366.01,396.57c0.48-0.15,0.86-0.5,1.19-0.87c0.15-0.16,0.29-0.33,0.39-0.52c0.3-0.54,0.24-1.28-0.19-1.72
		c-0.43-0.45-1.2-0.53-1.68-0.14c-0.53,0.44-1.34,0.96-1.36,1.64c0,0.18,0.04,0.36,0.08,0.53c0.1,0.36,0.25,0.72,0.54,0.94
		C365.31,396.67,365.65,396.69,366.01,396.57z"/>
	<path class="st4" d="M365.81,395.5c0.18,0.1,0.39,0.15,0.59,0.14c0.09-0.19,0.05-0.45-0.1-0.6c-0.15-0.15-0.41-0.19-0.6-0.09
		c-0.09,0.21-0.12,0.45-0.08,0.67c0.12,0.05,0.25,0.08,0.38,0.08"/>
</g>
<path class="st0" d="M372.56,344.02c-0.01-0.96-0.01-1.92,0-2.87c-0.06-0.56-0.12-1.12-0.19-1.68c-0.01-0.11-0.02-0.22-0.04-0.33
	c-0.46,0.05-0.93,0.14-1.39,0.19c-1.18,0.15-2.38,0.06-3.57-0.02c-3.38-0.22-6.76-0.36-10.15-0.4c-1.61-0.02-3.22-0.02-4.82,0.21
	c-1.43,0.21-2.84,0.61-4.27,0.82c-1.93,0.28-3.72,0.33-5.53,0.78c-0.07,2.6-0.08,5.19,0.07,7.76c0.12,2.02,0.44,4.03,0.78,6.04
	c2.63,0.86,5.42,1.24,8.18,1.13c1.06-0.04,2.11-0.15,3.16-0.25c3.31-0.34,6.63-0.67,9.94-1.01c2.81-0.28,5.68-0.59,8.24-1.79
	c0.13-0.72,0.24-1.44,0.34-2.16C372.59,348.42,372.57,346.23,372.56,344.02z"/>
<path class="st5" d="M362.14,348.75c0.64-0.75,1.11-1.65,1.36-2.6c0.22-0.05,0.37,0.21,0.45,0.42c1.57,4.69,0.32,9.85,1.06,14.73
	c0.32-0.98,0.65-1.97,0.97-2.95c0.19-0.57,0.42-1.19,0.95-1.46c0.49,2.37,0.99,4.76,1.98,6.97c-0.09-1.97,0.54-3.97,1.76-5.53
	c0.73,1.9,1.85,3.66,3.26,5.13c-1-4.78,0.11-10.02-2.01-14.41c0.33,0.11,0.66,0.22,0.99,0.33c-0.04-1.7-1.08-3.28-1.02-4.98
	c0.03-0.88,0.36-1.74,0.25-2.61c-0.12-0.93-0.71-1.73-1.29-2.47c-0.47-0.14-0.91,0.26-1.31,0.56c-1.76,1.34-4.22,1.02-6.43,0.84
	c-2.04-0.16-1.27,1.42-1.14,2.83c0.08,0.88,0.13,1.76,0.16,2.64C362.14,346.66,362.43,348.41,362.14,348.75z"/>
<path class="st0" d="M376.48,354.69c-0.91-0.88-1.22-2.21-1.44-3.46c-1.01-5.69-1.25-11.49-1.49-17.27
	c-0.36-8.57-2.41-16.58-2.91-25.14c-1.01,2.01-1.09,4.34-1.1,6.59c-0.03,7.78,0.66,15.56,2.06,23.21c0.31,1.68,0.65,3.38,0.51,5.08
	c-0.15,1.87-0.67,4.25,0.93,5.23c-0.3,0.12-0.59,0.24-0.89,0.36C372.84,351.51,374.79,353.1,376.48,354.69z"/>
<g>
	<path class="st12" d="M249.13,440.52c-0.03-0.03-0.06-0.06-0.09-0.1c-7.09,0.35-5.83-5.54-9.41-8.4
		c-4.16-3.32-12.81,0.38-17.75,1.49c-2.42,0.54-4.89,1.11-6.98,2.42c-2.1,1.32-3.79,3.56-3.76,6.03c0.01,1.32,0.62,2.72,1.81,3.28
		c0.58,0.27,1.24,0.31,1.87,0.35c9.97,0.62,19.94,1.24,29.91,1.87C244.11,444.5,246.23,441.29,249.13,440.52z"/>
	<path class="st12" d="M265.36,426.97c-5.25-2.84-11.05-4.64-16.99-5.27c-2.6-0.28-5.3-0.35-7.62-1.56s-4.07-4-3.11-6.43
		c0.95-2.41,3.9-3.23,6.45-3.65c4.99-0.82,13.64-2.07,18.09,1.13c4.02,2.89,2.8,8.36,7.15,10.96
		C267.01,422.35,264.26,424.21,265.36,426.97z"/>
	<path class="st13" d="M221.35,441.26c10.39-1.17,20.98-0.53,31.16,1.87c-0.65-0.71-1.4-1.29-2.21-1.8c-0.21-0.1-0.41-0.22-0.6-0.35
		c-2.04-1.13-4.4-1.77-6.7-2.26c-8.99-1.91-18.28-2.4-27.42-1.44c8.36-3.43,17.59-4.73,26.57-3.75c-2.02-2.81-6.02-3.14-9.48-3.02
		c-6.63,0.23-13.23,1.18-19.65,2.82c2.86-15.09,4.17-30.48,3.91-45.84c-0.45-26.51,2.07-53.8,2.64-80.31
		c0.09-4.13,0.18-8.27-0.22-12.38c-0.36-3.78-1.13-7.51-1.48-11.28c-0.43-4.58-0.25-9.19-0.07-13.79c0.65-16.7,1.31-33.4,1.96-50.1
		c0.78-19.81-4.72-40.14-5.93-59.93c-6.78,1.43-13.82,1.65-20.68,0.65c0.61,0.05,1.39,1.1,1.91,1.41c5.28,3.17,6.43,10.2,7.05,16.33
		l4.05,40.57c2.36,23.66,4.72,47.72,0.29,71.08c-0.59,3.1-1.3,6.23-1.14,9.38c0.13,2.75,0.92,5.41,1.48,8.1
		c0.8,3.85,1.15,7.78,1.46,11.71c2.89,37.01,1.91,74.31-2.92,111.12c-0.64,4.87-0.98,10.72,2.89,13.74c2.2,1.72,5.17,1.97,7.95,2.16
		c11.72,0.78,23.44,1.56,35.17,2.34c-10.72-3.02-21.9-4.76-32.96-3.51c-0.8-0.6-0.58-1.95,0.17-2.62
		C219.3,441.53,220.36,441.37,221.35,441.26z"/>
	<path class="st13" d="M231.48,283.35c-0.34,2.75-0.71,5.53-0.46,8.29c0.37,4.26,2.17,8.26,3.25,12.4
		c1.71,6.58,1.6,13.48,1.48,20.28l-1.55,85.65c0.38,3.24,0.17,6.89,2.04,9.49c0.02,0.03,0.04,0.06,0.06,0.09
		c4.04,1.52,8.33,2.11,12.56,2.84c0.68,0.06,1.35,0.13,2.01,0.21c4.91,0.6,9.63,2.13,14.28,3.87c-3.1-1.75-5.9-4.29-9.12-5.89
		c-4.5-2.25-9.68-2.61-14.7-2.93c9.22-2.97,19.76-1.56,27.87,3.73c-7.27-6.48-17.65-7.78-27.33-8.8c8.23-2.99,17.69-2.41,25.49,1.58
		c-2.24-3.65-6.47-5.6-10.66-6.5s-8.51-0.94-12.7-1.85c-0.5-0.11-1.03-0.25-1.37-0.64c-0.36-0.42-0.39-1.03-0.41-1.58
		c-0.41-15.1-0.22-30.22,0.57-45.31c0.55-10.44-1.34-20.27-0.91-30.72c0.32-7.72,0.99-15.43,1.41-23.14
		c1.11-20.5,0.48-41.09-1.89-61.48c-2.94-25.27-4.24-52.86-4.05-78.3c0.02-2.8,0.05-5.66-0.91-8.29s-3.15-5-5.92-5.33
		c-2.78-0.33-5.44,3.09-4.84,5.82C234.66,198.28,236.64,241.24,231.48,283.35z"/>
	<path class="st14" d="M196.89,166.63c3.28,1.73,4.72,5.67,5.29,9.33s0.58,7.52,2.21,10.86c0.56-3.39,0.76-6.84,0.6-10.28
		c1.06-0.07,2.13-0.13,3.19-0.2c0.1-1-0.27-2.03-0.99-2.73c2.51,0.5,6.06,0.35,6.48-2.17c0.21-1.24-0.55-2.4-0.97-3.58
		c-0.57-1.6-0.52-3.42,0.13-4.99c-4.71-2.38-10,2.24-15.28,2.36c-0.77,0.02-1.65-0.03-2.21,0.49c-0.57,0.53-0.19,1.81,0.55,1.59"/>
	<path class="st14" d="M231.75,195.13c0.12-0.79,0.53-1.53,1.12-2.07c0.18,10.85,0.69,21.69,1.51,32.5
		c8.07-20.99-0.04-44.75,3.51-66.95c0.25-1.57,0.24-3.69-1.29-4.13c-0.51-0.15-1.05-0.03-1.56,0.09c-10.87,2.58-8.35,4.72-6.6,13.82
		C229.86,175.76,232.89,187.76,231.75,195.13z"/>
	<path class="st14" d="M206.67,287.97c0.43,4.28,5.03,7.63,9.24,6.73c-2.15,2.91-6.82,3.51-9.63,1.23c0.92,3.17,4.52,5.28,7.73,4.54
		c-1.71,0.33-3.42,0.67-5.12,1c0.95,1.12,2.07,2.09,3.3,2.88c-1.32,0.11-2.64,0.22-3.96,0.33c1.12,1.22,2.23,2.44,3.35,3.66
		c-2.91,0.78-5.89-1.71-6.77-4.59c-0.88-2.89-0.22-5.99,0.43-8.94c0.52-2.33,1.3-5,3.5-5.93"/>
	<path class="st14" d="M236.46,295.04c-0.86,0.49-1.73,0.97-2.59,1.46c0.73,0.51,1.47,1.03,2.2,1.54c-0.81-0.91-2.38,0.43-2.18,1.64
		c0.2,1.21,1.24,2.06,1.96,3.05c1.41,1.95,1.56,4.5,1.64,6.9c0.51,15.7-0.17,31.45-2.02,47.05c2.81-16.53,5.62-33.26,4.3-49.98
		c-0.07-0.85-0.14-1.73,0.1-2.55c0.48-1.58,2.05-2.63,2.6-4.19c0.55-1.56-1.44-3.74-2.46-2.43c0.54-2.44,1.08-4.88,1.62-7.32
		c-2.69,0.19-5.44-0.41-7.8-1.72c0.65-0.46,1.3-0.91,1.95-1.37c-2.31-3.86-2.83-8.36-2.19-12.75c-0.99,4.74-4.9,16.56,2.03,17.98
		C235.53,292.64,235.61,295.53,236.46,295.04z"/>
	<path class="st14" d="M212.38,434.62c0.67-3.54,1.34-7.08,2.01-10.63c-1.13,1.29-2.6,2.27-4.25,2.73c0.69,0.05,1.34,0.46,1.69,1.07
		c-1.17,0.22-2.21,1.07-2.66,2.17c1.03,0.95,0.38,3.03-1.01,3.22c0.96-0.18,1.99,0.12,2.71,0.78c-1.28,1.41-2.56,2.81-3.84,4.22
		c0.89-0.23,1.79-0.46,2.68-0.69c-1.23,0.4-1.96,1.93-1.49,3.13c2.86-4.58,8.06-7.6,13.45-7.83
		C218.48,432.52,215.22,433.16,212.38,434.62z"/>
	<path class="st14" d="M240.16,408.36c0.78-0.04,1.56-0.07,2.35-0.11c0.23-0.1,0.47-0.2,0.7-0.29
		C242.19,408.1,241.17,408.23,240.16,408.36z"/>
	<path class="st14" d="M237.11,419.84c6.39,2.2,13.36,2.28,19.61,4.37c3.03,0.45,5.93,1.29,8.41,3.06
		c-5.6-4.98-13.16-7.68-20.64-7.39c-1.28,0.05-2.6,0.18-3.8-0.26c-1.2-0.44-2.24-1.66-1.96-2.91c5.09-1.73,10.53-2.46,15.9-2.13
		c-4.74-0.89-9.49-1.79-14.23-2.68c2.68-2.19,6.01-3.59,9.45-3.97c-2.45,0.11-4.89,0.22-7.34,0.33c-1.88,0.79-3.76,1.57-5.64,2.36
		c1.1-2.01,2.63-3.78,4.46-5.15c-1.38,0.76-2.94,1.19-4.51,1.23c0.43-0.57,1.18-0.87,1.88-0.75c-0.66-0.11-2.42-5.92-2.82-6.78
		C234.9,408.41,233.04,415.7,237.11,419.84z"/>
	<path class="st15" d="M212.68,433.37c0.54,0.23,1.14-0.05,1.68-0.27c1.47-0.62,3.07-0.93,4.67-0.89c-2.51,1.08-5.01,2.16-7.52,3.24
		c-0.17,0.08-0.36,0.15-0.55,0.11c-0.48-0.12-0.43-0.82-0.26-1.29c0.8-2.24,1.42-4.76,2.53-6.86
		C214.79,428.04,212.42,433.26,212.68,433.37z"/>
	<path class="st15" d="M235.66,418.57c0.65,1.21,2.11,1.74,3.46,1.99c-0.56-0.81-1.12-1.63-1.69-2.44
		c-0.38-0.55-0.77-1.29-0.39-1.84c0.52-0.75,1.99-0.39,2.34-1.24c-0.64-0.08-1.29-0.16-1.93-0.25c-0.11-0.01-0.23-0.03-0.33-0.09
		c-0.27-0.17-0.24-0.59-0.08-0.86s0.41-0.51,0.51-0.81c-0.3-0.01-0.6,0.05-0.87,0.18c0.14-0.16,0.28-0.32,0.42-0.48
		c-0.27-0.03-0.55-0.06-0.82-0.09c0.59-0.49,1.18-0.99,1.78-1.48c-1.02,0.36-2.04,0.72-3.06,1.08c0.06-0.69-0.47-2.66-1.1-1.2
		c-0.31,0.73,0.39,1.42,0.61,2.02C235.14,414.77,234.8,416.98,235.66,418.57z"/>
	<path class="st15" d="M241.97,400.96c0.36,0.76,0.29,1.71-0.17,2.42s-1.3,1.15-2.15,1.12c0.58,0.03,1.17,0.06,1.75,0.1
		c-0.52,0.52-1.11,0.96-1.76,1.3c0.72,0,1.44-0.17,2.09-0.49c-0.3,0.32-0.6,0.64-0.9,0.96c0.18,0.28,0.61,0.1,0.9-0.08
		c0.68-0.41,1.48-0.64,2.28-0.64c-0.8,0.15-1.67-0.21-2.14-0.87c-0.47-0.66-0.53-1.59-0.16-2.32"/>
	<path class="st14" d="M228.58,432.81c4.4-0.85,9.03-0.96,13.31,0.37c-7.67-0.88-15.55,0.16-22.73,2.99
		c-1.12,0.44-2.98,1.34-4.04,0.63C219.47,435.6,223.98,433.7,228.58,432.81z"/>
	<path class="st14" d="M226.47,440.73c-3.41,0.07-6.95,0.28-9.94,1.92c-0.14-0.87,0.79-1.52,1.61-1.85c3.07-1.24,6.45-1.48,9.76-1.7
		c3.9-0.26,7.82-0.52,11.69-0.03c3.87,0.49,7.88,1.62,11.45,3.16C242.81,441.53,234.76,440.57,226.47,440.73z"/>
	<path class="st14" d="M247.68,447.48c0.91,0.05,1.85,0.11,2.7,0.44c-10.03-0.1-20.18-0.58-30.13-1.93
		c4.2-0.47,8.94,0.42,13.16,0.67C238.17,446.93,242.92,447.21,247.68,447.48z"/>
	<path class="st14" d="M262.65,418.22c2.35,0.83,4.69,1.95,6.3,3.84c-0.23-1.45-1.79-2.23-3.16-2.75
		c-6.32-2.41-14.56-5.31-21.34-3.2c1.84,1.13,5.84,0.01,8.02,0.12C255.93,416.4,259.38,417.07,262.65,418.22z"/>
	<path class="st14" d="M254.68,410.2c4.13,0.41,8.11,1.78,11.9,3.45c-3.86-2.19-8.03-4-12.45-4.44c-3.19-0.32-7.54,0-10.13,2.05
		c1.39,0.38,3.22-0.65,4.62-0.89C250.62,410.03,252.67,410,254.68,410.2z"/>
	<path class="st16" d="M228.71,167.46c0.18,0.59,0.36,1.18,0.67,1.71c0.37-0.72,0.74-1.45,1.1-2.17c0.32,0.26,0.6,0.57,0.82,0.92
		c0.39-0.42,0.58-1.01,0.53-1.58c0.65,0.22,1.32-0.23,1.82-0.69c0.5-0.47,1.04-1.01,1.73-1c0.26,0,0.53,0.09,0.79,0.02
		c0.37-0.1,0.59-0.5,0.64-0.88c0.05-0.38-0.04-0.77-0.04-1.15c-0.01-1.25,0.78-2.39,0.84-3.64c0.01-0.15,0-0.31-0.08-0.43
		c-0.08-0.11-0.2-0.18-0.33-0.23c-1.02-0.42-2.18-0.2-3.23,0.14c-1.05,0.34-2.08,0.79-3.18,0.84c-1.85,0.08-3.97-0.89-3.98,1.62
		C226.8,162.99,228.12,165.52,228.71,167.46z"/>
	<path class="st16" d="M197.62,166.89c1.04,0.38,1.67,1.42,2.2,2.4c0.98,1.78,1.96,3.55,2.93,5.33c-0.06-1,0-2,0.18-2.99
		c0.23,0.35,0.46,0.69,0.69,1.04c0.13-0.35,0.2-0.72,0.19-1.09c0.36,0.25,0.73,0.49,1.09,0.74c-0.05-1.07,0-2.14,0.15-3.2
		c0.25,0.49,0.99,0.64,1.41,0.29c-0.19,0.98-0.08,2.02,0.32,2.94c0.17-0.39,0.5-0.72,0.9-0.88c0.14,0.48,0.41,0.92,0.77,1.26
		c-0.15-0.31-0.04-0.72,0.24-0.9s0.71-0.13,0.93,0.13c0.11-0.56,0.22-1.12,0.32-1.68c0.58,0.68,1.16,1.36,1.74,2.04
		c-0.1-0.49-0.21-0.99-0.13-1.49c0.08-0.49,0.37-0.99,0.84-1.16c-0.88-0.5-1.73-1.53-2.1-2.48c-0.2-0.53-0.35-1.16-0.85-1.42
		c-0.21-0.11-0.46-0.14-0.69-0.16c-2.98-0.3-6.08-0.58-8.91,0.4c-0.88,0.3-1.76,0.73-2.68,0.66c-0.21-0.02-0.43-0.05-0.61,0.05
		C196.37,166.8,197.43,166.82,197.62,166.89z"/>
	<path class="st16" d="M210.58,298.76c1.26,0.37,2.51,0.74,3.77,1.1c-2.6-0.01-5.18-0.94-7.2-2.58c-0.33,1.03,0.5,2.07,1.39,2.7
		c0.89,0.62,1.95,1.12,2.44,2.09c-1.46-0.31-2.83-1.09-3.85-2.18c-0.16,0.4,0.03,0.86,0.22,1.24c0.95,1.86,2.24,3.53,3.79,4.92
		c-2.96-1.04-5.23-3.82-5.64-6.93c-0.71,0.97,0.48,2.37,0.08,3.5c-1.17-0.94-1.27-5.31-0.21-6.29
		C206.22,295.54,209.07,298.31,210.58,298.76z"/>
	<path class="st16" d="M230.97,288.95c-0.04,0.31-0.08,0.64,0.03,0.93c0.12,0.3,0.37,0.52,0.62,0.72c0.57,0.47,1.14,0.94,1.7,1.41
		c-0.51,0.03-1.01,0.07-1.52,0.1c0,0.64,0.25,1.28,0.69,1.75c-0.23,0.02-0.45,0.05-0.68,0.07c0.03,0.62,0.18,1.22,0.44,1.78
		c-0.28,0-0.55-0.03-0.82-0.08c1.27,2.59,2.22,5.34,2.83,8.16c0.18-2.49,0.21-5.38-1.68-7.02c0.97,1.21,2.45,1.99,3.99,2.11
		c-1.72-0.87-3.17-2.25-4.13-3.92c0.46-0.09,0.96-0.02,1.38,0.19c-0.55-0.21-1.01-0.66-1.23-1.2c0.24-0.01,0.48-0.02,0.73-0.02
		c-0.1-0.42-0.27-0.81-0.5-1.17c1.23,0.54,2.6,0.75,3.94,0.62c-0.95-0.59-1.91-1.17-2.86-1.76c0.46,0.04,0.93,0.08,1.39,0.12
		c-1.14-0.57-2.23-1.21-3.28-1.93c-0.23-0.16-0.46-0.32-0.59-0.57c-0.39-0.72-0.14-2.06-0.06-2.85
		C231.21,287.23,231.09,288.09,230.97,288.95z"/>
	<g>
		<g>
			<g>
				<path class="st0" d="M95.4,28.73c0.14-0.16,0.3-0.32,0.45-0.48c-10.61,2.37-21.08,5.4-31.33,9.04
					c6.09-0.27,12.17-0.55,18.26-0.82C87.18,34.22,91.41,31.64,95.4,28.73z"/>
				<path class="st0" d="M105.14,48.04c0.55-0.02,1.1-0.04,1.65-0.06c1.12-0.22,2.24-0.46,3.36-0.71c-0.56-0.08-1.11-0.16-1.67-0.24
					C107.44,47.35,106.3,47.69,105.14,48.04z"/>
				<path class="st0" d="M67.52,40.98c-1.76-0.92-3.5-1.89-5.2-2.9c-2.18,0.8-4.35,1.62-6.51,2.48c1.06,0.3,2.13,0.57,3.2,0.8
					C61.96,41.08,64.83,40.9,67.52,40.98z"/>
				<path class="st0" d="M370.69,341c-0.13,0.04-0.26,0.07-0.39,0.11C370.43,341.07,370.56,341.04,370.69,341z"/>
				<path class="st0" d="M368.55,341.53c-0.07,0.02-0.15,0.03-0.22,0.04C368.41,341.56,368.48,341.55,368.55,341.53z"/>
				<path class="st0" d="M235.76,161.25c0.22-0.4,0.43-0.79,0.65-1.19c-0.68,0.13-1.37,0.24-2.06,0.32
					C234.89,160.52,235.4,160.81,235.76,161.25z"/>
				<path class="st0" d="M111.42,53.68c-0.28,0.36-0.56,0.71-0.84,1.07c0.66-0.25,1.33-0.51,2-0.78L111.42,53.68z"/>
				<path class="st0" d="M32.85,59.69c4.56,1.11,9.03-0.13,13.49-1.9c-1.76-0.3-3.5-0.72-5.21-1.27
					C38.43,57.75,35.6,58.76,32.85,59.69z"/>
				<path class="st0" d="M93.11,44.86c-1.34,0.4-2.69,0.77-4.04,1.14C89.08,46,89.09,46,89.1,46c1.9-0.46,4.03-0.71,6.27-0.83
					C94.62,45.07,93.86,44.96,93.11,44.86z"/>
				<path class="st0" d="M115.48,52.71c-1.17,0.15-2.35,0.25-3.54,0.3c-0.17,0.22-0.35,0.44-0.52,0.66
					c0.39,0.09,0.79,0.18,1.18,0.28C113.58,53.54,114.54,53.13,115.48,52.71z"/>
				<path class="st0" d="M68.53,48.49c-1.06-0.05-2.11-0.09-3.17-0.14c0.23,0.72,0.56,1.4,0.97,2.03
					C67.12,49.82,67.85,49.19,68.53,48.49z"/>
				<path class="st0" d="M60.41,63.63c8.01,0.05,16.02,0.51,23.98,1.38c-2.24-0.51-4.51-0.93-6.79-1.23
					c0.34-0.38,0.7-0.72,1.08-1.04c-1.11-0.01-2.21-0.03-3.32-0.04c-2.51-0.03-5.72-0.68-6.45-2.88c-1.46,0.3-2.9,0.66-4.33,1.11
					C63.22,61.89,61.84,62.8,60.41,63.63z"/>
				<path class="st0" d="M319.04,89.03c0.25-1.48,0.72-2.42,1.31-3.31c-4.14-11.57-10.62-22.3-19.16-31.15
					c-0.47-0.49-0.95-0.96-1.42-1.44c2.69,3.35,5.24,6.84,7.78,10.31C312.88,70.74,319.27,79.63,319.04,89.03z"/>
				<path class="st0" d="M269.96,137.98c1.5,0.95,2.95,1.98,4.36,3.05c-0.73-1.09-1.49-2.16-2.28-3.21
					C271.35,137.83,270.65,137.87,269.96,137.98z"/>
				<path class="st0" d="M235.85,148.4c-0.31,0.01-0.62,0.04-0.92,0.07c-0.22,0.19-0.44,0.38-0.66,0.57L235.85,148.4z"/>
				<path class="st0" d="M186.25,139.18c0.01,0,0.02,0,0.03,0c-0.02-0.02-0.04-0.04-0.06-0.07
					C186.23,139.13,186.24,139.16,186.25,139.18z"/>
				<path class="st0" d="M194.74,159.82c0.6,2.54-0.1,5.78-0.29,8.37c1.06-0.99,2.11-1.99,3.17-2.98c-0.87-1.88-1.7-3.72-2.85-5.44
					C194.77,159.79,194.75,159.81,194.74,159.82z"/>
				<path class="st0" d="M186.81,154.85c-4.29-0.54-9.45-1.88-10.59-6.06c1.98-0.2,3.96-0.4,5.94-0.61
					c-4.55-2.48-10.88-2.21-16.04-3.38c6.53,5.85,14.01,10.36,22.31,11.91c-0.23-0.58-0.46-1.16-0.71-1.74
					C187.42,154.93,187.12,154.89,186.81,154.85z"/>
				<path class="st0" d="M187.63,101.17c-2.35-0.57-4.64-1.41-6.78-2.56c0.57,4.44,2.62,8.62,5.62,11.94
					c4.22,2.07,8.77,3.45,13.44,3.96C194.77,111.2,190.54,106.54,187.63,101.17z"/>
				<path class="st0" d="M231.54,161.1c0.23-0.24,0.51-0.42,0.81-0.55c-0.28,0.01-0.55,0.02-0.83,0.03
					C231.54,160.74,231.56,160.91,231.54,161.1z"/>
				<path class="st0" d="M367.67,340.42c-0.19-3.2,0.12-6.43,0.94-9.52c0.67,3.36,1.7,6.65,3.03,9.81c0.28-0.09,0.57-0.17,0.85-0.27
					c-0.04-0.32-0.07-0.64-0.12-0.97c-0.33-2.56-0.51-5.14-0.67-7.72c-1.08-5.05-1.69-10.12-1.06-15.26
					c2.53-20.5-6.3-44.23-18.25-61.08c-6.93-9.78-16.74-17.27-23.47-27.2c-9.29-13.71-11.92-30.82-12.83-47.35
					c-0.37-6.64-0.49-13.34,0.57-19.9c1.34-8.22,4.51-16.02,6.53-24.1c3.62-14.46,3.24-29.8-0.65-44.18
					c-0.62,6.87-1.96,14.46-0.19,17.81c-1.46-2.77-2.92-5.54-4.37-8.3c-2.9,6.7-4.43,13.99-4.45,21.29
					c-1.75-4.34-3.5-8.69-5.25-13.03c-2.03,6.12-3.16,12.53-3.34,18.97c-2.2-5.34-4.39-10.68-6.59-16.03
					c-0.69,8.83-1.38,17.66-2.08,26.5c-2.04-8.71-4.08-17.42-6.13-26.13c-0.67-2.84-1.37-5.76-3.07-8.12
					c-5.63-7.8-20.45-7.65-21.94-17.16c5.05,2.3,10.97,2.6,16.22,0.82c-9.04-1.49-16.34-10.13-16.29-19.29
					c6.97,7.47,15.57,15.58,25.71,14.37c-4.32-13.22-12.56-25.13-23.4-33.84c14.2,2.97,24.44,14.99,33.54,26.29
					c-4.37-20.84-20.83-36.67-36.47-51.11c3.62,1.97,7.23,3.98,10.76,6.12C244.96,9.63,208.48-3.73,171.54,0.92
					c-12.62,1.59-24.96,4.85-37.26,8.1c-12.89,3.41-25.82,6.83-38.09,12.05c-0.18,1.9,0.76,3.8,2.24,4.99
					c0.56-0.38,1.13-0.73,1.73-1.03c-0.49,0.41-1,0.81-1.5,1.21c0.63,0.46,1.34,0.8,2.1,0.94c-1.55,0.32-3.09,0.66-4.64,1.01
					c-0.24,0.18-0.48,0.36-0.72,0.54c-1.49,1.7-2.64,3.69-3.28,5.86c6.63-2.77,13.26-5.53,19.89-8.3c0.09,2.71-0.73,5.31-2.13,7.63
					c7.19-1.58,14.32-4.14,18.75-9.85c1.18-1.52,3.47-3.31,4.58-1.75c-5.47,10.63-15.12,18.99-26.36,23.03
					c1.93,0.09,3.77,0.19,5.44,0.23c-0.66,0.41-1.88,0.85-3.37,1.31c0.73,0.05,1.47,0.09,2.2,0.14c2.36-0.56,4.7-1.17,7.02-1.88
					c-0.59,0.74-1.17,1.48-1.76,2.22c2.34,0.15,4.67,0.3,7.01,0.45c0,0.35,0,0.71-0.01,1.06c0.99-0.5,1.83-0.92,2.47-1.21
					c-0.82,0.57-1.65,1.14-2.47,1.71c0,0.52-0.01,1.05-0.01,1.57c-1.17,0.38-2.35,0.71-3.55,0.99c7.64,0.1,15.29,0.19,22.93,0.29
					c-10.69,6.19-23.24,9.09-35.56,8.23c0.52,0.52,1.05,1.03,1.58,1.54c1.69,0.73,3.94,1.15,4,2.85c-0.18,0.08-0.34,0.17-0.5,0.27
					c3.16,2.65,6.52,5.06,10.05,7.18c-3.95-0.65-7.95-0.91-11.95-0.81c0.27,0.98,0.73,1.9,1.39,2.65c0.76,0.86,1.67,1.57,2.67,2.12
					c1.59,0.39,3.15,0.82,4.66,1.33c-1.61-0.08-3.22-0.54-4.66-1.33c-0.45-0.11-0.9-0.23-1.36-0.33c2.02,1.85,3.81,3.94,5.3,6.23
					c-2.98-2.58-6.16-4.92-9.49-7.01c-7.31-1.12-15.15-1.17-22.86-0.57c2.84,0.51,5.64,1.2,8.37,2.12
					c-2.92,0.75-5.83,1.51-8.75,2.26c13.11,3.56,26.55,7.27,37.5,15.32c13.06,9.6,21.17,24.29,30.93,37.24
					c0.74,0.98,1.5,1.95,2.28,2.92c8.54,4.67,18.78,5.44,28.55,4.86c0.42-0.02,0.84-0.06,1.26-0.09c-0.03-0.07-0.06-0.14-0.09-0.22
					c-0.26-0.28-0.53-0.55-0.78-0.84c0.15,0,0.29,0,0.44,0c-0.2-0.51-0.39-1.02-0.58-1.54c-0.15-0.34-0.29-0.68-0.45-1.03
					c-10.36-0.54-20.06-3.61-28.54-13.33c-5.86-6.71-14.18-22.27-10.43-31.13c6.95,3.6,12.02,13.62,17.02,19.83
					c-4.42-7.86-8.19-16.02-10.95-24.62c6.33,7.68,12.66,15.36,18.99,23.04c-6.45-11.69-12.89-23.37-19.34-35.06
					c-1.93-3.22-3.76-6.51-5.45-9.87c1.82,3.29,3.63,6.58,5.45,9.87c3.95,6.58,8.39,12.87,13.29,18.78c1.78,2.14,4.89,4.37,7,2.56
					c-3.51-11.72-9.8-22.59-18.22-31.46c10.76,3.3,20.09,11.04,25.31,21.01c-3.72-8.69-8.35-16.99-13.77-24.73
					c2.32,1.31,5.48,2.79,7.54,4.46c7.51,6.09,10.3,16.14,15.42,24.34c0.61,0.98,1.31,1.98,2.35,2.48c0.89,0.43,1.92,0.44,2.91,0.44
					c5.98,0,11.96-0.01,17.94-0.01c1.47,2.73-1.48,5.75-4.27,7.08c-1.06,0.5-2.15,0.94-3.26,1.3c1.06,0.14,2.12,0.23,3.19,0.26
					c8.51,0.26,17.22-3.23,22.64-9.79c-0.73,3.38-3.02,6.38-6.09,7.96c4.76,0.04,9.52,0.09,14.28,0.13
					c-1.82,1.66-3.64,3.31-5.45,4.97c8.91-0.5,17.65-3.72,24.74-9.13c-3.83,8.38-12.48,14.35-21.67,14.97
					c10.64,2.43,21.27,4.85,31.91,7.28c-10.29,0.05-20.58,0.1-30.88,0.16c8.37,3.55,15.71,9.47,21.01,16.85
					c2.47-0.42,7.4-1.17,8.07-0.34c-1.03-1.28-1.73-2.82-1.99-4.44c0.56,0.08,1.11,0.18,1.67,0.29c-0.41-0.44-0.83-0.87-1.26-1.31
					c1.24-0.42,2.64-1.41,3.96-1.91c-1.07-1.61-1.88-3.84-1.34-5.79c3.96,4.38,8.38,8.4,13.17,12c-0.3-3.52-0.6-7.03-0.89-10.55
					c4.61,8.06,9.22,16.12,13.83,24.18c0.51,0.89,1.15,1.88,2.23,2.06c1.98,0.34,3.16-2.07,3.55-3.93c1.04-5,2.09-10,3.13-14.99
					c5.86,10.59,10.26,21.9,13.08,33.6c-7.37-0.3-8.44-12.4-15.82-12.59c2.55,11.35,5.11,22.7,7.66,34.04
					c-7.27-8.57-12.38-18.74-14.83-29.53c0.09,2.18,0.18,4.37,0.27,6.55c0.42,0.78,0.84,1.57,1.22,2.37
					c-0.39-0.26-0.77-0.52-1.16-0.78c0.15,3.71,0.3,7.42,0.45,11.12c0.06,1.43-0.82,3.53-2.22,2.98
					c-2.69-6.91-5.38-13.82-8.08-20.73c-0.87-0.59-1.75-1.18-2.62-1.76c2.14,5.23,3.72,10.69,4.7,16.25
					c-0.35-0.53-0.74-1.07-1.15-1.62c0.93,3.7,1.55,7.5,2.08,11.28c3.33,24.14,3.5,50.02,16.79,70.45c8.39,12.9,21.29,22.31,30,35
					c9.43,13.72,13.26,31.06,10.96,47.52c-0.13,3.01-0.27,6.02-0.31,9.03c0.26,0.04,0.53,0.07,0.79,0.1c0.66-3.1,1.28-6.08,1.78-8.8
					c1.28,1.79,4.21-0.34,4.38-2.53c0.17-2.19-1.94-4.12-1.22-6.2c-1.1-3.14-1.39-6.56-0.84-9.85c0.32,1.73,1.23,3.35,2.54,4.53
					c1.43-8.78-1.04-18.12-6.62-25.05c0.2,1.98,0.39,3.96,0.59,5.93l-15.04-21.1c2.88,1.34,5.77,2.67,8.65,4.01
					c-1.82-2.67-3.08-5.71-3.69-8.88c3.18,4.84,7.42,8.99,12.34,12.05c-1.48-2.28-2.05-5.13-1.57-7.8
					c4.73,11.72,9.46,23.44,14.19,35.16c0.55,1.36,1.11,2.78,1.03,4.24c-0.13,2.35-1.83,4.26-2.95,6.33
					c-2.9,5.38-1.79,11.76-1.52,17.98c-0.07,0-0.14,0.01-0.21,0.01c0.31-0.01,0.62-0.03,0.92-0.04c1.91-0.06,3.86-0.14,5.82-0.29
					c-0.47-3.31-1.22-6.58-2.25-9.76C361.84,335.76,364.18,338.99,367.67,340.42z M167.41,26.46c-8.76-0.32-18.52-0.25-25.26,5.02
					c-0.06,1.01-0.5,1.97-1.42,2.49l-0.27-1.01c0.53-0.54,1.1-1.02,1.69-1.48c0.1-1.71-0.92-3.59-2.67-3.8
					c4.12-1.59,7.97-3.86,11.35-6.7c-2.31,0.13-4.65-0.17-6.85-0.87c8.13-2.39,16.78-3.03,25.18-1.87
					c-4.2,1.19-8.18,3.17-11.66,5.79C160.8,24.86,164.11,25.66,167.41,26.46z"/>
				<path class="st0" d="M236.24,131.35c7.03,2.05,13.38,6.38,17.85,12.18c-11.08-6.94-24.3-10.43-37.37-9.85
					c-10.93,0.48-21.74,2.4-31.91,1.88c0.12,0.34,0.24,0.69,0.37,1.03c0.23,0.54,0.45,1.06,0.65,1.54
					c3.93-0.01,7.86-0.02,11.78-0.03c6.06-0.66,12.13-1.27,18.22-1.1c3.41,0.09,6.8,0.45,10.16,1.03c4.48-0.01,8.96-0.02,13.44-0.03
					c1.96,0,4.14,0.07,5.55,1.44c1.56,1.52,1.54,3.97,2.16,6.05c0.62,2.08,2.98,4.15,4.76,2.89c-1.45,1.51-2.67,3.24-3.63,5.1
					c0.29-0.1,0.66-0.09,1.17,0.11c1.68-4.98,7.06-7.82,12.36-7.81c-2.88-3.8-5.01-7.57-5.58-11.15
					C250.37,130.86,242.95,129.58,236.24,131.35z"/>
				<path class="st0" d="M89.49,66.66c0.3-0.03,0.59-0.04,0.89-0.05c-1.51-0.47-3.03-0.9-4.57-1.28
					c-9.08,1.81-18.44,1.92-27.57,3.48C48.91,70.4,39.4,73.82,33.2,80.97c-1.33,1.54-2.71,3.32-4.21,4.8
					c9.87-1.7,19.15-6.78,25.8-14.28c-0.41,2.07-0.82,4.14-1.23,6.21c6.04-2.37,12.47-3.7,18.95-4.01c2.89-1.39,5.78-2.78,8.66-4.17
					C83.83,68.24,86.56,66.94,89.49,66.66z"/>
				<path class="st0" d="M362.25,342.42c0.13-0.01,0.26-0.03,0.39-0.04C362.51,342.39,362.38,342.4,362.25,342.42z"/>
				<path class="st0" d="M238.87,159.49c0.76,0.98,1.53,1.95,2.29,2.93c0.46-1.05,0.92-2.1,1.38-3.15c1.27,0.65,2.54,1.31,3.82,1.96
					c-0.06-0.64-0.12-1.29-0.13-1.94c-0.08,0.42-0.16,0.83-0.22,1.25C244.82,158.2,241.47,158.8,238.87,159.49z"/>
				<path class="st0" d="M198.81,162.46c0.12,0.79,0.06,1.59-0.13,2.37c0.87,1.14,1.75,2.28,2.62,3.42
					c-0.31-0.94,0.27-2.08,1.22-2.37c-0.16,1.37,0.74,2.79,2.04,3.23c-0.02-1.39,0.22-2.78,0.67-4.1
					C203.66,163.2,201.19,162.16,198.81,162.46z"/>
				<path class="st0" d="M217.56,158.36c-0.13,0.29-0.25,0.58-0.39,0.86c-1.22,2.56-3.35,4.65-5.87,5.93
					c-0.65,1.04-1.2,2.14-1.62,3.32c0.14,0.46,0.26,0.92,0.42,1.37c0.19-1.43,1.14-2.73,2.43-3.37c-0.42,1.29,0.19,2.84,1.37,3.51
					c1.26-2.23,2.51-4.47,3.77-6.7c0.56,1.44,1.36,2.78,2.35,3.97c0.93-2.18,2.16-4.22,3.65-6.06c0.33-0.4,0.68-0.8,1.06-1.17
					c-2.32-0.43-4.61-1.09-6.82-1.95C217.8,158.15,217.68,158.26,217.56,158.36z"/>
				<path class="st0" d="M13.17,76.58c0.94,0.06,1.87,0.06,2.81,0.04c1.16-0.44,2.31-0.92,3.43-1.47c-0.52,0.46-1.05,0.91-1.57,1.37
					c7.05-0.55,13.93-3.27,19.43-7.72c-0.77-0.11-1.54-0.26-2.31-0.48c-1.14-0.32-2.36-0.91-3.01-1.84
					c-3.59-0.3-7.17-0.69-10.73-1.18c-3.26-0.45-6.8-1.17-9.61-2.8c-2.83,0.14-5.66,0.31-8.49,0.53c-0.27,2.75,2.09,5.19,4.74,5.99
					s5.48,0.34,8.2-0.11C10.14,71.44,4.68,75.02,0,79.43c2.73,0.05,5.46-0.17,8.14-0.64C8.3,77.14,11.17,76.46,13.17,76.58z"/>
				<path class="st0" d="M14.87,79.12c-1.26,1.1-2.52,2.2-3.78,3.3c6.63-0.87,13.16-2.45,19.46-4.68c1.87-2.38,3.75-4.76,5.62-7.14
					C29.41,74.22,22.31,77.9,14.87,79.12z"/>
				<path class="st0" d="M52.6,41.86c-0.2,0.08-0.39,0.16-0.59,0.24c0.24-0.03,0.48-0.05,0.71-0.08
					C52.68,41.97,52.64,41.91,52.6,41.86z"/>
				<path class="st0" d="M52.61,47.52c-1.33-0.21-2.67-0.42-4-0.64c-3.75,0.12-7.5,0.23-11.25,0.35c0.46,1.15,1.14,2.21,1.99,3.11
					c4.12-0.2,8.23-0.8,12.23-1.82C51.96,48.2,52.31,47.86,52.61,47.52z"/>
				<path class="st0" d="M54.28,47.77c-0.52-0.08-1.04-0.16-1.57-0.24c-0.19,0.29-0.38,0.56-0.58,0.83
					C52.85,48.17,53.57,47.99,54.28,47.77z"/>
				<path class="st0" d="M29.97,55.71c-1.82,0.5-3.65,0.99-5.47,1.49c0.37,0.5,0.78,0.98,1.21,1.42c3.64-0.59,7.24-1.94,10.72-2.88
					C34.16,56.06,32.08,55.95,29.97,55.71z"/>
				<path class="st17" d="M187.63,101.17c2.91,5.37,7.15,10.03,12.28,13.33c-4.67-0.51-9.23-1.88-13.44-3.96
					c2.91,3.24,6.72,5.67,10.95,6.73c-5.82,1.49-12.26,0.35-17.21-3.06c0.62,7.27,2.18,14.45,4.6,21.33
					c10.17,0.52,20.98-1.4,31.91-1.88c13.07-0.58,26.28,2.91,37.37,9.85c-4.47-5.8-10.82-10.13-17.85-12.18
					c6.72-1.77,14.14-0.49,19.96,3.27c-0.01-0.06-0.03-0.13-0.04-0.19c0.22-0.04,0.66-0.12,1.23-0.22
					c-5.3-7.39-12.64-13.3-21.01-16.85c10.29-0.05,20.58-0.1,30.88-0.16c-10.64-2.43-21.27-4.85-31.91-7.28
					c9.2-0.62,17.84-6.59,21.67-14.97c-7.09,5.41-15.83,8.63-24.74,9.13c1.82-1.66,3.64-3.31,5.45-4.97
					c-4.76-0.04-9.52-0.09-14.28-0.13c3.07-1.58,5.36-4.59,6.09-7.96c-5.42,6.56-14.13,10.06-22.64,9.79
					c-1.07-0.03-2.13-0.12-3.19-0.26C198.56,102.24,192.92,102.44,187.63,101.17z"/>
				<path class="st17" d="M170.82,109.35c-6.33-7.68-12.66-15.36-18.99-23.04c2.76,8.59,6.53,16.76,10.95,24.62
					c-5-6.21-10.07-16.24-17.02-19.83c-3.75,8.86,4.57,24.42,10.43,31.13c8.48,9.71,18.18,12.79,28.54,13.33
					c-1.11-2.55-2.32-5.19-2.62-5.74C178.34,122.99,174.58,116.17,170.82,109.35z"/>
				<path class="st5" d="M151.48,74.3c-1.82-3.29-3.63-6.58-5.45-9.87C147.72,67.79,149.55,71.07,151.48,74.3z"/>
				<path class="st5" d="M186.22,139.11c-0.04-0.05-0.09-0.1-0.13-0.14c0.03,0.07,0.06,0.14,0.09,0.22c0.02,0,0.05,0,0.07-0.01
					C186.24,139.16,186.23,139.13,186.22,139.11z"/>
				<path class="st5" d="M185.17,136.59c0.19,0.51,0.38,1.03,0.58,1.54c0.02,0,0.05,0,0.07,0
					C185.62,137.64,185.41,137.13,185.17,136.59z"/>
				<path class="st5" d="M180.2,114.23c4.95,3.41,11.39,4.55,17.21,3.06c-4.23-1.07-8.03-3.5-10.95-6.73
					c-2.99-3.32-5.04-7.5-5.62-11.94c2.14,1.15,4.42,2,6.78,2.56c5.29,1.27,10.93,1.07,16.1-0.62c1.11-0.37,2.2-0.8,3.26-1.3
					c2.79-1.33,5.74-4.35,4.27-7.08c-5.98,0-11.96,0.01-17.94,0.01c-0.99,0-2.02-0.01-2.91-0.44c-1.04-0.5-1.74-1.5-2.35-2.48
					c-5.13-8.2-7.91-18.25-15.42-24.34c-2.07-1.68-5.22-3.16-7.54-4.46c5.43,7.74,10.05,16.04,13.77,24.73
					c-5.22-9.97-14.55-17.72-25.31-21.01c8.42,8.87,14.71,19.75,18.22,31.46c-2.11,1.82-5.22-0.42-7-2.56
					c-4.91-5.9-9.34-12.19-13.29-18.78c6.45,11.69,12.89,23.37,19.34,35.06c3.76,6.82,7.52,13.64,11.28,20.45
					c0.31,0.55,1.51,3.2,2.62,5.74c0.15,0.35,0.3,0.69,0.45,1.03c-0.13-0.34-0.25-0.69-0.37-1.03
					C182.38,128.68,180.82,121.49,180.2,114.23z"/>
				<path class="st17" d="M140.74,33.97c0.91-0.52,1.36-1.47,1.42-2.49c-0.58,0.46-1.15,0.94-1.69,1.48L140.74,33.97z"/>
				<path class="st17" d="M143.98,20.12c2.21,0.7,4.54,1,6.85,0.87c-3.38,2.83-7.23,5.11-11.35,6.7c1.76,0.21,2.77,2.09,2.67,3.8
					c6.73-5.28,16.5-5.35,25.26-5.02c-3.31-0.8-6.61-1.61-9.92-2.41c3.49-2.63,7.46-4.61,11.66-5.79
					C160.76,17.09,152.12,17.73,143.98,20.12z"/>
				<path class="st17" d="M87.14,36.27c0.8,3.22-7.61,3.11-6.27,6.15c0.32,0.72,1.14,1.06,1.88,1.32c2.11,0.75,4.21,1.5,6.32,2.25
					c1.35-0.36,2.7-0.74,4.04-1.14c-3.73-0.53-7.46-1.06-11.19-1.59c6.45-5.67,15.48-7.02,23.93-8.54c1.33-0.24,2.68-0.51,4.03-0.8
					c1.39-2.32,2.22-4.92,2.13-7.63c-6.63,2.77-13.26,5.53-19.89,8.3c0.65-2.16,1.79-4.16,3.28-5.86
					c-3.99,2.91-8.22,5.49-12.62,7.74C84.24,36.4,85.69,36.34,87.14,36.27z"/>
				<path class="st17" d="M112.61,53.94c1.27,0.31,2.53,0.62,3.79,0.95l-3.83-0.93c-0.67,0.27-1.33,0.54-2,0.78
					c-0.92,1.16-1.84,2.33-2.76,3.49c-0.4,0.51-0.82,1.06-0.85,1.71c-0.04,1.04,0.78,1.6,1.81,2.05c-0.53-0.51-1.06-1.02-1.58-1.54
					c12.32,0.86,24.87-2.05,35.56-8.23c-7.64-0.1-15.29-0.19-22.93-0.29c-1.44,0.33-2.89,0.59-4.36,0.77
					C114.54,53.13,113.58,53.54,112.61,53.94z"/>
				<path class="st17" d="M96.12,28.19c0.86-0.64,1.7-1.29,2.53-1.95c0.5-0.4,1.01-0.8,1.5-1.21c-0.6,0.3-1.17,0.65-1.73,1.03
					c-0.94,0.63-1.8,1.37-2.58,2.19c-0.15,0.16-0.3,0.32-0.45,0.48C95.65,28.56,95.88,28.37,96.12,28.19z"/>
				<path class="st17" d="M118.39,82.13c-1.49-2.29-3.28-4.38-5.3-6.23c-1.37-0.3-2.77-0.56-4.19-0.78
					C112.23,77.22,115.41,79.56,118.39,82.13z"/>
				<path class="st17" d="M125.87,47.67c-0.64,0.3-1.48,0.72-2.47,1.21c0,0.17,0,0.33,0,0.5C124.22,48.81,125.05,48.24,125.87,47.67
					z"/>
				<path class="st17" d="M110.39,71.47c4-0.1,8,0.17,11.95,0.81c-3.53-2.12-6.89-4.53-10.05-7.18
					C110.28,66.33,109.72,69.06,110.39,71.47z"/>
				<path class="st17" d="M34.96,68.33c0.77,0.22,1.54,0.37,2.31,0.48c0.71-0.58,1.41-1.17,2.08-1.81c-2.47-0.12-4.93-0.3-7.4-0.51
					C32.6,67.42,33.81,68.01,34.96,68.33z"/>
				<path class="st17" d="M106.26,46.72c0.89,0.06,1.78,0.11,2.67,0.17c1.49-0.47,2.71-0.9,3.37-1.31
					c-1.66-0.04-3.51-0.13-5.44-0.23c-1.03,0.37-2.08,0.71-3.14,1.01C104.57,46.48,105.42,46.6,106.26,46.72z"/>
				<path class="st17" d="M77.6,63.77c2.28,0.3,4.55,0.72,6.79,1.23c0.67,0.07,1.34,0.14,2.01,0.22c-0.2,0.04-0.39,0.07-0.59,0.11
					c1.54,0.38,3.06,0.81,4.57,1.28c1.94-0.06,3.9,0.2,5.83-0.02c2.23-0.26,4.59-1.41,5.28-3.55c-7.6-0.1-15.21-0.2-22.81-0.31
					C78.3,63.06,77.94,63.39,77.6,63.77z"/>
				<path class="st17" d="M69.11,47.89c-1.24,0.29-2.51,0.4-3.78,0.37c0.01,0.03,0.02,0.06,0.03,0.1c1.06,0.05,2.11,0.09,3.17,0.14
					C68.73,48.29,68.93,48.1,69.11,47.89z"/>
				<path class="st17" d="M105.14,48.04c1.16-0.36,2.3-0.69,3.33-1.01c-0.74-0.1-1.47-0.21-2.21-0.31c-1.03-0.07-2.05-0.13-3.08-0.2
					c0.18-0.05,0.36-0.11,0.54-0.16c-2.78-0.39-5.57-0.79-8.35-1.18C93.13,45.29,91,45.54,89.1,46c1.03,0.37,2.07,0.74,3.1,1.11
					c-5.71-0.95-11.14,2.35-16.3,4.96c-1.43,0.72-2.97,1.39-4.54,1.91c0.51,0.12,1.03,0.19,1.57,0.2c-2.72,2.33-5.46,4.66-8.36,6.74
					c1.43-0.45,2.88-0.81,4.33-1.11c-0.07-0.21-0.12-0.42-0.14-0.65c10.19-0.67,20.21-3.54,29.24-8.31
					c-1.47-0.27-2.94-0.52-4.41-0.76c-1.61,0-3.22,0.01-4.83,0.02c-2.84,0.11-5.67,0.13-8.51,0.03c2.84-0.02,5.67-0.02,8.51-0.03
					c1.22-0.05,2.45-0.12,3.67-0.21c-2.57-0.41-5.15-0.78-7.74-1.11C91.51,48.54,98.33,48.29,105.14,48.04z"/>
				<path class="st5" d="M58.24,68.81c9.13-1.56,18.49-1.67,27.57-3.48c0.2-0.04,0.39-0.07,0.59-0.11
					c-0.67-0.08-1.34-0.14-2.01-0.22c-7.96-0.86-15.97-1.32-23.98-1.38c-0.64,0.37-1.29,0.72-1.95,1.05
					c-5.34,2.69-11.57,4.06-17.35,2.54c5.5-3.09,10.99-6.18,16.49-9.27c-3.73,0.54-7.54,0.47-11.26-0.15
					c-4.46,1.78-8.93,3.01-13.49,1.9c2.75-0.94,5.58-1.95,8.28-3.17c-1.95-0.62-3.85-1.39-5.67-2.32c-3.31,0.58-6.31,0.94-8.26,1.16
					c0.94,0.13,1.86,0.25,2.76,0.35c2.12,0.24,4.19,0.35,6.45,0.03c-3.48,0.93-7.08,2.29-10.72,2.88c-1.14,0.18-2.28,0.3-3.43,0.29
					c-5.44-0.03-9.17-2.96-15.07-1.26c0.2,0.49,0.44,0.95,0.7,1.38c0.92,1.49,2.21,2.61,3.7,3.48c2.81,1.63,6.36,2.35,9.61,2.8
					c3.57,0.49,7.14,0.88,10.73,1.18c2.46,0.21,4.93,0.39,7.4,0.51c-0.67,0.63-1.36,1.23-2.08,1.81c-5.5,4.45-12.38,7.17-19.43,7.72
					c-0.62,0.05-1.24,0.08-1.86,0.1c-0.94,0.02-1.87,0.02-2.81-0.04c-2.01-0.12-4.88,0.56-5.03,2.2c-0.02,0.22,0,0.46,0.09,0.72
					c2.24,0.13,4.45-0.02,6.64-0.38c7.44-1.22,14.55-4.9,21.3-8.52c-1.87,2.38-3.75,4.76-5.62,7.14c-2.9,3.68-5.79,7.35-8.69,11.03
					c2.75,0.53,5.06-0.95,7.13-3c1.5-1.48,2.88-3.26,4.21-4.8C39.4,73.82,48.91,70.4,58.24,68.81z"/>
				<path class="st5" d="M51.58,48.52c0.19-0.05,0.37-0.1,0.55-0.15c0.2-0.27,0.4-0.55,0.58-0.83c-0.03-0.01-0.07-0.01-0.1-0.02
					C52.31,47.86,51.96,48.2,51.58,48.52z"/>
				<path class="st5" d="M115.48,52.71c1.46-0.19,2.92-0.44,4.36-0.77c1.2-0.28,2.38-0.61,3.55-0.99c0-0.52,0.01-1.05,0.01-1.57
					c0-0.17,0-0.33,0-0.5c0-0.35,0-0.71,0.01-1.06c-2.34-0.15-4.67-0.3-7.01-0.45c-1.48,1.88-2.97,3.76-4.45,5.63
					C113.13,52.96,114.31,52.85,115.48,52.71z"/>
				<path class="st5" d="M99.5,50.07c-1.97,0-3.94,0.01-5.91,0.02c1.47,0.24,2.94,0.5,4.41,0.76C98.5,50.59,99.01,50.35,99.5,50.07z
					"/>
				<path class="st5" d="M116.4,54.89c-1.26-0.33-2.53-0.64-3.79-0.95c-0.39-0.1-0.79-0.18-1.18-0.28c0,0-0.01,0.01-0.01,0.01
					l1.15,0.28L116.4,54.89z"/>
				<path class="st5" d="M81.93,43.27c3.73,0.53,7.46,1.06,11.19,1.59c0.75,0.11,1.51,0.21,2.26,0.32c2.78,0.39,5.57,0.79,8.35,1.18
					c1.06-0.3,2.1-0.64,3.14-1.01c11.23-4.04,20.89-12.4,26.36-23.03c-1.12-1.56-3.41,0.23-4.58,1.75
					c-4.43,5.71-11.57,8.27-18.75,9.85c-1.35,0.3-2.7,0.56-4.03,0.8C97.41,36.25,88.37,37.6,81.93,43.27z"/>
				<path class="st5" d="M84.7,48.79c2.58,0.33,5.16,0.7,7.74,1.11c4.82-0.34,9.61-0.98,14.35-1.92c-0.55,0.02-1.1,0.04-1.65,0.06
					C98.33,48.29,91.51,48.54,84.7,48.79z"/>
				<path class="st5" d="M108.47,47.03c0.56,0.08,1.11,0.16,1.67,0.24c0.33-0.08,0.66-0.16,0.99-0.24c-0.73-0.05-1.47-0.09-2.2-0.14
					c-0.89-0.06-1.78-0.11-2.67-0.17C107,46.82,107.74,46.93,108.47,47.03z"/>
				<path class="st5" d="M106.26,46.72c-0.85-0.12-1.69-0.24-2.54-0.36c-0.18,0.05-0.36,0.11-0.54,0.16
					C104.21,46.59,105.24,46.65,106.26,46.72z"/>
				<path class="st5" d="M300.92,76.82c-9.1-11.3-19.34-23.32-33.54-26.29c10.84,8.71,19.08,20.62,23.4,33.84
					c-10.14,1.21-18.75-6.9-25.71-14.37c-0.05,9.16,7.25,17.81,16.29,19.29c-5.25,1.77-11.18,1.47-16.22-0.82
					c1.49,9.5,16.31,9.36,21.94,17.16c1.71,2.36,2.41,5.28,3.07,8.12c2.04,8.71,4.08,17.42,6.13,26.13
					c0.69-8.83,1.38-17.66,2.08-26.5c2.2,5.34,4.39,10.68,6.59,16.03c0.18-6.44,1.3-12.86,3.34-18.97c1.75,4.34,3.5,8.69,5.25,13.03
					c0.02-7.3,1.54-14.59,4.45-21.29c1.46,2.77,2.92,5.54,4.37,8.3c-1.77-3.35-0.43-10.95,0.19-17.81c0.34-3.82,0.47-7.41-0.29-9.93
					c-0.66,1.25-1.33,2.09-1.9,2.96c-0.58,0.9-1.06,1.84-1.31,3.31c0.22-9.4-6.17-18.29-11.5-25.6c-2.54-3.47-5.08-6.96-7.78-10.31
					c-2.77-3.45-5.7-6.77-8.94-9.79c-4.75-4.42-10.07-8.13-15.62-11.51c-3.52-2.14-7.14-4.15-10.76-6.12
					C280.09,40.15,296.55,55.99,300.92,76.82z"/>
				<path class="st5" d="M290.19,177.22c1.4,0.55,2.28-1.55,2.22-2.98c-0.15-3.71-0.3-7.42-0.45-11.12
					c-3.28-2.21-6.56-4.42-9.84-6.62C284.81,163.41,287.5,170.32,290.19,177.22z"/>
				<path class="st5" d="M282.49,141.57c-2.86-2.48-6.67-3.81-10.45-3.75c0.79,1.05,1.55,2.12,2.28,3.21
					c7.21,5.5,13.25,12.53,17.57,20.51c-0.09-2.18-0.18-4.37-0.27-6.55c2.45,10.79,7.56,20.96,14.83,29.53
					c-2.55-11.35-5.11-22.7-7.66-34.04c7.38,0.19,8.45,12.29,15.82,12.59c-2.82-11.7-7.23-23.01-13.08-33.6
					c-1.04,5-2.09,10-3.13,14.99c-0.39,1.86-1.57,4.27-3.55,3.93c-1.08-0.19-1.72-1.17-2.23-2.06c-4.61-8.06-9.22-16.12-13.83-24.18
					c0.3,3.52,0.6,7.03,0.89,10.55c-4.8-3.59-9.21-7.62-13.17-12c-0.53,1.96,0.27,4.18,1.34,5.79c-1.33,0.49-2.72,1.48-3.96,1.91
					c0.43,0.44,0.85,0.87,1.26,1.31C272.18,131.16,278.6,135.52,282.49,141.57z"/>
				<path class="st18" d="M114.45,76.23c1.44,0.79,3.05,1.26,4.66,1.33C117.6,77.05,116.04,76.62,114.45,76.23z"/>
				<path class="st18" d="M108.9,75.12c1.42,0.22,2.81,0.48,4.19,0.78c0.46,0.1,0.91,0.22,1.36,0.33c-0.99-0.55-1.91-1.25-2.67-2.12
					c-0.66-0.74-1.12-1.67-1.39-2.65c-0.66-2.41-0.11-5.14,1.9-6.37c0.16-0.1,0.33-0.19,0.5-0.27c-0.05-1.69-2.31-2.12-4-2.85
					c-1.04-0.45-1.86-1.01-1.81-2.05c0.03-0.65,0.45-1.2,0.85-1.71c0.92-1.16,1.84-2.33,2.76-3.49c0.28-0.36,0.56-0.71,0.84-1.07
					c0,0,0.01-0.01,0.01-0.01c0.17-0.22,0.35-0.44,0.52-0.66c1.48-1.88,2.97-3.76,4.45-5.63c0.59-0.74,1.17-1.48,1.76-2.22
					c-2.32,0.71-4.66,1.32-7.02,1.88c-0.33,0.08-0.66,0.16-0.99,0.24c-1.12,0.26-2.24,0.49-3.36,0.71
					c-4.74,0.94-9.53,1.58-14.35,1.92c-1.22,0.09-2.45,0.16-3.67,0.21c1.61-0.01,3.22-0.01,4.83-0.02c1.97-0.01,3.94-0.02,5.91-0.02
					c-0.49,0.27-1,0.52-1.5,0.78c-9.03,4.76-19.06,7.63-29.24,8.31c0.02,0.23,0.08,0.45,0.14,0.65c0.73,2.2,3.94,2.85,6.45,2.88
					c1.11,0.01,2.21,0.03,3.32,0.04c7.6,0.1,15.21,0.2,22.81,0.31c-0.69,2.13-3.05,3.29-5.28,3.55c-1.93,0.22-3.89-0.04-5.83,0.02
					c-0.3,0.01-0.59,0.03-0.89,0.05c-2.94,0.28-5.66,1.58-8.32,2.86c-2.89,1.39-5.78,2.78-8.66,4.17c-2.9,1.39-5.79,2.79-8.69,4.18
					c6.81-1.47,14.44-2.72,22.21-3.32C93.75,73.96,101.59,74,108.9,75.12z"/>
				<path class="st18" d="M88.77,50.11c-2.84,0.01-5.67,0.01-8.51,0.03C83.09,50.24,85.93,50.22,88.77,50.11z"/>
				<path class="st19" d="M59,41.35c3.78,0.81,7.65,1.19,11.52,1.11c-1.01-0.48-2.01-0.98-3-1.49C64.83,40.9,61.96,41.08,59,41.35z"
					/>
				<path class="st19" d="M41.13,56.52c1.7,0.54,3.44,0.97,5.21,1.27c3.72,0.62,7.52,0.69,11.26,0.15
					c-5.5,3.09-10.99,6.18-16.49,9.27c5.78,1.52,12.01,0.15,17.35-2.54c0.66-0.33,1.31-0.68,1.95-1.05c1.43-0.83,2.81-1.74,4.16-2.7
					c2.91-2.08,5.65-4.41,8.36-6.74c-0.54-0.01-1.07-0.09-1.57-0.2c-4.11,1.36-8.49,1.71-11.91-0.71c2.48-0.41,4.84-1.42,6.88-2.89
					c-0.41-0.63-0.74-1.31-0.97-2.03c-0.01-0.03-0.02-0.06-0.03-0.1c-4.82-0.12-9.59-2.48-12.61-6.24
					c-0.24,0.03-0.48,0.05-0.71,0.08c-9.11,1.01-18.3,1.83-24.86-1.69c6.62,3.55,14.02,5.21,21.46,6.46c1.33,0.22,2.67,0.44,4,0.64
					c0.03,0.01,0.07,0.01,0.1,0.02c0.52,0.08,1.04,0.16,1.57,0.24c-0.71,0.22-1.43,0.4-2.15,0.59c-0.19,0.05-0.37,0.11-0.55,0.15
					c-4,1.02-8.1,1.62-12.23,1.82c-3.46,0.17-6.94,0.06-10.38-0.36c2,1.64,4.18,3.05,6.49,4.23C37.28,55.13,39.18,55.9,41.13,56.52z
					"/>
				<path class="st5" d="M186.81,154.85c0.3,0.04,0.61,0.08,0.92,0.12c-0.89-2.08-1.97-4.02-3.61-5.45
					c-0.6-0.52-1.26-0.95-1.95-1.33c-1.98,0.2-3.96,0.4-5.94,0.61C177.37,152.97,182.52,154.32,186.81,154.85z"/>
				<path class="st5" d="M247.13,145.48c-0.62-2.08-0.6-4.54-2.16-6.05c-1.41-1.37-3.58-1.45-5.55-1.44
					c-4.48,0.01-8.96,0.02-13.44,0.03c6.64,1.14,13.12,3.2,19.18,6.15c-3.88-0.91-7.04,1.55-10.24,4.3
					c0.31-0.03,0.61-0.06,0.92-0.07l-1.58,0.64c-2.73,2.36-5.54,4.77-8.89,5.31c-2.1,0.34-4.5-0.02-6.12,1.35
					c-0.81,0.68-1.25,1.67-1.69,2.66c0.12-0.1,0.24-0.2,0.36-0.3c2.2,0.86,4.49,1.52,6.82,1.95c2.24,0.41,4.51,0.61,6.77,0.56
					c0.28-0.01,0.55-0.01,0.83-0.03c0.67-0.03,1.33-0.09,2-0.16c0.69-0.08,1.38-0.19,2.06-0.32c0.72-0.14,1.45-0.29,2.16-0.49
					c0.1-0.03,0.2-0.05,0.3-0.08c2.6-0.69,5.95-1.29,7.14,1.06c0.06-0.42,0.14-0.84,0.22-1.25c0.39-2.03,1.08-3.99,2.03-5.83
					c0.96-1.86,2.17-3.59,3.63-5.1C250.11,149.63,247.75,147.56,247.13,145.48z"/>
				<path class="st5" d="M208.8,166.11c0.16,1.07,0.36,2.13,0.6,3.19c0.08-0.28,0.18-0.56,0.28-0.83c0.42-1.17,0.96-2.27,1.62-3.32
					C210.5,165.55,209.67,165.88,208.8,166.11z"/>
				<path class="st5" d="M186.28,139.17c3.78-0.26,7.55-0.67,11.32-1.08c-3.93,0.01-7.86,0.02-11.78,0.03c-0.02,0-0.05,0-0.07,0
					c-0.15,0-0.29,0-0.44,0c0.25,0.29,0.52,0.56,0.78,0.84c0.04,0.05,0.09,0.1,0.13,0.14C186.24,139.13,186.26,139.15,186.28,139.17
					z"/>
				<path class="st20" d="M211.3,165.15c2.53-1.28,4.66-3.37,5.87-5.93c0.13-0.28,0.26-0.57,0.39-0.86
					c0.43-0.99,0.87-1.97,1.69-2.66c1.62-1.37,4.02-1.01,6.12-1.35c3.35-0.54,6.16-2.95,8.89-5.31c0.22-0.19,0.44-0.38,0.66-0.57
					c3.2-2.75,6.36-5.21,10.24-4.3c-6.06-2.95-12.54-5-19.18-6.15c-3.36-0.58-6.76-0.94-10.16-1.03c-6.09-0.17-12.15,0.45-18.22,1.1
					c-3.77,0.41-7.54,0.82-11.32,1.08c-0.01,0-0.02,0-0.03,0c-0.02,0-0.05,0-0.07,0.01c-0.42,0.03-0.84,0.07-1.26,0.09
					c-9.76,0.58-20.01-0.2-28.55-4.86c-0.48-0.26-0.97-0.54-1.44-0.83c0.01,4.82,4.16,8.73,8.66,10.47c0.8,0.31,1.66,0.55,2.55,0.75
					c5.16,1.17,11.49,0.9,16.04,3.38c0.69,0.38,1.35,0.81,1.95,1.33c1.65,1.43,2.72,3.37,3.61,5.45c0.25,0.57,0.48,1.15,0.71,1.74
					c0.94,2.44,1.79,4.93,3.13,6.92c0.76-1.39,2.38-2.52,3.18-3.81c0.01-0.02,0.02-0.03,0.03-0.05c1.15,1.72,1.98,3.56,2.85,5.44
					c0.17,0.36,0.33,0.72,0.5,1.08c0.25-0.46,0.43-0.96,0.55-1.47c0.19-0.77,0.25-1.58,0.13-2.37c2.39-0.3,4.86,0.74,6.42,2.56
					c0.4,0.46,0.75,0.95,1.01,1.5c0.87-0.04,1.73-0.18,2.56-0.41C209.67,165.88,210.5,165.55,211.3,165.15z"/>
				<path class="st5" d="M368.33,341.58c0.07-0.02,0.15-0.03,0.22-0.04c0.59-0.12,1.16-0.27,1.74-0.42
					c0.13-0.03,0.26-0.07,0.39-0.11c0.32-0.09,0.64-0.16,0.96-0.26c0-0.01-0.01-0.02-0.01-0.03c-1.33-3.16-2.36-6.45-3.03-9.81
					c-0.81,3.1-1.13,6.33-0.94,9.52c-3.48-1.43-5.83-4.66-7.99-7.74c1.03,3.18,1.78,6.45,2.25,9.76c0,0,0,0.01,0,0.01
					c0.11-0.01,0.21-0.02,0.32-0.03c0.13-0.01,0.26-0.03,0.39-0.04C364.56,342.21,366.46,341.96,368.33,341.58z"/>
				<path class="st17" d="M356.92,324.77c1.12-2.07,2.82-3.98,2.95-6.33c0.08-1.46-0.48-2.88-1.03-4.24
					c-4.73-11.72-9.46-23.44-14.19-35.16c-0.48,2.67,0.09,5.53,1.57,7.8c-4.92-3.06-9.16-7.2-12.34-12.05
					c0.61,3.17,1.87,6.21,3.69,8.88c-2.88-1.34-5.77-2.67-8.65-4.01l15.04,21.1c-0.2-1.98-0.39-3.96-0.59-5.93
					c5.58,6.93,8.05,16.27,6.62,25.05c-1.31-1.18-2.22-2.8-2.54-4.53c-0.55,3.28-0.26,6.7,0.84,9.85c-0.72,2.08,1.39,4,1.22,6.2
					c-0.17,2.19-3.1,4.32-4.38,2.53c-0.5,2.72-1.12,5.7-1.78,8.8c0,0.01,0,0.02-0.01,0.03c3.91,0.49,8.08,0.16,11.83,0
					c0.07,0,0.14-0.01,0.21-0.01C355.13,336.53,354.02,330.16,356.92,324.77z"/>
				<path class="st17" d="M279.49,154.73c0.87,0.59,1.75,1.18,2.62,1.76c3.28,2.21,6.56,4.42,9.84,6.62
					c0.39,0.26,0.77,0.52,1.16,0.78c-0.39-0.8-0.8-1.58-1.22-2.37c-4.32-7.97-10.36-15.01-17.57-20.51
					c-1.41-1.08-2.86-2.1-4.36-3.05c0.69-0.11,1.38-0.15,2.08-0.16c3.78-0.06,7.59,1.27,10.45,3.75
					c-3.89-6.05-10.31-10.4-17.35-11.85c-0.55-0.11-1.11-0.22-1.67-0.29c0.26,1.62,0.96,3.17,1.99,4.44
					c-0.66-0.82-5.6-0.08-8.07,0.34c-0.57,0.1-1.01,0.18-1.23,0.22c0.01,0.06,0.03,0.13,0.04,0.19c0.58,3.59,2.7,7.36,5.58,11.15
					c6.25,8.24,16.04,16.62,21.26,23.6c0.41,0.55,0.8,1.09,1.15,1.62C283.22,165.42,281.64,159.96,279.49,154.73z"/>
				<path class="st18" d="M65.33,48.26c1.27,0.03,2.53-0.08,3.78-0.37c-0.18,0.21-0.38,0.41-0.58,0.61c-0.68,0.7-1.41,1.33-2.2,1.89
					c-2.04,1.46-4.4,2.47-6.88,2.89c3.42,2.41,7.8,2.07,11.91,0.71c1.57-0.52,3.11-1.19,4.54-1.91c5.17-2.61,10.59-5.91,16.3-4.96
					c-1.03-0.37-2.07-0.74-3.1-1.11c-0.01,0-0.02-0.01-0.03-0.01c-2.11-0.75-4.21-1.5-6.32-2.25c-0.74-0.27-1.56-0.6-1.88-1.32
					c-1.34-3.04,7.07-2.92,6.27-6.15c-1.45,0.07-2.91,0.13-4.36,0.2c-6.09,0.27-12.17,0.55-18.26,0.82c-1.1,0.05-2.2,0.1-3.3,0.15
					c0.36,0.22,0.73,0.42,1.09,0.64c1.71,1.02,3.44,1.99,5.2,2.9c0.99,0.51,1.99,1.01,3,1.49c-3.87,0.07-7.74-0.3-11.52-1.11
					c-1.08-0.23-2.14-0.5-3.2-0.8c-1.71-0.49-3.4-1.05-5.05-1.72c0.49,1.09,1.12,2.09,1.85,3.02c0.04,0.05,0.08,0.11,0.13,0.16
					C55.75,45.78,60.51,48.14,65.33,48.26z"/>
			</g>
		</g>
	</g>
</g>
<path class="st17" d="M343.63,341.52c-0.32,3.08,0.68,6.13,1.66,9.07c0.21-0.72,0.61-1.39,1.15-1.91c0.29,0.22,0.58,0.45,0.87,0.67
	c0.11,0.09,0.24,0.18,0.38,0.15c0.23-0.04,0.29-0.34,0.32-0.58c0.15-1.49,1.05-2.88,2.35-3.63c0.66,1.04,1.32,2.08,1.99,3.12
	c0.33,0.52,0.67,1.05,1.17,1.4c0.2,0.14,0.48,0.25,0.68,0.11c0.18-0.12,0.21-0.37,0.22-0.58c0.17-2.95,0.52-5.89,1.05-8.8
	c-2.34-0.38-4.85-1.09-7.18-0.63c-1.5,0.3-2.92,0.9-4.33,1.5C343.76,341.5,343.79,341.33,343.63,341.52z"/>
</svg>
