<!-- Generator: Adobe Illustrator 23.0.4, SVG Export Plug-In  -->
<svg version="1.1" xmlns="http://www.w3.org/2000/svg" xmlns:xlink="http://www.w3.org/1999/xlink" x="0px" y="0px"
	 width="483.87px" height="428.25px" viewBox="0 0 483.87 428.25" style="enable-background:new 0 0 483.87 428.25;"
	 xml:space="preserve">
<style type="text/css">
	.st0{fill:#F4E4E9;fill-opacity:0.5;}
	.st1{opacity:0.8;fill:#FC7070;}
	.st2{fill:#472A2A;}
	.st3{opacity:0.3;fill:#352626;}
	.st4{fill:#0A0404;fill-opacity:0.5;}
	.st5{fill:#F99187;fill-opacity:0.5;}
	.st6{fill:#EC7152;fill-opacity:0.5;}
	.st7{opacity:0.8;fill:#F8F6EE;}
	.st8{opacity:0.8;fill:#FCF0F0;}
	.st9{opacity:0.4;fill:#776D71;}
	.st10{opacity:0.3;fill:#776D71;}
	.st11{fill:#EDB4B4;}
	.st12{fill:#776D71;fill-opacity:0.5;}
	.st13{opacity:0.3;fill:#FCF1ED;}
	.st14{fill:#352626;}
	.st15{fill:#F4EAEA;}
	.st16{fill:#F99187;}
	.st17{opacity:0.7;fill:#F99187;}
	.st18{fill:#E5BDBD;}
	.st19{fill:none;stroke:#000000;stroke-width:0.5;stroke-miterlimit:10;}
</style>
<defs>
</defs>
<path class="st0" d="M266.23,164.18c3.73,7.92,7.48,16.14,7.74,24.9c0.19,6.5-1.58,12.9-3.78,19.02
	c-8.57,23.81-23.88,45.09-29.62,69.73c-0.8-1.64-1.13-3.5-0.95-5.31c-1.53,3.75-3.06,7.5-4.59,11.25
	c-1.27-8.12-0.22-16.59,2.99-24.16c2.47-5.82,6.15-11.03,9.1-16.62c5.55-10.5,8.46-22.17,11.09-33.76
	c1.69-7.45,3.3-14.96,3.67-22.59c0.46-9.74-1.15-19.59-4.68-28.68c-1.23-3.17-4.07-8.29,1.49-5.65
	C262.17,153.97,264.7,160.92,266.23,164.18z"/>
<path class="st1" d="M250.43,229.65c4.85-6.28,7.91-13.94,8.71-21.84c1.24,2.9,1.69,6.13,1.29,9.26c1.42-2.56,2.47-5.31,3.12-8.17
	c0.03,1.26,0.06,2.52,0.09,3.78c0.62-0.29,1.1-0.88,1.25-1.55c0.03,0.81,0.05,1.63,0.08,2.44c1.32-1.67,2.64-3.33,3.97-5
	c-3.51,7.4-7.02,14.79-10.53,22.19c0.54-0.7,1.09-1.39,1.63-2.09c-0.15,0.15,1.03-0.15,0.88,0c-1.63,1.63-1.64,3.68-2.65,5.76
	c-1.48,3.06-2.17,6.15-3.37,9.33c-0.15-2.09-0.26-4.18-0.34-6.28c-0.72,1.34-1.66,2.57-2.78,3.61c0.21-0.74,0.16-1.56-0.12-2.27
	c-0.77,1.75-2.45,3.05-4.33,3.37C249.82,238.15,250.37,234.39,250.43,229.65z"/>
<path class="st0" d="M192.72,178.18c-4.13,8.25-6.05,17.46-6.79,26.65c-0.87,10.83-0.1,21.98,4,32.04c1.74,4.28,4.06,8.3,6.1,12.45
	c5.46,11.06,8.99,23.07,10.39,35.33c0.53-2,1.06-4,1.59-6.01c0.55,2.17,1.09,4.34,1.64,6.51c1.1-3.47,1.53-7.15,1.24-10.79
	c0.57,1.57,1.14,3.14,1.71,4.71c1.02-9.44-1.78-18.82-4.02-28.05c-3.93-16.16-6.12-32.83-5.75-49.48c0.18-8.25,1-16.5,2.59-24.61
	c1.3-6.68,6.22-15.67,5.8-22.16C203.87,161.16,197.08,169.47,192.72,178.18z"/>
<path class="st2" d="M204.15,281.43c0.04,2.25,0.01,4.59,0.94,6.64c0.42-2.38,0.84-4.76,1.26-7.14c0.37,2.46,0.75,4.92,1.12,7.38
	c0.15-2.94,0.43-5.87,0.85-8.79c0.62,3.14,1.24,6.29,1.87,9.43c2.91-17.08-3.86-34.37-12.62-49.33c0.54,2.38,1.09,4.77,1.63,7.15
	c-1.75-1.16-3.15-2.83-4-4.75c0.62,1.57,1.23,3.14,1.85,4.71c-0.67-0.61-1.34-1.22-2.02-1.82
	C199.77,256.78,204.15,268.32,204.15,281.43z"/>
<path class="st1" d="M195.3,248.68c-0.07-1.81-0.15-3.61-0.22-5.42c0.79,1.42,1.77,2.73,2.91,3.89c0.3-1.22,0.21-2.53-0.26-3.7
	c1.08,1.54,2,3.19,2.74,4.92c-0.46-3.26-1.95-6.26-3.17-9.31c-2.36-5.94-3.72-12.27-4.01-18.66c-1.72,2.31-2.54,5.27-2.25,8.13
	c-0.83-2.19-1.66-4.39-2.49-6.58c-0.08,2.27-0.11,4.54-0.28,6.8c-0.33-0.23-0.46-0.55-0.75-0.84
	C187.5,235.23,195.01,241.76,195.3,248.68z"/>
<path class="st2" d="M242.61,268.33c0.58-2.14,1.16-4.28,1.74-6.42c0.07,1.42,0.15,2.83,0.22,4.24c0.23-1.91,0.71-3.8,1.44-5.59
	c0.22,0.55,0.65,1.01,1.18,1.27c-0.09-5.48,3.65-10.15,5.95-15.12c1.9-4.11,2.85-8.59,3.79-13.02c-1.29,3.76-3.04,7.38-5.23,10.69
	c0.08-1.11-0.53-2.5-0.61-3.26C246.15,249.7,245.13,259.02,242.61,268.33z"/>
<path class="st0" d="M2.48,170.37c18.35,3.95,36.27,5.75,54.49,0.89c4.32-1.15,7.34-3.89,11.51-5.06
	c9.46-2.64,18.83-4.41,27.88-8.45c2.93-1.31,5.05-4.47,8.32-5.32c6.93-1.8,13.32-0.45,19.58,2.71c6.26,3.16,11.73,8.34,18.1,10.69
	c6.73,2.48,13.29,3.18,20.07,2.95c9.13-0.31,15.05-2.01,24.14-4.84c3.98-1.24,5.05-3.1,11.26-4.81
	c20.99-5.76,46.94-10.98,69.09-3.44c3.84,5.29,8.17,10.61,14.48,12.32c6.31,1.72,11.33,1.68,17.5,0.21
	c16.78-4.01,31.91-11.28,47.37-18.91c7.43-3.67,15.28-6.56,23.32-4.24c11.18,3.22,21.81,3.94,32.92,5.45
	c11.82,1.6,21.78,5.78,33.29,8.96c5.02,1.39,10.19,3.06,15.93,2.84c8.91-0.34,18.17-3.31,26.86-5.77c0.1,1.72-0.25,3.3-1.65,4.41
	c-1.39,1.11-3.01,1.5-4.66,1.92c-4.38,1.1-8.76,1.98-13.13,3.03c3.7,1.99,7.2,2.54,11.34,2.05c4.14-0.49,7.83-0.74,11.89,0.21
	c-8.24,1.67-16.45,2.69-24.85,3.06c7.04,3,14.15,5.23,21.64,6.77c-4.94,0.39-9.87,0.78-14.81,1.17c1.68,1.28,3.42,2.42,5.26,3.45
	c-3.16,0.99-6.04,1.18-9.31,0.67c-0.49,2.23-1.79,3.97-3.74,4.95c-1.95,0.98-3.99,1.22-5.74,2.21s-2.99,2.51-4.52,3.56
	c-1.53,1.05-3.13,1.75-4.74,2.37c-3.65,1.41-7.45,2.86-10.98,4.23c-5.17,2.01-10.06,4.06-15.31,5.57c-4.09,1.18-8,1.19-12.17,0.86
	c-0.78-0.06-1.54-0.38-2.28-0.21c-0.74,0.18-1.07,0.76-1.75,1c-1.71,0.61-3.01,0.26-4.56-0.6c-1.27,2.89-2.67,4.12-5.9,3.71
	c-1.19,3.3-2.64,4.6-6.18,3.75c-0.32,2.33-1.52,3.43-3.65,4.07c-1.12,0.33-2.03,0.43-3.06,0.63c-4.39,0.84-8.72,1.45-13.16,1.97
	c-0.32,2.42-1.72,3.78-3.9,4.5c-3.09,1.02-5.91,1.63-8.96,2.53c-0.76,0.76-1.59,1.34-2.59,1.76c-0.25-0.75-0.6-1.27-1.31-1.63
	c-1.72-0.87-2.28,0.57-3.16,1.94c-0.88,1.37-1.33,3.76-3.11,4.3c-2.97,0.89-5.85-0.62-8.87-0.11c-0.66,0.11-1.16,0.79-1.82,1.01
	c-0.66,0.21-1.38,0.22-2.08,0.25c-2.84,0.14-5.63,0.46-8.45,0.91c-8.16,1.28-16.36,2.38-24.57,3.31
	c-5.64,1.17-11.28,1.91-17.03,2.24c-0.04,1.55-0.08,3.1-0.14,4.65c-3.32,0.98-6.2,0.98-9.55,0.11c-0.21,2.81-1.48,4.32-4.19,5.08
	s-5.64,0.48-8.34,1.15c-2.17,0.54-4.08,1.67-6.07,2.54c-5.71,2.49-10.78,5.73-17.04,6.8c-6.25,1.07-12.39,0.2-18.31-2.01
	c-4.01-1.5-7.07-4.38-11.04-5.95c-2.85-1.13-6.07-1.58-8.91-2.79s-4.07-3.17-5-5.99c-1.18,2.11-3.07,3.04-5.19,1.46
	c-2.12-1.58-2.12-4.11-2.55-6.5c-1.55,0.72-2.64,1.72-4.49,1.66c-8.53-0.25-16.65-1.85-24.82-4.41c-0.44,3.03-2.61,3.91-5.36,3.35
	c-2.75-0.56-4.71-3.13-7.47-3.04c-4.52,0.15-8.23,2.64-12.78,2.41c-1.05-0.05-1.72-1-2.79-1.41c-1.07-0.41-2.35-0.67-3.58-0.98
	c-7.42-1.88-14.5-4.46-21.27-8.07c-1.84-0.98-3.46-1.84-5.54-2.01c-0.78-0.06-1.46,0.51-2.24,0.24c-1.65-0.58-2.42-1.87-3.26-3.33
	c-1.26,0.9-2.5,1.19-3.76,0.14c-1.26-1.05-1.54-2.61-2.21-4.04c-2.88,2.76-5.51,3.71-9.44,2.86c-0.97-0.21-1.57-0.9-2.58-0.79
	c-1.01,0.1-1.74,1.34-2.8,1.15c-2.38-0.42-2.96-3.52-5.15-4.11c-2.19-0.59-3.68,1.8-5.88,1.27c-1.05-0.25-1.27-1.77-2.26-2.14
	c-2.01-0.75-3.97,0.15-6.04-0.41c-1.03-0.28-1.44-1.57-2.27-2.27c-2.01-1.71-4.33-2.45-6.77-3.51c-5.61-2.41-10.5-5.52-15.11-9.65
	c-1.23-1.1-1.74-2.77-1.88-4.42c-3.1,1.36-6.03,2.02-9.42,1.95c1.45-3.41,3.41-5.54,6.67-7.26c-2.09,0.94-4.41,1.86-6.66,2.13
	c-2.25,0.27-5.05-0.19-4.83-2.87c0.22-2.68,2.86-2.62,5.01-3.14c5.01-1.22,9.53-3.25,13.81-6.17c-4.23,0.82-8.22,2.27-12.6,2.28
	c-4.38,0.02-7.98-1.66-11.65-3.93c6.62-0.63,13.26-1.2,19.88-1.74c-3.79-0.74-7.66-1.05-11.21-2.68
	C6.12,176.38,4.2,173.75,2.48,170.37z"/>
<path class="st1" d="M59.59,170.97c-19.02,5.64-38.15,3.41-57.5-0.63c7.15,5.26,14.09,7.61,22.93,8.26
	c-7.42,2.62-14.78,3.8-22.62,4.22c9.07,1.8,17.32,1.06,26.31-0.82c-0.47,2.3-1.35,3.95-3.54,5c-6.99,3.35-14.27,5.81-21.68,8.05
	c5.2-0.2,10.34-0.68,15.48-1.45c-1.95,1.83-4.02,3.33-6.36,4.61c2.89,0.68,5.73,0.95,8.71,1.04c0.6,3.2,2.53,5.47,5.09,7.17
	c2.56,1.7,4.98,3.1,7.49,4.53c4.7,2.68,9.37,4.98,14.21,7.23c0.92,0.43,1.87,0.64,2.79,0.73c0.92,0.09,1.71-0.39,2.54-0.08
	c1.7,0.63,2.74,2.2,4.53,2.63c1.05,0.25,1.87-0.64,2.95-0.66c1.08-0.02,1.95,0.59,3.03,0.91c5.58,1.62,10.29,1.22,15.74-0.81
	c-0.2,1.96,0.81,3.51,2.57,4.09c1.77,0.59,3.24,0.25,4.8,1.17c0.78,0.46,0.95,1.43,1.73,1.92c1.97,1.24,3.53,1.05,5.44-0.22
	c0.59,0.66,1.16,1.34,1.74,2.01c0.88-0.33,1.75-0.68,2.64-1c0.48,1.52,1.08,2.73,2.66,3.2c0.61,0.18,1.11-0.64,1.64-0.41
	c2.54,1.09,4.16,3.3,6.66,4.43c0.9-0.86,1.84-1.47,3.01-1.89c0.42,1.6,1.47,2.25,3,2.57c1.99,0.41,3.86,0.61,5.83,0.96
	c0.97,0.64,1.94,1.29,2.92,1.92c0.99-0.71,1.96-1.09,3.16-1.27c1.22,1.7,2.42,1.21,4.21,0.81c4.91-1.11,8.8-0.5,13.26,1.75
	c0.83,0.42,1.39,1.24,2.37,1.23c1.63-0.01,2.6-1.04,4.11-1.62s3.24-0.74,4.91-0.61c7.08,0.55,14.14,1.42,21.22,1.96
	c0.27-6.54-0.31-12.45-3.27-18.33c-1.33-2.65-4.05-4.01-5.81-6.19c-1.42-1.76-2.37-3.88-3.76-5.53
	c-6.41-7.62-13.76-14.18-21.98-19.51s-16.26-9.92-23.85-15.87c-3.38-2.65-6.28-5.27-10.54-6.05c-2.2-0.4-3.95,0.9-5.96,1.48
	c-4.49,1.29-8.88,2.46-13.55,2.78c-1.51,0.1-2.97,0.03-4.28-0.79c-2.62-1.64-4.56-4.19-7.46-5.37c-1.06-0.43-2.02,0.07-3.06,0.23
	C68.91,169.54,64.87,169.4,59.59,170.97z"/>
<path class="st1" d="M287.42,239.45c0.3-1.31,0.55-2.65,0.81-3.97c4.94-7.71,7.8-15.45,9.28-24.47c0.99,0.22,1.88,0.58,2.76,1.08
	c0.62-4.12,1.25-8.24,1.87-12.37c1.21,1.62,2.43,3.22,3.69,4.8c0.39-2.89,0.81-5.76,1.24-8.64c2.27-0.14,3.63-0.93,5.01-2.71
	c2.05,0.11,3.62-0.47,5.29-1.61c1.96-1.35,3.92-2.8,5.82-4.17c3.57-2.57,7.29-5.21,10.7-7.84c7.07-5.43,13.96-10.39,21.93-14.31
	c0.77-1,1.6-1.9,2.8-2.37c6.17-2.45,11.92-3.2,18.52-2.61c0.1-1.1,0.88-1.64,1.91-1.45s1.4,1.02,2.28,1.43
	c0.88,0.41,1.48,0.16,1.94-0.7c0.68,0.6,1.36,1.05,2.22,1.32c0.44-0.9,1.04-1.65,2.11-1.58c1.07,0.08,1.74,0.8,2.61,1.29
	c0.27-0.83,0.65-1.54,1.22-2.21c2.07,1.31,3.16,0.64,4.13-1.48c2.52,0.86,4.47,0.79,6.88-0.36c0.17-1.27,0.45-2.54,0.53-3.8
	c11.39,2.03,20.62,4.86,32.46,6.86c13.72,2.31,29.27,1.03,43.35-1.25c-0.62,1.55-1.74,2.73-3.34,3.29
	c-6.64,2.32-13.3,3.73-20.23,4.73c9.21,0.66,18.42,1.23,27.63,1.83c-9.42,3.26-18,4.05-27.85,2.58c2.41,1.43,4.92,2.4,7.67,2.9
	c5.97,1.08,11.92,2.01,17.89,3.05c-4.41,1.75-8.54,2.41-13.28,2.09c0.95,1.52,2.06,2.79,3.45,3.93c-4.23,0.29-7.78,1.36-11.25,3.79
	c-0.98,0.69-1.63,1.76-2.52,2.41c-1.16,0.85-2.49,1.65-3.67,2.24c-7.74,3.88-15.5,7.45-23.26,11.13c-1.04,0.49-1.97,0.81-3.04,0.94
	c-1.07,0.13-2-0.16-3.04,0.04c-1.04,0.2-1.87,1.09-2.85,1.39c-5.64,1.74-11.51,2.01-17.17,3.62c-1.61,0.46-2.99,1.54-4.64,0.73
	c-1.22-0.6-1.8-2.24-3.32-1.71c-0.66,0.23-0.27,1.23-0.69,1.78c-1.45,1.92-2.81,1.6-4.38-0.1c-0.81,1.55-1.27,3.3-2.6,4.5
	c-1.32,1.21-2.68,0.98-4.24,0.37c-1.18,2.91-2.81,4.74-5.96,5.14c-1.18,0.15-2.08-0.33-3.08,0.21c-0.71,0.39-0.83,1.55-1.64,1.59
	c-1.59,0.07-2.46-1.57-4.02-1.54c-0.84,0.02-1.07,1.19-1.83,1.44c-0.75,0.25-1.37-0.31-2.16-0.17c-1.34,0.24-2.02,1.24-2.69,2.39
	c-0.67,1.15-0.93,2.56-2.2,3.28c-1.27,0.72-2.25-0.18-2.67-1.43c-2.31,1.1-4.56,2.26-6.87,3.37c-1.28-0.82-2.61-0.12-3.61,0.64
	c-1.01,0.76-1.52,1.81-2.69,2c-1.63,0.27-3.04-0.55-4.47,0.48c-0.59,0.42-0.11,1.47-0.71,1.84c-1.75,1.09-3.43-0.06-5.33,0.29
	c-1.21,0.23-1.49,2.1-2.69,2.4c-2.38,0.61-4.56-1.06-6.94-0.36c-1.48,0.43-2.1,2.28-3.86,2.18c-0.47-0.86-1.25-2.51-2.46-2.04
	c-2.13,0.83-2.85,3.26-5.25,3.62c-0.63,0.1-0.78-0.83-1.42-0.95c-2.22-0.4-3.63,0.6-5.21,2.09c-0.6-1.1-1.43-2.64-2.87-2.35
	c-1.93,0.38-2.81,2.53-4.87,2.42c-1.07-0.05-1.39-1.34-2.43-1.5c-0.55-0.08-0.97,0.29-1.47,0.5c-2.59,1.05-4.96,1.25-7.66,0.75
	C286.77,240.11,287.39,239.59,287.42,239.45z"/>
<path class="st3" d="M95.03,200.78c0.25,2.18,0.5,4.37,0.75,6.55c2.11-4.54,4.17-9.1,6.2-13.68c-0.4,3.24-0.79,6.48-1.24,9.72
	c0.93-1.31,1.85-2.63,2.77-3.95c-0.02,2.43,0.5,4.33,1.85,6.36c0.99-2.97,1.95-5.94,2.9-8.91c0.02,3.95,0.01,7.91-0.02,11.86
	c1.37-2.48,2.75-4.95,4.1-7.44c-0.11,1.98-0.23,3.96-0.37,5.93c0.46-0.91,0.92-1.82,1.38-2.73c-0.02,2.86,0.38,5.47,1.29,8.19
	c0.65-2.89,1.61-5.59,2.89-8.26c-0.23,2.4-0.32,4.79-0.24,7.2c0.15-1.14,0.47-2.15,1.01-3.17c0.11,0.98,0.22,1.95,0.33,2.93
	c1.29,0.31,2.15,0.88,2.98,1.92c0.55-2.18,1.3-4.23,2.26-6.26c-0.17,2.49-0.11,4.93,0.18,7.41c0.71-2.3,1.63-4.47,2.76-6.6
	c-0.13,2.09-0.26,4.17-0.39,6.26c0.41-0.62,0.83-1.25,1.24-1.87c-0.05,1.5,0.13,2.87,0.58,4.3c1.26-2.37,2.52-4.75,3.76-7.14
	c-0.11,3.34-0.27,6.67-0.43,10c0.83-2.44,1.81-4.79,2.94-7.1c0,2,0.18,3.93,0.58,5.89c0.45-1.11,0.89-2.22,1.34-3.33
	c-0.16,3.14,0.07,6.11,0.75,9.17c1.02-4.7,2.05-9.39,3.04-14.1c0.05,4.47-0.1,8.92-0.42,13.37c0.85-3.57,1.88-7.05,3.12-10.5
	c0.02,2.15,0.04,4.29,0.05,6.44c0.36-1.25,0.7-2.52,1.05-3.77c0.31,0.81,0.2,1.63,0,2.43s-0.41,1.74,0.28,2.27
	c0.68,0.53,1.49-0.18,0.99-0.88c-0.04,1.13,0.16,2.12,0.66,3.15c0.67-4.11,1.89-7.76,3.92-11.4c-0.44,6.26-0.19,12.38,0.61,18.6
	c-0.55-2.2-1.07-4.4-1.62-6.6c-1.15,3.25-1.87,6.48-2.14,9.92c-0.23-2.15-0.45-4.31-0.66-6.46c-1.14,0.92-1.96,0.81-2.81-0.39
	c-0.82,3.52-1.53,7.05-2.14,10.61c-0.32-3.51-1.16-6.67-2.61-9.88c-1.63,4.62-3.75,8.75-6.6,12.73c1.29-4.69,2.12-9.39,2.58-14.24
	c-0.56,1.39-1.12,2.79-1.69,4.18c-0.08-1.71-0.17-3.43-0.26-5.14c-0.35,0.96-0.7,1.93-1.06,2.89c-0.16-1.96-0.53-3.83-1.11-5.71
	c-2.06,5.54-4.82,10.23-8.69,14.7c1.12-4.4,2.22-8.8,3.33-13.2c-1.45,5.11-3.73,8.53-8,11.71c2.22-5.05,3.77-10.15,4.75-15.57
	c-0.95,1.16-1.9,2.32-2.84,3.47c0.15-0.62,0.46-1.22,0.11-1.82c-0.35-0.6-0.95-0.51-1.28,0.06c-0.12-0.89-0.22-1.79-0.33-2.69
	c-2.75,5.15-6.09,9.23-10.66,12.88c2.54-4.52,4.28-9.1,5.39-14.16c-4.34,4.67-8.92,7.8-14.89,10.02c3.93-3.56,6.02-7.23,7.25-12.37
	c-4.33,4.17-8.96,7.48-14.28,10.27c4.4-3.55,6.84-7.33,8.38-12.76c-3.79,5.15-8.05,8.98-13.62,12.14c3.29-2.98,5.6-6.24,7.38-10.3
	c-3.78,4.5-7.28,7.5-13.41,6.58C85.99,214.89,91.1,208.88,95.03,200.78z"/>
<path class="st3" d="M305.18,227.83c0.86-5.07,1.55-10.19,2.26-15.29c0.31,1.98,0.74,3.93,1.26,5.87c0.26-0.67,0.5-1.35,0.77-2.01
	c-0.14,1.11,0.23,2.08,0.96,2.86c0.73,0.78,1.38,1.39,2.09,2.14c2.04-6.07,3.46-12.1,4.15-18.47c0.47,4.21,0.88,8.41,1.2,12.63
	c1.08-5.34,2.43-10.6,4.18-15.76c-0.56,5.72-1,11.46-1.32,17.19c0.39-2.39,0.76-4.78,1.1-7.18c0.2,1.61,0.4,3.21,0.6,4.82
	c0.48-1.24,0.83-2.48,1.06-3.78c0.19,1.8,0.57,3.51,1.17,5.22c0.48-4.52,1.25-8.88,2.4-13.27c-0.04,4.62,0.23,9.15,0.74,13.74
	c0.34-3.4,1.13-6.43,2.67-9.49c0.05,1.82,0.13,3.63,0.25,5.45c0.22-1.05,0.43-2.1,0.69-3.15c0.61,2.71,1.51,5.3,2.61,7.84
	c0.97-6.66,1.22-12.92,0.62-19.62c1.18,6.45,1.86,12.75,2.16,19.29c0.6-3.67,1.43-7.29,2.08-10.94c0.39,2.64,0.71,5.26,0.96,7.92
	c0.03-1.21,0.22-2.37,0.41-3.56c0.58,3.15,1.43,5.89,2.95,8.73c0.31-5.15,0.82-10.24,1.77-15.31c0.59,7.4,1.82,14.55,3.66,21.74
	c-0.83-2.71-1.8-5.35-2.94-7.95c-0.48,3.44-0.84,6.86-0.98,10.33c-0.95-2.55-1.69-5.11-2.22-7.78c-0.24,1.18-0.47,2.35-0.71,3.53
	c-0.33-1.48-0.81-2.88-1.46-4.25c-0.16,0.65-0.31,1.3-0.47,1.95c-0.48-0.43-0.96-0.84-1.44-1.26c0,3.42-0.02,6.85-0.04,10.27
	c-1.34-3.54-2.61-7.1-3.77-10.71c-0.17,3.87-0.77,7.57-1.78,11.31c-0.31-3.57-0.89-7.04-1.79-10.5c-0.02,3.19-0.58,6.04-1.75,9.01
	c-0.2-3.55-0.99-6.76-2.35-10.04c-0.89,4.12-2.03,8.03-4,11.76c0.31-2.94,0.28-5.81,0.09-8.75c-0.2,0.85-0.4,1.7-0.6,2.54
	c-0.19-0.44-0.22-0.97-0.68-1.22s-0.83,0.04-0.95,0.52c-0.41-2.11-1.06-4.05-2.06-5.96c-0.62,5.07-1.88,9.71-4.07,14.32
	c0.71-3.04,1.06-6.06,1.08-9.18c-0.4,2.34-1.25,4.18-2.82,5.97c-0.15-1.5-0.31-3-0.48-4.5c-0.98,0.9-1.43,1.8-1.64,3.11
	c-0.37-1.43-0.88-2.78-1.53-4.11c-0.56,4.52-2.75,7.27-6.02,10.28C304.06,232.06,304.8,230.04,305.18,227.83z"/>
<path class="st3" d="M404.7,206.67c-1.98-2.69-2.93-5.32-3.33-8.62c3.1,2.33,5.97,4.85,8.65,7.64c-1.29-2.41-2.6-4.81-3.91-7.22
	c0.45,0.71,0.92,1.43,1.37,2.14c0.03-0.71-0.17-1.46,0.28-2.08c0.45-0.61,0.99-0.23,1.24,0.35c0.11-1.47,0.2-2.95,0.29-4.42
	c3.37,4.55,6.75,7.41,12.31,8.78c-4-3.34-6.63-7.11-8.79-11.83c2.41,2.29,4.95,4.21,7.87,5.81c-0.85-1.55-1.44-3.13-1.84-4.85
	c0.51,0.66,1.02,1.31,1.53,1.97c-0.16-1.71-0.31-3.41-0.47-5.12c4.75,4.38,9.44,7.12,15.83,8.28c-5.17-1.59-8.19-4.53-11.08-9.02
	c2.1,1.23,4.2,2.46,6.3,3.69c-0.31-1.68-0.76-3.28-1.38-4.87c0.34,0.86,0.76,1.52,1.46,2.13c-0.05-1.87-0.09-3.74-0.11-5.61
	c0.76,1.06,1.59,1.99,2.59,2.83c-0.1-1.09-0.19-2.19-0.26-3.29c2.96,4.01,6.29,6.25,11.11,7.52c-6.19-5.07-10.18-10.46-13.57-17.69
	c0.07,2.16,0.13,4.32,0.2,6.47c-0.76-0.37-1.52-0.8-2.29-1.12c-0.52,2.22-0.95,4.98-3.61,5.38c-2.66,0.4-3.81-2.09-4.86-4.1
	c0.04,2.3,0.5,4.39,1.43,6.51c-1.22-1.05-2.43-1.83-4.04-1.23c-0.7,0.26-0.95,0.87-1.55,0.13c-0.01,1.46-0.07,2.91-0.09,4.37
	c-2.47-2.77-4.95-5.53-7.39-8.33c1.15,3.39,2.4,6.75,3.62,10.12c-1.33-1.06-2.66-2.13-4-3.18c0.15,1.12,0.05,1.91-1.03,2.43
	c0.05,0.88,0.1,1.76,0.15,2.63c-0.57-0.79-1.14-1.59-1.72-2.38c-0.02,1.36-0.04,2.71-0.06,4.07c-2.6-2.62-5.19-5.25-7.78-7.87
	c0.83,3.01,1.92,5.82,3.38,8.59c-2.76-1.67-5.11-3.69-7.22-6.12c0.61,3.07,1.66,5.94,3.05,8.74c-4.02-4.97-8.15-9.87-12.41-14.64
	C389.28,193.69,395.34,200.71,404.7,206.67z"/>
<path class="st4" d="M170.36,224.94c0.52,3.28,1.21,6.5,3.66,9.01c0.15-0.92,0.34-1.88,0.53-2.82c2.01,4.29,2.42,7.75,1.04,12.31
	c1.91-0.97,2.89-2.16,3.59-4.18c0.76,1.68,1.39,3.39,1.87,5.17c0.32-0.65,0.64-1.3,0.97-1.94c0.57,2.76,1.74,4.09,4.43,4.97
	c-0.07-1.72,0.24-3.13,1.04-4.65c0.51,2.87,1.51,5.2,3.28,7.53c-0.05-1.48-0.08-2.96-0.12-4.44c0.71,1.5,1.61,2.69,2.88,3.77
	c-0.06-1-0.13-2-0.23-3c1.55,3.2,3.61,5.18,6.67,6.95c-0.23-1.34-0.47-2.68-0.7-4.03c0.38,1.5,1.1,2.51,2.27,3.51
	c-2.59-5.83-4.62-11.61-5.79-17.91c-0.48-2.56-0.73-5.07-2.1-7.37c-0.86,3.91-2.01,7.69-3.45,11.43c-1.69-2.65-2.54-5.28-2.92-8.39
	c-0.4,1.07-0.68,2.14-0.84,3.26c-0.41-1.2-0.79-2.4-1.16-3.61c-0.08,0.79-0.31,1.39-0.83,1.99c-0.76-2.8-1.6-5.56-2.51-8.31
	c-0.78,1.17-1.42,2.38-1.97,3.67c-0.31-1.62-0.62-3.25-0.94-4.87c-0.59,0.23-0.78,0.58-0.85,1.19c-0.22-0.74-0.44-1.49-0.63-2.23
	c0.29,0.18,0.29,0.73-0.14,0.68c-0.44-0.06-0.53-0.47-0.73-0.84c-1.2-2.32-2.73-4.4-4.37-6.44c-0.12,1.6-0.44,3.07-1.05,4.56
	c-1.13-2.64-1.66-5.13-1.81-8.04c-0.55,2.28-2.41,2.01-2.01,4.89C167.77,219.09,169.91,222.14,170.36,224.94z"/>
<path class="st4" d="M252.6,252.07c3.64,1.99,7.45,0.36,10.69-1.63c1.64-1.01,2.07-3.03,4.09-3.21c1.1-0.1,1.58,1.39,2.62,1.11
	c2.35-0.64,2.79-2.92,4.44-4.46c0.59-0.55,1.55-0.3,2.29-0.64c0.74-0.34,1.19-0.85,1.07-1.71c0.47,0.36,0.92,0.74,1.39,1.11
	c0.4-0.3,0.8-0.61,1.19-0.92c1.63,0.66,3.14,0.88,4.89,0.73c0.02-2.89,0.34-5.71,0.93-8.54c0.34,0.55,0.82,0.86,1.43,0.5
	c0.6-0.36,0.89-0.95,1.15-1.57c2.46-5.91,4.76-11.86,6.96-17.88c0.27-0.73,0.37-1.46-0.39-1.89c-0.36-0.21-0.58,0.23-0.79,0.49
	c-0.71,0.89-1.43,1.83-2.14,2.74c-0.64-0.44-1.28-0.73-2.04-0.87c-0.07,0.59-0.01,1.2-0.37,1.71c-0.36,0.51-0.82,0.48-1.31,0.16
	c-0.2,0.73-0.39,1.47-0.59,2.21c-0.98-0.44-1.83-0.99-2.63-1.69c-0.03,1.78-0.46,3.17-1.48,4.64c-0.78-0.76-1.55-1.53-2.33-2.29
	c-0.16,1.18-0.33,2.35-0.49,3.53c-0.45-0.26-0.91-0.53-1.36-0.8c-0.58,1.45-1.33,2.69-2.36,3.86c-0.4-0.66-0.8-1.33-1.19-2
	c-0.7,2.14-1.66,3.98-3.04,5.74c-0.27-0.61-0.55-1.21-0.83-1.82c-1.63,2.92-3.35,5.75-5.31,8.46c-0.39,0.54-0.83,1.04-1.51,1.14
	c-0.69,0.1-1.01-0.4-0.87-1.04c-0.77,1.27-1.65,2.37-2.76,3.37c-0.08-0.67-0.22-1.33-0.28-1.99c-2.05,2.54-3.83,5.28-6.06,7.78
	C254.95,247.14,252.48,252,252.6,252.07z"/>
<path class="st1" d="M186.5,246.45c0.4-1.48,0.81-2.96,1.22-4.43c0.47,1.1,0.95,2.19,1.45,3.27c0.51-1.07,1.02-2.13,1.54-3.2
	c0.81,2.95,2.09,5.3,4.14,7.58c-0.1-1.83-0.25-3.66-0.38-5.5c2.02,3.89,4.61,6.91,7.96,9.73c-2.57-8.48-4.54-16.97-5.64-25.76
	c-0.64,2.09-1.25,4.19-1.77,6.31c-0.7-2.16-1.38-4.33-2.02-6.51c-0.3,2.77-0.59,5.53-0.74,8.31c-1.25-2.21-2.06-4.5-2.67-6.96
	c-0.14,2.11-0.19,4.21-0.17,6.32c-0.7-1.73-1.38-3.47-2.01-5.23c0.04,1.22-0.11,2.38-0.34,3.57c-0.48-0.26-0.98-0.45-1.48-0.68
	C185.83,237.67,186.2,242.06,186.5,246.45z"/>
<path class="st1" d="M251.02,253.9c1.81-1.39,3.59-2.87,5.37-4.31c-0.04,0.88,0.08,1.68,0.36,2.52c0.81-1.13,1.71-2.15,2.72-3.11
	c-0.04,0.51-0.08,1.02-0.11,1.52c1.51-1.59,3-3.21,4.45-4.85c-0.15,1.9-0.61,3.57-1.44,5.29c3.7-4.73,6.83-9.71,9.55-15.06
	c-1.08,1.47-2.09,2.97-3.04,4.53c0.64-2.87,1.66-5.41,3.2-7.92c-2.41,2.32-4.35,4.81-6.04,7.69c0.09-1.79,0.39-3.49,0.9-5.21
	c-1.33,1.97-2.77,3.71-4.58,5.26c0.08-1.04,0.02-2.04-0.01-3.09c-2.32,3.1-4.85,5.56-7.06,8.87
	C253.75,248.34,252.72,251.57,251.02,253.9z"/>
<path class="st5" d="M88.01,164.22c2.47-0.64,4.96-1.44,7.32-2.57c1.95-0.94,3.66-2.44,5.57-3.52c3.05-1.72,6.2-3.28,9.47-4.58
	c1.58-0.63,3.18-1.23,4.9-0.9c2.1,0.4,3.58,2.21,5.19,3.42c7.08,5.31,15.21,9.83,23.6,11.73s16.51,1.87,24.52,2.2
	c7.09,0.29,12.66-0.83,19.44-1.67c-0.39,3.13-1.09,6.34-3.42,8.54c-2.33,2.2-4.6,2.33-7.52,3.47c-4.42,1.72-8.26,4.12-13.15,5.46
	c-4.89,1.34-10.12,1.63-15.21-0.29c-2.96-1.12-5.26-3.93-7.88-5.83c-6.41-4.65-13.24-8.79-20.35-12.29
	c-1.88-0.93-3.66-2.18-5.78-1.91c-7.4,0.93-12.66,5.67-19.71,7.91c-4.53,1.44-8.66,0.16-13.59-0.68c-3.46-0.59-8.05-1.7-11.04-4.14
	C76.18,166.89,82.1,165.74,88.01,164.22z"/>
<path class="st5" d="M270.38,176.55c11.09-0.13,19.29,6.1,30.49,7.09c8.85,0.78,17.12-4.35,25.12-8.65
	c5.89-3.17,12.1-7.51,18.17-10.73c6.07-3.23,12.37-6.91,19.37-6.66c9.01,0.33,16.68,6.03,25.64,5.81
	c7.02-0.17,11.83-5.26,17.37-8.91c-10.83-2.88-21.44-5.63-32.51-7.74c-4.29-0.82-8.81-1.95-13.32-1.14
	c-9.44,1.71-17.64,7.49-26.1,11.49c-10.63,5.03-21.01,9.01-32.59,10.09c-11.58,1.08-22.52-1.9-33.99-2.3
	C268.92,168.77,270.32,172.47,270.38,176.55z"/>
<path class="st6" d="M120.14,163.62c1.25,3.11,2.8,4.63,6.12,5.28c-0.03,1.67,0.29,3.04,1.08,4.51c0.4-1.13,0.96-1.98,1.87-2.76
	c0.07,1.27,0.14,2.54,0.21,3.82c0.6-0.64,1.19-1.29,1.79-1.93c0.19,1.18,0.38,2.36,0.57,3.54c0.86-0.25,1.46-0.67,2.03-1.36
	c0.77,1.36,1.54,2.72,2.31,4.08c0.35-1.42,0.93-2.43,2.03-3.39c0.34,2.28,0.83,4.5,1.47,6.71c0.57-1.24,1.12-2.49,1.68-3.74
	c0.19,1.51,0.38,3.01,0.57,4.52c0.48-1.01,0.96-2.02,1.44-3.04c0.55,1.53,1.13,3.05,1.73,4.56c0.35-0.97,0.69-1.94,1.04-2.92
	c0.48,0.91,0.96,1.81,1.44,2.72c0.81-0.65,1.62-1.29,2.42-1.95c0.1,1.81,0.36,3.54,0.85,5.29c0.94-1.81,2.07-3.33,3.56-4.72
	c-0.03,1.5-0.03,3-0.03,4.49c0.83-1.71,1.82-3.05,3.31-4.24c0.07,0.92,0.14,1.85,0.22,2.77c0.75-0.77,1.18-1.57,1.46-2.61
	c0.08,0.94,0.35,1.65,0.94,2.4c0.51-0.88,1.07-0.6,1.49,0.19c1.46-1.7,3.06-3.17,4.89-4.46c0.08,0.85,0.17,1.69,0.29,2.53
	c0.6-1.17,1.31-2.21,2.21-3.18c0.07,0.81,0.15,1.61,0.22,2.42c1.56-1.08,2.84-2.3,3.99-3.81c0.27,0.76,0.63,1.38,1.17,1.96
	c0.47-1.51,1.14-2.75,2.17-3.95c0.18,1.55,0.43,3.09,0.69,4.63c0.27-1.82,0.79-3.15,2.22-4.36c0.08,0.84,0.21,1.68,0.37,2.51
	c0.28-0.37,0.57-0.74,0.85-1.11c1.89,0.54,3.8,1.05,5.69,1.58c-0.79-1.44-1.36-2.89-1.73-4.49c-0.5,0.57-1.04,1.1-1.59,1.63
	c-2.04-1.55-4.02-2.14-6.56-2.09c-0.96,0.02-1.81,0.2-2.76,0.27c-1.58,1.13-3.16,2.26-4.81,3.3c0.12-1.49-0.09-2.77-0.66-4.15
	c-0.77,1.37-1.54,2.73-2.32,4.09c-0.08-0.82-0.15-1.64-0.23-2.46c-0.4,1.01-0.95,1.13-1.8,0.47c-0.5,0.92-1.01,1.85-1.51,2.77
	c-0.43-0.85-0.97-1.13-1.61-0.29c-0.07-1.18-0.36-2.14-1.02-3.11c-0.11,0.57-0.38,1.5-1.06,1.51c-0.68,0.01-0.99-0.9-0.33-1.17
	c-0.48,0.95-0.97,1.93-1.45,2.89c-0.06-0.85-0.11-1.7-0.16-2.55c-0.73,0.46-1.46,0.93-2.18,1.4c-0.03-0.95-0.47-1.53-1.36-0.89
	c-0.04-1.43-0.07-2.86-0.08-4.29c-1.23,1.49-2.24,3.07-3.15,4.77c0.13-1.62-0.17-2.87-0.98-4.27c-0.52,1.08-0.85,2.16-1.02,3.35
	c-0.27-0.67-0.53-1.35-0.78-2.02c0.38,0.39,0.15,0.95-0.41,0.91c-0.57-0.04-0.81-0.68-1.33-0.9c-0.52-0.22-0.96-0.01-1,0.6
	c-0.35-0.93-0.89-1.2-1.61-0.42c-0.25-1.04-0.5-2.09-0.75-3.13c-0.8,0.58-1.61,1.17-2.41,1.75c-0.07-0.97-0.15-1.94-0.22-2.91
	c-0.85,0.21-1.19,0.64-1.43,1.47c-1.27-1.42-2.42-1.93-4.33-1.72c-0.66-1.6-1.33-3.2-1.99-4.8c-0.68,0.89-1.36,1.78-2.04,2.67
	c-0.09-1.72-0.42-3.29-1.04-4.89c-0.66,0.72-1.31,1.44-1.97,2.15c-2.96-2.78-5.75-5.87-8.75-1.57
	C118.79,164.24,119.47,163.94,120.14,163.62z"/>
<path class="st1" d="M287.37,177.3c-0.3,0.44-0.33,1.01,0.14,1.31c0.47,0.3,0.86,0.09,1.32-0.1c1.12-0.48,2.2-1.06,3.31-1.57
	c0.58,1.63,1.19,3.25,1.8,4.87c0.26-1.25,0.51-2.51,0.77-3.76c0.62,1.23,1.36,2.19,2.46,3.02c0.13-0.46,0.54-0.6,0.95-0.47
	c1.59,0.52,3.11,1.1,4.69,1.61c0.19-1.03,0.38-2.07,0.58-3.1c0.32,1.46,0.81,2.79,1.54,4.09c0.11-0.89,0.32-1.71,0.67-2.53
	c0.19,1.02,0.56,1.83,1.23,2.64c0.7-1.04,1.42-0.33,2.09,0.39c0.36-0.72,0.72-1.45,1.07-2.18c0.85,0.6,1.68,0.91,2.71,1.01
	c0.35-1.06,0.7-2.11,1.06-3.16c0.67,0.92,1.35,1.84,2.02,2.76c0.34-1.2,0.66-2.4,0.97-3.6c0.44,0.67,0.84,1.37,1.32,2.01
	c0.6-0.6,1.57-1.73,2.1-2.19s1.24-0.47,1.31,0.08c1.65-1.9,3.32-3.85,4.98-5.77c0.54,0.6,1.08,1.21,1.62,1.82
	c0.46-0.83,0.93-1.66,1.4-2.48c0.63,1.1,1.49,0.68,2.27-0.08c0.78-0.76,1.37-1.71,2.09-2.53c2.32-1.15,3.78-2.64,5.03-4.89
	c0.48,0.61,0.97,1.22,1.46,1.83c3.21-3.14,6.62-5.68,10.64-7.72c2.08-1.8,4.08-2.7,6.84-2.89c-0.64-1.54-1.51-2.89-2.57-4.18
	c-2.51,2-4.83,4.01-7.53,5.82c-1.38,0.92-2.68,0.93-3.73-0.51c0.06,0.84,0.03,1.8-0.61,2.39c-1.32,1.19-2.78,2.01-4.16,3.09
	c-0.43-0.22-0.87-0.42-1.3-0.63c-2.03,0.6-3.45,1.6-4.82,3.21c-0.27-0.73-0.55-1.45-0.82-2.18c-0.38,0.99-0.56,1.97-0.63,3.02
	c-0.37-0.65-0.76-0.98-1.5-1.13c-0.1,0.7-0.2,1.4-0.3,2.1c-1.94,0.17-3.1,0.9-4.26,2.45c-0.18-0.95-0.51-1.76-1.03-2.58
	c-0.36,1.62-0.52,3.24-0.55,4.89c-0.36-1.27-0.7-2.55-1.04-3.82c-0.25,1.04-0.51,2.07-0.79,3.11c-0.46-0.69-0.95-0.21-1.5,0.02
	c-0.55,0.24-1.17,0.07-0.98-0.58c-0.77,1.08-1.32,2.17-1.67,3.46c-0.58-1.2-1.17-2.4-1.76-3.59c-0.12,1.51-0.25,3.03-0.38,4.54
	c-0.33-1.09-0.67-2.18-1-3.26c-0.61,1.02-0.88,1.99-0.93,3.17c-0.5-0.73-1.01-1.46-1.49-2.2c-0.05,0.58,0.07,1.24-0.36,1.69
	c-0.44,0.45-0.86,0.12-0.92-0.42c-0.18,1.2-0.56,2.09-1.44,2.94c-0.21-1.45-0.55-2.83-1.05-4.21c-0.37,1.22-0.75,2.45-1.12,3.67
	c-0.17-0.77-0.33-1.54-0.5-2.31c-0.21,0.82-0.42,1.64-0.64,2.45c0.02-0.51-0.21-1.11-0.82-0.85c-0.6,0.26-0.62,0.94-0.74,1.51
	c-0.17-0.72-0.35-1.45-0.53-2.17c-0.97,0.91-1.94,1.83-2.91,2.75c-0.35-1.34-0.68-2.69-1.03-4.04c-0.23,1.16-0.45,2.32-0.68,3.48
	c-0.38-1.09-0.75-2.19-1.14-3.27c-0.3,1.23-0.99,1.78-2.21,1.91c-1.22,0.14-1.95,0.32-2.72,1.29c-0.19-0.84-0.4-1.68-0.6-2.52
	c-0.4,0.68-0.81,1.36-1.23,2.03c-0.8-0.67-1.61-1.33-2.41-2c-1.76,0.93-3.55,1.33-5.5,1.61c0.05,0.74,0.18,1.42,0.42,2.12
	c0.63,0.27,1.26,0.53,1.88,0.8C286.61,178.29,286.99,177.79,287.37,177.3z"/>
<path class="st5" d="M188.35,177.62c4.37,17.58,6.51,34.71,7.77,52.76c-1.25-1.27-2.22-2.63-3.05-4.21
	c-0.58,3.06-1.18,6.13-1.78,9.19c-0.89-2.1-1.29-4.12-1.29-6.39c-0.7,2.33-1.4,4.66-2.13,6.99c-0.12-1.85-0.23-3.7-0.31-5.55
	c-0.51,0.93-1,1.87-1.52,2.79c0.08-0.6-0.12-1.2-0.78-1.28c-0.66-0.07-0.94,0.46-1.39,0.82c0.38-3.41,0.04-6.46-1-9.73
	c-0.65,1.8-1.5,3.4-2.65,4.94c-0.15-1.71-0.3-3.41-0.44-5.12c-0.62,0.53-1.07,1.13-1.44,1.85c0.17-0.67,0.23-1.42-0.5-1.75
	s-1.05,0.34-1.19,0.96c-0.49-3.17-1.21-6.27-2.2-9.33c-0.18,1.29-0.35,2.57-0.53,3.86c-0.76-1.46-1.5-2.92-2.22-4.4
	c-0.39,2.61-0.79,5.22-1.24,7.82c-0.86-3.35-1.3-6.65-1.37-10.11c-0.68,1.15-1.39,2.29-2.08,3.43c-0.13-1.08-0.26-2.15-0.39-3.23
	c-1.06,0.63-1.93,1.36-2.72,2.3c-0.1-1.92-0.2-3.85-0.29-5.77c-1.03,1.28-2.06,2.56-3.1,3.83c-0.2-1.8-0.41-3.61-0.62-5.41
	c-0.52,1.06-1.04,2.11-1.57,3.16c-0.04-0.82-0.09-1.64-0.13-2.46c-0.68,0.67-1.35,1.33-2.03,2c0.07-3.04,0.13-6.1,0.23-9.14
	c0.33,0.69-0.41,0.98-0.99,0.64c-0.58-0.34-1-1.05-1.6-1.41c-7.67-4.6-15.18-9.43-22.32-14.79c-4.2-3.15-8.12-6.67-12.17-9.94
	c-1.91-1.55-3.65-3.3-6-3.98c-3.12-0.9-6.05-0.42-9.14,0.08c-4.73,0.76-9.22,2.08-13.94,2.82c-3.31,0.52-6.29,1.17-9.69,0.31
	c-3.4-0.86-5.53-3.43-7.35-6.35c6.18-0.84,12.23-1.36,18.43-2.41c3.69-0.62,7.23-1.7,10.53-3.68c2.06-1.23,3.37-3.54,5.92-4.09
	c2.55-0.55,5.11,0.66,7.22,2.13c12.11,8.43,23.82,19.5,38.28,22.54c11.09,2.33,18.69-3.93,28.65-6.12
	C185.18,175.53,186.01,176.14,188.35,177.62z"/>
<path class="st5" d="M261.06,237.07c0.92-0.21,1.83-0.37,2.74-0.58c-0.13,1.04-0.29,2.08-0.48,3.12c1.17-1.48,2.26-3.02,3.33-4.58
	c-0.11,1.06-0.22,2.13-0.33,3.19c2.59-3.55,4.12-7.1,4.92-11.41c0.83,0.92,1.45,1.88,1.91,3.03c0.72-1.87,1.41-3.75,2.09-5.63
	c0.56,1.02,1.12,2.05,1.69,3.06c1.47-1.71,2.46-3.49,3.17-5.63c0.53,0.94,1.15,1.72,1.95,2.44c0.24-1.22,0.49-2.43,0.74-3.65
	c0.76,0.92,1.27,1.89,1.63,3.03c0.24-2.16,0.46-4.32,0.67-6.48c0.86,0.84,1.33,1.71,1.59,2.88c0.19-1.09,0.51-2.07,1.01-3.05
	c1.03,0.2,2.07,0.4,3.1,0.6c0.27-1.3,0.53-2.59,0.79-3.89c2.1,0.19,2.96-0.63,3.5-2.61c0.76,1.21,1.52,2.42,2.28,3.63
	c1.01-1.73,1.68-3.48,2.1-5.44c0.26,0.9,0.52,1.81,0.79,2.71c0.95-3.61,1.71-7.24,2.3-10.93c0.72,1.43,1.56,2.74,2.6,3.96
	c0.5-3.19,0.73-6.36,0.71-9.59c0.28,0.64,0.64,1.14,1.18,1.6c0.36-0.52,0.6-1.05,0.76-1.66c1.3-0.27,2.61-0.55,3.91-0.83
	c0.27-0.77,0.52-1.54,0.79-2.31c7.79-3.96,15.24-8.38,22.18-13.64c3.29-2.49,6-5.66,9.24-8.02c4.47-3.25,8.85-6.18,13.95-8.13
	c5.1-1.95,9.94-1.89,15.26-1.25c0.64,0.08,1.22,0.66,1.86,0.3c1.89-1.05,2.21-3.21,1.08-4.93c-1.12-1.72-2.88-2.74-4.87-2.58
	c-15.78,1.29-28.59,7.22-42,15.2c-3.7,2.2-7.24,5.13-11.08,6.66c-4.97,1.98-10.11,2.52-15.11,2.5c-5.93-0.03-11.46-1.98-16.77-3.07
	c-2.94-0.61-3.03,1.17-5.26,1.82c-2.23,0.65-4.39-1.76-6.19,0.31c-3.31,3.8-3.88,9.92-4.63,14.6
	C267.7,207.43,266.18,222.19,261.06,237.07z"/>
<path class="st3" d="M154.7,200.92c2.32-0.38,3.47-1.88,4.46-3.84c1.81-3.58,3.7-6.86,6.03-10.08c-0.39,3.03-0.93,5.99-2.02,8.85
	c-1.42,3.74-3.04,7.37-4.62,11.04c3.77-5.97,6.5-12.13,8.62-18.85c0.89,3.96,1.09,7.77-0.15,11.64c-1.24,3.87-2.67,7.37-3.27,11.37
	c1.03-0.66,1.73-1.61,2.04-2.77c1.47-5.52,2.68-11.01,3.9-16.56c1.4,4.25,1.89,8.35,1.42,12.79c-0.47,4.44-0.85,8.53-0.1,12.94
	c1.12-7.08,1.98-14.2,2.67-21.33c0.15-1.58,0.57-2.89,1.33-4.26c0.2,8.32-0.19,16.62,0,24.93c0.71-7.96,1.24-15.95,1.96-23.9
	c0.11-1.22,0.64-2.01,1.91-1.69c-0.01,4.71-0.45,9.27-0.72,13.99c-0.32,5.51-0.14,11.14,0.26,16.67c1.2-9.87,2-19.74,2.45-29.67
	c1.49,6.05,1.54,11.84,1.01,18.03c-0.4,4.73-0.5,9.52-0.79,14.26c1.39-7.46,2.29-15.05,2.91-22.58c0.23-2.89,0.6-5.41,1.42-8.16
	c0.68,8.05,0.47,15.87-0.03,23.95c-0.24,3.86-0.23,7.83,0.38,11.69c1.5-13.74,2.82-27.16,1.87-40.99c-1.46,0.47-2.11,1.31-2.68,2.7
	c-0.66-1.51-1.44-2.91-2.36-4.27c0.11,1.57-0.06,2.78-0.93,4.11c-0.8-1.19-1.59-2.37-2.33-3.6c-0.34,0.67-0.68,1.35-1.02,2.02
	c-0.55-0.76-1.09-1.52-1.64-2.28c-0.21,1.05-0.56,1.95-1.15,2.84c-0.55-0.89-1.01-1.83-1.37-2.8c-0.5,0.7-0.72,1.6-1.74,1.65
	c-1.02,0.05-1.5-0.84-1.44-1.79c-0.84,0.84-1.65,1.72-2.5,2.56c-0.43-1.52-0.7-3.03-0.8-4.6c-2.2,2.1-3.77,1.47-4.9-1.23
	C161.03,190.03,158.51,195.56,154.7,200.92z"/>
<path class="st3" d="M268.96,227.43c-0.09,1.11,0.09,1.95,0.56,2.96c2.52-13.89,3.88-27.91,6.03-41.85
	c-0.36,10.48-0.97,20.94-1.22,31.43c1.01-1.73,1.47-3.39,1.62-5.4c0.6-8.02,1.53-15.98,2.97-23.9c-0.32,5.52-0.68,11.04-0.47,16.57
	c0.15,3.98,0.94,7.74,1.95,11.57c0.17-9.7,0.61-19.34,1.56-29c-0.02,8.71,0.68,17.23,1.98,25.84c0.44-7.91,0.01-15.81,0.01-23.72
	c0-1.26,0.47-2.28,1.17-3.3c0.57,8.56,1.34,17.07,2.48,25.58c0.06-8.07,0.36-16.12,0.81-24.18c0.78,7,1.77,13.97,2.89,20.93
	c0.03-6.69,0.11-13.39,0.17-20.08c1.98,6.08,3.3,12.28,6.08,18.07c-1.34-6.51-2.2-12.99-2.57-19.62c2.38,4.67,3.51,9.79,5.89,14.46
	c-1.05-3.98-2.12-7.95-3.06-11.97c-0.17-0.73-0.27-1.46-0.08-2.18c0.19-0.72,0.67-0.98,1.38-0.94c0.92,3.81,2.16,7.4,3.86,10.93
	c-0.53-3.42-1.02-6.84-1.45-10.27c1.78,0.04,2.42,1.01,3.08,2.57c0.66,1.56,1.29,2.7,2.98,3.26c-1.14-3.79-2.43-7.53-3.83-11.23
	c-0.41,1.28-0.97,2.09-2.18,2.71c-0.45-1.82-1.15-3.27-2.41-4.68c-0.06,1.49-0.11,2.98-0.19,4.47c-0.69-1.01-1.37-2.02-2.05-3.04
	c-0.22,1.37-0.47,2.74-0.72,4.1c-0.73-0.76-1.09-1.56-1.33-2.57c-0.24,1.06-0.49,2.12-0.75,3.18c-1.1-0.88-1.74-1.86-2.21-3.18
	c-0.27,1.4-0.55,2.8-0.83,4.2c-0.44-1.13-0.95-2.19-1.59-3.21c-0.36,0.96-0.71,1.93-1.06,2.9c-0.67-1.14-1.34-2.28-1.98-3.44
	c-0.52,1.04-1.04,2.08-1.55,3.13c-0.48-1.17-1.05-2.24-1.81-3.26c-0.58,1.19-1.18,2.4-1.82,3.55c-0.21-1.06-0.13-2.42-1.44-2.72
	c-1.3-0.3-1.89,0.97-2.05,2.07c-0.38-0.97-0.37-2.09-1.32-2.73c-0.96-0.64-1.76,0.02-2.35,0.84c0.14-1.37-0.02-2.26-1.5-2.55
	c-0.34,6.65-2.04,14.01-2.56,20.43C269.38,212.27,269.56,219.52,268.96,227.43z"/>
<path class="st7" d="M90.73,159.67c2.5-0.86,4.87-1.65,7.17-2.9c2.59-1.41,4.44-4.02,7.29-5c5.35-1.86,10.52-1.08,15.6,1.02
	c5.08,2.09,9.45,6.64,14.31,8.44c12.25,4.54,24.19,5.36,36.8,5.25c3.93-0.03,6.56-0.8,10.08-1.79c3.52-0.99,6.2-2.88,10.01-3.02
	c3.81-0.14,7.69,0.34,11.36-1.22c-4.03,1.89-7.45,5.86-11.38,7.66c-7.45,3.41-12.69,6.42-21.29,5.85
	c-18.94-1.26-37.18-7.12-54.89-14.38c-1.32-0.54-2.74-1.6-4.26-1.48c-3.92,0.31-7.06,2.23-10.55,3.86c-2.05,0.96-4.19,1.5-6.37,2.1
	c-12.2,3.33-24.33,6.05-36.96,7.29c5.72-2.37,10.65-3.97,16.63-6.36C79.19,163,85.16,160.36,90.73,159.67z"/>
<path class="st7" d="M271.65,162.82c2.86,1.34,5.79,3.27,8.97,3.75c24.74,3.76,45.18-3.91,65.77-17.16
	c2.83-1.82,5.55-4.37,8.93-4.99c5.34-0.97,10.54,1.14,15.36,2.59c20.61,6.2,42.21,4.54,62.34,12.14
	c-8.24-1.04-16.36-1.92-24.63-2.84c-3.46-0.38-6.87-0.74-10.39-1.4c-4.56-0.86-8.98-2.27-13.65-3.19
	c-5.16-1.01-10.5-1.79-15.88-1.95c-3.75-0.11-7.39,0.3-10.95,1.83c-3.18,1.37-5.59,4.55-8.37,6.55
	c-9.1,6.54-18.96,12.28-29.79,14.61c-10.83,2.34-20.3,1.92-31.14,0.77C280.95,172.77,276.08,168.38,271.65,162.82z"/>
<path class="st8" d="M285.84,166.44c20.61,0.02,37.5-5.73,55.6-15.23c6.59-3.46,13.15-7.46,20.78-7.88
	c3.82-0.21,7.43,2.04,10.93,2.65c16.49,2.9,32.78,4.5,48.7,9.62c-4.17,0.41-8.09,1.36-12.32,0.83c-5.19-0.64-10.04-2.79-15.3-3.53
	c-4.62-0.66-9.12-0.54-13.91-1.29c-4.79-0.74-9.29-3.82-14.43-3.65c-11.39,0.39-20.46,6.71-30.39,11.72
	c-17.31,8.75-33.23,12.36-52.69,10.72c-3.74-0.32-6.92-2.46-10.35-4.47c-2.63-1.53-4.6-4.81-5.41-7.83
	c2.95,1.05,5.66,4.09,8.34,5.34C278.89,165.09,282.2,166.43,285.84,166.44z"/>
<g>
	<path class="st9" d="M199.13,215.29c-0.99,5.81-0.38,7.01-0.34,11.18c0.03,3.69,1.34,5.39,2.28,8.1
		c2.09,6.06,3.34,10.74,3.06,17.02c-3.25-3.48-6.83-6.09-10.93-8.45c0.1-3.02-0.23-5.57-1.85-8.16c-0.56-0.9-1.66-1.15-2.15-2.11
		c-0.9-1.75-0.93-3.53-0.41-5.41c0.52-1.88,1.73-3.27,2.22-5.18c1.34-5.26,0.95-11.03,1.75-16.34c0.97-6.48,2.53-12.23,0.27-18.44
		c-0.81-2.23-1.92-3.44-2.33-5.6C204,194.75,201.87,199.25,199.13,215.29z"/>
	<path class="st10" d="M218.13,183.59c7.19,3.06,12.65,3.13,20.07,1.16c8.32,16.3,12.57,31.92,6.46,49.4
		c-3.72,10.63-10.07,17.55-12.5,28.32c1.39-0.35,2.45,0.19,3.53,1.01c-3.05,1.76-6.84-0.06-9.83,1.67
		c-3.49,2.02-1.75,5.88,1.88,6.73c3.63,0.85,7.16-0.81,10.32-2.66c-3.71,6.23-6.21,12.32-7.26,19.57c-0.62,4.27-1.1,7.94-5.42,9.87
		c-2.14,0.96-4.59-0.08-5.93-1.82c-3.63-4.74-4.19-9.68-4.02-15.46c0.43-14.77,0.67-29.45,0.21-44.21c-3.04,2.37-4.86,4.78-6.32,8.5
		c-7.52-17.43-9.54-26.96-6.54-47.22C203.95,190.43,203.58,177.4,218.13,183.59z"/>
	<path class="st10" d="M212.36,253.75c-0.22-1.65,0.7-3.38,2.64-3.33c1.04,0.03,1.61,1.05,1.81,1.92
		c1.75,7.54,2.65,15.14,5.67,22.28c1.68,3.98,5.2,6.81,7.28,10.51c1.58,2.81,2.49,5.63,3.15,8.74c0.15,0.69,0.03,1.47-0.76,1.64
		c-1.1,0.24-1.69-0.56-1.95-1.55s-0.52-1.73-1.39-2.31c-0.19,1.96,0.17,3.84-1.34,5.4c-1.5,1.57-3.66,1.63-5.17,0.01
		c-0.68-0.74-0.04-1.65-0.32-2.54s-0.88-1.45-1.88-1.47c-0.64,1.94-1.66,3.03-3.44,4.01c-0.35-5-1.55-9.58-3.02-14.38
		c-0.93-3.05-1.31-6.13-1.14-9.34c1.06,1.21,2.03,2.43,2.77,3.87C214.72,269.31,213.43,261.68,212.36,253.75z"/>
	<g>
		<path class="st0" d="M229.15,30.44c-0.93,4.46-2.57,9.47-3.55,13.77c-0.85,3.75,0.34,7.97,0.14,11.21
			c-0.62,9.61-1.25,17.4-1.26,27.03c-0.01,11.96-0.65,26.83-3.22,38.22c-3.83,16.97-14.16,25.15-20.87,41.11
			c-2.47,5.88-12.6,8.84-13.5,17.31c-1.24,11.61,0.33,24.76,1.59,37.07c1.26,12.31,6.99,24.9,12.09,35.96
			c6.51,14.12,8.76,27.33,10.65,42.41c0.96-0.04,1.89-0.16,2.81-0.52c0.49,1.84,1.15,3.56,2.01,5.25c1.33-0.8,2.54-1.72,3.67-2.77
			c0.82,1.11,1.28,2.38,2.55,3.1s2.6,0.6,3.71-0.36c0.62-0.54,0.21-1.29,0.22-1.97c0.9,0.7,1.64,1.6,2.83,1.8
			c1.19,0.2,1.82-0.39,2.27-1.43c0.88,0.4,1.8,0.77,2.62,1.27c2.73-14.45,6.21-26.54,13.75-39.61c3.67-6.37,10.71-11.96,14.04-19.25
			c6.46-14.18,10.34-29.85,12.4-45.26c2.06-15.41-3.7-25.2-11.87-37.34c-1.51-2.24-3.6-2.48-5.25-3.82
			c-1.65-1.34-3.15-2.5-4.26-3.92c-19.58-24.93-6.62-56.82-15.21-85.06c-0.27-0.87,0.8-1.41,1.5-1.5c-0.48-3.99,0.46-7,1.32-10.98
			c0.86-3.98,1.32-8.38,1.02-12.63c-0.13-1.85-0.31-3.96-1.74-5.43C236.65,31.05,233.26,30.58,229.15,30.44z"/>
		<path class="st11" d="M230.22,23.27c1.38,0.54,2.61,1.44,4.14,1.51c1.53,0.07,2.48-0.8,3.53-1.79c0.43,0.7,0.82,1.49,0.93,2.31
			c0.41,3.03,0.7,6.05,0.99,9.07c-1.97-0.97-3.71-2.09-5.99-1.93c-2.28,0.16-4.11,1.47-6.12,2.44
			C228.56,31.02,229.34,27.12,230.22,23.27z"/>
		<path class="st12" d="M232.62,41.31c0.28-0.9,1.12-1.81,1.6-2.68c1.69,2.34,3.4,4.82,4.4,7.5c0.57,1.54-0.05,3.41-0.32,4.72
			c-4.56,22.36-2.83,44.7,0.09,67.34c0.28,2.2,0.85,5.26-3.4,6.37c-4.25,1.11-6.39,6.71-10.18-2.68c-2.35-5.82,0.58-28.99,2.1-34.35
			c3.06-10.76,1.53-15.26,2.24-24.07C229.81,55.29,230.25,49,232.62,41.31z"/>
		<path class="st0" d="M226.04,166.54c0.84,2.67,1.54,5.38,2.19,8.11c1.02-1.42,2.21-2.53,3.64-3.53c0.86,1.06,1.7,2.13,2.53,3.22
			c0.48-0.3,0.97-0.59,1.45-0.88c1.15-0.7,2.29-1.41,3.44-2.12c-0.35,5.44,0.17,10.58,1.36,15.88c1.25-2,2.51-4,3.76-6.01
			c1.12,5.53,1.49,10.96,1.23,16.59c1.15-2.01,2.2-4.07,3.26-6.12c0.5,3.66,0.76,7.28,0.69,10.97c0.64-1.22,1.29-2.44,1.91-3.67
			c0.66,8.28,2.06,16.31,4.05,24.36c0-2.53,0.14-5.03,0.42-7.54c1.1,2.24,2.36,4.34,3.84,6.35c-0.07-1.88-0.16-3.76-0.26-5.64
			c1.13,1.49,2.08,3.04,2.88,4.73c-0.22-1.87-0.46-3.74-0.7-5.6c0.71,1.02,1.43,2.04,2.12,3.07c-0.08-3.04-0.17-6.08-0.18-9.13
			c0.2,1.78,0.82,3.01,2.06,4.3c-0.33-3.25-0.6-6.5-0.7-9.77c1.3,1.57,2.61,3.14,3.95,4.68c-0.65-3.48-1.18-6.97-1.5-10.5
			c0.84,0.69,1.71,1.26,2.69,1.73c0.1-1.72,0.2-3.44,0.39-5.15c1.04,1.01,2.03,1.36,3.48,1.36c-1.21-4.12-2.04-8.29-2.6-12.55
			c1.58,0.63,3.01,1.43,4.41,2.4c-1.11-2.59-2.47-5.01-4.07-7.33c0.73,0.06,1.45,0.11,2.18,0.16c-0.32-1.58-0.17-2.67,0.92-3.9
			c-3.78-2.77-7.79-4.59-12.17-6.19c1.19-0.88,2.53-1.21,3.89-1.68c-6.66-3.56-11.74-11.07-17.17-15.57
			c-5.43-4.49-12.71-6.54-13.08-13.86c-0.93-18.54,1.79-36.95,0.65-55.1c-0.45-7.22-0.15-11.74-0.21-19.09
			c-0.07-7.89,3.42-16.59,3.95-24.98c0.11-1.83-0.75-4.49-2.29-6.02c-1.54-1.52-4.43-2.37-6.1-0.68c-4.21,4.26-5.57,8.74-6.79,14.39
			c3.05-2.64,5.04-5.62,6.37-9.31c3.82,6.36,3.61,15.75,3.53,22.41c-0.24,20.98,1.75,42.12,0.8,62.13
			c-0.66,13.73-0.07,23.75-3.45,36.62c2.39-1.23,4.84-1.3,7.41-1.72c-1.79,1.05-3.58,2.11-5.35,3.19c2.24-0.25,4.53-0.56,6.74-0.82
			c-3.98,1.55-9.11,3.02-12.91,4.32c-3.8,1.31-4.95,2.53-7.16,5.48C223.01,167.7,224.43,167.03,226.04,166.54z"/>
		<path class="st11" d="M232.66,2.77c-0.32-0.8-1.59-0.25-1.85,0.46c-0.25,0.71-0.23,1.72-0.21,2.49
			c0.14,5.65-1.46,13.12,0.11,18.21c1.82,5.91,6.05,4.9,9.99,8.2C238.67,22.03,236.44,12.33,232.66,2.77z"/>
		<path class="st6" d="M233.87,21.02c0.36,0.63,1.04,0.71,1.58,1.1c1.21,0.88,2.1,1.87,2.24,3.4c0.14,1.53-0.58,2.85-0.9,4.3
			c1.79,0.35,3.4,1.02,5.02,1.86c-1.63-7.76-2.73-15.66-4.15-23.44c-0.19-1.02-1.04-1.04-1.73-1.58c-0.21,2.56,0.82,4.43,0.9,7.06
			C236.91,16.36,235.5,18.92,233.87,21.02z"/>
		<path class="st13" d="M228.54,28.82c-0.05,0.53-0.29,1.13,0.09,1.57c0.63,0.72,1.37,0.84,2.26,0.5s1.44-1.19,2.11-1.82
			c0.39-0.36,0.8-0.71,1.32-0.76c0.52-0.05,0.89,0.18,1.27,0.47c1.69,1.25,3.27,2.61,4.95,3.86c-0.69-4.34-1.29-8.64-1.59-13.03
			c-0.25-3.63,0.04-6.89-0.54-10.64c-0.39-2.55-1.49-6.16-4.48-6.78c-2.99-0.62-3.92,2.31-4.08,4.64
			C229.35,14.25,229.22,21.47,228.54,28.82z"/>
		<path class="st14" d="M228.55,7.12c1.51,1.03,2.96,2.11,4.5,3.11c0.41,0.27,0.81,0.53,1.35,0.46c0.54-0.07,0.98-0.42,1.35-0.83
			c0.61-0.67,1.21-1.41,1.77-2.13c0.23-0.29,0.42-0.59,0.43-0.96c0.01-0.37-0.18-0.65-0.39-0.94c-1.27-1.71-2.57-3.41-3.86-5.1
			c-0.16-0.21-0.36-0.35-0.61-0.38c-0.24-0.03-0.4,0.13-0.52,0.3c-1.54,2.11-2.95,4.28-4.31,6.5"/>
	</g>
	<path class="st15" d="M225.71,394.48c1.73-2.89,3.8-6.01,4.87-9.13c0.77-2.24,0.82-4.82,0.94-6.85c0.3-5.15,0.66-9.41,0.81-14.49
		c0.1-3.49-0.67-6.44-1.03-10.19c-1.01-10.67-0.39-21.62-1.06-32.6c-0.23-3.83-0.43-8.17,1.34-11.86c-0.13-0.07-0.23-0.02-0.35-0.03
		c2.21-13.69,4.01-27.36,5.9-41.13c0.22-1.58,0.54-3.2,1.35-4.72c0.66-1.24,1.69-2.36,2.64-3.52c3.17-3.89,6.43-7.89,9.47-11.9
		c-0.37,4.09-2.4,7.89-3.75,11.63c-5.03,13.9-8.34,28.01-10.75,42.44c-0.66,3.93-0.39,7.3,0.09,11.1c0.2,1.62,1,3.01,0.82,4.59
		c-0.18,1.58-1.16,2.74-1.64,4.15c-0.82,2.43-0.83,4.51-0.38,7.02c0.36,5.76,0.1,12-0.03,17.67c-0.28,12.28-0.52,23.86-1.33,36.16
		c-0.12,1.82-0.26,4.35-0.17,6.46c0.08,1.78,0.46,3.63,0.41,5.61c-0.05,1.99-0.37,3.84-0.77,6.04c-1.46,7.99-3.05,16.37-4.54,24.46
		c-0.33-1.32-0.51-2.66-0.55-4.03c-0.26,2.37-0.92,4.39-2.11,6.46c-0.63-1.22-1.06-2.45-1.34-3.8c-0.36,1.15-0.64,2.31-0.83,3.5
		c-0.8-0.89-1.44-1.82-1.97-2.89c-0.52,0.54-1.07,1.03-1.55,1.62c-0.63-12.36-0.34-24.03,1.2-36.4c0.48-3.91,1.58-5.1,1.65-10.14
		c0.18-12.75-1.59-29.11-2.74-42.16c-0.56-6.29-1.05-10.71-2.06-16.48c-0.38-2.2-1.22-4-1.37-6.18c-0.24-3.53,0.57-6.64,1.61-9.98
		c-3.63-19.04-5.26-38.28-10.84-56.91c0.54-0.29,1.36-0.3,1.86,0c3.33,1.98,5.34,5.46,5.93,9.01c2.59,15.47,3.76,30.32,5.4,45.88
		c0.25,2.33,0.6,3.77,1.34,6.72c0.57,2.26,1.57,1.87,2.22,6.04c1.39,8.96,2.45,20.9,2.47,31.27c0.01,6.74,0.11,13.82-0.75,21.31
		c-0.44,3.79-1.03,10.62-0.94,14.9C225.27,387.05,225.59,390.68,225.71,394.48z"/>
	<path class="st16" d="M230.6,308.9c-0.33,0.55-0.91,0.92-0.96,1.63c-0.09,1.29,0.69,1.99,1.78,2.55c-0.43,0.25-0.88,0.46-1.32,0.71
		c0.46,0.41,0.62,1,0.5,1.56c-0.13,0.56-0.35,1.18-0.31,1.67c0.04,0.49,0.33,0.74,0.46,1.1c0.29,0.85,0.45,1.69,0.49,2.53
		c0.1,2.27,0.16,4.46,0.26,6.71c0.44-1.77,1.17-3.27,2.2-4.78c0.13-0.19,0.33-0.36,0.32-0.61c-0.04-0.58-0.85-0.78-0.86-1.34
		c-0.02-1.11,0.99-1.72,1.22-2.78c0.05-0.24-0.21-0.43-0.25-0.72s0.03-0.57,0.02-0.95c-0.09-3.51-0.87-6.77-2.15-10.07
		C231.61,307.09,231.14,307.98,230.6,308.9z"/>
	<path class="st16" d="M217.04,311.18c0.62,0.24,1.08,0.56,1.49,1.09c-0.63,0.52-0.68,0.95-0.12,1.55
		c-0.57,0.63-1.01,1.28-1.32,2.08c0.74,0.4,1.59,0.79,2.18,1.38s0.68,1.28,0.4,2c-0.15,0.4-0.53,0.7-0.41,1.08s0.42,0.26,0.61,0.51
		c0.19,0.25,0.26,0.54,0.23,0.84c-0.15,1.63-0.32,3.22-0.49,4.85c0.2-0.8,0.23-1.51,0.46-2.32c0.23-0.81,0.31-1.59,0.99-2.27
		c0.67-0.69,1.71-0.93,2.69-0.86c-0.15-0.61-0.59-0.83-1.11-1.11s-0.88-0.55-0.78-1.19c0.42,0.1,0.9,0.03,1.07-0.4
		c0.17-0.43,0.01-0.75-0.16-1.13c-0.65-1.41-1.25-2.74-1.96-4.15c-0.7-1.41-1.59-2.87-2.32-4.29
		C218.05,309.65,217.6,310.43,217.04,311.18z"/>
	<path class="st17" d="M231.45,380.9c-0.13,2.75-0.3,5.32-0.39,8.09c-0.03,1.01,0.01,1.96,0.34,3.07c0.32,1.11,1.41,1.94,1.51,3.29
		c0.18,2.49-1.2,4.45-1.95,6.9c-1.31,4.25-1.69,8.79-1.7,13.3c-0.01,2.84,0.34,5.71,0.67,8.53c-1.36-2.21-2.38-4.48-3.1-6.98
		c0.13,2.98-0.25,5.69-1.24,8.49c0.67-8.76,0.36-17.9,0.94-26.56c0.23-3.38,2.15-5.97,3.04-8.86
		C230.6,386.86,231,384.2,231.45,380.9z"/>
	<path class="st17" d="M219.98,390.93c-0.82,3.89-0.66,8.05-0.66,12.19c0.01,5.51-0.48,11.23-1.19,16.75
		c0.84-1.87,1.51-3.79,2.02-5.79c-0.16,3.82-0.46,7.62-0.93,11.42c0.62-2.26,1.25-4.51,1.87-6.77c0.47,2.16,0.71,4.31,0.76,6.52
		c0.52-5.2,0.75-10.41,0.54-15.63c-0.09-2.22-0.49-4.47-0.39-6.66c0.16-3.46,1-7.03,1.39-10.34c0.34-2.86-0.17-4.73-1.22-7.31
		C221.39,387.37,220.47,388.65,219.98,390.93z"/>
	<path class="st18" d="M232.91,323.29c-0.87,19.85-0.55,39.14-0.89,59.21c-0.07,3.97,0.51,9.57,1.92,13.57
		c0.31-2.86-0.12-6.6-0.51-9.34C230.39,365.36,232.45,344.66,232.91,323.29z"/>
</g>
<path class="st19" d="M464.52,173.93c-2.42-0.84-4.82-1.77-7.2-2.78c0.3-0.01,0.6-0.03,0.91-0.05c8.44,0.82,16.1-0.13,24.39-3.01
	c-0.23-0.01-0.45-0.03-0.68-0.04c-2.74-0.61-5.32-0.69-7.98-0.52c-4.44-0.29-8.89-0.58-13.33-0.89c-0.57-0.24-1.13-0.5-1.7-0.81
	c4.37-1.05,8.75-1.93,13.13-3.03c1.65-0.42,3.27-0.8,4.66-1.92c0.43-0.35,0.76-0.74,1.01-1.17c0.34-0.44,0.62-0.93,0.84-1.48
	c-0.1,0.02-0.2,0.03-0.3,0.05c0.11-0.58,0.14-1.18,0.1-1.81c-4.02,1.14-8.17,2.38-12.35,3.43c-9.88,1-19.99,1.2-29.32-0.19
	c-0.37-0.11-0.75-0.21-1.12-0.31c-11.51-3.18-21.47-7.36-33.29-8.96c-2.01-0.27-4.01-0.52-6-0.76c-7.73-1.31-15.53-2.4-23.38-3.78
	c-3.5-0.62-7.11-2.86-10.93-2.65c-1.91,0.1-3.76,0.44-5.56,0.93c-0.45,0.04-0.9,0.09-1.35,0.18c-1.72,0.31-3.26,1.13-4.74,2.09
	c-3.11,1.42-6.12,3.11-9.13,4.69c-18.1,9.5-34.98,15.25-55.6,15.23c-3.64,0-6.95-1.35-10.45-2.97c-1.73-0.81-3.48-2.36-5.3-3.64
	c-1.11-1.33-2.16-2.73-3.17-4.13c-2.05-0.7-4.12-1.28-6.23-1.77c-0.63-0.7-1.31-1.27-2.02-1.61c-2.29-1.09-3.14-0.85-3.28,0.02
	c-1.02-0.85-1.95-1.68-2.69-2.63c-19.58-24.93-6.62-56.82-15.21-85.06c-0.27-0.87,0.8-1.41,1.5-1.5c-0.48-3.99,0.46-7,1.32-10.98
	c0.86-3.98,1.32-8.38,1.02-12.63c-0.13-1.75-0.31-3.73-1.53-5.18c-0.08-0.83-0.16-1.66-0.25-2.49c0.33,0.26,0.65,0.52,0.98,0.77
	c-0.04-0.24-0.07-0.47-0.11-0.71c0.09,0.07,0.17,0.13,0.26,0.2c-0.07-0.37-0.15-0.73-0.22-1.09c0.44,0.2,0.89,0.41,1.33,0.64
	c-1.16-5.52-2.05-11.12-2.98-16.69c-0.03-1.95-0.08-3.91-0.4-6.02c-0.1-0.67-0.26-1.42-0.48-2.16c0-0.01,0-0.02,0.01-0.04
	c0.01-0.3-0.12-0.54-0.28-0.78c-0.52-1.37-1.31-2.64-2.52-3.33c-0.49-0.64-0.97-1.29-1.46-1.92c-0.16-0.21-0.36-0.35-0.61-0.38
	c-0.24-0.03-0.4,0.13-0.52,0.3c-1.54,2.11-2.95,4.28-4.31,6.5l0.29-0.02c0.42,0.29,0.83,0.58,1.25,0.87
	c-0.45,7.01-0.61,13.87-1.25,20.82c-0.05,0.53-0.29,1.13,0.09,1.57c0.01,0.01,0.02,0.01,0.03,0.02c-0.32,1.49-0.64,2.98-0.97,4.47
	c0.15-0.07,0.29-0.15,0.44-0.22c-0.86,3.25-1.85,6.57-2.53,9.56c-0.85,3.75,0.34,7.97,0.14,11.21c-0.62,9.61-1.25,17.4-1.26,27.03
	c-0.01,11.96-0.65,26.83-3.22,38.22c-3.52,15.57-12.49,23.75-19.13,37.32c-1.45,0.38-2.88,0.76-4.29,1.15
	c-3.12,0.86-4.94,1.75-6.49,2.59c-3.47,0.31-6.05,2.03-9.37,2.96c-3.52,0.99-6.15,1.75-10.08,1.79c-12.61,0.11-24.55-0.71-36.8-5.25
	c-4.86-1.8-9.24-6.34-14.31-8.44s-10.25-2.87-15.6-1.02c-1.38,0.48-2.52,1.34-3.63,2.26c-0.97,0.71-1.89,1.51-2.83,2.24
	c-0.27,0.18-0.54,0.35-0.82,0.51c-2.3,1.25-4.68,2.03-7.17,2.9c-4.81,0.59-9.92,2.65-14.39,4.47c-2.61,0.67-5.23,1.33-7.85,2.06
	c-4.17,1.16-7.19,3.9-11.51,5.06c-18.23,4.86-36.14,3.06-54.49-0.89c0.01,0.02,0.02,0.04,0.03,0.06c-0.14-0.03-0.28-0.06-0.42-0.09
	c0.2,0.15,0.4,0.29,0.61,0.43c1.67,3.19,3.57,5.67,6.98,7.24c3,1.38,6.23,1.82,9.46,2.37c-1.05,0.27-2.1,0.51-3.16,0.73
	c-4.99,0.42-9.99,0.86-14.98,1.33c3.67,2.27,7.28,3.95,11.65,3.93c4.38-0.02,8.37-1.47,12.6-2.28c-4.28,2.91-8.79,4.95-13.81,6.17
	c-2.15,0.52-4.79,0.46-5.01,3.14c-0.02,0.27-0.01,0.52,0.03,0.75c-0.99,0.31-1.97,0.61-2.97,0.92c1.08-0.04,2.15-0.1,3.22-0.17
	c0.75,1.35,2.81,1.59,4.54,1.38c2.25-0.27,4.57-1.19,6.66-2.13c-1.93,1.02-3.39,2.18-4.57,3.66c-0.25,0.14-0.48,0.29-0.73,0.43
	c0.12,0.03,0.23,0.04,0.35,0.07c-0.65,0.91-1.22,1.92-1.72,3.1c3.39,0.07,6.32-0.59,9.42-1.95c0.14,1.65,0.65,3.32,1.88,4.42
	c4.61,4.12,9.5,7.23,15.11,9.65c2.45,1.05,4.76,1.79,6.77,3.51c0.82,0.7,1.24,1.99,2.27,2.27c2.07,0.57,4.03-0.34,6.04,0.41
	c0.99,0.37,1.21,1.88,2.26,2.14c0.97,0.23,1.81-0.1,2.63-0.5c0.12,0.04,0.24,0.09,0.38,0.12c1.05,0.25,1.87-0.64,2.95-0.66
	c0.21,0,0.41,0.02,0.61,0.06c1.66,0.97,2.36,3.45,4.47,3.82c1.07,0.19,1.79-1.05,2.8-1.15c1.01-0.1,1.61,0.58,2.58,0.79
	c3.46,0.75,5.91,0.11,8.41-1.94c0.3,1.24,1.19,2.19,2.48,2.62c0.11,0.04,0.22,0.06,0.34,0.09c0.13,0.14,0.27,0.28,0.42,0.41
	c1.05,0.87,2.08,0.82,3.12,0.26c0.31,0.1,0.61,0.22,0.92,0.41c0.15,0.09,0.28,0.2,0.4,0.33c0.19,0.28,0.38,0.55,0.59,0.8
	c0.2,0.3,0.42,0.59,0.74,0.79c0.41,0.26,0.79,0.44,1.17,0.58c0.03,0.01,0.05,0.02,0.07,0.03c0.01,0,0.01,0,0.02,0
	c1.01,0.34,1.95,0.27,2.95-0.16c0.88,0.14,1.68,0.41,2.47,0.75c0.17,0.19,0.34,0.39,0.5,0.58c0.14-0.05,0.28-0.1,0.41-0.16
	c0.47,0.23,0.95,0.48,1.44,0.75c3.2,1.71,6.47,3.18,9.82,4.46c0.6,0.44,1.23,0.85,1.94,1.17c0.12-0.11,0.24-0.21,0.37-0.32
	c2.99,1.06,6.04,1.98,9.15,2.76c1.23,0.31,2.51,0.57,3.58,0.98c1.07,0.41,1.73,1.35,2.79,1.41c3.98,0.2,7.32-1.68,11.11-2.26
	c1.68,0.04,3.3,0.32,4.94,0.84c1.34,0.76,2.64,1.72,4.19,2.03c0.06,0.01,0.12,0.01,0.18,0.03c0.43,0.32,0.86,0.61,1.45,0.61
	c1.63-0.01,2.6-1.04,4.11-1.62c1.51-0.58,3.24-0.74,4.91-0.61c0.48,0.04,0.97,0.09,1.45,0.13c5.9,1.44,11.83,2.34,17.98,2.53
	c-0.07,0.29-0.13,0.56-0.22,0.86c0.59-0.3,1.08-0.62,1.5-0.97c1.04-0.24,1.88-0.81,2.86-1.32c0.38,0.97,0.71,1.95,1,2.96
	c0.31,1.27,0.82,2.45,2,3.32c2.12,1.58,4.02,0.65,5.19-1.46c0.93,2.82,2.16,4.78,5,5.99c1.54,0.65,3.18,1.09,4.83,1.53
	c0.95,2.16,1.81,4.35,2.61,6.56c2.12,6.85,3.57,13.86,3.57,21.38c0.04,2.25,0.01,4.59,0.94,6.64c0.34-1.91,0.67-3.81,1.01-5.72
	c0.1,0.77,0.23,1.53,0.31,2.3c0.11-0.4,0.21-0.81,0.32-1.21c0.25,1.62,0.49,3.25,0.74,4.87c0.14-2.85,0.42-5.69,0.82-8.52
	c0.14,0.54,0.27,1.07,0.41,1.61c0.5,2.52,1,5.03,1.5,7.55c0.06-0.34,0.09-0.69,0.14-1.03c0.31,2.17,0.6,4.37,0.88,6.61
	c0.96-0.04,1.89-0.16,2.81-0.52c0.49,1.84,1.15,3.56,2.01,5.25c0.45-0.27,0.87-0.58,1.3-0.88c0.37,2.18,0.76,4.36,1.17,6.54
	c-1.03,3.34-1.85,6.45-1.61,9.98c0.15,2.18,0.99,3.98,1.37,6.18c1.01,5.77,1.5,10.19,2.06,16.48c1.15,13.05,2.92,29.4,2.74,42.16
	c-0.04,2.77-0.39,4.37-0.77,5.9c-0.04-0.11-0.08-0.21-0.12-0.32c-0.78,2.06-1.7,3.34-2.19,5.62c-0.82,3.89-0.66,8.05-0.66,12.19
	c0.01,5.51-0.48,11.23-1.19,16.75c0.72-1.6,1.31-3.25,1.78-4.94c0,0.99,0.01,1.98,0.02,2.97c-0.17,2.54-0.4,5.07-0.71,7.6
	c0.28-1,0.55-2.01,0.83-3.01c0.05,1.26,0.09,2.51,0.16,3.78c0.48-0.6,1.02-1.08,1.55-1.62c0.02,0.04,0.05,0.08,0.07,0.13
	c0.01,0.16,0.02,0.32,0.02,0.48c0.01-0.13,0.02-0.25,0.03-0.38c0.51,0.97,1.11,1.84,1.85,2.66c0.19-1.19,0.46-2.35,0.83-3.5
	c0.27,1.35,0.71,2.58,1.34,3.8c1.18-2.07,1.85-4.09,2.11-6.46c0.05,1.37,0.22,2.71,0.55,4.03c0.17-0.93,0.35-1.87,0.52-2.8
	c0.27,0.5,0.55,0.99,0.85,1.48c-0.15-1.26-0.3-2.53-0.42-3.8c1.21-6.47,2.44-13.02,3.59-19.34c0.35-1.89,0.62-3.53,0.72-5.21
	c0.04,0.11,0.07,0.23,0.11,0.34c0.3-2.81-0.11-6.46-0.49-9.19c0.03-1.45,0.11-2.9,0.19-4.07c0.81-12.29,1.04-23.88,1.33-36.16
	c0.13-5.66,0.39-11.9,0.03-17.67c-0.46-2.51-0.45-4.58,0.38-7.02c0.48-1.41,1.46-2.57,1.64-4.15s-0.62-2.97-0.82-4.59
	c-0.47-3.8-0.75-7.17-0.09-11.1c2.26-13.47,5.3-26.65,9.79-39.65c0.21-0.39,0.41-0.77,0.63-1.16c0.2,0.2,0.43,0.38,0.68,0.5
	c-0.01-0.66,0.04-1.31,0.13-1.94c0.11-0.2,0.22-0.4,0.33-0.6c0.88-1.52,1.95-3,3.11-4.46c1.2-0.57,2.42-1.12,3.74-1.45
	c2.69-0.68,5.62-0.39,8.34-1.15c2.66-0.74,3.92-2.22,4.17-4.92c0.12-0.03,0.23-0.07,0.37-0.08c0.25,0.06,0.5,0.12,0.74,0.17
	c0.65,0.37,1.11,1.15,1.89,0.94c0.46-0.13,0.84-0.33,1.18-0.57c1.76,0.05,3.51-0.18,5.39-0.73c0.05-1.26,0.08-2.52,0.12-3.78
	c0.02-0.01,0.03-0.01,0.05-0.02c0.48-0.22,0.81-0.52,0.98-0.93c0.32-0.02,0.65-0.05,0.97-0.07c0.17,0.14,0.34,0.28,0.51,0.41
	c0.22-0.17,0.43-0.33,0.65-0.5c0.47-0.04,0.95-0.07,1.42-0.12c1.31,0.41,2.58,0.55,4.01,0.43c0-0.3,0.02-0.59,0.03-0.89
	c2.82-0.37,5.63-0.85,8.44-1.43c1.2-0.14,2.4-0.28,3.6-0.43c0.34,0.35,0.69,0.68,1.22,0.7c1.12,0.06,1.89-0.55,2.67-1.18
	c1.34-0.17,2.67-0.34,4-0.52c0.43,0.48,0.78,1.1,1.07,1.63c1.59-1.48,2.99-2.49,5.21-2.09c0.64,0.12,0.79,1.04,1.42,0.95
	c1.41-0.22,2.24-1.14,3.11-2.04c0.75-0.12,1.51-0.22,2.26-0.34c0.58-0.09,1.15-0.17,1.72-0.25c0.24,0.37,0.44,0.75,0.6,1.05
	c1.2,0.07,1.88-0.76,2.65-1.44c1.15-0.12,2.31-0.21,3.47-0.27c0.61-0.03,1.24-0.05,1.83-0.19c0.94,0.2,1.88,0.33,2.85,0.08
	c0.6-0.15,0.97-0.7,1.34-1.23c2.27,0.15,4.49,0.87,6.76,0.19c1.66-0.5,2.16-2.61,2.94-4c0.69,0.05,1.4,0.16,2.16,0.03
	c0.91-0.15,1.43-0.82,2.08-1.47c0.16,0.24,0.3,0.51,0.4,0.83c1-0.42,1.83-0.99,2.59-1.76c0.38-0.11,0.74-0.21,1.11-0.31
	c0.04,0.02,0.08,0.03,0.12,0.06c0.14-0.07,0.29-0.14,0.43-0.21c2.37-0.65,4.65-1.21,7.1-2.01c0.5,0.53,1.2,0.74,2.01,0.28
	c1.27-0.72,1.53-2.13,2.2-3.28c0.4-0.68,0.8-1.29,1.33-1.74c1.09-0.13,2.17-0.28,3.25-0.42c0,0,0,0,0,0
	c1.42-0.19,2.83-0.4,4.24-0.63c0.57,0.36,1.15,0.7,1.88,0.67c0.61-0.03,0.83-0.7,1.2-1.2c0.38-0.07,0.76-0.13,1.15-0.21
	c0.72-0.14,1.39-0.23,2.1-0.39c0.09,0,0.18-0.01,0.27-0.02c2.75-0.35,4.34-1.79,5.49-4.09c1.23,0.14,2.16-0.06,2.91-0.58
	c0.62-0.06,1.22-0.3,1.81-0.84c0.76-0.69,1.23-1.56,1.65-2.47c1.04-0.03,1.85-0.3,2.52-0.81c0.95,0.41,1.86,0.12,2.81-1.13
	c0.27-0.36,0.2-0.92,0.31-1.32c0.83,0.34,1.64,0.47,2.53,0.33c0.35,0.34,0.72,0.7,1.16,0.92c1.65,0.81,3.03-0.27,4.64-0.73
	c1.57-0.44,3.15-0.78,4.74-1.08c2.2-0.08,4.39-0.37,6.62-1.01c0.42-0.12,0.82-0.26,1.23-0.39c1.54-0.31,3.07-0.67,4.58-1.13
	c0.98-0.3,1.81-1.19,2.85-1.39s1.97,0.09,3.04-0.04c1.07-0.13,2.01-0.45,3.04-0.94c7.75-3.67,15.51-7.25,23.26-11.13
	c1.18-0.59,2.5-1.38,3.67-2.24c0.89-0.65,1.54-1.72,2.52-2.41c2.27-1.59,4.58-2.59,7.08-3.18c0.53-0.08,1.06-0.18,1.6-0.31
	c0.83-0.13,1.68-0.24,2.57-0.3c-1.34-1.11-2.42-2.33-3.35-3.79c0.38-0.03,0.76-0.06,1.14-0.09c2.29,0.07,4.45-0.1,6.58-0.52
	c1.37-0.11,2.73-0.22,4.1-0.32c-0.49-0.1-0.98-0.21-1.47-0.32c0.94-0.28,1.88-0.6,2.84-0.98
	C475.05,175.7,469.79,174.85,464.52,173.93z M232.11,363.91c-0.04,1.31-0.09,2.56-0.15,3.79c0.01-2.28,0.03-4.55,0.04-6.82
	C232.08,361.86,232.14,362.86,232.11,363.91z M225.9,368.15c0.87-7.49,0.76-14.57,0.75-21.31c-0.02-10.36-1.08-22.31-2.47-31.27
	c-0.65-4.17-1.64-3.78-2.22-6.04c-0.74-2.95-1.1-4.39-1.34-6.72c-0.18-1.72-0.35-3.42-0.53-5.12c0.14,0.11,0.28,0.23,0.42,0.33
	c0.39,0.58,0.83,1.11,1.5,1.49c1.27,0.72,2.6,0.6,3.71-0.36c0.34-0.3,0.37-0.66,0.33-1.04c0.2-0.12,0.39-0.23,0.57-0.36
	c0.64,0.55,1.27,1.09,2.15,1.24c1.19,0.2,1.82-0.39,2.27-1.43c0.55,0.25,1.1,0.5,1.64,0.76c-0.42,2.86-0.87,5.73-1.32,8.59
	c-0.3,0.65-0.63,1.28-1,1.91c-0.33,0.55-0.91,0.92-0.96,1.63c-0.07,0.91,0.31,1.52,0.91,2c-0.08,0.38-0.15,0.76-0.21,1.14
	c-0.08,0.04-0.16,0.08-0.23,0.13c0.08,0.07,0.13,0.14,0.19,0.22c-0.31,2.42-0.19,4.92-0.05,7.22c0.67,10.97,0.05,21.93,1.06,32.6
	c0.14,1.43,0.33,2.74,0.52,4.01c-0.04,4.33-0.01,8.67,0.18,13.02c-0.15,2.47-0.33,4.93-0.48,7.65c-0.12,2.03-0.17,4.61-0.94,6.85
	c-1.07,3.11-3.14,6.24-4.87,9.13c-0.13-3.8-0.44-7.43-0.52-11.34C224.87,378.76,225.47,371.93,225.9,368.15z"/>
</svg>
