<!-- Generator: Adobe Illustrator 23.0.4, SVG Export Plug-In  -->
<svg version="1.1" xmlns="http://www.w3.org/2000/svg" xmlns:xlink="http://www.w3.org/1999/xlink" x="0px" y="0px"
	 width="511.85px" height="454.9px" viewBox="0 0 511.85 454.9" style="enable-background:new 0 0 511.85 454.9;"
	 xml:space="preserve">
<style type="text/css">
	.st0{opacity:0.9;fill:#F9E4E4;}
	.st1{fill:#CD4F58;}
	.st2{fill:#332929;}
	.st3{fill:#F8EDF0;}
	.st4{fill:#230707;}
	.st5{opacity:0.8;fill:#3D1724;}
	.st6{opacity:0.8;fill:#CC7D7D;}
	.st7{opacity:0.8;fill:#E07575;}
	.st8{fill:#AF4653;}
	.st9{fill:#7A0113;}
	.st10{opacity:0.9;fill:#F5DAD7;}
	.st11{fill:#F78B98;}
	.st12{opacity:0.8;fill:#F8F6EE;}
	.st13{opacity:0.8;fill:#FCF0F0;}
	.st14{fill:#F9E4E4;}
	.st15{fill:#ECEDCD;}
	.st16{fill:#B69745;}
	.st17{opacity:0.3;fill:#ECEDCD;}
	.st18{fill:#F5E8AA;}
	.st19{opacity:0.7;fill:#F5E8AA;}
	.st20{opacity:0.4;fill:#D6D6D6;}
	.st21{opacity:0.3;fill:#D6D6D6;}
	.st22{fill:none;stroke:#000000;stroke-width:0.5;stroke-miterlimit:10;}
</style>
<defs>
</defs>
<path class="st0" d="M281.46,185.63c3.73,7.92,7.48,16.14,7.74,24.9c0.19,6.5-1.58,12.9-3.78,19.02
	c-8.57,23.81-23.88,45.09-29.62,69.73c-0.8-1.64-1.13-3.5-0.95-5.31c-1.53,3.75-3.06,7.5-4.59,11.25
	c-1.27-8.12-0.22-16.59,2.99-24.16c2.47-5.82,6.15-11.03,9.1-16.62c5.55-10.5,8.46-22.17,11.09-33.76
	c1.69-7.45,3.3-14.96,3.67-22.59c0.46-9.74-1.15-19.59-4.68-28.68c-1.23-3.17-4.07-8.29,1.49-5.65
	C277.41,175.43,279.93,182.37,281.46,185.63z"/>
<path class="st1" d="M265.66,251.1c4.85-6.28,7.91-13.94,8.71-21.84c1.24,2.9,1.69,6.13,1.29,9.26c1.42-2.56,2.47-5.31,3.12-8.17
	c0.03,1.26,0.06,2.52,0.09,3.78c0.62-0.29,1.1-0.88,1.25-1.55c0.03,0.81,0.05,1.63,0.08,2.44c1.32-1.67,2.64-3.33,3.97-5
	c-3.51,7.4-7.02,14.79-10.53,22.19c0.54-0.7,1.09-1.39,1.63-2.09c-0.15,0.15,1.03-0.15,0.88,0c-1.63,1.63-1.64,3.68-2.65,5.76
	c-1.48,3.06-2.17,6.15-3.37,9.33c-0.15-2.09-0.26-4.18-0.34-6.28c-0.72,1.34-1.66,2.57-2.78,3.61c0.21-0.74,0.16-1.56-0.12-2.27
	c-0.77,1.75-2.45,3.05-4.33,3.37C265.05,259.6,265.61,255.84,265.66,251.1z"/>
<path class="st0" d="M207.95,199.63c-4.13,8.25-6.05,17.46-6.79,26.65c-0.87,10.83-0.1,21.98,4,32.04c1.74,4.28,4.06,8.3,6.1,12.45
	c5.46,11.06,8.99,23.07,10.39,35.33c0.53-2,1.06-4,1.59-6.01c0.55,2.17,1.09,4.34,1.64,6.51c1.1-3.47,1.53-7.15,1.24-10.79
	c0.57,1.57,1.14,3.14,1.71,4.71c1.02-9.44-1.78-18.82-4.02-28.05c-3.93-16.16-6.12-32.83-5.75-49.48c0.18-8.25,1-16.5,2.59-24.61
	c1.3-6.68,6.22-15.67,5.8-22.16C219.11,182.61,212.31,190.92,207.95,199.63z"/>
<path class="st2" d="M219.38,302.88c0.04,2.25,0.01,4.59,0.94,6.64c0.42-2.38,0.84-4.76,1.26-7.14c0.37,2.46,0.75,4.92,1.12,7.38
	c0.15-2.94,0.43-5.87,0.85-8.79c0.62,3.14,1.24,6.29,1.87,9.43c2.91-17.08-3.86-34.37-12.62-49.33c0.54,2.38,1.09,4.77,1.63,7.15
	c-1.75-1.16-3.15-2.83-4-4.75c0.62,1.57,1.23,3.14,1.85,4.71c-0.67-0.61-1.34-1.22-2.02-1.82
	C215.01,278.23,219.38,289.77,219.38,302.88z"/>
<path class="st1" d="M210.53,270.13c-0.07-1.81-0.15-3.61-0.22-5.42c0.79,1.42,1.77,2.73,2.91,3.89c0.3-1.22,0.21-2.53-0.26-3.7
	c1.08,1.54,2,3.19,2.74,4.92c-0.46-3.26-1.95-6.26-3.17-9.31c-2.36-5.94-3.72-12.27-4.01-18.66c-1.72,2.31-2.54,5.27-2.25,8.13
	c-0.83-2.19-1.66-4.39-2.49-6.58c-0.08,2.27-0.11,4.54-0.28,6.8c-0.33-0.23-0.46-0.55-0.75-0.84
	C202.73,256.68,210.25,263.21,210.53,270.13z"/>
<path class="st2" d="M257.84,289.78c0.58-2.14,1.16-4.28,1.74-6.42c0.07,1.41,0.15,2.83,0.22,4.24c0.23-1.91,0.71-3.8,1.44-5.59
	c0.22,0.55,0.65,1.01,1.18,1.27c-0.09-5.48,3.65-10.15,5.95-15.12c1.9-4.11,2.85-8.59,3.79-13.02c-1.29,3.76-3.04,7.38-5.23,10.69
	c0.08-1.11-0.53-2.5-0.61-3.26C261.38,271.15,260.36,280.47,257.84,289.78z"/>
<path class="st3" d="M0.4,217.74c21.59,2.24,40.75-1.79,59.37-12.83c4.42-2.62,7.91-5.89,12.38-8.12
	c10.12-5.04,21.12-7.14,30.38-13.79c3-2.15,5.09-5.22,8.48-6.95c7.17-3.64,14.62-2.57,21.91,0.02c7.3,2.6,13.4,6.73,20.94,8.37
	c7.96,1.73,15.73,0.9,23.79-0.4c10.85-1.74,21.24-4.55,31.31-9.14c4.41-2.01,8.13-4.94,12.71-6.85c15.47-6.44,30.57-6.13,46.13,0.15
	c3.7,6.22,8.65,10.93,15.52,13.03c6.87,2.11,13.43,2.32,20.33,1.95c18.75-1.02,36.2-4.33,54.11-10.13
	c8.61-2.79,17.62-5.7,25.85-0.54c11.45,7.17,23.43,7.49,36.12,10.61c13.51,3.32,26.25,8.76,39.54,13.17
	c5.8,1.92,11.83,3.93,18.14,4.37c9.8,0.69,19.3-1.51,28.84-3.65c0.29,1.82-0.55,3.42-2.09,4.4c-1.54,0.98-3.24,1.18-4.98,1.43
	c-4.58,0.64-9.13,1.18-13.7,1.81c3.24,3.11,7.17,3.42,11.47,3.1s8.14-0.76,12.1,1.23c-8.61,1.32-17.02,1.6-25.7,0.83
	c6.82,4.05,13.8,6.87,21.53,8.68c-5.09-0.05-10.17-0.1-15.26-0.16c1.55,1.51,3.22,2.79,5.07,3.9c-3.33,1.1-6.32,1.03-9.61-0.18
	c-0.42,2.5-2.29,3.98-4.57,4.73s-4.67,0.78-6.82,1.6c-2.16,0.82-3.95,2.31-5.92,3.26c-1.97,0.95-3.99,1.44-6.02,1.92
	c-4.61,1.08-9.38,2.25-13.89,3.24c-6.62,1.46-12.98,2.85-19.64,3.65c-5.19,0.63-9.98,0.44-14.96-1.11
	c-0.94-0.29-1.82-0.71-2.73-0.63c-0.91,0.09-1.36,0.52-2.18,0.74c-2.08,0.55-3.81-0.02-5.41-1.42c-1.47,3.17-4.29,4.25-7.42,2.62
	c-1.15,3.6-4.4,4.81-7.51,2.59c-0.04,2.61-2.44,3.25-4.66,3.38c-1.17,0.07-2.27,0.04-3.41,0.07c-4.85,0.1-9.66,0.08-14.5-0.34
	c-0.01,2.68-2.48,3.51-4.78,3.75c-3.27,0.34-6.44,0.52-9.68,0.83c-0.85,0.73-1.74,1.13-2.86,1.26c-0.04-0.84-0.42-1.44-1.17-1.81
	c-0.81-1.9-2.28,0.13-3.28,1.23c-1,1.1-1.73,3.57-3.57,4c-3.07,0.72-5.52-2.53-8.65-1.93c-0.68,0.13-1.13,0.65-1.81,0.79
	c-0.68,0.14-1.36-0.01-2.04-0.14c-2.74-0.49-5.53-0.57-8.29-0.6c-7.99-0.09-15.94-0.23-23.92-0.3c-5.61,0.64-11.22,0.9-16.87,0.99
	c0.09,1.56,0.17,3.11,0.26,4.67c-3.11,1.45-5.89,1.35-9.07,0.16c0.92,2.47-0.58,4.6-2.85,5.54c-2.28,0.94-4.67,0.74-6.92,1.67
	c-1.81,0.75-3.09,2.09-4.66,3.27c-4.52,3.4-9.05,6.25-14.75,7.37c-5.7,1.12-11.51,0.52-16.56-2.38c-3.43-1.96-5.7-4.99-9.1-6.89
	c-2.44-1.36-5.05-1.81-7.56-3.11c-2.51-1.31-4.19-3.44-4.28-6.34c-0.52,2.48-3.38,3.57-5.52,2.16s-2.36-4.03-2.7-6.35
	c-1.33,1.22-2.79,2.11-4.61,2.42c-8.38,1.44-16.36,2.09-24.57-0.52c0.78,2.94-2.4,4.46-4.94,4.02s-4.58-2.78-7.29-2.58
	c-4.45,0.33-7.52,4.75-12.14,4.17c-1.07-0.13-1.68-0.82-2.79-1.17c-1.11-0.35-2.44-0.42-3.72-0.5c-7.74-0.51-14.96-2.14-22.21-5.01
	c-1.96-0.78-3.83-1.57-5.98-1.07c-0.81,0.19-1.42,0.73-2.27,0.73c-1.82,0-2.83-1.4-3.81-2.78c-0.9,1.4-2.54,1.75-3.98,0.94
	s-2.04-2.25-2.84-3.61c-2.09,3.74-5.41,5.54-9.67,4.8c-1.05-0.18-1.75-0.68-2.81-0.33c-1.07,0.35-1.57,1.7-2.74,1.95
	c-2.6,0.55-3.85-3.31-6.3-3.32s-3.47,3.39-5.98,3.01c-1.2-0.18-1.65-1.48-2.79-1.79c-2.32-0.63-4.15,1.55-6.5,1.28
	c-1.17-0.14-1.85-1.16-2.87-1.78c-2.49-1.51-5.19-1.4-8.06-1.58c-6.57-0.4-12.41-2.1-18.21-5.24c-1.55-0.84-2.82-1.99-3.1-3.79
	c-2.59,2.33-5.35,3.54-8.83,3.83c0.11-3.73,1.69-6.43,4.88-8.34c-1.75,1.47-4,2.8-6.11,3.48c-2.11,0.68-5.36,0.55-5.63-1.97
	c-0.27-2.52,2.41-3.2,4.49-3.98c4.84-1.81,8.95-4.66,12.22-8.8c-3.87,1.91-7.45,3.94-11.76,4.86S5.5,232,1.62,229.8
	c6.32-1.83,12.66-3.66,18.99-5.47c-3.91,0.21-7.68,0.57-11.54-0.35C5.21,223.06,2.31,221.28,0.4,217.74z"/>
<path class="st4" d="M62.79,203.68C44.04,216.21,22.23,218.72,0,217.84c7.8,4.87,15.43,5.98,24.29,3.54
	c-6.33,5.03-13.42,6.91-21.21,8.56c9.67,1.67,17.47-1.85,25.92-6.22c0.79,2.52-0.85,4.49-2.75,6c-6.06,4.8-12.46,8.63-19.42,11.95
	c5.08-1,9.94-2.43,14.75-4.36c-1.36,2.3-3,4.12-5.16,5.7c3.05,0.25,5.87-0.02,8.83-0.83c0.92,3.45,4.2,4.71,7.28,5.57
	c3.08,0.86,5.89,1.59,8.87,2.32c5.58,1.36,11.11,2.42,16.75,3.32c1.07,0.17,2.19,0.25,3.18,0.04s1.7-0.81,2.66-0.78
	c1.96,0.06,3.3,1.86,5.27,1.68c1.16-0.1,1.83-1.11,2.98-1.44c1.15-0.33,2.19,0.06,3.42,0.28c6.3,1.12,11.57-0.35,16.68-4.18
	c-0.51,2.01,1.66,3.58,3.46,3.61c1.8,0.04,3.4-0.74,5.09,0.07c0.84,0.41,1.15,1.18,1.96,1.67c2.05,1.24,4.21,0.65,5.69-1.21
	c0.69,0.55,1.36,1.11,2.04,1.67c0.86-0.47,1.72-0.95,2.59-1.42c0.6,1.43,1.42,2.98,3.16,2.77c0.67-0.08,0.99-0.76,1.64-0.81
	c3.13-0.24,3.92,3.82,7.06,3.56c0.72-1.07,1.58-1.8,2.78-2.28c0.1,1.72,1.78,2.11,3.27,2.18c1.94,0.09,3.9,0.09,5.84,0.17
	c1.03,0.51,2.05,1.03,3.08,1.54c0.82-0.92,1.78-1.45,2.98-1.61c0.5,1.91,2.53,1.09,4.08,0.3c4.26-2.15,8.72-2.25,12.98,0.29
	c0.79,0.47,1.31,1.09,2.27,1.07c1.59-0.03,2.35-1.29,3.7-2.14c1.35-0.84,3.12-1.09,4.77-1.22c7.01-0.53,14.03-1.09,21.05-1.54
	c0.83-6.22-0.59-11.81-4.75-16.48c-1.87-2.1-3.98-3.23-5.69-5.35c-1.38-1.71-2.05-3.62-3.27-5.46c-5.62-8.5-13.46-13.73-22.59-17.85
	c-9.13-4.12-18.21-7.11-26.7-12.38c-3.78-2.35-7.3-5.11-11.97-4.7c-2.4,0.21-4.26,1.63-6.34,2.68c-4.65,2.35-9.38,4.21-14.51,5.17
	c-1.66,0.31-3.32,0.54-4.92,0.04c-3.21-1.01-5.47-3.92-8.93-4.09c-1.27-0.06-2.37,0.56-3.47,1.01
	C73.2,200.55,67.99,200.2,62.79,203.68z"/>
<path class="st4" d="M289.04,252.12c0.28-1.28,0.57-2.56,0.85-3.84c6.14-6.72,9.4-14.01,10.92-22.96c1.06,0.25,1.94,0.7,2.79,1.39
	c0.99-3.95,1.98-7.89,2.96-11.84c1.17,1.75,2.33,3.5,3.5,5.24c0.68-2.75,1.36-5.51,2.04-8.26c2.28,0.65,4.1,0.01,5.56-1.84
	c1.95,0.99,3.82,0.31,5.66-0.57c2.16-1.04,4.23-2.04,6.34-3.08c3.95-1.95,7.79-3.77,11.67-5.88c8.03-4.36,15.63-8.77,24.79-10.23
	c0.91-1.09,1.94-1.69,3.34-1.89c7.02-2.15,13.38-1.98,20.27,0.54c-0.23-1.13,1.38-1.51,2.27-1.19s1.44,1.32,2.23,1.87
	s1.91,0.63,2.32-0.4c0.65,0.8,1.37,1.35,2.36,1.68c0.48-1.07,1.47-1.55,2.61-1.28c1.14,0.27,1.89,1.07,2.76,1.78
	c0.34-0.86,0.85-1.51,1.65-2c1.51,2.07,4.05,1.63,4.85-0.79c2.6,1.67,5.11,1.95,7.97,0.72c0.37-1.24,0.78-2.48,1.11-3.72
	c13.06,3.96,25.24,7.49,38.69,10.85c15.57,3.89,31.69,4.81,47.77,2.4c-0.51,1.79-2.1,2.59-3.8,3.07
	c-7.04,1.99-13.94,2.86-21.24,2.85c9.41,1.43,18.82,2.86,28.23,4.29c-9.88,3.62-18.85,3.64-28.74,0.08
	c2.15,2.03,4.82,2.89,7.61,3.61c6.05,1.55,11.98,3.06,18,4.6c-4.64,1.9-8.93,2.19-13.78,0.9c0.72,1.72,1.73,3.06,3.17,4.23
	c-4.49-0.63-8.33,0.22-12.06,2.76c-1.05,0.72-1.82,1.59-2.86,2.23c-1.36,0.85-2.84,1.41-4.33,1.91c-9.8,3.3-19.67,6.36-29.61,9.06
	c-1.33,0.36-2.58,0.64-3.89,0.59s-2.38-0.46-3.68-0.4c-1.3,0.06-2.43,0.79-3.68,1.12c-7.19,1.91-14.43-0.58-21.62,0.9
	c-2.05,0.42-4.03,1.37-5.76,0.08c-1.28-0.96-1.98-3.1-3.66-2.46c-0.73,0.28-0.56,1.14-1.01,1.75c-1.57,2.14-4.19,1.43-5.23-0.88
	c-1.08,1.51-1.92,3.07-3.58,4.04c-1.66,0.97-3.43,0.8-4.89-0.46c-1.4,3.14-4.02,4.77-7.41,4.08c-1.27-0.26-2.22-0.94-3.4-0.42
	c-0.83,0.36-1.08,1.41-1.99,1.44c-1.79,0.07-2.39-2.48-4.14-2.44c-0.94,0.02-1.34,1.15-2.22,1.28c-0.88,0.12-1.43-0.52-2.28-0.64
	c-1.44-0.2-2.37,0.84-3.17,1.92c-0.8,1.09-1.34,2.42-2.69,2.91c-1.35,0.48-2.79-0.52-2.68-1.98c-2.57,0.68-5.11,1.38-7.68,2.08
	c-0.8-1.26-2.91-0.52-3.9,0.04c-0.99,0.57-1.8,1.57-2.91,1.54c-1.54-0.03-3.12-1.63-4.42-0.47c-0.53,0.48-0.26,1.38-0.8,1.84
	c-1.57,1.34-3.44-1.09-5.29-0.87c-1.18,0.14-1.63,1.86-2.84,2.19c-2.41,0.65-4.29-2.49-6.67-1.91c-1.48,0.36-2.22,2.54-3.88,1.74
	c-0.35-0.98-1.04-2.8-2.3-2.72c-2.23,0.13-2.96,3.77-5.24,3.01c-0.6-0.2-0.7-0.92-1.23-1.3c-1.85-1.31-3.65-0.01-5.16,1.3
	c-0.48-1.19-1.34-3.03-2.78-2.97c-1.93,0.07-2.92,2.81-4.84,2.1c-1-0.37-1.17-1.74-2.24-1.98c-0.56-0.13-0.95,0.17-1.45,0.38
	c-2.65,1.1-5.07,1.02-7.72-0.1C288.13,253.09,288.94,252.21,289.04,252.12z"/>
<path class="st5" d="M105.88,226.23c0.54,2.13,1.06,4.27,1.59,6.4c1.69-4.9,3.37-9.79,5.02-14.7c-0.07,3.3-0.16,6.6-0.25,9.9
	c0.83-1.46,1.66-2.92,2.49-4.38c-0.11,2.51,0.7,4.44,2.67,6.01c0.69-3.11,1.39-6.22,2.08-9.33c0.43,3.94,0.85,7.87,1.28,11.81
	c1.15-2.67,2.29-5.33,3.44-8c0.09,1.99,0.18,3.97,0.28,5.96c0.37-0.97,0.75-1.94,1.12-2.91c0.07,2.93,0.76,5.45,2.24,7.98
	c0.18-3.06,0.86-5.84,2.1-8.64c-0.09,2.44,0.07,4.81,0.51,7.22c-0.07-1.2,0.15-2.24,0.69-3.31c0.22,0.96,0.43,1.92,0.65,2.88
	c1.37-0.06,2.39,0.41,3.22,1.51c0.26-2.29,0.82-4.42,1.73-6.54c-0.07,2.53,0.2,4.93,0.84,7.37c0.42-2.47,1.16-4.73,2.28-6.96
	c0.03,2.11,0.07,4.21,0.12,6.32c0.37-0.67,0.74-1.35,1.11-2.02c-0.06,1.53,0.22,2.87,0.94,4.23c1.09-2.54,2.19-5.08,3.29-7.62
	c0.09,3.36,0.19,6.73,0.29,10.09c0.54-2.6,1.34-5.04,2.43-7.46c-0.01,2.04,0.3,3.93,0.98,5.86c0.36-1.16,0.73-2.33,1.09-3.49
	c-0.16,3.2,0.28,6.11,1.38,9.11c0.73-4.85,1.46-9.7,2.19-14.54c0.4,4.51,0.51,9,0.35,13.52c0.52-3.73,1.36-7.33,2.53-10.91
	c0.12,2.17,0.24,4.35,0.36,6.52c0.29-1.31,0.59-2.63,0.88-3.93c0.52,0.76,0.29,1.69,0.08,2.5s-0.31,1.91,0.38,2.36
	c0.7,0.45,1.72-0.74,0.94-1.14c-0.11,1.15,0.12,2.14,0.8,3.11c0.12-4.42,1.23-8.2,3.5-12c-0.62,6.41-0.26,12.48,1.18,18.75
	c-0.63-2.14-1.25-4.28-1.88-6.42c-1.18,3.32-1.69,6.55-1.55,10.08c-0.32-2.12-0.64-4.25-0.96-6.37c-0.63,1.23-2.26,1.26-2.73-0.11
	c-0.67,3.58-1.16,7.17-1.48,10.8c-0.2-3.56-1.16-6.58-3.12-9.56c-0.99,4.96-2.82,9.24-5.65,13.42c1.15-4.81,1.68-9.53,1.59-14.47
	c-0.46,1.46-0.92,2.91-1.38,4.37c-0.2-1.7-0.4-3.41-0.6-5.11c-0.29,1-0.57,2.01-0.86,3.01c-0.18-1.98-0.65-3.8-1.5-5.6
	c-1.16,6.05-3.54,11.01-7.53,15.7c0.74-4.52,1.49-9.05,2.23-13.57c-0.3,5.48-2.53,9.53-7.02,12.69c2.11-5.26,3.22-10.46,3.41-16.13
	c-0.87,1.29-1.74,2.58-2.6,3.86c0.15-0.61,0.4-1.35,0.01-1.89s-1.3-0.4-1.35,0.29c-0.19-0.88-0.37-1.77-0.55-2.65
	c-1.84,5.81-4.8,10.29-9.46,14.21c2.41-4.74,3.7-9.45,3.97-14.77c-3.48,5.77-7.89,9.63-14.13,12.18c4.15-3.63,6.05-7.89,6.02-13.4
	c-3.76,5.2-8.08,9.23-13.58,12.55c4.65-3.66,6.86-8.11,7.07-14.01c-2.87,6.22-6.77,10.75-12.61,14.35
	c3.39-3.24,5.35-6.82,6.27-11.41c-1.8,3.9-8.43,11.14-13.19,8.95C98.7,242.16,103.82,235.96,105.88,226.23z"/>
<path class="st5" d="M307.3,242.79c1.21-4.86,2.4-9.75,3.61-14.62c0.05,2,0.27,3.96,0.67,5.93c0.31-0.62,0.62-1.23,0.93-1.85
	c-0.41,1.18-0.03,2.18,0.76,3.04c0.7,0.76,1.16,1.57,1.82,2.34c2.92-5.49,4.9-11.08,6.12-17.17c-0.11,4.15-0.21,8.29-0.32,12.44
	c1.37-5.14,3.3-9.86,5.96-14.46c-1.44,5.4-2.55,10.84-3.34,16.37c0.61-2.24,1.23-4.48,1.84-6.72c0.03,1.59,0.07,3.19,0.1,4.78
	c0.7-1.08,1.18-2.19,1.5-3.43c-0.12,1.84,0.09,3.53,0.65,5.28c0.8-4.27,2.01-8.32,3.68-12.32c-0.54,4.47-0.72,8.9-0.57,13.4
	c0.4-3.31,1.46-6.08,3.5-8.73c-0.09,1.77-0.18,3.54-0.27,5.31c0.33-0.98,0.66-1.95,0.99-2.93c0.23,2.78,0.8,5.39,1.74,8.01
	c1.96-6.25,2.9-12.4,2.94-18.95c0.42,6.39,0.34,12.7-0.24,19.08c0.92-3.48,2.02-6.87,3.33-10.23c-0.03,2.6-0.06,5.2-0.08,7.79
	c0.08-1.19,0.32-2.28,0.78-3.38c-0.16,3.22,0.42,6.04,1.89,8.91c0.71-5.07,2.06-9.8,4.07-14.51c-0.94,7.41-0.67,14.39,0.81,21.71
	c-0.46-2.82-1.16-5.53-2.11-8.23c-1.06,3.23-1.78,6.46-2.2,9.83c-0.82-2.61-1.28-5.2-1.39-7.93c-0.35,1.1-0.7,2.2-1.05,3.3
	c-0.09-1.53-0.42-2.94-1-4.36c-0.22,0.6-0.44,1.21-0.66,1.81c-0.42-0.48-0.83-0.97-1.25-1.45c-0.37,3.32-0.74,6.64-1.11,9.96
	c-1.02-3.62-1.86-7.26-2.46-10.98c-0.4,3.78-1.32,7.21-3.02,10.62c0.32-3.53,0.13-6.92-0.47-10.41c-0.13,3.15-0.96,5.79-2.8,8.36
	c0.62-3.55,0.26-6.72-1.09-10.06c-1.1,3.95-2.77,7.34-5.27,10.59c0.66-2.82,0.99-5.6,0.98-8.49c-0.3,0.78-0.59,1.56-0.89,2.33
	c-0.09-0.48-0.13-1.03-0.53-1.35c-0.4-0.32-0.96-0.14-1.01,0.37c-0.02-2.2-0.47-4.17-1.42-6.16c-0.71,4.99-2.36,9.2-5.31,13.29
	c1.13-2.88,1.73-5.74,1.89-8.82c-0.38,2.32-1.36,4.04-3.31,5.37c-0.02-1.49-0.04-2.99-0.06-4.48c-1.2,0.55-1.77,1.49-1.89,2.78
	c-0.18-1.49-0.55-2.88-1.13-4.27c0.38,3.97-3.6,7.25-6.68,9.18C306.09,246.83,306.77,244.91,307.3,242.79z"/>
<path class="st5" d="M415.23,239.25c-2.32-2.65-3.17-5.55-2.73-9.04c3.5,2.62,6.52,5.56,9.28,8.95c-1.21-2.59-2.43-5.17-3.64-7.76
	c0.44,0.78,0.89,1.57,1.33,2.35c0.06-0.71,0.01-1.55,0.59-2.06c0.58-0.51,1.43-0.13,1.48,0.61c0.31-1.43,0.61-2.88,0.92-4.32
	c3.07,5.89,7.4,9.37,14.02,10.36c-4.87-3.19-7.66-7.32-9.26-12.89c2.59,2.88,5.43,5.09,8.88,6.83c-0.96-1.59-1.46-3.19-1.58-5.05
	c0.53,0.72,1.06,1.43,1.59,2.15c0.04-1.71,0.08-3.43,0.13-5.14c4.96,5.99,10.65,9.15,18.39,9.95c-6.15-1.14-9.98-4.42-12.5-10.1
	c2.44,1.47,4.85,2.99,7.34,4.37c-0.05-1.76-0.4-3.35-1.08-4.97c0.22,1,0.71,1.71,1.58,2.25c0.21-1.86,0.41-3.73,0.62-5.59
	c0.82,1.23,1.77,2.2,2.99,3.04c0.03-1.1,0.06-2.19,0.08-3.29c2.87,4.87,6.76,7.55,12.35,8.41c-7.05-4.84-11.6-10.71-14.53-18.74
	c-0.13,2.15-0.26,4.3-0.37,6.45c-0.94-0.45-1.89-0.93-2.83-1.36c-0.44,2.7-2.07,5.12-5.05,5.2c-2.97,0.08-4.77-2.28-5.45-4.94
	c-0.51,2.38-0.17,4.5,0.98,6.66c-1.29-1.34-3.17-2.57-4.88-1.77c-0.74,0.35-1.81,0.83-1.81-0.05c-0.19,1.43-0.46,2.87-0.68,4.31
	c-2.68-3.09-5.38-6.18-8.08-9.26c1.05,3.5,2.11,7.01,3.16,10.51c-1.5-1.24-3.02-2.45-4.49-3.71c0.31,1.16-0.26,2.3-1.56,2.23
	c-0.05,0.87-0.11,1.75-0.16,2.62c-0.58-0.87-1.16-1.74-1.74-2.62c-0.2,1.33-0.39,2.66-0.59,3.99c-2.76-3-5.52-6-8.28-9
	c0.43,3.23,1.36,6.12,2.91,8.99c-3.24-1.81-5.63-4.12-7.66-7.22c0.1,3.28,0.84,6.18,2.32,9.1c-4.04-5.56-7.95-11.19-12.36-16.46
	C397.51,225.08,404.78,233.38,415.23,239.25z"/>
<path class="st1" d="M183.33,240.96c0.69,3.08,1.09,6.47,4.36,7.77c0.09-0.87,0.18-1.76,0.27-2.64c3.33,3.31,3.76,7.2,1.84,11.4
	c2.06-0.93,3.25-2.38,3.63-4.62c1.04,1.47,1.74,2.98,2.2,4.72c0.33-0.68,0.65-1.36,0.98-2.05c0.12,2.78,1.82,4.51,4.62,4.53
	c-0.24-1.83,0.16-3.34,1.22-4.84c0.15,2.97,1.05,5.37,2.94,7.67c0.06-1.55,0.11-3.1,0.17-4.64c0.43,1.62,1.19,2.87,2.45,3.97
	c0.04-1.07,0.08-2.14,0.12-3.21c0.49,3.48,2.02,5.79,5.05,7.57c0.02-1.43,0.04-2.85,0.06-4.28c-0.14,1.54,0.31,2.73,1.42,3.81
	c-1.69-6.4-2.48-12.67-2.44-19.31c0.01-2.7,0.06-5.38-2.12-7.32c-1.05,4.15-2.53,8.03-4.52,11.82c-2.08-2.36-3.1-4.86-3.3-8
	c-0.54,1.06-0.85,2.12-0.95,3.31c-0.5-1.09-1-2.18-1.5-3.28c0.05,0.85-0.24,1.51-0.87,2.07c-0.97-2.52-2.11-4.91-3.48-7.24
	c-0.88,1.21-1.54,2.46-2.01,3.88c-0.5-1.41-0.99-2.81-1.49-4.22c-0.61,0.17-0.94,0.65-0.84,1.28c-0.31-0.62-0.62-1.25-0.92-1.87
	c0.42-0.04,0.31,0.65-0.06,0.71c-0.37,0.06-0.67-0.28-0.89-0.6c-1.36-1.97-2.73-3.97-4.09-5.95c-0.11,1.73-0.52,3.28-1.26,4.84
	c-1.24-2.67-1.59-5.18-1.26-8.13c-0.55,2.28-2.69,1.8-2.41,4.75C180.46,235.26,182.74,238.33,183.33,240.96z"/>
<path class="st1" d="M257.95,266.52c2.96-0.15,7.11-0.85,9.07-3.54c0.99-1.36,1.06-3.78,3.08-3.73c1.1,0.03,1.55,1.35,2.56,1.32
	c2.28-0.08,2.09-3.47,3.72-4.69c0.58-0.44,1.5-0.25,2.21-0.53c0.71-0.28,1.31-0.97,0.9-1.76c0.47,0.37,0.94,0.75,1.41,1.13
	c0.4-0.29,0.81-0.58,1.21-0.87c1.56,0.91,3.03,1.29,4.83,1.08c-0.18-2.9,0.1-5.61,0.92-8.39c0.18,0.65,0.87,0.98,1.48,0.68
	c0.61-0.3,0.88-0.88,1.17-1.47c2.71-5.58,5.44-11.22,8.15-16.78c0.33-0.67,0.53-1.67-0.24-1.96c-0.37-0.14-0.64,0.2-0.89,0.44
	c-0.82,0.79-1.64,1.67-2.46,2.48c-0.61-0.57-1.27-0.92-2.1-1.06c-0.07,0.58-0.06,1.2-0.45,1.67s-1.04,0.49-1.41,0
	c-0.25,0.7-0.48,1.4-0.73,2.1c-1.05-0.44-1.9-1.05-2.66-1.9c0.1,1.77-0.39,3.18-1.72,4.38c-0.78-0.82-1.59-1.61-2.41-2.4
	c-0.21,1.14-0.43,2.28-0.64,3.42c-0.48-0.28-0.97-0.57-1.45-0.85c-0.58,1.5-1.41,2.65-2.66,3.65c-0.4-0.67-0.81-1.33-1.21-2
	c-0.65,2.21-1.69,3.96-3.37,5.54c-0.3-0.6-0.6-1.21-0.9-1.81c-1.65,2.78-3.29,5.59-4.95,8.36c-0.33,0.55-0.67,1.12-1.33,1.24
	c-0.65,0.12-1.29-0.5-1.01-1.13c-0.48,1.35-1.1,2.54-2.05,3.64c-0.17-0.71-0.48-1.38-0.65-2.1c-1.21,2.81-2.33,5.31-3.62,8.3
	C259.38,259.84,257.85,266.53,257.95,266.52z"/>
<path class="st6" d="M201.3,259.05c0.47-1.55,0.94-3.1,1.41-4.65c0.46,1.1,0.92,2.2,1.39,3.3c0.62-1.15,1.24-2.3,1.86-3.45
	c0.21,3.14,1.21,5.65,3.29,8.02c0.11-1.96,0.22-3.93,0.33-5.89c1.01,4.18,2.78,7.51,5.73,10.64c-0.87-9.14-1.34-18.27-1.4-27.45
	c-0.95,2.1-1.72,4.24-2.34,6.47c-0.76-2.12-1.52-4.24-2.28-6.36c-0.39,2.81-0.79,5.62-1.18,8.42c-1.4-2.08-2.37-4.24-3.02-6.66
	c-0.22,2.09-0.3,4.16-0.26,6.26c-0.8-1.62-1.61-3.24-2.41-4.86c0.3,1.15-0.11,2.39-0.36,3.53c-0.56-0.26-1.15-0.27-1.74-0.43
	C200.58,250.32,201.26,254.65,201.3,259.05z"/>
<path class="st6" d="M257.1,267.39c1.28-1.63,2.55-3.34,3.82-5c0.05,0.96,0.28,1.8,0.72,2.65c0.41-1.25,0.97-2.35,1.75-3.41
	c0.06,0.53,0.11,1.06,0.17,1.59c1.04-1.75,2.08-3.5,3.13-5.25c0.22,1.92,0.1,3.66-0.52,5.51c2.82-5.03,5.12-10.16,6.99-15.62
	c-1.02,1.43-1.84,2.92-2.51,4.54c-0.02-3,0.72-5.48,2.45-7.93c-2.57,2.13-4.22,4.53-5.3,7.69c-0.27-1.81-0.22-3.52,0.17-5.31
	c-0.97,2.06-1.98,3.9-3.62,5.51c-0.02-1.12-0.39-2.09-0.59-3.2c-1.52,3.28-3.1,5.83-4.48,9.36
	C258.31,260.98,258.51,264.9,257.1,267.39z"/>
<path class="st7" d="M93.92,190.88c2.71-1.12,5.39-2.23,7.85-3.86c2.04-1.35,3.78-3.08,5.74-4.53c3.13-2.32,6.47-4.22,9.94-6
	c1.66-0.86,3.3-1.73,5.23-1.64c2.35,0.11,4,1.64,5.94,2.83c8.53,5.26,17.51,7.9,27.49,8.42c9.97,0.52,19.55-0.86,29.4-2.04
	c8.72-1.04,17.35-2.4,25.78-4.94c0.89,4.18-1.14,7.75-4.58,10.04c-3.44,2.29-7.33,2.98-11.09,4.35c-5.71,2.08-10.8,5.22-16.4,7.57
	c-5.61,2.35-11.39,3.56-17.3,1.93c-3.45-0.95-5.91-3.21-8.92-4.91c-7.36-4.16-15.07-6.95-23.2-9.33c-2.15-0.63-4.15-1.46-6.53-1.21
	c-8.34,0.88-13.02,8.09-20.4,11.55c-4.74,2.22-9.49,1.66-14.98,1.57c-3.85-0.07-9.91,0.81-13.42-1.84
	C80.73,195.77,87.43,193.56,93.92,190.88z"/>
<path class="st7" d="M269.09,188.77c13.54-1.73,23.47,7.69,36.09,10.49c9.96,2.21,19.02-1.47,28.35-4.59
	c6.87-2.3,13.22-5.05,20.2-7.42c6.98-2.37,14.08-5.04,21.67-3.59c9.76,1.86,17.3,9.65,27.29,10.85c7.82,0.94,14.4-3.23,21.13-6.65
	c-11.93-4.33-23.76-8.79-35.78-12.9c-4.65-1.59-9.3-3.33-14.29-3.49c-10.46-0.34-19.38,4.43-29.17,7.33
	c-12.3,3.65-24.35,4.68-37.15,3.92c-12.8-0.76-25.26-4.72-38.1-5.47C269.32,180.51,271.1,185.88,269.09,188.77z"/>
<path class="st8" d="M129.05,185.17c1.11,3.32,3.69,4.88,7.15,4.34c-0.12,1.72,0.34,3.09,1.52,4.36c0.22-1.28,0.79-2.24,1.82-3.03
	c0.17,1.26,0.35,2.52,0.52,3.78c0.6-0.73,1.2-1.46,1.8-2.18c0.3,1.15,0.59,2.3,0.89,3.45c0.96-0.26,1.62-0.78,2.1-1.65
	c0.95,1.25,1.9,2.49,2.84,3.75c0.09-1.57,0.72-2.74,1.98-3.68c0.45,2.25,1.14,4.36,2.1,6.44c0.53-1.32,1.07-2.64,1.6-3.96
	c0.32,1.47,0.63,2.93,0.95,4.4c0.47-1.08,0.93-2.15,1.4-3.23c0.71,1.43,1.42,2.86,2.12,4.3c0.33-1.02,0.67-2.04,1-3.06
	c0.56,0.84,1.11,1.68,1.67,2.52c0.85-0.77,1.7-1.53,2.55-2.29c0.07,1.83,0.43,3.52,1.1,5.23c0.84-2.15,2.05-3.81,3.85-5.27
	c-0.02,1.52-0.03,3.05-0.05,4.57c0.77-2.04,1.95-3.53,3.77-4.73c0.08,0.92,0.15,1.84,0.23,2.76c0.93-0.76,1.46-1.64,1.68-2.83
	c-0.07,0.97,0.24,1.72,1.01,2.32c0.1-1.02,1.63-1.08,1.69-0.02c1.66-2.17,3.56-3.88,5.9-5.29c0.05,0.85,0.11,1.7,0.16,2.55
	c0.77-1.39,1.7-2.57,2.87-3.64c0.02,0.84,0.04,1.68,0.06,2.51c2.01-1.29,3.78-2.77,5.38-4.55c0.12,0.83,0.49,1.43,1.18,1.91
	c0.76-1.83,1.83-3.23,3.41-4.43c0.07,1.59,0.14,3.19,0.21,4.78c0.51-2.27,1.69-3.83,3.73-4.94c0.04,0.89,0.09,1.78,0.13,2.68
	c0.43-0.45,0.87-0.89,1.3-1.34c2.7,0.34,5.39,0.72,8.08,1.1c-1.17-1.4-1.66-2.88-1.6-4.7c-0.93,0.64-1.85,1.29-2.78,1.93
	c-2.71-2.28-5.79-1.92-9.08-1.33c-1.24,0.22-2.38,0.47-3.6,0.69c-2.16,1.38-4.34,2.74-6.49,4.14c0.41-1.54,0.23-2.86-0.66-4.2
	c-0.98,1.54-1.96,3.09-2.93,4.63c-0.07-0.84-0.15-1.69-0.22-2.53c-0.09,1.16-1.4,1.71-2.19,0.79c-0.62,1.02-1.24,2.04-1.86,3.06
	c-0.12-1.09-1.6-1.09-1.85-0.06c0.1-1.23-0.23-2.21-1.13-3.05c-0.15,0.72-0.53,1.74-1.3,1.85c-0.77,0.11-1.15-1.27-0.32-1.28
	c-0.55,1.05-1.12,2.13-1.67,3.2c-0.07-0.86-0.14-1.72-0.21-2.59c-0.84,0.59-1.68,1.18-2.52,1.77c0.48-1.05-1.1-1.72-1.58-0.7
	c-0.07-1.45-0.14-2.89-0.22-4.34c-1.43,1.6-2.55,3.3-3.45,5.26c0.32-1.63-0.06-2.97-1.27-4.12c-0.6,1.11-0.91,2.21-0.95,3.47
	c-0.33-0.63-0.67-1.28-1-1.91c0.66,0.1,0.15,1.04-0.38,1.04c-0.53,0.01-1.03-0.61-1.54-0.79c-0.51-0.18-1.35,0.13-1.11,0.77
	c-0.03-1.1-1.51-1.2-1.82-0.18c-0.35-1-0.7-1.99-1.05-2.99c-0.86,0.7-1.71,1.4-2.57,2.1c-0.15-0.95-0.3-1.9-0.45-2.85
	c-0.92,0.13-1.46,0.75-1.48,1.67c-1.32-1.58-3.02-1.92-4.89-1.11c-0.84-1.5-1.68-3.01-2.53-4.51c-0.67,0.98-1.34,1.97-2.01,2.95
	c-0.08-1.77-0.56-3.24-1.56-4.7c-0.65,0.81-1.3,1.61-1.95,2.42c-3.26-1.94-9.15-6.6-9.68-0.27
	C127.66,186.02,128.35,185.59,129.05,185.17z"/>
<path class="st9" d="M290.07,190.75c-0.51,0.34-0.38,1.12,0.12,1.43c0.5,0.31,1.07,0.13,1.61-0.03c1.32-0.4,2.63-0.84,3.94-1.24
	c0.67,1.71,1.37,3.41,2.06,5.11c0.33-1.24,0.67-2.47,1-3.71c0.65,1.46,1.54,2.52,2.91,3.34c0.1-0.58,0.73-0.54,1.2-0.35
	c1.78,0.73,3.58,1.51,5.37,2.25c0.26-1.01,0.52-2.01,0.77-3.02c0.23,1.59,0.73,2.98,1.58,4.35c0.09-0.9,0.36-1.67,0.86-2.43
	c0.07,1.13,0.45,2.03,1.25,2.84c0.26-1.5,1.93,0.12,2.32,0.73c0.45-0.66,0.9-1.33,1.35-1.99c0.83,0.84,1.72,1.32,2.89,1.49
	c0.47-0.99,0.93-1.98,1.4-2.97c0.65,1.04,1.29,2.08,1.94,3.12c0.45-1.14,0.9-2.29,1.35-3.43c0.4,0.76,0.79,1.52,1.19,2.27
	c0.83-0.58,1.84-1.43,2.62-1.95c0.52-0.34,1.74,0.27,1.13,0.5c1.91-1.58,3.83-3.19,5.75-4.79c0.47,0.7,0.94,1.4,1.42,2.1
	c0.57-0.74,1.15-1.49,1.71-2.22c-0.25,1.25,1.52,0.99,2.26,0.41c0.74-0.58,1.68-1.55,2.46-2.21c2.69-0.3,4.5-1.55,5.87-3.86
	c0.43,0.68,0.85,1.37,1.28,2.05c3.7-2.92,7.56-4.75,12.18-5.68c2.27-1.85,4.6-2.37,7.45-1.68c-0.42-1.69-1.11-3.15-2.16-4.54
	c-2.77,1.6-5.59,3.22-8.51,4.49c-1.49,0.65-3.64,0.67-3.89-1.23c0.07,0.83-0.18,1.9-0.95,2.32c-1.58,0.86-3.17,1.41-4.75,2.2
	c-0.42-0.29-0.85-0.55-1.27-0.83c-2.22-0.08-3.9,0.63-5.44,2.23c-0.19-0.76-0.38-1.52-0.57-2.28c-0.62,0.87-0.93,1.77-1.03,2.84
	c-0.19-0.74-0.64-1.24-1.41-1.38c-0.18,0.67-0.36,1.34-0.53,2.02c-1.93-0.53-3.45,0.04-4.62,1.64c0.02-1.02-0.23-1.87-0.78-2.72
	c-0.62,1.54-0.95,3.07-1.06,4.72c-0.25-1.32-0.5-2.65-0.74-3.97c-0.39,0.96-0.77,1.92-1.16,2.88c-0.13-0.9-1.21-0.41-1.7-0.23
	s-1.7-0.48-1-0.84c-1.08,0.82-1.7,1.83-2.04,3.15c-0.55-1.31-1.1-2.61-1.64-3.92c-0.24,1.49-0.48,2.97-0.72,4.46
	c-0.29-1.15-0.58-2.3-0.87-3.45c-0.87,0.83-1.21,1.79-1.2,2.98c-0.5-0.83-1.01-1.67-1.51-2.49c-0.02,0.58,0.03,1.31-0.45,1.7
	s-1.22-0.05-1.07-0.65c-0.07,1.26-0.61,2.2-1.8,2.71c-0.1-1.56-0.44-2.98-1.07-4.41c-0.47,1.16-0.95,2.32-1.42,3.47
	c-0.17-0.8-0.34-1.6-0.51-2.4c-0.27,0.78-0.54,1.58-0.8,2.36c0.19-0.58-0.32-1.24-0.95-1.06s-0.8,0.89-0.86,1.47
	c-0.19-0.75-0.38-1.51-0.57-2.27c-1.17,0.77-2.35,1.55-3.52,2.32c-0.38-1.4-0.77-2.8-1.15-4.2c-0.29,1.13-0.59,2.27-0.88,3.4
	c-0.42-1.15-0.84-2.3-1.26-3.45c0.01,1.47-1.42,1.8-2.67,1.67c-1.25-0.13-2.58-0.36-3.24,0.95c-0.27-0.87-0.52-1.75-0.77-2.62
	c-0.47,0.64-0.94,1.29-1.41,1.93c-0.97-0.76-1.94-1.53-2.91-2.29c-2.07,1.25-4.11,0.97-6.42,1.14c0,0.79,0.16,1.45,0.47,2.18
	c0.72,0.33,1.45,0.62,2.16,0.96C289.14,191.71,289.6,191.22,290.07,190.75z"/>
<path class="st10" d="M213.07,189.38c-1.58,17.55-1.56,34.89-0.11,52.45c-1.52-1.05-2.66-2.29-3.59-3.88
	c-0.77,3.09-1.54,6.19-2.3,9.28c-1.32-1.93-1.77-3.86-1.51-6.17c-0.85,2.39-1.7,4.77-2.55,7.16c-0.14-1.8-0.28-3.6-0.41-5.4
	c-0.59,0.98-1.18,1.97-1.76,2.95c0.26-0.66-0.31-1.23-0.99-1.15s-1.13,0.66-1.57,1.14c0.7-3.32,0.21-6.14-1.72-8.95
	c-0.6,1.98-1.49,3.66-2.81,5.26c-0.3-1.53-0.61-3.05-0.91-4.58c-0.72,0.55-1.19,1.21-1.49,2.05c0.28-0.63,0.06-1.44-0.69-1.57
	c-0.75-0.12-1.27,0.56-1.26,1.26c-0.72-2.94-1.45-5.9-2.17-8.84c-0.27,1.37-0.54,2.75-0.82,4.12c-0.58-1.48-1.16-2.97-1.74-4.45
	c-0.51,2.72-1.01,5.45-1.54,8.17c-0.91-3.44-1.17-6.76-0.85-10.31c-0.73,1.26-1.45,2.52-2.18,3.77c-0.07-1.12-0.14-2.23-0.21-3.35
	c-1.14,0.69-2.01,1.54-2.75,2.65c-0.01-2-0.03-3.99-0.06-5.99c-1.06,1.42-2.11,2.83-3.17,4.25c-0.17-1.85-0.33-3.7-0.5-5.54
	c-0.53,1.13-1.06,2.27-1.59,3.4c-0.03-0.84-0.06-1.69-0.09-2.53c-0.68,0.75-1.36,1.5-2.04,2.26c0.11-3.17,0.22-6.35,0.34-9.51
	c0.71,0.42-0.45,1.2-1.01,0.89s-0.97-1.22-1.69-1.39c-8.31-3.71-16.32-7.7-24.29-12.12c-4.68-2.6-9.35-5.36-13.91-8.22
	c-2.16-1.35-4.21-2.78-6.82-3.21c-3.47-0.57-6.73,0.53-10,1.65c-5,1.72-9.86,3.61-14.88,5.29c-3.52,1.18-6.89,2.41-10.72,2.31
	c-3.83-0.11-7.02-1.79-9.09-5.07c6.81-2.03,13.54-3.93,20.38-5.98c4.07-1.22,7.98-2.62,11.27-5.47c2.05-1.78,3.24-4.21,5.94-5.23
	c2.71-1.03,5.63-0.02,8.2,1.16c14.72,6.77,27.45,17.78,44.28,17.85c12.9,0.06,23.8-7.83,35.8-11.54
	C207.05,187.13,209.96,187.22,213.07,189.38z"/>
<path class="st10" d="M262.56,249.06c0.83-0.25,1.68-0.46,2.51-0.69c0,1.08,0.01,2.17,0.01,3.25c0.87-1.58,1.74-3.16,2.59-4.75
	c0.04,1.08,0.07,2.17,0.11,3.25c2.57-3.47,3.91-7.08,4.39-11.36c0.96,0.86,1.58,1.83,1.99,3.05c0.79-1.82,1.58-3.65,2.37-5.47
	c0.57,1.02,1.15,2.04,1.72,3.07c1.82-1.44,2.92-3.12,3.58-5.33c0.48,1.02,1.12,1.81,2.02,2.49c0.3-1.17,0.6-2.35,0.9-3.52
	c0.9,0.88,1.38,1.87,1.61,3.1c0.32-2.08,0.64-4.17,0.97-6.25c0.97,0.78,1.44,1.72,1.51,2.96c0.17-1.09,0.55-2,1.22-2.88
	c1.07,0.3,2.14,0.59,3.21,0.89c0.36-1.24,0.73-2.48,1.1-3.72c1.91,0.96,3.6-0.15,3.9-2.19c0.69,1.27,1.39,2.55,2.08,3.82
	c1.38-1.48,2.2-3.09,2.67-5.06c0.19,0.91,0.38,1.83,0.58,2.74c1.41-3.38,2.51-6.8,3.32-10.37c0.6,1.56,1.38,2.95,2.42,4.26
	c0.99-3.06,1.47-6.07,1.51-9.29c0.2,0.73,0.55,1.29,1.14,1.77c0.48-0.42,0.77-0.9,0.93-1.52c1.4-0.05,2.81-0.11,4.21-0.16
	c0.36-0.71,0.71-1.43,1.07-2.14c8.51-2.08,16.39-5.14,24.02-9.45c3.62-2.04,6.87-4.46,10.57-6.37c5.09-2.63,10.14-4.54,15.86-5.64
	c5.72-1.1,11.26-0.89,16.7,1.44c0.66,0.28,1.19,0.8,1.96,0.71c2.25-0.26,2.91-3.09,1.89-4.94s-2.97-2.94-5.08-3.38
	c-16.8-3.45-31.16,1.18-46.47,7.86c-4.23,1.84-7.85,3.75-12.28,4.65c-5.74,1.17-11.42,0.63-17.13-0.25
	c-6.78-1.05-13.71-3.26-19.91-5.4c-3.43-1.19-3.19,1.17-5.99,1.78s-5.19-2.12-7.99-0.58c-5.16,2.83-3.26,10.3-3.41,15
	C270.47,220.11,267.63,234.41,262.56,249.06z"/>
<path class="st11" d="M168.27,218.09c2.71-0.09,3.81-2.42,4.84-4.65c1.87-4.06,4.18-7.77,7.02-11.23c-0.25,3.41-1.44,6.49-2.78,9.58
	c-1.76,4.06-3.49,8.04-5.24,12.08c4.49-6.53,7.79-13.31,10.18-20.86c1.51,4.32,0.59,8.34-1.12,12.45c-1.71,4.1-3.62,7.78-4.04,12.24
	c1.27-0.61,1.78-1.85,2.17-3.11c1.87-6.03,3.69-12.03,5.57-18.04c1.99,4.53,1.36,8.86,0.17,13.52c-1.19,4.66-2.32,8.9-1.25,13.68
	c1.67-7.7,3.32-15.35,5-23.07c0.37-1.72,0.86-3.39,2.13-4.69c-0.39,9.07-3.6,17.62-3.34,26.74c1.49-8.66,3.24-17.41,5.4-25.86
	c0.33-1.3,1.33-2.78,2.62-2.05c-1.05,4.97-2.11,9.81-3.15,14.78c-1.21,5.81-2.11,11.46-1.26,17.4c1.76-10.55,3.9-21,6.46-31.39
	c1.4,6.46-0.34,12.38-1.69,18.67c-1.03,4.82-1.36,9.52-1.45,14.42c1.64-7.8,3.21-15.53,4.84-23.36c0.63-3,1.4-5.96,3.17-8.54
	c-0.96,8.06-1.89,16.1-2.83,24.19c-0.45,3.87-0.72,7.53,0.67,11.24c1.34-13.9,3.43-27.57,6.48-41.2c-1.93,0.22-3.02,1.52-4.13,3
	c-0.15-1.58-0.62-2.94-1.49-4.27c-0.22,1.85-0.98,3.23-2.41,4.42c-0.62-1.17-1.24-2.33-1.86-3.5c-0.55,0.75-1.11,1.49-1.66,2.24
	c-0.53-0.73-1.06-1.46-1.59-2.2c-0.39,1.23-0.98,2.22-1.89,3.14c-0.57-0.87-0.95-1.78-1.17-2.79c-0.59,0.85-1.2,1.89-2.28,2.09
	s-2.04-0.79-1.52-1.8c-1.06,1.01-2.13,2.04-3.2,3.06c-0.48-1.58-0.63-3.1-0.47-4.74c-1.6,2.69-5.45,3.04-5.6-0.59
	C175.89,206.33,172.82,212.21,168.27,218.09z"/>
<path class="st11" d="M269.67,239.31c-0.14,1.09-0.18,2.09,0.61,2.95c3.76-13.49,5.69-26.9,5.79-40.91
	c2.49,10.39-0.11,20.3-0.36,30.79c1.5-1.41,1.75-3.24,1.97-5.19c0.88-7.79,1.76-15.54,2.63-23.32c0.1,5.44,0.19,10.8,0.28,16.26
	c0.06,3.93,0.3,7.7,1.71,11.43c0.34-9.46,0.96-18.91,1.48-28.36c0.33,8.56,1.04,17.05,2.41,25.51c1.48-7.81,0.06-15.41-0.01-23.27
	c-0.01-1.25,0.25-2.47,1.32-3.21c0.87,8.48,1.7,16.95,2.6,25.43c0.39-7.91,0.83-15.81,1.26-23.72c0.95,6.97,1.9,13.94,2.89,20.91
	c0.24-6.58,0.51-13.16,0.78-19.75c3.09,5.97,2.04,12.9,6,18.47c-1.33-6.52-1.98-12.97-1.98-19.63c4.02,4.28,2.15,10.48,5.86,14.99
	c-0.89-4.06-1.82-8.12-2.69-12.18c-0.16-0.74-0.31-1.49-0.05-2.2c0.26-0.72,0.95-1.1,1.63-0.73c0.69,4.01,1.86,7.7,3.65,11.36
	c-0.33-3.45-0.67-6.9-1-10.36c1.87-0.42,2.78,1.45,3.31,3s1.06,3.47,2.94,3.71c-0.83-4.04-1.96-7.94-3.44-11.79
	c-0.35,1.38-1.19,2.25-2.63,2.39c-0.21-2.07-1-3.66-2.59-5.02c-0.12,1.48-0.25,2.97-0.37,4.45c-0.78-1.1-1.55-2.2-2.33-3.3
	c-0.28,1.34-0.56,2.69-0.84,4.03c-0.93-0.71-1.44-1.58-1.67-2.73c-0.25,1.03-0.5,2.06-0.76,3.1c-1.42-0.79-2.27-1.89-2.77-3.43
	c-0.26,1.37-0.52,2.74-0.78,4.11c-0.51-1.24-1.15-2.34-1.99-3.39c-0.38,0.94-0.75,1.87-1.13,2.81c-0.81-1.21-1.63-2.42-2.44-3.63
	c-0.58,1-1.15,2-1.73,3c-0.59-1.32-1.36-2.4-2.43-3.36c-0.64,1.15-1.28,2.32-1.91,3.46c-0.27-1.23-0.76-2.6-2.1-2.94
	c-1.34-0.34-2.44,0.84-2.17,2.12c-0.46-1.05-0.79-2.24-1.81-2.92s-2.28-0.35-2.73,0.79c0.13-1.64-0.69-2.65-2.36-2.75
	c1.79,6.5,0.63,14.02,0.16,20.38C271.27,224.67,270.65,231.57,269.67,239.31z"/>
<path class="st12" d="M96.57,185.73c2.69-1.22,5.2-2.34,7.57-4.04c2.67-1.92,4.46-4.65,7.38-6.33c5.5-3.17,11.39-2.79,17.32-1.09
	c5.92,1.7,10.6,4.99,16.55,6.64c14.99,4.16,29.54,1.65,44.61-1.08c4.7-0.85,9.44-1.9,13.72-3.63c4.29-1.74,8.01-4.41,12.45-5.07
	c4.44-0.66,8.39,0.3,12.14-2.48c-5.01,2.33-8,6.74-12.31,10c-8.19,6.17-17.86,8.48-27.86,9.4c-22.02,2.03-43.09-0.09-64.22-6.28
	c-1.58-0.46-3.03-1.13-4.75-1c-4.43,0.34-7.5,3.36-11.15,5.62c-2.15,1.33-4.37,2.16-6.77,3.14c-13.47,5.48-26.51,11.95-40.84,15.18
	c5.98-3.88,11.19-6.41,17.72-10C83.49,191.76,90,186.68,96.57,185.73z"/>
<path class="st12" d="M272.83,175.26c2.79,2.09,6.11,3.36,9.44,4.24c25.86,6.82,51.52,4.87,75.81-6.33
	c3.33-1.54,6.23-3.37,10.07-3.67c6.05-0.48,11.04,2.43,16.24,5.33c22.25,12.41,48.98,9.33,71.55,20.85
	c-10.03-1.77-20.23-3.5-30.14-5.64c-4.14-0.9-7.99-1.76-11.96-2.97c-5.15-1.57-10.01-3.71-15.09-5.47
	c-5.6-1.94-11.23-3.48-17.08-4.57c-4.08-0.76-8.17-1.14-12.21-0.03c-3.61,1-6.24,3.43-9.45,5.25c-10.52,5.93-21.36,8.95-33.45,9.13
	c-12.09,0.18-23.45-1.72-35.36-4.05C283.22,185.76,276.44,183.03,272.83,175.26z"/>
<path class="st13" d="M288.15,179.74c22.01,3.74,43.32,1.94,64.34-5.59c7.65-2.74,14.89-6.06,23.22-4.68
	c4.18,0.69,7.59,3.19,11.43,4.72c18.07,7.19,37.47,8.34,55.12,16.8c-5.06,0.22-10.24,0.58-15.18-0.56
	c-6.06-1.4-11.35-4.5-17.28-6.11c-5.21-1.42-10.37-1.73-15.58-3.4c-5.2-1.66-9.55-5.23-15.08-6.38c-12.27-2.55-22.6,3.01-33.99,6.99
	c-19.87,6.95-39.95,7.43-60.31,2.07c-3.91-1.03-7.74-2.45-11.2-4.93c-2.65-1.9-4.79-4.8-5.53-8.06c3.27,0.8,5.71,4.3,8.57,5.67
	C280.4,178.07,284.27,179.08,288.15,179.74z"/>
<g>
	<path class="st14" d="M256.17,31.21c-0.64,5.45-2.62,12.04-3.59,17.09c-0.84,4.41-0.06,9-0.01,12.63
		c0.16,10.77,0.03,21.85-1.94,31.7c-2.44,12.22-3.96,23.76-6.18,35.26c-3.3,17.14-8.11,26.71-18.4,41.78
		c-3.79,5.55-13.15,12.5-16.77,20.71c-4.95,11.26-7.64,25.13-6.07,37.89c1.57,12.77,7.35,25.03,10.96,36.87
		c4.6,15.1,5.14,29.01,5.73,44.44c1.05,0.12,1.98,0.02,2.98-0.42c0.37,2,1.01,3.77,2,5.55c1.45-0.71,2.68-1.57,3.8-2.72
		c0.76,1.26,1.22,2.56,2.54,3.38c1.32,0.82,2.83,0.85,3.97-0.24c0.64-0.61,0.14-1.38,0.15-2.09c0.89,0.83,1.64,1.8,2.89,2.05
		c1.26,0.26,2.13-0.22,2.37-1.48c0.92,0.44,1.84,0.9,2.75,1.38c1.07-14.98,5.7-27.46,11.61-41.36c2.88-6.77,6.49-13.97,9.06-21.32
		c5-14.29,10.66-29.46,11.79-44.68c1.13-15.22-3.36-26.5-12.59-37.97c-1.7-2.12-4.48-2.21-6-3.6c-1.51-1.39-2.91-3.05-2.16-4.65
		c13.16-28.18,4.03-58.85,7.39-88.56c0.1-0.92,0.94-2.42,2.14-2.48c-0.2-4.86,1.5-8.39,2.8-13.08c1.3-4.68,1.52-9.74,1.17-14.77
		c-0.15-2.19-0.5-4.84-1.82-6.76C264.02,31.75,260.9,30.78,256.17,31.21z"/>
	<path class="st15" d="M257.39,24.03c1.36,0.65,2.5,1.55,4.06,1.69c1.56,0.14,2.6-0.62,3.55-1.79c0.52,0.73,0.8,1.5,0.9,2.39
		c0.37,3.29,0.65,6.59,0.93,9.87c-1.87-1.4-3.5-2.77-5.96-2.67c-2.46,0.11-4.13,1.68-6.05,3.04
		C255.44,32.34,256.26,28.15,257.39,24.03z"/>
	<path class="st10" d="M259.71,44.66c0.36-1.01,1.17-2.42,1.66-3.47c1.7,2.87,3.65,6.06,4.53,9.21c0.5,1.81-0.2,4.15-0.56,5.53
		c-6.14,23.35-9.17,47.03-8.89,71.09c0.03,2.34,1.91,4.28-1.45,6.02c-3.36,1.75-3.68,7.53-7.78-1.78
		c-2.54-5.77,3.26-29.19,5.2-34.74c3.89-11.15,2.46-16.8,3.23-26.54C256.37,60.93,256.66,53.26,259.71,44.66z"/>
	<path class="st10" d="M241.47,176.8c0.11,3.08,0.15,6.17,0.17,9.25c0.67-1.51,1.55-2.71,2.76-3.84c0.41,1.19,0.81,2.39,1.21,3.59
		c0.33-0.3,0.67-0.62,1-0.92c0.79-0.72,1.57-1.44,2.35-2.16c-1.05,5.55-1.26,10.98-0.96,16.62c1.06-2.08,2.11-4.16,3.2-6.22
		c0.29,5.64-0.04,11.13-0.73,16.72c0.93-2.12,1.86-4.24,2.8-6.35c0.21,3.69,0.28,7.35,0.12,11.04c0.54-1.28,1.07-2.57,1.61-3.85
		c0.09,8.21,0.43,16.38,1.23,24.56c0.32-2.57,0.79-5.09,1.47-7.59c0.51,2.28,1.38,4.3,2.59,6.3c0.17-1.87,0.35-3.73,0.53-5.6
		c0.97,1.5,1.69,3.03,2.23,4.74c-0.02-1.87-0.07-3.74-0.05-5.61c0.57,1.05,1.18,2.07,1.78,3.11c0.2-3.05,0.47-6.09,0.73-9.13
		c-0.17,1.88,0.24,3.08,1.64,4.37c-0.03-3.24-0.05-6.49-0.08-9.73c1.26,1.6,2.51,3.2,3.76,4.81c-0.51-3.47-1.03-6.94-1.58-10.4
		c0.82,0.81,1.7,1.4,2.76,1.85c-0.02-1.68-0.05-3.36-0.07-5.04c1.07,1.21,2.06,1.66,3.68,1.56c-1.78-4.21-3.57-8.41-5.3-12.64
		c2.12,0.6,3.99,1.48,5.82,2.7c-1.66-2.89-3.52-5.43-5.93-7.74c1.03,0.1,2.07,0.21,3.1,0.31c-0.68-2.02-0.17-3.1,1.79-3.92
		c-3.32-2.64-6.81-4.79-10.65-6.6c0.98-1.06,2.02-1.26,3.36-1.39c-6.74-3.6-12.97-10.23-14.17-17.34c-1.2-7.11,1.54-9.7,1.53-16.45
		c-0.01-17.12,2.52-33.69,4.1-51.34c0.63-7.02,0.78-14.37,2.57-22.62c1.92-8.86,5.83-20.24,6.19-30.31c0.08-2.2-0.86-5.6-2.45-7.53
		c-1.59-1.93-4.56-3.27-6.44-1.17c-4.74,5.29-5.95,10.89-6.47,17.73c3.91-3.26,5.66-6.91,6.39-11.7c4.46,7.3,3.97,19.76,2.74,26.93
		c-3.89,22.59-7,44.94-6.76,66.59c0.16,14.85-3.52,21.89-8.81,34.77c1.1-0.72,2.16-0.46,3.36-0.49c-0.86,0.94-1.72,1.87-2.59,2.8
		c1.1-0.05,2.19-0.05,3.29-0.1c-2.26,1.6-4.71,2.46-7.16,3.77c-2.45,1.31-3.94,3.05-4.68,5.77
		C239.35,177.95,240.22,177.23,241.47,176.8z"/>
	<path class="st16" d="M260.35,3.82c-0.36-0.8-1.67-0.32-2,0.38c-0.33,0.7-0.24,1.65-0.2,2.44c0.29,5.82-1.95,13.51-0.53,18.79
		c1.65,6.13,6.33,4.5,10.12,8.04C265.92,23.23,264.62,13.36,260.35,3.82z"/>
	<path class="st15" d="M261.04,21.94c0.33,0.73,0.98,0.69,1.59,1.06c1.36,0.82,2.13,1.93,2.23,3.53s-0.59,2.95-1,4.45
		c1.86,0.36,3.41,1.06,4.96,2.17c-1.78-7.86-2.3-15.93-3.68-23.85c-0.18-1.04-0.98-1.11-1.77-1.51c-0.61,2.62,0.68,4.07,0.91,6.76
		C264.5,17.25,262.92,19.94,261.04,21.94z"/>
	<path class="st17" d="M255.61,29.51c-0.08,0.52-0.34,1.22,0,1.73c0.57,0.85,1.44,0.99,2.33,0.55c0.89-0.45,1.4-1.3,2.1-1.95
		c0.4-0.37,0.8-0.72,1.35-0.71c0.55,0.01,0.9,0.31,1.28,0.64c1.68,1.43,3.25,2.97,4.9,4.42c-0.72-4.46-1.3-9.14-1.44-13.59
		c-0.12-3.69,0.31-6.48-0.2-10.27c-0.34-2.58-1.33-6.66-4.43-7.36c-3.11-0.7-4.04,2.63-4.22,4.94
		C256.71,15.26,256.65,22.26,255.61,29.51z"/>
	<path d="M256.05,8.04c1.48,1.05,2.89,2.14,4.39,3.18c0.4,0.28,0.78,0.56,1.33,0.52c0.55-0.05,1.01-0.42,1.38-0.82
		c0.62-0.67,1.23-1.37,1.81-2.07c0.24-0.29,0.45-0.58,0.46-0.95c0.01-0.37-0.19-0.65-0.39-0.94c-1.23-1.72-2.5-3.42-3.74-5.13
		c-0.15-0.21-0.36-0.39-0.61-0.4c-0.25-0.02-0.4,0.15-0.52,0.31c-1.61,2.02-3.04,4.12-4.39,6.32"/>
</g>
<g>
	<path class="st18" d="M237.99,424.45c1.82-3.29,3.6-6.64,4.38-10.27c0.56-2.61,0.51-5.4,0.43-7.87
		c-0.19-6.28,0.04-12.08-0.06-18.31c-0.07-4.28-0.72-8.25-1.55-12.55c-2.36-12.22,0.11-24.41-1.67-36.86
		c-0.62-4.34-1.37-8.73,1.32-12.72c-0.13-0.03-0.22-0.01-0.34-0.01c2.61-14.26,4.58-28.47,5.74-42.95c0.13-1.66,0.3-3.46,0.97-5.09
		c0.54-1.33,1.51-2.51,2.29-3.74c2.62-4.1,4.52-8.55,6.39-13c0.64,4.25-0.32,8.78-1.33,12.78c-3.73,14.88-6.8,29.59-9.06,44.61
		c-0.61,4.1-0.82,7.72,0.06,11.7c0.38,1.69,1.15,3.21,0.94,4.9c-0.21,1.69-1.18,2.81-1.8,4.31c-1.07,2.6-1.09,4.98-0.25,7.65
		c0.85,6.71,0.15,13.15,0.27,19.92c0.26,14.68,0.64,29.42,0.41,44.2c-0.03,2.19-0.08,4.74,0.17,7.05c0.21,1.94,0.67,3.94,0.76,5.95
		c0.09,2.01-0.13,3.89-0.42,5.95c-1.05,7.46-2.15,15.04-3.21,22.53c-0.46-1.2-0.71-2.4-0.75-3.69c0.12,2.25-0.44,4.09-1.73,5.94
		c-0.77-1.07-1.25-2.17-1.5-3.46c-0.35,1.05-0.55,2.1-0.63,3.21c-0.88-0.75-1.55-1.58-2.08-2.61c-0.47,0.49-0.95,0.89-1.42,1.43
		c-2.04-11.57-2.19-21.17-0.85-33.22c0.42-3.81,1.27-3.87,1.17-10.18c-0.26-15.95-3.94-38.5-5.2-54.85
		c-0.61-7.88-0.98-10.7-2.36-17.26c-0.53-2.51-1.26-4.19-1.5-6.58c-0.4-3.88,0.27-7.05,1.8-10.57c-4.77-19.58-2.3-39.96-6.49-59.69
		c0.51-0.36,1.15-0.31,1.68,0.01c3.51,2.12,4.13,6.22,4.3,9.9c0.77,16.03,1.49,31.43,2.87,47.43c0.21,2.4,0.35,3.74,1.23,6.74
		c0.67,2.31,1.09,0.77,2.17,5.33c2.32,9.78,2.75,24,3.36,35.96c0.4,7.77,0.93,16.75,0.29,25.9c-0.33,4.63-0.3,14.94,0.06,20.05
		C237.17,417.09,237.66,420.15,237.99,424.45z"/>
	<path class="st19" d="M239.84,325.37c-0.38,0.56-0.91,0.94-1.07,1.68c-0.29,1.34,0.66,2.35,1.9,2.8c-0.45,0.24-0.92,0.46-1.37,0.7
		c0.59,0.4,0.69,1.11,0.52,1.72s-0.44,1.29-0.35,1.82c0.09,0.53,0.34,0.74,0.51,1.11c0.39,0.89,0.47,1.78,0.5,2.69
		c0.09,2.46,0.19,4.84,0.34,7.28c0.21-2.01,0.93-3.59,2.19-5.17c0.16-0.2,0.35-0.36,0.36-0.65c0.01-0.66-0.87-0.86-1.01-1.47
		c-0.28-1.19,1.41-1.66,1.4-2.87c0-0.28-0.22-0.43-0.3-0.75c-0.07-0.32,0-0.6,0.04-1.01c0.34-3.75-0.68-7.36-2.18-10.81
		C240.92,323.5,240.47,324.44,239.84,325.37z"/>
	<path class="st19" d="M225.8,327.42c0.69,0.21,1.2,0.56,1.53,1.21c-0.8,0.36-0.86,1.18-0.13,1.66c-0.67,0.63-1.12,1.31-1.38,2.2
		c0.79,0.41,1.68,0.86,2.28,1.51c0.6,0.65,0.83,1.49,0.4,2.21c-0.24,0.4-0.67,0.79-0.44,1.14s0.4,0.21,0.65,0.46
		s0.28,0.61,0.25,0.94c-0.17,1.81-0.32,3.57-0.46,5.38c0.16-0.87,0.21-1.62,0.4-2.52c0.19-0.9,0.29-1.79,0.97-2.58
		s1.8-1.15,2.86-0.88c0.06-0.67-0.68-0.95-1.17-1.2c-0.49-0.25-1.18-0.68-0.82-1.27c0.42,0.2,0.99,0.05,1.16-0.4
		c0.16-0.44-0.03-0.81-0.21-1.21c-0.66-1.51-1.28-2.91-1.98-4.45c-0.7-1.54-1.71-3.12-2.42-4.69
		C226.89,325.83,226.45,326.67,225.8,327.42z"/>
	<path class="st19" d="M242.87,409.26c0.02,2.99,0.02,5.88,0.06,8.88c0.01,1.1,0.03,2.1,0.46,3.23c0.43,1.13,1.47,2.05,1.79,3.36
		c0.6,2.41-0.83,4.32-1.65,6.6c-1.43,3.97-1.26,8.1-0.95,12.29c0.19,2.64,0.49,5.22,1.12,7.79c-1.61-1.92-2.71-3.93-3.4-6.35
		c0.58,2.76,0.35,5.19-0.76,7.79c0.64-8.15-0.78-16.2-0.6-24.35c0.07-3.18,1.95-6.04,2.68-9.04
		C242.45,416.04,242.81,412.77,242.87,409.26z"/>
	<path class="st19" d="M232.15,420.95c-0.8,3.81-0.19,7.48,0.13,11.34c0.43,5.14,0.27,10.28-0.34,15.42
		c0.83-1.71,1.38-3.45,1.68-5.33c0.13,3.51,0.03,6.97-0.32,10.46c0.49-2.07,0.99-4.15,1.48-6.22c0.69,1.96,1.04,3.89,1.07,5.96
		c0.46-4.82,0.39-9.53-0.26-14.32c-0.27-2.04-0.73-4.03-0.78-6.09c-0.08-3.25,0.6-6.21,0.85-9.5c0.21-2.83,0.02-5.65-1.65-8.12
		C233.2,416.66,232.62,418.73,232.15,420.95z"/>
	<path class="st18" d="M242.2,340.78c-1.08,23.52,0.73,46.37,1.27,69.99c0.11,4.68,0.48,10.38,2.69,14.82
		c0.23-3.34-0.23-6.94-1.07-10.15C238.52,390.33,243.22,366.2,242.2,340.78z"/>
	<path class="st20" d="M215.85,228.8c-0.27,3.98-0.16,6.19,0.28,9.57c0.39,3,1.46,5.21,2.02,8.03c1.24,6.3,0.96,12.08-0.95,18.21
		c-1.99-4.18-4.75-7.09-8.82-9.3c0.64-3.04,1.13-6.15-1.21-8.5c-0.81-0.81-1.88-0.87-2.62-1.73c-1.35-1.56-1.25-3.47-0.54-5.34
		c0.71-1.87,2.04-3.26,2.8-5.13c2.09-5.15,0.84-10.68,1.72-16.05c1.08-6.56,4.94-12.37,5.57-19c0.23-2.38,0.19-4.01,1.85-5.78
		C220.14,204.76,216.59,217.8,215.85,228.8z"/>
	<path class="st21" d="M234.3,195.71c3.19,3.71,8.28,5.45,12.34,1.02c5.55,17,6.89,33.64,2.71,50.79
		c-2.55,10.43-6.97,18.55-8.34,29.01c1.46-0.37,2.71,0.19,3.62,1.31c-2.65,2.55-6.42-0.23-9.47,1.25c-3.56,1.72-1.93,6.78,1.76,7.82
		c3.69,1.04,7.35-0.72,10.33-2.99c-4.09,6.35-6.58,13.06-7.18,20.6c-0.35,4.43-0.66,9.07-5.49,10.25c-2.39,0.58-4.77-0.58-6.36-2.28
		c-4.33-4.62-4.23-10.38-3.73-16.41c1.27-15.4,2.98-30.8,4.52-46.18c-3.25,2.01-4.7,5.07-6.15,8.46
		c-5.09-14.33-7.12-29.95-4.28-44.64C219.69,207.89,227.85,188.21,234.3,195.71z"/>
	<path class="st21" d="M224.23,267.4c-0.02-1.68,0.72-3.98,2.63-3.62c1.03,0.19,1.29,1.31,1.44,2.22
		c1.26,7.86,0.07,15.97,3.33,23.42c1.81,4.15,5.37,7.36,7.55,11.25c1.65,2.95,2.7,5.84,3.13,9.14c0.1,0.73,0.01,1.55-0.77,1.78
		c-1.09,0.32-1.87-0.73-2.08-1.75c-0.21-1.02-0.36-2.04-1.44-2.45c0.05,1.99,0.28,4.07-1.21,5.62c-1.49,1.56-4.47,1.72-5.61-0.22
		c-0.52-0.88,0.03-1.73-0.15-2.68c-0.19-0.95-0.88-1.8-1.97-1.64c-0.31,2.12-1.58,3.31-3.57,4c0.29-5.31-1.34-9.89-2.83-14.96
		c-0.94-3.22-1.62-6.47-0.9-9.84c1.04,1.36,2.15,2.45,2.69,4.12C224.49,283.67,224.32,275.48,224.23,267.4z"/>
</g>
<path class="st22" d="M490.4,211.72c-1.76-0.86-3.5-1.79-5.23-2.8c8.71,2.52,16.83,2.18,25.68-1.07c-0.19-0.03-0.38-0.06-0.57-0.09
	c-3.04-1.5-6.01-1.58-9.18-1.39c-4.42-0.67-8.83-1.34-13.25-2.01c-0.35-0.27-0.7-0.56-1.04-0.88c0.07-0.01,0.14-0.02,0.2-0.03
	c4.19-0.21,8.3-0.74,12.4-1.63c0.37-0.05,0.73-0.09,1.1-0.15c1.73-0.24,3.44-0.45,4.98-1.43c0.34-0.21,0.63-0.46,0.9-0.73
	c0.58-0.47,1.04-1.06,1.27-1.87c-0.06,0.01-0.12,0.02-0.18,0.02c0.16-0.57,0.2-1.18,0.1-1.82c-5.25,1.18-10.49,2.37-15.76,3.09
	c-9.54,0.15-19.02-0.82-28.33-2.86c-0.97-0.31-1.93-0.63-2.89-0.95c-2.58-0.85-5.13-1.75-7.67-2.66c-2.66-1.13-5.37-2.08-8.11-2.92
	c-7.84-2.84-15.66-5.59-23.77-7.59c-1.98-0.49-3.94-0.9-5.89-1.29c-8.98-2.15-18-4.22-26.71-7.68c-1.21-0.48-2.39-1.07-3.55-1.66
	c-1.14-0.71-2.3-1.26-3.47-1.68c-1.4-0.62-2.85-1.12-4.41-1.38c-8.33-1.38-15.57,1.94-23.22,4.68c-21.03,7.53-42.33,9.32-64.34,5.59
	c-3.89-0.66-7.76-1.67-11.48-3.46c-0.01,0-0.02-0.01-0.03-0.01c-0.83-1.12-1.75-2.02-2.74-2.49c-0.53-0.25-0.96-0.41-1.35-0.53
	c-0.88-0.73-1.78-1.44-2.74-1.95c-0.71-0.97-1.38-1.98-2.01-3.05c-4.01-1.62-8-2.84-11.96-3.65c-0.8-1.02-1.26-2.12-0.76-3.18
	c13.16-28.18,4.03-58.85,7.39-88.56c0.1-0.92,0.94-2.42,2.14-2.48c-0.2-4.86,1.5-8.39,2.8-13.08c1.3-4.68,1.52-9.74,1.17-14.77
	c-0.15-2.16-0.5-4.77-1.78-6.69c-0.07-0.84-0.15-1.68-0.22-2.52c0.33,0.3,0.65,0.6,0.98,0.9c-0.05-0.32-0.1-0.66-0.15-0.98
	c0.11,0.09,0.22,0.18,0.33,0.28c-0.07-0.38-0.13-0.76-0.2-1.13c0.42,0.24,0.84,0.51,1.26,0.8c-1.27-5.6-1.9-11.31-2.65-16.99
	c0.04-1.85,0.06-3.68-0.23-5.84c-0.1-0.77-0.27-1.68-0.52-2.59c-0.02-0.12-0.05-0.24-0.11-0.35c-0.54-1.72-1.44-3.38-2.97-4.12
	c-0.35-0.48-0.7-0.95-1.04-1.43c-0.15-0.21-0.36-0.39-0.61-0.4c-0.25-0.02-0.4,0.15-0.52,0.31c-1.61,2.02-3.04,4.12-4.39,6.32
	l0.29-0.02c0.39,0.28,0.77,0.56,1.16,0.85c-0.49,7-0.6,13.71-1.6,20.62c-0.08,0.52-0.34,1.22,0,1.73c0.03,0.05,0.07,0.08,0.1,0.12
	c-0.33,1.73-0.63,3.46-0.89,5.2c0.17-0.12,0.34-0.25,0.51-0.37c-0.87,4.18-2.05,8.54-2.74,12.12c-0.84,4.41-0.06,9-0.01,12.63
	c0.16,10.77,0.03,21.85-1.94,31.7c-2.44,12.22-3.96,23.76-6.18,35.26c-2.99,15.54-7.23,24.87-15.67,37.7
	c-2.37,0.67-4.74,1.49-7.12,2.48c-2.15,0.89-4.1,2.01-6.03,3.16c-4.21,0.79-7.81,3.29-11.92,4.96c-4.29,1.74-9.03,2.78-13.72,3.63
	c-15.08,2.73-29.62,5.24-44.61,1.08c-5.95-1.65-10.63-4.94-16.55-6.64c-5.92-1.7-11.82-2.08-17.32,1.09
	c-1.23,0.71-2.26,1.61-3.24,2.55c-1.38,1.14-2.61,2.43-3.95,3.63c-0.07,0.05-0.13,0.11-0.2,0.15c-2.37,1.7-4.88,2.83-7.57,4.04
	c-5.44,0.79-10.83,4.4-15.58,7.29c-2.98,1.14-5.95,2.34-8.85,3.78c-4.47,2.22-7.96,5.49-12.38,8.12
	c-7.47,4.43-15.04,7.72-22.81,9.94c-11.1,2.71-22.74,3.4-34.52,3.07c-0.68-0.06-1.35-0.1-2.04-0.18c0.02,0.04,0.05,0.07,0.07,0.11
	c-0.16-0.01-0.31-0.01-0.47-0.02c0.24,0.15,0.48,0.28,0.72,0.43c1.91,3.18,4.69,4.85,8.35,5.72c3.59,0.86,7.11,0.6,10.73,0.39
	c-0.24,0.14-0.48,0.27-0.73,0.4c-5.82,1.67-11.65,3.35-17.46,5.03c3.89,2.2,7.95,2.71,12.27,1.79s7.9-2.95,11.76-4.86
	c-3.27,4.14-7.38,7-12.22,8.8c-2.08,0.78-4.75,1.46-4.49,3.98c0.04,0.37,0.15,0.69,0.31,0.96c-0.8,0.4-1.61,0.8-2.42,1.19
	c0.97-0.19,1.92-0.41,2.87-0.63c1.14,1.01,3.31,0.95,4.87,0.45c1.43-0.46,2.92-1.22,4.28-2.12c-1.96,1.77-2.96,4.06-3.05,6.98
	c3.48-0.29,6.24-1.5,8.83-3.83c0.28,1.8,1.55,2.95,3.1,3.79c5.8,3.13,11.64,4.84,18.21,5.24c1,0.06,1.97,0.09,2.92,0.16
	c1.19,0.24,2.38,0.47,3.56,0.68c0.53,0.19,1.06,0.42,1.57,0.73c1.02,0.62,1.7,1.64,2.87,1.78c2.35,0.27,4.18-1.91,6.5-1.28
	c1.14,0.31,1.59,1.61,2.79,1.79c1.11,0.17,1.93-0.41,2.72-1.1c0.13,0.01,0.26,0.02,0.39,0.01c1.16-0.1,1.83-1.11,2.98-1.44
	c0.4-0.11,0.79-0.14,1.17-0.12c1.69,0.95,2.92,3.4,5.02,2.95c1.16-0.25,1.67-1.59,2.74-1.95c1.07-0.35,1.77,0.15,2.81,0.33
	c3.62,0.63,6.57-0.59,8.65-3.27c0.63,1.04,1.98,1.74,3.17,1.76c0.07,0,0.13-0.01,0.2-0.01c0.15,0.12,0.31,0.22,0.49,0.32
	c1.28,0.71,2.71,0.52,3.64-0.5c0.25,0.06,0.5,0.14,0.76,0.26c0.08,0.04,0.13,0.09,0.2,0.13c0.64,0.82,1.35,1.53,2.32,1.81
	c1.57,0.69,3.15,0.37,4.42-0.74c0.65-0.01,1.28,0.08,1.9,0.23c0.28,0.23,0.57,0.46,0.85,0.7c0.17-0.09,0.34-0.18,0.5-0.28
	c0.48,0.17,0.96,0.37,1.45,0.56c3.45,1.36,6.91,2.44,10.41,3.26c0.59,0.38,1.26,0.62,2.1,0.55c0.02-0.03,0.05-0.06,0.07-0.09
	c3.15,0.63,6.34,1.07,9.64,1.28c1.28,0.08,2.61,0.16,3.72,0.5c1.11,0.35,1.72,1.04,2.79,1.17c4.58,0.57,7.64-3.76,12.03-4.16
	c0.42,0,0.83,0.01,1.25,0.05c2.18,0.38,3.98,2.14,6.16,2.52c0.14,0.02,0.28,0.04,0.43,0.05c0.35,0.21,0.72,0.36,1.2,0.36
	c1.59-0.03,2.35-1.29,3.7-2.14c1.19-0.75,2.71-1.02,4.2-1.16c6.61,1.2,13.14,0.56,19.94-0.61c-0.11,0.28-0.22,0.55-0.35,0.83
	c0.78-0.35,1.44-0.78,1.98-1.3c0.97-0.39,1.85-0.96,2.66-1.65c0.23,0.44,0.44,0.89,0.62,1.36c0.3,1.82,0.82,3.6,2.45,4.68
	c2.1,1.38,4.91,0.35,5.49-2.05c0.02,0.06,0.04,0.12,0.06,0.18c0.19,2.75,1.83,4.79,4.25,6.05c0.38,0.2,0.76,0.37,1.14,0.53
	c0.66,1.29,1.33,2.57,1.99,3.86c0.04,0.33,0.09,0.66,0.1,0.99c-0.01-0.29-0.02-0.57-0.04-0.86c0.25,0.5,0.51,1,0.76,1.5
	c1.72,3.49,3.23,7.07,4.56,10.72c2.12,6.85,3.57,13.86,3.57,21.38c0.03,1.76,0.03,3.56,0.46,5.24c0.02,0.49,0.04,0.97,0.06,1.46
	c0.96,0.11,1.83,0.02,2.73-0.33c0.03,0.17,0.05,0.34,0.08,0.51c0.01-0.18,0.03-0.37,0.04-0.55c0.04-0.02,0.08-0.03,0.13-0.05
	c0.37,2,1.01,3.77,2,5.55c0.4-0.19,0.78-0.4,1.14-0.62c0.38,2.24,0.81,4.48,1.36,6.71c-1.52,3.52-2.2,6.7-1.8,10.57
	c0.25,2.39,0.97,4.07,1.5,6.58c1.38,6.56,1.76,9.38,2.36,17.26c1.26,16.35,4.93,38.9,5.2,54.85c0.04,2.48-0.07,3.99-0.24,5.14
	c-0.12-0.22-0.24-0.43-0.38-0.64c-0.82,2.09-1.4,4.16-1.87,6.38c-0.8,3.81-0.19,7.48,0.13,11.34c0.43,5.14,0.27,10.28-0.34,15.42
	c0.48-0.99,0.86-2,1.16-3.03c0.13,1.35,0.29,2.71,0.48,4.09c-0.06,1.36-0.15,2.71-0.28,4.07c0.18-0.76,0.36-1.52,0.54-2.29
	c0.15,0.96,0.3,1.92,0.47,2.9c0.47-0.54,0.95-0.94,1.42-1.43c0.03,0.06,0.07,0.11,0.1,0.17c0,0.13,0.02,0.25,0.02,0.38
	c0.01-0.1,0.01-0.2,0.02-0.31c0.5,0.92,1.13,1.68,1.94,2.37c0.08-1.11,0.28-2.16,0.63-3.21c0.25,1.29,0.73,2.39,1.5,3.46
	c1.29-1.84,1.85-3.69,1.73-5.94c0.04,1.29,0.28,2.48,0.75,3.69c0.12-0.81,0.23-1.63,0.35-2.45c0.29,0.41,0.59,0.82,0.93,1.22
	c-0.27-1.09-0.47-2.18-0.63-3.28c0.86-6.02,1.73-12.06,2.57-18.02c0.23-1.64,0.41-3.18,0.43-4.76c0.04,0.07,0.06,0.15,0.1,0.23
	c0.23-3.29-0.22-6.83-1.03-10.01c-0.05-1.51-0.03-3.03-0.01-4.41c0.24-14.79-0.15-29.52-0.41-44.2c-0.12-6.77,0.58-13.21-0.27-19.92
	c-0.84-2.67-0.82-5.05,0.25-7.65c0.62-1.5,1.59-2.63,1.8-4.31c0.21-1.69-0.56-3.21-0.94-4.9c-0.88-3.97-0.67-7.6-0.06-11.7
	c1.26-8.39,2.78-16.68,4.52-24.95c-0.43,3.89-0.36,7.83,0.24,11.69c1.53-3.75,3.06-7.5,4.59-11.25c-0.18,1.81,0.15,3.68,0.95,5.31
	c1.03-4.43,2.38-8.75,3.94-13c0.02,0.44,0.05,0.88,0.07,1.32c0.13-1.07,0.35-2.13,0.63-3.17c0.29-0.76,0.58-1.51,0.88-2.26
	c0.23,0.48,0.62,0.89,1.1,1.12c-0.09-5.48,3.65-10.15,5.95-15.12c0.67-1.44,1.21-2.94,1.69-4.45c0.03,0.5,0.05,1,0.08,1.51
	c0.63-1.68,1.12-3.33,1.66-4.97c0.25,0.19,0.52,0.33,0.86,0.32c0.45-0.02,0.81-0.17,1.1-0.4c1.65,0.07,3.28-0.24,5.01-1.05
	c-0.07-1.25-0.14-2.51-0.21-3.76c0.01,0,0.02,0,0.02-0.01c0.44-0.17,0.84-0.5,0.98-0.92c0.32-0.01,0.63-0.02,0.95-0.02
	c0.13,0.1,0.26,0.21,0.39,0.31c0.15-0.11,0.31-0.22,0.46-0.33c0.57-0.02,1.15-0.03,1.72-0.05c1.22,0.54,2.44,0.76,3.86,0.59
	c-0.02-0.26-0.01-0.5-0.02-0.76c2.82-0.16,5.64-0.38,8.46-0.7c1.2,0.01,2.39,0.03,3.58,0.04c0.28,0.39,0.56,0.78,1.03,0.95
	c1.04,0.38,1.81-0.24,2.6-0.91c1.38,0.02,2.77,0.03,4.15,0.05c0.38,0.56,0.67,1.2,0.88,1.73c0.79-0.69,1.67-1.38,2.59-1.68
	c0.64,0.01,1.28,0.02,1.91,0.03c0.22,0.09,0.43,0.2,0.65,0.36c0.53,0.38,0.64,1.1,1.23,1.3c1.33,0.44,2.13-0.61,3.01-1.59
	c0.76,0.01,1.52,0.02,2.27,0.03c0.58,0.01,1.16,0.02,1.74,0.03c0.22,0.44,0.39,0.89,0.52,1.24c1.17,0.56,1.89-0.36,2.72-1.08
	c1.11,0.09,2.22,0.21,3.32,0.4c0.54,0.1,1.08,0.21,1.62,0.18c0.92,0.52,1.85,0.94,2.89,0.66c0.68-0.18,1.12-0.81,1.59-1.34
	c2.15,0.63,4.11,2.32,6.41,1.78c1.69-0.4,2.45-2.51,3.34-3.7c0.66,0.25,1.34,0.57,2.02,0.58c0.92,0.02,1.63-0.66,2.42-1.22
	c0.14,0.27,0.23,0.57,0.25,0.93c1.12-0.13,2.01-0.53,2.86-1.26c0.41-0.04,0.82-0.07,1.22-0.11c0.02,0.03,0.05,0.04,0.07,0.07
	c0.15-0.04,0.29-0.08,0.44-0.12c2.54-0.21,5.06-0.39,7.64-0.65c0.5,0.66,1.41,0.99,2.29,0.67c1.35-0.48,1.9-1.82,2.69-2.91
	c0.4-0.55,0.85-1.09,1.37-1.46c2.84,0.21,5.68,0.29,8.52,0.3c0.54,0.56,1.11,1.07,1.92,1.04c0.68-0.03,0.99-0.62,1.46-1.07
	c0.45-0.01,0.89-0.01,1.34-0.02c0.73-0.01,1.46-0.02,2.19-0.03c0.13,0.04,0.27,0.07,0.41,0.1c2.89,0.59,5.22-0.53,6.71-2.82
	c1.51,0.65,2.98,0.52,4.16-0.26c0.48-0.09,0.96-0.27,1.43-0.54c0.87-0.51,1.52-1.19,2.09-1.93c1.19,0.33,2.31,0.25,3.29-0.21
	c1.14,0.52,2.48,0.27,3.43-1.02c0.25-0.34,0.31-0.76,0.44-1.11c0.99,0.59,2.05,0.87,3.21,0.77c0.32,0.38,0.64,0.77,1.02,1.05
	c1.74,1.29,3.72,0.34,5.76-0.08c0.9-0.18,1.79-0.31,2.69-0.38c3.76,0.72,7.5,0.72,11.46,0.24c0.02,0,0.03,0,0.05-0.01
	c2.48,0.04,4.95-0.09,7.42-0.75c0.76-0.2,1.47-0.54,2.2-0.8c0.53-0.1,1.05-0.21,1.58-0.32c1.26-0.04,2.3,0.35,3.58,0.39
	c1.31,0.05,2.56-0.22,3.89-0.59c9.94-2.7,19.81-5.76,29.61-9.06c1.49-0.5,2.97-1.06,4.33-1.91c1.04-0.65,1.81-1.52,2.86-2.23
	c1.56-1.06,3.14-1.81,4.78-2.3c1.96,0.24,3.89,0.05,5.94-0.6c0.44,0.03,0.88,0.07,1.34,0.14c-1.4-1.13-2.39-2.43-3.1-4.08
	c0.2,0,0.41,0,0.61,0.01c3.31,0.78,6.39,0.83,9.51,0.1c0.69,0.01,1.38,0.01,2.07,0.02c-0.37-0.09-0.74-0.19-1.11-0.28
	c0.87-0.25,1.74-0.53,2.62-0.89C501.93,214.66,496.21,213.21,490.4,211.72z M244.05,386.83c0.01,0.48,0,0.94,0.01,1.41
	c-0.06-1.61-0.13-3.22-0.19-4.83C243.96,384.53,244.03,385.66,244.05,386.83z M239.31,423.27c-0.33-4.3-0.82-7.35-1.15-12.03
	c-0.35-5.11-0.38-15.42-0.06-20.05c0.65-9.15,0.11-18.12-0.29-25.9c-0.61-11.95-1.04-26.18-3.36-35.96
	c-1.08-4.56-1.5-3.02-2.17-5.33c-0.88-3.01-1.03-4.34-1.23-6.74c-0.14-1.66-0.27-3.31-0.4-4.95c0.11,0.08,0.22,0.16,0.33,0.24
	c0.39,0.63,0.85,1.21,1.55,1.65c1.32,0.82,2.83,0.85,3.97-0.24c0.22-0.21,0.3-0.43,0.32-0.66c0.32-0.12,0.6-0.27,0.87-0.42
	c0.53,0.48,1.1,0.89,1.85,1.05c1.26,0.26,2.13-0.22,2.37-1.48c0.61,0.29,1.22,0.61,1.82,0.92c-0.47,2.94-0.97,5.88-1.49,8.82
	c-0.3,0.7-0.66,1.37-1.11,2.02c-0.38,0.56-0.91,0.94-1.07,1.68c-0.17,0.8,0.1,1.48,0.61,2c-0.85,3.09-0.33,6.33,0.13,9.55
	c1.78,12.45-0.68,24.64,1.67,36.86c0.14,0.72,0.26,1.42,0.39,2.12c-0.18,8.67-0.03,17.31,1.18,26.03c0.01,0.9,0.02,1.79,0.04,2.7
	c0.08,2.48,0.13,5.26-0.43,7.87C242.91,416.63,241.13,419.98,239.31,423.27z M254.56,279.88c-0.42,0.99-0.8,2-1.15,3.02
	c0.65-2.81,1.32-5.62,2.02-8.43c0.28-0.67,0.56-1.34,0.85-2.02c0.78-1.84,1.62-3.72,2.48-5.62c0.76-0.6,1.55-1.14,2.48-1.52
	c0.24-0.1,0.49-0.18,0.74-0.26c0.26-0.04,0.52-0.09,0.78-0.15C259.99,269.88,256.78,274.63,254.56,279.88z"/>
</svg>
