<!-- Generator: Adobe Illustrator 23.0.4, SVG Export Plug-In  -->
<svg version="1.1" xmlns="http://www.w3.org/2000/svg" xmlns:xlink="http://www.w3.org/1999/xlink" x="0px" y="0px"
	 width="1041.01px" height="785.01px" viewBox="0 0 1041.01 785.01" style="enable-background:new 0 0 1041.01 785.01;"
	 xml:space="preserve">
<style type="text/css">
	.st0{fill:#2A242D;}
</style>
<defs>
</defs>
<path class="st0" d="M0,0v785.01h1041.01V0H0z M525.25,416.44c-4.77,0-9.16-1.56-12.72-4.16c-3.56,2.6-7.95,4.16-12.72,4.16
	c-11.83,0-21.42-9.47-21.42-21.15c0-11.68,9.59-21.15,21.42-21.15c4.77,0,9.16,1.56,12.72,4.16c3.56-2.6,7.95-4.16,12.72-4.16
	c11.83,0,21.42,9.47,21.42,21.15C546.67,406.97,537.08,416.44,525.25,416.44z"/>
</svg>
