<!-- Generator: Adobe Illustrator 23.0.4, SVG Export Plug-In  -->
<svg version="1.1" xmlns="http://www.w3.org/2000/svg" xmlns:xlink="http://www.w3.org/1999/xlink" x="0px" y="0px"
	 width="100.74px" height="107.58px" viewBox="0 0 100.74 107.58" style="enable-background:new 0 0 100.74 107.58;"
	 xml:space="preserve">
<style type="text/css">
	.st0{fill:#F5E8AA;stroke:#000000;stroke-width:0.0373;stroke-miterlimit:10;}
	.st1{fill:#F8EDF0;stroke:#000000;stroke-width:0.0373;stroke-miterlimit:10;}
	.st2{opacity:0.55;}
	.st3{fill:#F5DAD7;}
	.st4{opacity:0.1091;fill:#F5DAD7;}
	.st5{fill:#F5E8AA;stroke:#000000;stroke-width:0.0368;stroke-miterlimit:10;}
	.st6{fill:#DFB5A5;}
	.st7{fill:#E8BFA5;}
	.st8{opacity:0.98;fill:#332929;}
	.st9{opacity:0.71;fill:#CD4F58;}
	.st10{opacity:0.61;fill:#CD4F58;}
	.st11{opacity:0.73;fill:#CD4F58;}
	.st12{opacity:0.75;fill:#CD4F58;}
	.st13{opacity:0.55;fill:#CD4F58;}
	.st14{opacity:0.45;fill:#CD4F58;}
	.st15{opacity:0.1091;fill:#CD4F58;}
	.st16{opacity:0.57;fill:#D6D6D6;}
	.st17{fill:#ECEDCD;stroke:#000000;stroke-width:0.0373;stroke-miterlimit:10;}
	.st18{fill:none;stroke:#000000;stroke-width:0.1493;stroke-miterlimit:10;}
	.st19{fill:#020202;}
	.st20{fill:#FFFCFD;}
	.st21{opacity:0.47;fill:#C8B279;}
	.st22{opacity:0.28;fill:#B69745;}
</style>
<defs>
</defs>
<g>
	<path class="st0" d="M36.71,41.41L20.89,51.86c0.25,0.94-0.33,2.14-0.6,3.43l22.99,30c-0.09,3.59-0.24,5.97-0.45,7.31
		c-1.65,3.37-2.61,4.82-2.86,4.87l-0.6-1.94l-0.72,0.06c-0.24-2.16-0.97-3.63-0.3-4.78c0.58-1.37,0.97-2.8,1.04-4.33
		c0.26-1.87-1.59-4.27-3.58-6.72L21.78,60.97l-3.73-3.88l-1.34-2.84c-1.15-1.88,0.02-3.65,1.94-4.33l16.42-10l0.45,0.75h0.9
		L36.71,41.41z"/>
	<path class="st0" d="M52.08,47.38l-1.34,20.15c-0.39,0.9-0.03,3.11,0.9,6.27l1.79,29.56l2.09-0.15l-0.9-15.23l-0.75-14.33
		c0.86-2.38,1.15-4.71-0.45-6.87l0.75-15.23l0.3-3.28l-1.04-1.04L52.08,47.38z"/>
	<path class="st1" d="M4.76,21.26c-0.75-0.45-2.09,0-2.09,0c-0.42,0.35,5.36,3.45,7.31,3.88c1.07,0.08,2.38,0.5,3.28,0.3
		c1.28,0.13,2.54,0.27,3.43,0.6c-0.13,1.06-10.45,4.9-11.2,4.93c1.02-0.05,2.04-0.09,2.24,0.3c-0.9,0.46-1.8,0.75-2.69,0.9
		c0.81,0.29,1.57,0.47,2.09,0.15C6,34.64,3.14,36.2,0.14,37.68l2.24-0.45c-0.17,0.43-0.72,0.93-1.49,1.49
		c3.9-1.02,7.02-0.9,8.66-0.9c6.73,0.01,22.24,1.94,23.59,2.54c4.8,1.65,9.35,1.31,13.73,1.64c0.82,0.06,3.27,0.58,3.58,1.34
		c0.92,2.29,1.49,4.99,1.79,4.63l1.94,0.15c1.09-0.85,1.69-2.46,1.94-5.37l7.02-0.3c4.44,0.73,9.4,0.75,14.93,0.75
		c4.03,0.45,6.89,0.07,10.15-2.24c2.02-1.88,3.3-3.74,4.33-6.57c0.5-1.44,0.39-5.02-0.3-6.57c-0.22-3.57-2.99-6.87-5.67-12.09
		C86.13,14.89,85.82,12,85.82,12c0.03-0.95,0.38-1.13,1.04-0.6c0,0,0.52,1.28,0.75,1.79c0.55,1.25,3.47,3.63,3.58,3.43
		c0.26,0.73,0.81,1.27,1.34,1.64c0.88-0.79,1.42-1.74,1.64-2.84c0.33-1,0.52-1.97,0.15-2.86c0.05-0.48,0.21-0.78,0.53-0.82
		c-0.68-2.74,0.66-2.59,0.81-1.27c0.9,0.94,1.67,1.25,2.39,1.36c-0.01-1.63-0.15-2.99-0.9-5.22c-1.19-3.43-2.5-5.78-5.67-6.57
		c-1.8-0.19-3.66,0.28-5.52,0.9c-2.84,1.1-4.68,2.67-5.67,4.63c-1.14,3.24-1.23,6.13-0.75,8.81c3.24,7.51,6.81,14.86,5.82,15.82
		c-0.6,4.67-5.12,3.92-6.27-0.6l-0.6-5.08c-0.03-2.35-1.43-4.44-3.43-6.42c-2.53-2.26-5.13-3.45-7.76-3.88
		c-3.88-1.16-8.91-1.39-14.03-1.04l-13.73,0.9h-5.37c-2.52-0.1-5.11-1.11-7.76-2.84c-0.1,1.11,1.52,2.34,3.43,3.58
		c-1.36,0.3-2.63,0.37-3.73,0c-1.13-0.3-2.18-0.94-3.13-1.94c0.41,1.26,0.99,2.36,2.24,2.84c1.52,0.73,2.61,1.32,4.18,1.45
		l-4.33,1.49c1.24,0,2.37-0.08,3.13-0.4c-0.05,0.34-0.51,0.74-1.34,1.19h0.6h0.6c-2.65,1.51-5.49,2.65-8.51,3.43
		c-2,0.53-3.99,0.83-5.97,0.9c-1.27,0.13-2.63-0.08-4.03-0.45C8.11,23.01,6.64,22.29,4.76,21.26"/>
	<g class="st2">
		<path class="st3" d="M62.88,27.54c0.28-0.4,0.46-0.9,0.85-1.19c0.44-0.32,1.03-0.31,1.58-0.28c1.6,0.08,3.19,0.15,4.79,0.23
			c1.49,0.07,3.37-0.1,3.9-1.49c0.55,1.07,1.71,1.79,2.91,1.82c-0.42-4.86-4.46-8.85-9.06-10.46s-9.66-1.23-14.45-0.33
			c-5.75,1.08-11.35,2.9-16.65,5.39c0.73-0.21,1.45-0.41,2.18-0.62c-2.43-0.23-4.87,0.58-6.95,1.85c-2.09,1.26-3.88,2.95-5.65,4.63
			c0.95-0.32,1.9-0.64,2.85-0.95c-0.69,1.01-1.1,2.2-1.17,3.42c-0.01,0.25,0,0.53,0.17,0.71c0.19,0.19,0.5,0.19,0.78,0.15
			c1.06-0.13,2.08-0.47,3.01-0.99c0.35,0.72-0.47,1.68-0.01,2.34c0.34,0.5,1.09,0.39,1.67,0.23c1.18-0.33,2.36-0.66,3.54-0.99
			c-0.24,0.69-0.48,1.42-0.35,2.14c0.13,0.72,0.78,1.4,1.5,1.3c0.52-0.07,0.9-0.5,1.28-0.85c0.78-0.72,1.75-1.22,2.79-1.46
			c0.02,0.99,0.04,1.98,0.06,2.97c1.4,0.62,2.81-0.97,4.33-1.07c0.69-0.04,1.37,0.23,2.06,0.17c2.18-0.18,4.53-2.7,6.71-3.47
			C57.74,29.96,61.45,29.62,62.88,27.54z"/>
		<g>
			<g>
				<g>
					<path class="st4" d="M63.51,27.3c1.48-2.5,5.93-0.74,8.25-0.93c1.31-0.11,1.97-0.4,2.78-1.52c0.02-0.03-0.01-0.08-0.04-0.05
						c-0.39,0.97-1.14,1.36-2.26,1.17c-2.1,0.51-4.22,0.51-6.38-0.01c-1.32-0.13-0.5-0.11-0.82-0.08c-0.93,0.09-1.17,0.6-1.65,1.4
						C63.35,27.36,63.49,27.33,63.51,27.3z"/>
					<path class="st4" d="M63.48,27.58c0.49-0.82,1.07-1.13,1.98-1.33c0.92,0.1,1.85,0.16,2.78,0.19c1.17,0.09,2.35,0.16,3.53,0.2
						c1.45-0.11,1.99-0.42,2.78-1.52c0.01-0.02,0.01-0.07-0.01-0.04c-2,2.75-6.49,1.01-9.06,1.11c-1.2,0.05-1.37,0.27-2.01,1.34
						C63.46,27.54,63.47,27.6,63.48,27.58z"/>
					<path class="st4" d="M72.95,26.51c1.31-0.62,0.79-0.19,1.62-1.36c0.01-0.01,0.02-0.04,0.02-0.05c-0.54,0.45-1.08,0.9-1.62,1.36
						C72.97,26.47,72.95,26.51,72.95,26.51z"/>
					<path class="st4" d="M76.09,26.84c0.38,0.1,0.77,0.2,1.15,0.3c0.02,0,0.06-0.04,0.03-0.04c-0.38-0.1-0.76-0.2-1.14-0.29
						C76.12,26.8,76.1,26.84,76.09,26.84z"/>
					<path class="st4" d="M77.28,27.18c0.02,0,0.03-0.03,0.04-0.03C77.3,27.14,77.29,27.18,77.28,27.18z"/>
					<path class="st4" d="M63.57,27.35c1.3-2.19,5.02-1.05,7.08-0.96c0.39,0.02,0.78,0.04,1.16,0.04c0.59,0.03,1.14-0.1,1.63-0.39
						c1.03-0.16-0.07-0.79,1.69-0.11c4.56,1.76-2.67-0.21,2.14,1.01c0.01,0,0.03-0.03,0.03-0.04c-0.18-0.84-0.35-1.68-0.53-2.52
						c0,0-0.02,0.04-0.02,0.05c-0.72,0.15-1.44,0.3-2.16,0.46c-0.01-0.02-0.1-0.05-0.12-0.02c-2.15,2.98-6.48,0.79-9.44,1.1
						c-0.97,0.1-1.17,0.59-1.67,1.42C63.35,27.42,63.55,27.39,63.57,27.35z"/>
					<path class="st4" d="M67.94,15.71c-0.18-0.04-3.44-0.87-3.62-0.9c-1.85-0.3-3.72-0.28-5.58-0.17
						c-7.83,0.45-15.22,3.08-22.39,6.09c-0.05,0.02,0.01,0.11,0.05,0.1c0.77-0.18,1.54-0.35,2.31-0.53c0.02,0,0.03-0.03,0.05-0.03
						c-1.78,0.04-3.23,0.08-4.89,0.7c-3.13,1.17-5.58,3.58-8,5.78c-0.03,0.03,0.02,0.08,0.04,0.06c1.74-1.77,3.65-3.33,5.73-4.69
						c3.34-1.36,6.74-2.55,10.2-3.58c8.77-2.85,16.69-5.12,26.08-2.81C67.93,15.74,67.97,15.72,67.94,15.71z"/>
					<path class="st4" d="M74.24,20.01c-2.89-2.72-5.8-4.59-9.87-5.13c-9.59-1.26-19.31,2.29-27.96,5.93
						c-0.05,0.02,0.01,0.09,0.04,0.09c0.77-0.18,1.54-0.35,2.31-0.53c0.01,0,0.05-0.03,0.04-0.03c-1.78,0.04-3.23,0.08-4.89,0.71
						c-3.13,1.17-5.58,3.58-8,5.78c-0.03,0.02,0,0.07,0.03,0.06c1.7-0.2,2.41,0.06,2.14,0.77c0,0.01-0.01,0.02-0.01,0.02
						c0.19,0.45-0.44,1.23-0.39,1.84c0.06,0.68-0.09,0.26,0.19,0.88c0.01,0.01,0.03,0.04,0.02,0.01c0.36-1.48,0.72-2.96,1.08-4.44
						c0,0,0,0,0-0.01c-0.84-1.95,0.06-3.21,2.7-3.77c2.43-1.01,4.89-1.9,7.4-2.67c10.66-3.48,24.92-9.24,35.16,0.54
						C74.26,20.08,74.25,20.02,74.24,20.01z"/>
					<path class="st4" d="M32.09,29.65c0.02,0,0.03-0.03,0.05-0.03C32.12,29.62,32.1,29.65,32.09,29.65z"/>
					<path class="st4" d="M32.29,32.63c-0.02,0-0.04-0.01-0.05-0.01C32.25,32.61,32.27,32.63,32.29,32.63z"/>
					<path class="st4" d="M36.96,34.36c0.74,0.71,0.33,0.49,1.33,0.69c0.03,0.01,0.06-0.02,0.03-0.03c-0.43-0.22-0.87-0.44-1.3-0.65
						C37,34.36,36.96,34.36,36.96,34.36z"/>
					<path class="st4" d="M63.5,27.34c1.34-2.26,6.17-0.64,8.82-1.01c1.07-0.15,1.56-0.54,2.21-1.44c-0.19-0.03-0.38-0.06-0.58-0.09
						c0.98,1.21,1.78,1.73,3.27,2.1c0.02,0,0.02,0,0.02-0.02c-0.48-2.28-0.38-2.75-1.57-4.79c-1.52-2.62-3.88-4.5-6.59-5.76
						c-3.83-1.77-8.06-1.92-12.2-1.49c-7.2,0.74-13.9,3.21-20.51,5.98c0.02-0.01,0.31,0.46,0.42,0.42c0.7-0.2,1.4-0.41,2.11-0.61
						c0.02-0.01-0.11-0.28-0.18-0.28c-2.16,0.04-3.97,0.27-5.97,1.24c-2.62,1.28-4.73,3.29-6.87,5.23c0,0,0.39,0.28,0.48,0.26
						c0.56,0.19,1.12,0.38,1.69,0.57c-0.13,0.62-0.25,1.23-0.38,1.85c0,0.28-0.02,0.59,0.18,0.82c0.04,0.04,0.41,0.21,0.46,0.24
						c0.17,0.01,0.33,0.02,0.5,0.04c0.81-0.44,1.59-0.48,2.36-0.11c1.32,0.43,0.07,0.67,0.6,1.52c0.82,1.3,5.96-0.84,5.53-0.72
						c-0.06-0.1-0.12-0.2-0.18-0.3c-0.29,1.04-0.78,2.53,0.16,3.39c0.57,0.52,1.13,0.48,1.8,0.05c0.23-0.19,0.45-0.39,0.68-0.58
						c0.84-0.76,1.82-1.27,2.93-1.51c-0.12-0.07-0.24-0.14-0.35-0.21c0.03,0.98,0.06,1.95,0.09,2.93c0,0.05,0.12,0.24,0.17,0.25
						c1.37,0.26,2.31-0.33,3.62-0.75c1.5-0.48,2.83,0.23,4.33-0.44c0.99-0.43,1.88-1.09,2.77-1.68c1.31-0.86,2.66-1.49,4.17-1.94
						c1.11-0.33,2.27-0.49,3.33-0.96c1.12-0.5,1.69-0.96,2.59-1.84c-0.05,0.05-0.5-0.21-0.61-0.11c-1.08,1.25-2.47,2.01-4.18,2.29
						c-1.06,0.26-2.11,0.56-3.16,0.88c-1.48,0.57-2.67,1.57-4.02,2.36c-1.09,0.78-2.32,1.11-3.69,0.99
						c-0.65-0.16-1.29-0.12-1.91,0.11c-1.48,0.48-3.26,2.39-3.16-1.87c0-0.07-0.29-0.24-0.35-0.21c-0.81,0.16-1.53,0.5-2.16,1.02
						c-0.45,0.27-0.85,0.59-1.23,0.96c-1.55,0.96-2.47-0.81-1.63-2.83c0.01-0.03-0.13-0.31-0.18-0.3c1.99-0.55-4.03,1.49-4.73,1.05
						c-0.34-0.21-0.32-1.91-0.33-2.41c0-0.03-0.09-0.22-0.14-0.2c-0.96,0.4-2.89,1.54-3.82,0.58c-0.76-0.78,0.74-3.21,1.05-3.85
						c0.02-0.04-0.19-0.17-0.22-0.17c-1.02,0.28-2.03,0.57-3.05,0.85c0.16,0.09,0.32,0.17,0.48,0.26c2.11-1.92,4.15-3.86,6.73-5.16
						c1.96-0.98,3.6-1.21,5.8-1.29c-0.06-0.09-0.12-0.19-0.18-0.28c-0.78,0.15-1.56,0.31-2.35,0.46c0.14,0.14,0.28,0.28,0.42,0.42
						c8.07-3.38,16.82-6.64,25.73-6.03c2.55,0.17,5.32,0.67,7.57,1.97c0.69,0.45,1.37,0.9,2.06,1.35c2.24,1.38,3.04,3.5,2.38,6.36
						c-0.04-0.07-0.53-0.15-0.58-0.09c-0.53,1.03-1.43,1.52-2.72,1.46c-1.82,0.03-3.64-0.04-5.45-0.23
						c-0.56-0.04-0.63-0.08-1.05-0.02c-1,0.16-1.4,0.72-1.9,1.53C62.9,27.44,63.4,27.51,63.5,27.34z"/>
					<path class="st4" d="M63.55,27.43c1.34-2.26,6.23-0.65,8.83-1c1.08-0.15,1.56-0.53,2.21-1.44c-0.19-0.05-0.37-0.1-0.56-0.14
						c0.95,1.2,1.77,1.78,3.25,2.16c0.02,0.01,0.03,0,0.02-0.02c-0.54-2.59-1.19-4.87-3.06-6.88c-1.75-1.87-3.86-3.34-6.27-4.24
						c-3.44-1.28-7.45-1.33-11.05-0.95c-7.2,0.75-13.89,3.21-20.51,5.99c0.01,0,0.24,0.32,0.34,0.3c0.71-0.2,1.42-0.4,2.13-0.6
						c0.03-0.01-0.08-0.18-0.12-0.18c-2.13,0.05-2.84-0.13-4.86,0.7c-3.11,1.29-5.53,3.55-7.98,5.79c-0.01,0.01,0.33,0.18,0.38,0.16
						c1.91,0.04,2.37,0.88,1.4,2.51c-0.06,0.31,0,0.59,0.18,0.85c0.89,1.03,3.38-0.37,4.23-0.72c-0.05-0.08-0.1-0.16-0.16-0.25
						c0.09,0.75-0.59,1.94-0.15,2.64c0.82,1.3,5.97-0.84,5.55-0.72c-0.07-0.11-0.13-0.23-0.2-0.34c-0.27,0.94-0.72,2.24-0.12,3.16
						c0.46,0.72,1.01,0.73,1.7,0.5c0.43-0.15,0.79-0.41,1.08-0.77c0.84-0.76,1.82-1.26,2.93-1.51c-0.12-0.09-0.24-0.18-0.36-0.27
						c0.02,0.98,0.05,1.96,0.07,2.94c0,0.06,0.12,0.28,0.18,0.29c1.13,0.22,1.61,0.02,2.71-0.46c1.35-0.59,2.51-0.28,3.91-0.36
						c2.08-0.11,3.8-1.99,5.51-2.94c2.04-0.69,4.08-1.36,6.14-2.02c1.05-0.35,1.91-0.97,2.58-1.85c-0.04,0.04-0.51-0.27-0.61-0.18
						c-1.71,1.61-3.62,2.11-5.86,2.74c-1.57,0.44-2.73,1.01-4.14,1.92c-0.85,0.55-1.76,1.27-2.72,1.61
						c-1.08,0.38-2.26,0.1-3.35,0.18c-1.69,0.12-4.18,2.89-4.06-1.62c0-0.07-0.29-0.29-0.36-0.27c-0.81,0.16-1.53,0.5-2.16,1.02
						c-0.45,0.28-0.87,0.6-1.25,0.97c-1.53,0.94-2.53-0.65-1.63-2.76c0.02-0.05-0.13-0.38-0.19-0.36c-1.37,0.47-2.76,0.84-4.17,1.1
						c-0.53,0.14-0.81-0.08-0.84-0.64c-0.29-0.7-0.04-1.07-0.04-1.79c0-0.03-0.11-0.27-0.16-0.25c-0.74,0.31-3,1.64-3.81,0.75
						c-0.88-0.97,0.58-3.26,0.98-4.08c0.02-0.04-0.15-0.1-0.17-0.09c-1.01,0.29-2.02,0.57-3.02,0.86c0.13,0.05,0.25,0.11,0.38,0.16
						c1.72-1.74,3.61-3.29,5.66-4.63c1.34-0.91,2.82-1.42,4.44-1.53c0.11,0.1,0.22,0.2,0.34,0.3c5.47-2.29,10.79-4.31,16.66-5.39
						c3.44-0.63,7.46-1.17,10.94-0.53c2.76,0.51,5.67,1.35,7.85,3.23c1.09,1.21,2.17,2.43,3.26,3.64c1.7,1.78,1.41,2.73-0.86,2.83
						c-0.04-0.07-0.53-0.22-0.57-0.16c-0.53,1.03-1.43,1.52-2.72,1.47c-1.98,0.03-3.96-0.04-5.93-0.22c-0.22,0-0.42-0.03-0.64,0
						c-1,0.12-1.31,0.64-1.82,1.47C62.96,27.46,63.47,27.58,63.55,27.43z"/>
					<path class="st4" d="M47.14,34.23c1.28,0.15,2.17,0.4,3.4-0.14c0.98-0.43,1.89-1.1,2.78-1.68c1.85-1.21,3.74-1.78,5.85-2.38
						c1.8-0.52,2.93-1.08,4.26-2.39c0.03-0.03-0.01-0.08-0.04-0.05c-1.29,1.28-2.45,1.82-4.23,2.33c-0.99,0.29-2.16,0.53-3.14,0.9
						c-0.98,0.38-1.83,0.98-2.7,1.54c-1.1,1.21-2.42,1.81-3.94,1.81c-0.74,0.17-1.48,0.18-2.21,0.01
						C47.16,34.17,47.15,34.23,47.14,34.23z"/>
					<path class="st4" d="M46.22,34.69c1.68-0.35,2.76,0.3,4.35-0.32c0.95-0.38,1.93-1.15,2.78-1.69c2.27-1.44,3.46-1.69,5.85-2.38
						c1.78-0.51,2.91-1.06,4.25-2.4c0.03-0.03-0.01-0.07-0.03-0.05c-0.66,0.93-1.55,1.51-2.68,1.74c-1.02,0.5-2.09,0.86-3.22,1.06
						c-1.03,0.28-1.91,0.56-2.82,1.08c-2.18,1.23-3.6,2.93-6.5,2.83c-0.87-0.03-1.03-0.12-1.94,0.08
						C46.25,34.65,46.22,34.69,46.22,34.69z"/>
					<path class="st4" d="M63.48,27.47c1.57-2.65,5.8-0.82,8.26-0.94c1.34-0.06,2-0.41,2.79-1.52c-0.2-0.06-0.4-0.13-0.6-0.19
						c0.96,1.19,1.76,1.81,3.3,2.19c0.02,0.01,0.03,0,0.02-0.02c-0.54-2.59-1.19-4.86-3.06-6.86c-1.75-1.87-3.85-3.33-6.26-4.22
						c-3.44-1.27-7.44-1.32-11.03-0.95c-7.19,0.75-13.89,3.21-20.5,5.99c0.03-0.01,0.3,0.35,0.42,0.31c0.7-0.2,1.39-0.4,2.09-0.61
						c0.06-0.02-0.11-0.2-0.15-0.2c-2.34,0.05-2.62-0.13-4.85,0.7c-3.15,1.18-5.56,3.57-7.99,5.78c0.01-0.01,0.41,0.18,0.47,0.16
						c1.84,0.07,2.27,0.91,1.3,2.5c-0.06,0.3,0,0.57,0.18,0.82c0.88,1.02,3.37-0.36,4.21-0.7c-0.05-0.1-0.1-0.19-0.15-0.29
						c0.11,0.76-0.58,1.98-0.14,2.68c0.82,1.3,5.96-0.84,5.53-0.72c-0.07-0.14-0.13-0.29-0.2-0.43c-0.27,1-0.72,2.3-0.1,3.26
						c0.51,0.79,1.34,0.8,2.08,0.31c0.23-0.19,0.45-0.39,0.68-0.58c0.84-0.76,1.82-1.27,2.93-1.51c-0.13-0.11-0.26-0.22-0.38-0.34
						c0.03,0.98,0.07,1.95,0.1,2.93c0,0.07,0.13,0.36,0.21,0.37c1.5,0.29,2.23-0.55,3.61-0.85c0.98-0.22,1.99,0.09,2.96,0.04
						c0.9-0.04,1.36-0.35,2.07-0.74c1.86-1.02,3.45-2.45,5.52-3.04c1.08-0.31,2.17-0.56,3.24-0.9c1.45-0.46,2.32-1.03,3.41-2.11
						c-0.04,0.04-0.56-0.33-0.66-0.23c-1.89,1.78-4.17,2.23-6.61,2.95c-2.27,0.68-3.89,2.53-6.09,3.28
						c-0.82,0.28-1.48,0.34-2.33,0.28c-0.2-0.02-0.85-0.1-1.04-0.09c-1.61,0.12-2.61,1.3-4.28,1.02c0.07,0.12,0.14,0.25,0.21,0.37
						c0.02-0.98,0.05-1.97,0.07-2.95c0-0.07-0.32-0.36-0.38-0.34c-0.81,0.16-1.53,0.5-2.16,1.01c-0.44,0.27-0.85,0.59-1.22,0.95
						c-1.47,0.92-2.46-0.69-1.63-2.67c0.02-0.06-0.14-0.46-0.2-0.45c-1.27,0.42-2.55,0.77-3.85,1.03c-0.28,0.09-0.56,0.09-0.85,0.02
						c-0.34-0.22-0.33-1.81-0.33-2.29c0-0.03-0.11-0.34-0.16-0.32c-0.71,0.29-2.96,1.58-3.72,0.71c-0.83-0.95,0.59-3.15,0.98-3.95
						c0.02-0.04-0.21-0.08-0.24-0.08c-1.01,0.29-2.01,0.57-3.02,0.86c0.16,0.05,0.31,0.11,0.47,0.16c1.72-1.74,3.6-3.28,5.65-4.61
						c1.32-0.9,2.77-1.41,4.36-1.53c0.14,0.1,0.28,0.21,0.42,0.31c5.46-2.29,10.78-4.3,16.63-5.38c3.42-0.63,7.43-1.17,10.9-0.53
						c2.74,0.51,5.64,1.33,7.8,3.19c1.08,1.2,2.16,2.4,3.24,3.6c1.68,1.74,1.4,2.7-0.85,2.86c-0.04-0.07-0.57-0.27-0.61-0.21
						c-0.31,0.74-0.86,1.12-1.67,1.14c-0.7,0.33-1.44,0.44-2.22,0.34c-1.6-0.18-3.19-0.25-4.79-0.21c-0.23,0.01-0.45,0.01-0.68,0.03
						c-0.98,0.15-1.26,0.65-1.75,1.47C62.86,27.48,63.4,27.62,63.48,27.47z"/>
					<path class="st4" d="M63.5,27.38c1.86-3.13,6.57-0.24,9.39-1.09c1.11-0.34,1-0.47,1.64-1.36c-0.21-0.04-0.41-0.09-0.62-0.13
						c0.97,1.19,1.82,1.76,3.31,2.13c0.02,0.01,0.03,0,0.02-0.02c-0.48-2.28-0.39-2.75-1.57-4.79c-1.52-2.62-3.88-4.5-6.59-5.75
						c-3.83-1.77-8.05-1.91-12.19-1.49c-7.2,0.75-13.89,3.21-20.51,5.98c0.03-0.01,0.31,0.43,0.42,0.4c0.7-0.2,1.4-0.41,2.1-0.61
						c0.02-0.01-0.12-0.26-0.16-0.26c-2.17,0.05-3.98,0.27-5.98,1.24c-2.61,1.28-4.73,3.29-6.86,5.23c0,0,0.39,0.26,0.48,0.23
						c1.83,0.02,2.26,0.84,1.3,2.44c-0.06,0.3,0,0.57,0.18,0.81c0.88,1.02,3.36-0.36,4.2-0.69c-0.05-0.08-0.11-0.16-0.16-0.25
						c-0.05-0.36-0.44,2.15-0.12,2.64c0.82,1.28,5.8-0.8,5.52-0.73c-0.07-0.12-0.14-0.23-0.2-0.35c-0.26,0.98-0.7,2.23-0.09,3.17
						c0.5,0.78,1.33,0.79,2.08,0.32c0.23-0.19,0.45-0.39,0.68-0.58c0.84-0.76,1.82-1.27,2.93-1.51c-0.13-0.09-0.26-0.17-0.39-0.26
						c0.03,0.97,0.07,1.95,0.1,2.92c0,0.06,0.13,0.29,0.19,0.3c1.27,0.25,1.96-0.26,3.16-0.65c1.6-0.53,3.21,0.17,4.79-0.53
						c0.99-0.43,1.88-1.09,2.77-1.68c1.31-0.86,2.66-1.49,4.17-1.94c0.84-0.25,1.68-0.43,2.51-0.7c1.44-0.46,2.32-1.03,3.41-2.11
						c-0.05,0.05-0.54-0.26-0.66-0.15c-0.68,0.82-1.52,1.4-2.54,1.75c-1.6,0.47-3.2,0.95-4.8,1.42c-1.48,0.57-2.66,1.56-4.01,2.35
						c-1.09,0.78-2.32,1.11-3.68,0.99c-0.35-0.12-0.7-0.15-1.04-0.08c-1.71,0.14-4.11,2.9-4-1.63c0-0.07-0.32-0.28-0.39-0.26
						c-0.81,0.16-1.53,0.5-2.16,1.01c-0.44,0.27-0.85,0.59-1.22,0.95c-1.52,0.94-2.45-0.77-1.62-2.76c0.02-0.05-0.14-0.38-0.2-0.37
						c2.05-0.56-4.03,1.48-4.71,1.05c-0.34-0.21-0.32-1.87-0.32-2.36c0-0.03-0.11-0.27-0.16-0.25c-0.72,0.29-2.96,1.58-3.72,0.71
						c-0.83-0.96,0.58-3.15,0.98-3.95c0.02-0.04-0.2-0.15-0.22-0.14c-1.01,0.28-2.02,0.57-3.02,0.85c0.15,0.08,0.31,0.16,0.46,0.23
						c2.11-1.92,4.15-3.86,6.73-5.16c1.95-0.98,3.6-1.21,5.8-1.29c-0.06-0.09-0.12-0.17-0.17-0.26c-0.78,0.16-1.56,0.31-2.34,0.47
						c0.14,0.13,0.28,0.26,0.42,0.4c8.07-3.38,16.81-6.63,25.72-6.03c2.54,0.17,5.31,0.67,7.56,1.96c0.68,0.45,1.37,0.9,2.05,1.35
						c2.24,1.38,3.04,3.51,2.4,6.38c-0.04-0.07-0.57-0.19-0.62-0.13c-0.53,1.03-1.43,1.52-2.71,1.46c-2.07-0.11-4.14-0.19-6.21-0.25
						c-0.14,0.02-0.3,0.02-0.43,0.06c-0.94,0.27-1.26,0.68-1.76,1.49C62.87,27.45,63.4,27.55,63.5,27.38z"/>
					<path class="st4" d="M63.5,27.52c0.51-0.86,1.36-1.08,2.36-1.28c1.59,0.1,3.17,0.2,4.76,0.3c0.59,0.09,1.17,0.08,1.75-0.03
						c1.12-0.15,1.55-0.53,2.21-1.44c-0.1-0.04-0.19-0.07-0.29-0.11c0.87,1.25,1.41,1.73,2.98,2.15c0.01,0,0.02,0,0.02-0.02
						c-0.46-2.22-1-4.06-2.33-5.9c-1.52-2.1-3.54-3.66-5.88-4.73c-2.59-1.19-5.61-1.73-8.46-1.69c-8.47,0.12-16.53,2.97-24.25,6.21
						c-0.06,0.02,0.12,0.15,0.16,0.14c0.75-0.19,1.51-0.37,2.26-0.56c0.06-0.01,0-0.08-0.04-0.08c-2.14,0.05-2.86-0.12-4.89,0.71
						c-3.12,1.28-5.54,3.55-8.01,5.79c-0.05,0.04,0.17,0.09,0.2,0.08c0.66,0.25,1.31,0.5,1.97,0.74c-0.13,0.62-0.27,1.24-0.4,1.87
						c0,0.04-0.02,0.43,0,0.47c0.19,0.46,0.13,0.46,0.67,0.66c0.04,0.02,0.51,0.03,0.55,0.02c0.99-0.02,1.38-0.46,2.33-0.13
						c1.31,0.45,0.02,0.68,0.54,1.55c0.39,0.64,1.4,0.37,1.96,0.28c4.72-0.74,2.82-0.9,3.02,1.1c0.08,0.75,0.78,1.52,1.59,1.42
						c0.45-0.05,0.81-0.46,1.16-0.7c0.31-0.3,0.66-0.56,1.03-0.78c1.04-1.07,1.72-0.46,2.03,1.81c0,0.03,0.04,0.14,0.08,0.15
						c1.38,0.26,2.32-0.34,3.65-0.76c1.51-0.49,2.83,0.25,4.35-0.42c0.99-0.44,1.87-1.1,2.77-1.69c1.31-0.86,2.67-1.51,4.18-1.96
						c1.11-0.33,2.26-0.48,3.32-0.95c1.13-0.51,1.69-0.96,2.6-1.87c0.01-0.01-0.26-0.21-0.31-0.16c-1.07,1.3-2.47,2.09-4.22,2.35
						c-1.05,0.25-2.1,0.54-3.14,0.86c-1.5,0.58-2.71,1.62-4.08,2.44c-1.09,0.81-2.33,1.14-3.71,1c-0.66-0.18-1.3-0.15-1.94,0.1
						c-0.32,0.1-0.62,0.23-0.91,0.4c-1.39,0.98-2.2,0.2-2.44-2.35c0-0.04-0.12-0.18-0.17-0.16c-1.33,0.49-2.36,1.17-3.56,1.94
						c-0.42,0.55-0.86,0.6-1.33,0.14c-1.23-0.38-1.34-1.36-0.35-2.94c0.01-0.03-0.04-0.23-0.08-0.21c1.73-0.49-4.21,1.57-4.92,1.09
						c-0.33-0.22-0.24-2.05-0.23-2.58c0-0.02-0.02-0.15-0.06-0.13c-3.8-0.22-4.81-1.39-3.02-3.5c0.02-0.05-0.06-0.05-0.08-0.05
						c-0.05-0.51-0.09-1.03-0.14-1.54c1.21-1.15,2.57-2.06,4.08-2.73c1.59-0.86,3.29-1.45,5.09-1.78c3.21-0.97,6.4-1.98,9.57-3.04
						c3.08-0.81,6.23-1.52,9.4-1.9c4.94-1.1,9.33-0.39,13.18,2.13c3.22,1.15,4.72,3.75,4.47,7.81c-0.02-0.03-0.25-0.15-0.29-0.11
						c-0.91,0.5-1.82,0.99-2.73,1.49c-1.18,0-2.35-0.05-3.52-0.15c-0.25-0.01-2.32-0.27-3.15-0.18c-0.92,0.1-1.23,0.67-1.68,1.42
						C63.16,27.56,63.47,27.57,63.5,27.52z"/>
					<path class="st4" d="M31.77,32.04c0.53,0.37,0.56,0.44,1.22,0.41c0.01,0,0.02,0,0.04,0c0.23-0.03,0.47-0.07,0.69-0.13
						c2.41-1.02,3.44-0.83,3.08,0.57c-0.14,0.44-0.07,0.86,0.2,1.25c0.13,0.27,0.32,0.45,0.56,0.53c0.22,0.11,0.51,0.18,0.76,0.15
						c0.15-0.02,0.28-0.17,0.42-0.19c0.14-0.05,0.27-0.12,0.4-0.19c1.67-2.31,2.83-2,3.46,0.91c0,0,0,0,0,0
						c1.26,0.23,1.99-0.22,3.17-0.67c0.88-0.33,1.51-0.38,2.42-0.28c0.93,0.11,1.39,0.18,2.38-0.26c0.73-0.32,1.42-0.78,2.08-1.22
						c1.56-1.04,3.07-1.88,4.88-2.42c1.1-0.33,2.25-0.51,3.31-0.95c1.13-0.47,1.72-0.99,2.61-1.86c0.04-0.04-0.1-0.08-0.13-0.06
						c-1.06,1.32-2.46,2.11-4.22,2.37c-1.05,0.25-2.1,0.54-3.14,0.85c-1.24,0.48-2.3,1.27-3.4,2c-1.01,0.75-2.15,1.27-3.4,1.58
						c-0.68-0.06-1.37-0.14-2.05-0.22c-0.65,0.08-1.26,0.29-1.83,0.61c-1.46,1.03-2.32,0.2-2.57-2.5c0-0.01-0.02-0.02-0.03-0.02
						c-1.1,0.26-2.06,0.76-2.9,1.52c-0.37,0.29-0.83,0.34-1.39,0.16c-1.01,0.56-1.55,0.38-1.64-0.56c-0.01-0.77,0.18-1.48,0.57-2.14
						c0-0.01,0-0.02-0.01-0.01c-1.85,0.26-3.69,0.52-5.54,0.78C31.81,32.05,31.76,32.03,31.77,32.04z"/>
					<path class="st4" d="M63.54,27.53c1.57-2.63,5.82-0.8,8.28-0.91c1.35-0.06,1.99-0.41,2.78-1.52c-0.16-0.06-0.31-0.13-0.47-0.19
						c0.93,1.23,1.59,1.81,3.16,2.22c0.02,0.01,0.02,0,0.02-0.02c-0.17-1.74-0.7-3.37-1.59-4.88c-0.5-0.69-0.99-1.37-1.49-2.06
						c-2.06-2.5-5.03-3.93-8.09-4.69c-3.71-0.92-7.35-0.79-11.11-0.22c-6.58,0.99-12.57,3.16-18.67,5.72c0,0,0.2,0.21,0.26,0.19
						c0.74-0.2,1.49-0.39,2.23-0.59c0.06-0.01-0.07-0.11-0.09-0.11c-2.71,0.06-4.76,0.43-7.14,1.81c-2.17,1.26-3.91,3.02-5.75,4.69
						c-0.04,0.04,0.26,0.11,0.31,0.1c0.03-0.01,1.85,0.74,1.85,0.74c0,0.01-0.4,1.87-0.4,1.87c-0.01,1.29,0.98,1.19,2.05,0.97
						c0.62-0.38,1.09-0.24,1.4,0.4c0.38,0.12,0.57,0.31,0.56,0.59c0.06,0.13,0.03,0.49,0.1,0.61c0.81,1.31,6.01-0.85,5.59-0.74
						c-0.05-0.12-0.1-0.24-0.16-0.37c-0.31,0.94-0.8,2.26-0.19,3.21c0.47,0.73,1.02,0.73,1.73,0.49c0.44-0.16,0.8-0.43,1.1-0.8
						c0.84-0.76,1.81-1.27,2.92-1.51c-0.1-0.09-0.19-0.19-0.29-0.28c0.01,0.99,0.01,1.98,0.02,2.97c0,0.05,0.09,0.29,0.15,0.3
						c1.28,0.25,1.98-0.26,3.19-0.66c1.61-0.53,3.22,0.18,4.81-0.52c1.95-0.86,3.48-2.46,5.48-3.23c1.28-0.49,2.67-0.69,3.97-1.11
						c1.46-0.47,2.32-1.04,3.42-2.13c-0.01,0.01-0.43-0.32-0.5-0.25c-0.81,0.77-1.52,1.36-2.57,1.8c-1.06,0.44-2.21,0.66-3.31,0.97
						c-2.37,0.66-4.06,2.06-6.2,3.2c-1.46,0.78-2.99,0.34-4.51,0.64c-2.21,0.44-3.81,2.93-3.65-1.72c0-0.04-0.23-0.3-0.29-0.28
						c-0.81,0.16-1.53,0.5-2.15,1.01c-0.46,0.29-0.89,0.62-1.28,1c-1.53,0.96-2.67-0.49-1.67-2.76c0.01-0.03-0.11-0.38-0.16-0.37
						c1.87-0.52-4.14,1.54-4.82,1.08c-0.34-0.23-0.27-1.93-0.26-2.43c0-0.03-0.07-0.26-0.11-0.25c-3.44,1.49-5.53,1.79-2.91-3.39
						c0.03-0.06-0.12-0.05-0.15-0.04c1.46-2.83,3.56-4.54,6.3-5.1c0.94-0.65,1.32-0.66,1.14-0.03c0.09,0.06,0.18,0.13,0.26,0.19
						c5.46-2.29,10.87-4.26,16.69-5.41c4.24-0.84,8.55-1.13,12.77-0.09c2.72,0.66,4.98,1.76,7.04,3.69c0.96,0.8,1.75,1.74,2.37,2.84
						c1.72,1.82,1.42,2.79-0.92,2.89c-0.02-0.03-0.43-0.24-0.47-0.19c-0.31,0.74-0.86,1.13-1.67,1.15c-0.7,0.33-1.44,0.44-2.21,0.32
						c-1.64-0.03-3.54-0.48-5.17-0.25c-1.15,0.16-1.39,0.37-2.04,1.44C63.05,27.51,63.48,27.63,63.54,27.53z"/>
					<path class="st4" d="M63.48,27.43c1.59-2.67,5.52-0.81,8.26-0.94c1.34-0.06,1.99-0.42,2.79-1.52c-0.2-0.05-0.4-0.1-0.59-0.15
						c0.97,1.19,1.81,1.78,3.29,2.15c0.02,0.01,0.03,0,0.02-0.02c-0.54-2.57-1.21-4.87-3.04-6.84c-1.75-1.87-3.86-3.34-6.27-4.23
						c-3.44-1.27-7.44-1.32-11.04-0.95c-7.2,0.75-13.89,3.21-20.51,5.98c0.03-0.01,0.31,0.39,0.43,0.36c0.7-0.2,1.4-0.41,2.1-0.61
						c0.02-0.01-0.13-0.23-0.17-0.23c-2.13,0.05-2.84-0.13-4.86,0.7c-3.11,1.28-5.53,3.55-7.98,5.78c0.01-0.01,0.41,0.22,0.48,0.2
						c1.83,0.04,2.27,0.87,1.3,2.47c-0.06,0.3,0,0.57,0.18,0.81c0.88,1.02,3.36-0.36,4.2-0.7c-0.05-0.09-0.1-0.17-0.15-0.26
						c-0.05-0.37-0.45,2.17-0.13,2.65c0.82,1.28,5.81-0.81,5.53-0.73c-0.07-0.13-0.13-0.26-0.2-0.39c-0.26,0.99-0.72,2.26-0.1,3.22
						c0.5,0.78,1.33,0.79,2.08,0.31c0.23-0.19,0.45-0.39,0.68-0.58c0.84-0.76,1.82-1.27,2.93-1.51c-0.13-0.1-0.25-0.2-0.38-0.3
						c0.03,0.97,0.07,1.95,0.1,2.92c0,0.06,0.12,0.32,0.19,0.33c1.27,0.25,1.96-0.25,3.16-0.65c1.6-0.53,3.21,0.17,4.79-0.52
						c1.94-0.85,3.48-2.44,5.47-3.2c1.28-0.49,2.68-0.7,3.98-1.12c1.44-0.46,2.32-1.03,3.41-2.11c-0.04,0.04-0.54-0.29-0.65-0.19
						c-1.72,1.61-3.64,2.1-5.87,2.73c-2.34,0.66-4.03,2.02-6.16,3.15c-1.45,0.77-2.98,0.35-4.49,0.65
						c-1.43,0.28-2.31,1.18-3.83,0.92c0.07,0.11,0.13,0.22,0.2,0.34c0.02-0.98,0.05-1.97,0.07-2.95c0-0.07-0.31-0.32-0.38-0.3
						c-0.81,0.16-1.53,0.5-2.16,1.01c-0.44,0.27-0.85,0.59-1.22,0.95c-1.5,0.93-2.45-0.75-1.62-2.73c0.01-0.03-0.15-0.41-0.2-0.39
						c2.08-0.57-4.03,1.48-4.71,1.05c-0.34-0.22-0.33-1.84-0.34-2.32c0-0.03-0.1-0.31-0.15-0.28c-0.71,0.29-2.96,1.58-3.71,0.71
						c-0.82-0.95,0.58-3.15,0.98-3.94c0.02-0.04-0.21-0.12-0.24-0.11c-1.01,0.29-2.02,0.57-3.02,0.86c0.16,0.07,0.32,0.13,0.48,0.2
						c1.72-1.74,3.6-3.28,5.64-4.61c2.06-1.31,4.35-1.92,6.86-1.83c-0.06-0.08-0.11-0.15-0.17-0.23c-0.78,0.16-1.56,0.32-2.34,0.48
						c0.14,0.12,0.28,0.24,0.43,0.36c5.46-2.29,10.77-4.3,16.63-5.38c3.42-0.63,7.43-1.17,10.9-0.53c2.77,0.51,5.59,1.35,7.8,3.19
						c0.59,0.55,1.19,1.11,1.78,1.66c3.48,2.74,3.68,4.33,0.61,4.76c-0.04-0.07-0.56-0.23-0.61-0.17c-0.53,1.03-1.43,1.51-2.71,1.47
						c-1.98,0.04-3.96-0.02-5.94-0.2c-0.18,0.01-0.37-0.04-0.55,0.01c-1.01,0.24-1.35,0.57-1.91,1.49
						C62.86,27.46,63.39,27.58,63.48,27.43z"/>
					<path class="st4" d="M63.57,27.48c2.08-1.66,4.46-1.98,7.13-0.96c0.58,0.09,1.15,0.08,1.72-0.03c1.08-0.15,1.56-0.53,2.21-1.45
						c-0.16-0.05-0.31-0.1-0.47-0.16c0.91,1.22,1.61,1.79,3.15,2.19c0.02,0.01,0.02,0,0.02-0.02c-0.17-1.74-0.7-3.36-1.59-4.87
						c-0.87-1.48-1.99-2.76-3.35-3.81c-1.34-1.07-2.82-1.89-4.43-2.49c-3.44-1.28-7.46-1.32-11.06-0.95c-7.2,0.75-13.9,3.22-20.52,6
						c-0.01,0,0.18,0.22,0.24,0.21c0.75-0.19,1.49-0.39,2.24-0.58c0.06-0.02-0.06-0.12-0.09-0.12c-2.72,0.06-4.72,0.41-7.12,1.8
						c-2.18,1.26-3.92,3.03-5.76,4.7c-0.01,0.01,0.25,0.12,0.29,0.11c1.49-0.16,2.12,0.08,1.89,0.71c-0.11,0.3-0.17,0.61-0.2,0.93
						c-0.01,0.07-0.32,1.1-0.2,1.4c0.55,1.35,1.85,0.2,2.88,0.33c0.44,0.11,0.89,0.23,1.33,0.34c-0.07,0.25-0.14,0.51-0.2,0.76
						c-0.01,0.18-0.08-0.07,0.04,0.36c0.54,1.87,5.6-0.42,5.65-0.43c-0.05-0.11-0.1-0.21-0.15-0.32c-0.32,0.95-0.82,2.19-0.2,3.15
						c0.28,0.43,0.81,0.75,1.33,0.7c0.59-0.19,1.09-0.52,1.5-0.99c0.84-0.76,1.82-1.26,2.93-1.51c-0.09-0.08-0.19-0.16-0.28-0.24
						c0,0.99,0,1.99,0.01,2.98c0,0.05,0.1,0.24,0.15,0.25c1.14,0.22,1.63,0.02,2.73-0.47c1.36-0.6,2.52-0.28,3.92-0.35
						c2.08-0.11,3.8-2,5.5-2.95c2.04-0.69,4.08-1.37,6.14-2.02c1.06-0.35,1.92-0.97,2.59-1.86c-0.01,0.01-0.42-0.29-0.5-0.21
						c-0.81,0.78-1.52,1.37-2.57,1.81c-1.05,0.44-2.2,0.66-3.29,0.96c-1.84,0.51-3.26,1.34-4.86,2.4c-1.09,0.72-1.9,1.16-3.21,1.31
						c-0.82,0.1-1.43-0.02-2.2,0.04c-0.47,0.03-0.93,0.24-1.36,0.41c-1.35,0.53-2.91,1.98-2.76-2.06c0-0.04-0.23-0.26-0.28-0.24
						c-0.81,0.16-1.54,0.5-2.16,1.02c-0.47,0.29-0.9,0.63-1.29,1.01c-1.56,1-2.68-0.54-1.67-2.82c0.01-0.03-0.1-0.33-0.15-0.32
						c-1.38,0.49-2.78,0.86-4.21,1.13c-0.57,0.16-0.86-0.06-0.87-0.66c-0.28-0.72-0.02-1.09,0-1.84c0-0.03-0.06-0.25-0.11-0.23
						c-1.02,0.44-2.4,1.32-3.52,0.91c-1.68-0.62-0.39-2.39,0.59-4.33c0.02-0.04-0.11-0.05-0.13-0.05c-1.02,0.29-2.05,0.58-3.07,0.87
						c0.1,0.04,0.19,0.07,0.29,0.11c2.28-2.37,4.9-4.28,7.87-5.74c1.73-1.28,2.51-1.4,2.34-0.37c0.08,0.07,0.16,0.14,0.24,0.21
						c5.48-2.3,10.82-4.33,16.7-5.41c3.46-0.64,7.5-1.18,11-0.53c3.64,0.67,7.27,1.98,9.73,4.98c0.49,0.66,0.98,1.33,1.47,1.99
						c1.73,1.84,1.43,2.79-0.91,2.85c-0.02-0.04-0.43-0.21-0.47-0.16c-0.52,1.04-1.43,1.53-2.72,1.48c-0.39,0-0.78,0-1.17,0
						c1.42,0.01-4.21-0.44-5.52-0.27c-0.97,0.12-1.23,0.68-1.7,1.45C63.08,27.49,63.5,27.6,63.57,27.48z"/>
					<path class="st4" d="M48.22,34.65c2.71,0.3,4.33-1.6,6.53-2.84c1.44-0.81,2.91-1.04,4.48-1.49c1.88-0.54,2.92-1.07,4.25-2.4
						c0.02-0.02,0.01-0.06-0.01-0.04c-2.31,2.27-4.61,2.16-7.37,3.23c-2.68,1.03-4.79,3.81-7.84,3.49
						C48.24,34.61,48.2,34.65,48.22,34.65z"/>
				</g>
			</g>
		</g>
	</g>
	<path class="st5" d="M55.41,102c0.06-0.08,0.11,0.15,0.34,0.68c0.21,0.48,0.44,0.97,0.83,1.29c0.56,0.45,1.31,0.45,2,0.42
		c1.5-0.06,2.99-0.11,4.49-0.17c0.47-0.02,1.03,0.02,1.25,0.47c0.21,0.41-0.02,0.95-0.38,1.19c-0.36,0.24-0.81,0.26-1.24,0.24
		c0.03,0.3,0.06,0.6,0.09,0.9c0.01,0.1,0.02,0.2-0.02,0.28c-0.07,0.15-0.24,0.17-0.39,0.19c-1.08,0.09-2.18,0.17-3.22-0.16
		c-1.44-0.45-2.86-1.69-4.28-1.13c-0.32,0.13-0.61,0.34-0.93,0.5c-0.62,0.32-1.34,0.41-2.01,0.26c-0.13-0.69,0.4-1.29,0.76-1.87
		c0.51-0.83,0.74-1.88,0.62-2.88"/>
	<path class="st6" d="M54.23,105.19c0.13-0.13,0.27-0.26,0.45-0.29c0.15-0.03,0.31,0.01,0.46,0.05c0.75,0.21,1.5,0.41,2.26,0.62
		c0.39,0.11,0.78,0.21,1.15,0.36c0.51,0.2,0.99,0.49,1.48,0.73c0.67,0.32,1.37,0.57,2.06,0.82c-1.28,0.2-2.62,0.04-3.81-0.46
		c-0.38-0.16-0.76-0.36-1.15-0.5c-0.92-0.34-1.95-0.35-2.89-0.06c-0.32,0.1-1.7,0.66-0.92-0.1S53.96,105.46,54.23,105.19z"/>
	<path class="st7" d="M62.95,106.13c-0.63,0.05-1.29,0.1-1.89-0.12c-0.19-0.07-0.37-0.17-0.56-0.25c-0.28-0.13-0.57-0.23-0.86-0.32
		c1.37,0.24,2.77,0.24,4.15,0.25c0.06,0,0.12,0,0.17,0.03s0.08,0.1,0.05,0.15c-0.02,0.03-0.05,0.04-0.08,0.05
		c-0.26,0.1-0.52,0.21-0.79,0.2c-0.09,0-0.21,0-0.24,0.08c-0.02,0.04,0,0.09,0,0.14c0.01,0.19-0.25,0.28-0.43,0.22
		c-0.18-0.06-0.32-0.2-0.5-0.26c-0.14-0.05-0.29-0.04-0.43-0.07s-0.29-0.1-0.35-0.24"/>
	<path class="st8" d="M23.27,22.6l-3.88,0.45c-1.52-0.16-2.92,0.02-4.18,0.6c-2.09,0.36-4,0.27-5.67-0.45
		c-1.93-0.63-3.38-1.67-4.63-2.09c-0.43-0.14-1.79,0.15-1.79,0.15c0.84,1.02,2.22,2.01,3.88,2.99c0.67,0.55,1.7,0.93,2.99,1.19
		c1.37,0.11,2.71,0.14,4.03,0.15c0.81,0.23,1.61,0.34,2.39,0.3c0.33,0.24,0.08,0.62-1.04,1.19l-6.42,2.84l-3.28,0.9l1.94,0.3
		l-2.09,1.04L7,32.3L5.81,34.1c2.16-1.41,4.33-0.9,6.57-0.9c1.16,0.48,2.36,0.47,3.58,0.15c1.6-0.7,3.23-1.49,4.33-1.19
		c1.26-0.05,2.45-0.05,3.58,0c1.11,0.47,2.31,0.71,3.58,0.75l3.13,0.75L29.1,32.6l-1.34-1.64l0.6-0.9l-1.34-0.3l-0.2-0.31
		c-2.61,1.52-2.99,1.68-0.1-0.17l-0.25-0.39c-4.74,2.38-4.98,2.34-0.16-0.4c-0.17,0.09-0.99-0.13-0.81-0.52
		c0.34-0.76,0.59-0.76-0.2-0.25c-0.3,0.19-0.19-0.25,0.06-0.47c0.73-0.62,0.99-0.97-0.04-0.44c-0.2,0.1,0.01-0.46,0.05-0.72
		c-6.82,3.3-9.13,4.31-0.16-0.42c0,0-0.18-0.52-0.12-0.69c0.06-0.2,0.6-0.6,0.6-0.6c-0.46-0.34-0.71-0.84-0.75-1.49l-4.33,1.04
		l1.04-0.6h-1.64L23.27,22.6z"/>
	<path class="st9" d="M35.66,28.57c-0.52-0.23,0.19-2.42-0.15-2.54c-0.29-0.11-1.27,1.37-1.64,3.13c-0.15,0.7-0.49,2.3,0.15,2.69
		c0.65,0.4,2.12-0.61,2.84-1.79c0.64-1.05,0.78-2.38,0.45-2.54C36.93,27.34,36.11,28.77,35.66,28.57z"/>
	<path class="st10" d="M37.9,29.17c-0.52-0.23,0.19-2.42-0.15-2.54c-0.29-0.11-1.27,1.37-1.64,3.13c-0.15,0.7-0.49,2.3,0.15,2.69
		c0.65,0.4,2.12-0.61,2.84-1.79c0.64-1.05,0.78-2.38,0.45-2.54C39.17,27.94,38.35,29.37,37.9,29.17z"/>
	<path class="st11" d="M40.89,29.77c-0.37,0.13-0.49,0.49-0.6,0.45c-0.22-0.09,0.42-1.64,0.15-1.79c-0.25-0.14-1.34,0.86-1.79,2.24
		c-0.28,0.86-0.46,2.34,0.15,2.69c0.82,0.47,2.53-1.45,2.84-1.79c0.65-0.72,0.65-1.02,0.6-1.19C42.1,29.9,41.37,29.6,40.89,29.77z"
		/>
	<path class="st11" d="M43.43,29.77c-0.37,0.13-0.49,0.49-0.6,0.45c-0.22-0.09,0.42-1.64,0.15-1.79c-0.25-0.14-1.34,0.86-1.79,2.24
		c-0.28,0.86-0.46,2.34,0.15,2.69c0.82,0.47,2.53-1.45,2.84-1.79c0.65-0.72,0.65-1.02,0.6-1.19C44.63,29.9,43.91,29.6,43.43,29.77z"
		/>
	<path class="st12" d="M49.1,30.51c0.28,1.01-1.45,2.44-2.99,2.99c-0.94,0.34-1.98,0.41-2.09,0.15c-0.12-0.28,0.99-0.71,1.79-2.09
		c0.11-0.18,0.22-0.4,0.45-0.75c0.47-0.72,0.71-1.08,1.04-1.19C47.92,29.4,48.92,29.87,49.1,30.51z"/>
	<path class="st13" d="M56.86,26.03c-0.22-0.13-1.33,1.58-1.79,1.34c-0.25-0.13-0.12-0.71-0.3-0.75c-0.17-0.04-0.56,0.48-0.45,0.9
		c0.12,0.46,0.83,0.71,1.34,0.6C56.72,27.9,57.06,26.16,56.86,26.03z"/>
	<path class="st14" d="M52.04,26.04c-0.19-0.1-1.15,1.13-1.55,0.96c-0.21-0.09-0.11-0.51-0.26-0.53c-0.15-0.03-0.48,0.34-0.39,0.64
		c0.11,0.33,0.72,0.5,1.16,0.43C51.92,27.38,52.21,26.13,52.04,26.04z"/>
	<g>
		<g>
			<g>
				<path class="st15" d="M36,29.82c-0.05,0.54-0.11,1.07-0.16,1.61c0.41-0.46,0.82-0.91,1.23-1.37c-0.68-0.95-1.37-1.9-2.05-2.85
					c-0.14-0.19-1.39-0.31-1.56-0.25c-1.03,0.38-1.49,1.91-1.83,2.79c0.58-0.08,1.16-0.15,1.74-0.23c-0.6-0.72-1.01-1.52-1.24-2.42
					c-0.15-0.4-1.39-0.6-1.44-0.89c0.17,1.22,0.49,2.4,0.95,3.54c0.03,0.1,1.65-0.07,1.74-0.23c0.18-0.63,0.52-1.15,1.03-1.54
					c0.29-0.2,0.51-0.45,0.64-0.77c-0.54-0.08-1.07-0.15-1.61-0.23c0.5,1.63,1.31,3.11,2.43,4.45c-0.02-0.04,1.18-1.11,1.23-1.37
					c0.09-0.48,0.17-0.96,0.26-1.44C37.25,29.01,36.05,29.31,36,29.82z"/>
				<path class="st15" d="M36.03,30.09c-0.05,0.54-0.11,1.08-0.16,1.62c0.35-0.49,0.7-0.98,1.05-1.47
					c-0.66-1.04-1.33-2.09-1.99-3.13c-0.02,0-0.03,0-0.05,0c-0.61-0.1-1.18-0.03-1.7,0.2c-0.77,0.73-1.28,1.62-1.51,2.66
					c0.49-0.14,0.99-0.27,1.48-0.41c-0.58-0.78-0.96-1.64-1.17-2.59c-0.1-0.3-1.19-0.39-1.22-0.54c0.16,1.22,0.46,2.4,0.91,3.54
					c0.02,0.07,1.39-0.25,1.48-0.41c0.19-0.63,0.54-1.14,1.05-1.53c0.31-0.18,0.51-0.44,0.63-0.77c-0.45-0.01-0.91-0.03-1.36-0.04
					c0.46,1.65,1.26,3.15,2.4,4.5c-0.02-0.04,1.02-1.25,1.05-1.41c0.09-0.51,0.17-1.03,0.26-1.54
					C37.1,29.19,36.08,29.56,36.03,30.09z"/>
				<path class="st15" d="M35.57,29.96c-0.04,0.55-0.08,1.1-0.12,1.66c0.08-0.05,0.16-0.1,0.25-0.15c-1.04-1.41-1.9-2.92-2.6-4.51
					c-0.02-0.03-0.07-0.08-0.1-0.08c-0.65-0.06-0.37-0.1-0.91,0.6c-0.17,0.2-0.34,0.42-0.49,0.63c-1.13-0.19-1.51-0.97-1.12-2.32
					c-0.01-0.07-0.21-0.17-0.19-0.07c0.08,1.34,0.33,2.65,0.75,3.93c0.01,0.05,0.21,0.05,0.23,0c1.86-3.36,3.26-2.7,4.19,1.98
					c0.04,0.08,0.24-0.1,0.25-0.15c0.04-0.55,0.08-1.1,0.11-1.65C35.82,29.73,35.58,29.89,35.57,29.96z"/>
				<path class="st15" d="M35.61,30.77c-0.06,0.55-0.11,1.11-0.17,1.66c0.12-0.17,0.24-0.34,0.37-0.5
					c-1.02-1.35-1.94-2.75-2.77-4.21c0-0.01-0.01-0.02-0.02-0.02c-0.12,0.04-0.33-0.09-0.44-0.02c-0.37,0.23-3.8,1.49-0.98,1.25
					c-1.39,0.12-1.11-1.66-1.22-2.39c-0.01-0.07-0.11-0.06-0.1,0.01c0.09,1.35,0.34,2.66,0.74,3.95c0.02,0.09,0.22-0.05,0.24-0.09
					c1.87-3.22,3.28-2.54,4.21,2.06c0.03,0.05,0.36-0.45,0.37-0.5c0.07-0.55,0.13-1.09,0.2-1.64
					C36.03,30.28,35.62,30.62,35.61,30.77z"/>
				<path class="st15" d="M35.93,30.21c-0.05,0.54-0.1,1.08-0.15,1.63c0.44-0.6,0.89-1.21,1.33-1.81c-0.65-1.03-1.3-2.06-1.96-3.09
					c-0.07,0-0.13,0.02-0.19,0.07c-3.17,1.77-2.43,0.58-3.35,3.06c0.6-0.18,1.21-0.36,1.81-0.54c-0.57-0.77-0.94-1.63-1.13-2.57
					c-0.1-0.32-1.54-0.31-1.57-0.46c0.17,1.22,0.46,2.41,0.88,3.57c0.01,0.05,1.71-0.35,1.81-0.54c0.19-0.65,0.54-1.19,1.05-1.61
					c0.31-0.2,0.52-0.47,0.61-0.81c-0.57,0.06-1.13,0.12-1.7,0.17c0.44,1.67,1.24,3.2,2.4,4.57c-0.06-0.11,1.27-1.47,1.33-1.81
					c0.09-0.5,0.18-0.99,0.26-1.49C37.27,29.09,35.99,29.55,35.93,30.21z"/>
				<path class="st15" d="M36.02,29.92c-0.05,0.54-0.11,1.08-0.16,1.61c0.42-0.51,0.84-1.02,1.26-1.53
					c-0.64-1.02-1.29-2.04-1.93-3.06c-0.02,0-0.03,0-0.05,0c-0.69-0.08-1.35-0.02-1.98,0.2c-0.77,0.75-1.26,1.65-1.49,2.7
					c0.59-0.11,1.19-0.22,1.78-0.33c-0.58-0.72-0.98-1.54-1.19-2.44c-0.14-0.39-1.47-0.52-1.53-0.78c0.17,1.22,0.48,2.4,0.94,3.54
					c0.03,0.08,1.69-0.16,1.78-0.33c0.18-0.65,0.53-1.18,1.04-1.59c0.3-0.2,0.51-0.46,0.62-0.8c-0.56-0.02-1.11-0.05-1.67-0.07
					c0.49,1.63,1.3,3.13,2.43,4.48c-0.04-0.06,1.21-1.24,1.26-1.53c0.09-0.49,0.17-0.98,0.26-1.46C37.3,29,36.07,29.36,36.02,29.92z
					"/>
				<path class="st15" d="M35.74,30.44c-0.05,0.54-0.11,1.07-0.16,1.61c0.25-0.37,0.5-0.74,0.75-1.11c-0.53-0.74-1.43-3.26-3-3.36
					c-1.23-0.08-1.73,1.72-2.09,2.55c0.26-0.15,0.53-0.3,0.79-0.45c-0.62-0.83-1.05-1.75-1.29-2.75c-0.03-0.09-0.41-0.35-0.4-0.26
					c0.17,1.2,0.47,2.36,0.89,3.49c0.02,0.07,0.76-0.39,0.79-0.45c0.61-0.66,1.21-1.31,1.82-1.97c-0.22-0.05-0.43-0.1-0.65-0.15
					c0.4,1.66,1.19,3.16,2.38,4.49c-0.01-0.01,0.73-0.98,0.75-1.11c0.08-0.49,0.16-0.98,0.25-1.46
					C36.57,29.59,35.77,30.13,35.74,30.44z"/>
				<path class="st15" d="M35.72,30.17c-0.05,0.56-0.1,1.11-0.14,1.67c0.09-0.07,0.18-0.15,0.27-0.22
					c-0.99-1.42-1.87-2.91-2.63-4.46c-0.01-0.01-0.01-0.01-0.02-0.02c-0.09-0.07-0.16-0.04-0.28-0.06c-0.44-0.05-0.31,0.1-0.71,0.62
					c-0.2,0.19-0.36,0.4-0.49,0.63c-1.13-0.23-1.51-1.01-1.14-2.35c-0.01-0.07-0.19-0.13-0.17-0.03c0.08,1.33,0.33,2.63,0.74,3.89
					c0.02,0.07,0.21,0.05,0.24-0.01c1.98-4.94,3.07,0.02,4.19,2.02c0.04,0.08,0.27-0.18,0.27-0.22c0.05-0.56,0.09-1.12,0.14-1.68
					C36,29.87,35.72,30.08,35.72,30.17z"/>
				<path class="st15" d="M35.88,30.47c-0.05,0.52-0.1,1.04-0.15,1.56c0.32-0.5,0.65-1.01,0.97-1.51c-1.52-2.27-1.1-3.31-3.03-3.06
					c-1.33,0.17-1.74,1.66-2.19,2.73c0.41-0.2,0.81-0.41,1.22-0.61c-0.59-0.78-1-1.65-1.22-2.61c-0.07-0.19-0.83-0.27-0.84-0.31
					c0.16,1.21,0.44,2.38,0.85,3.53c0.02,0.05,1.15-0.49,1.2-0.57c0.73-0.62,1.33-1.34,1.8-2.14c-0.37,0.01-0.74,0.03-1.11,0.04
					c0.35,1.69,1.14,3.21,2.35,4.56c-0.04-0.07,0.94-1.33,0.97-1.51c0.09-0.49,0.17-0.99,0.26-1.48
					C36.92,29.28,35.93,30,35.88,30.47z"/>
				<path class="st15" d="M35.95,30.06c-0.05,0.54-0.1,1.08-0.15,1.62c0.44-0.56,0.88-1.12,1.32-1.67c-0.65-1.02-1.3-2.05-1.94-3.07
					c-0.02,0-0.04,0-0.05,0c-0.71-0.06-1.38,0.04-2.01,0.3c-0.77,0.76-1.27,1.66-1.5,2.72c0.61-0.15,1.22-0.29,1.83-0.44
					c-0.57-0.75-0.96-1.58-1.16-2.5c-0.12-0.36-1.53-0.41-1.57-0.62c0.17,1.22,0.47,2.41,0.91,3.56c0.02,0.07,1.73-0.25,1.83-0.44
					c0.19-0.65,0.53-1.18,1.04-1.6c0.31-0.2,0.51-0.47,0.61-0.8c-0.57,0.02-1.14,0.03-1.71,0.05c0.47,1.66,1.27,3.16,2.41,4.52
					c-0.05-0.09,1.27-1.36,1.32-1.67c0.09-0.49,0.18-0.98,0.26-1.48C37.29,29.04,36.01,29.45,35.95,30.06z"/>
				<path class="st15" d="M35.96,30.28c-0.05,0.54-0.11,1.07-0.16,1.61c0.28-0.43,0.56-0.87,0.85-1.3
					c-1.15-1.71-1.16-3.27-2.95-3.17c-1.3,0.07-1.74,1.67-2.17,2.66c0.36-0.17,0.72-0.34,1.08-0.51c-0.6-0.78-1.01-1.66-1.24-2.62
					c-0.05-0.14-0.72-0.41-0.71-0.33c0.15,1.19,0.44,2.34,0.86,3.47c0.02,0.07,1.02-0.41,1.07-0.48c0.67-0.63,1.27-1.32,1.8-2.07
					c-0.32-0.03-0.64-0.05-0.96-0.08c0.4,1.66,1.18,3.16,2.37,4.49c-0.02-0.04,0.82-1.15,0.85-1.3c0.08-0.49,0.17-0.98,0.25-1.47
					C36.87,29.29,35.99,29.92,35.96,30.28z"/>
				<path class="st15" d="M35.67,30.89c-0.05,0.56-0.1,1.12-0.15,1.68c0.1-0.12,0.2-0.25,0.3-0.37c-0.8-1.28-1.61-2.56-2.41-3.83
					c-0.1-0.2-0.21-0.39-0.31-0.59c-0.11-0.07-0.27-0.06-0.4-0.03c-0.29,0.05-0.12,0.11-0.53,0.63c-0.21,0.18-0.38,0.39-0.5,0.64
					c-0.4,0.83-0.81,0.02-1.24-2.43c-0.01-0.05-0.07-0.07-0.06-0.01c0.31,2.66,0.08,1.39,0.71,3.98c0.02,0.08,0.15,0.06,0.17-0.01
					c1.95-3.31,3.38-2.62,4.29,2.06c0.04,0.07,0.29-0.33,0.3-0.37c0.05-0.57,0.11-1.14,0.16-1.71
					C35.99,30.46,35.68,30.77,35.67,30.89z"/>
			</g>
		</g>
	</g>
	<path class="st16" d="M3.35,38.05c-2.02,0.67,3.73-0.3,3.73-0.3c1-0.19,2.3-0.08,3.73,0.15c2.01,0.35,4.05,0.5,6.12,0.45
		c-0.05-0.57,9.57-0.06,11.49,0.75c2.37,0.75,4.17,1.11,5.37,1.04c0,0,5.6-1.87,3.58-0.3c-2.02,1.57,0.75,1.07,1.64,1.79
		c2.45,0.42,5.05,0.49,7.76,0.3c1.5-0.26,2.81,0.48,4.03,1.79l1.04,3.88c0,0,1.51,1.03,2.54,0.67s1.5-3.03,1.78-5.3l8.14-0.37
		c6.4,1.5,19.85,1.49,22.99-0.9c3.13-2.39,4.09-4.74,5.45-7.84c-3.48,8.64-11.7,12.07-15.52,6.57c-1.94,1.93-7.04,0.99-11.87,0.22
		c0.68-1.91-0.3-3.13,0.9-5.37c3.88-3.73-7.64,2.13-13.66,3.36l-8.36,0.45c-2.22,0.68-4.86,0.41-7.76-0.45
		c-1.15,0.31-2.3,0.29-3.43-0.15l2.31-1.87c-3.53,0.66-7.51,0.92-10.52,0.22c0,0-1.08-1.49-1.64-1.64
		c-0.65-0.18-3.94,1.75-4.63,1.64c-0.8,0.21-1.26-0.01-0.75-1.49c-0.98,1.11-2.29,1.74-3.88,1.94l-4.63-0.3
		c-0.37-0.59,0.42-1.07,1.64-1.49C6.99,36.48,5.36,37.38,3.35,38.05z"/>
	<g>
		<path d="M97.74,23.22c-0.03,0.15-0.06,0.3-0.1,0.45l-0.08,0.32l-0.25-0.33l-0.28-0.37l-0.04-0.05l0.02-0.14
			c0.04-0.3,0.25-0.47,0.36-0.58c0.13-0.11,0.17-0.18,0.24-0.29c0.11-0.19,0.17-0.41,0.13-0.6l-0.01,0.22
			c-0.13-0.26-0.14-0.54-0.09-0.82c0.05-0.29,0.16-0.59,0.39-0.93l0.13-0.03c0.32,0.23,0.53,0.49,0.67,0.77
			c0.14,0.28,0.22,0.57,0.19,0.88L99,21.93c-0.18,0.39-0.42,0.72-0.73,0.95c-0.15,0.11-0.34,0.22-0.47,0.27
			c-0.13,0.06-0.19,0.08-0.22,0.08l-0.02-0.19l0.09,0.46l-0.33-0.01c0.1-0.12,0.2-0.23,0.3-0.35L97.74,23.22z"/>
	</g>
	<g>
		<path d="M99.11,23.47c0.42-0.5,0.9-0.96,1.29-1.47c0.41-0.54,0.11-1.23,0.14-1.88l0.02-0.99l-0.13-0.97
			c-0.1-0.64-0.24-1.29-0.35-1.94c0.16,0.64,0.34,1.27,0.44,1.92l0.16,0.98l0.01,0.98c-0.02,0.33,0.03,0.65,0.05,0.98
			c0.02,0.33-0.05,0.7-0.26,0.96C100.07,22.58,99.57,23.01,99.11,23.47z"/>
	</g>
	<g>
		<g>
			<path d="M95.43,10.02c0.31,0.36,0.71,0.73,1.08,1.03c0.44,0.35,0.89,0.78,1.39,1.05c0.03,0.02,0.07,0,0.08-0.03
				c0.15-0.4,0.21-0.79,0.2-1.21c0-0.07-0.11-0.07-0.11,0c0.01,0.22,0.06,1.03-0.25,1.07c-0.2,0.03-0.7-0.57-0.87-0.7
				c-0.49-0.38-1.02-0.81-1.44-1.28C95.46,9.89,95.38,9.97,95.43,10.02L95.43,10.02z"/>
		</g>
	</g>
	<path class="st17" d="M94.18,13.5c0.13,0.77,0.11,1.57,0,2.39c-0.15,0.96-0.64,1.75-1.34,2.24c0.47,0.71,0.87,1.16,0.9,1.49
		c0.44-0.09,0.74-0.07,1.19,0c0.53,0.31,1.01,0.83,1.34,1.34l0.45-0.6l-0.15,0.6c-0.04,0.41,0.12,0.65,0.45,0.75l0.75,0.6h0.3v-0.45
		l-0.3-0.45c-0.1-0.19-0.04-0.39,0.15-0.6c0.03-0.02,0.38-0.25,0.75,0.15c0.04,0.1,0.05,0.35,0,0.45c-0.07,0-0.58,1.85-0.3,2.09
		c0.57-0.33,1.13-0.66,1.34-1.04c0.23-0.09,0.48-0.45,0.75-1.04c0.03-0.26,0.08-0.73,0.15-1.34c0.11-0.57,0.06-1.17-0.15-1.79
		c-0.34-0.58-0.72-1.09-1.19-1.49c-0.67-0.74-1.46-1.39-2.39-1.94C95.99,14.18,95.09,13.72,94.18,13.5z"/>
	<g>
		<path d="M94.56,11.49c0,0.48-0.02,0.95-0.05,1.42c-0.01,0.24-0.05,0.49,0.07,0.57c0.12,0.11,0.38,0.17,0.6,0.25
			c0.44,0.17,0.89,0.32,1.33,0.55c0.43,0.25,0.76,0.62,1.04,1c-0.36-0.31-0.74-0.6-1.15-0.79c-0.42-0.16-0.87-0.32-1.32-0.47
			c-0.22-0.1-0.45-0.13-0.68-0.34c-0.12-0.11-0.16-0.29-0.16-0.42c0-0.13,0.03-0.24,0.05-0.36C94.36,12.42,94.45,11.95,94.56,11.49z
			"/>
	</g>
	<path class="st18" d="M98.42,14.99c-0.02-0.09-0.11-0.17-0.2-0.18c-0.03,0-0.06-0.01-0.09-0.03c-0.01-0.01-0.02-0.03-0.02-0.05
		c-0.01-0.03-0.01-0.05-0.02-0.08c0-0.03-0.01-0.05,0-0.08c0.01-0.02,0.04-0.04,0.06-0.02"/>
	<g>
		<path d="M93.71,20.05c-0.04-0.47-0.24-0.9-0.52-1.24c-0.07-0.08-0.15-0.16-0.23-0.23c-0.06-0.07-0.23-0.12-0.26-0.36
			c0.01-0.23,0.14-0.3,0.2-0.4l0.24-0.27c0.34-0.33,0.67-0.64,0.84-1.05c0.18-0.4,0.24-0.88,0.14-1.34c0.2,0.43,0.23,0.95,0.07,1.42
			c-0.16,0.49-0.53,0.84-0.84,1.18l-0.24,0.25c-0.08,0.08-0.15,0.18-0.14,0.2c-0.02,0.01,0.07,0.09,0.17,0.18
			c0.09,0.09,0.17,0.18,0.24,0.28C93.65,19.07,93.78,19.58,93.71,20.05z"/>
	</g>
	<path d="M100.53,20.36c-0.03,0.55-0.02,1.16-0.22,1.34c-0.41,0.72-1.11,1.29-1.87,1.64c-0.18-0.45-0.17-1.25,0.07-1.79
		c-0.44,0.19-0.75,0.6-0.9,0.3c-0.15-0.3-0.26-0.27-0.6-0.15c-0.19-0.21-0.35-0.32-0.37-0.6c-0.09-0.24,0.07-0.56,0.3-0.9l-0.75,0.6
		C95.98,20.4,95.6,20,95,19.62c-0.5-0.11-0.96-0.14-1.35-0.02l-0.45,4.2l-0.6,2.84c-0.04,0.85-1.43,2.71-2.09,2.84
		c0.47,0.48,2.92,0.29,3.36-0.15c1.25-0.84,2.26-2.04,3.21-3.28l3.36-4.03C100.71,21.27,100.59,20.83,100.53,20.36z"/>
	<path class="st17" d="M94.78,9.91c-0.28,0.25-0.15,1.34-0.15,1.34l-0.15,0.9l-0.15,1.19l2.69,1.34l3.42,3.49
		c-0.17-0.96-0.34-1.91-0.55-2.43c-0.58-1.98-0.89-3.37-1.98-3.6l-2.69-2.24C95.23,9.91,94.92,9.78,94.78,9.91z"/>
	<path class="st19" d="M95.36,10.18c0.38-0.24,0.32-1.39-0.28-1.73c-0.21-0.12-0.54-0.15-0.76,0.01c-0.33,0.24-0.29,0.83-0.08,1.2
		C94.5,10.09,95.09,10.35,95.36,10.18z"/>
	<circle class="st20" cx="94.78" cy="8.72" r="0.15"/>
	<path class="st21" d="M96.78,12.59c-0.21-0.37-0.62-0.64-1.05-0.62c-0.09,0-0.18,0.02-0.25,0.07c-0.16,0.11-0.18,0.34-0.19,0.53
		c0,0.21,0.01,0.46,0.18,0.59c0.07,0.06,0.16,0.09,0.23,0.15c0.17,0.13,0.23,0.39,0.43,0.49c0.07,0.03,0.14,0.04,0.21,0.05
		c0.42,0.04,0.6,0.11,0.66-0.31C97.05,13.24,96.93,12.85,96.78,12.59z"/>
	<path class="st22" d="M99.12,14.83c-0.17-0.16-0.43-0.17-0.67-0.18c-0.15,0-0.33,0.01-0.4,0.14c-0.03,0.05-0.03,0.11-0.04,0.17
		c-0.02,0.22-0.03,0.45,0.09,0.64c0.07,0.1,0.18,0.17,0.28,0.24c0.32,0.2,0.58,0.36,0.8,0.68c0.16,0.24,0.12,0.47,0.37,0.19
		C99.91,16.3,99.44,15.12,99.12,14.83z"/>
	<path class="st7" d="M39.36,95.91c0.01-0.64,0.02-1.3,0.29-1.87c0.09-0.18,0.2-0.35,0.3-0.53c0.15-0.27,0.28-0.55,0.4-0.83
		c-0.37,1.34-0.49,2.73-0.63,4.11c-0.01,0.06-0.01,0.12-0.05,0.17c-0.04,0.05-0.11,0.07-0.16,0.03c-0.02-0.02-0.03-0.05-0.04-0.08
		c-0.08-0.26-0.16-0.54-0.12-0.81c0.01-0.09,0.02-0.21-0.06-0.24c-0.04-0.02-0.09-0.01-0.14-0.01c-0.19-0.01-0.25-0.27-0.18-0.45
		c0.07-0.17,0.23-0.3,0.3-0.47c0.06-0.13,0.07-0.28,0.11-0.42c0.04-0.14,0.13-0.28,0.27-0.32"/>
</g>
</svg>
