<!-- Generator: Adobe Illustrator 23.0.4, SVG Export Plug-In  -->
<svg version="1.1" xmlns="http://www.w3.org/2000/svg" xmlns:xlink="http://www.w3.org/1999/xlink" x="0px" y="0px"
	 width="221.07px" height="264.4px" viewBox="0 0 221.07 264.4" style="enable-background:new 0 0 221.07 264.4;"
	 xml:space="preserve">
<style type="text/css">
	.st0{fill:#DDA89F;}
	.st1{fill:#E8E2DD;}
	.st2{fill:#D1C5BD;}
	.st3{fill:#050505;}
	.st4{fill:#F9F4F2;}
	.st5{fill:#A0918A;fill-opacity:0.79;}
	.st6{fill:#AA9484;fill-opacity:0.3;}
	.st7{fill:#AA9484;fill-opacity:0.59;}
	.st8{fill:#AA9484;}
</style>
<defs>
</defs>
<path class="st0" d="M12.56,157.91c-3.35,4.49-6,10.25-4.27,15.58c0.75,2.29,2.23,4.25,3.35,6.39c2.12,4.08,2.85,8.76,4.91,12.88
	c2.12,4.24,5.55,7.67,8.22,11.59c3.55,5.19,5.74,11.17,7.9,17.08c0.81,2.22,1.63,4.46,2.03,6.79c0.67,3.84,0.22,7.77-0.24,11.64
	c-0.22,1.87-0.45,3.77-1.24,5.47c-0.78,1.68-2.08,3.08-2.91,4.73c-2.61,5.16,0.51,12.33,6.06,13.94c5.4,1.56,10.86-1.6,16.11-3.6
	c6.1-2.31,12.97-3.08,19.17-1.04c4.74,1.57,9.65,4.75,14.31,2.96c-3.44-1.79-5.8-5.49-5.98-9.36c7.41-2.39,16.03,1.05,23.03-2.34
	c0.22-1.21-0.96-2.16-2.02-2.79c-8.25-4.91-17.58-7.97-27.13-8.92c-2.74-0.27-5.53-0.38-8.15-1.23c-5.6-1.84-9.52-6.78-13.03-11.52
	c-4.13-5.59-8.2-11.28-11.13-17.58c-2.94-6.3-4.72-13.28-4.06-20.2c0.37-3.83,1.48-7.67,0.85-11.47c-0.96-5.8-5.85-10.59-5.97-16.47
	c-0.06-2.83,1.02-5.71,0.25-8.44c-0.89-3.17-7.08-8.1-10.59-6.73c-1.6,0.62-3.32,4.82-4.38,6.22
	C16.03,153.67,14.2,155.72,12.56,157.91z"/>
<path class="st0" d="M54.56,188.18c3.34,3.06,7.29,5.43,10.41,8.71c4.48,4.7,6.96,10.91,9.33,16.95c2.23,5.68,4.49,11.47,4.9,17.56
	c0.3,4.39-0.37,8.78-0.92,13.14c-0.1,0.82-0.15,1.78,0.47,2.32c0.49,0.43,1.22,0.42,1.88,0.38c10.14-0.61,20.26-1.52,30.34-2.74
	c2.82-0.34,5.67-0.71,8.5-0.43c3.49,0.34,6.8,1.65,10.17,2.63c5.9,1.71,12.09,2.42,18.23,2.08c0.81-1.5-0.69-3.17-2.03-4.22
	c-1.77-1.39-3.53-2.77-5.3-4.16c5.7,0.09,11.4-0.18,17.07-0.81c0.11-1.64-0.98-3.17-2.37-4.06c-1.38-0.89-3.02-1.26-4.63-1.61
	c-13.76-3.02-27.52-6.05-41.28-9.07c-1.52-0.33-3.05-0.67-4.45-1.35c-1.53-0.74-2.84-1.87-4.12-2.98
	c-5.77-4.97-11.61-10.04-15.75-16.44c-0.79-1.22-1.53-2.5-2.61-3.47c-0.91-0.81-2.02-1.37-2.9-2.21c-1.97-1.87-2.49-4.82-4.08-7.03
	c-0.68-0.94-1.54-1.74-2.16-2.72c-1.18-1.87-1.33-4.18-1.58-6.38c-0.81-7.24-2.95-14.25-5.09-21.21c-0.28-0.9-0.58-1.84-1.29-2.45
	c-0.53-0.46-1.22-0.67-1.89-0.87c-5.53-1.84-11.66-4.24-17.39-5.14C41.06,164.89,44.76,179.21,54.56,188.18z"/>
<path class="st1" d="M193.04,50.76c-0.04-0.56-0.3-1.12-0.75-1.47c-0.27-0.21-0.6-0.34-0.92-0.47c-1.07-0.42-2.42-0.53-3.41-1.11
	c-1.98-1.15-4.81,0.25-6.65-1.12c-1.66-1.24-1.39-3.91-2.76-5.45c-1.18-1.33-3.18-1.45-4.96-1.46c-2.07-0.02-4.13-0.04-6.2-0.06
	c-0.72-0.01-1.52,0.01-2.06,0.5c-0.6,0.55-0.64,1.48-0.54,2.29c0.43,3.47,2.65,6.68,5.74,8.31c-0.45-0.08-0.91-0.16-1.36-0.25
	c2.2,3.11,4.41,6.23,6.61,9.34c0.86,1.21,1.73,2.46,2.13,3.89c0.45,1.6,0.27,3.3,0.41,4.96c0.38,4.52,3.32,8.73,7.43,10.65
	c-8.25-2.38-16.34-5.34-24.18-8.84c-1.32-0.59-2.63-1.19-4.02-1.6c-2.81-0.82-5.8-0.78-8.71-1.1c-2.66-0.29-5.27-0.9-7.87-1.5
	c2.73,2.49,5.79,4.61,9.08,6.3c1.7,0.87,3.46,1.63,5.11,2.6c5.16,3.02,8.96,7.87,12.62,12.59c1.95,2.52,3.95,5.12,4.81,8.19
	c0.69,2.45,0.6,5.04,0.51,7.58c-0.11,2.99-1.21,5.72-1.43,8.7c-0.81,10.83-1.83,22.27-8.15,31.1c-3.78,5.29-9.17,9.19-14.53,12.88
	c-1.36,0.94-2.73,1.87-4.09,2.8c-0.98,0.67-1.95,1.33-2.93,2c-2.72,1.86-5.47,3.73-8.55,4.9c-3.96,1.5-8.34,1.77-12.52,1.07
	c-1.13-0.19-2.27-0.45-3.4-0.32c-1.2,0.13-2.31,0.69-3.43,1.15c-6.29,2.61-13.7,2.36-19.8-0.66c-6.31-3.13-11.9-9.2-18.91-8.52
	c-3.72,0.36-6.96,2.63-10.51,3.81c-4.75,1.58-10.14,1.11-14.54-1.27c-3.94-2.13-7.21-5.73-11.6-6.59c-2.78-0.55-5.7,0.09-8.45-0.56
	c-3.35-0.8-5.97-3.37-8.16-6.03c-5.89-7.13-8.56-16.62-12.6-24.94c-5.33-10.98-10.75-22.76-9.3-34.88
	c0.74-6.14,3.2-11.91,5.65-17.59c1.27-2.95,2.56-5.94,4.56-8.45c2.59-3.26,6.21-5.52,9.76-7.71c1.87-1.16,3.74-2.31,5.61-3.47
	c2.08-1.28,4.17-2.58,6.45-3.47c2.33-0.92,4.82-1.4,7.15-2.34c7.1-2.88,12.46-9.96,20.08-10.76c2.3-0.24,4.61,0.13,6.89,0.49
	c4.52,0.73,9.05,1.46,13.57,2.19c2.65,0.43,5.3,0.85,7.91,1.48c8.04,1.93,15.59,5.67,21.88,11.04c-1.42-5.8,1.77-11.62,4.83-16.74
	c4.18-6.98,8.97-14.47,16.68-17.06c1.1-0.37,2.24-0.63,3.23-1.23c0.76-0.46,1.39-1.09,2.01-1.72c4.22-4.21,9.16-8.45,15.11-8.73
	c0.82-0.04,1.67,0,2.43-0.31c0.89-0.36,1.53-1.12,2.26-1.73c3.07-2.53,7.51-2.2,11.46-1.73c4.8,0.57,9.8,1.2,13.82,3.89
	c1.74,1.16,3.22,2.66,4.6,4.22c9.32,10.52,14.75,24.99,12.39,38.85c-0.04,0.24-0.09,0.48-0.2,0.7c-0.22,0.41-0.65,0.65-1.07,0.83
	c-1.07,0.48-1.99,0.86-2.82,1.69c-0.42,0.42-0.92,0.91-1.5,0.81c0.11-0.62,0.8-0.9,1.39-1.13c1.51-0.58,2.91-1.44,4.11-2.52
	c0.03-0.18,0.06-0.35,0.08-0.53"/>
<path class="st0" d="M210.44,73.45c-2.74-4.35-5.95-8.5-7.48-13.43c-0.31-1.02-0.58-2.12-1.33-2.86c-0.69-0.69-1.67-0.96-2.62-1.07
	c-3.35-0.41-6.67,0.76-9.84,1.91c-2.18,0.79-4.82,2.29-4.49,4.65c-3.56-0.26-7.14,2.18-8.29,5.65c-1.14,3.47,0.25,7.66,3.23,9.69
	c3.23,2.2,7.47,1.79,11.14,3.03c4.96,1.68,8.43,6.15,11.84,10.21c2.57,3.06,13.68,14.08,16.73,6.27c1.3-3.32-1.23-8.3-2.41-11.29
	C215.16,81.77,212.99,77.49,210.44,73.45z"/>
<path class="st2" d="M182.65,38.88c-2.73-2.29-6.27-3.52-9.82-3.78c-2.84-0.21-5.86,0.22-8.11,1.96c-2.25,1.73-3.46,5.01-2.2,7.56
	c0.98,1.99,3.11,3.08,4.89,4.41c2.62,1.96,4.63,4.65,6.23,7.51c1.22,2.18,2.22,4.52,2.6,6.99c0.24,1.58,0.21,3.19,0.3,4.78
	c0.16,3.1,0.78,6.31,2.67,8.77s5.3,3.96,8.2,2.85c-3.27-1.18-6.09-3.55-7.83-6.55c-1.13-1.95-1.81-4.37-0.96-6.47
	c0.85-2.09,3.69-3.38,5.5-2.03c0.75,0.56,1.19,1.42,1.71,2.19c3.62,5.34,11.38,6.39,15.38,11.45c2.34,2.96,3.27,7.15,6.47,9.15
	c1.77,1.11,4.17,1.49,5.21,3.31c1.09,1.91,0.08,4.51,1.19,6.41c1.93-1.22,1.52-4.29,0.05-6.04c-1.47-1.75-3.64-2.78-5.2-4.44
	c-1.7-1.81-2.55-4.23-3.84-6.35c-4.16-6.86-12.53-10.18-17.12-16.76c0.16-1.71,2.06-2.68,3.76-2.93c1.7-0.25,3.54-0.14,4.99-1.06
	c0.91-0.58,1.65-1.54,2.72-1.65c1.39-0.14,2.41,1.21,3.14,2.41c3.46,5.72,6.93,11.45,10.39,17.17c1.19,1.97,2.39,3.96,3.23,6.1
	c2.07,5.29,1.81,11.16,1.52,16.84c2.72-1.7,3.72-5.32,3.25-8.5c-0.48-3.17-2.15-6.03-3.79-8.79c-5.23-8.81-10.46-17.62-15.69-26.43
	c-2.21-3.72-4.48-7.66-4.49-11.99c0,1.15-7.81,2.43-9.09,1.47C185.63,44.74,185.02,40.87,182.65,38.88z"/>
<ellipse transform="matrix(0.284 -0.9588 0.9588 0.284 81.8881 197.7249)" class="st3" cx="173.33" cy="44.03" rx="5" ry="7"/>
<circle class="st4" cx="173.33" cy="42.03" r="2"/>
<path class="st5" d="M129.59,53.02c-0.06,2.31-0.1,4.71,0.79,6.84c0.76,1.8,2.14,3.28,3.62,4.55c5.88,5.03,13.67,7.45,19.41,12.63
	c5.6,5.04,8.77,12.34,10.18,19.74s1.19,15.01,0.97,22.54c-0.25,8.6-0.5,17.19-0.75,25.79c1.78-3.11,3.58-6.24,4.66-9.66
	c2.43-7.72,0.95-16.08,1.58-24.15c0.21-2.69,0.66-5.38,0.58-8.08c-0.14-4.61-1.81-9.01-3.46-13.31c-1.68-4.37-3.39-8.82-6.24-12.53
	c-3.56-4.64-8.63-7.84-13.59-10.93c-3.38-2.11-6.76-4.21-10.14-6.32c-1.59-0.99-3.2-2-4.41-3.44c-1.76-2.09-2.47-4.87-2.94-7.56
	C129.45,46.76,129.64,50.77,129.59,53.02z"/>
<path class="st6" d="M129.51,105.07c0.4-4.85,0.76-9.94-1.28-14.36c-1.18-2.54-3.09-4.7-4.15-7.29c-1.9-4.66-0.79-9.93,0.35-14.83
	c-1.62,3.88-3.25,7.76-4.87,11.64c-2.97-4.03-6.3-7.8-9.93-11.25c-0.41,3.59,2.53,6.55,4.32,9.69c0.92,1.61,1.53,3.69,0.55,5.27
	c-1.15,1.85-4.05,1.91-5.76,0.55c-1.7-1.36-2.38-3.65-2.51-5.82s0.19-4.36,0.04-6.53c-0.47-6.6-5.2-12.08-10.1-16.53
	c-1.93-1.75-3.95-3.46-5.34-5.65c-0.84-1.33-1.43-2.8-2.22-4.15c-1.87-3.18-4.79-5.58-7.65-7.91c-0.58-0.47-1.17-0.95-1.87-1.23
	c-0.79-0.32-1.65-0.36-2.5-0.39c-4.44-0.18-8.94-0.36-13.27,0.64s-8.53,3.36-10.79,7.19c-6.43-1-12.45,4.39-18.7,6.19
	c-2.66,0.77-5.69,1.1-7.55,3.15c-0.53,0.59-0.95,1.37-0.81,2.15c0.23,1.33,1.82,1.89,3.16,2.11c5.32,0.88,10.82,0.59,16.02-0.82
	c2.38-0.65,4.78-1.59,6.48-3.37c1.43-1.5,2.3-3.52,3.95-4.76c1.75-1.31,4.07-1.52,6.26-1.68c2.44-0.18,5.11-0.29,7.09,1.14
	c1.46,1.06,2.26,2.76,3.12,4.34c4.92,9,13.36,15.77,17.73,25.05c1.63,3.47,2.7,7.3,5.17,10.24c1.25,1.48,2.87,2.78,3.41,4.65
	c0.81,2.83-1.21,5.83-0.65,8.72c2.07,0.43,3.77-1.51,5.58-2.61c2.16-1.32,4.81-1.49,7.34-1.63c2.34-0.13,4.67-0.26,7.01-0.39
	c1.94-0.11,4.05-0.17,5.64,0.95c3.03,2.14,2.88,7.63,6.42,8.74C129.28,105.71,129.46,105.63,129.51,105.07z"/>
<path class="st7" d="M64,116.65c1.04,0.99,2.33,1.65,3.61,2.29c2.76,1.4,5.56,2.8,8.57,3.51c2.03,0.48,4.2,0.66,5.93,1.81
	c2.77,1.83,3.64,5.52,5.98,7.88c0.05-3.04-2.33-5.51-4.56-7.59c-2.23-2.07-4.65-4.49-4.68-7.53c2.21-0.55,4.54-1.3,5.93-3.1
	c0.33-0.43,0.61-0.98,0.46-1.5c-0.17-0.62-0.88-0.95-1.53-0.92c-0.64,0.04-1.23,0.35-1.8,0.63c-5.35,2.61-11.65,3.2-17.39,1.62
	C61.61,112.95,62.29,115.02,64,116.65z"/>
<path class="st8" d="M202.54,68.52c-0.56-1.11-1.14-2.23-2.04-3.09c-0.9-0.85-2.2-1.4-3.4-1.08c1.87,1.46,3.54,3.19,4.92,5.12
	c0.44-0.13,0.66-0.74,0.4-1.11"/>
</svg>
