<!-- Generator: Adobe Illustrator 23.0.4, SVG Export Plug-In  -->
<svg version="1.1" xmlns="http://www.w3.org/2000/svg" xmlns:xlink="http://www.w3.org/1999/xlink" x="0px" y="0px"
	 width="105.87px" height="154.2px" viewBox="0 0 105.87 154.2" style="enable-background:new 0 0 105.87 154.2;"
	 xml:space="preserve">
<style type="text/css">
	.st0{opacity:0.6;fill:#BDF4F0;}
	.st1{fill:#E07C7C;}
	.st2{fill:#C65C5C;}
	.st3{opacity:0.6;fill:#603030;}
	.st4{fill:#DB6363;}
	.st5{opacity:0.9;fill:#915A5A;}
	.st6{fill:#D37D7D;}
	.st7{opacity:0.7;fill:#F7C4C4;}
	.st8{opacity:0.8;fill:#7C4D4D;}
	.st9{opacity:0.5;fill:#915A5A;}
	.st10{opacity:0.7;fill:#C63E3E;}
	.st11{opacity:0.7;fill:#F46C6C;}
	.st12{opacity:0.9;fill:#230F0F;}
	.st13{opacity:0.8;fill:#F93D3D;}
	.st14{opacity:0.7;fill:#FCDBDB;}
	.st15{fill:none;}
	.st16{fill:#F7C4C4;}
	.st17{opacity:0.8;fill:#E22B2B;}
	.st18{opacity:0.8;fill:#210808;}
	.st19{opacity:0.9;fill:#020000;}
	.st20{opacity:0.7;fill:#140303;}
	.st21{opacity:0.8;fill:#491616;}
	.st22{opacity:0.7;fill:#66221A;}
	.st23{opacity:0.7;fill:#F9CA06;}
	.st24{opacity:0.5;fill:#FF3300;}
	.st25{opacity:0.7;fill:#050100;}
	.st26{opacity:0.9;fill:#DB6363;}
</style>
<defs>
</defs>
<path class="st0" d="M46.77,144.17c1.17,0.42,2.34,0.84,3.51,1.25c-0.21,0.51-0.73,0.88-1.29,0.9c1.8,2.68,7.81,0.56,8.41,4.39
	c-1.33-0.06-15.5-1.22-15.45,0.08c0.02,0.44,7.59,1.75,5.83,2.81c-2.72,1.64-11.51-0.57-14.49-1.11c0.21-2.67,4.73-0.42,5.53-2.67
	c-0.2-0.1-6.16-0.91-6.23-2.38c-0.14-2.92,5.6,0.37,5.88-2.35c0.11-1.08-6.25-0.14-5.78-3C33.99,134.14,49.96,144.26,46.77,144.17z"
	/>
<g>
	<path class="st1" d="M45.19,103.5c-0.63,2.55,3.53,10.01,4.7,12.66c0.11-1.02-0.01-2.2,1.24-2.37c0.12,0.22,0.26,0.41,0.36,0.64
		c-0.03-0.9-0.04-1.79-0.03-2.69c0.85,0.1,1.2,0.69,1.45,1.45c0.35-3.27-4.16-9.04-7.5-9.46"/>
	<path class="st2" d="M27.08,101.51c-1.01-0.22-10.67-4.42-10.75-4.28c-1.21-0.35-0.4-2.17-1.05-2.61
		c5.72-3.98,11.9-5.83,18.48-8.62c0.94-0.4,15.27-5.89,14.56-4.85c-2.02,2.97-30.78,13.18-30.25,14.18
		c2.16,4.1,16.06,4.5,19.81,5.43c7.63,1.9,12.58,3.69,15.02,11.94c-1.51-2.75-2.97-5.35-5.39-7.42c1.96,2.76,3.65,6,3.76,9.47
		c-0.07-2.61-3.56-6.95-5.14-8.52c2.3,3.73,2.54,5.89,3.75,10.12c-0.47-3.92-6.25-8.37-5.77-12.11c-0.14,0.11-0.27,0.23-0.4,0.34
		c-0.08-0.58,0.04-1.16-0.58-1.42c0.03,0.26-0.02,0.52,0.02,0.78C37.8,103.57,32.33,102.64,27.08,101.51z"/>
	<path class="st3" d="M48.17,80.81C46.26,87.17,26.62,87,21.95,92.19c5.88,1.15,22.39-5.72,25.93-10.58"/>
	<path class="st4" d="M47.39,103.24c-0.16,15.03,0.27,29.9-1.26,44.88c-0.92,0.01-1.85,0-2.77-0.02c1.08-16.82,2.7-33.57,1.76-50.45
		c-0.12-2.11-3.26-13.66-0.3-13.75C48.71,83.78,47.41,101.1,47.39,103.24z"/>
	<path class="st3" d="M43.16,85.54c0.61,8.07,2.16,16,2.21,24.16c0.03,5.63-1.66,12.76-0.34,17.32c-0.79,0.46-0.58,0.99-0.01,1.56
		c2.18-4.4,0.97-11.15,1.04-16.33c0.09-6.1,0.44-12.78-0.25-18.85c-0.04-0.31-1.66-9.39-2.46-8.2"/>
	<path class="st3" d="M45.58,139.21c-0.03,2.94-0.33,6-0.75,8.91c-3.05-0.25-0.75-17.43,0.38-17.65
		C45.15,133.39,45.61,136.29,45.58,139.21z"/>
	<path class="st3" d="M15.38,94.7c0.89-0.06,1.77-0.11,2.66-0.12c-0.61,0.3-1.21,0.61-1.81,0.93c0.77,0.01,1.5,0,2.25-0.22
		c-0.64,0.19-1.06,0.52-1.44,1.06c0.82,0,1.43-0.19,1.96-0.84c-0.7,1.17-1.51,1.72-2.8,2.12c0.2-0.15,0.35-0.34,0.53-0.51
		c-0.31-0.43-0.48-0.86-0.27-1.38c-0.57-0.15-0.67-0.52-0.63-1.07"/>
	<path class="st3" d="M42.23,103.51c1.11,0.54,1.74,1.3,2.15,2.46c0.2-0.78,0.28-1.55,0.36-2.35c-1.16-0.25-2.33-0.28-3.5-0.08
		c0.44,0.1,0.88,0.09,1.33,0.09"/>
	<path class="st5" d="M51.98,77.64c-1.54,2.51-3.02,4.95-6.03,3.31c1.02-3.35,2.01-2.85,5.6-3.14"/>
	<path class="st6" d="M102.64,6.43c-1.39-0.74-2.83-1.37-4.32-1.89c-2.28,4.86,1.58,6.33-3.29,9.44c-0.72,0.46-4.39-2.15-6.05-1.55
		c-1.56,0.56-3.18,3.18-4.2,4.39c-8.14,9.66-5.07,21.27-5.13,32.67c-0.12,23.33-27.29,17.99-33.03,35.54
		c-3.35,0.66-7.95-3.12-12.85-3.03c-4.18,0.08-8.28,0.53-12.47,0.56c-1.91-1.05-3.95-1.63-6.12-1.75c-1.03,0.99-2.1,1.92-3.21,2.82
		c-1.71-3.62-8.81,5.05-11.05-1.23c0.21-0.06,0.4-0.21,0.6-0.29c-0.4-0.44-0.71-0.81-0.76-1.42c0.27-0.03,0.51-0.14,0.78-0.2
		C1.07,79.89,0.58,79.3,0,78.77c0.77-0.82,1.46-1.58,2.52-2.01c-0.53-2.64,0.01,0.27,1-2.17c1.14-0.11,2.12,0.1,3.19,0.44
		c-0.64-2.87,6.75-6.93,8.74-9.63c4.11-5.57,7.29-9.71,13.48-13.72c5.92-3.84,12.6-6.42,19.65-7.29c3.77-0.46,20.93,4.27,21.34,3.95
		c1.97-1.52,2.52-16.71,3.38-19.47c1.9-6.11,4.76-11.09,8-16.47c3.71-6.16,16.65-20.66,21.29-6.16"/>
	<path class="st7" d="M7.02,72.15c0.06-0.41,0.82,3.36,0.93,3.21c-1.42,0.87-2.88,0.92-4.37,0.14c0.5,0.82,1.03,1.56,1.85,2.09
		c-0.71,0.09-1.42,0.16-2.13,0.21c0.88,0.3,1.74,0.55,2.66,0.54c-0.96-0.23-1.78,0-2.47,0.67c-0.09,0.39,11.57,1.33,13.36,0.8
		c-0.5-0.51-0.87-1.04-1.13-1.72c1.86,0.76,3.47,0.42,5.38,0c-0.73-0.4-1.44-0.76-2.05-1.33c0.77-0.2,1.57-0.28,2.34-0.46
		c-4.14-4.85-0.77-8.43,4.68-12.46c0.1,1.08-0.38,1.84-0.77,2.8c0.6-0.04,1.09-0.23,1.61-0.53c-0.04,1.08-0.25,2.14-0.48,3.17
		c3.94-1.78,3.38-6.83,8.9-8.59c-0.75,1.49-2.27,2.05-3.24,3.35c1.17,0.4,2.31,0.34,3.5,0.23c-0.77-0.03-1.48,0.17-2.12,0.58
		c0.1,1,0.68,1.45,1.72,1.35c-0.47,0.21-1.03,0.34-1.51,0.51c0.15,4.48,7.75-1.95,8.42-2.11c4.56-1.08,11.18,1.25,15.19-1.35
		c-0.25-0.26-0.53-0.48-0.85-0.65c4.11-0.66,7.38-1.57,11.4-2.46c-0.38-0.18-0.75-0.33-1.12-0.51c0.94-0.29,1.85-0.66,2.77-1
		c-0.36,0.02-0.72-0.01-1.07-0.04c1.13-2.38,5.55-2.14,7.12-4.16c4.11,2.13,3.66-2.71,3.24-5.56c-1.01-6.75-5.77-6.99-3.87-15.78
		c1.73-7.95,9.61-28.17,20.72-25.95c-0.24-0.04-0.42-0.15-0.63-0.24C95.65,6,96.75,5.81,96.14,4.6c1.61-0.8,2.95-1.01,4.71-0.67
		c-12.58-11.51-24.28,13.37-27.58,23c-0.89,2.6-1.52,20.77-3.55,21.99c-1.92,1.16-8.4-2.79-11.15-3.51
		c-11.23-2.95-22.24,0.87-31.2,7.5C20.19,58.23,15.13,69.74,7.02,72.15z"/>
	<path class="st8" d="M96.44,14.45c-2.15-0.51-4.13-1.41-6.14-2.3c-1.08,0.72-1.9,1.71-3.06,2.32c0.71-1.04,4.21-6.71,6.21-3.88
		c0.31,0,1.64,0.55,1.87,0.44c0.41,0.13,0.57,0.37,0.64,0.79c0.35-0.18,0.6-0.24,0.89,0.07c1.77,0.57,1.75,1.44-0.06,2.6"/>
	<path class="st9" d="M64.6,62.38c1.04-0.01,1.98-0.34,2.97-0.64c-0.33,0.45-0.81,0.67-1.25,0.99c1.12,0.02,2.24-0.11,3.37-0.08
		c-1.94-0.47-2.91-0.16-2.92,0.93c1.16,0.04,2.31,0.09,3.47,0.13c-0.83,0.68-1.73,1.17-2.7,1.62c0.59,0.02,1.16,0.06,1.74-0.08
		c-0.75,0.41-1.4,0.81-1.89,1.52c0.55-0.01,0.92-0.21,1.34-0.56c-1.58,1.83-5.28,4.02-7.84,3.02c0.37-0.29,0.8-0.54,1.2-0.82
		c-0.37-0.01-0.74-0.05-1.11-0.06c0.54-0.62,1.14-1.19,1.68-1.81c-0.55-0.04-1.09,0.03-1.63-0.04c0.45-0.28,0.95-0.47,1.29-0.88
		c-1.3,0.13-2.56,0-3.78-0.41c1.35-0.39,5.13-4.33,6.53-3.15"/>
	<path class="st9" d="M49.44,73.9c1.61-0.1,2.81-0.41,3.99-1.56c-0.64-0.03-1.27-0.01-1.9,0.1c0.45-0.01,0.78-0.15,1.11-0.45
		c-1.35,0.22-2.37,0.83-3.42,1.68c0.15,0,0.28,0.06,0.41,0.12"/>
	<path class="st9" d="M47,57.75c0.94,0.83,1.98,1.48,3.13,1.95c-0.24-0.29-0.4-0.58-0.51-0.94c0.72,0.33,1.35,0.7,2.16,0.72
		c-0.37-0.26-0.7-0.54-1.03-0.85c0.65,0.03,1.28,0.12,1.93,0.13c-1.4-0.97-2.68-2.05-3.9-3.23c0.3,0.43,0.55,0.89,0.77,1.37
		c-0.67-0.19-1.31-0.46-1.97-0.7c0.29,0.38,0.56,0.78,0.84,1.18c-0.43-0.27-0.83-0.57-1.28-0.81c0.13,0.52,0.48,0.9,0.72,1.37
		c-0.38-0.38-0.76-0.76-1.11-1.16c-0.15,0.65,0.04,1.1,0.45,1.6"/>
	<path class="st10" d="M47.31,77.77c2.67-0.78,4.65-2.29,6.75-4.07c0.01,0.21,0.08,0.41,0.11,0.62c1.93-0.3,3.17-1.78,4.65-2.93
		c0.01,0.31,0.1,0.6,0.12,0.91c1.82-0.36,3.21-1.61,5.04-1.95c0.03,0.28,0.08,0.56,0.09,0.85c-4.39,2.8-13.72,9.3-19.22,9.41
		c1-0.61,2.08-1.09,3.04-1.77c-0.76,0.15-1.5,0.3-2.27,0.29c0.85-0.53,1.76-0.93,2.6-1.49"/>
	<path class="st11" d="M35.6,81.26C28.49,81.85,24.5,82,17.88,80.84c1.33-0.26,2.64-0.36,3.96-0.55c-0.32-0.25-0.58-0.54-0.83-0.86
		c0.81-0.08,1.56-0.02,2.34,0.21c-0.26-0.58-0.73-0.97-1.11-1.47c0.38-0.09,0.74-0.05,1.13-0.01c-0.35-0.36-0.48-0.75-0.58-1.24
		c2.05-0.46,4.11-0.78,6.2-0.99c-0.07,1.22,0.56,1.2,1.6,1.02c-0.32,0.2-0.63,0.4-0.93,0.61c1.18,0.55,2.3,0.31,3.54,0.15
		c0.08,0.75,0.11,1.34-0.36,1.97c0.65,0.41,1.06,0.6,1.34,1.36"/>
	<path class="st12" d="M20.84,66.84c-1.34,0.97-2.81,1.5-4.43,1.59c0.89,0.17,1.79,0,2.67,0.2c-0.26,0.75-0.73,1.19-1.39,1.62
		c0.65-0.02,1.21-0.05,1.77-0.39c-0.19,0.26-0.37,0.54-0.59,0.78c0.44,0.03,0.85-0.04,1.27-0.14c-0.18,0.14-0.32,0.32-0.49,0.48
		c1.84-0.01,3.27-0.91,4.57-2.13c-0.68-0.03-1.29,0.23-1.95,0.35c0.47-0.67,1.08-1.22,1.52-1.91c-0.88-0.05-1.69,0.19-2.55,0.34
		c0.59-0.33,0.98-0.72,1.21-1.36c-0.92,1.29-1.53,1.55-1.85,0.79"/>
	<path class="st12" d="M22.66,72.55c1.23-1.15,2.66-1.88,4.28-2.2c-0.92-0.05-1.79,0.25-2.72,0.18c0.18-0.79,0.62-1.29,1.23-1.8
		c-0.65,0.11-1.22,0.22-1.76,0.63c0.17-0.29,0.32-0.59,0.52-0.86c-0.45,0.03-0.87,0.16-1.29,0.31c0.17-0.17,0.3-0.37,0.45-0.55
		c-1.91,0.28-3.22,1.39-4.36,2.9c0.69-0.09,1.25-0.47,1.89-0.71c-0.37,0.76-0.88,1.43-1.21,2.21c0.87-0.12,1.62-0.52,2.44-0.82
		c-0.54,0.43-0.86,0.9-1.01,1.58c0.71-1.47,1.29-1.85,1.72-1.13"/>
	<path class="st13" d="M25.52,61.41c-0.14,0.49-0.39,0.9-0.64,1.34c0.28,0.13,0.53,0.25,0.85,0.24c-0.43,0.49-1.07,1.27-0.04,1.37
		c-0.07,0.55,0.07,0.87,0.61,1.04c-0.55,0.18-0.92,0.5-1.28,0.95c0.81,0.37,1.48,0.21,2.25-0.17c-0.62,0.49-1.24,0.95-1.77,1.55
		c0.58-0.03,1.17-0.04,1.75-0.1c-0.22,0.4-0.47,0.79-0.7,1.18c0.34-0.05,0.68-0.06,1.02-0.1c-1.77,1.26-3.56,2-5.74,2.12
		c0.38-0.19,0.69-0.41,0.93-0.77c-0.33-0.04-0.64-0.12-0.96-0.23c0.34-0.36,0.68-0.73,0.99-1.13c-1.06,0-1.94,0.09-2.78-0.66
		c0.38-0.25,0.68-0.57,0.98-0.9c-0.43,0.08-0.85,0.17-1.29,0.16c0.41-0.23,0.74-0.47,0.98-0.88c-0.32,0.06-0.64,0.07-0.96,0.13
		c0.2-0.28,0.42-0.53,0.67-0.78c-0.49-0.07-0.94-0.14-1.37-0.37c0.72-0.5,1.58-0.73,2.27-1.27c-0.5,0.04-0.83-0.07-1.07-0.53
		c0.92-0.27,1.86-0.25,2.68-0.81c-0.26,0-0.51-0.04-0.77-0.07c1.13-0.33,2.26-0.67,3.42-0.88"/>
	<path class="st13" d="M25.24,66.1c-0.36,1.07-0.86,1.87-1.66,2.66c0.26-0.06,0.53-0.06,0.79-0.1c-0.31,0.79-0.82,1.29-1.48,1.81
		c0.57,0.07,1.11-0.06,1.68-0.12c-0.24,0.69-0.57,1.28-1,1.87c0.68-0.05,0.93-0.58,1.28-1.1c0.06,0.62-0.01,1.24-0.04,1.85
		c1.38-1.77,2.94-3.36,4.69-4.76c-0.33,0.05-0.66,0.01-0.99,0c0.11-0.26,0.2-0.51,0.4-0.72c-0.67,0.1-1.34,0.2-2.01,0.28
		c0.16-0.51,0.44-0.91,0.78-1.31c-0.44,0.04-0.88,0.1-1.32,0.14c0.15-0.3,0.29-0.59,0.51-0.84c-0.51,0.08-1.01,0.14-1.52,0.21"/>
	<path class="st13" d="M30.5,68.63c1.47,0.4,2.81,0.13,4.28-0.17c-0.84-0.07-1.66,0.07-2.49,0.14c0.76-0.32,1.38-0.67,1.89-1.32
		c-3.75-0.14-1.09,0.37-3.09,1.04"/>
	<path class="st13" d="M42.24,67.32c-0.76,0.29-1.52,0.48-2.32,0.57c1.07,0.37,1.85,0.34,2.69-0.46c-0.26,0.03-0.37-0.08-0.58-0.21"
		/>
	<path class="st13" d="M29.6,64.28c1.97-0.27,3.78-0.95,5.42-2.05c-1.51,1.48-3.3,2.31-5.37,2.49"/>
	<path class="st13" d="M28.3,62.07c1.29-1.76,2.73-2.86,4.76-3.65c-1.44,1.19-2.93,2.32-4.46,3.39"/>
	<path class="st14" d="M1.71,78.85c1.42,0.36,2.54,0.69,3.94,0.08c-1.14-0.44-2.06-1.09-2.97-1.89c1.44,0.33,2.77,0.15,4.21-0.07
		c-0.79-0.02-1.46-0.31-2.17-0.61c2.7,0.23,5.33-0.05,7.9-0.83c-0.94,1.04-1.64,2.21-2.36,3.41c1.04-0.21,1.84-0.52,2.57-1.3
		c-0.81,0.76-1.38,1.6-1.82,2.62c0.97-0.28,1.58-0.99,2.33-1.62c-1.59,4.44-1.24,4.41-4.28,6.74c0.11-0.56,0.47-0.98,0.58-1.53
		c-2.13,0.26-4.13,0.81-6.28,0.56c1.05-0.74,2.25-1.16,3.18-2.07c-1.66,0.05-3.26,0.09-4.86-0.34c0.92,0.06,1.82-0.05,2.69-0.35
		c1.26-0.66-3.02-2.19-2.96-2.13"/>
	<path class="st15" d="M94.56,3.45c-0.44-0.09-0.7,0.05-0.85,0.47c0.95,0.43,1.26,0.29,0.95-0.43"/>
	<path class="st6" d="M95.53,2.3c-0.37-0.26-0.7-0.09-0.93,0.27c0.61,0.39,0.67-0.01,0.88-0.55"/>
	<path class="st6" d="M94.46,5.08c-0.3,0.17-0.56,0.32-0.75,0.61c0.83,0.24,0.92-0.3,0.83-1.01"/>
	<path class="st6" d="M94.5,2.79c-0.35-0.12-0.58-0.05-0.84,0.2C94.04,3.22,94.3,3.21,94.5,2.79"/>
	<path class="st6" d="M99.33,3.21c-2-0.32-0.2,0.41-0.14-0.04"/>
	<path class="st6" d="M95.75,5.15c0.09,0.26-0.29,0.67-0.09-0.02"/>
	<path class="st6" d="M97.11,3.41c0.28,0.07,1.51,0.07-0.09-0.71c-0.12,0.32-0.07,0.58,0.1,0.88"/>
	<path class="st8" d="M97.77,10.91c-1.24,0.62,0.55,0.86,0.11,0.02"/>
	<path class="st10" d="M60.61,55.68c0.6,0.02,1.18-0.01,1.77-0.09c-0.27,0.15-0.55,0.3-0.84,0.43c0.45,0.03,0.9,0.05,1.35,0.05
		c-0.43,0.35-0.86,0.61-1.4,0.76c0.36,0.15,0.71,0.18,1.1,0.19c-0.62,0.48-1.24,0.45-1.99,0.38c0.18-0.54,0.48-0.8,1.05-0.82
		c-0.69,0.01-1.34,0.1-1.32-0.76"/>
	<path class="st11" d="M13.01,76.57c-0.63,0.05-5.43,0.45-5.18,1.93c0.24,1.4,3.92-0.34,4.33-0.5c-0.3-0.05-0.72,0.02-1.06,0
		c0.2-0.96,1.12-1.02,1.92-1.34"/>
	<path class="st11" d="M11.76,79.42c-1.31,0.43-2.36,1.1-3.01,2.34c1.5,0.05,2.55-0.6,3.74-1.43c-0.15-0.01-2.77-0.18-0.76-0.98"/>
	<path class="st11" d="M14.02,79.59c-0.63,0.16-4.14,2.54-3.07,3.69c1,1.07,3.43-2.83,3.68-3.2c-0.61,0.24-1.14,0.83-1.8,1.07
		c0.12-0.77,0.71-1.16,1.19-1.73"/>
	<path class="st16" d="M10.17,79.02c-1.83,0.09-3.61,0.4-5.35,0.93c-0.32,0.22,3.61,2.12,5.2,0.75c-1.11,0.09-2.12,0.2-3.04-0.6
		c0.99-0.46,1.94-0.97,3.01-1.21"/>
	<path class="st17" d="M100.24,4.15c-3.03,1.66-2.47,22.27,0.3,22.53c8.09,0.76,4.86-19.86-0.22-22.47"/>
	<path class="st18" d="M98.01,4.91c1.79-2.77,4.95,3.19,5.48,3.92c3.89,5.31,2.64,10.58-1.16,16.02C96.74,23.31,96.76,9.6,97.96,5"
		/>
	<path class="st19" d="M99.93,21.42c-0.11,0.81-0.99,5.81,1.24,5.53c1.33-0.17,3.27-5.85,3.63-6.74c-0.39,1.19-1.01,2.25-1.85,3.18
		c-1.56,0.45-2.55-0.04-2.97-1.49"/>
	<path class="st20" d="M102.71,9.31c-0.02,0.28-0.04,0.55-0.11,0.82c-0.59-0.09-1.19-0.18-1.78-0.29c0.18,0.2,4.72,2.65,4.61,2.61
		c0.12-1.27-1.88-3.26-2.71-3.07"/>
	<path class="st21" d="M98.19,10.72c2.93,4.35,6.27-1.11,6.66,7.82c1.18-4.48-4.06-8.43-3.73-9.58c0.16,0.02,0.31,0.02,0.46,0.01
		c0.36-1.58-1.29-4.19-2.57-4.9c-2.72,3.71,2.38,3.53-0.76,6.95"/>
	<path class="st22" d="M100.85,5.13c-1.44-0.65-1.79,3.02-2.07,4.11c-2.62-2.44,0.34-3.76,1.99-4.17"/>
	<path class="st23" d="M99.63,5.85c-0.96,2.13,2.2,0.33,0.07-0.03"/>
	<path class="st24" d="M99.62,6.74c0.56,0.1,0.77-0.14,0.62-0.73c0.58,0.86,0.37,1.11-0.64,0.75"/>
	<path class="st25" d="M99.85,6.36C99.97,6.74,99.72,5.92,99.85,6.36"/>
</g>
<path class="st26" d="M41.74,150.02c1.42-0.29,2.95-0.04,4.2,0.69c-0.64,0.05-1.27,0.18-1.88,0.38c0.33,0.34,0.78,0.55,1.24,0.59
	c-0.27,0.26-0.66,0.39-1.02,0.34c0.24,0.26,0.47,0.52,0.71,0.77c-0.31,0.04-0.62,0.08-0.92,0.13c0.24,1.13,2.71,0.12,2.88,1.26
	c-1.67-0.19-3.35-0.39-5.02-0.58c0.54-0.31,1.08-0.61,1.63-0.92c-0.49-0.3-0.99-0.6-1.48-0.89c0.63-0.33,1.25-0.67,1.88-1
	c-0.88-0.22-1.78-0.37-2.68-0.42c-0.14-0.27,0.11-0.64,0.41-0.61"/>
</svg>
