<!-- Generator: Adobe Illustrator 23.0.4, SVG Export Plug-In  -->
<svg version="1.1" xmlns="http://www.w3.org/2000/svg" xmlns:xlink="http://www.w3.org/1999/xlink" x="0px" y="0px"
	 width="319.94px" height="1175.17px" viewBox="0 0 319.94 1175.17" style="enable-background:new 0 0 319.94 1175.17;"
	 xml:space="preserve">
<style type="text/css">
	.st0{fill:#DDC5C5;}
	.st1{opacity:0.6;fill:#49382C;}
	.st2{opacity:0.6;fill:url(#SVGID_1_);}
	.st3{fill:#F7F0F0;}
	.st4{opacity:0.6;fill:url(#SVGID_2_);}
	.st5{opacity:0.6;fill:#816834;}
	.st6{opacity:0.6;fill:url(#SVGID_3_);}
	.st7{opacity:0.6;fill:url(#SVGID_4_);}
	.st8{fill:#070000;}
	.st9{opacity:0.6;fill:url(#SVGID_5_);}
	.st10{opacity:0.6;fill:url(#SVGID_6_);}
	.st11{opacity:0.6;fill:url(#SVGID_7_);}
	.st12{opacity:0.6;fill:url(#SVGID_8_);}
</style>
<defs>
</defs>
<path class="st0" d="M3.13,67.36c1.46,8.82,8.09,15.76,9.72,24.48c1.81,9.68-0.06,21.46,1.44,31.26
	c6.32,41.21,7.83,83.66,13.23,125.53c5.45,42.19,6.24,84.93,10.51,126.61c3.93,38.43,16.3,74.25,12.97,112.63
	c-1.26,14.51-1.44,29.4-3.44,44.89c8.97,1.54,18.53,2.39,27.85,3.59c6.62,0.85-6.4-36.02-6.91-38.32
	c-3.71-16.83-5.6-34.24-6.64-51.43c-1.54-25.64-7.62-50.29-9.44-76.61c-1.64-23.72-7.61-47.26-7.52-71.17
	c0.08-24.21,1.76-48.2,2.28-72.58c1.21-56.36-13.77-114.46-9.74-170.88c1.05-14.65,4.16-21.51-2.33-34.66
	C32.18,14.77,27.58,6.37,21.4,3.22c-11.8-6-10.38-3.26-13.67,5.26C3.04,20.62,0.93,54.1,3.13,67.36z"/>
<path class="st1" d="M6.1,22.66C4.2,33.73-0.27,46.71,0.01,57.99c0.29,11.94,6.28,21.7,9.49,33.85c4.25,16.06-2.01,37.71,5.03,50.88
	c2.95-5.57,4.67-11.92,6.34-18.38c2.41,1.66,4.94,1.93,5.41,2.55c2.15-11.32-1.18-23.01-1.67-34.18
	c-0.45-10.36-1.37-20.31-2.72-30.78c-1.38-10.74-3.78-22.04-3.25-32.99c0.33-6.8,5.4-16.8,2.54-23.47
	C15.33-8.15,12.86,9.3,8.34,18.47"/>
<path class="st1" d="M49.83,469.36c-3.98,21.58-0.35,38.63-3.2,60.18c11.91,1.55,19.31,7.59,31.47,8.83
	c5.41-19.85-1.76-14.83-11.32-26.59c-3.46-4.25-3.21-12.98-6.23-17.56c-3.18-4.83-9.3-8.54-12.89-13.06"/>
<linearGradient id="SVGID_1_" gradientUnits="userSpaceOnUse" x1="42.6384" y1="560.0368" x2="69.8461" y2="560.0368" gradientTransform="matrix(0.9835 0.1807 -0.1807 0.9835 107.2333 -29.1912)">
	<stop  offset="0" style="stop-color:#724802"/>
	<stop  offset="1" style="stop-color:#9B6719"/>
</linearGradient>
<path class="st2" d="M49.2,522.62c-2.07,15.34,11.97,16.27,23.93,17.89C79.37,527.44,57.16,527.46,49.2,522.62"/>
<path class="st0" d="M319.12,1160.63c-4.78,11.84-92.6-39.94-104.39-46.98c-14.63-8.73-25.57-21.77-39.53-31.03
	c-5.11-3.38-13.81-3.47-15.64-10.63c-2.55-9.98,6.72-10.12,9.91-16.71c2.45-5.07,1.97-12.67,1.68-17.61
	c-0.71-11.94-5.17-25-8.46-36.74c-7.08-25.27-13.94-47.45-17.06-73.58c-9.14-76.46-29.87-151.23-43.5-227.26
	c-5.55-30.95-14.06-63.69-24.22-93.11c-4.3-12.45-9.25-25.99-16.38-34.95c-8.51-10.68-17.75-12.68-4.31-23.77
	c6.6-5.45,25.05-7.16,27.31-17.4c6.54,1.97,4.33,36.88,5.24,44.99c2.27,20.25,9.08,40.93,14.9,60.47
	c5.33,17.86,11.62,36.93,15.27,55.27c14.37,72.14,30.86,144.09,44.87,216.71c6.54,33.88,12.91,68.39,20.52,102.08
	c3.46,15.35,2.1,31.98,7.83,46.85c6.2,16.13,17.23,17.48,31.63,27.24c16.72,11.33,32.09,30.76,46.69,45.9
	c9.21,9.56,13.65,12.22,26.15,15.86C305.68,1148.58,324.02,1148.49,319.12,1160.63z"/>
<path class="st3" d="M170.06,1043.5c-2.55,8.66-17.79,17.86-15.5,27.73c2.41,10.41,25.6,14.94,33.09,19.73
	c15.8,10.09,18.52,18.25,25.44,33.73c4.69,10.48,13.02,16.19,18.65,24.43c20.59,5.08,36.34,20.92,56.94,26.06
	c-21.36-17.66-42.03-28.47-61.69-49.16c-21.95-23.12-31.42-54.8-58.56-73.66"/>
<linearGradient id="SVGID_2_" gradientUnits="userSpaceOnUse" x1="48.2995" y1="615.265" x2="101.1861" y2="615.265" gradientTransform="matrix(0.9835 0.1807 -0.1807 0.9835 107.2333 -29.1912)">
	<stop  offset="0" style="stop-color:#724802"/>
	<stop  offset="1" style="stop-color:#9B6719"/>
</linearGradient>
<path class="st4" d="M56.94,546.91c4.08,0.03,8.9-0.55,13.34,0.66c3.36-4.92,8.82-6.59,14.57-4.45c-1.02,8.27-2.87,16.62-4.34,24.9
	c-2.53,14.2-0.86,19.86,3.62,32.35c4.77,13.31,5.83,27.02,2.62,41.57c2.5-12.95-11.49-48.68-18.49-59.09
	c-7.23-10.75-24.94-16.61-17.55-33.76c4.11-1,9.13-1.14,13.34,0.66"/>
<path class="st1" d="M55.16,564.89c6.29,9.37,10.19,12.06,14.18,22.42c3.02,7.84,5.69,15.58,10.69,22.94
	c5.35-9.3,10.81-32.21,6.26-42.35c-6.29-13.99-17.83-9.04-29.86-8.65c-0.64,1.38-0.43,2.81-1,4.17"/>
<path class="st5" d="M199.63,1090.11c20.4,3.75,44.21,12.67,49.82,34.92c-17.31-6.99-35.89-24.28-49.35-36.95
	c-6.65-6.26-9.57-10.71-13.62-18.99c-6.35-12.98-10.84-16.39-20.84-26.41"/>
<linearGradient id="SVGID_3_" gradientUnits="userSpaceOnUse" x1="246.6482" y1="1052.8931" x2="271.9521" y2="1052.8931" gradientTransform="matrix(0.9835 0.1807 -0.1807 0.9835 107.2333 -29.1912)">
	<stop  offset="0" style="stop-color:#724802"/>
	<stop  offset="1" style="stop-color:#9B6719"/>
</linearGradient>
<path class="st6" d="M167.41,1024.72c0.67,13.23,2.22,23.98-1.08,37.66c-6.24,2.14-6.72,8.78-6.93,15.54
	c2.33,1.2,7.28,2.12,9.88,1.81c0.1-7.52,5.05-11.04,12.25-8.42c0.75-12.18-8.63-30.37-18.69-38.28"/>
<linearGradient id="SVGID_4_" gradientUnits="userSpaceOnUse" x1="386.1492" y1="1126.1077" x2="421.9569" y2="1126.1077" gradientTransform="matrix(0.9835 0.1807 -0.1807 0.9835 107.2333 -29.1912)">
	<stop  offset="0" style="stop-color:#724802"/>
	<stop  offset="1" style="stop-color:#9B6719"/>
</linearGradient>
<path class="st7" d="M282.96,1151.17c8.41-4.45,38.08-8.08,34.99,7.72c-11.74-1.5-23.55-4.1-35.26-6.25"/>
<path class="st8" d="M199.63,1090.11c12.08,13.9,21.31,28.59,44.18,30.99c-7.27-3.01-10.13-12.1-16.48-17.17
	c-5.84-4.67-15.42-9.08-21.8-12.74"/>
</svg>
