<!-- Generator: Adobe Illustrator 23.0.4, SVG Export Plug-In  -->
<svg version="1.1" xmlns="http://www.w3.org/2000/svg" xmlns:xlink="http://www.w3.org/1999/xlink" x="0px" y="0px" width="94.76px"
	 height="105.4px" viewBox="0 0 94.76 105.4" style="enable-background:new 0 0 94.76 105.4;" xml:space="preserve">
<style type="text/css">
	.st0{fill:#E8E3DF;}
	.st1{fill:#937A69;}
	.st2{fill:#5B4A3C;}
	.st3{fill:#68635F;}
	.st4{fill:#EDE107;}
	.st5{opacity:0.5;fill:#FCB17A;}
	.st6{fill:#EFACEF;}
	.st7{fill:#535B5B;}
	.st8{fill:#070707;}
	.st9{fill:#3F342B;}
	.st10{fill:#665649;}
	.st11{opacity:0.5;fill:#846B56;}
	.st12{fill:#AA998D;}
</style>
<defs>
</defs>
<path class="st0" d="M31.34,90.25c12.87-0.57,21.72-0.61,29.77-11.88c5.69-7.97,11.02-19.86-1.19-23.86
	c0.24-6.24,0.06-13.14-1.58-19.2c-1.3-4.81-8.52-12.76-7.64-17.46c5.4-1.59,13.51,6.41,18.28,8.24c8.64,3.31,16.98,1.26,25.79,2.59
	c-3.29-6.33-14.97-11.46-20.7-15.14C67.14,9.08,58.5,3.64,50.85,0.89C44.75-1.3,35.52,0.21,35.82,9.23
	c0.25,7.56,9.65,17.96,12.58,25.29c3.84,9.6,3.46,17.46-7.21,22.14c-10.76,4.71-15.76,2.36-23.11,13.14
	c-2.52,3.69-13.82,16.35-13.36,20C6.03,100.22,26.24,90.48,31.34,90.25z"/>
<path class="st1" d="M38.85,93.14c0.38,6.1-3.01,6.62,3.14,6.5c-0.03-2.15,2.64-8.14,1.48-9.55c-1.09-1.32-6.36-3.17-7.64-1.18
	C37.36,89.98,38.72,91,38.85,93.14z"/>
<path class="st2" d="M25.87,91.05c-4.47,1.48-8.43,4.47-11.06,8.37c0.05-1.5,0.1-3,0.16-4.5c-3.02,2.29-5.33,5.49-6.56,9.07
	c-0.8-2.69,2.56-5,2.55-7.81C8.02,96,5.43,103.6,4.12,105.4c-0.45-3.69,2.82-6.8,3.42-10.46c-1.77-0.49-5.85,5.42-6.57,6.25
	c0.84-5.92,8.91-11.18,13.6-13.96c-0.57,1.01-1,2.09-1.29,3.21c2.23-1.17,4.46-2.34,6.69-3.51c-0.63,1.13-1.26,2.27-1.89,3.4
	c2.97-1.75,6.14-3.14,9.44-4.15c-1.61,0.88-3.38,1.96-3.8,3.74c2.04-0.72,4.08-1.45,6.12-2.17c-2.77,1.46-5.51,3-8.21,4.6"/>
<path class="st3" d="M0.76,95.8c0.92-1.21,2.22-2.13,3.66-2.61c-0.82,2.01-1.11,4.24-0.84,6.39c1.14-1.88,2.64-3.53,4.39-4.85
	c-0.87,1.45-1.16,3.24-0.78,4.88c1.71-5.66,6.69-10.2,12.49-11.37c-2.41-0.38-4.81,0.54-7.08,1.43c1.96-1.8,3.93-3.6,5.89-5.39
	c-2.66,0.89-5.22,2.09-7.61,3.55c5.33-3.26,5.4-9.06,13.18-10.78C14.53,76.48,0.02,84.99,0.76,95.8z"/>
<path class="st4" d="M51.44,18.79c5.78-2.66,12.33,4.06,17.11,6.06c7.38,3.09,15.76,4.12,23.65,2.81
	c-10.76-8-29.04-19.15-42.83-19.38c1.44,5.8-7.25,6.08,0.41,13.04C49.81,20.21,50.42,19.26,51.44,18.79z"/>
<path class="st5" d="M49.54,21.67c6.8-5.83,11.35,1.32,17.61,4.35c6.85,3.31,14.88,4.02,22.12,1.43
	c-3.64-2.31-39.03-11.68-37.8-15.78c-0.68,0.71-1.08,1.68-1.09,2.66c-0.54-0.51-1.15-0.91-1.85-1.1
	C49.61,16.45,47.61,18.46,49.54,21.67z"/>
<path class="st6" d="M46.99,1.88c1.17,2.48,0.93,3.93,2.86,4.65c1.23,0.46,5.5-2.18,5.45-3.04c-0.21-3.72-9.74-2.84-8.56-0.74"/>
<path class="st7" d="M56.04,3.44c4.08-0.48,17.32,9.83,21.15,11.95c5.8,3.21,13.47,6.09,16.71,12.31
	c-8.97-6.32-18.71-11.52-28.92-15.53C63.18,11.47,44.6,4.77,56.04,3.44z"/>
<path class="st8" d="M48.56,3.12c-0.13-0.17,3.03,2.02,2.29,0.06c-0.26-0.7-2.34-1.28-2.74-0.4"/>
<path class="st9" d="M42.25,77.26c4.93-1.25,9.46-4.02,12.82-7.85c-0.24,0.92-0.49,1.83-0.73,2.75c2.74-1.21,5.21-3.01,7.19-5.26
	c-0.65,2.16-1.8,4.17-3.35,5.82c3.58-2.34,6.1-6.22,6.8-10.43c0.07,0.72,0.14,1.44,0.21,2.16c0.39-0.66,0.79-1.31,1.18-1.97
	c-1.45,4.57-3.78,8.85-6.81,12.56c2.28,1-6.75,8.53-9.31,9.56c0.72-0.62,1.19-1.52,1.3-2.46c-3.59,1.54-7.18,3.07-10.77,4.61
	c1.6-0.06,3.2-0.11,4.8-0.17c-4.29,0.24-8.55,0.87-12.72,1.89c0.81-0.84,1.62-1.69,2.43-2.53c-3.98,1.11-8.12,1.63-12.24,1.55
	c1.82-0.45,3.47-1.57,4.56-3.1c-2.48,0.42-5.09,0.03-7.34-1.1c2.32,0.12,4.66-0.28,6.8-1.16c-2.55,0.19-5.17-0.94-6.78-2.93
	c3.49,4.33,19.93-1.98,23.09-4.63C43.3,75.55,42.9,76.49,42.25,77.26z"/>
<path class="st10" d="M30.86,74.98c1.17,0.68,2.56,0.97,3.9,0.82c-1.31,1.05-2.99,1.65-4.67,1.65c1.02,0.38,2.1,0.59,3.19,0.6
	c-1.57,0.72-3.23,1.24-4.93,1.54c2.54,0.06,5.06,0.4,7.52,1.03c-1.66,1.19-3.67,1.89-5.71,1.99c1.14,0.02,2.28,0.03,3.41,0.05
	c-0.84,0.57-1.69,1.15-2.53,1.72c0.69,0.3,1.48,0.37,2.21,0.2c-1.77,0.82-3.55,1.64-5.32,2.46c9.82-2.58,21.32,2.58,27.68-8.18
	c-1.67,1-3.57,1.6-5.52,1.75c0.44-0.68,0.88-1.36,1.32-2.05c-1.54,0.38-3.2,0.26-4.67-0.34c-1.63-1.96,9.21-6.7,10.11-7.21
	c0.15,0.83-0.03,1.72-0.47,2.44c8.27-4.5-4.28-3.84-7.94-2.1c0.64-0.54,1.14-1.24,1.46-2.02c-1.1,0.52-2.25,0.93-3.43,1.23
	c0.11-0.4,0.22-0.8,0.33-1.19C41.81,71,35.92,74.04,30.86,74.98z"/>
<path class="st11" d="M42.93,23.18C50.62,35.76,56.48,52,37.16,57.54c12.15,1.67,18.2-9.59,16.13-19.92
	c-2.41-11.96-13.7-18.66-16.91-29.35C36.56,13.75,40.18,18.67,42.93,23.18z"/>
<path class="st11" d="M27.32,72.63c5.04,4.72,35.63-34.59,39.76-10.09c1.23,7.29-7.82,19.87-13.7,23.68
	c-6.53,4.23-21.75,4.98-29.25,4.7c0.94-0.73,1.7-1.69,2.17-2.78c-2.87,0.35-5.85-0.2-8.4-1.58c1.83,0.63,4.45,0.94,5.16-0.86
	c-1.64-0.35-3.29-0.7-4.93-1.05c1.13-0.49,2.26-0.98,3.39-1.47c-1.34-0.33-2.68-0.66-4.02-0.99c1.62-0.72,3.25-1.44,4.87-2.16
	c-1.54-0.11-3.09-0.22-4.63-0.34c1.52-0.96,3.3-1.5,5.1-1.56c-1.47-0.24-2.28-2.25-1.39-3.44c0.75,0.88,1.88,1.43,3.04,1.47
	c-0.72-0.46-1.09-1.41-0.87-2.23C25.13,73.86,26.16,73.62,27.32,72.63z"/>
<path class="st11" d="M7.14,81.64c-3.15,2.51-6.31,5.5-7.14,9.44c1.82-1.84,4.11-3.24,6.58-4.01c-0.93,1.61-1.87,3.22-2.81,4.83
	c3.68-3.72,7.95-7.7,13.18-7.67c-1.4-0.2-2.81-0.4-4.21-0.6c-0.49-1.93,9.85-2.49,11.1-5.51c-2.12,0.61-4.35,0.85-6.56,0.7
	c0.83-0.79,1.36-1.89,1.45-3.04c-1.7,0.82-3.3,1.83-4.78,3.01c0.64-0.51,1.55-4.71,2.03-5.73C13.11,76.13,10.48,78.98,7.14,81.64z"
	/>
<path class="st12" d="M49.67,88.37c-1.66,2.13-1.36,7.95-1.53,10.55c1.89,0.34-5.78,2.22-5.04,2.23c0.42-3.03,2.57-9.5-0.25-11.97
	C43.65,89.87,50.11,88.25,49.67,88.37z"/>
</svg>
