<!-- Generator: Adobe Illustrator 23.0.4, SVG Export Plug-In  -->
<svg version="1.1" xmlns="http://www.w3.org/2000/svg" xmlns:xlink="http://www.w3.org/1999/xlink" x="0px" y="0px"
	 width="193.84px" height="426.82px" viewBox="0 0 193.84 426.82" style="enable-background:new 0 0 193.84 426.82;"
	 xml:space="preserve">
<style type="text/css">
	.st0{fill:#E8BEB3;}
	.st1{fill:#F9A895;}
	.st2{opacity:0.8;fill:#B58A7F;}
	.st3{opacity:0.6;fill:#967350;}
	.st4{opacity:0.8;fill:#D38571;}
	.st5{fill:#D38571;}
	.st6{fill:#EF9450;}
	.st7{fill:#141110;}
	.st8{fill:#CCB6B0;}
</style>
<defs>
</defs>
<path class="st0" d="M133.05,24.76c-2.52-0.23-4.98-1.12-7.08-2.55c-1.92,1.5-2.83,4.2-2.21,6.56s2.74,4.25,5.16,4.61
	c1.79,0.26,4.15,0.04,4.85,1.71c0.72,1.72-1.25,3.3-2.92,4.12c-5.89,2.91-13.32,5.59-18.6,1.68c4.96-1.11,9.48,4.07,14.54,3.66
	c1.83-0.15,4.04-0.89,5.22,0.51c0.97,1.15,0.39,2.95-0.54,4.14s-2.18,2.2-2.62,3.65c-0.79,2.59,1.09,6.18-1.16,7.69
	c-0.65,0.43-1.47,0.51-2.25,0.52c-7.38,0.11-14.63-4.4-17.79-11.08c-0.63,5.12,2.71,10.46,7.59,12.13
	C100.36,69.23,82.7,65.4,67,60.3c6.19,5.87,14.76,9.15,23.29,8.91c-7.86,5.94-18.27,6.45-27.07,2.04c-0.87-0.44-1.91-0.93-2.77-0.46
	c-0.86,0.47-0.38,2.25,0.49,1.82c-2.21-2.91-6.26-4.27-9.78-3.3c0.41,2.57,2.79,4.68,5.39,4.78c-4.17-2.95-9.96-3.41-14.55-1.16
	c1.11,1.53,3.73,1.6,4.92,0.12c-4.5,1.19-8.99,2.37-13.49,3.56c0.91,2.56,4.55,3.64,6.71,1.99c-5.02,0.31-9.93,2.15-13.93,5.2
	c3.9,0.35,7.85,0.17,11.7-0.52c-3.92,3.76-8.61,6.7-13.7,8.59c1.21-0.61,2.42-1.22,3.62-1.83c-1.44,1.65-2.89,3.31-4.33,4.96
	c4.43-0.31,8.86-0.61,13.29-0.92c4.27-0.29,8.93-0.49,12.42,2c2.76,1.96,4.23,5.24,5.41,8.41c3.32,8.93,5.31,18.35,5.89,27.86
	c-4.53-3.28-6.97-8.68-8.98-13.9s-3.91-10.71-7.82-14.71c-3.91-4.01-10.54-6.01-15.19-2.9c10.95,4.26,15.91,16.82,18.7,28.23
	s5.18,24.01,14.17,31.58c-10.29-1.92-15.73-12.96-19.9-22.56s-10.47-20.46-20.92-21.21c14.68,9.77,15.95,30.94,26.73,44.9
	c3.46,4.47,8.19,9.01,7.59,14.64c-1.28-0.2-2.57-0.41-3.85-0.61c-9.57-1.53-17.44-5.32-24.88-11.53
	c-7.44-6.21-17.21-12.41-26.18-8.73c18.53,1.7,29.18,23.07,46.87,28.86c1.74,0.57,3.7,1.09,4.72,2.61c0.72,1.07,0.82,2.43,0.76,3.72
	c-0.34,7.28-5.67,14.05-12.66,16.1c-1.81,0.53-3.71,0.77-5.44,1.51c-3.24,1.38-5.51,4.3-7.64,7.11c-1.08,1.42-2.18,2.89-2.59,4.63
	c-0.83,3.52,1.38,6.95,3.27,10.04c7.51,12.26,11.41,26.7,11.1,41.07c6.71-0.62,9.26-8.77,12.92-14.43
	c3.9-6.04,10.24-9.96,16.04-14.2c5.52-4.05,11.26-10.87,8.1-16.94c-1.78-3.42-6.21-6.1-5.25-9.83c0.8-3.1,4.72-3.95,7.91-4.22
	c6.06-0.51,12.53-0.94,17.87,1.99c3.32,1.82,5.88,4.79,9.1,6.79c3.22,1.99,7.79,2.77,10.56,0.19
	c-12.58-8.25-23.34-19.27-31.27-32.05c10.81,1.51,22-2.81,32.88-3.55c10.83-0.74,21.88,2.54,30.56,9.07
	c-1.13-7.87-9.62-12.34-17.36-14.17c-7.74-1.83-16.3-2.55-22.18-7.89c6.69-3.81,14.58-6.01,22.16-4.62
	c7.57,1.39,14.63,6.88,16.48,14.36c-0.97-5.09-1.93-10.17-2.9-15.26c2.67,3.39,4.55,7.4,5.43,11.62c1.18-4.01,0.75-8.47-1.17-12.19
	c1.65,2.79,3.31,5.57,4.96,8.36c-0.51-5.01-1.02-10.02-1.52-15.02c2.31,3.43,4.07,7.22,5.19,11.2c1.17-6.98,0.31-14.29-2.47-20.8
	c2.14,2.15,3.71,4.85,4.54,7.77c0.08-9.21-2.85-18.42-8.23-25.89c-0.87-1.21-1.84-2.45-2.06-3.92c-0.22-1.48,0.65-3.24,2.14-3.37
	c1.54-0.14,2.64,1.39,3.39,2.74c2.79,5.05,5.33,10.25,7.6,15.56c-0.12-11.43-3.41-22.82-9.42-32.55c2.54,5.27,8.95,8.35,14.65,7.03
	c-10.21-3.24-14.57-15.05-17.15-25.45c3.43,3.47,8.43,5.32,13.29,4.93c-5.34-6.21-10.07-12.95-14.1-20.09
	c4.5,2.35,10.64,0.86,13.57-3.29c2.93-4.15,2.27-10.44-1.46-13.89c2.43,3.62,7.49,5.2,11.55,3.62c1.93-3.24,0.12-7.45-2.34-10.31
	c-2.46-2.86-5.64-5.29-6.95-8.82c-2.34,1.5-5.32-0.87-6.57-3.35s-2.12-5.54-4.65-6.7c-1.93-0.89-4.65-0.56-5.73-2.38
	c-0.46-0.78-0.46-1.75-0.73-2.62C144.43,24.42,137.4,25.17,133.05,24.76z"/>
<path class="st1" d="M127.37,25.44c-1.25,1.51-2.3,3.31-2.31,5.27c-0.01,1.96,1.35,4.01,3.29,4.22c1.29,0.14,2.56-0.52,3.84-0.4
	c1.74,0.16,3.02,1.63,4.11,3c-3.15,2.27-6.44,4.5-10.18,5.54s-8.07,0.71-11.07-1.77c1.68,3.67,6.81,3.68,10.8,3.11
	c2.71-0.38,5.42-0.77,8.13-1.15c1.53,1.74,1.1,4.5-0.06,6.51c-1.16,2.01-2.91,3.63-4.03,5.65c-1.13,2.02-1.47,4.81,0.13,6.49
	c-3,2.57-7.4,2.84-11.01,1.23s-6.13-5.4-6.23-9.35c-1.18,5.03,2.55,10.67,7.64,11.56c-17.33,3.37-37.1,6.22-51.07-4.57
	c8.93,5.91,20.26,8.07,30.73,5.86c-6.29,4.07-13.69,6.41-21.18,6.71c-5.41,0.21-10.82-0.62-16.22-0.38
	c-8.04,0.37-15.75,3.11-23.33,5.82c-1.69,0.6-3.42,1.23-4.75,2.42c-1.19,1.05-1.98,2.47-2.75,3.86c-1.77,3.2-3.54,6.4-5.32,9.6
	c4.37-1.07,8.26-3.55,12.58-4.8s9.66-0.91,12.39,2.65c1.34,1.74,1.83,3.97,2.28,6.12c2.59,12.19,5.19,24.38,7.78,36.57
	c-3.87-4.59-5.74-10.5-7.71-16.17c-1.98-5.67-4.3-11.5-8.78-15.51c-4.48-4.01-11.72-5.56-16.51-1.94
	c8.26,0.72,15.43,8.06,15.96,16.33c0.22,3.44-0.56,7.05,0.71,10.26c0.76,1.91,2.17,3.48,3.22,5.24c2.63,4.41,2.87,9.78,4.21,14.74
	c1.34,4.95,4.63,10.15,9.73,10.71c-0.42,2.41-3.02,4.38-5.44,3.96c-2.42-0.41-4.39-2.14-5.99-4c-5.96-6.94-8.26-16.19-11.72-24.66
	s-9.09-17.13-17.94-19.43c13.04,14.56,14.12,37.64,28.81,50.53c2.8,2.45,6.37,5.32,5.65,8.97c-0.62,3.13-4.39,4.76-7.54,4.24
	c-3.15-0.52-5.8-2.55-8.4-4.41c-11.38-8.18-24.23-14.3-37.75-18c7.3-0.95,14.12,3.69,19.47,8.74s10.34,10.94,17.22,13.55
	c5.61,2.13,13.45,3.24,14.31,9.18c1.06,7.31-10.76,12.18-8.93,19.34c-4.15,0.98-8.41,2.01-11.9,4.46c-3.49,2.46-6.06,6.71-5.26,10.9
	c1.29,6.77,10.11,9.83,11.93,16.48c1.47,5.34-2.15,10.78-2.07,16.31c0.07,4.95,3.08,9.94,1.44,14.61
	c-8.93,25.49,0.08,53.38,8.06,79.18s18.38,51.15,21.36,78c4.38-0.04,8.73-1.69,12.03-4.58c-7.08-21.88-14.11-43.77-21.1-65.67
	c-3.19-9.99-6.37-19.99-8.74-30.2c-4.3-18.55-5.89-37.73-4.7-56.73c0.19-3.11,0.48-6.28,1.71-9.14c1.59-3.69,4.61-6.53,7.55-9.27
	c5.4-5.03,11.37-10.33,18.72-11.04c1.35-0.13,2.85-0.16,3.82-1.1c0.88-0.85,1.03-2.18,1.08-3.4c0.35-7.72-1.21-15.52-4.51-22.52
	c1.62,2.9,5.72,1.58,8.99,0.97c3.27-0.6,6.55-1.93,9.82-1.33c4.27,0.78,7.22,4.55,10.41,7.5s8.16,5.25,11.71,2.74
	c-1.6-5.4-7.12-8.42-11.76-11.61c-8.29-5.71-15.02-13.68-19.27-22.81c0.28,2.6,3.94,2.87,6.5,2.38c18.5-3.57,37.76-8.59,55.82-3.23
	c-9.1-9.89-23.16-14.98-36.48-13.19c4.86-3.67,9.92-7.43,15.86-8.81c5.94-1.37,13.04,0.31,16.17,5.54c1,1.67,2.15,3.95,4.07,3.63
	c1.4-0.24,2.1-1.78,3.06-2.83c0.96-1.05,3.23-1.25,3.37,0.16c6.37-5.72,7.47-15.13,8.16-23.66c0.4-4.98,0.64-10.54-2.58-14.37
	c-2.84-3.39-8.4-6.02-7.24-10.29c6,4.12,10.23,10.74,11.44,17.92c3.52-11.18-3.38-22.7-9.97-32.39c2.76,2.45,6.47,3.79,10.16,3.67
	c-7.46-5.77-12.55-14.53-13.86-23.88c0.41,5.2,8.34,6.57,12.85,3.95c-2.67-2.7-6.21-4.43-8.78-7.22c-2.57-2.79-3.91-7.43-1.4-10.28
	c3.53,2.97,9.46,1.16,11.85-2.78c2.39-3.94,1.86-9.08,0-13.3c1.25,1.69,2.76,3.29,4.71,4.08s4.41,0.6,5.87-0.91
	c1.99-2.07,1.26-5.68-0.69-7.79c-1.96-2.11-4.77-3.14-7.39-4.33s-5.31-2.76-6.5-5.37c-0.73-1.61-0.81-3.46-1.59-5.05
	c-1.46-3-4.98-4.36-8.26-4.92c-3.29-0.56-6.75-0.63-9.71-2.18C133.74,30.43,132.89,27.56,127.37,25.44z"/>
<path class="st2" d="M137.53,71.26c-2.9-0.14-3.75-3.99-3.76-6.89c-0.02-4.58-0.03-9.17-0.05-13.75c-0.01-1.49,0-3.02,0.56-4.4
	c1.58-3.85,6.52-4.76,10.67-5.12c2.8-0.24,5.71-0.47,8.37,0.44c2.66,0.91,5.04,3.29,5.03,6.1c-0.02,3.15-2.83,5.55-3.82,8.55
	c-0.88,2.65-0.25,5.54-0.28,8.34c-0.03,2.8-1.14,6.02-3.81,6.84c-2.55,0.78-6.25-0.6-7.4,1.81c-0.41,0.85-0.24,1.85,0,2.76
	c1.63,6.09,6.48,11.22,12.47,13.18c-5.87,0.83-12.09-1.21-16.33-5.35c4.43,8.77,10.57,16.67,17.96,23.15
	c-7.72-1.71-14.51-7.18-17.82-14.36c9.96,13.03,17.79,27.69,23.08,43.21c-4.17-6.18-8.35-12.37-12.52-18.55
	c-2.18-3.23-4.43-6.54-7.62-8.78s-7.55-3.25-11.03-1.48c4.83,3.36,9.62,6.86,13.61,11.19c6.26,6.81,10.24,15.35,14.12,23.75
	c-8.78-3.8-11.28-14.95-17.68-22.07c-4.15-4.61-10.14-7.51-16.34-7.91c7.06,3.19,14.04,7.07,19.02,13c2.44,2.9,4.33,6.21,6.2,9.49
	c2.91,5.1,5.82,10.2,8.73,15.3c-2.52-4.86-5.94-10.36-11.4-10.78c-1.8-5.56-3.7-11.3-7.68-15.58s-10.64-6.65-15.81-3.92
	c4.62,3.24,9.25,6.47,13.87,9.71c5.37,3.76,9.14,10.68,11.37,16.84c4.95,1.34,8.32,6.27,9.08,11.33c0.75,5.07-0.69,10.22-2.71,14.93
	c0.88-7.61,1.35-16.42-4.19-21.71c-1.07-1.02-2.32-1.86-3.26-3c-1.06-1.29-1.65-2.88-2.37-4.38c-4.61-9.53-15.84-15.36-26.29-13.66
	c5.27,2.59,10.54,5.18,15.82,7.77c2.84,1.4,5.98,3.14,6.79,6.2c0.76,2.86-1.21,6.14-4.09,6.82c7.62,2.3,12.98,10.52,12,18.43
	c-1.23-7.57-8.5-13.67-16.17-13.58c-0.17-3.13-4.62-3.54-7.7-2.95c-7.89,1.5-15.79,2.99-23.68,4.49c-4.2,0.8-8.56,1.59-12.72,0.57
	c-1.43,0.93-2.21,2.76-1.88,4.44c9.36,2.47,19.1-1,28.54-3.16c6.22-1.43,12.85-2.27,18.9-0.23s11.28,7.68,10.98,14.06
	c-4.56-5.22-11.48-8.01-18.4-8.48c-6.91-0.47-13.83,1.21-20.26,3.81c-4.26,1.72-8.46,3.87-13.03,4.34
	c-4.57,0.47-9.77-1.24-11.77-5.37c-2.53,0.21-4.84,2.08-5.57,4.51c-0.73,2.43,0.17,5.27,2.16,6.84c1.42,1.11,3.24,1.58,5.03,1.8
	c5.91,0.75,11.84-0.76,17.74-1.56c5.9-0.8,12.35-0.78,17.27,2.58c0.38,1.18,2.16,1.25,3.34,0.86c5.51-1.85,11.98-0.45,16.25,3.5
	c-6.65-2.61-14.14-3.03-21.04-1.17c-1.58,0.43-3.18,0.97-4.82,0.87c-1.36-0.09-2.64-0.62-3.99-0.8c-2.75-0.36-5.44,0.81-8.11,1.55
	c-8.15,2.27-17.33,0.53-24.08-4.58c1.58,2.67,0.25,5.36,1.03,8.36c0.54,2.09,2.07,3.77,3.55,5.35c6.8,7.28,13.61,14.56,20.41,21.84
	c-5.7-3.97-11.41-7.94-17.11-11.92c-2.41-1.68-4.82-3.35-7.23-5.02c-2.44-1.68-5.78-3.34-8.12-1.54c-1.23,0.95-1.7,2.56-2.1,4.06
	c-2.51,9.48-5.02,18.95-7.53,28.43c-1.11,4.2-2.24,8.44-4.26,12.28c-14.79,28.17-10.57,64.46-1.04,94.82
	c1.74,5.55,4,10.93,5.8,16.47c2.02,6.23,3.46,12.63,4.89,19.02c1.46,6.51,2.92,13.03,4.39,19.54c0.82,3.67,1.4,8.14-1.43,10.61
	c-9.33-24.15-17.57-48.72-24.67-73.61c-3.66-12.82-7.03-25.81-8.21-39.09c-2.34-26.36,4.02-52.63,10.33-78.33
	c1.98-8.04,4.1-16.39,9.39-22.76c1.17-1.41,1.89-2.95,3.27-4.15c-1.41-3.97-7.09-3.11-11.3-3.19c-6.14-0.11-12.02-4.29-14.12-10.06
	c10.08,7.59,25.75,6.36,34.52-2.71c-1.23-1.82-3.97-1.12-6.15-0.87c-5.22,0.61-10.24-2.72-13.26-7.02
	c-3.02-4.3-4.48-9.46-6.11-14.46c-3.89-11.91-9.35-23.76-18.7-32.09c7.04,2.28,11.94,8.78,14.8,15.6c2.86,6.82,4.14,14.2,6.65,21.16
	c0.89,2.46,1.97,4.94,3.84,6.77c5.23,5.17,13.89,3.36,20.92,1.21c1.15-1.97-1.38-3.93-3.31-5.16c-7.5-4.77-10.37-14.19-12.11-22.91
	s-3.19-18.1-9.23-24.62c5.31,7.28,9.38,15.47,11.97,24.1c1.37,4.57,2.37,9.34,4.82,13.43c2.45,4.09,6.81,7.47,11.57,7.12
	c0.09-11.76-9.4-21.28-12.76-32.54c-1.72-5.76-1.82-11.98-4.13-17.53c-2.31-5.55-8.06-10.5-13.87-8.96
	c3.62-3.49,10.07-1.59,13.16,2.38s3.86,9.2,4.97,14.1c1.74,7.73,4.55,15.23,8.34,22.19c1.53,2.81,3.43,5.73,6.43,6.84
	c3,1.11,7.18-0.73,7.17-3.93c-0.01-1.96-1.48-3.56-2.72-5.08c-5.49-6.69-7.95-15.29-11.42-23.22c-3.47-7.93-8.73-15.93-16.94-18.67
	c8.51-1.3,15.38,6.99,18.64,14.95c3.26,7.96,5.34,17.15,12.22,22.33c1.36,1.02,3.09,1.88,4.71,1.38c3.55-1.09,2.6-6.35,0.91-9.66
	c-7.29-14.34-16.28-30.12-31.83-34.28c5.48-2.75,12.39-0.58,16.96,3.52c4.57,4.1,7.34,9.77,10.16,15.22
	c3.13,6.05,8.27,12.93,14.96,11.7c-3.73-6.19-7.46-12.38-11.2-18.58c-2.69-4.46-5.46-9.01-9.55-12.23
	c-4.09-3.22-9.84-4.85-14.59-2.74c6.21-5.01,16.25-4.32,21.72,1.48c3.25,3.45,4.82,8.14,7.55,12.01s7.69,7.04,12.07,5.21
	C99.25,86.13,89.07,77.09,77.13,73.6c6.44-1.95,13.93,0.2,18.35,5.27c2.19,2.51,3.64,5.61,5.9,8.05s5.87,4.17,8.92,2.84
	c4.28-1.86,4.22-8.53,0.97-11.88c-3.25-3.35-8.21-4.24-12.83-4.93c4.71,0.51,9.85,0.92,13.84-1.63s5.36-9.36,1.31-11.83
	c-1.09-0.66-2.39-0.92-3.42-1.67c-1.03-0.75-1.66-2.35-0.79-3.27c2.91,4.35,5.83,8.7,8.74,13.04c0.77,1.15,1.59,2.34,2.83,2.96
	c1.14,0.56,2.47,0.55,3.74,0.53C129.73,71,132.49,71.36,137.53,71.26z"/>
<path class="st3" d="M144.03,75.04c-8.37,15.48-22.91,26.7-32.69,41.32c-9.8,14.65-14.49,32.19-23.84,47.13
	c-6.24,9.97-14.51,18.7-19.55,29.33c-3.14,6.63-7.99,13.86-6.09,20.94c0.73,2.71,2.42,5.44,1.57,8.11c-1.08,3.37-5.82,5.05-5.8,8.58
	c0.02,3.34,4.52,6.29,2.85,9.19c-1.09,1.9-3.99,1.76-5.59,3.27c-1.01,0.96-1.33,2.42-1.6,3.78c-3.28,16.54-6.57,33.28-5.84,50.13
	c0.39,9.12,1.96,18.15,3.71,27.12c5.46,28.09,12.66,55.84,21.53,83.05c-2.09,0.03-3.29-2.29-4.01-4.25
	c-18.53-50.82-37.37-104-30.9-157.7c0.31-2.61,0.68-5.3-0.06-7.81c-0.92-3.15-3.51-5.81-3.59-9.09c-0.14-5.71,7.36-10.48,5.17-15.76
	c7.78-4.51,12.92-12.38,17.49-20.11c8.61-14.55,16.26-29.67,22.89-45.22c4.2-9.85,8.15-20.13,15.44-27.98
	c3.38-3.63,7.41-6.66,10.47-10.56c3.44-4.38,5.5-9.65,8-14.63c5.75-11.46,14.01-21.65,24.04-29.64c-3.48,0.17-5.17-4.53-4.16-7.86
	s3.53-6.08,4.34-9.46c0.47-1.98,0.34-4.08,1-6c1.9-5.5,10.98-6.28,13.78-1.18c0.9,1.64,1.27,3.7,2.81,4.76
	c1.08,0.74,2.51,0.8,3.6,1.53c1.92,1.29,2.01,4.22,0.9,6.26c-1.11,2.03-3.07,3.43-4.83,4.93C149.23,62.2,147.69,68.27,144.03,75.04z
	"/>
<path class="st4" d="M76.33,231.95c0.61,1.24,1.24,2.57,1.05,3.93c-0.35,2.58-3.37,3.9-5.97,3.95c-2.6,0.05-5.26-0.67-7.77,0
	c-2.79,0.73-4.87,3-6.78,5.16c-6.01,6.8-12.02,13.6-18.02,20.4c-4.72-3.96-1.9-11.48-2.14-17.65c-0.31-8.07-6.4-14.51-10.86-21.24
	c-1.11-1.67-2.17-3.7-1.52-5.6c0.37-1.09,1.25-1.91,2.12-2.67c3.89-3.38,8.23-6.24,12.86-8.48c1.81-0.88,3.73-1.7,5.08-3.19
	c1.06-1.16,1.69-2.63,2.36-4.05c2.8-5.89,6.63-11.3,11.27-15.89c-2.43-1.96-4.86-3.92-7.29-5.88c3.26-1.55,6.29-3.59,8.97-6.01
	c1.03-0.93,2.08-2.08,2.04-3.47c-0.13-4.7-10.42-2.92-10.48-7.62c4.85-0.25,9.65-1.47,14.03-3.57c-4.2-7.07-8.4-14.15-12.6-21.22
	c3.9,1.83,6.31,5.76,9.46,8.7c3.15,2.94,8.35,4.84,11.61,2.02c-2.86-8.9-5.72-17.8-8.59-26.71c-3-9.32-5.99-18.65-9.52-27.78
	c5.72,13.01,11.43,26.02,17.15,39.02c0.78,1.77,1.7,3.69,3.48,4.44c3.63,1.55,7.15-3.36,6.36-7.22c-0.8-3.87-3.9-6.76-6.04-10.08
	c-2.64-4.07-3.87-8.87-5.06-13.57c2.97,1.02,4.58,4.16,5.68,7.1s2.1,6.16,4.63,8.03c2.52,1.86,7.08,1.11,7.59-1.99
	c0.4-2.5-1.91-4.49-3.73-6.24c-4.2-4.05-6.86-9.67-7.31-15.5c1.43-0.38,2.86-0.75,4.29-1.13c2.66,2.04,3.21,5.73,4.2,8.93
	c0.99,3.2,3.42,6.69,6.75,6.32c3.51-0.39,5.05-5.09,3.73-8.37S93,99.36,90.3,97.07c-2.7-2.28-5.36-5.21-5.39-8.74
	c1.68-0.78,3.37-1.56,5.05-2.35c0.71,3.13,1.46,6.34,3.25,9c1.79,2.66,4.9,4.69,8.08,4.27c3.18-0.42,5.84-4,4.56-6.95
	c-1.27-2.94-5.34-3.77-6.77-6.63c1.97-2.76,5.8-4.03,9.03-3c-3.75-3.7-7.05-7.85-9.82-12.34c6.69,0.16,13.41-1.58,19.17-4.98
	c-0.4-1.47-0.8-2.93-1.2-4.4c4.23,2.26,9.63,2.16,13.78-0.24c0.38,1.16,0.76,2.31,1.15,3.47c1.26,0.08,2.51,0.16,3.77,0.25
	c-1.4-7.61-2.5-16.43,2.62-22.23c2.86-3.25,7.54-4.88,11.74-3.82c4.2,1.05,7.63,4.88,7.93,9.2c0.31,4.36-2.29,8.37-3.1,12.66
	c-0.7,3.7-0.1,7.78-1.98,11.04c-1.88,3.27-8.03,3.88-8.66,0.17c-2.88,8.63-1.34,18.6,3.99,25.97c-3.15-2.41-7.16-4.94-10.8-3.36
	c2.1,7.25,6.14,13.93,11.59,19.16c-4.01-4.07-8.85-8.46-14.54-7.91c-0.34,4.96,4.57,8.46,8.8,11.07c4.24,2.61,8.95,6.6,7.94,11.47
	c-2.72-4.34-5.5-8.76-9.41-12.07c-3.92-3.3-9.23-5.37-14.21-4.18c2.21,7.48,16.24,7.78,15.9,15.57c-2.41-5.9-9.03-9.76-15.35-8.98
	c-2.19,0.27-4.84,2.15-3.84,4.12c0.62,1.23,2.23,1.46,3.59,1.64c5.79,0.77,11.3,3.46,15.46,7.55c-4.42-1.33-8.84-2.66-13.26-3.99
	c-2.23-0.67-4.63-1.34-6.85-0.65s-3.98,3.36-2.84,5.4c0.75,1.35,2.38,1.88,3.87,2.3c4.71,1.34,9.42,2.68,14.14,4.02
	c-5.42,2.29-11.69,2.5-17.26,0.59c-2.49-0.85-4.93-2.13-7.57-2.09c-2.63,0.05-5.49,2.15-5.1,4.75c4.66,0.45,9.32,0.91,13.97,1.36
	c-6.53,7.01-19.52,3.59-26.21,10.45c-1.54,1.58-2.53,4.3-1,5.89c0.72,0.75,1.8,1.01,2.83,1.15c5.95,0.85,12.24-1.12,16.64-5.21
	c-1.23,4.76-6.04,7.67-10.69,9.25s-9.7,2.42-13.68,5.31s-6.38,8.85-3.44,12.78c10.13-2.05,20.25-4.11,30.38-6.16
	c-0.29,3.14-2.95,5.66-5.91,6.76c-2.96,1.09-6.21,1.04-9.36,0.97c-6.64-0.14-13.29-0.28-19.93-0.43
	c-3.46,7.44,3.32,17.41,11.52,16.92c-0.61,2.01-3.23,2.75-5.25,2.17c-6.79-1.97-15.99-12.66-21.29-1.67
	C61.96,210.46,72.57,224.35,76.33,231.95z"/>
<path class="st5" d="M70.41,403.72c2.82,6.88,5.63,13.76,8.45,20.64c-1.44-0.13-2.88-0.26-4.33-0.39c-1.22-0.11-2.53-0.27-3.41-1.12
	c-0.6-0.58-0.89-1.4-1.14-2.2c-1.79-5.73-2.28-11.87-1.41-17.81"/>
<path class="st6" d="M150.88,151.07c1.54,3.67,3.09,7.35,4.63,11.02c0.46,1.11,0.75,2.73-0.35,3.21c-0.88-2-2.66-3.59-4.75-4.25
	c-0.31,2.54,0.1,5.16,1.16,7.49c-1.26-0.28-2.53-0.57-3.79-0.85c0.2,1.55,0.4,3.11,0.6,4.66c-5.28-2.4-9.51-7.02-11.44-12.5
	c3.04-0.64,6.08-1.27,9.12-1.91c0.27-2.38-0.37-4.86-1.76-6.82c2.21-1.21,4.87-1.6,7.33-1.07"/>
<path class="st6" d="M31.94,82.66c0.06,1.69,2.22,2.33,3.91,2.5c-4.55,3.15-8.84,6.68-12.8,10.53c8.24,1.89,17.13,0.8,24.67-3.03
	c-1.23-1.31-4.21,0.86-4.96-0.77c-0.17-0.37-0.11-0.81-0.01-1.21c0.42-1.7,1.41-3.25,2.76-4.36c0.54-0.44,1.18-0.9,1.25-1.58
	c0.08-0.78-1.23-1.64-1.83-1.94c0.15-0.24,0.91-1.17,1.01-1.29C42.32,78.65,35.78,80.97,31.94,82.66z"/>
<path class="st7" d="M170.82,55.04c-2.64,0.85-4.96,3.3-4.78,6.07c0.19,2.77,3.75,4.95,5.96,3.27c1.99-1.51,1.61-4.55,1.04-6.97
	c-0.28-1.19-0.98-2.67-2.18-2.48"/>
<path class="st7" d="M128.46,24.34c-2.05-0.37-4.27,0.87-5.03,2.81s0.05,4.36,1.82,5.47c2.9,0.58,6.21-1.16,7-4.01
	c0.79-2.85-1.53-6.25-4.49-6.18"/>
<path class="st7" d="M151.34,36.59c-0.11,1.29-0.64,2.53-1.49,3.51c0.9,1.49,3.41,1.55,4.38,0.11c-0.8-0.64-1.59-1.29-2.39-1.93"/>
<path class="st8" d="M193.84,28.79c-6.05,0.98-11.28,4.61-16.29,8.14c-5.92,4.18-11.76,8.81-17.96,12.52
	C167.5,38.97,181.48,32.19,193.84,28.79z"/>
<path class="st8" d="M144.5,15.85c0.05-5.33,2.25-10.61,1.33-15.85c-2.67,5.04-1.98,10.66-2.01,16.13
	c-0.03,5.46-1.79,10.74-1.96,15.82C148.37,30.81,144.45,20.22,144.5,15.85z"/>
<path class="st1" d="M136.37,39.94c-2.57,1.87-6.41-0.48-9.31,0.82c-1.49,0.67-2.41,2.18-3.03,3.69c-1.14,2.79-1.5,6.05-0.2,8.77
	c1.3,2.72,4.57,4.59,7.42,3.63c2.71-0.91,4.14-3.81,5.27-6.44c1.64-3.83,3.1-8.69,0.31-11.78"/>
</svg>
