<!-- Generator: Adobe Illustrator 23.0.4, SVG Export Plug-In  -->
<svg version="1.1" xmlns="http://www.w3.org/2000/svg" xmlns:xlink="http://www.w3.org/1999/xlink" x="0px" y="0px"
	 width="534.62px" height="522.19px" viewBox="0 0 534.62 522.19" style="enable-background:new 0 0 534.62 522.19;"
	 xml:space="preserve">
<style type="text/css">
	.st0{fill:#F9C7C0;}
	.st1{fill:#EC7152;fill-opacity:0.5;}
	.st2{opacity:0.3;fill:#776D71;}
	.st3{fill:#EAB0A4;fill-opacity:0.5;}
	.st4{opacity:0.8;fill:#CC7D7D;}
	.st5{opacity:0.8;fill:#E07575;}
	.st6{opacity:0.8;fill:#F8F6EE;}
	.st7{opacity:0.8;fill:#FCF0F0;}
	.st8{opacity:0.4;fill:#776D71;}
	.st9{fill:#D39292;}
	.st10{fill:#776D71;fill-opacity:0.5;}
	.st11{fill:#875151;}
	.st12{opacity:0.3;fill:#EC7152;}
	.st13{fill:#605146;}
	.st14{fill:#FBDAD1;}
	.st15{fill:#FF8429;}
	.st16{opacity:0.7;fill:#F4B3BD;}
	.st17{fill:#E5BDBD;}
	.st18{fill:none;stroke:#000000;stroke-width:0.5;stroke-miterlimit:10;}
</style>
<defs>
</defs>
<path class="st0" d="M1.17,237.63c20.54,3.57,42.33-0.57,60.13-11.43c4.22-2.58,8.24-5.52,12.69-7.68
	c10.08-4.9,22.12-5.67,31.13-12.35c2.92-2.16,5.44-4.9,8.63-6.63c6.76-3.66,15.19-2.11,22.26,0.91c7.07,3.02,13.59,7.4,21,9.44
	c7.83,2.16,16.13,1.58,24.19,0.55c10.85-1.39,21.76-3.6,31.52-8.54c4.27-2.16,8.28-4.82,12.58-6.92
	c14.54-7.09,32.29-7.22,46.92-0.34c3.96,6.4,9.92,10.84,17.24,12.61c7.32,1.76,14.97,1.47,22.46,0.8
	c20.39-1.83,40.52-6.43,59.69-13.62c9.21-3.46,19.97-7.41,28.32-2.22c11.63,7.22,26.55,5.7,40.06,7.85
	c14.39,2.29,28.25,7,42.25,11.04c6.11,1.76,12.31,3.41,18.66,3.75c9.85,0.53,19.58-2.08,29.1-4.67c0.52,1.68-0.52,3.53-1.98,4.51
	c-1.47,0.98-3.26,1.28-5,1.56c-4.6,0.75-9.2,1.49-13.8,2.24c2.76,3.14,7.56,3.23,11.7,2.74c4.15-0.49,8.64-1.26,12.26,0.82
	c-8.52,1.75-17.29,2.32-25.96,1.67c6.79,3.93,14.29,6.65,22.03,7.98c-5.15,0.11-10.29,0.23-15.44,0.34
	c1.57,1.47,3.34,2.73,5.24,3.74c-3.06,1.31-6.63,1.35-9.72,0.13c-0.05,2.37-2.26,4.15-4.5,4.92c-2.24,0.77-4.68,0.88-6.87,1.78
	c-2.12,0.87-3.89,2.43-5.92,3.51c-1.9,1-3.99,1.56-6.06,2.12c-4.7,1.25-9.4,2.51-14.1,3.76c-6.89,1.84-13.8,3.68-20.84,4.87
	c-5.48,0.92-11.17,1.43-16.56,0.03c-1.01-0.26-2.05-0.6-3.08-0.41c-0.84,0.15-1.58,0.63-2.38,0.94c-2.01,0.78-4.44,0.39-6.1-0.99
	c-1,3.24-5.32,4.93-8.25,3.24c-0.51,3.6-5.58,5.55-8.37,3.22c0.48,2.38-2.76,3.58-5.18,3.78c-1.27,0.11-2.54,0.21-3.8,0.32
	c-5.38,0.45-10.77,0.9-16.16,0.72c0.47,2.48-2.79,3.81-5.29,4.15c-3.55,0.49-7.11,0.98-10.66,1.46c-0.86,0.8-1.97,1.33-3.14,1.46
	c0.03-0.79-0.55-1.56-1.32-1.74c-0.32-1.95-2.24-0.14-3.52,1.37c-1.28,1.51-2.01,3.68-3.85,4.39c-3.08,1.19-6.43-2.71-9.51-1.54
	c-0.67,0.26-1.24,0.74-1.93,0.93c-0.72,0.2-1.48,0.07-2.22-0.02c-3-0.4-6.03-0.25-9.05-0.11c-8.74,0.41-17.47,0.83-26.21,1.24
	c-6.07,1.07-12.21,1.77-18.37,2.08c0.09,1.61,0.18,3.22,0.27,4.83c-2.89,1.71-6.59,1.95-9.68,0.62c1.3,2.18-0.69,5-3.03,5.99
	s-5.02,0.97-7.33,2.03c-1.86,0.85-3.35,2.34-4.87,3.71c-4.38,3.94-9.52,7.2-15.25,8.56c-5.73,1.36-12.1,0.67-16.95-2.66
	c-3.29-2.26-5.76-5.6-9.2-7.63c-2.47-1.45-5.32-2.16-7.81-3.57s-4.73-3.92-4.52-6.77c-0.01,2.5-3.71,3.53-5.73,2.05
	c-2.02-1.48-2.61-4.21-2.82-6.71c-1.26,1.27-2.96,2.1-4.73,2.32c-8.18,1.04-18.03,1.52-25.58-1.79c1.3,2.42-2.52,4.67-5.15,3.87
	c-2.63-0.79-4.83-2.97-7.57-3.12c-4.5-0.25-8.35,5.04-12.66,3.73c-1-0.3-1.86-0.94-2.82-1.33c-1.22-0.5-2.57-0.58-3.88-0.7
	c-7.94-0.72-15.75-2.83-22.97-6.21c-1.96-0.92-4.09-1.95-6.19-1.43c-0.79,0.2-1.53,0.61-2.35,0.64c-1.73,0.06-2.97-1.58-3.9-3.04
	c-0.7,1.43-2.81,1.61-4.16,0.76c-1.35-0.85-2.11-2.35-2.8-3.79c-1.68,3.62-6.24,5.6-10.04,4.37c-0.93-0.3-1.91-0.78-2.85-0.5
	c-1.1,0.33-1.72,1.6-2.83,1.91c-2.47,0.69-3.78-3.66-6.34-3.71c-2.36-0.05-3.86,3.62-6.14,2.99c-1.09-0.3-1.69-1.5-2.73-1.95
	c-2.11-0.91-4.37,1.7-6.61,1.19c-1.12-0.25-1.9-1.22-2.82-1.9c-2.25-1.66-5.28-1.58-8.07-1.74c-6.39-0.35-12.69-2.31-18.16-5.65
	c-1.46-0.89-3.03-2.16-3-3.88c-2.4,2.28-5.68,3.61-8.99,3.62c-0.1-3.43,2.03-6.81,5.16-8.21c-1.84,1.53-3.99,2.68-6.28,3.37
	c-2.24,0.67-5.53,0.2-5.71-2.13c-0.17-2.21,2.6-3.23,4.72-3.85c4.95-1.44,9.42-4.46,12.59-8.53c-3.84,1.9-7.73,3.82-11.94,4.63
	s-8.83,0.38-12.32-2.1c6.42-1.68,12.84-3.35,19.26-5.03c-3.88,0.22-7.84,0.43-11.6-0.56C5.95,243.11,2.59,241.25,1.17,237.63z"/>
<path class="st1" d="M64.39,224.97c-18.16,12.52-41.62,14.31-63.62,12.76c6.81,5.17,16.2,6.74,24.32,4.07
	c-5.87,5.1-13.93,6.67-21.58,8.06c8.79,2.65,18.03-1.54,26.24-5.63c1.05,2.17-1.02,4.49-2.93,5.95c-6.11,4.64-12.81,8.5-19.88,11.46
	c5.11-0.79,10.13-2.14,14.95-4.01c-1.32,2.24-3.17,4.16-5.35,5.57c2.97,0.4,6.01,0.18,8.9-0.63c0.33,3.26,4.06,4.84,7.2,5.75
	c2.93,0.86,5.87,1.71,8.82,2.5c5.53,1.47,11.12,2.71,16.75,3.7c1.07,0.19,2.17,0.37,3.23,0.12c0.91-0.21,1.75-0.74,2.68-0.74
	c1.9,0,3.39,2.15,5.28,1.91c1.11-0.14,1.95-1.08,3.03-1.39c1.13-0.32,2.32,0.09,3.45,0.41c5.84,1.61,12.41,0.29,17.17-3.46
	c-0.88,1.55,1.7,3.83,3.48,3.84s3.73-0.63,5.25,0.3c0.76,0.46,1.27,1.25,1.96,1.81c1.75,1.41,4.68,0.97,5.93-0.9
	c0.7,0.6,1.4,1.2,2.09,1.8c0.9-0.43,1.8-0.86,2.7-1.29c0.57,1.51,1.68,3.34,3.25,2.98c0.6-0.14,1.09-0.6,1.69-0.77
	c2.83-0.82,4.48,4.89,7.29,3.99c0.66-1.03,1.72-1.81,2.9-2.15c-0.25,1.54,1.82,2.26,3.37,2.37c2.02,0.15,4.04,0.3,6.06,0.46
	c1.06,0.57,2.12,1.13,3.18,1.7c0.77-0.9,1.93-1.45,3.11-1.49c-0.22,1.73,2.6,1.37,4.14,0.54c4.22-2.26,9.72-1.89,13.59,0.93
	c0.72,0.52,1.45,1.15,2.33,1.22c1.46,0.12,2.55-1.24,3.81-2c1.48-0.89,3.29-0.95,5.01-0.99c7.3-0.16,14.6-0.33,21.89-0.49
	c1.19-5.89-0.85-12.78-5.06-17.07c-1.9-1.94-4.22-3.45-5.91-5.57c-1.36-1.71-2.26-3.73-3.35-5.63
	c-5.04-8.79-14.04-14.54-23.17-18.92c-9.13-4.38-18.82-7.8-27.13-13.59c-3.7-2.58-7.61-5.77-12.1-5.34c-2.31,0.22-4.4,1.4-6.49,2.42
	c-4.68,2.27-9.71,3.79-14.86,4.5c-1.66,0.23-3.39,0.37-4.99-0.14c-3.22-1.01-5.54-4.47-8.91-4.5c-1.23-0.01-2.41,0.46-3.55,0.92
	C74.9,222.59,69.42,221.5,64.39,224.97z"/>
<path class="st1" d="M297.47,278.38c0.29-1.32,0.59-2.65,0.88-3.97c6.4-6.34,10.53-14.93,11.48-23.88c1.1,0.15,2.17,0.58,3.06,1.25
	c0.98-4.03,1.95-8.05,2.93-12.08c1.32,1.69,2.65,3.38,3.97,5.07c0.69-2.82,1.38-5.63,2.06-8.45c2.2,0.69,4.82-0.24,6.07-2.18
	c1.92,1.06,4.28,0.07,6.23-0.92c2.3-1.16,4.59-2.31,6.89-3.47c4.31-2.17,8.63-4.34,12.85-6.68c8.74-4.83,17.39-10.48,27.27-11.96
	c0.88-1.16,2.23-1.94,3.66-2.13c7.04-2.82,15.06-3.12,22.29-0.83c-0.57-0.86,1.47-1.68,2.45-1.38c0.99,0.29,1.65,1.2,2.53,1.74
	s2.37,0.43,2.56-0.58c0.69,0.77,1.64,1.31,2.66,1.5c0.33-1.13,1.69-1.68,2.85-1.51c1.16,0.18,2.16,0.89,3.11,1.59
	c0.3-0.89,0.93-1.66,1.75-2.12c1.18,2.12,5.14,1.26,5.33-1.16c2.64,1.59,6.13,1.63,8.81,0.12c0.36-1.26,0.73-2.52,1.09-3.78
	c13.73,2.9,27.46,5.79,41.18,8.69c15.9,3.35,32.84,4.24,48.7,0.74c-0.21,1.74-2.12,2.66-3.77,3.22c-6.89,2.29-14.13,3.49-21.39,3.52
	c9.56,1.12,19.12,2.25,28.68,3.37c-9.02,4.24-19.78,4.61-29.07,1.01c2.03,2.05,5,2.75,7.82,3.37c6.11,1.34,12.22,2.67,18.32,4.01
	c-4.25,2.17-9.32,2.67-13.91,1.35c0.68,1.66,1.85,3.11,3.33,4.12c-4.25-0.72-8.78,0.45-12.14,3.15c-0.95,0.76-1.81,1.64-2.81,2.33
	c-1.31,0.92-2.83,1.49-4.33,2.05c-9.87,3.68-19.85,7.07-29.93,10.15c-1.35,0.41-2.72,0.82-4.13,0.82c-1.31,0-2.61-0.35-3.9-0.2
	c-1.38,0.16-2.62,0.87-3.91,1.39c-7.38,2.99-16.07-0.18-23.61,2.38c-2.15,0.73-4.63,1.88-6.5,0.61c-1.39-0.94-2.69-3.14-4.08-2.21
	c-0.61,0.4-0.74,1.22-1.05,1.88c-1.1,2.29-5.15,1.99-5.9-0.44c-1.09,1.64-2.23,3.34-3.91,4.38c-1.68,1.04-4.05,1.23-5.51-0.1
	c-1.13,3.28-4.87,5.42-8.27,4.73c-1.27-0.26-2.66-0.84-3.79-0.2c-0.8,0.46-1.27,1.46-2.17,1.66c-1.77,0.39-2.91-2.61-4.68-2.25
	c-0.95,0.19-1.5,1.31-2.45,1.52c-0.84,0.19-1.65-0.41-2.51-0.53c-1.45-0.19-2.7,1-3.54,2.2c-0.84,1.2-1.6,2.6-2.94,3.17
	c-1.35,0.57-3.36-0.44-3.01-1.86c-2.82,0.87-5.63,1.74-8.45,2.61c-0.4-1.17-3.3-0.37-4.34,0.3s-1.95,1.71-3.19,1.79
	c-1.71,0.1-3.8-1.61-4.85-0.26c-0.43,0.55-0.36,1.38-0.79,1.94c-1.26,1.64-3.79-1.18-5.79-0.64c-1.27,0.34-1.82,1.93-3.01,2.47
	c-2.39,1.09-4.96-2.63-7.4-1.64c-1.51,0.61-2.7,2.91-4.1,2.07c-0.5-1.24-1.29-2.7-2.63-2.71c-2.37-0.01-3.51,4.51-5.64,3.48
	c-0.56-0.27-0.87-0.87-1.35-1.27c-1.66-1.38-4.09,0.17-5.64,1.67c-0.64-1.38-1.64-2.99-3.16-2.9c-2.04,0.13-3.37,3.33-5.26,2.56
	c-0.98-0.4-1.41-1.77-2.46-1.92c-0.55-0.08-1.07,0.23-1.57,0.49c-2.59,1.33-5.75,1.49-8.46,0.42
	C296.5,279.48,296.97,278.77,297.47,278.38z"/>
<path class="st2" d="M107.44,249.3c0.51,2.17,1.01,4.34,1.52,6.5c1.82-4.81,3.64-9.62,5.45-14.44c-0.16,3.3-0.31,6.59-0.47,9.89
	c0.88-1.42,1.76-2.84,2.64-4.26c-0.34,2.33,0.73,4.82,2.65,6.18c0.77-3.08,1.53-6.17,2.3-9.25c0.38,3.97,0.75,7.94,1.13,11.91
	c1.22-2.62,2.44-5.23,3.67-7.85c0.06,2,0.12,3.99,0.19,5.99c0.4-0.95,0.8-1.91,1.2-2.86c-0.11,2.84,0.66,5.71,2.18,8.12
	c0.13-2.97,0.92-5.92,2.3-8.56c-0.18,2.43-0.05,4.88,0.4,7.27c-0.1-1.14,0.17-2.31,0.77-3.28c0.21,0.98,0.41,1.95,0.62,2.93
	c1.3-0.1,2.62,0.58,3.3,1.68c0.23-2.25,0.87-4.45,1.86-6.48c-0.16,2.5,0.11,5.03,0.79,7.44c0.39-2.41,1.21-4.75,2.42-6.88
	c0.02,2.12,0.04,4.23,0.06,6.35c0.39-0.66,0.78-1.32,1.17-1.97c-0.15,1.48,0.18,3,0.92,4.29c1.15-2.49,2.31-4.99,3.46-7.48
	c0.07,3.38,0.14,6.76,0.21,10.15c0.53-2.56,1.4-5.04,2.58-7.37c-0.08,2.01,0.25,4.04,0.96,5.93c0.38-1.15,0.77-2.3,1.15-3.45
	c-0.29,3.12,0.18,6.31,1.36,9.21c0.79-4.83,1.57-9.67,2.36-14.5c0.42,4.52,0.52,9.07,0.28,13.6c0.49-3.7,1.38-7.34,2.66-10.85
	c0.11,2.19,0.22,4.38,0.33,6.56c0.31-1.3,0.62-2.61,0.93-3.91c0.57,0.67,0.3,1.68,0.07,2.53c-0.23,0.85-0.33,1.94,0.39,2.44
	c0.72,0.5,1.81-0.9,0.97-1.17c-0.18,1.11,0.12,2.29,0.81,3.17c-0.07-4.22,1.24-8.44,3.67-11.89c-0.84,6.29-0.45,12.75,1.15,18.89
	c-0.64-2.18-1.28-4.36-1.92-6.54c-1.31,3.17-1.87,6.65-1.63,10.07c-0.32-2.15-0.65-4.3-0.97-6.45c-0.33,1.31-2.72,1.11-2.82-0.24
	c-0.73,3.56-1.27,7.16-1.6,10.77c-0.02-3.47-1.15-6.93-3.18-9.75c-0.85,4.8-2.93,9.37-5.97,13.17c1.34-4.68,1.94-9.57,1.76-14.43
	c-0.49,1.44-0.97,2.87-1.46,4.31c-0.2-1.72-0.39-3.44-0.59-5.16c-0.3,0.99-0.6,1.99-0.91,2.98c-0.12-1.97-0.63-3.92-1.51-5.69
	c-0.93,5.8-3.76,11.27-7.93,15.39c0.81-4.5,1.62-9.01,2.44-13.51c0.1,5.06-2.89,10.07-7.4,12.38c2.35-5,3.61-10.5,3.7-16.02
	c-0.91,1.25-1.82,2.5-2.74,3.74c0.21-0.63,0.41-1.36,0.05-1.92s-1.5-0.42-1.43,0.24c-0.18-0.9-0.36-1.8-0.54-2.69
	c-1.6,5.56-5.19,10.52-9.96,13.78c2.64-4.41,4.13-9.49,4.29-14.62c-3.19,5.54-8.62,9.74-14.78,11.45c4.25-2.82,6.81-8.02,6.45-13.11
	c-3.69,5.03-8.64,9.13-14.26,11.83c4.72-2.76,7.74-8.2,7.57-13.67c-2.61,5.96-7.43,10.92-13.31,13.69c3.51-2.69,5.96-6.74,6.72-11.1
	c-0.57,3.26-11.83,11.34-13.77,8.29C99.6,265.13,105.82,259.28,107.44,249.3z"/>
<path class="st2" d="M317.26,267.8c1.21-4.98,2.42-9.97,3.63-14.95c0.07,2,0.36,3.99,0.86,5.93c0.33-0.64,0.66-1.28,0.98-1.92
	c-0.45,1.05-0.04,2.39,0.92,3.01c0.67,0.75,1.34,1.5,2.01,2.25c3.15-5.45,5.33-11.46,6.39-17.66c-0.04,4.18-0.08,8.36-0.12,12.54
	c1.28-5.26,3.4-10.32,6.26-14.92c-1.53,5.47-2.65,11.05-3.36,16.68c0.63-2.29,1.26-4.59,1.89-6.88c0.07,1.6,0.13,3.2,0.2,4.81
	c0.75-1.06,1.29-2.27,1.58-3.54c-0.16,1.79,0.12,3.62,0.81,5.28c0.72-4.35,2.01-8.61,3.81-12.63c-0.57,4.48-0.69,9.02-0.38,13.53
	c0.21-3.3,1.53-6.52,3.69-9.02c-0.07,1.79-0.13,3.58-0.2,5.37c0.35-1,0.69-2.01,1.04-3.01c0.23,2.74,0.94,5.44,2.07,7.95
	c2.15-6.17,3.14-12.74,2.89-19.26c0.66,6.38,0.69,12.83,0.08,19.22c0.91-3.58,2.08-7.09,3.48-10.51c0.02,2.62,0.03,5.23,0.05,7.85
	c0.03-1.19,0.3-2.37,0.8-3.45c-0.26,3.09,0.53,6.26,2.22,8.86c0.61-5.14,2.06-10.19,4.26-14.88c-1.12,7.26-0.71,14.75,1.18,21.84
	c-0.49-2.8-1.29-5.55-2.4-8.17c-1.18,3.25-1.96,6.64-2.33,10.07c-0.97-2.53-1.52-5.22-1.6-7.92c-0.38,1.13-0.75,2.27-1.13,3.4
	c-0.07-1.51-0.46-3-1.13-4.35c-0.24,0.62-0.47,1.25-0.71,1.87c-0.46-0.46-0.92-0.93-1.39-1.39c-0.38,3.38-0.75,6.75-1.13,10.13
	c-1.18-3.57-2.13-7.23-2.83-10.92c-0.25,3.8-1.34,7.55-3.16,10.89c0.36-3.49,0.12-7.04-0.68-10.46c0.07,3.09-0.98,6.19-2.92,8.59
	c0.74-3.38,0.24-7.01-1.39-10.06c-0.99,4.01-2.89,7.79-5.53,10.96c0.7-2.8,0.99-5.71,0.87-8.59c-0.31,0.8-0.62,1.6-0.93,2.4
	c-0.08-0.5-0.19-1.05-0.6-1.35c-0.41-0.3-1.17-0.05-1.1,0.45c0.02-2.14-0.56-4.29-1.67-6.12c-0.46,4.96-2.4,9.77-5.5,13.67
	c1.2-2.83,1.83-5.9,1.84-8.98c-0.18,2.27-1.52,4.43-3.48,5.59c-0.06-1.5-0.12-3-0.18-4.5c-1.18,0.43-2.02,1.65-1.99,2.91
	c-0.19-1.47-0.65-2.91-1.34-4.22c1.49,2.83-5.12,8.66-7.12,9.68C316.08,272.04,316.73,269.98,317.26,267.8z"/>
<path class="st2" d="M436.71,256.6c-2.6-2.05-3.9-5.61-3.23-8.85c3.88,2.21,7.45,4.99,10.54,8.22c-1.42-2.49-2.83-4.98-4.25-7.47
	c0.52,0.75,1.03,1.5,1.55,2.24c0-0.76,0.03-1.61,0.58-2.14c0.55-0.53,1.75-0.24,1.68,0.52c0.3-1.47,0.61-2.94,0.91-4.41
	c2.84,5.66,9.02,9.47,15.35,9.47c-4.97-2.38-8.82-7-10.27-12.32c2.75,2.76,6.11,4.91,9.77,6.25c-1.1-1.41-1.75-3.16-1.84-4.95
	c0.59,0.68,1.18,1.36,1.77,2.04c0-1.72,0-3.44-0.01-5.16c4.81,5.61,12.13,9,19.52,9.03c-5.72-0.35-11.08-4.23-13.2-9.55
	c2.61,1.33,5.21,2.66,7.82,3.99c-0.04-1.71-0.46-3.41-1.22-4.95c0.16,0.94,0.8,1.79,1.66,2.2c0.16-1.87,0.33-3.75,0.49-5.62
	c0.8,1.2,1.87,2.21,3.1,2.95c0-1.1,0-2.2,0.01-3.3c2.45,4.65,7.49,7.81,12.74,8.01c-7.07-3.97-12.59-10.6-15.21-18.27
	c-0.07,2.16-0.14,4.31-0.2,6.47c-0.97-0.43-1.94-0.85-2.91-1.28c-0.01,2.79-2.4,5.36-5.18,5.59c-2.78,0.22-5.55-1.94-6.01-4.69
	c-0.59,2.24-0.12,4.74,1.25,6.62c-1.55-1.27-3.77-2.59-5.4-1.41c-0.71,0.51-2.25,0.81-1.85,0.03c-0.21,1.45-0.42,2.91-0.63,4.36
	c-2.98-2.92-5.95-5.83-8.93-8.75c1.22,3.44,2.44,6.88,3.66,10.32c-1.65-1.14-3.3-2.28-4.95-3.42c0.59,1.05-0.48,2.56-1.66,2.36
	c-0.04,0.88-0.08,1.76-0.11,2.64c-0.66-0.83-1.33-1.66-1.99-2.49c-0.19,1.35-0.38,2.71-0.57,4.06c-3.12-2.79-6.25-5.59-9.37-8.38
	c0.42,3.15,1.6,6.19,3.41,8.8c-3.45-1.31-6.5-3.65-8.66-6.64c0.03,3.17,0.99,6.32,2.74,8.96c-4.63-5.18-9.06-10.78-14.06-15.58
	C415.08,243.14,426.63,253.16,436.71,256.6z"/>
<path class="st3" d="M187.2,267.88c0.68,3.21,1.38,7.27,4.55,8.1c0.08-0.9,0.17-1.79,0.25-2.69c3.37,2.71,4.28,8.02,2,11.69
	c2.01-0.56,3.57-2.48,3.71-4.56c1.1,1.46,1.9,3.15,2.33,4.93c0.33-0.68,0.66-1.36,0.99-2.04c-0.23,2.6,2.25,5.09,4.85,4.86
	c-0.37-1.71,0.09-3.57,1.19-4.92c0.03,2.92,1.16,5.81,3.12,7.98c0.04-1.58,0.07-3.17,0.11-4.75c0.36,1.62,1.29,3.11,2.58,4.16
	c0.03-1.1,0.06-2.19,0.08-3.29c0.26,3.37,2.33,6.55,5.31,8.14c-0.01-1.53-0.01-3.06-0.02-4.59c-0.22,1.5,0.38,3.1,1.53,4.1
	c-1.92-6.54-2.87-13.37-2.79-20.19c0.03-2.77,0-6.04-2.27-7.64c-0.92,4.24-2.44,8.35-4.49,12.17c-2.16-2.22-3.43-5.26-3.5-8.36
	c-0.56,1.04-0.88,2.21-0.93,3.4c-0.53-1.14-1.06-2.28-1.58-3.41c0.12,0.78-0.22,1.62-0.87,2.09c-0.99-2.63-2.22-5.16-3.68-7.56
	c-0.91,1.15-1.6,2.48-2.03,3.88c-0.52-1.45-1.05-2.91-1.57-4.36c-0.59,0.05-1.03,0.72-0.85,1.28c-0.32-0.65-0.65-1.3-0.97-1.94
	c0.39-0.1,0.37,0.69-0.03,0.74c-0.4,0.05-0.71-0.32-0.94-0.66c-1.42-2.06-2.83-4.12-4.25-6.17c-0.04,1.68-0.48,3.35-1.28,4.84
	c-1.32-2.5-1.8-5.44-1.32-8.22c-0.33,1.97-2.89,1.39-2.56,4.55C184.12,261.98,186.62,265.14,187.2,267.88z"/>
<path class="st3" d="M264.18,295.46c3.35-1.56,8.02-1.35,9.74-4.61c0.87-1.65,1.35-4.32,3.2-4.07c1.01,0.14,1.68,1.24,2.7,1.35
	c2.29,0.23,1.96-3.97,3.94-5.15c0.71-0.42,1.61-0.36,2.39-0.63c0.78-0.27,1.48-1.23,0.97-1.89c0.5,0.37,1,0.73,1.5,1.1
	c0.42-0.31,0.85-0.62,1.27-0.94c1.59,0.9,3.52,1.18,5.31,0.77c-0.32-2.89-0.02-5.85,0.89-8.61c0.11,0.68,1.05,0.93,1.65,0.61
	s0.95-0.98,1.25-1.59c2.86-5.83,5.73-11.66,8.59-17.5c0.35-0.71,0.47-1.88-0.32-1.97c-0.37-0.04-0.69,0.24-0.95,0.51
	c-0.87,0.88-1.74,1.76-2.61,2.64c-0.63-0.56-1.46-0.91-2.3-0.96c-0.03,0.61-0.07,1.26-0.45,1.73c-0.38,0.47-1.24,0.59-1.55,0.07
	c-0.25,0.72-0.5,1.45-0.75,2.17c-1.1-0.33-2.12-0.95-2.93-1.77c0.27,1.7-0.47,3.53-1.83,4.57c-0.87-0.78-1.73-1.56-2.6-2.34
	c-0.22,1.18-0.43,2.35-0.65,3.53c-0.52-0.27-1.03-0.54-1.55-0.82c-0.51,1.52-1.5,2.88-2.79,3.83c-0.43-0.67-0.87-1.33-1.3-2
	c-0.54,2.23-1.8,4.29-3.53,5.8c-0.32-0.61-0.64-1.21-0.97-1.82c-1.75,2.95-3.49,5.9-5.24,8.86c-0.35,0.58-0.76,1.22-1.42,1.38
	c-0.66,0.16-1.46-0.6-1.07-1.16c-0.45,1.41-1.1,2.7-2.08,3.78c-0.15-0.7-0.56-1.46-0.7-2.13c-1.15,2.88-2.52,5.74-3.72,8.63
	C265.92,287.66,264.07,295.51,264.18,295.46z"/>
<path class="st4" d="M205.94,287.11c0.46-1.57,0.93-3.14,1.39-4.71c0.49,1.14,0.98,2.29,1.47,3.43c0.62-1.15,1.24-2.31,1.87-3.46
	c0.08,3.09,1.35,6.13,3.49,8.35c0.08-2.02,0.17-4.03,0.25-6.05c0.88,4.24,3.01,8.22,6.05,11.3c-1.09-9.51-1.7-19.08-1.83-28.65
	c-0.97,2.14-1.75,4.38-2.32,6.66c-0.81-2.21-1.62-4.42-2.43-6.63c-0.37,2.9-0.74,5.81-1.1,8.71c-1.48-2.09-2.58-4.47-3.2-6.96
	c-0.22,2.15-0.28,4.32-0.18,6.48c-0.85-1.7-1.7-3.39-2.54-5.09c0.37,0.73-0.18,2.87-0.32,3.65c-0.64-0.37-1.35-0.33-1.79-0.51
	C204.98,278.13,205.97,282.54,205.94,287.11z"/>
<path class="st4" d="M263.39,295.94c1.34-1.81,2.67-3.62,4.01-5.43c0,0.97,0.26,1.93,0.74,2.77c0.4-1.33,1.05-2.59,1.89-3.69
	c0.05,0.56,0.11,1.12,0.16,1.68c1.11-1.89,2.22-3.78,3.33-5.67c0.32,1.95,0.12,3.97-0.58,5.82c3.02-5.25,5.51-10.81,7.42-16.55
	c-1.1,1.49-2.01,3.12-2.7,4.84c-0.18-2.97,0.77-5.99,2.61-8.33c-2.68,2.06-4.7,4.98-5.66,8.23c-0.34-1.82-0.28-3.72,0.19-5.52
	c-1.08,2.3-2.02,4.21-3.79,5.81c0.05-1.18-0.53-2.43-0.65-3.24c-1.55,3.22-3.23,6.45-4.66,9.73
	C264.71,288.67,264.54,294.38,263.39,295.94z"/>
<path class="st5" d="M96.19,213.58c2.76-0.97,5.55-1.95,8.05-3.46c2.08-1.26,3.92-2.86,5.9-4.26c3.16-2.23,6.67-3.92,10.15-5.59
	c1.68-0.81,3.45-1.63,5.31-1.48c2.26,0.18,4.11,1.75,5.93,3.11c7.97,5.96,17.91,8.84,27.82,9.76c9.91,0.93,19.89,0.01,29.8-0.95
	c8.77-0.85,17.62-1.76,25.97-4.55c1.38,3.74-1.13,7.95-4.48,10.11c-3.35,2.16-7.4,2.87-11.18,4.11c-5.75,1.88-11,5-16.64,7.19
	c-5.63,2.19-12.01,3.4-17.68,1.31c-3.3-1.22-6.11-3.46-9.05-5.39c-7.19-4.71-15.39-7.6-23.5-10.46c-2.14-0.76-4.33-1.52-6.61-1.57
	c-7.95-0.18-13.45,7.94-20.88,10.77c-4.77,1.82-10.07,1.34-15.15,0.83c-3.57-0.36-11.27,0.33-13.7-2.36
	C82.61,217.76,89.62,216.04,96.19,213.58z"/>
<path class="st5" d="M274.55,215.15c13.23-3.43,25.82,7.23,39.35,9.13c10.68,1.5,21.28-2.56,31.31-6.55
	c7.38-2.94,14.77-5.87,22.15-8.81c7.67-3.05,15.73-6.16,23.94-5.22c10.54,1.21,19.68,8.95,30.29,9.24
	c8.31,0.22,15.96-4.18,23.11-8.44c-13.3-3.4-26.6-6.79-39.91-10.19c-5.15-1.32-10.37-2.64-15.69-2.65
	c-11.14-0.02-21.36,5.65-31.86,9.39c-13.19,4.7-27.25,6.39-41.2,6.33c-14.02-0.05-27.89-3.65-41.73-3.8
	C274.13,204.8,276.18,214.73,274.55,215.15z"/>
<path class="st1" d="M131.88,209.4c0.56,3.16,4.08,5.46,7.2,4.69c-0.25,1.61,0.33,3.31,1.5,4.44c0.14-1.2,0.85-2.32,1.88-2.96
	c0.17,1.27,0.33,2.55,0.5,3.82c0.61-0.7,1.23-1.41,1.84-2.11c0.29,1.17,0.58,2.34,0.87,3.51c0.91-0.13,1.74-0.73,2.14-1.56
	c0.95,1.3,1.9,2.59,2.85,3.89c-0.03-1.45,0.79-2.89,2.05-3.61c0.4,2.27,1.12,4.48,2.12,6.56c0.55-1.3,1.1-2.6,1.66-3.9
	c0.32,1.49,0.63,2.97,0.95,4.46c0.48-1.06,0.97-2.12,1.45-3.18c0.72,1.47,1.44,2.94,2.15,4.41c0.35-1.01,0.69-2.02,1.04-3.03
	c0.57,0.87,1.13,1.74,1.7,2.61c0.87-0.73,1.74-1.46,2.6-2.18c0.02,1.82,0.4,3.63,1.11,5.3c0.72-2.06,2.11-3.88,3.91-5.12
	c-0.02,1.53-0.04,3.06-0.06,4.59c0.64-1.95,2.04-3.64,3.84-4.62c0.08,0.92,0.15,1.85,0.23,2.77c0.93-0.62,1.57-1.67,1.71-2.78
	c-0.14,0.89,0.28,1.85,1.03,2.36c-0.23-1.04,2-0.99,1.72,0.04c1.59-2.13,3.66-3.89,6.01-5.11c0.06,0.85,0.12,1.71,0.18,2.56
	c0.73-1.36,1.72-2.58,2.92-3.56c0.03,0.84,0.05,1.68,0.08,2.52c2.05-1.16,3.9-2.66,5.45-4.43c0.07,0.79,0.53,1.54,1.21,1.95
	c0.64-1.77,1.86-3.33,3.43-4.37c0.08,1.6,0.17,3.2,0.25,4.8c0.3-2.12,1.77-4.04,3.75-4.87c0.05,0.89,0.1,1.78,0.16,2.67
	c0.44-0.43,0.87-0.87,1.31-1.3c2.73,0.39,5.47,0.79,8.2,1.18c-1.21-1.23-1.85-3-1.7-4.72c-0.93,0.64-1.85,1.27-2.78,1.91
	c-2.2-2.39-6-2.03-9.2-1.49c-1.21,0.2-2.42,0.41-3.63,0.61c-2.19,1.33-4.38,2.66-6.57,3.99c0.5-1.4,0.23-3.05-0.68-4.23
	c-1,1.52-1.99,3.03-2.99,4.55c-0.07-0.85-0.15-1.69-0.22-2.54c0.19,1.11-1.73,1.74-2.23,0.72c-0.63,1-1.26,2.01-1.89,3.01
	c0.2-1.05-1.94-1.19-1.88-0.12c0.19-1.14-0.26-2.36-1.15-3.1c-0.18,0.8-0.54,1.74-1.35,1.86c-0.81,0.12-1.1-1.51-0.3-1.35
	c-0.57,1.05-1.14,2.11-1.71,3.16c-0.07-0.87-0.14-1.73-0.21-2.6c-0.85,0.56-1.71,1.12-2.56,1.68c0.81-0.85-1.45-1.94-1.61-0.78
	c-0.07-1.46-0.14-2.91-0.21-4.37c-1.47,1.48-2.66,3.22-3.5,5.13c0.44-1.49-0.09-3.21-1.28-4.2c-0.64,1.03-0.98,2.24-0.97,3.45
	c-0.34-0.65-0.67-1.31-1.01-1.96c0.61-0.03,0.25,1.12-0.36,1.06c-0.61-0.06-1.03-0.64-1.59-0.9c-0.56-0.26-1.48,0.23-1.14,0.75
	c0.3-1.04-1.86-1.35-1.86-0.27c-0.35-1.02-0.71-2.03-1.06-3.05c-0.88,0.66-1.76,1.33-2.64,1.99c-0.15-0.96-0.3-1.92-0.44-2.88
	c-0.84-0.04-1.61,0.77-1.52,1.61c-1-1.59-3.29-2.21-4.95-1.33c-0.84-1.55-1.68-3.1-2.52-4.64c-0.69,0.96-1.38,1.92-2.06,2.87
	c0.01-1.7-0.53-3.41-1.52-4.79c-0.67,0.78-1.34,1.56-2.01,2.34c-2.57-1.51-10.4-7.79-9.82-0.73
	C130.48,210.21,131.12,209.8,131.88,209.4z"/>
<path class="st1" d="M297.17,216.3c-0.57,0.24-0.38,1.18,0.17,1.45c0.55,0.26,1.21,0.07,1.79-0.13c1.43-0.49,2.87-0.98,4.3-1.46
	c0.79,1.68,1.58,3.36,2.37,5.04c0.34-1.26,0.68-2.52,1.02-3.79c0.64,1.42,1.82,2.6,3.25,3.22c-0.05-0.54,0.78-0.6,1.3-0.42
	c1.97,0.67,3.95,1.33,5.92,2c0.26-1.03,0.52-2.05,0.78-3.08c0.22,1.55,0.86,3.05,1.84,4.27c0.04-0.89,0.36-1.77,0.89-2.49
	c0.03,1.08,0.57,2.13,1.44,2.78c-0.13-1.25,1.98-0.5,2.57,0.6c0.48-0.69,0.96-1.38,1.44-2.08c0.86,0.82,2.03,1.3,3.21,1.32
	c0.49-1.02,0.98-2.04,1.47-3.07c0.74,1.01,1.47,2.01,2.21,3.02c0.47-1.18,0.94-2.35,1.41-3.53c0.45,0.74,0.91,1.48,1.36,2.22
	c0.98-0.73,1.96-1.46,2.94-2.18c0.65-0.48,2.03,0.3,1.24,0.48c2.12-1.74,4.24-3.48,6.37-5.22c0.53,0.67,1.06,1.35,1.59,2.02
	c0.62-0.79,1.25-1.57,1.87-2.36c-0.57,1.05,1.58,1.11,2.47,0.32c0.91-0.81,1.81-1.63,2.72-2.44c2.68-0.21,5.21-1.88,6.45-4.27
	c0.48,0.66,0.96,1.32,1.43,1.99c3.82-3.23,8.45-5.49,13.34-6.51c2.15-2.02,5.33-2.88,8.21-2.21c-0.42-1.65-1.28-3.19-2.46-4.42
	c-3.01,1.88-6.13,3.59-9.32,5.12c-1.63,0.78-4.47,0.77-4.31-1.03c0.18,0.92-0.24,1.92-1.01,2.45c-1.73,0.83-3.47,1.65-5.2,2.48
	c-0.47-0.25-0.94-0.5-1.41-0.75c-2.25-0.09-4.51,0.89-5.98,2.6c-0.22-0.75-0.44-1.51-0.66-2.26c-0.67,0.82-1.07,1.87-1.11,2.93
	c-0.14-0.73-0.83-1.3-1.57-1.3c-0.19,0.69-0.38,1.38-0.57,2.07c-1.88-0.56-4.08,0.29-5.1,1.96c0.06-0.97-0.27-1.96-0.91-2.69
	c-0.69,1.51-1.07,3.17-1.12,4.83c-0.29-1.32-0.59-2.64-0.88-3.95c-0.42,0.99-0.84,1.99-1.26,2.98c0.02-0.79-1.23-0.47-1.92-0.1
	c-0.69,0.38-1.88-0.62-1.11-0.8c-1.14,0.76-1.96,1.98-2.24,3.31c-0.63-1.28-1.26-2.56-1.89-3.84c-0.25,1.51-0.49,3.03-0.74,4.54
	c-0.34-1.14-0.68-2.28-1.01-3.42c-0.91,0.73-1.41,1.93-1.3,3.09c-0.57-0.8-1.15-1.61-1.72-2.41c0.03,0.63,0.03,1.35-0.45,1.76
	c-0.48,0.41-1.47-0.05-1.2-0.62c0.08,1.22-0.75,2.45-1.91,2.83c-0.09-1.53-0.53-3.03-1.28-4.36c-0.49,1.19-0.99,2.38-1.48,3.57
	c-0.21-0.79-0.41-1.59-0.62-2.38c-0.28,0.81-0.55,1.61-0.83,2.42c0.31-0.56-0.47-1.25-1.08-1.04c-0.61,0.2-0.91,0.92-0.91,1.56
	c-0.22-0.75-0.45-1.5-0.67-2.25c-1.27,0.84-2.54,1.68-3.81,2.52c-0.45-1.39-0.9-2.78-1.35-4.17c-0.3,1.16-0.59,2.31-0.89,3.47
	c-0.48-1.14-0.97-2.27-1.45-3.41c0.33,1.3-1.55,1.97-2.88,1.84c-1.34-0.13-3.14-0.18-3.52,1.11c-0.31-0.86-0.63-1.72-0.94-2.58
	c-0.5,0.67-0.99,1.34-1.49,2.01c-1.1-0.71-2.19-1.43-3.29-2.14c-2.18,1.66-4.76,1.11-7.05,1.49c0,0.86,0.18,1.38,0.6,2.15
	c0.66,0.25,1.65,0.54,2.42,0.85C296.2,217.33,296.66,216.82,297.17,216.3z"/>
<path class="st1" d="M217.09,216.46c-1.51,17.7-1.31,35.54,0.61,53.19c-1.56-1.03-2.86-2.45-3.74-4.09
	c-0.75,3.19-1.5,6.39-2.24,9.58c-1.39-1.8-2-4.18-1.63-6.43c-0.84,2.46-1.68,4.91-2.53,7.37c-0.17-1.87-0.33-3.74-0.5-5.6
	c-0.59,1-1.18,2.01-1.77,3.01c0.36-0.57-0.37-1.31-1.04-1.24s-1.17,0.62-1.61,1.13c0.86-3.15,0.14-6.69-1.89-9.24
	c-0.5,1.95-1.48,3.78-2.84,5.26c-0.33-1.57-0.66-3.14-0.98-4.71c-0.72,0.48-1.27,1.22-1.51,2.05c0.38-0.6-0.02-1.52-0.72-1.66
	c-0.7-0.13-1.41,0.57-1.29,1.27c-0.77-3.01-1.53-6.03-2.3-9.04c-0.27,1.38-0.55,2.75-0.82,4.13c-0.6-1.52-1.21-3.04-1.81-4.56
	c-0.51,2.74-1.03,5.47-1.54,8.21c-1.03-3.37-1.35-6.95-0.93-10.45c-0.74,1.24-1.48,2.49-2.22,3.73c-0.08-1.13-0.16-2.26-0.23-3.38
	c-1.14,0.59-2.13,1.49-2.81,2.58c-0.02-2.01-0.05-4.03-0.07-6.04c-1.08,1.39-2.16,2.78-3.24,4.17c-0.17-1.87-0.34-3.74-0.51-5.6
	c-0.54,1.12-1.09,2.25-1.63,3.37c-0.03-0.85-0.06-1.7-0.09-2.56c-0.69,0.73-1.39,1.47-2.08,2.2c0.11-3.19,0.23-6.38,0.34-9.57
	c0.74,0.25-0.36,1.33-1.02,0.9c-0.65-0.43-0.98-1.34-1.74-1.51c-8.5-3.98-16.78-8.41-24.82-13.25c-4.71-2.85-9.54-5.77-14.06-8.92
	c-2.14-1.49-4.35-3.01-6.89-3.58c-3.38-0.76-6.88,0.24-10.21,1.24c-5.07,1.52-10.15,3.05-15.22,4.57c-3.55,1.07-7.2,2.15-10.9,1.9
	c-3.7-0.24-7.53-2.1-9.08-5.47c6.92-1.7,13.84-3.39,20.76-5.09c4.12-1.01,8.42-2.11,11.6-4.91c1.98-1.74,3.55-4.15,6.04-5.03
	c2.73-0.97,5.72,0.18,8.32,1.47c14.86,7.37,28.25,20,44.83,20.25c12.72,0.19,24.19-7.07,36.3-10.94
	C210.98,214.03,214.15,214.12,217.09,216.46z"/>
<path class="st1" d="M269.12,276.56c0.87-0.25,1.74-0.5,2.61-0.76c0.02,1.11,0.03,2.22,0.05,3.33c0.91-1.67,1.81-3.34,2.72-5.01
	c0.04,1.12,0.07,2.24,0.11,3.37c2.73-3.37,4.38-7.6,4.65-11.92c1,0.76,1.76,1.84,2.14,3.04c0.82-1.9,1.65-3.79,2.47-5.69
	c0.62,1.02,1.23,2.05,1.85,3.07c1.86-1.34,3.22-3.36,3.75-5.59c0.46,1.01,1.22,1.88,2.16,2.47c0.31-1.21,0.62-2.42,0.93-3.63
	c0.94,0.76,1.58,1.87,1.78,3.06c0.32-2.14,0.65-4.29,0.97-6.43c1.03,0.58,1.7,1.74,1.69,2.92c0.12-1.09,0.57-2.15,1.28-2.99
	c1.17,0.24,2.34,0.48,3.51,0.72c0.37-1.27,0.74-2.55,1.12-3.82c1.66,1.09,4.28-0.42,4.17-2.41c0.78,1.24,1.56,2.49,2.35,3.73
	c1.43-1.41,2.41-3.26,2.77-5.23c0.23,0.91,0.46,1.82,0.69,2.73c1.48-3.41,2.6-6.98,3.35-10.62c0.64,1.54,1.58,2.96,2.76,4.14
	c1.07-3.02,1.57-6.24,1.46-9.45c0.19,0.71,0.66,1.34,1.3,1.71c0.5-0.39,0.86-0.96,0.99-1.58c1.54-0.14,3.09-0.28,4.63-0.42
	c0.38-0.74,0.75-1.48,1.13-2.22c9.27-2.37,18.19-6.09,26.39-11.01c3.89-2.33,7.62-4.93,11.58-7.13c5.45-3.04,11.33-5.32,17.4-6.75
	c6.07-1.43,12.63-1.99,18.41,0.37c0.7,0.28,1.41,0.61,2.16,0.6c2.23-0.05,3.19-3.25,1.99-5.12c-1.2-1.88-3.55-2.62-5.73-3.06
	c-17.38-3.5-35.06,3.34-51.04,11c-4.41,2.12-8.83,4.32-13.57,5.53c-6.15,1.57-12.61,1.41-18.92,0.74
	c-7.49-0.79-14.9-2.29-22.12-4.45c-4-1.2-3.34,1.49-6.28,2.17c-2.73,0.63-5.68-1.84-8.62-0.47c-5.4,2.51-3.01,10.77-2.95,15.42
	C277.39,246.46,274.65,262.03,269.12,276.56z"/>
<path class="st2" d="M171.66,244.23c2.38,0.45,3.95-2.3,4.94-4.51c1.8-4.02,4.22-7.76,7.15-11.05c-0.06,3.33-1.45,6.48-2.81,9.53
	c-1.78,3.99-3.57,7.99-5.35,11.98c4.66-6.18,8.19-13.21,10.37-20.64c1.86,3.9,0.63,8.54-1.1,12.49c-1.73,3.95-3.98,7.86-4.14,12.17
	c1.26-0.38,1.83-1.81,2.23-3.07c1.89-5.99,3.78-11.98,5.67-17.97c2.32,4.05,1.42,9.12,0.22,13.63c-1.2,4.51-2.65,9.29-1.23,13.74
	c1.68-7.69,3.36-15.38,5.03-23.07c0.37-1.71,0.82-3.55,2.15-4.69c0.33,9.06-4.34,17.87-3.29,26.87c1.44-8.73,3.23-17.41,5.38-25.99
	c0.33-1.32,1.75-2.97,2.66-1.95c-1.03,4.95-2.07,9.9-3.1,14.85c-1.21,5.78-2.42,11.76-1.2,17.54c1.68-10.61,3.82-21.14,6.41-31.56
	c1.92,6.09-0.3,12.6-1.6,18.85c-1,4.78-1.45,9.68-1.36,14.57c1.59-7.85,3.19-15.71,4.78-23.56c0.61-3.01,1.28-6.14,3.16-8.57
	c-0.9,8.13-1.8,16.27-2.7,24.4c-0.43,3.89-0.83,8.02,0.83,11.56c1.01-14.04,3.08-28.01,6.2-41.74c-1.78-0.04-3.12,1.55-4.17,2.99
	c-0.1-1.55-0.65-3.06-1.57-4.31c-0.07,1.73-0.99,3.4-2.4,4.4c-0.65-1.19-1.29-2.37-1.94-3.56c-0.56,0.74-1.11,1.48-1.67,2.22
	c-0.54-0.75-1.09-1.49-1.63-2.24c-0.32,1.19-0.99,2.29-1.9,3.12c-0.59-0.85-1.01-1.82-1.21-2.84c-0.57,0.91-1.25,1.9-2.31,2.1
	c-1.05,0.2-2.25-1.08-1.56-1.9c-1.09,0.99-2.17,1.98-3.26,2.97c-0.53-1.52-0.71-3.17-0.51-4.77c-0.19,1.51-6.48,3.94-5.72-0.78
	C179.69,232.78,176.53,238.5,171.66,244.23z"/>
<path class="st2" d="M276.6,266.21c-0.14,1.07-0.2,2.36,0.67,3.01c4.1-13.46,5.88-27.63,5.23-41.69c3.81,9.75,0.13,20.67,0.44,31.13
	c1.57-1.21,1.86-3.41,2.04-5.39c0.7-7.87,1.4-15.74,2.1-23.61c0.26,5.46,0.51,10.91,0.77,16.37c0.18,3.93,0.4,7.98,2.06,11.54
	c0.28-9.57,0.57-19.15,0.85-28.72c0.52,8.61,1.61,17.18,3.25,25.65c2.02-7.61-0.63-15.61-0.65-23.48c0-1.25,0.21-2.74,1.34-3.29
	c1.19,8.49,2.37,16.98,3.56,25.47c0.23-7.98,0.47-15.97,0.7-23.95c1.24,6.97,2.49,13.93,3.73,20.9c0.1-6.64,0.2-13.28,0.3-19.92
	c4.21,5.14,2.02,13.9,7.01,18.28c-1.7-6.41-2.6-13.03-2.67-19.66c4.89,2.75,2.11,11.64,6.76,14.78c-1.08-4.04-2.15-8.08-3.23-12.12
	c-0.19-0.73-0.39-1.52-0.13-2.23s1.16-1.23,1.79-0.81c0.72,3.96,2.17,7.79,4.26,11.23c-0.45-3.46-0.89-6.91-1.34-10.37
	c1.57-0.8,3.12,1.14,3.71,2.8c0.59,1.66,1.56,3.76,3.31,3.58c-0.93-4.01-2.29-7.93-4.05-11.65c-0.19,1.37-1.46,2.51-2.84,2.56
	c-0.12-1.98-1.25-3.87-2.94-4.91c-0.11,1.5-0.21,3-0.32,4.5c-0.87-1.07-1.75-2.13-2.62-3.2c-0.28,1.37-0.56,2.73-0.84,4.1
	c-0.98-0.54-1.69-1.55-1.88-2.66c-0.25,1.05-0.51,2.1-0.76,3.16c-1.46-0.55-2.64-1.81-3.1-3.31c-0.25,1.39-0.5,2.79-0.75,4.18
	c-0.55-1.23-1.33-2.35-2.27-3.31c-0.38,0.96-0.77,1.92-1.15,2.88c-0.92-1.18-1.84-2.35-2.76-3.53c-0.6,1.04-1.2,2.07-1.79,3.11
	c-0.6-1.3-1.54-2.44-2.69-3.3c-0.65,1.19-1.29,2.37-1.94,3.56c-0.21-1.31-1.02-2.65-2.32-2.94s-2.8,1.07-2.26,2.28
	c-0.46-1.11-0.98-2.29-2-2.9c-1.03-0.61-2.69-0.24-2.91,0.94c0.33-1.77-1.18-2.76-2.64-2.68c2.45,5.6,1.03,14.57,0.83,20.65
	C278.21,250.92,277.59,258.59,276.6,266.21z"/>
<path class="st6" d="M99.02,208.56c2.67-1.03,5.39-2.02,7.74-3.65c2.65-1.83,4.76-4.39,7.53-6.05c5.2-3.11,11.88-2.47,17.58-0.43
	c5.7,2.05,10.88,5.35,16.55,7.5c14.28,5.42,30.19,3.06,45.28,0.63c4.7-0.76,9.46-1.53,13.83-3.4c4.13-1.77,7.95-4.52,12.4-5.13
	c4.16-0.58,9.1,0.57,12.07-2.41c-4.84,2.12-8.03,6.74-12.07,10.14c-7.66,6.46-18.13,8.34-28.12,9.04c-22,1.54-44.32-1.57-65.07-9.04
	c-1.55-0.56-3.12-1.15-4.76-1.2c-4.24-0.14-7.67,3.17-11.38,5.22c-2.19,1.2-4.57,1.99-6.94,2.77
	c-13.31,4.39-27.87,11.48-41.74,13.44c5.65-3.49,12.01-6.29,18.04-9.15C84.91,214.48,93.53,208.56,99.02,208.56z"/>
<path class="st6" d="M277.94,201.5c2.98,2.19,6.65,3.17,10.27,3.95c28.08,6.05,58.22,2.1,83.79-10.99c3.51-1.8,7.03-3.79,10.92-4.4
	c6.15-0.96,12.25,1.67,17.82,4.43c23.84,11.82,54.25,4.3,78.09,16.11c-10.63-1.35-21.27-2.7-31.9-4.04
	c-4.45-0.56-8.9-1.13-13.28-2.03c-5.68-1.17-11.23-2.92-16.87-4.32c-6.22-1.55-12.54-2.68-18.91-3.38
	c-4.44-0.49-9.04-0.75-13.27,0.68c-3.77,1.28-6.96,3.81-10.3,5.98c-10.94,7.1-23.97,10.49-36.97,11.46
	c-13,0.97-26.07-0.37-38.99-2.1C289.68,211.71,281.24,209.6,277.94,201.5z"/>
<path class="st7" d="M294.67,205.42c24.03,2.91,48.78-0.42,71.19-9.57c8.16-3.33,16.6-7.51,25.32-6.26
	c4.37,0.63,8.41,2.6,12.57,4.09c19.57,7.02,42.13,3.63,60.76,12.86c-5.37,0.55-10.81,1.1-16.16,0.36c-6.57-0.9-12.74-3.7-19.26-4.85
	c-5.74-1.02-11.67-0.76-17.33-2.14c-5.69-1.39-10.92-4.39-16.67-5.5c-12.75-2.47-25.12,4.55-37.18,9.37
	c-21.04,8.41-44.59,10.41-66.75,5.67c-4.25-0.91-8.54-2.1-12.18-4.49c-2.78-1.83-5.56-4.66-6.32-7.96c2.92,0.32,6.42,4.22,9.45,5.48
	C286.1,204.14,290.43,204.9,294.67,205.42z"/>
<path class="st8" d="M220.47,256.49c-0.08,3.24-0.16,6.5,0.43,9.68c0.52,2.82,1.54,5.52,2.22,8.3c1.51,6.22,1.26,12.85-0.74,18.93
	c-1.73-4.26-5.07-7.84-9.19-9.87c0.68-3.09,1.12-6.9-1.36-8.88c-0.85-0.68-1.95-1.02-2.73-1.78c-1.43-1.38-1.37-3.74-0.63-5.58
	s2.03-3.42,2.85-5.23c2.27-4.98,0.72-10.82,1.48-16.25c0.93-6.62,5.31-12.5,5.57-19.18c0.09-2.4-0.02-4.15,1.75-5.77
	C224.72,228.16,220.69,247.55,220.47,256.49z"/>
<path class="st2" d="M238.77,222.64c2.14,4.63,9.66,5.31,12.6,1.15c7.16,16.11,8.61,34.69,4.04,51.72
	c-2.78,10.36-7.72,20.21-8.76,30.88c1.35-0.45,2.98,0.16,3.7,1.4c-2.04,2.7-6.58-0.03-9.68,1.33c-3.61,1.58-2.14,7.8,1.61,9.01
	s7.76-1.01,10.65-3.7c-4.51,6.97-7.18,15.12-7.67,23.41c-0.29,4.88-0.99,11.32-5.8,12.18c-2.38,0.43-4.76-0.96-6.35-2.78
	c-4.31-4.96-3.97-12.31-3.37-18.85c1.51-16.72,3.02-33.45,4.53-50.17c-3.27,1.61-4.86,5.31-6.19,8.71
	c-5.4-12.76-8.01-32.41-5.11-46.08C224.11,235.41,234.44,213.28,238.77,222.64z"/>
<path class="st2" d="M229.59,296.48c-0.02-1.87,0.94-4.53,2.71-3.92c0.95,0.33,1.3,1.47,1.47,2.47c1.48,8.61-0.28,17.86,3.17,25.89
	c1.92,4.48,5.32,8.17,7.55,12.5c1.69,3.29,2.68,6.93,2.9,10.61c0.05,0.82-0.06,1.83-0.82,2.14c-1.06,0.43-1.92-0.98-2.05-2.12
	c-0.13-1.14-0.26-2.58-1.35-2.93c0.1,2.33,0.12,4.89-1.34,6.71c-1.47,1.82-5.01,1.9-5.7-0.33c-0.31-1.01,0.05-2.1,0-3.16
	c-0.05-1.06-0.94-2.27-1.94-1.93c-0.1,2.11-1.65,4.08-3.68,4.67c0.78-5.75-1.17-11.47-2.54-17.11c-0.88-3.58-1.74-7.6-0.77-11.14
	c0.94,1.56,2.2,2.49,2.64,4.68C229.99,314.52,229.69,305.49,229.59,296.48z"/>
<g>
	<path class="st1" d="M257.35,30.74c-0.55,5.92-2.25,12.51-2.72,18.26c-0.41,5.02,1.22,10.49,1.65,14.89
		c1.28,13.05,0.78,26.68-1.16,38.91c-2.42,15.18-4.7,32.45-6.69,46.11c-2.95,20.36-6.76,30.47-18.26,47.31
		c-4.23,6.2-13.04,12.46-16.89,20.95c-5.28,11.63-7.66,25.15-5.86,38.48c1.8,13.33,7.8,25.65,11.97,38.42
		c5.31,16.29,5.49,32.65,5.55,49.64c1.1,0.27,1.99,0.13,2.99-0.42c0.28,2.3,0.88,4.39,1.84,6.49c1.55-0.83,2.79-1.86,3.9-3.22
		c0.67,1.46,1.06,3.01,2.4,4.03c1.34,1.02,2.92,1.04,4.04-0.27c0.63-0.73,0.18-1.67,0.18-2.5c0.84,0.98,1.47,2.14,2.83,2.48
		c1.36,0.34,2.31-0.4,2.42-1.78c0.91,0.52,1.8,1.09,2.71,1.63c0.81-16.99,6.1-31.65,12.72-47.19c3.23-7.57,6.98-15.31,9.73-23.04
		c5.34-15.04,11.09-30.27,11.9-46.12c0.81-15.85-4.28-27.02-15.12-37.78c-2-1.98-4.78-2.19-6.43-3.59c-1.65-1.4-3.05-3.33-2.28-4.97
		c13.58-28.78,4.79-77.37,8-109.93c0.1-1,0.72-2.92,2.09-3.14c-0.71-5.51,0.84-10.07,1.69-15.49c0.84-5.42,0.49-11.03-0.25-16.54
		c-0.32-2.39-0.76-5.03-2.12-7.06C265.37,31.09,262.25,30.02,257.35,30.74z"/>
	<path class="st9" d="M258.45,23.41c1.37,0.68,2.51,1.58,4.09,1.71c1.59,0.14,2.67-0.61,3.55-1.9c0.58,0.72,0.83,1.52,0.95,2.43
		c0.42,3.38,0.8,6.77,1.19,10.13c-1.87-1.51-3.61-2.91-6.14-2.77s-4.13,1.74-5.99,3.25C256.6,31.93,257.33,27.64,258.45,23.41z"/>
	<path class="st10" d="M261.46,44.76c0.32-1.21,1-2.53,1.46-3.76c1.96,3.17,4.29,6.47,5.39,10c0.63,2.02,0.22,4.63,0,6.39
		c-3.82,29.94-8.18,59.65-7.85,89.66c0.03,2.92,1.59,5.54-1.29,7.41c-2.88,1.87-3.04,9.69-7.89-0.5
		c-3.01-6.31,4.21-40.54,5.99-47.46c3.58-13.91,2.34-20.63,2.68-32.19C260.28,63.58,258.72,55.08,261.46,44.76z"/>
	<path class="st1" d="M245.34,203.8c0.19,3.09,0.37,6.19,0.52,9.28c0.59-1.57,1.43-2.75,2.67-3.87c0.47,1.19,0.92,2.39,1.37,3.59
		c0.33-0.31,0.66-0.62,0.99-0.93c0.78-0.74,1.57-1.48,2.35-2.21c-1.03,5.62-0.96,11.01-0.34,16.68c1.02-2.11,2.03-4.23,3.1-6.32
		c0.64,5.65,0.52,11.17-0.14,16.81c0.91-2.16,1.81-4.31,2.72-6.47c0.41,3.73,0.55,7.43,0.43,11.18c0.53-1.32,1.06-2.63,1.58-3.95
		c0.23,8.36,0.8,16.67,1.78,24.97c0.28-2.65,0.75-5.22,1.43-7.8c0.56,2.33,1.46,4.35,2.81,6.34c0.18-1.92,0.35-3.84,0.52-5.76
		c1.09,1.48,1.86,3,2.4,4.76c-0.03-1.91-0.07-3.81-0.12-5.72c0.64,1.03,1.29,2.06,1.93,3.1c0.19-3.09,0.37-6.18,0.55-9.27
		c-0.22,1.97,0.28,3.17,1.88,4.34c-0.13-3.27-0.26-6.55-0.4-9.82c1.39,1.56,2.76,3.13,4.14,4.7c-0.65-3.48-1.31-6.96-2.01-10.43
		c0.9,0.83,1.83,1.38,2.99,1.76c-0.08-1.69-0.15-3.39-0.24-5.08c1.16,1.29,2.25,1.68,3.97,1.43c-2.02-4.17-4.05-8.33-6.08-12.49
		c2.3,0.47,4.33,1.26,6.34,2.47c-1.88-2.89-3.96-5.36-6.66-7.51c1.11,0.07,2.21,0.14,3.32,0.21c-1.02-2.04-0.34-3.25,1.75-3.99
		c-3.63-2.63-7.44-4.64-11.61-6.27c0.98-1.2,2.11-1.41,3.55-1.46c-7.62-3.39-14.53-9.85-15.65-17.88
		c-1.12-8.04,1.77-9.92,1.75-18.23c-0.05-21.07,3.22-43.08,4.78-65.1c0.62-8.76,0.71-18.28,2.33-28.16
		c1.74-10.61,4.17-23.82,3.65-35.34c-0.11-2.51-1.08-5.82-2.79-7.84c-1.71-2.01-4.65-3.44-6.66-1.18c-5.07,5.7-5.79,11.67-5.2,19.03
		c3.82-3.72,5.18-7.83,5.39-12.91c5.34,8.39,6.2,22.13,5.35,31.09c-2.7,28.27-7.28,57.95-6.82,84.62
		c0.32,18.3-2.54,24.33-9.06,39.63c1.11-0.75,2.21-0.44,3.38-0.47c-0.87,1.02-1.74,2.03-2.6,3.05c1.13-0.07,2.25-0.11,3.38-0.19
		c-2.19,1.77-4.68,2.54-7.16,3.87c-2.48,1.33-4.04,3.01-4.54,5.85C243.25,204.94,244.04,204.19,245.34,203.8z"/>
	<path class="st11" d="M261.17,2.7c-0.41-0.81-1.71-0.32-2.06,0.41c-0.34,0.72-0.21,1.68-0.14,2.5c0.51,6.04-1.85,14.03-0.35,19.51
		c1.74,6.35,6.54,4.16,10.43,7.82C266.86,22.49,265.99,12.31,261.17,2.7z"/>
	<path class="st1" d="M262.07,21.26c0.33,0.78,0.97,0.69,1.63,1.04c1.45,0.78,2.2,1.97,2.31,3.61s-0.54,3.02-0.96,4.55
		c1.94,0.3,3.48,1,5.05,2.18c-2.18-7.99-2.47-16.29-4.1-24.37c-0.21-1.06-0.97-1.16-1.83-1.5c-0.78,2.74,0.72,4.02,1.07,6.81
		S264.02,19.17,262.07,21.26z"/>
	<path class="st12" d="M256.76,29.02c-0.08,0.53-0.32,1.26,0.01,1.8c0.56,0.88,1.48,1.01,2.37,0.54c0.89-0.48,1.38-1.35,2.07-2.03
		c0.39-0.39,0.8-0.76,1.35-0.75c0.55,0.01,0.9,0.32,1.29,0.65c1.72,1.45,3.34,3.02,5.03,4.5c-0.91-4.54-1.55-9.4-1.73-13.94
		c-0.15-3.77,0.26-6.51-0.31-10.36c-0.39-2.61-1.43-7.03-4.6-7.72c-3.18-0.69-4.05,2.92-4.18,5.27
		C257.63,14.45,257.8,21.63,256.76,29.02z"/>
	<path class="st13" d="M256.86,7.07c1.5,1.06,2.93,2.16,4.44,3.21c0.4,0.28,0.79,0.58,1.34,0.53c0.55-0.05,1.01-0.44,1.39-0.86
		c0.61-0.69,1.21-1.42,1.78-2.14c0.23-0.3,0.45-0.6,0.45-0.98s-0.2-0.66-0.41-0.95c-1.27-1.75-2.56-3.47-3.84-5.21
		c-0.16-0.21-0.37-0.41-0.63-0.41c-0.25-0.01-0.39,0.16-0.52,0.33c-1.61,2.08-3.01,4.24-4.31,6.51"/>
</g>
<path class="st14" d="M233.21,488.15c2.17-3.86,4.21-7.86,5.21-12.18c0.72-3.11,0.88-6.31,1.04-9.49c0.4-8.07,1.59-16.01,2.16-23.95
	c0.39-5.46,0.5-10.92-0.14-16.44c-1.81-15.69,3.47-31.54,1.83-47.25c-0.57-5.48-1.09-11.04,1.96-15.63c-0.11,0-0.22,0-0.33,0
	c3.27-16.46,5.55-33.14,6.97-49.86c0.16-1.92,0.32-3.88,1.04-5.67c0.58-1.46,1.51-2.75,2.36-4.08c2.84-4.44,4.82-9.36,6.8-14.24
	c0.92,4.59-0.35,9.3-1.54,13.83c-4.4,16.83-7.73,33.93-10.31,51.13c-0.7,4.69-1.35,9.49-0.49,14.15c0.37,1.99,1.01,3.98,0.72,5.98
	c-0.28,1.88-1.35,3.53-2.09,5.28c-1.28,3.02-1.58,6.45-0.84,9.65c0.53,9.07-1.09,16.84-1.62,25.58c-1.16,18.94-3,38.55-4.53,57.38
	c-0.23,2.79-0.45,5.59-0.35,8.39c0.08,2.35,0.4,4.7,0.36,7.06c-0.04,2.3-0.41,4.58-0.78,6.85c-1.34,8.23-2.68,16.46-4.02,24.69
	c-0.45-1.3-0.66-2.69-0.62-4.07c0.16,2.3-0.55,4.65-1.94,6.48c-0.76-1.14-1.24-2.47-1.38-3.83c-0.4,1.13-0.65,2.32-0.74,3.51
	c-0.87-0.8-1.56-1.8-1.99-2.91c-0.49,0.5-0.98,1-1.47,1.5c-1.9-12.09-1.74-24.5,0.47-36.53c0.7-3.8,1.6-7.58,1.93-11.44
	c0.85-9.74,0.81-58.28,0.96-72.96c0.07-7.08,0.14-14.2-0.95-21.19c-0.41-2.67-0.99-5.33-1.17-8.02c-0.28-4.37,0.53-8.81,2.33-12.8
	c-4.42-21.96-0.38-45.67-5.95-67.38c0.44-0.43,1.18-0.27,1.74,0c3.67,1.83,4.31,6.71,4.48,10.81c0.73,17.88,1.46,35.76,2.19,53.64
	c0.11,2.68,0.22,5.39,0.9,7.99c0.52,1.99,1.35,3.89,1.88,5.88c1.13,4.27,1.29,25.56,0.54,45.95c-0.49,13.27-1.38,26.16-2.64,33.74
	c-0.64,3.84-2.33,21.5-2.28,26.5C232.93,478.79,233.16,483.58,233.21,488.15z"/>
<path class="st15" d="M244.3,362.6c-0.43,0.65-0.95,1.27-1.17,2.02c-0.4,1.37,0.44,2.98,1.78,3.44c-0.47,0.28-0.94,0.57-1.41,0.85
	c0.62,0.45,0.64,1.38,0.44,2.12c-0.2,0.74-0.56,1.48-0.45,2.24c0.06,0.46,0.29,0.89,0.45,1.32c0.38,1.05,0.36,2.2,0.34,3.32
	c-0.06,3.02-0.13,6.05-0.19,9.07c0.26-2.34,1.17-4.61,2.59-6.48c0.18-0.24,0.38-0.49,0.41-0.8c0.06-0.69-0.78-1.12-0.97-1.79
	c-0.38-1.31,1.81-2.22,1.63-3.57c-0.04-0.31-0.21-0.59-0.27-0.9c-0.08-0.41,0.02-0.82,0.09-1.23c0.69-3.78-0.38-9.61-1.65-13.18
	C245.5,360.25,245.02,361.53,244.3,362.6z"/>
<path class="st15" d="M230.14,365.12c0.69,0.2,1.27,0.77,1.47,1.46c-0.83,0.24-0.97,1.6-0.21,2.01c-0.73,0.73-1.25,1.65-1.49,2.65
	c0.82,0.52,1.66,1.05,2.23,1.84c0.56,0.79,0.78,1.91,0.26,2.73c-0.29,0.46-0.79,0.97-0.51,1.43c0.14,0.23,0.42,0.32,0.6,0.52
	c0.28,0.3,0.24,0.77,0.19,1.18c-0.28,2.24-0.56,4.47-0.85,6.71c0.2-1.06,0.4-2.11,0.6-3.17c0.21-1.11,0.44-2.27,1.11-3.18
	c0.67-0.92,1.91-1.52,2.96-1.09c0.18-0.64-0.54-1.14-1.11-1.48s-1.16-1.08-0.74-1.59c0.39,0.33,1.04,0,1.2-0.48
	c0.17-0.48,0.01-1.01-0.15-1.49c-0.59-1.79-1.17-3.58-1.76-5.37c-0.64-1.95-1.61-3.81-2.21-5.71
	C231.36,363.11,230.85,364.25,230.14,365.12z"/>
<path class="st16" d="M239.25,470.16c-0.2,3.51-0.4,7.01-0.59,10.52c-0.07,1.28-0.14,2.59,0.22,3.82c0.4,1.37,1.32,2.56,1.62,3.96
	c0.55,2.57-1.07,5.03-2.05,7.47c-1.71,4.23-1.55,8.95-1.37,13.51c0.11,2.87,0.23,5.76,0.86,8.57c-1.59-2.05-2.69-4.48-3.18-7.04
	c0.6,2.86,0.23,5.91-1.03,8.54c1.22-9.05-0.39-17.85,0.21-26.76c0.23-3.47,2.39-7.03,3.33-10.47
	C238.34,478.33,239.02,474.25,239.25,470.16z"/>
<path class="st16" d="M227.53,484.07c-1.12,4.11-0.58,8.46-0.35,12.71c0.29,5.66,0,11.34-0.89,16.94c0.93-1.82,1.56-3.8,1.87-5.82
	c0.05,3.84-0.18,7.68-0.69,11.48c0.57-2.27,1.13-4.53,1.7-6.8c0.66,2.12,0.96,4.35,0.87,6.57c0.72-5.21,0.8-10.5,0.25-15.73
	c-0.24-2.23-0.59-4.45-0.59-6.7c0-3.55,0.87-7.04,1.3-10.56c0.37-3.04,0.61-6.96-1.1-9.61C228.91,478.7,228.18,481.66,227.53,484.07
	z"/>
<path class="st17" d="M245.82,381.47c-3.12,30.03-4.59,60.2-6.06,90.36c-0.29,5.97-0.55,12.15,1.64,17.71
	c0.53-4.02,0.41-8.12-0.35-12.11C235.11,446.32,245.31,413.13,245.82,381.47z"/>
<path class="st18" d="M512.63,226.53c-1.47-0.68-2.91-1.43-4.33-2.21c8.38,2.25,17.56,1.49,25.42-2.2
	c-0.18-0.02-0.36-0.04-0.54-0.06c-2.83-1.6-6.18-1.48-9.48-1.11c-4.52-0.53-9.03-1.06-13.55-1.59c-0.29-0.23-0.56-0.49-0.81-0.77
	c4.49-0.3,8.94-1.05,13.29-2.22c0.15-0.02,0.31-0.05,0.46-0.07c1.74-0.28,3.54-0.59,5-1.56c0.28-0.19,0.54-0.42,0.78-0.66
	c0.71-0.52,1.23-1.18,1.34-2.05c-0.05,0.01-0.09,0.02-0.14,0.03c0.16-0.6,0.18-1.22-0.01-1.83c-5.61,1.52-11.28,3.05-17.01,3.95
	c-9.11,0.35-18.33-0.44-27.28-2.05c-1.16-0.32-2.32-0.64-3.48-0.98c-2.2-0.63-4.39-1.28-6.58-1.94c-4.36-1.82-8.92-3.09-13.59-4.01
	c-0.63-0.18-1.27-0.36-1.91-0.53c-17.72-6.86-38.34-4.48-56.42-10.96c-1.3-0.47-2.6-0.98-3.89-1.49c-2.29-1.41-4.76-2.12-7.32-2.35
	c-0.45-0.09-0.9-0.18-1.36-0.25c-8.72-1.26-17.17,2.93-25.32,6.26c-22.41,9.15-47.16,12.48-71.19,9.57
	c-4.24-0.51-8.58-1.28-12.54-2.94c-2.53-1.06-5.38-3.93-7.95-5.05c-0.69-0.88-1.35-1.8-1.95-2.78c-4.1-1.93-8.45-3.29-12.9-4.12
	c-0.69-1.02-1.01-2.1-0.55-3.08c13.58-28.78,4.79-77.37,8-109.93c0.1-1,0.72-2.92,2.09-3.14c-0.71-5.51,0.84-10.07,1.69-15.49
	c0.84-5.42,0.49-11.03-0.25-16.54c-0.32-2.39-0.76-5.03-2.12-7.06c0,0,0,0,0,0c-0.1-0.82-0.19-1.65-0.29-2.48
	c0.33,0.3,0.66,0.6,0.99,0.89c-0.07-0.35-0.13-0.72-0.2-1.08c0.12,0.1,0.24,0.19,0.36,0.3c-0.08-0.39-0.16-0.77-0.23-1.16
	c0.43,0.25,0.86,0.53,1.29,0.86c-1.55-5.7-2.15-11.56-2.96-17.39c0.03-1.85,0.02-3.67-0.31-5.83c-0.12-0.82-0.31-1.82-0.6-2.82
	c-0.01-0.05-0.03-0.09-0.04-0.13c-0.58-1.89-1.55-3.78-3.24-4.52c-0.31-0.43-0.63-0.85-0.94-1.28c-0.16-0.21-0.37-0.41-0.63-0.41
	c-0.25-0.01-0.39,0.16-0.52,0.33c-0.56,0.73-1.09,1.47-1.6,2.21c-0.01,0.01-0.01,0.02-0.02,0.03c-0.95,1.38-1.84,2.8-2.68,4.27
	l0.3-0.02c0.39,0.28,0.77,0.56,1.15,0.84c-0.37,7.15-0.26,14.03-1.26,21.11c-0.08,0.53-0.32,1.26,0.01,1.8
	c0.03,0.04,0.06,0.08,0.09,0.12c-0.29,1.77-0.55,3.55-0.76,5.34c0.19-0.16,0.38-0.31,0.57-0.47c-0.2,1.21-0.41,2.43-0.63,3.66
	c-0.76,2.27-1.1,4.64-1.16,7.17c-0.1,0.81-0.19,1.6-0.25,2.38c-0.41,5.02,1.22,10.49,1.65,14.89c1.28,13.05,0.78,26.68-1.16,38.91
	c-2.42,15.18-4.7,32.45-6.69,46.11c-2.7,18.6-6.11,28.64-15.45,43.08c-2.63,0.8-5.21,1.79-7.68,3c-1.94,0.95-3.83,2.01-5.7,3.09
	c-4.31,0.7-8.04,3.34-12.07,5.07c-4.38,1.87-9.13,2.65-13.83,3.4c-15.08,2.43-30.99,4.79-45.28-0.63
	c-5.67-2.15-10.85-5.46-16.55-7.5s-12.38-2.68-17.58,0.43c-1.18,0.7-2.23,1.57-3.26,2.48c-1.53,1.16-2.97,2.47-4.47,3.7
	c-2.31,1.54-4.94,2.51-7.54,3.51c-4.32,0-10.56,3.65-15.44,6.36c-3.28,1.01-6.52,2.11-9.58,3.6c-4.45,2.16-8.46,5.11-12.69,7.68
	c-6.35,3.88-13.22,6.88-20.35,9c-12.3,3.03-25.49,3.44-38.26,2.66c-0.51-0.08-1.02-0.14-1.53-0.23c0.02,0.05,0.05,0.09,0.06,0.13
	c-0.16-0.01-0.31-0.02-0.47-0.03c0.23,0.17,0.46,0.33,0.69,0.49c1.54,3.22,4.71,4.94,8.25,5.88c3.64,0.96,7.46,0.79,11.22,0.58
	c-0.09,0.05-0.18,0.1-0.27,0.15c-6.2,1.62-12.41,3.24-18.61,4.86c3.49,2.49,8.11,2.91,12.32,2.1c4.21-0.81,8.1-2.73,11.94-4.63
	c-3.17,4.06-7.65,7.09-12.59,8.53c-2.12,0.62-4.89,1.64-4.72,3.85c0.03,0.41,0.16,0.75,0.36,1.05c-0.8,0.36-1.6,0.71-2.4,1.05
	c0.97-0.15,1.93-0.34,2.89-0.53c1.16,0.93,3.28,1.03,4.87,0.56c1.36-0.41,2.66-1,3.89-1.72c-1.76,1.7-2.83,4.11-2.76,6.56
	c3.31-0.02,6.59-1.34,8.99-3.62c-0.02,1.71,1.54,2.99,3,3.88c5.47,3.33,11.77,5.29,18.16,5.65c0.82,0.05,1.66,0.08,2.5,0.13
	c1.49,0.34,2.98,0.66,4.47,0.97c0.38,0.18,0.75,0.38,1.1,0.64c0.92,0.68,1.7,1.64,2.82,1.9c2.24,0.51,4.5-2.11,6.61-1.19
	c1.03,0.45,1.64,1.65,2.73,1.95c1.01,0.28,1.87-0.29,2.72-1.01c0.16,0.01,0.31,0.03,0.47,0.01c1.11-0.14,1.95-1.08,3.03-1.39
	c0.45-0.13,0.91-0.14,1.37-0.09c1.7,1.14,2.93,3.75,4.89,3.2c1.11-0.31,1.73-1.58,2.83-1.91c0.94-0.28,1.92,0.19,2.85,0.5
	c3.18,1.04,6.91-0.2,9.01-2.76c0.72,1,2.08,1.84,3.16,1.85c0.06,0,0.13-0.01,0.19-0.01c0.15,0.12,0.31,0.24,0.47,0.34
	c1.2,0.75,3.01,0.69,3.88-0.34c0.24,0.08,0.48,0.17,0.71,0.31c0.05,0.03,0.09,0.07,0.13,0.1c0.65,0.89,1.42,1.71,2.37,2.05
	c1.51,0.82,3.56,0.57,4.83-0.6c0.56,0.03,1.13,0.15,1.69,0.32c0.32,0.28,0.64,0.55,0.97,0.83c0.18-0.09,0.37-0.18,0.55-0.26
	c0.5,0.21,0.99,0.45,1.47,0.67c3.46,1.62,7.06,2.94,10.75,3.97c0.65,0.5,1.34,0.77,2.11,0.54c3.32,0.81,6.7,1.39,10.11,1.7
	c1.31,0.12,2.66,0.2,3.88,0.7c0.97,0.39,1.83,1.03,2.82,1.33c4.31,1.31,8.16-3.98,12.66-3.73c2.74,0.15,4.94,2.32,7.57,3.12
	c0.22,0.07,0.44,0.1,0.67,0.13c0.32,0.17,0.65,0.31,1.01,0.34c1.46,0.12,2.55-1.24,3.81-2c1.12-0.67,2.43-0.87,3.75-0.95
	c6.81,1.74,14.72,1.27,21.48,0.41c0,0,0.01,0,0.01,0c-0.13,0.28-0.27,0.55-0.44,0.82c0.8-0.22,1.52-0.67,2.12-1.25
	c0.98-0.35,1.89-0.89,2.68-1.58c0.2,0.36,0.37,0.74,0.54,1.12c0.32,2.06,1.01,4.09,2.65,5.29c1.92,1.41,5.36,0.54,5.69-1.71
	c0.01,0.02,0.02,0.05,0.03,0.07c0.02,2.68,2.16,5.01,4.53,6.36c2.49,1.41,5.34,2.12,7.81,3.57c0.09,0.05,0.16,0.11,0.25,0.16
	c4.43,15.32,4.6,30.73,4.65,46.7c1.1,0.27,1.99,0.13,2.99-0.42c0.28,2.3,0.88,4.39,1.84,6.49c0.36-0.19,0.7-0.4,1.02-0.61
	c0.32,2.66,0.72,5.3,1.24,7.91c-1.81,3.99-2.61,8.43-2.33,12.8c0.17,2.7,0.75,5.35,1.17,8.02c1.08,7,1.01,14.11,0.95,21.19
	c-0.14,14.69-0.11,63.22-0.96,72.96c-0.15,1.68-0.41,3.34-0.7,4.99c-0.09-0.17-0.16-0.35-0.27-0.51c-0.97,2.16-1.7,5.12-2.36,7.53
	c-1.12,4.11-0.58,8.46-0.35,12.71c0.04,0.81,0.05,1.63,0.06,2.44c-0.07,1.93-0.09,3.86-0.06,5.78c-0.14,2.92-0.44,5.83-0.9,8.71
	c0.45-0.89,0.83-1.81,1.14-2.76c0.11,1.56,0.26,3.11,0.44,4.67c-0.11,1.25-0.23,2.51-0.4,3.75c0.2-0.78,0.39-1.57,0.59-2.35
	c0.13,1,0.25,2.01,0.41,3.01c0.49-0.5,0.98-1,1.47-1.5c0.03,0.07,0.07,0.14,0.1,0.22c0,0.13,0.01,0.26,0,0.39
	c0.01-0.1,0.02-0.2,0.04-0.31c0.43,0.99,1.06,1.88,1.85,2.61c0.09-1.2,0.34-2.38,0.74-3.51c0.15,1.36,0.63,2.69,1.38,3.83
	c1.21-1.59,1.9-3.56,1.96-5.56c0.06,1.07,0.26,2.13,0.6,3.14c0.14-0.87,0.28-1.75,0.43-2.62c0.28,0.44,0.58,0.88,0.9,1.29
	c-0.26-1.16-0.42-2.34-0.54-3.52c1.08-6.62,2.16-13.23,3.23-19.85c0.29-1.76,0.57-3.53,0.7-5.3c0.02,0.06,0.05,0.13,0.07,0.19
	c0.52-3.98,0.41-8.04-0.33-11.99c0.06-1.73,0.19-3.47,0.33-5.2c1.52-18.83,3.37-38.44,4.53-57.38c0.53-8.73,2.15-16.51,1.62-25.58
	c-0.74-3.2-0.45-6.63,0.84-9.65c0.74-1.75,1.82-3.4,2.09-5.28c0.29-2-0.35-4-0.72-5.98c-0.87-4.66-0.22-9.46,0.49-14.15
	c2.49-16.57,5.68-33.05,9.85-49.28c0.29-0.69,0.58-1.38,0.88-2.08c0.92-2.15,1.88-4.31,2.84-6.48c0.78-0.63,1.59-1.2,2.5-1.61
	c2.31-1.06,4.99-1.04,7.33-2.03c2.34-0.99,4.33-3.81,3.03-5.99c0.54,0.23,1.11,0.4,1.68,0.54c0.46,0.33,0.91,0.69,1.46,0.74
	c0.52,0.05,0.9-0.13,1.21-0.44c1.86-0.02,3.72-0.5,5.33-1.45c-0.07-1.29-0.15-2.59-0.22-3.88c0.01,0,0.01,0,0.02,0
	c0.47-0.16,0.9-0.57,1.07-1.02c0.33-0.02,0.67-0.04,1-0.07c0.14,0.1,0.27,0.2,0.41,0.3c0.16-0.12,0.32-0.24,0.48-0.36
	c0.59-0.04,1.18-0.07,1.78-0.12c1.37,0.52,2.89,0.64,4.32,0.31c-0.03-0.24-0.04-0.49-0.06-0.73c2.41-0.27,4.81-0.61,7.2-1
	c0,0,0,0,0,0c0.7-0.11,1.4-0.21,2.1-0.34c1.31-0.06,2.61-0.12,3.92-0.19c0.33,0.38,0.67,0.77,1.12,0.95
	c1.03,0.42,1.89-0.34,2.8-1.14c1.54-0.07,3.08-0.15,4.63-0.22c0.4,0.51,0.73,1.12,1,1.7c0.75-0.72,1.71-1.46,2.69-1.87
	c0.82-0.04,1.63-0.08,2.45-0.12c0.18,0.08,0.35,0.18,0.51,0.32c0.48,0.4,0.79,1,1.35,1.27c1.23,0.59,2.13-0.66,3.13-1.82
	c0.88-0.04,1.75-0.08,2.63-0.12c0.63-0.03,1.27-0.06,1.9-0.08c0.24,0.4,0.45,0.84,0.61,1.25c1.02,0.61,1.93-0.44,2.93-1.3
	c1.2,0.02,2.41,0.08,3.6,0.24c0.58,0.08,1.18,0.17,1.76,0.1c1.08,0.56,2.16,1,3.2,0.53c0.71-0.32,1.19-1,1.72-1.58
	c2.33,0.6,4.73,2.45,6.98,1.58c1.68-0.65,2.44-2.5,3.53-3.97c0.74,0.23,1.5,0.5,2.21,0.46c1.04-0.06,1.85-0.81,2.7-1.45
	c0.17,0.28,0.27,0.61,0.26,0.94c1.17-0.14,2.28-0.66,3.14-1.46c0.46-0.06,0.93-0.13,1.39-0.19c0.01,0.03,0.03,0.05,0.04,0.07
	c0.15-0.05,0.31-0.09,0.46-0.14c2.8-0.38,5.59-0.77,8.39-1.15c0.61,0.62,1.74,0.91,2.6,0.55c1.35-0.57,2.11-1.97,2.94-3.17
	c0.4-0.57,0.89-1.13,1.45-1.55c3.2,0.05,6.4-0.1,9.59-0.33c0.66,0.59,1.34,1.12,2.14,0.94c0.67-0.15,1.11-0.75,1.62-1.23
	c0.5-0.04,0.99-0.08,1.49-0.12c0.81-0.07,1.62-0.14,2.43-0.2c0.15,0.03,0.29,0.07,0.43,0.1c2.85,0.58,5.93-0.83,7.52-3.24
	c1.59,0.53,3.45,0.18,4.86-0.78c0.49-0.14,0.97-0.35,1.39-0.62c0.86-0.53,1.58-1.24,2.23-2.03c1.25,0.25,2.58,0.05,3.75-0.5
	c1.44,0.4,3.17-0.03,3.83-1.41c0.17-0.35,0.28-0.73,0.44-1.08c1.12,0.52,2.4,0.69,3.62,0.5c0.35,0.34,0.71,0.67,1.07,0.91
	c1.87,1.28,4.36,0.12,6.5-0.61c0.71-0.24,1.43-0.42,2.16-0.57c4.07,0.55,8.25,0.21,12.34-0.43c3.14,0,6.23-0.22,9.12-1.39
	c0.67-0.27,1.33-0.59,2-0.86c0.74-0.18,1.47-0.36,2.21-0.54c1.2-0.07,2.4,0.21,3.61,0.21c1.41,0,2.78-0.41,4.13-0.82
	c10.08-3.08,20.06-6.47,29.93-10.15c1.5-0.56,3.02-1.14,4.33-2.05c1-0.7,1.86-1.57,2.81-2.33c1.3-1.05,2.79-1.86,4.36-2.42
	c2.22,0.28,4.51,0,6.58-0.86c0.4,0.03,0.81,0.07,1.2,0.14c-1.44-0.98-2.57-2.38-3.26-3.98c0.17,0,0.34-0.01,0.5-0.01
	c3.33,0.84,6.87,0.76,10.16-0.22c0.56-0.01,1.12-0.02,1.68-0.04c-0.33-0.06-0.66-0.13-1-0.19c0.85-0.29,1.69-0.62,2.49-1.03
	C524.74,229.18,518.69,227.85,512.63,226.53z M232.93,474.22c-0.05-5,1.64-22.66,2.28-26.5c1.26-7.59,2.15-20.48,2.64-33.74
	c0.76-20.39,0.59-41.68-0.54-45.95c-0.53-1.99-1.36-3.89-1.88-5.88c-0.67-2.6-0.79-5.31-0.9-7.99c-0.08-1.94-0.16-3.88-0.24-5.81
	c0.09,0.08,0.19,0.16,0.28,0.23c0.36,0.76,0.81,1.47,1.53,2.02c1.34,1.02,2.92,1.04,4.04-0.27c0.15-0.18,0.24-0.37,0.29-0.56
	c0.38-0.14,0.72-0.33,1.04-0.55c0.45,0.49,0.96,0.91,1.69,1.09c1.36,0.34,2.31-0.4,2.42-1.78c0.63,0.36,1.24,0.74,1.86,1.11
	c-0.58,3.5-1.2,6.99-1.87,10.48c-0.33,0.87-0.72,1.73-1.23,2.49c-0.43,0.65-0.95,1.27-1.17,2.02c-0.23,0.8-0.04,1.67,0.42,2.36
	c-1.06,3.72-0.67,7.81-0.24,11.86c1.64,15.66-3.6,31.45-1.85,47.09c-1.63,13.3-2.88,26.58-1.95,39.57
	c-0.02,0.33-0.04,0.65-0.06,0.98c-0.16,3.18-0.32,6.39-1.04,9.49c-1,4.32-3.04,8.31-5.21,12.18
	C233.22,483.58,232.98,478.79,232.93,474.22z M241.67,442.53c-0.22,3.05-0.53,6.1-0.85,9.15c0.35-6.7,0.71-13.4,1.11-20.1
	C242.06,435.25,241.93,438.89,241.67,442.53z"/>
</svg>
