<!-- Generator: Adobe Illustrator 23.0.4, SVG Export Plug-In  -->
<svg version="1.1" xmlns="http://www.w3.org/2000/svg" xmlns:xlink="http://www.w3.org/1999/xlink" x="0px" y="0px"
	 width="472.48px" height="231.04px" viewBox="0 0 472.48 231.04" style="enable-background:new 0 0 472.48 231.04;"
	 xml:space="preserve">
<style type="text/css">
	.st0{fill:#070000;}
	.st1{fill:#FF6666;}
	.st2{fill:#F9B2B2;}
	.st3{fill:#934747;}
	.st4{fill:#D18686;}
</style>
<defs>
</defs>
<path class="st0" d="M63.53,88.78c-6.57,13.58-17.75,27.6-27.79,38.7c-8.5,9.4-33.01,16.98-35.74,26.93
	c6.05,1.96,13.65,0.11,19.9-2.16c-2.64,6.66-7.01,13.51-10.69,18.83c6.44-3.07,10.43-9.26,15.68-13.4c-0.57,5.02-3.02,10.19-5,15.12
	c7.47-1.47,14.65-11.41,20.39-17.09c8.4,13.11,15.31-1.48,24.97-6c-2.74,1.28,14.97-1.19,10.82-1.48c4.57,0.32,9.62,1.15,14.11,3.8
	c5.18-7.63,10.3-6.88,18.13-8.42c10.22-2.01,7.67,0.6,17.56-7.08c12.81-9.95,27.38-14.49,43-19.24c13.78-4.2,30.16-1.05,42.84-4.19
	c12.1-3,16.27-18.74,29.46-9.31c-1.55-24.99-34.53-38.03-56.3-39.64c-9.93-0.74-19.21-3.31-29-4.54
	c-13.84-1.75-11.54-3.37-18.27,11.62c-4.86-1.99-10-4.03-14.88-5.92c-7.33,13.03-23.48,3.32-30.74,17.36
	C83.06,81.16,72.13,86.95,63.53,88.78"/>
<path class="st1" d="M117.39,46.49c-2.6,8.05-25.93,17.66-32.99,23.13C72.31,79,60.2,88.28,55.29,104.35
	c4.4-7.56,12.63-12.49,20.75-7.23c6.49-20.3,21.09-7.42,36.81-11.36c9.68-2.42,29.24-15.94,35.09-24.4
	c-10.47-5.13-21.69-9.47-32.52-14.08"/>
<path class="st2" d="M89.75,23.32c4.34,4.01,3.63,9.22,7.04,13.17c6.11,7.09,15.76,11.7,24.46,16.16
	c16.4,8.4,34.95,16.68,52.69,21.15c18.74,4.73,60.75,4.8,58.93,31.31c23.71,12.53,40.53,32.23,66.08,43.06
	c21.4,9.07,44.57,7.6,64.24,17.3c1.26-1.92,2.31-4.19,2.75-6.46c-2.59-2.62-3.62-6.43-5.64-8.87c2.82,1.41,7.39,1.38,9.08,1.9
	c-5.64-11.83-8.78-10.1-9.9-24.99c-1.32-17.66-0.44-14.1-12.31-18.33c-13.06-4.64-44.42-9.63-40.98-30.55
	c17.32,1.51,40.93,7.88,56.72,15.7c15.81,7.83,14.62,19.89,25.98,30.69c5.13,4.87,12.04,5.28,15.97,11.53
	c3.01,4.79,3.86,14.75,6.77,20.48c5.42,10.68,11.97,18.01,24.4,21.86c-8.22-23.9-12.48-47.58-30.3-67.57
	c-16.76-18.81-38.66-30.6-61.79-41.36c-24.64-11.47-50.09-21.3-75.69-28.98c-27.97-8.38-51.48,18.14-79.18,13.7
	c-9.99-1.6-22.08-8.1-31.36-10.49c-8.53-2.19-21.65-4.51-27.55-11.32c-7.26-8.37-3.15-14.45-17.87-19.09
	c-8.9-2.8-18.09-5.04-19.98,7.8"/>
<path class="st3" d="M68.46,15.9c16.61-1.09,33.95,16.79,50.36,22.81c7.98-9.88-6.97-32.26-16.46-37.36
	c-7.05-3.79-32.93,0.35-35.28,13.97"/>
<path class="st0" d="M64.91,12.75c6.66-0.7,13.05,1.71,19,4.58c2.21-4.67,4.53-8.87,7.07-12.8c-8.63-5.95-25.22,1.02-27.24,10.99"/>
<path class="st0" d="M108.25,18.15c-0.02,1.23-1.26,2.69-1.47,4.01c0.87,0.04,2.5,1.44,3.73,1.59c1.34-2.03,1.77-4.36,2.75-6.47
	c-2.04-2.25-3.5-0.25-4.43-0.51"/>
<path class="st1" d="M292.3,78.52c9.8,2.94,8.4,8.66,14.12,13.75c5.04,4.48,6.25,4.34,11.24,7.23c8.79,5.08,20.71,12.04,31.97,16.21
	c-0.25-1.74,0.85-5.17,0.29-7.45c6.77,1.22,9.37,0.62,16.22,3.07c3.61-5.1,9.37-3.89,14.77-0.24c0.87-1.73,1.57-3.25,2.17-5.1
	c-18.49-8.31-28.71-23.59-48.94-30.84c-10.7-3.83-39.46-10.6-42.41,4.77"/>
<path class="st0" d="M417.05,166.86c7.6,2.57,6.52,8.95,10.87,14.87c4.42,6,12.56,9.13,17.8,15.42
	c11.32,13.58,6.35,27.34,26.75,33.9c-2.95-4.85-3.91-10.19-4.19-15.84c1.42,0.06,2.38,0.88,3.86,0.86
	c-3.49-5.09-13.48-13.52-14.88-16.37c2.04,0.27,4.48,0.03,6.42,0.4c3.13-9.26-11.57-16.56-16.63-23.52
	c-7-9.61-12.43-19.72-19.39-29.41c-12.55-17.45-19.06-44.62-39.35-53.64c0.79,1.65,5.64,6.36,9.51,8.69
	c8.99,21.74,37.11,38.15,23.97,64.82"/>
<path class="st4" d="M347.32,141.85c8.85,5.87,15.43,15.09,24.16,21.18c9.54,6.65,19.32,11.78,29.75,16.8
	c8.21,3.95,15.98,8.07,23.95,12.36c6.53,3.52,13.84,8.25,20.48,10.92c-10.99-18.22-31.65-20.37-48.02-32.46
	c-16.44-12.14-35.72-21.3-49.2-36.21c-2.29,3.57-3.68,7.58,0.57,10.29"/>
</svg>
