<!-- Generator: Adobe Illustrator 23.0.4, SVG Export Plug-In  -->
<svg version="1.1" xmlns="http://www.w3.org/2000/svg" xmlns:xlink="http://www.w3.org/1999/xlink" x="0px" y="0px"
	 width="491.47px" height="283.46px" viewBox="0 0 491.47 283.46" style="enable-background:new 0 0 491.47 283.46;"
	 xml:space="preserve">
<style type="text/css">
	.st0{fill:#DDC5C5;}
	.st1{fill:#BCA4A4;}
	.st2{fill:#EDD9D9;}
	.st3{fill:#F2E2E2;}
	.st4{fill:#F9E8E8;}
	.st5{fill:#F9F2F2;}
	.st6{fill:#F7F0F0;}
	.st7{opacity:0.6;fill:url(#SVGID_1_);}
	.st8{opacity:0.6;fill:#49382C;}
	.st9{opacity:0.6;fill:url(#SVGID_2_);}
	.st10{opacity:0.4;fill:#49382C;}
	.st11{opacity:0.6;fill:url(#SVGID_3_);}
	.st12{opacity:0.3;fill:url(#SVGID_4_);}
	.st13{opacity:0.6;fill:url(#SVGID_5_);}
	.st14{opacity:0.6;fill:url(#SVGID_6_);}
	.st15{opacity:0.6;fill:url(#SVGID_7_);}
	.st16{opacity:0.6;fill:url(#SVGID_8_);}
	.st17{opacity:0.6;fill:url(#SVGID_9_);}
	.st18{opacity:0.2;fill:#49382C;}
	.st19{fill:#0C0600;}
	.st20{opacity:0.6;fill:url(#SVGID_10_);}
	.st21{opacity:0.6;fill:url(#SVGID_11_);}
	.st22{opacity:0.6;fill:url(#SVGID_12_);}
	.st23{opacity:0.3;fill:url(#SVGID_13_);}
	.st24{opacity:0.6;fill:url(#SVGID_14_);}
	.st25{opacity:0.6;fill:url(#SVGID_15_);}
	.st26{opacity:0.6;fill:url(#SVGID_16_);}
	.st27{opacity:0.6;fill:url(#SVGID_17_);}
	.st28{opacity:0.6;fill:url(#SVGID_18_);}
</style>
<defs>
</defs>
<path class="st0" d="M348.92,67.45c-7.18-1.27-14.79-0.45-22.1-0.78c-18.04-0.82-37.68-5.25-54.63,1.35
	c-8.13,3.17-16.71,0.71-24.66,3.3c-5.6,1.83-9,6.27-12.23,11.28c-5.96,9.27-8.16,9.3-17.53,2.68c-5.46-3.86-9-5.97-16.28-5.28
	c-4.78,0.45-6.21,0.4-8.5,4.47c-2.17,3.86,0.07,9.29-6.84,7.56c-3.67-0.92-4.58-5.44-7.29-7.53c-4.12-3.18-9.68-2.97-14.74-3.17
	c-9.12-0.36-17.46,0.83-26.64-0.02c-6.34-0.59-16.86-1.21-22.64,0.5c4.55,1.91,9.63,2.67,14.13,4.17c6.26,2.09,9.09,5.48,14.23,9.22
	c5.35,3.9,12.47,4.73,18.58,6.79c10.4,3.51,17.92,9.37,28.87,12.53c15.25,4.4,22.75,9.47,30.69,24.82
	c8.39,16.23,4.31,33.02-16.35,30.65c-10.79-1.24-14.12-7.11-20.66-14.15c-9.52-10.24-17.07-18.51-28.55-26.36
	c-16.4-11.22-32.38-18.13-49.62-27.69c-8.14-4.52-13.75-11.5-21.99-14.43c-6.46-2.3-9.27-4.48-9.35-12.02
	c-0.08-8.33,1.53-12.32,9.33-13.9c7.61-1.54,11.2-5,18.58-8.19c5.04-2.18,10.43-2.66,15.61-4.45c9.72-3.35,19.24-7.35,29.58-9.32
	c11.33-2.16,23.24-1.64,34.8-2.17c19.67-0.9,39.36-1.03,59.04-1.19c7.61-0.06,15.51,1.16,21.86-3.74
	c5.19-4.01,7.41-10.9,12.55-14.98c2.71-2.15,8.43-4.23,11.99-5.53c7.9-2.89,15.8-6.4,24.65-7.21C328.96,3.2,345.32,0.06,361.47,0
	c8.26-0.03,16,2.33,24.18,3.33c3.12,0.39,7.97,1.17,10.72,2.77c3.18,1.84,5.03,6.05,8.49,7.79c8.77,4.4,17.02,4.95,25.33,11.63
	c3.89,3.13,6.7,8.19,10.78,10.93c3.28,2.21,7.51,1.34,10.54,3.54c3.85,2.8,3.72,6.74,10.03,8.06c9.76,2.04,10.26-7.28,17.95-8.73
	c11.09-2.08,10.33,25.08,9.9,32.57c-11.63,5.86-20.8-5.19-31.93-3.91c-4.65,0.53-7.25,3.77-10.82,6.72
	c-5.41,4.47-10.25,6.49-16.55,9.2c-6.34,2.72-14.12,5.21-20.48,8.1c-9.2,4.18-16.01,11.35-23.32,1.32
	c-3.28-4.51-6.55-9.34-10.65-13.31C369.06,73.62,357.8,69.02,348.92,67.45z"/>
<path class="st1" d="M364.15,72c-5.02,0.79-13.21,15.83-16.99,20.02c-3.63,4.03-6.48,9.31-10.18,13.21
	c-3.37,3.55-8.57,5.46-11.64,8.75c-3.81,4.09-4.47,9.78-7.02,14.17c-1.84,3.17-4.74,6.44-6.86,10.04
	c-2.33,3.95-9.74,16.58-14.54,14.92c0.26-7.34,7.7-18.95,12.04-24.98c2.69-3.73,6.67-5.84,5.9-11.58
	c-1.25-9.29-19.94-19.54-17.31-29.12c10.38-1.96,14.68,9.48,21.95,13.77c6.76,3.99,12.96-2.86,17.13-7.98
	c4.06-4.98,11.15-16.47,6.88-21.88c-5.76-7.31-18.72-6.62-22,1.15c-5.29,12.54-7.58,26.62-13.17,39.37
	c-4.04,9.2-10.59,16.52-13.33,26.03c-1.91,6.64-4.58,25.24-11.42,25.96c-0.79-12.77-0.13-25.86,4.44-37.83
	c1.07-2.81,5.03-9.49,4.13-12.68c-1.36-4.8-11.58-6.5-16.03-10c-3.33-2.62-7.27-6.61-9.93-9.87c8.45-0.57,14.27,0.53,21.26,4.52
	c9.56,5.45,11.81,4.5,17.92-5.37c2.79-4.51,8.34-15.96,6.78-21.28c-1.8-6.16-11.4-6.68-17.33-6.67c-9.54,0.01-13.33,0.15-16.56,9.86
	c-2.8,8.43-2.73,18.83-4.89,27.97c-4,16.94-8.24,33.45-6.95,50.86c0.38,5.1,3.92,30.04-1.76,32.51
	c-7.29,3.16-11.15-14.48-11.7-18.64c-2.24-16.9,4.41-32.75,4.5-49.02c0.08-13.09,6.92-25.4,11.51-37.26
	c2.6-6.72,3.17-10.75-5.48-11.62c-21.84-2.2-35.13,16.15-40.02,36.18c-2.72,11.14,0.95,25.28,3.33,36.35
	c1.06,4.95,1.24,10.33,2.94,15.04c1.66,4.6,4.25,8.94,5.72,13.44c1.66,5.07,6.27,13.75,5.25,18.88
	c-7.46,1.47-15.06-19.89-18.19-26.04c-7.07-13.91-9.71-23.38-9.71-38.46c0-8.55,0.46-16.72,3.14-24.73
	c2.18-6.54,3.82-11.4,3.43-18.56c-2.45,0.22-3.99,2.56-4.68,5.11c-2.04-0.14-4.38,0.39-6.43,0.22c-0.07,1.34-0.96,2.43-0.88,3.81
	c-4.26-1.74-11.03-7.85-16.58-5.26c-5.48,2.56-5.04,13.07-5.32,18.63c-0.7,14.09-0.24,29.11,4.25,42.6
	c3.84,11.54,14.38,22.15,21.94,31.78c4.97,6.33,6.21,12.93,7.86,20.13c-3.66-5.11-11.76-7.47-15.36-11.91
	c-2.58-3.17-1.49-2.55-2.15-4.71c-1.19-3.9-0.97-6.38-3.96-9.91c-2.85-3.36-7.62-5.46-10.61-8.62c-3.99-4.22-4.12-8.7-5.42-14.54
	c-4.47-1.54-8.82-3.67-13.24-5.3c-3.95-1.46-8.34-1.48-11.85-3.6c-1.01-0.61-2.37-3.67-3.5-4.67c-4.3-3.77-10.3-4.96-14.77-8.21
	c-4.98-3.62-7.62-9.36-12.02-13.52c-4.11-3.88-36.73-23.53-29.71-33.35c2.68-3.76,10.58-2.09,14.53-2.13
	c10.23-0.1,11.28,7.68,18.82,12.53c3.2,2.06,8.93,1.63,12.51,3.6c3.07,1.69,5.54,4.51,8.52,6.54c3.96,2.69,11.01,7.17,12.93,0.12
	c7.54-1,11.72,2.67,11.88-7.45c0.12-7.93-6.06-12.63-13.48-14.03c-8.01-1.51-16.55,2.42-24.55,0.07
	c-4.76-1.4-13.47-7.87-13.19-13.27c12.35-2.56,23.61-9.89,36.33-10.78c4.5-0.31,10.05,1.22,14.27,0.41
	c4.97-0.95,9.41-4.3,14.67-5.08c3.92-0.59,8.05-0.09,11.96-0.67c11.15-1.66,20.92-6.87,32.32-7.33c12.51-0.5,24.88,1.42,37.57,0.68
	c10.51-0.61,23.77-4.62,34.47-1.86c9.34,2.41,16.99,8.96,27.06,9.86c12.03,1.07,12.78,0.93,20.08,9.85
	c3.09,3.78,8.01,5.69,10.52,9.48"/>
<path class="st2" d="M157.48,82.67c-8.37,5.42-16.02,16.18-16,25.97c0.02,6.32-2.35,16.37,3.87,20
	c1.27-10.11,5.14-21.24,11.01-29.85c2.93-4.3,12.42-11.27,12.39-17.32c-3.5-1.97-8.99-2.24-12.6-0.8"/>
<path class="st2" d="M191.48,50.67c1.77-0.37,4.13-0.01,5.9,0.1c1.22,4.67,2.59,9.5,2,14.47c-4.94,0.51-11.71,7.9-15.38,11.43
	c-7.1,6.84-13.43,19.03-15.89,28.82c-3.08,12.23-5.36,33.62,1.77,44.43c-4.93-5.39-9.62-5.94-10.42-13.38
	c-0.87-8.06-0.39-17.01,0.02-25.12c0.61-12.01,6.31-26.95,12.67-36.9c6.76-10.58,10.11-19.12,22.66-21.85"/>
<path class="st3" d="M233.48,55.33c-2.85,5.77-8.06,11.21-10.66,16.61c-3.05,6.31-4.5,14.13-6.54,20.57
	c-4.28,13.52-5.25,25.96-3.28,40.13c2.14,15.36,3.56,31.85,7.12,46.67c2.09,8.7,8.05,13.02,10.5,21.26
	c-23.25,0.63-24.84-43.52-32.3-59.24c-6.27-13.2-17.02-21.39-27.22-31.92c-6.46-6.66-10.37-14.2-15.56-21.29
	c12.89-0.75,17.73,8.67,27.32,15.98c3.46,2.63,6.62,7.96,11.33,8.7c6.42,1,7.54-7.07,9.33-13.58c2.16-7.88,5.16-15.91,7.12-24.03
	c1.43-5.96,1.96-14.68,5.68-19.77c3.39-4.63,17.11-7.54,17.83-0.1"/>
<path class="st4" d="M286.15,42c0.63,10.71-9.6,24.44-14.13,33.34c-7.54,14.8-14.32,24.93-15.72,41.88
	c-1.14,13.79-0.71,28.43-1.33,42.12c-0.49,10.88,1.17,21.45,3.95,31.37c-12.21,6.91-16.37-50.81-16.76-55.46
	c-0.61-7.28-3.06-10.81-7.27-17.22c-5-7.62-7.82-16.89-13.4-24.04c-3.53-4.52-12.31-10.21-11.89-16.53
	c13.43,0.43,19.46,26.44,33.9,22.56c7.86-2.11,12.4-21.25,15.49-28.44c4.91-11.43,4.95-21.69,11.95-32.11
	c6.37-2.06,11.06-0.11,15.22,5.22"/>
<path class="st5" d="M245.48,79.33c3.12,20.3,32.17,26.05,35.35,46c2.35,14.72-8.35,39.89,4.65,49.78
	c4.4-11.65,5.68-25.42,8.55-37.32c2.73-11.29,1.41-23.21,6.6-34.1c6.72-14.11,15.93-26.56,22.1-41.16
	c3.76-8.88,4.73-10.66,14.01-11.34c-4.35-5.91-14.45-8.02-21.16-5.77c-2.01,9.09-2.3,17.45-6.64,25.93
	c-3.65,7.13-10.02,13.67-13.3,21.15c-2.81,6.41-1.26,10.71-8.93,9.35c-6.26-1.11-10.46-7.06-15.1-10.8
	c-8.13-6.54-13.19-11.41-23.36-10.96c-0.96,7.04,4.04,10.28,9.9,12.57"/>
<path class="st5" d="M360.82,72c0.55,5.32-5.49,11.36-7.98,15.34c-2.05,3.27-4.78,6.65-6.5,10.13c-1.61,3.24-1.92,8.65-4.87,11.09
	c-9.29,7.66-28.13-6.28-35.86-10.5c-0.96,12.88,24.94,13.7,25.41,25.97c0.19,4.88-6.5,9.05-9.98,12.78
	c-2.78,2.99-12.64,8.63-12.11,13.11c9.71-1.64,20.15-16.94,26.56-23.77c8.78-9.35,17.82-20.07,25.35-30.47
	c2.8-3.87,12.12-17.35,11.2-21.7c-2.12-9.95-10.08-1.13-13.22,2.02"/>
<path class="st0" d="M140.82,82.67c-19.83,16.15-27.33,40.72-27.33,65.37c0,14.43,0.1,29.09,4.67,42.82
	c3.36,10.11,8.99,20.13,13.33,29.81c5.87,13.08,16.71,20.68,31.98,24.65c18.31,4.76,34.32-0.62,51.38-7.31
	c13.77-5.4,25.92-11.86,38.63-19.47c9.87-5.91,23.41-5.4,32.63-11.97c9.6-6.83,18.4-13.95,29.92-17.35
	c2.28-6.84,8.84-8.05,13.82-12.18c6.1-5.07,7.07-7.2,14.98-10.07c6.52-2.37,12.74-5,19.31-6.95c3.76-1.12,10.03-2.25,12.68-5.21
	c-3.44,0.08-10.72-0.63-13.32-2.91c-4.36-3.83-1.95-7.73-2.12-13.12c-10.36-0.52-20.81,0.13-31.13,0.66
	c-0.17,3.13,1.15,8.48-0.08,11.25c-1.88,4.21-7.23,5.13-11.05,8.45c-5.33,4.63-10.44,10.21-15.58,14.88
	c-5.55,5.04-11.08,13.05-18.1,17.18c-11.89,7-23.54,18.12-37.96,20.14c-4.79,0.67-9.95-0.83-14.71,0
	c-7.53,1.31-12.25,7.4-18.7,11.23c-14.09,8.38-35.92,7.44-52.41,7.44c-9.03,0-13.63-1.11-20.84-6.5c-5.55-4.15-5.19-10.14-7-16.14
	c-2.08-6.89-5.49-13.49-6.97-20.62c-1.62-7.82-2.02-14.7-2.03-22.75c-0.01-14.63,3.37-29.14,5.88-43.37
	c2.29-12.95,3.7-26.45,15.43-34.15c2.9-1.9,5.59-5.52,8.18-7.02c3.47-2,7.06-1.35,11.08-1.58c-5.57-13.03-38.3-1.23-48.48-1.8
	c-1.84,8.44,18.04,7.25,23.23,7.25"/>
<path class="st6" d="M352.82,144.67c6.7,5.04,12.9,8.36,22,8.67c10,0.34,14.94-8.54,24.57-8.1c0.47-8.2,0.09-16.64,4.29-23.98
	c2.42-4.24,4.37-4.15,8.1-6.41c5.58-3.38,10.36-8.04,16.23-11.03c4.25-2.17,9.72-3.1,13.89-5.67c3.89-2.4,7.03-5.75,11.11-8.15
	c6.13-3.59,12.18-8.09,19.05-9.43c-0.26-3.73-8.19-4.49-11.4-6.39c-2.05-1.21-2.22-3.93-5.16-4.23c-2.11-0.21-8.51,3.28-10.69,4.21
	c-6.58,2.8-12.57,5.94-19.28,7.78c-9.21,2.53-12.32,4.5-18.04,11.25c-3.97,4.68-8.43,9.45-12.8,14.11
	c-6.05,6.45-9.96,13.31-15.05,20.81c-4.98,7.34-17.57,19.19-26.82,18.55"/>
<path class="st6" d="M382.15,88.67c-0.32,7.73,12.38,10.09,17.93,8.7c12.42-3.1,21.91-15.72,34.44-20.17
	c5.21-1.85,10.88-2.5,15.82-5.02c2.98-1.52,5.21-3.92,8.43-4.88c4.81-1.43,8.64-0.57,12.87,1.22c7.18,3.04,11.79,5.59,19.74,6.73
	c0.37-6.58-0.42-12.1-1.4-18.45c-0.53-3.45,1.06-12.33-1.3-14.63c-1.87-1.82-4.43-0.07-6.51-0.84c-2.09-0.77-3.6-3.29-5.48-3.86
	c-7.3-2.2-8.86,4.07-12.79,8.15c-5.5,5.71-13.53,7.43-19.61,12.37c-9.93,8.05-19.34,10.65-30.93,15.33
	c-7.33,2.96-11.86,4.79-18.14,10.59c-4.21,3.89-6.91,6.33-13.07,6.1"/>
<linearGradient id="SVGID_1_" gradientUnits="userSpaceOnUse" x1="348.2048" y1="111.559" x2="456.593" y2="111.559">
	<stop  offset="0" style="stop-color:#724802"/>
	<stop  offset="1" style="stop-color:#9B6719"/>
</linearGradient>
<path class="st7" d="M362.15,146.67c3.56-3.06,9.35-4.23,12.85-7.84c2.1-2.17,3.41-8.04,7.18-6.88c5.43,1.67,2.49,15.35,4.1,19.28
	c8.76-5.46,15.56,1.69,10.68-12c-2.5-7.02-3.17-12.6,2.03-18.6c3.37-3.88,7.22-3.87,11.17-7.13c4.36-3.61,5.61-9.48,10.13-13.66
	c5.21-4.82,12.22-5.4,17.9-9.87c6.41-5.05,14.07-11.77,18.4-18c-9.53-0.87-15.83,5.41-23.8,9.2c-10.48,5-15.22,10.77-21.28,20.42
	c-3.37,5.36-9.55,11.9-14.58,15.8c-4.51,3.49-4.72,2.28-10.61,3.29c-6.86,1.17-17.56,12.9-17.57,20.4
	c-4.16,0.29-6.18,2.2-10.08,1.78c-3.46-0.37-6.87-2.57-10.46-2.75c2.43,5.12,13.92,6.13,19.28,5.9"/>
<path class="st8" d="M406.15,114c8.05-3.06,11.27-10.31,16.16-16.5c2.99-3.78,6.28-6.33,9.87-9.5c5.6-4.94,10.54-8.17,16.58-11.2
	c-10.64-1.08-17.22,3.29-22.28,12.5c-3.44,6.27-8.05,8.02-12.5,12.7c-3.36,3.54-5.4,9.63-7.17,14"/>
<path class="st6" d="M331.37,160.25c0.4,9.96-5.05,19.22-12.78,25.65c-18.7,15.56-41.08,21.36-62.9,30.74
	c-10.34,4.44-19.07,10.87-29.45,13.47c-6.86,1.72-12.41,6.29-18.86,8.43c-5.01,1.66-11.08-0.05-15.93,2.29
	c-16.58,7.96-18.65,22.7-0.76,29.88c15.19,6.1,31.48,5.18,47.47,5.96c17.36,0.85,34.18,6,51.71,6c3.29,0,12.48,1.76,14.98,0.03
	c3.13-2.16,1.87-7.16,2.08-10.58c2.48-0.99,8.68-1.86,10.73-0.15c2.4,2.01,0.7,5.91,2.46,7.55c5.57,5.16,18.62-3.18,24.66-4.86
	c10.94-3.04,20.47-7.11,31.24-10.13c13.68-3.84,23.11-12.74,32.95-22.37c3.39-3.32,5.99-6.4,9.05-10.18
	c5.85-7.21,11.87-15.07,11.46-25.13c-0.46-11.27-12.42-12.63-20.21-17.18c-13.11-7.67-9.77-24.46-11.12-37.65
	c-0.92-9.07-8.62-6.55-16.83-4.68c-5.48,1.25-18.01,6.67-21.85,2.01c-6.24-7.55,5.69-6.96,7.26-11.88
	c-0.9,2.82-30.99-0.64-34.49,1.78C326.49,143.19,331.15,154.74,331.37,160.25z"/>
<path class="st6" d="M398.82,146c2.45-2.56,6.59,0.19,9.18-2.12c2.35-2.09,1.75-9.63,0.13-11.23c-8.58-8.54-8.65,8.24-8.65,12.68"/>
<linearGradient id="SVGID_2_" gradientUnits="userSpaceOnUse" x1="336.8785" y1="153.293" x2="366.0803" y2="153.293">
	<stop  offset="0" style="stop-color:#724802"/>
	<stop  offset="1" style="stop-color:#9B6719"/>
</linearGradient>
<path class="st9" d="M355.48,146.67c-10.75-1.56-18.8,14.33-18.6,22.6c13.86,0.53,27.07-2.75,26.5-18.5
	c-4.37,0.52-7.24-2.7-8.98-6.15c3.5-0.05,9.02-4.03,11.68-5.82c-7.9-0.59-17.47,0.91-25.03-1.53c3.23,3.62,8.14,6.64,12.43,8.73"/>
<path class="st8" d="M340.15,160.67c3.41-5.95,4.9-8.12,11.25-10.52c5.82-2.2,7.02-0.85,13.31,0.62c0.24,8.21-5.62,8.57-10.43,12.35
	c-0.07-5.94-10.07-15.55-12.8-6.45"/>
<path class="st10" d="M210.15,274.67c0.36-4.39,6.02-11.17,9.32-14.02c2.4-2.07,10.06-8.76,13.32-10.01
	c5.91-2.28,19.82-0.87,25.88-1.15c11.21-0.52,20.87-2.51,31.39-6.98c4.66-1.98,6.64-3.97,10.18-6.79c6.2-4.94,13.68-7.51,20.3-11.69
	c6.2-3.92,13.71-8.59,19-13.82c6.49-6.42,9.5-14.35,15.39-21.42c10.91-13.11,28.9-6.6,34.39-25.43c3.58,7.58,0.97,17.74,5.6,25.12
	c4.46,7.12,13.56,8.14,20.59,9.5c19.07,3.71,8.81,24.7-1.32,34.45c-9.71,9.34-20.15,18.67-31.6,25.5
	c-6.64,3.96-14.88,3.43-21.22,7.22c-4.12,2.46-7.12,4.38-11.16,6.13c-7.68,3.33-13.94,5.39-22.68,4.7c-5.12-0.41-3.8,0.45-8.2-3.66
	c-2.6-2.44-3.08-4.57-7.17-5.67c-7.76-2.08-11.35,5.73-14.05,11.9c-16.45,1.68-35.04-1.76-51.42-2.57
	c-11.07-0.55-26.15,2.92-36.52-0.65"/>
<linearGradient id="SVGID_3_" gradientUnits="userSpaceOnUse" x1="267.3264" y1="272.5081" x2="352.0637" y2="272.5081">
	<stop  offset="0" style="stop-color:#724802"/>
	<stop  offset="1" style="stop-color:#9B6719"/>
</linearGradient>
<path class="st11" d="M304.15,278.67c1.68-4.74,3.49-8.18,9.33-7.35c6.73,0.96,5.04,6.34,9.28,8.7c7.8,4.33,27.65-0.89,29.3-9.91
	c-8.5-1.06-15.91,5.27-24.75,3.1c-6.46-1.59-6.98-7.98-12.46-9.87c-13.04-4.49-13.25,6.14-21.37,10.03
	c-7.81,3.75-19.29,0.5-26.17,7.98c8.34,3.21,26.26-0.01,36.16-0.01"/>
<linearGradient id="SVGID_4_" gradientUnits="userSpaceOnUse" x1="375.4821" y1="183.9335" x2="405.0497" y2="183.9335">
	<stop  offset="0" style="stop-color:#724802"/>
	<stop  offset="1" style="stop-color:#9B6719"/>
</linearGradient>
<path class="st12" d="M375.48,176c10.2,5.45,3.99,20.99,11.14,26.86c3.64,2.99,17.13,2.07,18.21-1.67
	c1.69-5.89-6.85-11.45-8.86-15.85c-2.83-6.18-4.56-15.41-5.85-22.12c-1.99,8.1-9.31,6.94-13.96,12.11"/>
<linearGradient id="SVGID_5_" gradientUnits="userSpaceOnUse" x1="179.634" y1="261.2109" x2="212.0803" y2="261.2109">
	<stop  offset="0" style="stop-color:#724802"/>
	<stop  offset="1" style="stop-color:#9B6719"/>
</linearGradient>
<path class="st13" d="M200.15,252c-3.58,4.7-13.61,11.67-5.31,15.9c3.87,1.97,12.79,0.58,17.24,0.9c-4.53,6.77-27.88,6.79-31.3-0.62
	c-2.15-4.67-1.5-16.48,3.89-18.91c5.66-2.56,9.37,2.92,12.15,6.73"/>
<path class="st8" d="M182.15,262c-1.09,11.48,9.34,9.33,17.8,9.33c-9.52,0.4-10.11-10.14-17.03-11.23c-0.11,1.75-0.49,4.16-0.1,5.9"
	/>
<path class="st6" d="M68.15,93.32c15.5,11.3,30.1,23.13,43.81,35.98c5.02,4.71,8.28,10.48,12.86,15.54c1.92,2.12,4.46,3.5,6,5.98
	c2.03,3.26,2.94,6.97,5.32,10.48c2.79,4.11,4.42,6.53,5.96,10.88c1.96,5.53,0.38,10.81,1.36,15.8c1.38,7.02,9.32,12.22,15.5,13.85
	c6.64,1.76,18.28,2.61,21.9-3.98c4.3-7.84,4.59-21.56,1.49-29.8c-4.21-11.18-15.9-14.72-24.04-22.22
	c-9.67-8.91-18.1-20.29-28.62-28.67c-11.81-9.4-21.85-20.61-31.43-32.52c-5.61-6.97-10.33-20.79-19.51-23.3
	c-8.29-2.27-37.25,0.2-37.87,11.68C40.23,85.08,60.95,88.07,68.15,93.32z"/>
<linearGradient id="SVGID_6_" gradientUnits="userSpaceOnUse" x1="58.1491" y1="76.6195" x2="101.9318" y2="76.6195">
	<stop  offset="0" style="stop-color:#724802"/>
	<stop  offset="1" style="stop-color:#9B6719"/>
</linearGradient>
<path class="st14" d="M58.15,65.33c5.51,2.01,4.74,6.6,5.33,11.46c0.93,7.59,4.33,8.07,11.97,7.02c5.69-0.78,7.15-2.66,12.71,0.37
	c2.42,1.32,6.28,4.82,8.1,6.37c1.65,0.33,4.27,0.68,5.67,0.69c-4.45-5.51-8.91-10.73-13.74-15.91c-2.8-3-5.27-8.7-8.58-10.85
	c-4.44-2.88-16.83-3.55-21.46-0.49"/>
<linearGradient id="SVGID_7_" gradientUnits="userSpaceOnUse" x1="71.515" y1="71.2712" x2="88.8068" y2="71.2712">
	<stop  offset="0" style="stop-color:#724802"/>
	<stop  offset="1" style="stop-color:#9B6719"/>
</linearGradient>
<path class="st15" d="M75.48,63.33c0.12,2.95-1.14,5.53-3.9,6.07c-0.37,3.68,0.75,8.96,3.77,11.23c0.21-3.18-1.43-10.3,2.07-11.32
	c5.15-1.5,7.29,8.14,11.3,8.59c1.13-8.61-8.78-8.39-8.67-15.8c-1.47-0.48-2.38,0.05-3.23,0.57"/>
<path class="st2" d="M0.82,36.03c2.15,6.55,9.31,4.63,15.9,4.64c6.4,0.01,9.6-0.17,14.71-2.82c5.88-3.05,11.35-5.75,18.04-6.53
	c12.9-1.5,26.35-2.55,39.39-2.65c60.19-0.45,120.19-4,180.54-4c50.15,0,99.8-2.61,149.96-2.67c17.4-0.02,29.02,2.52,43.49,11.2
	c5.95,3.57,10.87,3.4,17.87,4.03c0.2-3.67,0.02-7.46,0.2-11.13c8.76-2.29-10.2-12.28-13.43-12.77c-15.15-2.27-30.96-0.02-46.22,0.01
	c-17.47,0.03-34.95,0.2-52.42,0.39c-35.12,0.39-70.24,0.94-105.36,0.94c-32.38,0-64.76,0-97.14,0c-28.26,0-55.9-2-84.05-2
	C68.36,12.67-8.74,6.97,0.82,36.03z"/>
<path class="st6" d="M36.87,20.02c9.65,5.5,17.6,7.28,30.02,7.48c25.13,0.41,50.29,0.17,75.42,0.17c33.06,0,66.11,0,99.17,0
	c12.77,0,26.86,1.5,39.39-0.79c11.41-2.08,21.91-2.8,33.74-2.8c47.64,0,98.26,2.8,144.06-6.21c5.17-1.02,12.06-1.28,16.63,0.98
	c3.71,1.83,11.2,9.44,8.23,14.5c-2.28,3.88-12.37,1.76-16.05,4.35c-3.06,2.15-6.63,9.4-11.37,7.67c-3.14-1.15-4.78-6.47-8.35-8.24
	c-4.39-2.17-10.12-1.82-14.87-1.81c-13.99,0.02-28.07-0.11-41.96,0.52c-11.19,0.5-22.26,0.99-33.42,1.45
	c-12.58,0.52-24.7,3.73-37.31,4.03c-25.81,0.62-50.93-2.4-76.69-1.33c-13.01,0.54-27.03-0.09-40.13,1.26
	c-13.96,1.44-28.19,6.89-41.52,8.07c-9.19,0.81-18.72-1.28-27.74,0.82c-5.39,1.25-10.41,2.96-16.04,3.68
	c-6.23,0.8-13.18,0.03-19.55,0.95c-6.97,1.01-13.72,4.19-20.51,5.23c-6.01,0.92-12.46,0.55-18.57,1.34c-4,0.51-4.97,0.09-8.3,2.12
	c-4.68,2.85-6.24,4.88-11.41,6.13c-4.4,1.06-9.39,1.99-13.95,2.33c-9.13,0.7-19.05-1.35-22.84-10.74
	c-2.52-6.22,0.05-13.07,0.52-18.8C4.35,31.72-4.28,23.6,9.84,18.17C16.75,15.52,30.58,16.43,36.87,20.02z"/>
<linearGradient id="SVGID_8_" gradientUnits="userSpaceOnUse" x1="12.8156" y1="27.9007" x2="56.7448" y2="27.9007">
	<stop  offset="0" style="stop-color:#724802"/>
	<stop  offset="1" style="stop-color:#9B6719"/>
</linearGradient>
<path class="st16" d="M12.82,20.67c0.29,7.89,3.55,13.25,11.37,12.81c4.15-0.23,8.53-2.96,13.25-2.23
	c6.7,1.05,11.96,6.36,19.32,5.28c-4.51-4.29-10.74-4.57-15.83-7.68c-2.44-1.5-3.48-5.11-5.6-6.83c-4.97-4.01-13.07-2.69-19.83-2.69"
	/>
<linearGradient id="SVGID_9_" gradientUnits="userSpaceOnUse" x1="5.4821" y1="61.9213" x2="47.4611" y2="61.9213">
	<stop  offset="0" style="stop-color:#724802"/>
	<stop  offset="1" style="stop-color:#9B6719"/>
</linearGradient>
<path class="st17" d="M5.48,55.33c3.1,2.87,9.01,2.94,11.85,5.43c2.72,2.39,1.45,5.32,4.82,7.08c5.79,3.04,19.16-5.31,25.31-6.65
	c-5-3.68-18.84-4.33-25.24-4.53c-5.12-0.16-10.28,0-15.4,0"/>
<path class="st18" d="M10.82,68.67c15.82,5.99,25.04,6.43,40.63,0.85c14.41-5.16,27.74-6.5,42.59-8.66
	c19.49-2.83,38.84-6.73,58.13-10.06c8.12-1.4,15.2-4.16,23.18-6.17c-12.29,0.16-24.4,0.7-36.69,0.7c-28.69,0-60.82-4.61-88.96,2.52
	c-8.85,2.24-23.14,1.01-30.76,6.08c-2.67,1.77-2.34,4.22-5.45,5.42c-2.65,1.02-7.85,0.11-10.53-0.45c3.38,3.38,7.33,6.41,10.51,9.77
	"/>
<path class="st19" d="M192.82,260c4.28,4.49,12.52,5.23,18.67,4.67c7.32-0.67,10.73-5.9,17.24-7.43c1.18-4.43,1.58-8.45,1.31-13.12
	c-9.41-3.72-16.74,5.26-25.03,8.05c-6.13,2.06-16.27,0.21-14.19,9.83"/>
</svg>
