<!-- Generator: Adobe Illustrator 23.0.4, SVG Export Plug-In  -->
<svg version="1.1" xmlns="http://www.w3.org/2000/svg" xmlns:xlink="http://www.w3.org/1999/xlink" x="0px" y="0px"
	 width="141.87px" height="190.91px" viewBox="0 0 141.87 190.91" style="enable-background:new 0 0 141.87 190.91;"
	 xml:space="preserve">
<style type="text/css">
	.st0{opacity:0.6;fill:#BDF4F0;}
	.st1{fill:#FFFFFF;}
	.st2{fill:#776D71;}
	.st3{fill:#A08E8E;}
	.st4{fill:#F9685D;}
	.st5{opacity:0.53;fill:#F49898;}
	.st6{fill:#F9E4E4;}
	.st7{fill:#F4BDBD;}
	.st8{fill:#F4CCC9;fill-opacity:0.5;}
	.st9{fill:#A39393;fill-opacity:0.64;}
	.st10{fill:#C49576;fill-opacity:0.6;}
	.st11{fill:#E2A58D;fill-opacity:0.3;}
	.st12{fill:#F7CB7F;fill-opacity:0.95;}
	.st13{fill:#050404;}
	.st14{fill:#E88282;fill-opacity:0.8;}
	.st15{fill:#F77272;fill-opacity:0.39;}
	.st16{fill:#070606;fill-opacity:0.5;}
	.st17{fill:#19110E;fill-opacity:0.61;}
	.st18{fill:#F7B2B2;}
	.st19{fill:#875151;fill-opacity:0.7;}
	.st20{fill:#F4B3B3;}
	.st21{fill:#FC8686;fill-opacity:0.66;}
	.st22{fill:#FC8686;fill-opacity:0.75;}
	.st23{opacity:0.9;fill:#F4B3B3;}
</style>
<defs>
</defs>
<path class="st0" d="M83.18,169.3c0.45,1.32-0.38,2.93-1.71,3.34c1.3-0.12,2.65,0.36,3.6,1.26c-7.98,2.05,14.07,4.3,14.65,4.61
	c-1.05,3.04-8.24,1.76-7.65,5.75c2.55-0.17,4.78,0.51,6.67,2.05c0.48,2.2-20.54,5.21-23.19,4.16c-7.35-2.92,2.09-3.42-0.24-5.99
	c-1.99-2.19-10.18,1.43-11.45-2.25c-1.56-4.51,6.26-2.08,6.65-5.67C45.38,166.63,82.89,168.42,83.18,169.3z"/>
<g>
	<path class="st1" d="M133.91,86.41c1.31,0.72,2.64,1.2,4.11,1.48c-1.39-1.24-12.13-9.07-11.31-10.88
		c-6.83-1.47-13.56-6.91-19.58-6.91c0.19-0.24,0.38-0.49,0.58-0.73c-4.02-1.79-11.79-6.91-16.08-6.94c0.58-0.67,1.14-1.32,1.71-2
		c-12.95,0.36-36.25-10.29-46.75,2.17c-3.31,3.92-1.92,15.52-7.49,7.33c-2.82-4.16-2.17-12.34-1.4-17.07
		c1.73-10.69,6.34-17.44,3.28-28.66C38.9,16.59,33.94,6.45,26.5,2.63C19.78-0.82,15.07,2.09,9.65,6.39
		C0.6,13.57,0.5,20.01,1.61,31.15C5.71,24.03,11.91,19.19,16,12.71c4.29,2.33,9.71-0.94,13.78,0.99c6.68,3.17,8.11,15.12,7.79,21.43
		c-0.48,9.32-6.52,17.14-7,26.33c-0.49,9.43,5.87,19.98,13.61,25.25c7.36,5.01,21.08,4.22,26.86,11.41
		c4.29,5.34,4.24,19.74,4.97,25.98c2.06,17.42,1.3,36.11,0.57,53.68c0.28-0.01,0.55,0.01,0.82,0.05c0.65-6.47,2.07-12.93,0.89-19.44
		c3.52-15.81-0.56-27.28-1.83-43.27c-0.98-12.29-0.98-24.92,10.28-9.13c7.31,10.25,18.3,23.38,15.64,36.49
		c-3.07,15.11-13.93,30.47-20.87,43.98c0.8,0.54,1.71,0.82,2.67,0.88c6.52-14.52,12.95-35.07,24.83-46.1
		c0.53-7.51-3.83-12.81-7.91-18.58c-5.79-8.17-10.45-17.14-16.51-25.1c7.22-1.17,12.09-5.96,18.7-8.28
		c7.7-2.7,10.99-0.37,18.95,2.98c-1-0.43-1.68-1.01-2.28-1.92c0.6,0.15,1.08,0.42,1.52,0.83c0.13,0.42,1.43,0.57,1.31-1.58
		c1.44,1.64,3.01,3.08,4.8,4.35c-0.59-0.92-1.18-1.85-1.77-2.78c0.7,0,1.4,0,2.09,0c-0.89-0.85-1.59-1.76-2.18-2.84
		c4,1.47,6.33,3.72,8.1,7.58c-0.28-2-0.56-4-0.83-6c0.41-0.01,0.7-0.14,0.99-0.41c-0.78-0.55-6.19-3.4-5.89-5.05
		c2.22,1.08,4.47,2.08,6.77,2.97C134.55,87.07,134.23,86.74,133.91,86.41z"/>
	<path class="st2" d="M79.11,97.93c-1.47-0.46-2.42-1.15-3.2-2.48c0.32-0.23-0.19,1.49-0.64-0.36c-0.16,0.23-0.33,0.47-0.49,0.71
		c-0.14-0.42-0.27-0.84-0.41-1.27c-2.01,2.54-20.28-3.66-19.97-6.23c-0.27-2.16-14.1-5.68-17.38-8.14
		c4.47,7.85,17.91,11.85,25.94,15.2c1.04,0.43,5.75,2.3,7.01,2.6c0.65,1.34,1.7,2.17,3.15,2.49C75.12,99.65,77.12,98.81,79.11,97.93
		z"/>
	<path class="st3" d="M84.78,94.3c0.05,1-0.38,1.74-1.29,2.16c0.83,0.36,1.47,0.93,1.94,1.69c5.92-1.7,10.63-4.47,15.28-8.49
		c-0.67-2.94,20.28,2.54,22.43,3.23c-0.84-0.92-1.76-1.6-2.88-2.14c1.2-0.22,2.18-0.09,3.27,0.43c-1.5-1.09-3-2.18-4.5-3.26
		c5.99,1,10.35,3.37,14.73,7.54c-0.01-1.11-0.15-2.17-0.43-3.25c0.33,0.2,0.67,0.4,1,0.61c-1.67-4.34-4.19-6.49-8.82-7.12
		c0.61,0.46,1.23,0.92,1.84,1.38c-1.21-0.08-2.41-0.16-3.62-0.17c0.38,0.2,0.75,0.41,1.13,0.62c-1.59-0.82-3.18-1.62-4.78-2.42
		c0.77-0.07,1.55-0.15,2.32-0.23c-5.47-0.22-11.32,0.15-16.75,0.17c0.34-0.06,0.68-0.1,1.03-0.15c-1.26-0.34-2.26-0.21-3.39,0.45
		c-0.19-0.5-0.38-1.02-0.57-1.51c0.8,2.61-2.33,2.05-3.08,0.28c-0.11,0.66-0.35,1.17-0.87,1.62c-0.37-0.64-0.8-1.16-1.4-1.59
		c0.37,3.93-5.62,0.8-6.97,1.13c0.23,0.65,0.54,1.23,0.95,1.8c-0.1,1.32,0.54,2.11,1.89,2.36c-0.77,0.38-1.39,0.37-2.15-0.02
		c0.17,0.41,0.34,0.82,0.51,1.23c-1.51-0.28-2.32-1.04-2.96-2.42c0.31-0.15,0.62-0.3,0.93-0.45c-0.24-0.61-0.56-1.08-1.06-1.5
		c0.12-0.28,0.24-0.56,0.36-0.84c-0.74-0.3-1.43-0.44-2.23-0.41c0.29,1.76,0.35,3.49,0.25,5.26c0.81,0.23-3.56,1.43-3.14,1.38
		C84.18,92.55,84.73,93.3,84.78,94.3z"/>
	<path class="st4" d="M97.01,75.64c1,2.16,1.63,4.31,1.81,6.7c0.46-0.51,0.93-1.02,1.37-1.53c-0.06,2.5,1.29,10.31,2.57,3.23
		c0.55,0.94,1.18,1.5,2.24,1.78c-0.14-1.35-0.27-2.7-0.41-4.05c0.29,0.27,0.57,0.53,0.86,0.8c-0.21-0.93-0.42-1.86-0.63-2.79
		c0.28,0.18,0.55,0.35,0.83,0.53c-0.17-0.36-0.33-0.72-0.5-1.07c0.22,0.28,0.44,0.57,0.66,0.85c-0.14-0.39-0.28-0.78-0.43-1.17
		c0.2,0.39,0.48,0.51,0.9,0.41c-1.42-1.82-2.24-3.66-2.67-5.93c1.83,2.71,3.1,5.48,3.97,8.64c0.81-0.8,1.15-1.59,1.15-2.73
		c0.75,1.47,1.26,2.95,1.58,4.56c0.29-1.8,0.32-3.53,0.06-5.34c0.56,1.66,1.22,3.25,2.01,4.8c-0.03-2.25-0.45-4.26-1.32-6.34
		c0.75,0.78,1.5,1.56,2.26,2.33c-0.27-0.82-0.54-1.63-0.82-2.45c0.76,0.39,1.54,0.68,2.37,0.91c-0.05-0.51-0.23-0.87-0.59-1.23
		c0.84,0.35,1.68,0.69,2.53,1.03c-0.02-0.31-0.05-0.62-0.07-0.92c1.83,0.91,3.69,1.68,5.64,2.31c-0.93-1.14-1.85-2.28-2.77-3.43
		c2.56,1.48,4.96,1.93,7.89,1.75c-0.95-0.07-1.9-0.07-2.85-0.09c2.71,0.72,4.96,1.92,7.18,3.61c-1.63-0.87-3.3-1.6-5.05-2.21
		c4.85,3.33,9.38,6.95,13.68,10.96c-1.66-2.01-3.49-3.58-5.75-4.89c1.96,1.97,3.68,3.96,4.99,6.42c-1.63-1.95-3.4-3.67-5.41-5.23
		c0.97,1.04,1.95,2.07,2.92,3.11c-2.32-1.81-4.74-3.38-7.34-4.75c0.91,1.05,1.82,2.09,2.73,3.14c-1.55-1.08-3.15-1.84-4.96-2.36
		c1.9,1.82,3.81,3.64,5.71,5.45c-1.57-1.49-3.2-2.91-4.9-4.25c0.3,0.64,0.61,1.27,0.91,1.91c-0.62-0.6-1.28-1.04-2.07-1.37
		c0.61,0.95,1.26,1.85,1.98,2.71c-2.89-3.23-6.46-5.28-10.01-7.67c0.38-0.14,0.68-0.12,1.01,0.13c-1.16-0.96-2.38-1.78-3.7-2.5
		c0.53,0.65,0.94,1.33,1.27,2.11c-0.82-0.41-1.65-0.81-2.47-1.23c0.13,0.45,0.27,0.9,0.4,1.35c-0.42-0.12-0.85-0.24-1.27-0.36
		c0.03,0.32,0.06,0.65,0.1,0.97c-1.62,0.39-2.45,1.24-2.8,2.87c-0.83-0.28-1.6-0.62-2.34-1.08c0.27,0.63,0.54,1.26,0.82,1.9
		c-0.66-0.76-1.36-1.48-2.11-2.15c-4.21,3.52-7.09,5.23-12.16,2.59c1.06-1.28,0.95-2.48-0.33-3.59c0.35,0.4,0.74,0.71,1.12,1.1
		C96.67,81.33,97.59,78.81,97.01,75.64z"/>
	<path class="st5" d="M15.58,2.27C31.39-9.1,43.78,25.42,43.03,35.86c-0.51,7.12-4.32,13.26-5.23,20.31
		c-0.12,0.91,0.4,20.11,4.69,17.4c3.33-2.11,2.9-10.02,7.2-13.13c3.35-2.42,8.29-2.9,12.21-3.27c10.67-1.02,20.73,3.23,31.28,2.76
		c-0.2,1.19-0.6,2.12-1.37,3.05c3.94,0.52,15.21,7.34,16.6,7.06c0.97,0.04,1.93,0.05,2.91,0.1c2.83,4.35,11,7.13,16.06,6.68
		c-0.93,0.71-1.83,1.08-3,1.16c0.8,0.48,1.51,1.02,2.18,1.68c-1.98-0.62-3.71-1.47-5.36-2.72c0.06,0.57,0.11,1.14,0.17,1.71
		c-1.59-0.55-3.11-1.21-4.6-1.97c0.03,0.7,0.19,1.3,0.52,1.92c-1.1-0.24-2.04-0.64-2.96-1.28c-0.4,0.39-0.83,0.71-1.31,0.99
		c-0.65-0.35-1.3-0.71-1.95-1.07c0.82,2.04,1.28,4.04,1.42,6.23c-0.51-1.38-1.16-2.61-2.04-3.79c0.08,1.39-0.17,2.55-0.82,3.79
		c-0.07-0.8-0.29-1.45-0.74-2.11c0.12,0.56-0.05,0.92-0.56,1.19c-1.35-3.85-3.18-7.18-5.74-10.37c0.47,2.33,1.43,4.43,2.88,6.31
		c-0.79-0.03-1.5-0.19-2.23-0.5c0.08,3.51-0.78,6.22-2.85,9.06c0.23-1.06,0.28-2.08,0.16-3.16c-0.3,0.07-0.6,0.14-0.89,0.2
		c-0.2-0.56-0.32-1.11-0.34-1.71c-0.38,0.76-0.83,1.4-1.42,2.01c0.31-0.76,0.62-1.53,0.94-2.29c-0.41,0.16-0.82,0.32-1.24,0.48
		c0.21-0.58,0.41-1.16,0.61-1.75c-0.13,0.3-0.31,0.44-0.64,0.45c0.19-1.41-0.07-2.49-0.86-3.68c-0.6,1.75-0.32,3.07,0.86,4.5
		c-0.54,0.41-1,0.29-1.39-0.24c0.03,0.52,0.16,0.96,0.43,1.41c-1.08-0.43-1.76-1.07-2.35-2.08c-0.04,0.48-0.09,0.96-0.14,1.43
		c-0.35-0.21-0.7-0.42-1.04-0.64c0.97,1.27,2.01,1.94,3.58,2.21c-0.23,0.66-0.65,0.92-1.34,0.72c0.36,0.3,0.71,0.61,1.07,0.91
		c-1.79,0.42-3.05,0.05-4.41-1.17c-0.04,0.38-0.07,0.76-0.11,1.14c-0.86-0.63-1.73-1.26-2.59-1.9c0.35,2.18,1.23,3.58,3.17,4.66
		c-0.31,0.41-0.65,0.68-1.11,0.89c0.29,0.23,0.59,0.46,0.87,0.7c-0.66,1.67-11.32,2.16-11.75,1.54c-0.18,0.34-0.15,0.63,0.1,0.92
		c-0.69-0.07-1.28-0.27-1.88-0.63c0.07,0.58-0.18,0.99-0.8,0.95c0.23,0.31,0.5,0.58,0.72,0.89c-0.91,0.13-1.74,0.09-2.63-0.14
		c0.13,0.31,0.26,0.63,0.38,0.94c-0.81-0.02-1.63-0.05-2.43-0.08c0.02,0.02-10.69,0.45-13.76-1.13c-2.69-1.38-4.91-4.7-7.24-5.83
		c-5.28-2.56-9.83-1.93-14.88-6.7c-9.76-9.21-8.67-19.33-4.74-30.99c5.01-14.87,3.78-23.96-5.2-37.08
		c-4.08,1.9-7.62,1.48-11.78,0.02c-0.03,0.06,4.21-7.24,4.2-5.92C20.55,2.54,18.34,5.33,15.58,2.27z"/>
	<path class="st6" d="M90.59,74.01c1.07,1.63,1.32,4.12,1.76,6.05c0.4-0.94,0.59-1.9,0.62-2.94c0.48,1.94,1.01,3.88,1.55,5.81
		c0.39-0.25,0.62-0.55,0.79-0.99c0.63,0.59,1.26,1.17,1.89,1.76c-0.05-2.83-0.49-5.51-1.2-8.24c1.13,1.04,1.73,2.13,1.95,3.65
		c-0.15-2.26-0.24-4.49-0.08-6.75c0.5,3.55,0.84,6.99,0.48,10.56c0.27-0.57,0.54-1.14,0.82-1.71c0.02,0.94-0.07,1.84-0.31,2.75
		c0.29-0.64,0.5-1.29,0.65-1.98c-0.07,1.6,0.28,3.07,1.04,4.41c2.96,0.93,1.78-9.07,1.67-9.95c0.57,0.48,1.15,0.96,1.72,1.44
		c-0.16-0.94-0.31-1.88-0.46-2.82c0.19,0.34,0.42,0.54,0.79,0.66c-0.4-1.91-1.06-3.61-2.03-5.3c2.14,3.61,3.83,7.31,5.13,11.3
		c0.23-0.46,0.46-0.91,0.69-1.36c0.78,0.99,1.56,1.98,2.35,2.98c0.03-0.58,0.06-1.16,0.09-1.74c0.21,0.84,0.55,1.54,1.08,2.22
		c-0.22-1.51-0.44-3.02-0.66-4.54c0.7,1.56,1.46,3.07,2.31,4.55c-0.17-2.5-0.77-4.68-1.92-6.91c0.69,0.52,1.41,0.93,2.2,1.26
		c-0.41-0.58-0.68-1.18-0.86-1.87c0.56-0.03,1.12-0.06,1.68-0.08c-2.27-2.33-4.7-4.34-7.43-6.1c0.77-0.08,1.44,0.04,2.11,0.37
		c-11.62-7.71-21.91-6.25-34.39-9.63C78.88,63.34,87.71,69.63,90.59,74.01z"/>
	<path class="st6" d="M48.09,69.56c0.61,3.7,6.07,9.62,8.09,12.37c2.17,2.95,3.12,7.96,8.09,8.05c-1.29-1.21-2.43-2.52-3.47-3.96
		c1.2,0.37,2.16,0.34,3.31-0.18c-0.8-0.26-1.58-0.53-2.36-0.83c0.89,0.08,1.44-0.23,2.01-0.9c-2.1,0.22-3.44-0.45-4.89-1.94
		c8.28-0.66,12.58-5.09,16.5-12.09c-2.63,2.42-7.8,8.33-11.76,8.84c3.38-2.74,6.11-5.67,8.24-9.49c-1.43,1.42-2.89,2.8-4.4,4.13
		c0.56-1.03,1.11-2.06,1.65-3.1c-2.47,2.94-4.96,4.55-8.81,4.99c2.65-1.38,4.21-3.22,5.5-5.89c-1.98,1.89-4.06,3.25-6.61,4.25
		c1.88-1.55,3.04-3.31,3.97-5.55c-0.69,0.56-1.38,1.13-2.07,1.69c0.62-0.88,1.24-1.75,1.85-2.63c-2.94,1.85-5.91,3.01-9.36,3.49
		c0.85-0.07,1.56-0.29,2.27-0.77c-0.93-0.39-1.55-0.94-2.11-1.78c0.45,0.06,0.91,0.06,1.37,0.07c-0.61-0.54-1.03-1.14-1.37-1.87
		c0.65,0.01,1.03-0.25,1.36-0.8c-1.46-1.2-1.26-2.15,0.6-2.87C53.52,57.67,47.62,66.69,48.09,69.56z"/>
	<path class="st7" d="M19.87,2.22c8.95-2.23-0.12,10.19-1.76,4.92c-0.46-1.47,4.11,0.64,3.02-2.24c-1.32-3.49-2.25,1.03-3.63,0.41
		C14.99,4.19,19.64,2.27,19.87,2.22z"/>
	<path class="st8" d="M7.31,23.04c4.07-9.5,15.34-13.55,23.68-6.16c14.27,12.65,0.39,31.57-0.35,45.89
		c-0.73,14.17,9.52,23.09,22.14,27.76c4.06,1.5,8.39,2.88,12.26,4.9c0.81,0.42,7.56,4.21,6.89,4.14c1.6,0.16,6.45-2.26,7.31-1.24
		c1.98-1.95,3.89-2.16,6.12-0.48c7.48,1.03,12.79-7.24,19.24-8.81c8.93-2.17,15.68,3.54,23.92,5.47c-0.7-1.05-1.47-2.01-2.32-2.93
		c0.7,0.34,1.35,0.49,2.13,0.46c-1.04-1.73-2.26-2.85-4.15-3.56c5.47,1.13,6.08,5.66,10.3,7.77c0.12-1.76-0.12-3.31-0.79-4.95
		c0.41-0.07,0.81-0.13,1.22-0.2c-1.71-1.86-3.51-3.57-5.45-5.18c3.06,0.65,5.74,1.98,8.05,4c-0.31-0.5-0.63-1.01-0.94-1.52
		c1.02,0.7,1.86,1.5,2.62,2.48c-0.22-0.62-0.43-1.24-0.65-1.86c1.26,0.76,2.34,1.65,3.34,2.74c-0.4-1.3-0.98-2.39-1.84-3.43
		c0.52,0.23,0.95,0.23,1.47,0c-0.84-0.97-1.76-1.76-2.85-2.43c-0.01,0.22-0.02,0.45-0.04,0.67c-2.14-2.05-4.42-3.77-6.98-5.27
		c0.82,0.42,1.64,0.84,2.47,1.26c-2.64-2.25-5.3-3.78-8.68-4.6c0.83-0.16,1.67-0.31,2.51-0.44c-5.63-1.92-11.33-3.64-16.94-5.62
		c-1.85,0.3-15.38-8.32-19.1-9.74c0.33-0.28,0.65-0.56,0.98-0.84c-1.75-0.33-3.25-0.17-4.92,0.42c-9.06-3.59-21-6.26-30.64-4
		c-3.95,0.93-8.01,2.19-10.7,5.43c-1.91,2.3-2.25,8.68-4.11,9.9c-1.36-0.1-2.37-0.76-3.02-1.99c-1.37-9.07-1.47-15.45,0.63-24.2
		c2.24-9.36,2.92-18.6-1.59-27.45c-2.44-4.79-9.18-16.82-14.71-18.7C16.71-1.67,2.93,8.39,1.25,14.72c0.98,0.45,1.41,1.16,1.28,2.11
		c1.98-6.48,7.96-8.2,13.99-8.76c-4.75,5.5-9.53,2.9-12.67,11.77C4.33,19.61,6.63,23.02,7.31,23.04z"/>
	<path class="st9" d="M24.56,14.01c2.61-0.46,4.73,0.35,6.35,2.44c-1.25-3.75-1.61-4.98-2.03-8.94c-3.14,5.09-10.9,3.15-12.27,5.02
		C15.07,14.62,24.22,14.06,24.56,14.01z"/>
	<path class="st10" d="M18.24,6.8c2.74,3.39,3.18-3.53,2.59-2.85C21.48,3.18,14.65,2.37,18.24,6.8z"/>
	<path class="st11" d="M19.91,4.28c-2.68-0.17,0.47,3.28,1.18,2.14c0.19-1.11-0.27-1.92-1.37-2.42"/>
	<path class="st12" d="M19.84,4.52c-2.38,4.2,3.85-1.05,0.06-0.04"/>
	<path class="st13" d="M20.18,4.92c0.82-0.06,0-0.07-0.01-0.07"/>
	<path class="st14" d="M18.12,11.94C16.47,13.53,7.87,22.86,6.49,23.14c-9.83,1.96,8.03-19.24,7.49-13.59
		c0.41-4.23-10.84,6.38-11.29,7.34c-0.64-0.44-0.57-1.05-0.43-1.75c-0.39-0.08-0.71-0.02-1.06,0.12c-0.28-5.84,16.6-17,20.06-10.75
		c-0.54-0.68-1.24-0.97-2.1-0.87C17.58,4.57,20.46,9.68,18.12,11.94z"/>
	<path class="st15" d="M20.06,7.34c-2.93,2.61-5.17,6.61-8.21,9.62c-1.55,1.53-8.06,14.21-8.47,14.28
		C-0.98,31.96-2.68,7.39,8.07,7.61C7.59,8.31,7.08,9,6.6,9.7C8.92,10.59,17.24,7.22,20.06,7.34z"/>
	<path class="st16" d="M0.55,25.87c-0.63,2.51,0.09,4.51,2.17,6.02c1.35-2.83,2.68-5.67,4.02-8.51c-12.1-5.24,7.06-13.33,9.33-14.76
		C9.73,9,5.82,11.39,2.61,16.87c-0.01-0.83-0.37-1.61-0.31-2.43C-0.45,14.6,0.64,24.21,0.55,25.87z"/>
	<path class="st17" d="M7.5,9.16c1.51-0.14,2.59-0.65,3.67-1.71C9.37,7.47,8.08,8.12,7.3,9.41"/>
	<path class="st18" d="M81.19,143.47c0.17-0.25,0.35-0.49,0.51-0.75c-2.73-12.32-3.69-24.15-5.02-36.79
		c0.02,0.2-0.14-12.16-4.76-6.71c-1.71,2.02,1.42,11.38,1.83,14.14c3.21,21.82,1.58,42.7,1.78,64.59c1.15-0.34,2.26-0.18,3.21,0.31
		C78.79,175.44,82.04,143.92,81.19,143.47z"/>
	<path class="st19" d="M104.16,143.64c-0.08,0.98,2.5-2.19,2.61-3.16C106.81,140.14,104.26,142.35,104.16,143.64z"/>
	<path class="st19" d="M95.03,164.59c3.84-6.84,15.1-18.92,14.67-26.91c-2.83,7.77-9.28,15.72-13.11,23.29"/>
	<path class="st19" d="M80.66,137.49c1.74,8.18-0.69,14.95-0.9,23.28c-0.22-1.26,0.06-12.71-0.94-12.04
		c-0.12-0.67,2.72-2.75,1.2-3.28c0.1-0.32,0.21-0.63,0.31-0.95c-0.75,0.15-1.28,0.46-1.77,1.03c0.51-0.86,1.11-1.48,1.96-2.01
		c-0.53-0.41-1-0.46-1.58-0.13c0.35-0.67,0.79-1.04,1.52-1.26c-0.04-0.57-0.23-0.96-0.66-1.35c2.18-2.84-2.78-10.73-0.78-14.8
		C80.42,129.11,79.94,134.14,80.66,137.49z"/>
	<path class="st20" d="M109,135.09c-3.4-7.18-23.32-43.07-29.28-37.21c0.07-0.03,0.15-0.08,0.22-0.12
		c8.6,10.18,23.52,28.68,22.3,42.74c-1.33,15.3-14.27,32.25-20.99,45.75c0.89,0.69,1.95,1.01,3.06,1.07
		c4.46-10.07,9.73-19.66,14.63-29.49C101.3,153.12,111.32,139.97,109,135.09z"/>
	<path class="st21" d="M104.51,137.84c-5.31,3.21,3.12,4.89,4.06,5.34c0.33-0.53,0.77-1.44,0.91-2.11c1.49,0.59,0.54-3.63,0.49-3.77
		c-0.95,0.44,0.72-2.45-1.04-1.77c-0.01-0.66-0.02-1.3-0.02-1.96c-0.19-0.01-0.38-0.03-0.57-0.05c2.29-3.25-5.72-0.02-4,2.31
		C104.08,136.45,103.45,137.79,104.51,137.84z"/>
	<path class="st22" d="M79.13,149.49c0.77-0.29,1.15-0.73,1.42-1.48c-0.35-0.01-0.7-0.02-1.04-0.01c0.68-0.9,1.15-1.9,1.4-3.01
		c-0.3-0.08-0.58-0.06-0.88,0c0.54-0.54,0.83-1.11,0.98-1.86c-0.33-0.02-0.62,0.03-0.93,0.15c0.23-0.49,0.27-0.91,0.14-1.43
		c-1.81,1.11-3.64,2.22-5.46,3.3c-0.1-0.18,1.12,1.82,0.72,1.81c-0.67,0.67-0.61,1.24,0.16,1.71
		C74.5,151.36,77.74,150.01,79.13,149.49z"/>
</g>
<path class="st23" d="M77.54,179.53c-1.29,0.05-2.58,0.11-3.86,0.16c0.88,0.87,2.15,1.18,3.26,0.79c-0.02,0.98-3.14,1.17-2.6,2.52
	c2.03-1,4.27-1.43,6.47-1.23c0.41-1.43-2.82-0.95-3.01-1.16c0.55-0.33,1.09-0.65,1.64-0.98c-0.91-0.03-1.81-0.06-2.72-0.09"/>
<path class="st23" d="M82.6,190.5c1.63,0.14,3.26,0.27,4.89,0.41c-1.02-0.94-2.59-1.41-4.03-1.21c0.18-1.22,4.15-0.48,3.55-1.97
	c-2.67,0.64-5.53,0.71-8.29,0.2c-0.6,1.12,3.88,1.74,3.67,1.52c-0.72,0.22-1.45,0.45-2.18,0.67c1.14,0.16,2.28,0.32,3.42,0.47"/>
</svg>
