<!-- Generator: Adobe Illustrator 23.0.4, SVG Export Plug-In  -->
<svg version="1.1" xmlns="http://www.w3.org/2000/svg" xmlns:xlink="http://www.w3.org/1999/xlink" x="0px" y="0px"
	 width="152.22px" height="211.22px" viewBox="0 0 152.22 211.22" style="enable-background:new 0 0 152.22 211.22;"
	 xml:space="preserve">
<style type="text/css">
	.st0{fill:#F4EAEA;}
	.st1{fill:#F99187;fill-opacity:0.68;}
	.st2{fill:#FC7070;fill-opacity:0.8;}
	.st3{fill:#FFD8D4;fill-opacity:0.95;}
	.st4{fill:#FFF2F0;fill-opacity:0.95;}
	.st5{fill:#F99187;}
	.st6{fill:#0A0404;fill-opacity:0.75;}
	.st7{fill:#F4E4E9;fill-opacity:0.95;}
	.st8{opacity:0.9;fill:#F9EFEF;}
	.st9{opacity:0.8;fill:#FCF1ED;}
	.st10{opacity:0.9;fill:#EABEBE;}
	.st11{opacity:0.9;fill:#352626;}
	.st12{opacity:0.8;fill:#EDB4B4;}
	.st13{opacity:0.8;fill:#352626;}
	.st14{fill:#FCE195;}
	.st15{fill:#0F0F0E;}
	.st16{fill:none;stroke:#0F0F0E;stroke-width:0.25;stroke-miterlimit:10;}
</style>
<defs>
</defs>
<g>
	<path class="st0" d="M73.63,116.22c0.04,5.3-3.18,29.8-1.44,34.79c0.95,2.74,2.78,5.25,2.15,8.09c-0.19,0.83-0.55,1.61-0.84,2.41
		c-0.82,2.31-0.93,4.81-0.91,7.26c0.04,7.66,1.2,15.28,1.02,22.94c-0.07,2.84-0.31,5.76,0.55,8.46c0.86,2.7,3.18,5.17,5.95,5.11
		c-1.79,0.35-3.58,0.69-5.36,1.04c-0.39,0.08-0.78,0.15-1.17,0.23c-0.34,0.46-0.67,0.93-1.01,1.39c0.04-0.46-0.07-0.93-0.32-1.32
		c-3.03,0.79-6.39,0.09-8.88-1.84c2.74,0.13,5.52-1.02,7.4-3.08c0.77-14.19,0.25-28.44-1.66-42.51c-0.22-1.63-0.46-3.26-0.56-4.91
		c-0.16-2.66,0.04-5.33,0.24-7.99c0.29-3.81,3.01-28.81,3.3-32.62C72.15,112.62,73.62,114.72,73.63,116.22z"/>
	<path class="st0" d="M79.71,140.15c-0.52,3.2-1.04,6.47-0.54,9.67c0.26,1.64,0.79,3.23,1.02,4.88c0.35,2.46,0.02,4.96-0.05,7.45
		c-0.08,2.71,0.13,5.41,0.33,8.11c0.43,5.62,0.87,11.24,1.3,16.85c0.3,3.93,0.05,8.11,0.57,12.01c0.25,1.84,0.57,3.71,1.47,5.31
		c0.9,1.6,2.51,2.91,4.32,2.95c-3.18-0.37-6.4-0.34-9.58,0.1c1.63-1.25,1.76-3.67,1.71-5.76c-0.33-14.82-1.86-29.6-4.56-44.16
		c-0.26-1.38-0.53-2.78-0.48-4.19c0.05-1.5,0.44-2.97,0.77-4.43c0.77-3.47,1.12-7.04,1.07-10.6c-0.03-1.74,1.84-21.96,2.79-23.4
		c0.48-0.72,2.1,1.56,2.49,3.13C82.72,119.66,79.92,138.86,79.71,140.15z"/>
	<path class="st1" d="M69.64,150.19c0.03-0.25-0.13-0.51-0.36-0.59c-0.51,0.27-0.45,1.19,0.09,1.39c-0.26,0.06-0.53,0.12-0.79,0.18
		c0.58,0.34,0.29,1.47-0.38,1.47c0.34-0.03,0.49,0.46,0.37,0.79c-0.12,0.33-0.39,0.59-0.46,0.93c-0.15,0.75,0.7,1.32,0.86,2.07
		c0.2,0.94-0.75,1.86-0.52,2.8c0.49,0.57,1.59-0.06,2.09,0.5c0.15,0.17,0.2,0.42,0.34,0.6c0.44,0.59,1.58,0.35,1.84,1.04
		c-0.17-0.4,0.17-0.81,0.41-1.17c0.24-0.36,0.3-1-0.11-1.1c0.25,0.07,0.54-0.12,0.59-0.38c-0.58,0-1.16-0.17-1.64-0.5
		c-0.18-0.12-0.37-0.35-0.26-0.55c0.06-0.11,0.2-0.15,0.33-0.18c0.58-0.12,1.18-0.19,1.78-0.19c-0.34-0.4-0.79-0.71-1.28-0.9
		c0.34-0.04,0.68-0.09,1.03-0.13c-0.11-0.3-0.33-0.57-0.6-0.74c0.28-0.16,0.57-0.33,0.85-0.49c-0.32-0.57-1.06-0.84-1.66-0.62
		c0.12-0.6,1.4-0.53,1.23-1.11c-0.08-0.29-0.47-0.3-0.72-0.45c-0.9-0.55,0.11-1.92-0.48-2.56C71.84,149.96,69.66,150,69.64,150.19z"
		/>
	<path class="st1" d="M76.32,150.32c-0.37,0.53-0.38,1.29-0.03,1.84c-0.27,0.02-0.54,0.05-0.81,0.07c0.24,0.05,0.4,0.35,0.3,0.58
		c-0.31,0.07-0.59,0.23-0.82,0.45c0.48,0.54,0.07,1.42,0.27,2.12c0.11,0.39,0.42,0.7,0.5,1.09c0.06,0.27,0.01,0.55-0.03,0.82
		c-0.19,1.37-0.05,2.78,0.41,4.08c1.28-0.63,3.03,1.24,4.07,0.25c-0.91-0.09-1.77-0.55-2.36-1.25c0.65,0.04,1.31,0.08,1.96,0.12
		c-0.47-0.26-0.95-0.52-1.42-0.77c0.55-0.03,1.09-0.06,1.64-0.09c-0.87-0.44-1.59-1.17-2.03-2.05c0.85,0.21,1.71,0.37,2.57,0.47
		c-0.41-0.41-0.82-0.83-1.22-1.24c0.57,0.16,1.23-0.06,1.59-0.53c-0.65-0.27-1.22-0.71-1.63-1.28c0.61,0.03,1.22-0.09,1.77-0.33
		c-0.46-0.47-0.93-0.94-1.39-1.41c1.88-0.34-0.86-1.5-0.9-1.53C78.62,151.66,75.75,151.15,76.32,150.32z"/>
	<path class="st2" d="M74.84,201.69c-0.48-0.77-0.67-1.68-0.84-2.57c-0.39,0.37-0.26,1.01-0.23,1.55c0.03,0.54-0.29,1.26-0.81,1.12
		c-0.09-0.25-0.17-0.5-0.26-0.74c0.13,0.39-0.04,0.86-0.38,1.08c-0.47-1.04-0.8-2.15-0.97-3.28c-0.01,1.32-0.05,2.73-0.81,3.8
		c-0.65,0.9-1.73,1.39-2.81,1.54c-1.08,0.15-2.18,0.01-3.26-0.14c1.07,0.19,2.13,0.38,3.2,0.56c0.31,0.05,0.65,0.12,0.86,0.37
		c0.21,0.24,0.17,0.72-0.14,0.8c0.68-0.08,1.38,0.09,1.94,0.49c0.12,0.09,0.26,0.19,0.4,0.17c0.21-0.03,0.3-0.27,0.36-0.47
		c0.13-0.44,0.26-0.89,0.4-1.33c0.34-0.28,0.81,0.19,0.9,0.63s0.09,0.98,0.47,1.21c0.05-0.56,0.1-1.12,0.14-1.69
		c0.45,1.07,1.93,1.02,3.05,0.8c1-0.2,2.03-0.36,2.99-0.68C78.67,203.31,75.79,203.34,74.84,201.69z"/>
	<path class="st2" d="M82.56,203.12c-0.17,0.37-0.54,0.63-0.93,0.67c-0.66-2.36-1.19-4.76-1.59-7.18c-0.25,3.13-0.68,6.24-1.3,9.32
		c-0.12,0.61-0.23,1.31,0.14,1.8c0.58,0.76,1.79,0.44,2.69,0.77c0.37,0.14,0.68,0.39,1.02,0.57c1.3,0.7,2.87,0.43,4.35,0.39
		c2.85-0.08,5.64,0.77,8.38,1.6c0.04-0.37,0.07-0.75,0.11-1.12c-2.1-0.37-4.2-0.74-6.3-1.1c-1.14-0.2-2.43-0.5-3.02-1.5
		c1.08-0.43,2.29-0.04,3.41,0.28c2.92,0.82,6,1.09,9.02,0.79c-3.13-0.93-6.33-1.62-9.56-2.06c-1.68-0.23-3.32-0.48-4.76-1.45
		c0.05,0.59-0.15,0.99-0.19,1.44C83.93,206.09,82.58,203.07,82.56,203.12z"/>
	<path class="st1" d="M95.61,210.85c-1.58-1-3.37-1.66-5.21-1.94c-1.92-0.28-4.04-0.2-5.55-1.41c-0.52-0.42-1.14-1.01-1.75-0.72
		c-0.64,0.31-0.66,1.41-1.34,1.57c-0.21-0.23-0.41-0.46-0.62-0.69c-0.57,0.44-1.23,0.78-1.92,0.99c-0.01-0.31-0.13-0.62-0.33-0.86
		c-1.07,0.63-2.44,0.73-3.58,0.24c1.25-0.07,2.72-0.28,3.3-1.39c0.17-0.33,0.24-0.7,0.31-1.06c0.4-2.19,0.8-4.38,1.2-6.57
		c0.36,2.25,1.4,4.38,2.93,6.05c0.15-0.21,0.31-0.42,0.46-0.63c0.31,1.29,1.62,2.06,2.85,2.53c3.8,1.46,7.73,1.34,11.71,1.43
		C97.64,208.5,94.5,210.15,95.61,210.85z"/>
	<path class="st3" d="M125.73,23.15c-1.67,4.28,0.73,8.94,2.79,13.04c27.05,53.64-45.13,87.1-40.9,80.95
		c9.17-13.31,34.61-57.79,26.81-71.43c-4.1-7.16-4.84-16.02-4.17-24.25c0.67-8.23,4.87-16.64,12.29-20.16
		c1.49-0.71,3.1-1.21,4.75-1.19c1.89,0.03,3.71,0.74,5.36,1.67c3.23,1.82,5.97,4.52,7.85,7.74c0.91,1.56,1.15,4.24-0.62,4.54
		c-1.24,0.21-2.14-1.1-3.14-1.87c-1-0.77-3.11-0.26-2.62,0.91c1.32,3.12,8.04,5.35,5.96,10.57
		C138.64,27.33,129.14,24.07,125.73,23.15z"/>
	<path class="st4" d="M114.44,98.5c-7.34,10.37-18.55,19.59-32.1,19.71c-1.58-0.82-3.15-1.64-4.73-2.47
		c-3.22,0.53-6.62,0.29-9.78-0.71c-1.49-0.47-3.06-1.22-3.68-2.58s0.43-3.26,1.97-2.98c-2.55-0.4-5.1-0.8-7.65-1.2
		c1.05-0.88,1.83-2.03,2.22-3.31c-1.17,0.22-2.44,0.05-3.53-0.47c0.83-0.57,1.66-1.14,2.49-1.71c-2.7,1.19-6.16,0.78-8.59-1
		c-0.79-0.58-1.48-1.29-2.3-1.84c-2.24-1.49-5.23-1.56-7.77-0.8c-2.53,0.76-4.71,2.24-6.84,3.7c0.43-1.65,0.86-3.29,1.3-4.94
		c-6.07,2.65-12.15,5.3-18.22,7.95c0.39-1.51,0.77-3.01,1.16-4.52c-2.02,1.26-4.04,2.52-6.06,3.78c1.3-2.48,2.6-4.96,3.9-7.43
		c0.44-0.83,0.9-1.69,1.7-2.22c0.64-0.42,1.42-0.59,2.19-0.74c5.64-1.11,11.46-1.56,17.28-1.34c-0.56-0.82-0.82-1.8-0.72-2.74
		c1.07,0.38,2.14,0.76,3.21,1.13c-0.58-0.61-0.86-1.46-0.74-2.24c1.34,0.85,2.68,1.7,4.02,2.55c-0.54-1.23-0.7-2.6-0.46-3.88
		c4.25,3.71,9.91,5.96,15.6,6.22c0.95-2.67,1.9-5.33,2.85-8c-1.2,0.9-2.39,1.8-3.59,2.69c0.45-1.41,0.9-2.81,1.35-4.22
		c-1.93,1.06-3.37,2.86-3.92,4.91c0.62-0.66-1.23-1.08-1.66-0.3c-0.43,0.78-0.4,1.95-1.29,2.23c-0.14-0.78-0.27-1.57-0.41-2.35
		c-0.38,1.27-0.77,2.54-1.15,3.81c-1.8-1.11-2.62-3.44-1.86-5.26c-0.98,0.74-2.15,1.26-3.4,1.5c-0.58-4.95,1.16-10.02,4.67-13.61
		c-2.57-0.26-5.02,1.03-6.67,2.81c-1.65,1.78-2.63,4.02-3.58,6.21c-0.42-2.18-0.36-4.42,0.16-6.54c-2.13,1.98-3.79,4.41-4.82,7.08
		c-0.82-1.5-1.03-3.26-0.58-4.84c-1.17,1.25-2.33,2.5-3.5,3.75c0.98-3.14,2.58-6.08,4.69-8.65c-4.6,1.49-8.67,4.26-11.58,7.87
		c4.18-17.12,57.06-41.56,77.28-28.71c11.32,7.19,19.65,10.3,20.59,21.9C122.55,84.72,118.99,92.08,114.44,98.5z"/>
	<path class="st5" d="M89.18,57.43c-2.83,2.22-5.19,5.04-6.9,8.22c1.88-0.15,3.73-0.63,5.45-1.41c-0.05,0.86,0.04,1.73,0.27,2.57
		c2.96-2.22,6.72-3.34,10.4-3.1c-0.24-1.14-1.31-2.04-2.46-2.08c1.04-1.29,1.78-2.81,2.16-4.43c-2.39,1.74-4.78,3.48-7.17,5.22
		c-0.54,0.39-1.31,0.78-1.8,0.33c-0.38-0.35-0.3-0.96-0.18-1.47c0.22-0.98,0.44-1.96,0.66-2.94"/>
	<path class="st5" d="M77.32,72.06c-2.68,2.44-5.05,5.24-7.02,8.29c-0.53-2.2,0.36-4.47,1.23-6.55c-1.53,1.22-3.06,2.44-4.59,3.66
		c1.9-4.02,4.06-8.31,8.01-10.3c-0.42,1.52-0.84,3.04-1.25,4.56c1.96,0.88,3.88-1.83,5.91-1.39c0.47,0.53,0.84,1.18,1.42,1.76
		c-1.05,1.36-2.8,2.59-4.14,3.81C76.93,75.18,76.8,72.53,77.32,72.06z"/>
	<path class="st5" d="M90.38,71.03c-2.71-0.15-5.4,1.81-6.1,4.46c1.85-1.79,3.98-3.28,6.29-4.41"/>
	<path class="st5" d="M64.41,66.68c0.33-1.05,1.09-1.9,1.82-2.72c2.22-2.46,4.48-4.95,7.29-6.7c2.42-1.51,5.46-2.52,8.31-1.98
		C75.59,58.82,69.53,61.13,64.41,66.68z"/>
	<path class="st1" d="M94.83,111.72c3.58-3.35,6.94-6.95,10.05-10.74c-1.04,0.54-2.31,0.59-3.38,0.14
		c3.54-2.55,7.08-5.09,10.61-7.64c-0.35,0.87-0.69,1.73-1.04,2.6c3.61-2.04,6.94-4.6,9.84-7.59c-0.26,0.65-0.35,1.37-0.26,2.07
		c1.34-1,2.02-2.08,3.36-3.08c-2.81,4.04-5.92,7.87-9.3,11.44c0-0.91,0.19-1.82,0.54-2.66c-3.08,3.48-6.15,6.96-9.23,10.44
		c0.41-1.17-0.62-1.27-0.22-2.44c-1.57,2.05-3.6,3.74-5.89,4.91"/>
	<path class="st6" d="M60.35,103.03c-0.11-0.03-0.23-0.06-0.34-0.09c-2.45-0.64-4.95,1.11-7.48,1.33c-1.64,0.15-3.44,0.17-4.75-0.84
		c-0.67-0.52-1.16-1.28-1.93-1.63c-0.9-0.41-1.95-0.16-2.89,0.16c-2.06,0.71-4.02,1.75-5.77,3.07c0.53-1.18,1.06-2.35,1.58-3.53
		c-1.81-0.51-3.61-1.02-5.42-1.54c0.97-0.48,1.8-1.23,2.39-2.14c-1-0.34-1.95-0.84-2.79-1.49c7.65-0.78,15.56-1.01,22.83,1.51
		c2.65,0.92,5.28,2.2,8.07,2.09c-1.55,0.51-3.15,0.86-4.77,1.07C59.65,101.53,59.8,102.5,60.35,103.03z"/>
	<path class="st1" d="M68,97.65c-0.95,1.84-1.87,3.89-3.67,4.88c0.16-1.59,0.33-3.17,0.49-4.76c-2.18,1.28-4.02,3.15-5.25,5.37
		c0.06-2.15,0.67-4.29,1.77-6.14c-1.42,1.84-3.06,3.58-5.15,4.56c-2.09,0.98-4.71,1.09-6.61-0.23c1.63,0.23,3.36-0.64,4.15-2.1
		c-1.98,1.02-4.29,1.37-6.47,0.98c0.97-0.27,1.82-0.94,2.32-1.81c-2.11,0.46-4.19,1.06-6.22,1.78c0.3-1.15,0.86-2.22,1.63-3.12
		c-1.86,0.43-3.6,1.4-4.94,2.77c0.87-1.88,0.73-4.06,0.82-6.13c0.09-2.08,0.57-4.36,2.23-5.59c-0.47,1.02-0.38,2.27,0.23,3.21
		c2.87-0.96,5.4-2.9,7.07-5.44c-0.31,1.22-0.33,2.51-0.06,3.73c2.12-2.22,4.99-3.7,8.02-4.15c-1.7,0.38-2.52,2.31-2.91,4.01
		c-0.08,0.36-0.16,0.74-0.03,1.09c0.39,1.12,2.06,0.72,3.05,0.08c1.58-1,3.13-2.07,4.62-3.2c-1.23,1.66-2.04,3.65-2.33,5.7
		c2.99-1.49,6.41-2.1,9.72-1.73c-1.67,0.53-3.12,1.75-3.94,3.31c1.43-0.82,3.17-1.48,4.83-1.47C70.65,94.79,68.87,95.97,68,97.65z"
		/>
	<path class="st7" d="M59.74,113.89c0.2-0.32,0.41-0.63,0.61-0.95c-1.39-0.23-2.75-0.63-4.04-1.19c0.11-0.8-0.88-1.24-1.65-1.46
		s-1.72-0.86-1.4-1.6c-0.44-0.06-0.87-0.12-1.31-0.17c0.06-0.34,0.11-0.68,0.17-1.02c-0.78,0.19-1.66-0.2-2.06-0.9
		c-0.59,0.03-1.19,0.07-1.78,0.1c-0.3-0.71-0.6-1.42-0.89-2.13c-0.17-0.39-0.36-0.82-0.73-1.02c-0.52-0.28-1.19-0.01-1.74-0.23
		c-0.48-0.19-0.75-0.71-1.12-1.07c-1.34-1.31-4.19-0.9-4.64-2.72c3.95,0.96,8.11,1.01,12.08,0.16c-0.18,0.4-0.36,0.8-0.54,1.2
		c0.64-0.05,1.28-0.1,1.92-0.15c0.06,0.41,0.48,0.65,0.85,0.84c0.95,0.48,1.93,0.97,2.98,1.08c1.28,0.13,2.54-0.29,3.76-0.71
		c-0.25,0.61-0.65,1.17-1.15,1.59c0.5-0.23,1.03-0.47,1.58-0.43c0.55,0.04,1.12,0.45,1.12,1.01c0.34-0.02,0.69-0.04,1.03-0.06
		c0,0.7-0.21,1.4-0.6,1.99c1.61-0.17,3.2-0.52,4.73-1.04c-0.68,0.6-1.37,1.2-2.05,1.8c1.45-0.71,2.64,2.65,4.04,1.86
		c-0.06,0.32-0.12,0.64-0.18,0.97c0.49,0.22,1.05,0.31,1.58,0.26c-0.15,0.39-0.29,0.78-0.44,1.18c0.59,0.02,1.14,0,1.65,0.2
		C68.74,114.23,63.46,114.88,59.74,113.89z"/>
	<path class="st2" d="M60.92,94.96c-0.4,0.19-0.9,0.38-1.28,0.13c-0.42-0.28-0.39-0.9-0.3-1.4c0.73-3.96,2.31-7.77,4.59-11.08
		c-4.68,0.37-6.86,6.58-11.37,7.89c-0.66,0.19-1.43,0.24-1.96-0.19c-0.66-0.54-0.63-1.56-0.5-2.41c0.58-3.81,1.93-7.5,3.96-10.77
		c-2.27,0.95-4.36,2.34-6.13,4.06c2.09-3.06,4.38-5.98,6.85-8.75c-5.52,2.05-10.41,5.8-13.84,10.61c0.2-2.84,0.96-5.64,2.24-8.18
		c-3.49,2.52-6.74,5.38-9.69,8.52c0.47-3.93,1.79-7.76,3.84-11.13C23.29,81.7,10.94,93.67,1.03,107.43
		c2.52-2.67,5.24-5.14,8.14-7.39c-3.03,3.42-5.42,7.41-7,11.71c3.92-5.49,8.75-10.33,14.23-14.23c2.08-1.48,4.33-2.86,6.83-3.32
		c2.85-0.52,5.76,0.19,8.64,0.5c4.76,0.51,9.63-0.11,14.11-1.8c-1.19-0.39-2.38-0.78-3.56-1.16c6.67,1.77,13.33,3.63,20.03,5.32
		c6.84,1.73,4.93-0.96,6.95-6.09C66.53,92.17,63.73,93.62,60.92,94.96z"/>
	<path class="st7" d="M140.34,25.85c-0.55-0.44-1.16-0.87-1.4-1.53c-0.13-0.36-0.14-0.74-0.2-1.12c-0.11-0.71-0.39-1.38-0.67-2.03
		c-0.84-1.98-1.74-4.04-3.34-5.47c-0.7-0.62-1.52-1.12-2.09-1.86s-0.83-1.86-0.27-2.61c0.57-0.76,1.73-0.8,2.59-0.42
		c0.86,0.38,1.54,1.09,2.29,1.66c0.2,0.15,0.41,0.3,0.66,0.32c0.23,0.03,0.47-0.06,0.69-0.14c0.83-0.31,1.73-0.67,2.16-1.45
		c-0.2,0.48-0.01,1.04,0.31,1.44s0.76,0.69,1.17,1c0.72,0.56,1.34,1.22,2.02,1.83c1.45,1.29,3.14,2.29,4.58,3.59s2.69,3,2.81,4.95
		c0.08,1.21-0.29,2.41-0.49,3.61c-0.32,1.96-0.19,3.95-0.33,5.93s-0.59,4.02-1.86,5.54c-0.04,0.05-0.09,0.1-0.15,0.14
		c-0.12,0.07-0.28,0.04-0.41-0.01c-0.52-0.21-0.8-0.8-0.88-1.36c-0.07-0.56,0.01-1.14-0.03-1.7c-0.16-2.12-1.85-3.22-2.93-4.82
		C143.23,29.32,142.28,27.4,140.34,25.85z"/>
	<path class="st8" d="M146.94,21.25c-0.12-0.14-0.33-0.21-0.51-0.16c0.13,0.35-0.1,0.74-0.41,0.96c-0.3,0.22-0.67,0.33-0.98,0.55
		c-0.54,0.37-0.83,0.99-1.11,1.58c-0.43,0.93-0.87,1.88-1.01,2.9c-0.48,0-0.89-0.35-1.18-0.73c-0.29-0.38-0.51-0.83-0.86-1.16
		c-0.67-0.64-1.73-0.77-2.33-1.47c-0.72-0.84-0.58-2.25-1.41-2.97c-0.22-0.19-0.51-0.35-0.55-0.64c-0.06-0.47,0.59-0.66,1.06-0.67
		c0.3-0.81-0.2-1.68-0.68-2.4c-0.41-0.61-0.82-1.22-1.22-1.83c-0.41-0.62-0.94-1.3-1.68-1.31c-0.27,0-0.53,0.08-0.8,0.1
		c-1.05,0.08-1.97-1.15-1.59-2.15s1.87-1.3,2.61-0.54c0.28,0.29,0.43,0.67,0.61,1.02c0.59,1.14,1.67,2.17,2.95,2.13
		c1.25-0.04,2.31-1.19,2.47-2.44c2.36,2.15,4.9,4.08,7.6,5.77c0.68,0.43,2.7,1.6,1.62,2.56C149.47,20.43,146.49,20.73,146.94,21.25z
		"/>
	<path class="st9" d="M140.34,22.74c-0.4-0.75-0.81-1.51-1.21-2.26c-1.28-2.38-2.76-4.95-5.27-5.89c-0.26-0.1-0.54-0.18-0.76-0.35
		c-0.73-0.58-0.36-1.91,0.49-2.29c0.85-0.38,1.87-0.03,2.61,0.53s1.31,1.33,2.01,1.95c0.7,0.62,1.63,1.1,2.54,0.91
		c0.91-0.19,1.62-1.31,1.14-2.11c2.74,2.08,5.48,4.16,8.22,6.25c0.91,0.69,1.93,1.67,1.65,2.78c-0.76-0.37-1.66-0.43-2.46-0.17
		c-0.27,0.09-0.54,0.21-0.83,0.17c-0.22-0.03-0.41-0.16-0.6-0.28c-0.74-0.49-1.47-0.98-2.21-1.47c0.6,0.66,1.21,1.32,1.81,1.98
		c-1.22,0.91-2.16,2.2-2.7,3.62c-0.38,1-0.18,3.16-0.97,3.77C142.61,27.63,141.59,25.07,140.34,22.74z"/>
	<path class="st10" d="M146.26,17.16c-1.21-0.92-2.6-1.67-3.48-2.92c-0.27-0.39-0.66-0.89-1.1-0.71c-0.27,0.11-0.39,0.45-0.33,0.74
		c0.06,0.29,0.26,0.53,0.47,0.74c0.52,0.52,1.14,0.95,1.81,1.24c0.31,0.13,0.64,0.25,0.85,0.52c0.13,0.17,0.19,0.38,0.3,0.57
		c0.14,0.23,0.34,0.4,0.54,0.57c0.42,0.35,2.26,2.38,2.72,1.55C148.41,18.77,146.65,17.51,146.26,17.16z"/>
	<path class="st11" d="M151.05,20.28c1.02,1.95,1.13,4.26,0.99,6.46s-0.49,4.4-0.32,6.6c0.13,1.66-0.21,3.46-1.14,4.83
		c-0.45,0.66-0.58,1.43-0.95,2.14c-0.2,0.38-0.6,0.82-0.96,0.6c-0.17-0.11-0.23-0.32-0.32-0.5c-0.37-0.69-1.36-0.92-1.59-1.66
		c-0.12-0.37-0.01-0.77,0.04-1.15c0.4-3.19-3.37-5.77-2.98-8.97c0.09-0.75,0.41-1.44,0.75-2.11c0.85-1.65,1.88-3.2,3.07-4.62
		c-0.73-0.91-1.84-1.5-2.99-1.61c-0.24-0.02-0.21-0.14-0.41-0.01c-1.55,1.06-2.99-0.81-4.05-2.36c1.42,0.73,3.06,0.84,4.62,1.17
		c1.56,0.33,3.2,1.02,3.94,2.44c0.04-0.5-0.16-1.02-0.53-1.36c0-0.26,0.43-0.23,0.58-0.01s0.19,0.51,0.41,0.64
		c0.16,0.09,0.35,0.07,0.53,0.04C150.21,20.75,150.6,20.46,151.05,20.28z"/>
	<path class="st12" d="M142.97,23.67c-0.37-0.16-0.68,0.37-0.65,0.78c0.03,0.41,0.16,0.88-0.11,1.18c-1.19-0.95-0.95-2.99-2.09-4.02
		c-0.47,0.77-0.45,1.74-0.41,2.64c0.01,0.25,0.02,0.5,0.14,0.72c0.07,0.12,0.17,0.23,0.27,0.33c0.83,0.86,1.66,1.72,2.49,2.58
		c0.2,0.21,0.46,0.43,0.74,0.36C144.66,27.87,143.59,23.94,142.97,23.67z"/>
	<path class="st13" d="M147.59,19.1c-0.5,0.28-1.1-0.1-1.55-0.46c-0.56-0.46-1.12-0.91-1.67-1.37c-0.3-0.25-0.68-0.51-1.05-0.39
		c-0.1,0.34,0.19,0.66,0.46,0.9c1.06,0.92,2.25,1.89,3.65,1.89c0.01-0.15,0.02-0.29,0.03-0.44"/>
	<path class="st14" d="M135.84,12.98c0.01,0.3-0.14,0.6-0.39,0.78c-0.27,0.2-0.67,0.22-0.95,0.03s-0.39-0.6-0.23-0.9
		c0.17-0.31,0.56-0.43,0.91-0.43c0.19,0,0.39,0.03,0.53,0.15c0.14,0.13,0.18,0.37,0.04,0.5"/>
	<path class="st15" d="M135.22,12.77c-0.04,0.14-0.09,0.3-0.22,0.37c-0.13,0.07-0.33-0.04-0.29-0.18c0.02-0.06,0.09-0.1,0.15-0.13
		c0.07-0.04,0.14-0.07,0.22-0.07c0.08,0.01,0.15,0.08,0.13,0.15"/>
	<g>
		<path class="st16" d="M87.54,207.33c0.19,0.02,0.39,0.04,0.58,0.06C87.93,207.39,87.74,207.37,87.54,207.33z"/>
		<path class="st16" d="M8.24,101.92c-3.03,3.42-5.42,7.41-7,11.71c3.87-5.43,8.63-10.2,14.03-14.08c-0.98,1.86-1.95,3.72-2.93,5.58
			c2.02-1.26,4.04-2.52,6.06-3.78c-0.39,1.51-0.77,3.01-1.16,4.52c6.07-2.65,12.15-5.3,18.22-7.95c-0.04,0.17-0.09,0.34-0.13,0.51
			c-0.54,0.64-1.21,1.18-1.96,1.55c0.48,0.14,0.96,0.27,1.44,0.41c-0.22,0.82-0.43,1.65-0.65,2.47c0.93-0.64,1.87-1.27,2.84-1.85
			c0.6,0.17,1.19,0.34,1.79,0.51c-0.53,1.18-1.06,2.35-1.58,3.53c1.75-1.32,3.7-2.35,5.77-3.07c0.1-0.03,0.2-0.07,0.3-0.1
			c0.19,0.11,0.37,0.24,0.53,0.39c0.37,0.37,0.64,0.88,1.12,1.07c0.55,0.22,1.22-0.05,1.74,0.23c0.38,0.2,0.57,0.62,0.73,1.02
			c0.3,0.71,0.6,1.42,0.89,2.13c0.59-0.03,1.19-0.07,1.78-0.1c0.39,0.71,1.28,1.09,2.06,0.9c-0.06,0.34-0.11,0.68-0.17,1.02
			c0.44,0.06,0.87,0.12,1.31,0.17c-0.32,0.75,0.63,1.38,1.4,1.6c0.77,0.22,1.76,0.66,1.65,1.46c1.29,0.56,2.66,0.96,4.04,1.19
			c-0.2,0.32-0.41,0.63-0.61,0.95c1.78,0.47,3.91,0.56,5.96,0.22c0.65,0.4,1.4,0.7,2.13,0.93c1.32,0.42,2.67,0.7,4.04,0.85
			c-0.71,7.3-2.84,27.04-3.1,30.39c-0.16,2.09-0.31,4.18-0.3,6.27c-0.08,0.05-0.18,0.08-0.28,0.08c0.12-0.01,0.21,0.05,0.28,0.13
			c0,0.27,0.01,0.53,0.02,0.8c-0.14,0.26-0.34,0.5-0.39,0.79c-0.1,0.51,0.26,0.94,0.55,1.4c0.06,0.55,0.12,1.1,0.2,1.66
			c-0.21,0.61-0.56,1.21-0.41,1.82c0.17,0.2,0.42,0.25,0.69,0.26c1.88,13.98,2.39,28.12,1.62,42.21c-1.06,1.16-2.4,2.03-3.86,2.55
			c-0.81,0.01-1.61-0.09-2.42-0.2c0.66,0.12,1.31,0.23,1.97,0.35c-1,0.3-2.05,0.44-3.09,0.39c2.49,1.93,5.85,2.63,8.88,1.84
			c0.25,0.38,0.37,0.86,0.32,1.32c0.34-0.46,0.67-0.93,1.01-1.39c0.39-0.08,0.78-0.15,1.17-0.23c1.36-0.26,2.72-0.53,4.08-0.79
			c-0.03,0.13-0.05,0.27-0.07,0.4c-0.04,0.2-0.08,0.4-0.1,0.6c-0.02,0.04-0.03,0.08-0.05,0.12c-0.58,1.12-2.05,1.32-3.3,1.39
			c1.14,0.49,2.51,0.4,3.58-0.24c0.2,0.24,0.32,0.55,0.33,0.86c0.33-0.1,0.65-0.23,0.96-0.39c0.47,0.05,0.98,0.06,1.42,0.22
			c0.37,0.14,0.68,0.39,1.02,0.57c1.3,0.7,2.87,0.43,4.35,0.39c2.85-0.08,5.64,0.77,8.38,1.6c0.01-0.12,0.02-0.24,0.03-0.36
			c0.08,0.05,0.16,0.1,0.24,0.15c-0.14-0.09-0.21-0.19-0.23-0.3c0.01-0.07,0.01-0.15,0.02-0.22c0.23-0.7,1.91-1.63,2.5-1.88
			c0.22-0.02,0.44-0.03,0.65-0.05c-3.13-0.93-6.33-1.62-9.56-2.06c-1.68-0.23-3.32-0.48-4.76-1.45c0.01,0.08,0.01,0.16,0.01,0.23
			c-0.16-0.22-0.3-0.44-0.44-0.67c-0.9-1.6-1.22-3.48-1.47-5.31c-0.52-3.9-0.27-8.08-0.57-12.01c-0.43-5.62-0.87-11.24-1.3-16.85
			c-0.21-2.7-0.42-5.41-0.33-8.11c0.01-0.17,0.01-0.33,0.02-0.5c0.01-0.01,0.02-0.01,0.02-0.02c-0.01,0-0.01,0-0.02,0
			c0.05-1.2,0.14-2.4,0.17-3.6c0.07,0.01,0.14,0.02,0.21,0.03c-0.07-0.07-0.14-0.14-0.2-0.21c0.01-0.38,0.01-0.75,0-1.12
			c0.22-0.1,0.42-0.25,0.57-0.44c-0.21-0.09-0.41-0.2-0.6-0.32c-0.02-0.34-0.05-0.69-0.09-1.03c0.29-0.06,0.57-0.14,0.84-0.26
			c-0.35-0.36-0.71-0.71-1.06-1.07c-0.03-0.13-0.06-0.26-0.08-0.4c0.77-0.23,0.32-0.66-0.23-0.99c-0.19-0.79-0.38-1.58-0.51-2.39
			c-0.51-3.2,0.02-6.47,0.54-9.67c0.21-1.27,2.89-19.65,2.65-21.94c1.75-0.02,3.47-0.19,5.14-0.49c0.32,0.42,2.26-0.08,5.19-1.41
			c4.41-1.6,8.47-4.11,12.09-7.17c17.9-12.76,40.99-38.75,23.75-72.95c-2.07-4.1-4.47-8.76-2.79-13.04
			c2.98,0.8,10.58,3.37,13.44,1.61c0.3,0.43,0.75,0.76,1.17,1.09c1.67,1.33,2.61,2.93,3.69,4.63c0.76,2.4,3.1,4.56,2.78,7.11
			c-0.05,0.38-0.16,0.78-0.04,1.15c0.23,0.75,1.22,0.97,1.59,1.66c0.09,0.18,0.15,0.39,0.32,0.5c0.36,0.23,0.76-0.22,0.96-0.6
			c0.37-0.71,0.5-1.47,0.95-2.14c0.93-1.37,1.27-3.17,1.14-4.83c-0.17-2.2,0.19-4.4,0.32-6.6c0.09-1.51,0.07-3.07-0.28-4.53
			c0.15-0.68-0.18-1.31-0.67-1.85c-0.01-0.03-0.03-0.06-0.04-0.09c-0.01,0-0.02,0.01-0.03,0.01c-0.28-0.3-0.61-0.57-0.92-0.81
			c-0.18-0.13-0.35-0.27-0.53-0.4c-0.44-0.55-1.26-1.03-1.64-1.28c-0.08-0.05-0.16-0.1-0.24-0.16c-1.94-1.47-3.87-2.94-5.81-4.41
			c0.05,0.08,0.08,0.16,0.11,0.24c-0.28-0.23-0.55-0.46-0.82-0.7c-0.01-0.01-0.02-0.02-0.03-0.03c0.2-0.98-0.1-2.29-0.63-3.2
			c-1.88-3.21-4.62-5.91-7.85-7.74c-1.65-0.93-3.47-1.65-5.36-1.67c-1.65-0.02-3.26,0.48-4.75,1.19
			c-7.42,3.52-11.62,11.92-12.29,20.16c-0.67,8.23,0.07,17.1,4.17,24.25c2.19,3.82,1.76,10.05-0.18,17.34
			c-3.47-2.69-7.91-5.08-12.94-8.28C81.1,41.94,28.27,66.35,24.04,83.47C15.05,91.05,6.99,99.75,0.1,109.31
			C2.62,106.64,5.34,104.17,8.24,101.92z M35.62,75.62c-0.06,0.08-0.12,0.16-0.19,0.24c0.04-0.07,0.07-0.14,0.11-0.21
			C35.57,75.64,35.59,75.63,35.62,75.62z M34.32,83.46c-0.6,0.59-1.2,1.19-1.78,1.81c0.14-1.15,0.35-2.29,0.63-3.41
			c0.41-0.44,0.83-0.89,1.24-1.33C34.16,81.47,34.13,82.48,34.32,83.46z M32.46,76.89c-2.87,2.07-5.66,4.25-8.37,6.54
			C26.31,80.69,29.19,78.45,32.46,76.89z M39.83,78.29c-0.03,0.12-0.05,0.23-0.08,0.35c-0.42,0.33-0.84,0.67-1.25,1.02
			C38.93,79.18,39.37,78.72,39.83,78.29z M49.92,75.81c-0.21,0.21-0.41,0.43-0.6,0.65c-3.65,2.12-6.86,5.02-9.32,8.47
			c0.02-0.36,0.06-0.72,0.1-1.07c0.83-1.87,1.75-3.72,3.15-5.23C44.9,76.84,47.36,75.55,49.92,75.81z M58.95,84.88
			c-0.24,0.73-0.47,1.47-0.71,2.2c-0.97,0.94-1.9,1.99-2.88,2.93c0.02-0.18,0.05-0.35,0.09-0.52c0.18-0.78,0.45-1.6,0.85-2.3
			c0.4-0.54,0.88-1.03,1.41-1.47c0.2-0.11,0.42-0.19,0.66-0.25c-0.15,0.02-0.29,0.05-0.44,0.07C58.25,85.3,58.59,85.08,58.95,84.88z
			 M89.53,207.61c0.89,0.25,1.79,0.44,2.7,0.59c-1.63-0.13-3.24-0.38-4.84-0.88c0.05,0,0.1,0.01,0.15,0.02
			c-0.11-0.02-0.23-0.04-0.34-0.07c-0.11-0.03-0.22-0.07-0.32-0.11C87.75,207.08,88.66,207.36,89.53,207.61z M89.13,208.83
			c-0.23-0.04-0.46-0.09-0.69-0.14c0.65,0.07,1.31,0.13,1.95,0.22c0.75,0.11,1.49,0.29,2.21,0.52
			C91.45,209.24,90.29,209.03,89.13,208.83z M78.89,205.14c-0.11-0.03-0.23-0.06-0.34-0.09c0.13-0.03,0.25-0.07,0.38-0.11
			C78.92,205,78.9,205.07,78.89,205.14z M73.63,116.22c0-0.07,0-0.13-0.01-0.2c1.34,0.04,2.68-0.05,3.99-0.26
			c0.59,0.31,1.18,0.62,1.77,0.92c-0.99,5.24-2.35,20.19-2.32,21.68c0.06,3.56-0.3,7.13-1.07,10.6c-0.3,1.35-0.66,2.7-0.75,4.09
			c-0.1,0.07-0.2,0.14-0.29,0.22c0.48,0.54,0.07,1.42,0.27,2.12c0.04,0.13,0.1,0.25,0.16,0.37c0.08,0.56,0.19,1.13,0.29,1.69
			c-0.16,1.33-0.02,2.69,0.43,3.95c0.08-0.04,0.17-0.07,0.26-0.09c2.02,11.81,3.28,23.75,3.75,35.73c-0.02-0.14-0.05-0.28-0.07-0.42
			c-0.21,2.71-0.58,5.41-1.07,8.08c-0.59-1.37-3.24-1.42-4.13-2.99c-0.48-0.77-0.67-1.68-0.84-2.57c-0.04,0.04-0.07,0.08-0.1,0.12
			c-0.55-2.44-0.36-5.01-0.3-7.53c0.18-7.65-0.98-15.28-1.02-22.94c-0.01-2.45,0.1-4.96,0.91-7.26c0.28-0.8,0.65-1.58,0.84-2.41
			c0.43-1.91-0.26-3.67-1.05-5.45c0.08-0.08,0.12-0.18,0.08-0.31c-0.05-0.16-0.19-0.24-0.35-0.3c-0.24-0.54-0.48-1.09-0.69-1.65
			c0.06-0.41,0.09-0.8-0.15-1.06c-0.04-0.04-0.11-0.08-0.19-0.11C70.73,143.82,73.66,121.27,73.63,116.22z"/>
	</g>
</g>
</svg>
