<!-- Generator: Adobe Illustrator 23.0.4, SVG Export Plug-In  -->
<svg version="1.1" xmlns="http://www.w3.org/2000/svg" xmlns:xlink="http://www.w3.org/1999/xlink" x="0px" y="0px"
	 width="105.82px" height="67.03px" viewBox="0 0 105.82 67.03" style="enable-background:new 0 0 105.82 67.03;"
	 xml:space="preserve">
<style type="text/css">
	.st0{fill:#EFECEA;}
	.st1{fill:#96857E;}
	.st2{fill:none;}
</style>
<defs>
</defs>
<path class="st0" d="M62.52,7.23c9.33,4.35,45.64,21.27,43.18,36.08c-3.39,20.45-80.52,36.25-99.88,9.8
	c-4.4-6.01-6.73-15.44-5.49-24.22C1.73,18.97,7.92,8.25,18,3.29c1.3-0.64,3.42-1.56,6.75-2.29C38.99-2.17,53.14,2.86,62.52,7.23z"/>
<path class="st1" d="M30.98,49.14c-0.04-2.08-0.08-4.16-0.12-6.24c-1,1.2-1.99,2.4-2.99,3.61c-0.88,1.07-2.06,2.24-3.42,1.95
	c-0.11-1.6-0.03-3.21,0.24-4.79c-1.65-0.86-3.59,0.9-3.98,2.73c-0.39,1.82,0.09,3.74-0.24,5.57c-0.13-0.95,1.26-1.27,2.19-1.07
	s2.21,0.38,2.59-0.5c0.18,1.51,0.35,3.02,0.53,4.53c0.57-1.68,1.14-3.35,1.71-5.03c0.19-0.57,0.56-1.25,1.16-1.18
	c0.48,0.06,0.73,0.6,0.89,1.06c0.56,1.61,1.11,3.22,1.67,4.82c0.13,0.36,0.38,0.81,0.75,0.74c0.28-0.05,0.42-0.37,0.52-0.64
	c0.74-2.2,1.48-4.39,2.23-6.59c-1.25,0.13-2.51,0.27-3.76,0.4"/>
<path class="st1" d="M62.73,25.77c-0.02-1.29-0.04-2.58-0.07-3.87c-0.53,0.75-1.06,1.49-1.59,2.24c-0.47,0.66-1.1,1.39-1.82,1.21
	c-0.06-0.99-0.02-1.99,0.13-2.97c-0.88-0.53-1.91,0.56-2.12,1.69c-0.21,1.13,0.05,2.32-0.13,3.46c-0.07-0.59,0.67-0.79,1.17-0.66
	c0.5,0.13,1.17,0.24,1.38-0.31c0.09,0.94,0.19,1.87,0.28,2.81c0.3-1.04,0.61-2.08,0.91-3.12c0.1-0.35,0.3-0.78,0.61-0.73
	c0.26,0.04,0.39,0.37,0.48,0.66c0.3,1,0.59,2,0.89,2.99c0.07,0.23,0.2,0.5,0.4,0.46c0.15-0.03,0.23-0.23,0.28-0.4
	c0.39-1.36,0.79-2.73,1.18-4.09c-0.67,0.08-1.33,0.16-2,0.25"/>
<path class="st2" d="M31.52,17.4c0.59-0.93-0.17-2.38-1.28-2.42c0.55,0.76,0.43,1.92-0.26,2.55c-0.69,0.63-1.87,0.63-2.56,0
	c-0.29-0.26-0.52-0.63-0.89-0.77c-0.74-0.28-1.48,0.6-1.4,1.38c0.08,0.78,0.67,1.4,1.22,1.96c1.48-0.36,2.96-0.71,4.45-1.07
	c-0.33-0.65,0.13-1.56,0.85-1.67"/>
<path class="st1" d="M62.65,51.99c0.18-1.05,0.35-2.15,0.02-3.16s-1.37-1.87-2.41-1.64c-0.55,0.13-0.99,0.53-1.35,0.96
	c-1.17,1.42-1.66,3.28-2.12,5.07c-0.3,1.18-0.61,2.37-0.91,3.55c1.12,0.27,2.17-0.59,3-1.39c1.45-1.4,2.9-2.8,4.36-4.2"/>
<path class="st1" d="M86.65,39.67c-0.68,0.89-0.88,2.14-0.49,3.19c1.59,0.32,3.3,0.1,4.75-0.62c-1.13-0.85-2.34-1.59-3.6-2.21"/>
<path class="st1" d="M18.19,14.61c0.98,1.13,3.02,0.44,3.7-0.89c0.69-1.33,0.45-2.93,0.19-4.4c-0.07-0.38-0.15-0.78-0.44-1.03
	C21.36,8.04,20.95,8.01,20.57,8c-1.31-0.04-2.63-0.02-3.94,0.05c-0.18,1.57-0.36,3.13-0.54,4.7c-0.08,0.72-0.15,1.51,0.25,2.11
	c0.4,0.6,1.47,0.76,1.79,0.11"/>
<path class="st1" d="M9.95,37.93c-0.01,1.49-0.02,2.99-0.03,4.48c1.01-1.42,1.8-3.17,1.4-4.86s-2.46-3.01-3.95-2.11
	c1.18,1.2,1.91,2.83,2.01,4.5"/>
</svg>
