<!-- Generator: Adobe Illustrator 23.0.4, SVG Export Plug-In  -->
<svg version="1.1" xmlns="http://www.w3.org/2000/svg" xmlns:xlink="http://www.w3.org/1999/xlink" x="0px" y="0px"
	 width="524.59px" height="409.63px" viewBox="0 0 524.59 409.63" style="enable-background:new 0 0 524.59 409.63;"
	 xml:space="preserve">
<style type="text/css">
	.st0{fill:#D18686;}
	.st1{fill:#FFC3A9;}
	.st2{fill:#F9B2B2;}
	.st3{fill:#934747;}
	.st4{fill:#070000;}
	.st5{fill:#FCACA4;}
	.st6{fill:#FF6666;}
</style>
<defs>
</defs>
<path class="st0" d="M341.42,224.84c6.3,2.98,12.88,7.29,18.8,9.98c8.11,3.7,16.32,5.69,24.13,10.11
	c8.47,4.79,17.43,8.55,26.64,11.54c8.88,2.89,15.83,8.18,23.57,12.83c5.91,3.55,12.24,4.34,18.34,7.02
	c10.86,4.76,16.9,11.3,29.15,11.52c10.7,0.19,21.97,0.62,32.62,1.56c-1.01,0.85-1.2,1.77-1.75,2.42c2.27,0.2,4.65,0.28,6.96,0.28
	c-2.79-0.1-3.23,0.9-5.08,2.45c3.13,0.31,7.25-0.14,9.79,0.88c-5.22,0.86-8.97,4.07-14.51,4.57c-7.34,0.66-15.03,0.33-22.42,0.16
	c-16.32-0.38-33.92-6.95-48.44-14.47c-5.92-3.07-11.34-7.05-17.4-10.09c-15.44-7.72-33.11-12.24-47.84-20.56
	c-6.64-3.75-12.49-8.25-19.28-11.44c-8.48-3.99-16.94-7.34-25.61-10.94c-8.39-3.48-20.59-8-27.65-13.77
	c-6.2-5.08-3.79-11.24,4.27-10.82C318.06,208.72,330.51,219.68,341.42,224.84z"/>
<path class="st1" d="M202.42,283.81c-0.12,0.38-0.24,0.75-0.36,1.13c1.55-0.26,3.11-0.54,4.66-0.84c-0.71-0.25-1.42-0.49-2.13-0.73
	C203.86,283.52,203.14,283.67,202.42,283.81z"/>
<path class="st2" d="M0,85.45c2.71,0.78,8.01,1.94,10.84,1.04c3.96-1.26,6.15-6.23,9.9-7.85c5.67-2.46,14.13-0.8,19.46,1.08
	c8.3,2.92,15.88,1.5,24.29,3.5c9.55,2.28,13.56,11.83,16.79,21.12c3.37,9.68,8.56,18.98,10.2,29.18c0.88,5.46,0.51,10.81,1.67,16.04
	c1.62,7.32,5.73,12.19,8.72,18.11c4.83,9.54,6.04,12.52,16.12,16.03c12.6,4.39,27.05,8.54,40.24,9.55
	c16.03,1.23,34.64-2.45,50.39,1.33c9.65,2.32,8.59,11.63,8.79,21.56c5.21,0.38,10.52,0.42,15.55,1.1
	c2.02-12.86,33.22-7.34,39.67-4.89c6.53,2.48,11.9,5.56,18.88,6.33c5.87,0.65,12.78-0.98,18.35,1.09
	c0.22-3.24-0.87-10.79,1.23-13.03c3.94-4.22,9.36,1.18,12.24,3.07c2.41,1.58,3.73,3.46,6.67,4.41c4.59,1.48,5.62-1.09,9.6-1.13
	c5.47-0.05,7.56,5.54,13.67,6.93c0.22-2.85,0.18-5.84,0.4-8.7c6.81,1.32,7.25-3.93,4.03-8.9c-5.05-7.79-15.48-11.55-23.13-14.41
	c-4.95-1.85-5.63-3.92-9.39-7.78c-2.8-2.88-6.69-5.2-9.49-8.21c3.44-0.19,6.97,0.1,10.4-0.02c2.5-14.74-11.64-25.35-12.03-40
	c11.2-0.89,21.08,8.23,31.83-0.66c14.23-11.77,26.85-34.11,44.67-41.2c15.81-6.29,33.02-2.09,49.37-4.36
	c7.28-1.01,15.58-3.39,21.18-9.19c3.16-3.27,9.37-9.3,10.88-13.45c-4.64-0.79-10.43-0.42-11.53-6.15c11.95-3.46-8.6-8.45-12.97-8.6
	c-9.92-0.35-19.85-0.43-29.78-0.69c-13.71-0.36-30.15-0.37-43.26,4.22c-14.38,5.04-28.55,3.63-41.85,11.09
	c-4.87,2.73-10.88,4.73-16.31,7.4c-6.53,3.2-6.64,4.26-11.04,10.84c-6.37,9.53-13.3,14.09-22.18,19.45
	c-4.02,2.42-10.08,8.1-13.94,9.44c-4.47,1.55-10.01-0.71-13.07-4.3c-4.85-5.71-8.51-13.23-13.44-19.12
	c-4.97-5.95-9.95-10.96-15.47-15.98c-9.91-9.01-15.95-20.66-25.58-29.52c-6.51-5.99-10.82-14.48-17.94-19.63
	c-4.67-3.38-10.56-9.96-15.51-12.03c-7.07-2.96-20.15-1.02-26.06,3.64c-4.54,3.58-11.5,11.81-11.91,17.39
	c-0.51,6.87,4.48,15.12,8.22,20.16c2.91,3.92,7.85,10.32,12.17,13.55c3.16,2.36,5.65,2.25,8.49,5.54
	c5.73,6.63,13.49,17.31,17.17,25.37c2.81,6.15,3.25,10.13,7.4,14.99c3.86,4.52,8.93,10.27,6.8,17.36
	c-1.56,5.22-5.77,7.94-7.71,14.42c-4.6,15.32-10.21,26.41-25.5,27.73c-12.97,1.11-26.56,1.52-36.02-9.04
	c-17.57-19.61-17.49-47.07-28.55-70.93c-3.55-7.66-8.74-14.39-14.35-20.21c-4.43-4.6-9.43-13.85-16.32-14.6
	c-2.25-5.81-11.91-6.98-17.1-5.52c-1.8,0.5-4,3.58-6.13,4.23c-2.67,0.81-6.42,0.01-9.21-0.07c-7.67-0.2-11.68,2.38-16.69,9.07
	C9.28,67.4,2.7,79.66,4.03,86.17c0.65,0.21,1.22,0.02,1.87,0.15"/>
<path class="st3" d="M3.91,87.02c3.83,0.76,4.68-2.31,7.51-4.08c3.65-2.29,3.47-2.09,7.82-2.96c6.22-1.25,11.01-1.7,17.68-1.92
	c0.65-10.37-1.88-14.6,8.21-14.61c0.54-2.45,0.35-5.14-0.56-7.19c-1.51,1.29-3.5,1.27-5.04,1.88c0.03-2.26-0.22-4.59,0.5-6.59
	c-9.17,0-19.54-2.32-26.26,6.47c-3.61,4.73-3.64,11.44-6.09,16.72c-2.06,4.44-4.57,6.47-4.99,12.15c1.98,0.71,3.62,0.16,5.2-1.25"/>
<path class="st4" d="M9.68,64.96c0.84,8.01-6.68,14-6.34,21.96c8.6-0.82,11.7-12.4,21.1-10.63c-0.26-4.27-2.39-8.44-2.8-12.42
	c2,0.18,4.02-0.15,5.7,0.65c-1.69-2.93-13.33-2.61-16.35,0.47"/>
<path class="st4" d="M41.99,61.26c0.82-0.17,1.7,0.09,2.53-0.05c-0.08-0.58,0.16-1.31,0.04-2c-2.26-0.97-1.72,0.66-2.56,1.31"/>
<path class="st5" d="M183.74,160.71c7.78,6.13,12.02,18.23,21.84,22c4.38,1.69,4.09,1.25,7.14,3.85c2.63,2.23,3.26,4.51,7.08,5.16
	c-6.7,0.42-32.09,3.28-36.13-2.89c2.32-1.29,5.56-2.84,5.7-5.99c2.11-0.87,3.86-1.54,6.17-1.1c-2.19-0.85-4.54-1.13-6.91-1.05
	c0.24-0.84,0.25-1.8,0.55-2.69c-6.01,0.39-5.86-13.61-3.47-17.99"/>
<path class="st6" d="M269.35,113.01c11.79,0.69,19.72-2.32,30.52,2.2c8.16,3.41,15.2,3.68,24.45,3.5c-0.93-1.72-1.73-4.9-2.95-6.69
	c4.43-0.04,9,0.26,13.42,0.12c-0.32-1.46,0.68-3.59,0.36-5.06c1.09,0.19,2.65-0.29,3.76-0.13c-0.26-2.4,0.45-5.05-0.27-7.39
	c4.17-0.05,12.16,2.22,11.69-3.46c-2.25-0.69-3.83-2.25-5.33-3.15c2.56,0.42,4.77-0.39,7.1-0.89c-1-0.48-2.75-2.46-4.38-2.98
	c2.89-0.67,2.69-2.14,4.47-3.46c-0.68-0.39-1.45-0.74-2.11-1.13c-0.11-3.92,4.01-5.79,5.55-8.7c-7.04-0.35-11.78-5.54-3.72-9.12
	c-17.59-1.44-29.32,6.16-42.69,16.27c-6.49,4.91-12.56,8.13-19.09,12.42c-6.24,4.1-9.59,9.88-17.32,11.84
	c-1.88,5.25,3.33,5.78,7.75,5.34"/>
<path class="st4" d="M135.13,15.31c5.8-9.42,5.76-13.82,16.1-13.69c7.13,0.09,14.48-1.83,20.97-1.61
	c3.23,11.26,15.6,14.52,21.26,24.2c1.94,3.32,3.26,7.82,5.63,10.49c3.24,3.65,9.31,3.84,7.79,10.25c3.24,0.88,6.37,2.24,9.62,2.68
	c0.76,7.4,5.8,7.19,9.04,12.14c2.27,3.46,1.62,7.22,4.28,10.36c2.9,3.44,7.42,4.05,10.42,7.77c1.5,1.86,2.14,4.32,3.62,6.55
	c2.68,4.01,6.16,5.72,8.52,9.02c0.69,0.97,0.31,3.81,1.29,5.19c2.99,4.24,7.24,3.13,11.16,4.73c4.29,1.76,6.06,5.73,9.98,8.39
	c4.07,2.76,8.57,0.66,12.63,2.46c4.39,1.94,5.88,7.74,8.34,11.84c-10.82-17.4-28.79-8.64-42.48-17.63
	c-3.54-2.32-4.18-4.28-8.52-5.52c-5.6-1.6-12.07,0.7-17.49-1.25c-1.13-1.28-0.73-1.75-2.59-3.08c6.05-7.97-6.55-7.27-10.33-7.58
	c0.44-0.73,0.81-3.43,1.28-4.19c-3.2-0.3-6.52-0.17-9.71-0.45c-0.19-2.77,0.66-5.6,1.98-7.83c-1.32,0.17-3.11-0.62-4.41-0.38
	c-2.17-4.74-10.15-1.23-9.89-8.13c-4.91-1.99-7.63-4.22-11.45-8.53c-2.88-3.25-2.75-5.12-8.44-4.73c0.01-0.87-0.15-1.87-0.14-2.74
	c-8.08,0.49,0.04-11.75-11.38-10.82c-0.28-7.25-7.45-9.19-12.22-12.8c-4.97-3.76-8.06-6.29-13.59-9.28
	c-0.16-2.85-0.66-5.31-1.23-8.04"/>
<path class="st6" d="M138.52,10.95c-6.42,12.01-10.15,22.41-3.96,36.2c5.28,11.76,17.94,22.55,27.02,30.42
	c5.87,5.08,12.79,12.84,16.23,20.84c2.27,5.29,2.32,8.98,5.92,13.25c2.97,3.51,6.95,4.76,6.27,10.63c4.97-1.26,10.34-4.73,15.8-5.66
	c4.87-0.83,10.07-0.1,15.05-0.32c-0.88-3.39-6.63-3.89-9.66-5.46c9.42-8.23,26.16,4.01,36.08,2.36c-3.16-5.25-13.19-2.1-17.66-6.18
	c2.72-2.05,7.36-1.28,8.03-5.6c-4.12-2.13-9.78-0.29-13.65-1.74c2.64-1.08,5.84-2.83,7.9-4.29c-2.74-0.34-5.65-0.21-8.4-0.49
	c1.02-2.74,2.65-6.11,3.35-9.34c-1.77,0.33-3.99-0.64-5.75-0.32c0.7-1.95,0.43-3.88,1.94-5.65c-3.93-0.36-13.07,2.02-13.75-3.28
	c-3.3-0.62-10.62,2.13-12.86-2.07c-1.54-2.91,2.43-7.46,2.63-11.48c-2.96-0.24-6.05-0.19-9.01-0.43c0.17-0.77,0.23-1.98,0.42-2.73
	c-11.68,1.33-6.57-7.43-1.46-13.72c-3.63-1.54-9.27-0.08-13.08,0.62c0.67-1.99,1.15-4.16,2.81-5.79c-3.17-0.81-7.55,0.23-6.67-5.22
	c-2.75-0.21-5.6-0.17-8.35-0.38c0.24-2.4,1.41-4.87,3.16-6.53c-4.97,0.19-9.76,0.77-14.84,0.32c-0.53-4.18,3-7.01,5.03-10.18
	c-3.19,0.53-6.21,1.66-9.43,1.2c0.33-1.41-0.41-3.55-0.09-4.96c-1.74,0.34-3.95-0.65-5.71-0.33c-0.71-4.81,2.9-7.39,5.18-10.77
	C143.22,3.35,140.24,7.42,138.52,10.95"/>
<path class="st4" d="M300.54,115.17c8.54-0.33,19.94,5.43,27.79,9.39c7.34,3.71,9.59,8.95,18.93,7.82c0.01-2.21,1.19-4.01,0.99-6.34
	c1.3,0.35,3.21-0.45,4.48-0.1c4.51-6.92,2.04-7.58,10.84-7.94c-0.56-4.56,5.21-6.98,7.13-11.53c2.76-0.12,5.65,0.05,8.43-0.03
	c-1.59-23.35,31.61-15.19,43.61-16.17c0.18-0.69,0.1-1.31,0.25-2.01c7.59-0.25,14.64,1.01,21.82,2.79c3.62,0.9,15.99,5.27,13.9-3.44
	c-0.64-0.34-1.04-0.52-1.62-0.95c3.83-0.09,13.68-1.21,13.77-6.24c-2.7,0.53-5.57-0.15-6.42-3.14c4.3-0.08,9.21-2.24,12.46-5.02
	c-2.04-1.02-3.59-2.28-5.56-3.24c-0.14-4.16-1.03-8.58,3.24-10.11c-3.33-0.34-6.91-0.19-10.23-0.55c10.11-3.27-4.06-6.91-6.87-7.45
	c-6.82-1.32-14.13-4.39-21.46-4.38c3.76-3.6,9.08-3.62,13.54-5.54c-8.1-0.05-15.52-0.52-22.94,1.59c-8.91,2.53-17.06,4.61-26.2,5.55
	c-8.04,0.82-15.45,0.55-23.24,1.68c-6.7,0.97-10.52,6.71-17.99,6.41c0.03,0.27-0.03,1.74-0.08,2.02c5.85,0.53,11.01,2.86,16.98,2.7
	c-2.98,2.93-6.42,3.31-10.42,2.9c-1.78,8.78,8,7.4,12.28,9.33c-4.3,2.28-9.51,1.62-14.54,1.81c0.13,0.72,0.16,1.92,0.28,2.75
	c-1.84-0.12-3.8,1.14-5.7,0.85c0.29,4.59,2.17,9.71,5.4,12.76c-5.16-0.89-9.96,0.16-8.71,7.09c-1.85-0.07-4.79-0.25-6.42,0.88
	c-5.46,3.79-0.62,2.69-1.75,5.98c-0.34,0.99,1.02,2.34-0.15,4.25c-1.38,2.26-6.33,1.8-8.48,2.96c-5.09,2.75-5.72,3.75-12.85,4.76
	c-3.09,0.44-5.6,1.7-8.65,2.04"/>
<path class="st6" d="M189.92,120.9c2.82-6.83,12.93-11.81,19.11-13.32c8.54-2.07,12,5.34,18.86,9.79
	c7.04,4.56,15.94,4.14,24.29,4.18c-2.05,0.92-3.7,2.65-5.15,4.2c5,0.5,10.83-0.63,15.58,1.27c-3.55,0.46-5.18,4.04-4.58,7.87
	c6.97,2.55,14.51,2.44,20.7,7.32c-11.2-0.43-22.46,0.01-33.45-2.8c-6.35-1.63-12.13-3.79-18.72-3.61
	c4.68,1.06,10.16-6.32,6.75-10.79c-1.6-2.1-7.3-1.14-9.37-0.59c-7.21,1.92-11.38,6.12-19.58,5.72c2.25-0.66,4.19-2.25,5.3-4.41
	c-3.25-1.58-7.48-0.13-11.12-1.09c-2.8-0.74-5.24-3.01-7.97-3.73"/>
<path class="st0" d="M218.97,210.77c4.03-1.37,8.05-1.06,11.88,0.2c8.68,35.32,11.97,72.23,20.23,107.77
	c7.35,31.65,20.43,60.22,28.54,90.01c-28.59,14.91-50.23-165.18-62.77-187.42"/>
</svg>
