<!-- Generator: Adobe Illustrator 23.0.4, SVG Export Plug-In  -->
<svg version="1.1" xmlns="http://www.w3.org/2000/svg" xmlns:xlink="http://www.w3.org/1999/xlink" x="0px" y="0px"
	 width="613.21px" height="338.79px" viewBox="0 0 613.21 338.79" style="enable-background:new 0 0 613.21 338.79;"
	 xml:space="preserve">
<style type="text/css">
	.st0{fill:#D18686;}
	.st1{fill:#FFC3A9;}
	.st2{fill:#F9B2B2;}
	.st3{fill:#934747;}
	.st4{fill:#070000;}
	.st5{fill:#FCACA4;}
	.st6{fill:#FF6666;}
</style>
<defs>
</defs>
<path class="st0" d="M399.93,210.69c7.51,0.77,15.71,2.72,22.71,3.35c9.62,0.87,18.82,0.07,28.35,1.73
	c10.32,1.79,20.85,2.43,31.4,2.27c10.17-0.16,19.06,2.61,28.58,4.5c7.27,1.45,14.14,0.13,21.34,0.67
	c12.82,0.98,21.12,5.23,34.03,1.43c11.27-3.33,23.2-6.61,34.65-9.2c-0.8,1.14-0.72,2.08-1.1,2.87c2.44-0.56,4.95-1.25,7.38-2.02
	c-2.96,0.82-3.11,1.92-4.58,4c3.38-0.73,7.55-2.51,10.52-2.37c-5.21,2.53-8.17,6.82-13.82,9.11c-7.49,3.03-15.65,5.24-23.44,7.5
	c-17.21,4.99-37.65,4.5-55.13,2.08c-7.14-0.99-14.01-3.01-21.28-3.91c-18.51-2.3-38.39-0.82-56.35-3.91
	c-8.09-1.4-15.58-3.76-23.66-4.59c-10.09-1.03-19.97-1.44-30.14-2.03c-9.85-0.57-24-0.87-33.14-4.06c-8.03-2.81-7.38-9.47,1.2-11.71
	C370.56,202.99,386.93,209.35,399.93,210.69z"/>
<path class="st0" d="M272.46,327.34c4.42,0.34,8.84,0.69,13.26,1.06c0.18-9.09,0.12-18.4,0.51-27.6
	c0.78-18.78,1.41-40.01-4.13-58.19c-2.23-7.33-9.67-19.27-13.1-6.09c-3.88,14.89,4.29,33.71,4.33,48.99
	C273.37,298.05,271.16,313.49,272.46,327.34z"/>
<path class="st1" d="M285.35,338.79c0.01-0.16,0.02-0.31,0.02-0.47c-2.3-0.19-4.6-0.38-6.91-0.56
	C280.75,338.13,283.05,338.47,285.35,338.79z"/>
<path class="st2" d="M0,189.77c3.08-0.15,8.98-0.77,11.68-2.56c3.77-2.5,4.56-7.96,7.99-10.73c5.19-4.2,14.56-5.39,20.72-5.35
	c9.58,0.06,17.09-3.78,26.5-4.63c10.7-0.96,17.79,6.83,23.99,14.63c6.46,8.13,14.71,15.28,19.53,24.47
	c2.58,4.92,3.81,10.13,6.61,14.74c3.91,6.45,9.69,9.74,14.62,14.4c7.95,7.51,10.12,9.95,21.74,10c14.54,0.06,30.93-0.73,45.05-4.09
	c17.17-4.08,35.55-13.69,53.19-15.25c10.82-0.96,12.52,8.27,15.74,17.67c5.58-1.35,11.14-3.05,16.62-4.05
	c-1.77-12.92,32.59-17.89,40.09-17.66c7.6,0.22,14.15,1.39,21.7-0.16c6.35-1.31,13.1-5.13,19.56-4.98c-0.75-3.16-4.17-10-2.66-12.82
	c2.85-5.31,10.17-1.94,13.75-1.08c3.01,0.72,4.95,2.07,8.33,2.01c5.26-0.09,5.55-2.88,9.72-4.22c5.71-1.84,9.6,2.8,16.42,2.13
	c-0.63-2.79-1.58-5.63-2.22-8.42c7.54-0.98,6.41-6.12,1.53-9.8c-7.65-5.77-19.72-5.93-28.6-6.15c-5.75-0.14-7.09-1.89-12.19-4.34
	c-3.8-1.83-8.59-2.76-12.43-4.71c3.54-1.31,7.34-2.19,10.89-3.43c-1.85-14.87-19.87-20.35-24.72-34.18
	c11.46-4.52,24.58,0.94,33.15-11.06c11.34-15.88,17.81-41.31,34.33-53.91c14.66-11.17,33.97-12.82,50.41-20.34
	c7.32-3.35,15.3-8.34,19.41-15.7c2.32-4.15,7-11.94,7.33-16.39c-5.1,0.76-11.06,3.02-13.94-2.08c11.48-7.21-11.57-5.23-16.19-3.95
	c-10.5,2.92-20.93,6.1-31.41,9.11c-14.47,4.15-31.71,9.53-44.05,18.2c-13.54,9.52-28.81,12.82-40.49,24.29
	c-4.28,4.2-9.96,8.07-14.85,12.4c-5.87,5.19-5.66,6.24-8.28,13.95c-3.79,11.17-9.67,17.79-17.35,25.81
	c-3.48,3.63-8.11,11.03-11.75,13.57c-4.21,2.94-10.71,2.61-15,0.19c-6.81-3.85-12.93-9.82-19.87-13.82
	c-7.01-4.04-13.74-7.18-21.05-10.16c-13.11-5.34-22.96-14.46-35.74-19.75c-8.64-3.58-15.72-10.25-24.74-12.83
	c-5.92-1.69-14.08-6.03-19.89-6.38c-8.3-0.5-21.42,5.64-26.21,12.01c-3.67,4.9-8.47,15.03-7.21,20.48
	c1.55,6.72,9.28,12.95,14.71,16.52c4.23,2.78,11.34,7.26,16.85,8.92c4.03,1.22,6.6,0.29,10.57,2.5
	c8.01,4.44,19.38,12.08,25.67,18.55c4.81,4.94,6.47,8.59,12.29,11.86c5.41,3.04,12.46,6.87,12.38,14.31
	c-0.06,5.49-3.64,9.46-3.72,16.27c-0.18,16.11-2.71,28.52-18.32,34.79c-13.25,5.31-27.36,10.15-40.48,3.19
	c-24.35-12.93-32.58-39.13-51.39-58.24c-6.04-6.14-13.51-10.85-21.16-14.56c-6.04-2.93-14.07-10.11-21.52-8.56
	c-4.12-4.79-14.59-2.75-19.59,0.34c-1.73,1.07-3.11,4.72-5.14,6.04c-2.55,1.65-6.72,2.11-9.67,2.96
	c-8.09,2.32-11.52,6.1-14.74,14.12c-2.29,5.69-5.48,19.54-2.11,25.31c0.75-0.02,1.29-0.38,2.01-0.47"/>
<path class="st3" d="M4.57,189.98c4.24-0.53,4.2-3.73,6.63-6.36c3.13-3.37,3-3.13,7.29-5.38c6.14-3.23,11.02-5.23,17.94-7.63
	c-2.45-10.09-6.39-13.3,4.18-16.62c-0.18-2.51-1.19-5.01-2.76-6.67c-1.19,1.73-3.28,2.36-4.71,3.44c-0.66-2.16-1.63-4.3-1.47-6.44
	c-9.6,3.01-21.18,4.2-25.55,14.78c-2.35,5.7-0.35,12.09-1.32,17.93c-0.82,4.91-2.82,7.67-1.55,13.21c2.29,0.03,3.84-1.03,5.07-2.89"
	/>
<path class="st4" d="M3.94,167.06c3.3,7.36-2.76,15.53,0,23.01c8.76-3.6,8.51-15.66,18.89-17.05c-1.56-3.98-5.06-7.27-6.69-10.92
	c2.15-0.49,4.17-1.46,6.17-1.25c-2.66-2.24-14.76,1.89-16.99,5.81"/>
<path class="st4" d="M36.68,152.95c0.81-0.43,1.81-0.47,2.63-0.88c-0.26-0.53-0.23-1.3-0.56-1.92c-2.66-0.19-1.6,1.19-2.29,2.09"/>
<path class="st5" d="M215.3,201.27c10.01,3.3,18.12,13.43,29.54,13.81c5.1,0.17,4.67-0.15,8.65,1.33c3.43,1.27,4.78,3.23,8.98,2.59
	c-6.89,2.6-32.62,13.65-38.73,9.09c2.04-1.99,4.97-4.53,4.17-7.58c1.95-1.52,3.58-2.74,6.14-3.07c-2.56-0.09-5.1,0.41-7.56,1.27
	c-0.01-0.88-0.29-1.8-0.23-2.74c-6.18,2.34-10.27-11.05-9.08-16.01"/>
<path class="st6" d="M290.56,127.74c12.56-3.21,19.95-8.67,32.64-7.91c9.58,0.58,17.04-1.48,26.68-4.68c-1.5-1.34-3.3-4.1-5.12-5.41
	c4.62-1.49,9.51-2.71,14.09-4.28c-0.78-1.29-0.38-3.65-1.15-4.94c1.2-0.17,2.68-1.15,3.9-1.35c-0.99-2.2-1.06-4.96-2.52-6.96
	c4.35-1.41,13.42-1.87,11.2-7.13c-2.57,0.08-4.7-0.89-6.54-1.26c2.81-0.44,4.88-1.94,7.17-3.18c-1.19-0.13-3.63-1.44-5.49-1.41
	c2.83-1.59,2.17-2.92,3.64-4.77c-0.83-0.15-1.74-0.23-2.55-0.39c-1.3-3.69,2.45-6.84,3.18-10.11c-7.48,1.97-14.02-1.41-6.66-7.48
	c-18.86,4.39-28.86,15.48-39.81,29.5c-5.31,6.81-10.7,11.87-16.24,18.1c-5.3,5.95-7.06,12.56-14.56,16.96
	c-0.38,5.62,5.23,4.41,9.74,2.55"/>
<path class="st4" d="M120.35,78.62c3.22-10.88,1.85-15.06,12.73-18.32c7.5-2.25,14.62-6.5,21.48-8.41
	c6.79,9.68,20.74,8.73,29.6,16.1c3.04,2.53,5.78,6.38,9.07,8.15c4.5,2.42,10.91,0.61,11.27,7.21c3.66-0.23,7.35,0.04,10.89-0.6
	c3.03,6.8,8.25,4.95,13.15,8.6c3.42,2.55,3.88,6.35,7.62,8.47c4.08,2.32,9,1.43,13.27,3.99c2.14,1.28,3.55,3.42,5.78,5.05
	c4.02,2.94,8.19,3.43,11.66,5.8c1.02,0.7,1.48,3.53,2.92,4.52c4.42,3.06,8.53,0.61,13.12,0.85c5.02,0.27,8.08,3.48,12.99,4.72
	c5.1,1.3,9.17-2.18,13.98-1.8c5.19,0.41,8.5,5.45,12.32,8.55c-16.61-13.04-32.78,1.21-49.85-2.87c-4.41-1.05-5.68-2.71-10.6-2.47
	c-6.36,0.31-12.44,4.62-18.7,4.54c-1.58-0.85-1.29-1.43-3.64-2.09c3.93-9.58-9.06-4.79-13.12-3.84c0.24-0.83-0.19-3.53,0.08-4.41
	c-3.44,0.76-6.89,1.97-10.31,2.76c-1.04-2.58-1-5.55-0.29-8.11c-1.33,0.6-3.44,0.43-4.74,1.08c-3.71-3.81-11.01,2.16-12.82-4.51
	c-5.75-0.29-9.27-1.52-14.58-4.37c-4.01-2.16-4.43-3.98-10.27-1.74c-0.25-0.83-0.73-1.73-0.97-2.57c-8.32,3.11-3.52-11.21-15.2-6.59
	c-2.49-6.81-10.59-6.32-16.68-8.2c-6.34-1.95-10.35-3.36-17.05-4.39c-1.03-2.67-2.3-4.84-3.72-7.26"/>
<path class="st6" d="M122.58,73.35c-3.09,13.55-3.84,24.68,6.81,35.8c9.09,9.48,25.62,15.61,37.52,20.13
	c7.68,2.92,17.29,8.04,23.31,14.54c3.98,4.3,5.15,7.8,10.22,10.68c4.17,2.37,8.73,2.26,9.78,8.08c4.82-2.84,9.4-7.9,14.84-10.57
	c4.85-2.39,10.52-3.4,15.67-5.24c-1.94-2.94-8.12-1.53-11.78-2.03c7.38-10.93,28.62-4.75,38.51-9.57c-4.9-3.96-14.45,2.32-20.37-0.1
	c2.23-2.84,7.32-3.64,6.72-7.97c-4.96-0.68-10.33,2.93-14.83,2.81c2.44-1.89,5.26-4.61,6.98-6.68c-2.97,0.57-5.98,1.65-8.95,2.29
	c0.24-2.95,0.93-6.69,0.68-10c-1.76,0.89-4.38,0.7-6.12,1.58c0.14-2.09-0.72-3.84,0.32-6.02c-4.23,0.95-13.09,6.21-15.4,1.38
	c-3.64,0.49-10.49,5.51-14.1,2.24c-2.5-2.26,0.29-7.91-0.72-11.8c-3.18,0.74-6.4,1.8-9.58,2.55c-0.05-0.79-0.36-1.96-0.38-2.74
	c-11.83,5.1-9.14-4.93-5.69-12.59c-4.27-0.28-9.74,2.96-13.52,4.88c0.1-2.11-0.06-4.34,1.19-6.44c-3.57,0.27-7.84,2.7-8.57-2.79
	c-2.94,0.7-5.92,1.68-8.87,2.38c-0.48-2.37,0.01-5.1,1.33-7.26c-5.15,1.81-9.99,3.93-15.45,5.17c-1.82-3.81,1.02-7.66,2.19-11.35
	c-3.18,1.55-6,3.62-9.52,4.24c-0.09-1.45-1.5-3.25-1.59-4.7c-1.72,0.89-4.33,0.68-6.08,1.56c-2.2-4.35,0.8-7.99,2.16-11.96
	C125.2,64.56,123.31,69.42,122.58,73.35"/>
<path class="st4" d="M323.89,119.57c8.85-3.12,22.54-1.36,31.96-0.16c8.81,1.12,12.76,5.39,22.2,1.25
	c-0.66-2.11,0.03-4.21-0.88-6.37c1.47-0.09,3.23-1.48,4.66-1.56c2.63-8.07-0.16-7.9,8.96-11.12c-1.97-4.16,3.34-8.36,3.99-13.33
	c2.86-1.03,5.93-1.81,8.82-2.79c-8.74-21.74,28.52-24.84,40.8-29.71c-0.02-0.72-0.29-1.28-0.35-2c7.88-2.73,15.65-3.84,23.71-4.49
	c4.06-0.33,18.34-0.22,13.52-7.84c-0.78-0.11-1.24-0.16-1.99-0.38c3.99-1.34,13.97-5.64,12.54-10.47c-2.67,1.38-5.88,1.68-7.68-0.88
	c4.48-1.49,8.98-5.15,11.54-8.88c-2.44-0.3-4.46-1-6.81-1.27c-1.4-3.92-3.68-7.84,0.34-10.7c-3.6,0.77-7.29,2.09-10.88,2.83
	c9.6-6.43-6.35-5.25-9.45-4.85c-7.54,0.98-16.13,0.44-23.81,2.87c2.85-4.67,8.42-6.43,12.51-9.72c-8.5,2.61-16.42,4.59-23.56,9.03
	c-8.57,5.33-16.48,9.99-25.77,13.88c-8.18,3.42-16.02,5.59-23.84,9.22c-6.73,3.13-8.99,9.84-16.91,12.01
	c0.12,0.25,0.5,1.67,0.53,1.95c6.29-1.41,12.4-0.88,18.6-2.99c-2.23,3.77-5.73,5.26-10.04,6.18c0.8,8.95,10.62,4.43,15.69,4.86
	c-3.81,3.58-9.47,4.66-14.68,6.49c0.35,0.64,0.75,1.78,1.13,2.53c-1.96,0.49-3.64,2.33-5.72,2.67c1.69,4.28,5.22,8.55,9.52,10.39
	c-5.67,0.84-10.39,3.41-6.98,9.62c-1.96,0.54-5.1,1.33-6.46,2.95c-4.57,5.41,0.17,2.77-0.02,6.27c-0.06,1.06,1.77,1.9,1.13,4.1
	c-0.76,2.61-6.08,3.79-7.99,5.6c-4.5,4.29-4.85,5.45-12.02,8.75c-3.11,1.43-5.36,3.45-8.45,4.78"/>
<path class="st6" d="M209.72,161.3c0.88-7.43,9.97-15.5,15.99-18.96c8.32-4.77,14.19,1.16,22.73,3.15
	c8.76,2.04,17.95-1.28,26.72-3.98c-1.87,1.55-3.08,3.74-4.12,5.7c5.39-1.16,11.15-4.15,16.7-3.89c-3.58,1.61-4.21,5.54-2.41,9
	c8.08,0.14,15.94-2.43,23.9,0.19c-11.87,3.26-23.53,7.38-35.9,8.29c-7.15,0.53-13.86,0.37-20.71,2.69c5.23-0.53,8.73-9.35,3.81-12.5
	c-2.32-1.48-8,1.31-10,2.51c-6.98,4.2-10.07,9.57-18.79,11.87c2.16-1.37,3.71-3.52,4.22-5.94c-3.88-0.44-7.88,2.33-11.98,2.6
	c-3.16,0.21-6.41-1.15-9.48-0.94"/>
</svg>
