<!-- Generator: Adobe Illustrator 23.0.4, SVG Export Plug-In  -->
<svg version="1.1" xmlns="http://www.w3.org/2000/svg" xmlns:xlink="http://www.w3.org/1999/xlink" x="0px" y="0px"
	 width="314.27px" height="588.04px" viewBox="0 0 314.27 588.04" style="enable-background:new 0 0 314.27 588.04;"
	 xml:space="preserve">
<style type="text/css">
	.st0{fill:#F7D0CB;}
	.st1{fill:#FCE8E6;}
	.st2{opacity:0.8;fill:#EF8C84;}
	.st3{opacity:0.8;fill:#F77F79;}
	.st4{fill:#352C2C;}
	.st5{fill:#FCD9D6;}
	.st6{fill:#FCF5F5;}
	.st7{fill:#F9F4F4;}
	.st8{fill:none;}
	.st9{fill:#E5C6B7;}
	.st10{opacity:0.5;fill:#996633;}
	.st11{fill:#F4E08C;}
	.st12{fill:none;stroke:#352C2C;stroke-width:0.5;stroke-miterlimit:10;}
</style>
<defs>
</defs>
<path class="st0" d="M91.66,533.15c2.1,6.09,9.9,7.75,16.35,7.62c25.58-0.51,50.52-14.51,64.27-36.09c1.56-2.44,3.3-5.21,6.14-5.78
	c2.57-0.52,5.22,1.11,6.52,3.39c1.3,2.27,1.46,5.03,1.15,7.63c-1.84,15.57-17.86,25.31-24.44,39.55c-1.77,3.82-2.89,8.05-5.65,11.23
	c-0.88,1.02-1.93,1.92-2.65,3.06c-1.51,2.39-1.3,5.74,0.5,7.93c4.55,5.53,19.24,2.19,24.6-0.41c19.43-9.42,32.1-29.13,41.98-48.82
	c9.88-19.68,16.79-42.37,33.43-56.37c14.43-12.14,28.67-24.79,39.94-40.08s19.51-33.54,20.39-52.74
	c0.59-12.97-2.19-25.94-6.86-37.99c-4.43-11.41-10.56-22.12-18.12-31.62c-7.63-9.59-16.65-17.9-24.58-27.23
	c-8.31-44.57-9.71-86.45-2.9-130.64c2.25-14.62,2.39-29.48,2.52-44.28c0.17-18.81,0.33-37.63,0.5-56.44
	c0.13-15.14,0.23-30.55-4.05-45.07c-26.79,0.29-53.56,1.82-80.2,4.61c-17.65,1.84-49.11-2.84-46.89,21.85
	c4.47,49.68,14.83,98.62,19.27,148.3c2.27,25.38-0.36,50.32,0.65,75.52c0.76,18.87,8.2,38.85,12.03,57.63
	c1.43,7.03,2.88,14.16,2.59,21.34c-0.32,7.99-2.75,15.71-4.86,23.41c-9.15,33.44-12.39,68.59-9.51,103.21
	c0.3,3.58,0.64,7.33-0.69,10.65c-1.36,3.39-4.25,5.82-6.82,8.35c-7.56,7.43-12.97,16.63-18.75,25.43
	c-5.11,7.77-13.76,14.83-16.36,23.57c-7.19,1.75-14.01,4.99-19.91,9.46c0.19-0.84,0.37-1.68,0.56-2.52"/>
<path class="st1" d="M96.02,536.61c2.04-9.44,7.38-5.35,14.27-9.72c8.1-5.14,13.92-18.28,19.12-25.95
	c6.67-9.85,13.35-19.7,20.02-29.54c5.98-8.83,12.73-18.25,22.9-21.45"/>
<path class="st1" d="M140.28,573.66c3.04-2.16,3.33-2.25,6.31-2.65c2.84-0.38,4.73,0.72,7.54-1.19c2.64-1.8,4.43-4.57,6.25-7.19
	c3.77-5.42,8-10.52,12.63-15.23c3.28-3.34,6.79-6.5,9.46-10.35c5.22-7.51,6.79-16.87,8.23-25.9c0.29-1.81,0.58-3.68,0.11-5.46
	c-0.94-3.57-2.39-3-2.5-6.86c-0.13-4.36,1.19-8.1-0.15-12.52c-0.31-1.02-0.96-2.18-2.02-2.15c-0.74,0.02-1.3,0.63-1.76,1.22
	c-3.46,4.47-5.43,9.87-8.06,14.86c-10.35,19.6-30.43,31.99-50.5,41.4c-3.1,1.45-6.27,2.87-9.65,3.37
	c-9.23,1.35-17.89-4.28-25.53-9.65c-3.11-2.19-6.23-4.38-9.34-6.57c-3.2-2.25-6.55-4.66-8.21-8.21c-2.75-5.87-0.08-12.74-0.31-19.22
	c-0.59-0.28-1.17-0.57-1.76-0.85c-0.65-1.52,0.06-3.35,1.28-4.46c1.43-1.3,3.14-2.16,4.43-3.33c1.77-1.61,2.31-3.22,4.96-3.94
	c2.45-0.66,5.04-0.49,7.57-0.68c13.73-1.04,24.53-12.48,37.91-15.73c5.49-1.33,11.58-1.36,16.14-4.69
	c7.5-5.48,13.16-11.96,22.11-15.42c9.92-3.83,21.43-2.12,30.87-6.56c16.32-7.67,15.62-34.66,32.12-41.95
	c8.5-3.76,19.6,0.23,23.78,8.53c8.25,16.41-10.28,36.99-2.63,53.69c-14.65,28.36-31.19,55.74-49.46,81.91
	c-8.03,11.49-17.43,23.49-30.98,27.09"/>
<path class="st1" d="M139.27,574.34c0.34-0.22,0.68-0.45,1.01-0.68"/>
<path class="st1" d="M176.97,456.53c4.66-1.87,9.64-2.82,14.38-4.47c12.94-4.5,23.89-14.44,29.63-26.88
	c2.16-4.68,3.64-9.74,6.76-13.84c3.12-4.09,8.56-7.05,13.41-5.33c4.42,1.57,6.76,6.28,8.66,10.56c1.47,3.31,2.97,6.92,2.13,10.44
	c-1.69,7.08-11.45,9.36-14.12,16.13c-3.17,8.04,5.14,15.47,11.54,21.28c1.27,1.15,2.59,2.54,2.63,4.25
	c0.03,1.12-0.51,2.17-1.03,3.16c-15.02,28.42-31.97,55.82-50.7,81.95c-7.61,10.62-17.26,22-30.31,22.56
	c-1.68-3.64-3.36-7.28-5.05-10.91c-0.78-1.69,13.08-17.09,14.7-19.2c-0.83,1.55-3.34,3.28-4.74,1.28c-0.97-1.39-0.58-3.27-0.14-4.9
	c3.5-12.71,8.41-26.1,4.48-38.68c-11.08,6.87-17.43,19.22-26.92,28.16c-6.82,6.42-15.35,10.96-24.43,13.22
	c-4.49,1.12-9.26,1.82-13.9,1.65c-6.24-0.23-5.15-2.52-5.76-8.36c-0.27-2.62-10.07-2.91-6.06-10.59c2.05-3.92,7.84-3.45,11.42-5.12
	c9.22-4.31,16.03-12.43,21.94-20.45C147.54,486.12,156.94,464.57,176.97,456.53z"/>
<path class="st2" d="M113.33,485.44c4.68-2.65,9.53-6.26,14.84-5.38c1.64,0.27,3.22,0.98,4.88,0.98c2.75,0,5.08-1.89,7.58-3.05
	c4.99-2.33,10.79-1.78,16.27-1.17c6.26,0.69,12.52,1.38,18.78,2.07c3.96,0.44,7.93,0.87,11.89,1.31
	c-2.37,9.63-8.89,17.62-15.22,25.26c-2.63,3.17-5.28,6.36-8.27,9.2c-5.02,4.75-10.93,8.44-16.79,12.1c-4.3,2.68-8.6,5.36-12.9,8.04
	c-7.27,4.53-15.17,9.23-23.71,8.66c-9.74-0.65-18.34-9.14-19.13-18.87c-1.17-0.77-2.34-1.53-3.51-2.3
	c1.37-3.94,2.75-7.88,4.12-11.83c-3.1-1.57-6.2-3.14-9.29-4.7c0.32-1.89,1.46-3.62,3.07-4.66c-1.42-0.49-2.65-1.26-3.7-2.31
	C88.2,488.04,103.32,491.11,113.33,485.44z"/>
<path class="st3" d="M126,484.46c-4.31,4.66-10.71,7.3-17.05,7.03c4.83,1.02,9.89,0.91,14.67-0.32c-3.06,2.85-6.12,5.7-9.18,8.55
	c4.07,2.29,8.91-0.81,12.82-3.36c6.92-4.52,14.74-7.66,22.87-9.18c-6.21,3.42-12.41,6.84-18.62,10.26
	c-9.59,5.29-20.07,10.75-30.92,9.19c3.66,3.53,8.99,5.26,14.02,4.54c0,2.43-4.14,2.34-5.31,4.47c-0.63,1.14-0.18,2.54-0.13,3.84
	c0.05,1.3-0.77,2.94-2.05,2.71c4.92,3.04,10.81,4.49,16.58,4.09c-3.12,2.97-6.69,5.45-10.55,7.35c2.93,2.23,6.61,3.44,10.29,3.4
	c-4.75,2.72-10.24,4.71-15.63,3.78s-10.4-5.59-10.17-11.05c0.1-2.41,1.12-5.02-0.11-7.09c-1.44-2.43-4.98-2.48-7.16-4.26
	c-6.18-5.05-4.25-18.29,1.11-22.44C99.11,490.07,116.68,487.8,126,484.46z"/>
<path class="st3" d="M165.84,568.91c5.43-4.3,10.6-8.91,15.5-13.81c0.16,2.18,0.33,4.37,0.49,6.55c1.43-0.42,2.85-0.83,4.28-1.25
	c-2.19,7.11-7.09,13.36-13.48,17.17c-1.22,0.73-2.68,1.38-4.01,0.88c-1.23-0.46-1.89-1.75-2.45-2.94c-1.29-2.74-2.59-5.48-3.88-8.22
	"/>
<path class="st4" d="M214.25,496.52c0.46,12-11.8,21.37-12.33,33.37c5.81-9.13,9.49-19.6,10.68-30.36"/>
<path class="st4" d="M70.28,543.46c3.16-0.2,7.28-0.15,10.69-1.32c18.93-1.22,36.75,9.67,54.36-2.24
	c28.95-19.78,44.9-60.98,43.23-58.19c-1.38,2.31-2.13,4.93-3.12,7.43c-1.69,4.27-4.12,8.22-6.71,12.02
	c-7.23,10.6-14.97,21.48-25.42,29.07c-12.64,9.18-30.22,14.49-44.21,7.16c-0.96-0.5-1.99-1.19-2.18-2.25
	c-0.22-1.23,0.78-2.29,1.62-3.21c2.26-2.52,3.68-6.64,1.31-9.1c-2.19-2.28-6.59-1.94-8.03-4.74c-1.61-3.13,1.89-7.9-1-9.97
	c-1.06-0.75-2.51-0.64-3.7-1.17c-4.69-2.08-0.87-10.24-4.65-13.68c-7.08-6.45-18.22,2.45-27.17,5.8
	c-17.07,6.39-39.01-1.67-53.12,9.69c-0.81,0.66-1.61,1.41-1.96,2.38c-0.49,1.37-0.02,2.89,0.53,4.26
	c3.07,7.69,8.47,14.49,15.3,19.33C33.12,541.41,51.97,542.5,70.28,543.46z"/>
<path class="st5" d="M170.09,476.15c1.25-2.65,3.09-5.14,4.32-6.82c2.56-3.5,5.94-6.29,9.29-9.05c3.61-2.97,7.21-5.93,10.82-8.9
	c0.97-0.79,1.99-1.62,3.22-1.83c1.24-0.21,2.48,0.23,3.7,0.54c6.21,1.58,13.22-0.51,17.56-5.23c-2.76,3.01-7.38,4.29-10.23,7.24
	c-2.49,2.57-3.08,5.46-6.92,6.79c-0.41,0.14-0.84,0.27-1.12,0.6c-0.27,0.33-0.33,0.78-0.35,1.2c-0.19,3.58,0.96,7.45-0.76,10.6
	c-2.18,4-7.96,4.84-10.3,8.75c-1.45,2.43-1.69,6.07-4.38,6.96c-0.62,0.21-1.29,0.21-1.95,0.22c-2.05,0.02-4.11,0.04-6.16,0.05
	c-2.07,0.02-4.33-0.03-5.93-1.33C167.79,483.42,168.43,479.65,170.09,476.15z"/>
<path class="st4" d="M200.7,463.71c-0.43,34.52-12.46,68.83-35.43,95.33c-9.89,11.41-24.5,11.55-38.35,13.23
	c-13.13,1.59-26.12,4.16-39.24,5.84c-6.25,0.8-12.02,1.68-18.23,0.79c-6.91-1-13.83-1.95-20.75-2.87c-0.87-0.11-1.77-0.23-2.6,0.04
	c-0.83,0.27-1.58,1.03-1.52,1.9c0.08,1.27,1.55,1.84,2.61,2.54c1.43,0.95,2.33,2.5,3.49,3.76c2.67,2.91,8.46,2.93,12.12,3.23
	c4.77,0.4,9.57,0.37,14.35,0.38c23.41,0.05,46.83,0.09,70.24,0.14c5.94,0.01,12.04-0.01,17.57-2.14c5.57-2.15,10.56-4.63,14.91-8.65
	c-2.63-1.09-4.33-4-3.96-6.77c-5.48,2.3-12.25,1.28-16.76-2.54c16.82-14.77,34.75-31.57,37.33-53.56c0.77-6.59,0.09-13.37,1.76-19.8
	c0.95-3.63,2.63-7.06,3.48-10.71C203.26,477.27,202.27,470.37,200.7,463.71z"/>
<path class="st6" d="M253.35,472.13c-6.77-4.25-11.77-11.23-13.62-19c-1.06-4.46-1.04-9.45,1.46-13.3c2.13-3.28,5.78-5.32,8.05-8.52
	c3.53-4.99,2.82-12.42-1.36-16.88c-4.18-4.46-11.28-5.72-16.89-3.3c-1.41,0.61-2.76,1.44-3.75,2.62c-2.45,2.9-2.24,7.34-0.52,10.72
	c1.72,3.38,4.66,5.94,7.54,8.42c-2.93-3.25-4.93-7.33-5.69-11.64c-0.17-0.96-0.27-1.97,0.08-2.88c0.4-1.02,1.31-1.75,2.25-2.31
	c6.23-3.76,15.71-1.49,16.77,6.46c0.93,6.95-6.95,11.01-9.39,16.9C233.83,450.08,234.78,479.43,253.35,472.13z"/>
<path class="st7" d="M166.75,470.23c-1.09,0.59-2.21,1.14-3.46,1.54c-0.45,0.14-7.57,1.19-7,0c3.47-7.16,11.82-10.48,19.64-11.87
	c5.42-0.96,10.95-1.3,16.3-2.64c5.33-1.33,9.59-3.92,14.18-6.83c4.82-3.05,9.9-6.39,12.25-11.59c1.8-3.98,2.63-9.55,6.91-10.45
	c-0.14,3.64,2.52,7.19,6.04,8.09c-3.64,5.33-6.15,11.43-7.31,17.77c-0.18,0.98-0.3,2.08,0.26,2.91c0.71,1.03,2.16,1.16,3.39,1.4
	c5.4,1.05,9.1,5.89,12.29,10.37c1.85,2.61,3.75,6.09,2.01,8.77c-1.57,2.42-5.1,2.47-7.88,1.71c-2.78-0.76-5.63-2.05-8.43-1.35
	c-5.2,1.3-7.44,8.79-12.8,9.15c-5.79-4.05-3.56-13.77-8.27-19.04c-3.98-4.44-11.3-3.79-16.53-0.93c-3.74,2.04-6.88,4.94-10.29,7.47
	c-1.98,1.47-6.35,5.22-8.96,5.05c-2.44-0.16-4.42-3.17-2.11-4.87c0.71-0.52,1.56-0.85,2.27-1.37c0.84-0.6,1.48-1.45,2.33-2.04
	c0.94-0.66,2.08-0.97,3.16-1.38c1.94-0.74,3.74-1.82,5.29-3.19c-3.17-0.68-6.56-0.25-9.45,1.21
	C169.24,468.78,168.01,469.54,166.75,470.23z"/>
<path class="st8" d="M232.86,425.02c1.54,1.7,3.69,2.79,5.93,3.27c1.38,0.3,2.87,0.37,4.14-0.23c2.28-1.07,3.13-3.9,3.15-6.42
	c0.01-0.76-0.04-1.55-0.41-2.22c-0.37-0.69-1.04-1.17-1.7-1.6c-2.59-1.68-6.99-4.44-9.8-1.9
	C231.83,418.04,230.67,422.6,232.86,425.02z"/>
<path class="st9" d="M238.07,412.08c1.64-0.18,3.42,0.23,4.59,1.49c0.73,0.77,1.17,1.8,1.65,2.77c0.57,1.14,1.21,2.25,1.6,3.48
	c0.39,1.23,0.52,2.61,0.06,3.81c-0.71,1.8-2.53,2.7-4.21,3.41c-0.92,0.39-1.84,0.76-2.82,0.92c-2.33,0.38-4.79-0.61-6.42-2.47
	c-1.63-1.86-2.42-4.51-2.22-7.07c0.05-0.67,0.17-1.33,0.43-1.94C231.93,413.66,235.44,412.36,238.07,412.08z"/>
<path class="st10" d="M232.22,417.96c0.1-0.78,0.33-1.57,0.85-2.15c0.34-0.38,0.78-0.64,1.21-0.9c0.67-0.39,1.34-0.79,2.06-1.06
	c1.44-0.53,3-0.53,4.52-0.41c0.8,0.07,1.61,0.17,2.34,0.5c1.62,0.74,2.59,2.6,2.59,4.43c0,1.83-0.86,3.59-2.09,4.92
	c-1.8,1.94-4.63,4.28-7.25,3.13C233.43,425.11,231.79,421.18,232.22,417.96z"/>
<path class="st11" d="M239.17,426.02c1.58-0.49,2.85-1.66,3.96-2.89c0.49-0.54,0.96-1.1,1.31-1.74c0.98-1.8,0.79-4.23-0.62-5.72
	c-1.41-1.49-3.99-1.76-5.57-0.45c-1.75,1.45-4.46,3.19-4.5,5.46c-0.01,0.6,0.12,1.19,0.27,1.77c0.32,1.18,0.82,2.39,1.79,3.13
	C236.83,426.35,237.95,426.4,239.17,426.02z"/>
<path class="st4" d="M238.51,422.48c0.59,0.34,1.28,0.5,1.97,0.46c0.31-0.64,0.17-1.48-0.35-1.98s-1.35-0.63-1.99-0.3
	c-0.31,0.69-0.4,1.49-0.25,2.23c0.39,0.18,0.83,0.27,1.26,0.27"/>
<path class="st12" d="M46.46,576.61c-0.75-1.42,0.38-3.25,1.87-3.84c1.49-0.59,3.17-0.32,4.76-0.06c4.95,0.79,9.96,1.31,14.97,1.31
	c3.38,0,6.76-0.23,10.14-0.46c3.6-0.25,7.2-0.49,10.8-0.74c4.98-0.34,9.97-0.68,14.93-1.28c6.1-0.74,12.15-1.88,18.2-3.01
	c5.38-1.01,10.76-2.02,16.14-3.03c4.61-0.86,10.3-1.33,13.05,2.46"/>
<path class="st12" d="M53.35,572.77c0,1.61,0,3.23,0,4.84"/>
<path class="st12" d="M61.33,574.48c0,1.42,0,2.85,0,4.27"/>
<path class="st12" d="M57.62,573.34c0,1.61,0,3.23,0,4.84"/>
<path class="st12" d="M49.01,572.21c0.09,1.61,0.17,3.23,0.26,4.84"/>
<path class="st12" d="M70.44,573.34c0,1.99,0,3.99,0,5.98"/>
<path class="st12" d="M75.84,573.63c0,2.47,0,4.93,0,7.4"/>
<path class="st12" d="M82.39,573.06c0,1.9,0,3.8,0,5.69"/>
<path class="st12" d="M89.46,572.78c0.11,2.09,0.23,4.17,0.34,6.26"/>
<path class="st12" d="M97.48,571.92c0,1.9,0,3.8,0,5.69"/>
<path class="st12" d="M93.21,572.49c0,1.8,0,3.61,0,5.41"/>
<path class="st12" d="M104.88,571.35c0,2.18,0,4.37,0,6.55"/>
<path class="st12" d="M109.72,570.21c0,1.61,0,3.23,0,4.84"/>
<path class="st12" d="M113.42,570.21c0,1.52,0,3.04,0,4.56"/>
<path class="st12" d="M118.55,568.5c0,1.99,0,3.99,0,5.98"/>
<path class="st12" d="M146.19,570.77c-0.66-1.7-0.85-3.59-0.54-5.39C144.73,567.02,145.94,568.91,146.19,570.77z"/>
<path class="st12" d="M140.39,565.02c-1.17,1.43-1.5,3.49-0.83,5.21"/>
<path class="st12" d="M135.06,566.51c0,1.8,0,3.61,0,5.41"/>
<path class="st12" d="M131.08,566.79c0,2.85,0,5.69,0,8.54"/>
<path class="st12" d="M125.67,567.65c0,0.47,0,0.95,0,1.42c0,1.33,0,2.66,0,3.99"/>
<path class="st12" d="M63.89,573.91c0,1.52,0,3.04,0,4.56"/>
</svg>
