<!-- Generator: Adobe Illustrator 23.0.4, SVG Export Plug-In  -->
<svg version="1.1" xmlns="http://www.w3.org/2000/svg" xmlns:xlink="http://www.w3.org/1999/xlink" x="0px" y="0px"
	 width="229.08px" height="254.54px" viewBox="0 0 229.08 254.54" style="enable-background:new 0 0 229.08 254.54;"
	 xml:space="preserve">
<style type="text/css">
	.st0{fill:#F7F1ED;}
	.st1{fill:#F7F0F0;}
	.st2{fill:url(#SVGID_1_);}
	.st3{fill:url(#SVGID_2_);}
	.st4{fill:url(#SVGID_3_);}
	.st5{fill:#9E826F;}
	.st6{opacity:0.6;fill:url(#SVGID_4_);}
	.st7{fill:#0C0600;}
	.st8{opacity:0.5;fill:#332A24;}
	.st9{fill:#332A24;}
	.st10{fill:url(#SVGID_5_);}
	.st11{fill:url(#SVGID_6_);}
	.st12{fill:url(#SVGID_7_);}
	.st13{opacity:0.6;fill:url(#SVGID_8_);}
</style>
<defs>
</defs>
<path class="st0" d="M17.87,78.89c6.62,6.44,13.93,10.78,22.52,13.53c8.26,2.64,16.6,3.67,24.89,5.38
	c5.89,1.21,11.67,3.6,17.44,5.35c8.1,2.45,16.13,5.22,24.18,8.09c6.33,2.26,10.25,6.62,15.67,10.65c4.96,3.69,9.62,7.11,14.27,11.33
	c5.23,4.74,7.74,10.06,10.88,15.57c1.85,3.25,3.77,6.75,6.15,9.61c3.33,4.01,9.09,6.37,11.68,10.97c2.72,4.84,3.2,12.22,4.64,17.61
	c1.24,4.67-0.11,8.42,0.96,12.95c0.76,3.22,2.87,6.1,3.6,9.34c0.85,3.82,1.23,7.52,1.47,11.19c0.19,2.96-0.22,4.72-0.56,7.5
	c-0.5,4.06,0.03,4.81,1.85,8.49c1.6,3.23,2.71,6.97,4.3,10.23c1.4,2.88,3.33,4.46,4.92,7.12c7.29-7.41,16.66-16.25,19-26.7
	c1.39-6.2,1.74-13.28,4.08-19.6c3.75-10.12,0.14-20.78,4.19-31.25c1.91-4.93,2.12-6.45,1.11-11.6c-0.98-5,0.07-8.19,0.54-13.23
	c0.3-3.24,0.07-5.36-0.8-8.49c-1.51-5.44-2.42-11.69-4.8-16.75c-9.82-20.87-33.53-34.19-53.48-43.07
	c-9.3-4.14-14.48-8.16-24.09-7.03c-8.12,0.95-16.11-2.91-24.04-5.16c-6.56-1.86-11.9-5.91-18.09-8.08
	c-7.69-2.69-17.77-7.64-26.13-8.82c-4.74-0.67-9.03-0.52-13.83-2.02c-2.39-0.75-3.77-2.14-5.91-3c-3.38-1.36-2.12-1.53-5.71-0.39
	c-3.2,1.02-2.39,2.85-6.22,1.66c-6.92-2.14-0.8-5.9-2.49-10.44c-2.55-6.89-6.23,1.38-10.11-2.57c-3.02-3.08,0.48-4.35,0.21-7.4
	c-0.29-3.22-3.97-7.12-7.31-7.62C4.96,21.09-2.12,30.44,0.59,37.37c1.68,4.3,3.54,7.5,6.51,11.35c3.73,4.83,2.57,7.71,3.04,12.6
	C10.73,67.44,13.45,74.59,17.87,78.89z"/>
<path class="st1" d="M24.68,37.52c2.92,3.39,1.23,9.17,4.41,10.69c4.4,2.1,10.6-2.21,14.37-4.01c6.35,5.08,10.37,7.94,18.36,10.37
	c6.34,1.93,11.57,2.66,17.54,5.38c3.47,1.58,6.21,1.94,9.74,2.79c5.81,1.41,10.93,5.93,17.04,7.57c6.85,1.84,13.57,3.8,20.57,4.4
	c11.15,0.96,21.58,2.25,31.94,6.58c7.19,3.01,14,7.43,20.79,12.14c15.42,10.69,29.34,25.66,30.08,45.26
	c0.41,10.84,0.92,21-0.8,31.84c-0.66,4.14-2.62,8.66-2.85,12.71c-0.21,3.85,1.09,6.77,0.65,10.61c-0.72,6.25-2.86,11.94-3.9,17.93
	c-0.65,3.72,0.16,7.32-1.1,11.24c-2.03,6.32-4.56,10.38-9,15.38c-3.22,3.62-7.06,6.65-6.96,11.59c0.09,4.8,1.39,5.31,5.84,3.82
	c10.22-3.41,16.88-10.65,22.06-20.25c-3.48-5.17,0.91-10.52,1.76-15.41c1.15-6.59,2.74-12.77,3.83-19.15
	c1.9-11.24,6.16-21.78,8.47-32.6c4.23-19.8-0.01-40.1-12.92-55.85c-7.71-9.4-17.66-17.16-26.33-25.65
	c-10.2-9.98-20.33-20.08-31.48-29c-5.85-4.67-13.05-8.04-17.38-14.31c-3.16-4.58-3.14-7.77-8.47-9.88
	c-7.81-3.09-14.89-5.36-21.47-11.22C103.66,15.34,98.2,9.12,91.81,4.79c-10.29-6.97-30.1-4.96-41.99-2.51
	c-7.26,1.5-14.26,8.32-19.88,13.52c-4,3.7-11.12,9.02-12.66,14.52c-0.59,2.09-0.56,4.99,1.12,6.61
	C19.81,38.27,24.71,37.56,24.68,37.52z"/>
<linearGradient id="SVGID_1_" gradientUnits="userSpaceOnUse" x1="217.9908" y1="230.3202" x2="309.7068" y2="138.6042" gradientTransform="matrix(0.6646 -0.7472 0.7472 0.6646 -235.0576 172.3786)">
	<stop  offset="0" style="stop-color:#A36120"/>
	<stop  offset="1" style="stop-color:#FFFFFF"/>
</linearGradient>
<path class="st2" d="M4.09,37.19c2.48,7.39,2.68,11.42,8.42,16.86c5.96,5.66,11.81,11.03,19.48,14.13
	c5.61,2.26,12.25,2.9,17.74,4.91c6.97,2.55,13.87,3.35,21.16,5.46c13.47,3.9,27.19,7.96,40.8,12.86c10.5,3.78,20.3,13.48,28.55,21.4
	c6.63,6.37,11.63,16.18,11.61,25.54c-0.01,5.35,1.61,15.7-0.08,20.13c-1.12-2.59-1.67-5.98-2.72-8.37c-1.24-2.8-4.16-6.19-6.34-9.18
	c-7.09-9.66-15.43-18.48-25.27-25.66c-7.15-5.21-17.61-7.14-26.13-8.16c-11.07-1.32-23.02-5.91-34.05-8.35
	c-9.16-2.03-17.14-2.26-24.56-8c-7.35-5.7-14.96-9.5-19.4-18.04C8.25,62.99,2.89,53.18,3.7,41.56c0.08-1.11,0.47-1.92,0.47-2.96"/>
<path class="st0" d="M150.7,158.24c3.58,4.15,9,4.48,13.13,8.33c-4.45-6.01-4.47-12.38-10.47-17.24c-0.45,1.44-0.34,2.67,0.85,4.1
	C153.11,155.16,152.17,156.68,150.7,158.24"/>
<linearGradient id="SVGID_2_" gradientUnits="userSpaceOnUse" x1="288.6176" y1="158.2207" x2="349.2908" y2="158.2207" gradientTransform="matrix(0.6646 -0.7472 0.7472 0.6646 -235.0576 172.3786)">
	<stop  offset="0" style="stop-color:#A36120"/>
	<stop  offset="1" style="stop-color:#FFFFFF"/>
</linearGradient>
<path class="st3" d="M60.31,35.68c0.38-2.31-0.77-4.48-2.82-5.75c-2.34,1.83-1.87,3.46-2.52,5c-0.48,1.14,0.18,4.05-2.29,4.71
	c-5.83,1.56-4.7-6.67-4.25-9.21c2.39-13.53,10.49-3.41,19.69-5.23c4.12-0.81,6.74-3.38,9.64-6.12c5.07-4.8,5.46-3.85,12.5-1.6
	c7.76,2.49,10.51,4.67,16.64,10.12c3.84,3.42,7.52,4.9,11.45,7.41c4.43-4.77,5.27-3.29,11.47-2.25c6.08,1.02,7.33,1.71,8.3,8.56
	c0.74,5.29,2.94,13.07-2.48,16.42c-4.28,2.64-8.67,0.74-13.08,1.22c-2.32,0.25-5.25,3.57-6.5,3.62c-8.1,0.3,1.7-13.92,4.62-15.94
	c1.22-0.84,6.3-2.03,6.68-3.54c0.87-3.44-4.26-2.36-6.18-2.13c-3.12,0.37-6.63,2.82-9.8,2.02c-2.68-0.68-4.14-3.83-7.33-4.02
	c-1.74-0.11-3.17,0.99-4.82,1.83c-0.91,0.46-1.31,2.24-2.33,2.52c-2.03,0.56-4.43-1.42-6.52-0.92c-3.86,0.93-3.46,4.53-6.98,6.45
	c-3.76,2.05-8.01-0.62-11.72-1.87c-3.92-1.33-13.75-6.76-11.41-12.01"/>
<linearGradient id="SVGID_3_" gradientUnits="userSpaceOnUse" x1="280.6724" y1="111.7838" x2="280.6724" y2="97.7132" gradientTransform="matrix(0.6646 -0.7472 0.7472 0.6646 -235.0576 172.3786)">
	<stop  offset="0" style="stop-color:#724802"/>
	<stop  offset="1" style="stop-color:#9B6719"/>
</linearGradient>
<path class="st4" d="M21.12,31.59c-3.14,6.2,1.44,5.11,4.7,1.6c2.28,1.82,4.44,3.93,6.69,5.79c1.74-1.75,3.36-3.97,5.28-5.16
	c-5.44-4.01,2.32-7.37-4.84-9.47c-5.63-1.65-7.77,2.68-11.17,6.5"/>
<path class="st5" d="M44.86,50.04c3.76,3.96,13.29,6.11,18.49,7.62c4.71,1.37,11.31,3.61,15.51,4.69c3.19,0.82,6.6,1.34,9.81,2.57
	c12,4.59,24.93,8.58,37.51,11.29c11.38,2.45,24.04,5.55,34.19,11.67c11.19,6.75,21.05,14.87,30.71,23.98
	c6.62,6.25,10.59,13.51,13.63,21.66c2.04,5.46,0.39,11.42,0.43,17.06c0.05,5.39,2.39,11.51,1.59,16.73
	c-0.42,2.79-2.22,5.71-2.76,8.89c-1.11,6.65-3.94,13.68-5.63,20.42c-1.28,5.09,0.36,9.52-1.68,14.58
	c-2.08,5.18-2.53,9.64-3.85,15.23c-1.66,7.04-2.73,13.53-3.18,20.65c4.7-2.86,10.77-12.85,12.11-18.5
	c1.9-8.02,3.78-16.02,6.06-23.94c1.42-4.94,0.86-10.2,2.09-15.34c0.88-3.64,2.36-7.09,3.37-10.45c2.67-8.88,3.49-19.43,4.81-28.68
	c2.04-14.26-13.57-33.97-22.12-44c-10.84-12.72-25.68-18.66-39.57-26.67c-7.5-4.32-10.6-8.41-18.82-6.55
	c-10.01,2.27-23.12-1.79-32.65-4.86c-12.42-4-25.33-8.08-38.16-10.85c-7.16-1.55-12.85-4.45-20.08-6.24"/>
<linearGradient id="SVGID_4_" gradientUnits="userSpaceOnUse" x1="289.9474" y1="133.7082" x2="318.6884" y2="133.7082" gradientTransform="matrix(0.6646 -0.7472 0.7472 0.6646 -235.0576 172.3786)">
	<stop  offset="0" style="stop-color:#724802"/>
	<stop  offset="1" style="stop-color:#9B6719"/>
</linearGradient>
<path class="st6" d="M57.74,28.04c-3.09,3.5-4.63,6.97-6.82,10.56c-3.48-2.16-5.09-9.4-3.61-13.15c2.24-5.67,7.19-1.81,11.65-0.88
	c5.72,1.2,8.18,1.03,13.83,0.11c3.86-0.63,8.36,1.96,11.3,5.2c2.23,2.46,4.48,7.98,2.81,12.05c-2.83,6.91-8.18,4.85-13.66,3.25
	c-3.28-0.96-9.81-0.5-11.75-3.89c-1.73-3.02,1.32-8.55-3.92-10.06"/>
<path class="st7" d="M165.14,72.05c0.86,6.84,3.7,8.64,8.92,13.29c3.94,3.51,8.66,9.52,13.96,10.43
	c11.76,2.01-0.32-10.65-3.82-13.46c-6.17-4.97-13.51-8.81-20.85-10.5"/>
<path class="st7" d="M30.29,49.12c2.55,1.41,4.45,0.82,7.18,1.16c2.62,0.33,4.07,1.09,6.43,1.59c2.9,0.62,11.19,3.13,13.13,1.74
	c-3.79-3.79-8.04-7.55-12.23-10.9c-2.13,3.19-7.61,6.56-11.38,5.29c-0.56,0.78-1.41,0.92-2.04,1.41"/>
<path class="st8" d="M51.51,36.55c4.82,0.56,3.29-10.78,8.44-4.39c1.08,1.34,0.77,4.71,1.77,6.27c1.19,1.87,4.14,4.94,6.21,6.07
	c3.53,1.92,12.66,3.67,13.99-1.49c0.94-3.67-3.05-10.84-5.98-12.73c-6.79,2.43-8.35,1.02-14.66-1.74
	c-5.23-2.29-7.47,0.59-10.91,4.89c0.28,0.42,0.74,0.61,1.01,1"/>
<path class="st0" d="M33.62,94.24c10.21,9.61,21.38,19.2,33.68,25.39c11.64,5.86,24.06,14,37.57,11.88
	c8.98-1.41,19.78-3.41,28.62-6.79c0.94-0.36,1.79-0.8,2.7-1.26c-6.7,3.38-17.83,4.62-25.49,5.24c-4.68,0.38-9.92-0.72-14.59-1.62
	c-5.37-1.03-10.79-3.07-16.16-4.2c-5.83-1.23-9.77-5.49-14.67-8.52c-8.65-5.34-16.38-9.84-24.04-16.69
	c-6.81-6.09-16.77-11.89-20.75-19.61c-2.44-4.73-2.85-12.83-7.84-15.76c-2.7-1.59-1.41,6.2-1.22,6.78c1.13,3.49,3.89,6.78,6.2,9.55
	C22.39,84.38,28.2,89.14,33.62,94.24z"/>
<path class="st0" d="M15.42,61.32c9.25,25.16,34.28,39.88,56.22,52.67c11.32,6.6,25.06,7.21,37.75,10.38
	c6.18,1.54,11.73,1.4,17.84,1.6c3.25,0.11,7.14,2.46,9.77-0.57c-7.31-3.91-14.28,1.55-21.75,0.64c-2.97-0.36-6.69-2.89-9.81-3.56
	c-2.49-0.54-4.81-0.9-7.28-1.59c-7.38-2.06-15.65-4.3-22.47-7.82c-13.23-6.82-27.3-18.29-37.06-29.75
	c-1.67-1.96-16.35-24.06-20.25-20.04"/>
<path class="st9" d="M5.33,40.31c5.27,5.62,8.11,11.64,14.83,16.42c5.62,4,11.7,4.37,17.8,5.75c11.82,2.67,21.74,10.5,31.53,16.78
	c-6.6-4.79-19.85-5.23-28.12-7.1c-6.32-1.43-14.05-2.69-19.32-6.27C14.51,60.77,5.21,50.44,3.63,41.47"/>
</svg>
