<!-- Generator: Adobe Illustrator 23.0.4, SVG Export Plug-In  -->
<svg version="1.1" xmlns="http://www.w3.org/2000/svg" xmlns:xlink="http://www.w3.org/1999/xlink" x="0px" y="0px"
	 width="386.49px" height="263.38px" viewBox="0 0 386.49 263.38" style="enable-background:new 0 0 386.49 263.38;"
	 xml:space="preserve">
<style type="text/css">
	.st0{fill:#F9A19D;}
	.st1{fill:#F97D7D;}
	.st2{fill:#F4EDED;}
	.st3{fill:#261919;}
	.st4{fill:#F2E977;}
</style>
<defs>
</defs>
<path class="st0" d="M383.41,235.57c-2.07-45-4.62-91.8-26.25-131.31c-6.76-12.35-14.63-23.73-27.63-29.14
	c-25.88-10.76-54.67-13.28-80.23-24.78c-9.6-4.32-18.6-9.84-27.92-14.73C193.51,21,163.02,12.19,132.77,3.47
	c-6.21-1.79-12.53-3.59-18.99-3.47c-7.67,0.15-15,3.01-22.07,5.98C67.09,16.33,41.74,29.93,29.3,53.56
	c-3.4,6.47-5.69,13.46-7.97,20.41c-4.56,13.94-9.12,27.89-13.69,41.83c-3.2,9.8-4.76,19.77-5.04,29.84
	c24.45,29.47,59.7,46.91,96.21,58.78c0.59-13.12,3.91-26.58,6.59-39.55c0.9-4.36,5.95-6.32,10.31-7.22
	c29.97-6.22,61.75,1.94,91.38-5.73c7.64-1.98,15.04-4.99,22.86-6.07c7.82-1.08,16.46,0.1,22.22,5.49
	c4.12,3.85,6.45,9.53,11.19,12.59c6.74,4.35,15.89,1.94,23.34,4.9c3.81,1.51,6.92,4.33,9.95,7.09c10.23,9.32,20.47,18.66,30,28.7
	c7.3,7.69,14.27,15.93,18.69,25.58c3.81,8.31,5.71,17.64,11.25,24.91c3.33,4.37,8.45,7.97,13.92,7.39
	c5.48-0.59,9.8-5.32,11.59-10.53C383.9,246.74,383.67,241.08,383.41,235.57z"/>
<path class="st1" d="M242.62,110.23c-1.06-4.41-3.18-8.56-6.13-12c-2.1-2.45-4.8-5.67-3.13-8.43c0.68-1.13,1.99-1.81,2.57-3
	c0.88-1.81-0.25-3.9-1.21-5.67c-2.66-4.87-4.3-10.4-3.92-15.94c0.38-5.53,2.95-11.03,7.44-14.29c1.78-1.29,3.93-2.23,6.12-2.06
	c1.52,0.12,2.94,0.76,4.33,1.38c7.55,3.34,15.33,6.17,23.26,8.47c15.73,4.56,32.05,7.02,47.51,12.41
	c15.46,5.4,30.49,14.28,38.93,28.31c0.41,0.67,0.81,1.42,0.74,2.2c-0.13,1.51-1.82,2.27-3.14,3.01c-5.51,3.06-7.62,9.75-9.79,15.67
	c-1.69,4.6-3.69,9.07-5.69,13.54c-2.04,4.57-4.09,9.14-6.13,13.7c-6.65,14.87-13.72,30.3-26.32,40.63
	c-4.33-4.3-9.11-8.89-13.54-13.09c-1.84-1.75-3.75-3.53-6.11-4.49c-2.55-1.04-5.39-1.02-8.14-1.25c-5.66-0.47-11.22-2.05-16.27-4.64
	c-1.51-0.77-3.03-1.69-3.92-3.13c-0.29-0.48-0.51-1-0.72-1.52C252.9,144.22,246.61,126.88,242.62,110.23z"/>
<path class="st2" d="M260.59,162.46c-1.69-17.74-8.07-34.66-14.39-51.33c-2.67-7.04-5.45-14.26-10.52-19.82
	c5.27-1.3,5.85-8.81,3.69-13.79c-2.16-4.98-5.94-9.74-5.36-15.14c0.75-7,8.25-10.97,14.87-13.35c-5.13-2.75-10.26-5.51-15.4-8.26
	c-1.72-0.92-3.61-1.87-5.52-1.51c-1.76,0.33-3.1,1.7-4.47,2.84c-5.8,4.84-13.54,6.48-20.94,7.96c-3.8,0.76-7.76,1.52-11.51,0.54
	c-4.52-1.18-8.01-4.69-12.07-7c-8.92-5.07-21.35-3.53-28.15,4.16s-6.48,20.9,1.23,27.67c4.69,4.11,11.06,5.55,16.8,7.98
	c12.2,5.19,21.7,15.06,30.83,24.67c10.04,10.56,19.63,23.13,30.82,32.44C239.55,148.07,253.35,152.8,260.59,162.46z"/>
<path class="st3" d="M225.77,102.63c13.29,3.79,28.18-4.02,42.2-3.06c8.58,0.59,16.29,4.43,24.6,6.21
	c10.66,2.29,23.09,1.54,30.91,8.65c5.44,4.93,7.34,12.82,6.72,20.37c-0.62,7.55-3.48,14.91-6.44,22.09
	c-4.77,11.56-10,23.17-18.06,33.02c23.18,8.83,37.03,29.87,45.35,52.84c1.77,4.89,3.38,9.94,6.51,14.05
	c3.13,4.1,8.17,7.16,13.62,6.49c6.01-0.74,11.02-5.9,13.24-11.52c2.22-5.62,2.18-11.66,1.98-17.51
	c-1.6-47.53-11.73-94.13-29.79-137.06c-9,8.87-22.81,4.82-34.77,2.93C289.35,94.97,258.59,94.03,225.77,102.63z"/>
<path class="st4" d="M152.89,62.69c4.6,6.55,15.13,7.78,21.12,2.49c1.16-1.03,2.18-2.3,2.5-3.82c0.79-3.76-2.99-6.98-6.67-8.04
	c-3.79-1.09-8.04-0.89-11.49,1.03c-3.45,1.91-5.95,5.65-5.93,9.59"/>
<path class="st3" d="M164.28,58.12c1.18-0.64,2.87,0.27,2.99,1.61s-1.41,2.52-2.68,2.08c-1.27-0.44-1.73-2.31-0.82-3.29"/>
<path class="st0" d="M2.9,138.13c-2.19,5.87-2.26,12.29-2.3,18.56C0.4,184.69,0.2,212.68,0,240.68
	c33.19,9.02,68.51,10.07,102.18,3.03c0.3-23.02,0.59-45.87,0.89-68.89c0.02-1.23,0.02-2.51-0.49-3.62
	c-0.68-1.48-2.14-2.42-3.52-3.28c-15.07-9.48-29.22-20.59-45.38-28.06S19.45,131.59,2.9,138.13z"/>
</svg>
