<!-- Generator: Adobe Illustrator 23.0.4, SVG Export Plug-In  -->
<svg version="1.1" xmlns="http://www.w3.org/2000/svg" xmlns:xlink="http://www.w3.org/1999/xlink" x="0px" y="0px" width="614.1px"
	 height="373.91px" viewBox="0 0 614.1 373.91" style="enable-background:new 0 0 614.1 373.91;" xml:space="preserve">
<style type="text/css">
	.st0{fill:#512B31;}
	.st1{fill:#2C2923;}
	.st2{fill:#F7E2E2;}
	.st3{fill:#F28F6D;}
	.st4{fill:#6C1704;}
	.st5{fill:#671703;}
	.st6{opacity:0.16;fill:#8D6F5E;}
	.st7{opacity:0.34;fill:#8D6F5E;}
	.st8{opacity:0.38;fill:#8D6F5E;}
	.st9{fill:#D89FA5;}
	.st10{fill:#B96646;}
	.st11{fill:#171B19;}
	.st12{fill:#C6C6C6;}
	.st13{fill:#1D1D1B;}
</style>
<defs>
</defs>
<path class="st0" d="M140.39,210.96c1.01,8.56-4.29,16.4-8.6,23.87c-18.18,31.48-21.81,69.87-40.85,100.83
	c-4.55,7.4-10.08,16.56-5.61,24.01c3.77,6.28,30.54-5.91,34.94-11.77c10.56-14.06,22.69-27.39,38-36.03
	c4.67-2.63,9.65-4.85,13.72-8.33c4.57-3.91,7.73-9.19,11.58-13.81c13.96-16.71,36.03-23.8,56.87-30.1
	c1.7,12.64,2.64,25.38,2.82,38.13c3.34-7.66,5.37-15.89,5.96-24.23c0.66,7.57,0.02,15.25-1.88,22.6c3.22-7.41,6.44-14.81,9.66-22.22
	c0.96-2.2,1.93-4.55,1.53-6.92c-0.27-1.55-1.11-2.94-1.93-4.28c-3.59-5.85-7.18-11.69-10.78-17.54c-0.57-0.93-1.18-1.9-2.09-2.51
	c-3.54-2.36-7.54,1.96-10.55,4.95c-5.39,5.35-13.18,7.31-19.95,10.76c-9.15,4.65-16.52,12.08-24.02,19.08
	c-26.2,24.43-55.97,45.04-88.08,60.95c1.97-5.57,5.46-10.45,8.5-15.52c20.57-34.31,20.72-78.59,44.14-111.03"/>
<path class="st0" d="M97.61,223.45c1.01,8.56-4.29,16.4-8.6,23.87c-18.18,31.48-21.81,69.87-40.85,100.83
	c-4.55,7.4-10.08,16.56-5.61,24.01c1.89,3.14,9.52,1.66,17.24-1.33s15.51-7.51,17.71-10.44c10.56-14.06,22.69-27.39,38-36.03
	c4.67-2.63,9.65-4.85,13.72-8.33c4.57-3.91,7.73-9.19,11.58-13.81c13.96-16.71,36.03-23.8,56.87-30.1
	c1.7,12.64,2.64,25.38,2.82,38.13c3.34-7.66,5.37-15.89,5.96-24.23c0.66,7.57,0.02,15.25-1.88,22.6c3.22-7.41,6.44-14.81,9.66-22.22
	c0.96-2.2,1.93-4.55,1.53-6.92c-0.27-1.55-1.11-2.94-1.93-4.28c-3.59-5.85-7.18-11.69-10.78-17.54c-0.57-0.93-1.18-1.9-2.09-2.51
	c-3.54-2.36-7.54,1.96-10.55,4.95c-5.39,5.35-13.18,7.31-19.95,10.76c-9.15,4.65-16.52,12.08-24.02,19.08
	c-26.2,24.43-55.97,45.04-88.08,60.95c1.97-5.57,5.46-10.45,8.5-15.52c20.57-34.31,20.72-78.59,44.14-111.03"/>
<path class="st1" d="M517,44.37c-11.39-7.03-24.09-14.34-37.31-12.22c1.64,3.01,3.28,6.02,4.92,9.03
	c-4.94-2.81-9.88-5.62-14.82-8.43c-0.61,1.85-0.14,4.02,1.19,5.45c-2.69,0.79-4.84-2.13-7.2-3.66c-2.35-1.52-6.88,1-4.79,2.86
	c-6.14-4.68-13.91-7.18-21.63-6.94c-0.82,0.03-1.83,0.22-2.07,1c-0.24,0.78,1.37,1.27,1.27,0.45c-14.87-3.36-29.74-6.73-44.6-10.09
	c-7.9-1.79-16.91-3.38-23.52,1.3c-3.25,2.3-5.4,5.82-8.26,8.59c-9,8.73-24.02,9.29-32.22,18.78c-4.37,5.05-6.66,12.45-12.82,15.01
	c-4.07,1.69-9.09,0.82-12.64,3.42c-3.56,2.61-4.18,7.55-5.71,11.69c-1.53,4.14-5.93,8.32-9.84,6.27c-2.27,3.95-5.9,7.1-10.14,8.79
	c-1.62,0.64-3.37,1.11-4.66,2.28c-2.85,2.57-2.21,7.07-1.88,10.89c2.11,24.56-18.08,46.71-16.82,71.33
	c16.38-10.31,32.77-20.63,49.15-30.94c0.24,2.88,0.48,5.77,0.72,8.65c1.7-2.79,3.4-5.59,5.09-8.38c0.7,2.52,1.94,4.9,3.61,6.92
	c1.82-2.06,2.89-4.78,2.95-7.53c1.33,2.2,3.26,4.03,5.53,5.24c0.23-1.71,0.46-3.43,0.69-5.14c4.89,3.28,12.71-1.23,12.33-7.1
	c2.85,1.83,5.91,3.72,9.3,3.7c3.39-0.03,6.96-2.91,6.37-6.24c1.99,0.96,3.98,1.91,5.96,2.87c0.78-2.12,1.17-4.37,1.15-6.63
	c2.83,0.12,5.52-2.28,5.73-5.1c3.96,3.22,9.28,4.7,14.34,4c0.32-2.03,0.14-4.13-0.52-6.08c0.91,1.09,2.43,1.61,3.81,1.31
	c0.83-1.74,1.65-3.48,2.48-5.21c1.61,0.54,3.22,1.08,4.83,1.61c-1.38-2.61-2.76-5.21-4.13-7.82c1.46,4.57,5.9,8.04,10.69,8.35
	c0.49-2.73,0.36-5.57-0.38-8.24c1.71,1.7,3.42,3.4,5.13,5.1c0.28-1.99,0-4.06-0.79-5.91c1.44,2.86,3.65,5.33,6.34,7.08
	c2.21-1.39,2.93-4.7,1.49-6.88c0.69,3.5,4.22,6.2,7.78,5.95c0.11-2.23-0.63-4.5-2.03-6.24c1.66,3.09,4.2,6.28,7.71,6.48
	c3.51,0.2,6.54-4.87,3.7-6.93c2.29,3.85,6.3,6.64,10.7,7.46c1.18-2.02,1.11-4.7-0.17-6.66c2.1,3.54,4.81,7.48,8.91,7.82
	s7.24-6.36,3.4-7.83c4.15,7.27,12.57,11.87,20.93,11.44c0.42-3.49-0.23-7.1-1.83-10.22c4.37,7.78,13.16,12.86,22.08,12.76
	c-2.51-6.93-5.89-13.55-10.01-19.65c5.6,12.9,18.89,22.09,32.94,22.77c1.86-4.33-1.49-9.14-5.19-12.07
	c-3.69-2.93-8.19-5.48-9.81-9.91c8.87,9.79,21.25,16.33,34.33,18.14c-5.69-6.12-11.38-12.24-17.06-18.36
	c9.22,8.46,18.87,17.18,30.85,20.79c2.78,0.84,6.94,0.48,7.13-2.41c0.11-1.62-1.27-2.91-2.53-3.94
	c-5.68-4.66-11.36-9.32-17.03-13.99c9.12,8.66,20.14,15.3,32.06,19.32c3.74,1.26,9.48,1.06,9.79-2.88
	c-9.9-7.27-19.81-14.53-29.71-21.8c11.62,9.71,24.77,17.6,38.81,23.29c2.62,1.06,5.44,2.06,8.22,1.55c2.78-0.51,5.37-3.14,4.8-5.91
	c-0.57-2.83-3.77-4.15-6.5-5.1c-16.35-5.73-31.35-15.26-43.48-27.62c18.19,11.08,36.45,22.22,52.8,35.88
	c4.23,3.54,10.63,7.27,14.62,3.47c-15.61-15.81-32.09-30.76-49.33-44.77c12.36,8.63,24.71,17.26,37.07,25.9
	c4.46,3.12,9.32,6.62,14.83,7.15c-2.56-3.58-6.63-6.54-6.21-10.3c0.15-1.35,4.64-1.4,4.92-3.82c0.86-7.44-22.49-17.89-27.2-20.79
	C562.74,72.59,539.87,58.47,517,44.37z"/>
<path class="st2" d="M379.09,196c-2.01-13.57-7.02-26.45-8.93-40.04c-0.86-6.07-1.71-12.13-2.57-18.2
	c-10.19-12.34-22.54-22.88-36.32-31.02c-7.77-4.59-16.58-8.52-25.53-7.37c-12.17,1.55-21.51,12.39-25.1,24.13
	s-2.57,24.32-1.52,36.54c0.77,8.92,1.53,17.84,2.3,26.76c0.83,9.63,1.34,20.35-4.77,27.85c-1.31,1.6-3.02,3.06-5.08,3.28
	c-3.17,0.35-5.87-2.28-7.65-4.93c-9.6-14.28-7.15-33.38-2.13-49.84s12.31-32.87,11.23-50.04c-0.16-2.56-0.5-5.18,0.15-7.66
	c1.25-4.78,10.93-23.37,6.05-24.14c-2.22,4.81-5.63,9.06-9.83,12.29c-0.29-3.53,0.31-7.13,1.73-10.37c-3.13,0.03-6.27,0.06-9.4,0.08
	c5.22-2.44,9.58-6.69,12.15-11.85c-2.5-3.66-8.06-1.3-12.21,0.25c-14.1,5.28-29.88-3.85-44.7-1.21c-4.81,0.86-9.33,2.93-14.09,4.03
	c-7.04,1.63-14.36,1.08-21.58,0.79c-25.76-1.05-51.52,1.2-77.2,3.46c10.59,2.89,21.19,5.79,31.78,8.68
	c10.48,2.86,20.96,5.73,31.44,8.59c5.3,1.45,11.01,3.17,14.25,7.61c-6.27,0.04-12.53-2.21-17.33-6.24
	c-0.07,2.28-0.14,4.56-0.21,6.83c-1.75,1-3.72,1.6-5.73,1.74c2.47,8.07,18.67,2.34,21.34,10.35c-9.07-9.4-56.53,14.05-55.58,24.19
	c-32.05-1.95-64.09,11.47-43.99,23.3c-1.26,8.53-2.51,17.06-3.77,25.59c-0.25,1.68-0.49,3.42-0.01,5.04
	c0.58,1.95,2.11,3.44,3.43,4.99c2.84,3.34,4.91,7.35,5.97,11.61c1.71,6.82,2.08,15.8,8.73,18.06c2.75,0.93,5.75,0.26,8.57-0.42
	c9.46-2.27,18.92-4.55,28.39-6.82c3.18-0.76,6.53-1.62,8.81-3.97c3.71-3.81,17.72-8.22,21.59-5.19c5.32,4.17,12.63,4.43,19.39,4.51
	c8.01,0.09,16.2,0.15,23.8-2.41c7.59-2.56,14.61-8.29,16.47-16.08c4.74,21.23,18.52,40.29,37.2,51.45
	c4.89,2.92,10.2,5.35,15.86,5.95c14.76,1.55,28.47-10.21,33.44-24.2s2.96-29.47-0.64-43.86s-8.77-28.52-10.03-43.31
	c-0.53-6.23-0.27-12.86,2.97-18.21c3.23-5.36,10.22-8.85,15.97-6.38c6.05,2.61,8.12,10.19,8.12,16.78s-1.25,13.46,1.19,19.58
	c3.22,8.09,11.85,12.49,17.41,19.21c6.12,7.4,7.26,20.79,9.19,29.87c2.72,12.75,6.83,25.1,7.51,38.29c1.34,0.89,2.89-0.8,3.62-2.23
	C371.1,226.34,381.62,213.66,379.09,196z"/>
<path class="st3" d="M266.03,71.17c24.52-15.55,49.03-31.09,73.55-46.64c11.16-7.08,22.35-14.17,34.28-19.85
	c4.63-2.2,9.46-4.21,14.57-4.6c5.78-0.44,11.5,1.21,17.06,2.84c13.68,4.02,27.36,8.05,41.04,12.07c5.66,1.66,11.4,3.36,16.42,6.46
	c3.91,2.41,7.33,5.65,11.56,7.44c4.71,2,9.98,2.03,15.02,2.96c5.03,0.93,10.35,3.19,12.52,7.83c-5.47,0.67-11.2-1.26-15.16-5.1
	c-0.48,1.85-1.04,3.82-2.49,5.07c-1.45,1.25-4.09,1.28-4.97-0.42c0.76,2.25-2.15,4.33-4.46,3.78c-2.31-0.55-3.89-2.61-5.29-4.54
	c-2.63,3.72-9.31,3.16-11.3-0.93c-1.82,3.14-7.28,2.96-8.9-0.28c-0.27,2.16-2.01,4.06-4.14,4.51
	c-12.72-16.64-41.98-6.56-57.88-20.18c0.61,3.47,0.67,8.04-2.58,9.4c-1.7,0.71-3.62,0.15-5.46-0.02c-4.67-0.44-9.16,1.69-13.3,3.88
	c-20.93,11.1-40.12,25.48-56.65,42.46c-1.85,1.9-3.78,3.91-6.31,4.74c-2.53,0.82-5.82,4.75-7.81,7.65s-23.75,20.8-21.14,10.88
	c-0.89-2.07,4.49-12.55,6.74-18.83c-4.6,4.61-9.21,9.23-13.81,13.84c-1.03-2.9,0.04-6.42,2.51-8.26c-4.08,0.11-8.19-1.43-11.19-4.21
	c0.71-3.05,4.66-3.65,7.54-4.89c2.88-1.24,4.49-6.35,1.39-6.8c5.93-3.46,11.46-7.6,16.46-12.31"/>
<path class="st4" d="M150.74,122.77c-1.65,0.51-3.33,1.02-4.76,2c-1.78,1.22-3.03,3.05-4.26,4.82c-6.19,8.9-15.04,18.19-25.85,17.05
	c-0.33-1.7-0.66-3.39-0.99-5.09c-11.67,8.18-26.07,12.42-40.33,11.87c-0.55-11.94,0.4-23.97,3.26-35.58
	c1.71-6.93,4.1-13.81,4.15-20.94c0.03-4.86-1.03-9.67-1.01-14.53s1.37-10.07,5.18-13.1c0.83,4.8,3.57,11.01,8.35,9.99
	c-0.23,2.48,0.11,5.02,1,7.34c2.04,0.31,4.15,0.14,6.11-0.49c-1.01,3.36,3.04,5.9,6.37,7.02c6.03,2.04,12.14,3.84,18.32,5.39
	c1.54,2.53,3.08,5.07,4.63,7.6c1.34-0.43,2.68-0.86,4.02-1.29c3.54,2.74,7.67,4.72,12.03,5.78c4.18,1.01,10.05,0.02,10.53-4.24
	c0.36,1.25,0.71,2.49,1.07,3.74c-0.54-1.89,16.34-7.83,15.72,2.27C173.87,118.99,155.92,121.19,150.74,122.77z"/>
<path class="st3" d="M179.4,103.05c0.95-0.52,1.91-1.41,1.93-2.63c0.02-1.32-1.04-2.27-2.01-2.94c-5.57-3.9-11.77-6.55-18.18-7.77
	c-5.58-1.06-11.26-1.05-16.88-1.67c-15.4-1.7-36.95-41.68-43.53-47.01C94.14,35.68,59.2,54.15,47.67,75s-15.98,45.79-20.21,70.1
	c1.76-7.1,7.86-14.94,7.89-12.35c2.62-2.97,4.69-6.59,6.05-10.55c-0.45,2.01-0.9,4.02-1.35,6.02c2.21-3.15,4.43-6.31,6.64-9.46
	c-0.24,2.26-0.48,4.52-0.72,6.78c2.02-1.95,7.11-8.44,6.05-5.85c-1.8,4.41-0.28,17.23,3.76,21.33c0.82-1.81,1.65-3.62,2.47-5.43
	c0.1,3.26,6.64,5.3,7.68,9.06c1.04,3.77-4.68,5.87-5.18,6.85c0.82-2.36,1.63-4.72,2.45-7.09c0.1,2.54,0.19,5.08,0.29,7.63
	c1.27-2.66,2.54-5.31,3.8-7.97c0.05,2.07,0.1,4.13,0.15,6.2c1.02-2.01,2.04-4.01,3.06-6.02c0.91,2.62,5.16,1.27,4.8-1.53
	c-0.85,1.52,1.33,3.3,2.7,2.44s2.37-2.86,2.11-4.64c-6.57-45.75,32.4-51.14,62.97-26.15c2.77,2.74,7.08,3.46,10.86,3.67
	c7.94,0.45,15.88-5.84,23.44-3c0.32,0.12-13.63-9.35-13.12-8.35c-1.58-3.08,0.37-7.44,2.34-9.1
	C169.3,102.35,174.55,105.71,179.4,103.05z"/>
<path class="st1" d="M85.68,113.87c-10.62,29.83-9.82,62.34-8.89,93.99c-5.84-6.06-8.55-14.98-7.07-23.26
	c-0.33,13.5-0.33,27.01,0.01,40.5c-5.83-6.67-8.73-15.82-7.8-24.63c0.57,9.04,1.13,18.08,1.7,27.11c0.08,1.25,0.04,2.75-1.01,3.43
	c-1.91,1.25-3.82-1.62-4.28-3.86c-1.45-7.13-2.3-14.38-2.53-21.65c-0.12,7.91-2.25,15.78-6.13,22.67
	c-1.78-6.6-2.29-13.54-1.47-20.33c0.53,5.4-0.5,10.95-2.94,15.8c-3.09-6.04-3.45-13.41-0.96-19.72c0.04,4.89-0.82,9.79-2.5,14.38
	c-1.61-7.27-2.11-14.78-1.48-22.19c0.48,3.84,0.11,7.78-1.08,11.47c-2.38-8.11-1.67-17.08,1.96-24.72
	c-0.08,2.69-0.15,5.38-0.23,8.07c-2.94-8.04-1.66-17.5,3.33-24.46c-0.7,3.08-1.39,6.15-2.09,9.23c-2.14-4.28-2.79-9.29-1.8-13.97
	c-0.58,4.39-1.98,8.67-4.12,12.54c-0.77-3-2.2-5.83-4.15-8.24c-0.91,2.84-1.83,5.68-2.74,8.52c-0.71-1.41-1.43-2.82-2.14-4.23
	c-1.23,0.35-1.59,1.91-1.61,3.19c-0.02,1.28,0,2.77-0.99,3.57c-1,0.8-2.95-0.57-2.05-1.47c-0.85,3.35-1.71,6.7-2.56,10.05
	c-4.38-7.68-3.19-17.2-1.87-25.95c1.09-7.19,2.17-14.38,3.26-21.57c1.44-9.56,3.94-20.6,12.68-24.73
	c-0.03,5.28-0.06,10.55-0.1,15.83c2.28-4.82,4.56-9.64,6.84-14.45c0.15,2.95,0.3,5.9,0.45,8.85c1.55-5.23,3.99-10.2,7.18-14.62
	c0.72,4.68,0.34,9.52-1.12,14.02c1.08-6.73,2.15-13.45,3.23-20.18c0.39,3.91,0.78,7.81,1.16,11.72c3.06-2.37,5.75-5.24,7.92-8.45
	c-2.06,5.69-4.11,11.39-6.17,17.08c2.65-2.01,4.82-4.65,6.28-7.64c0.16,5.98-0.31,11.98-1.38,17.86c2.34-4.14,4.15-8.58,5.39-13.17
	c-2.04,8.3-5.18,19.07,0.62,18.1c3.08-4.18,5.02-9.2,5.55-14.37c-0.49,7.84-1.74,15.63-3.73,23.23c1.41-8.35,4.21-16.46,8.26-23.9
	c-1.04,6.13-2.09,12.26-3.13,18.39c1.09-6.65,3.21-13.13,6.24-19.15c-0.23,13.75-0.46,27.5-0.69,41.25"/>
<path class="st3" d="M21.5,170.87c2.01,6.89-1.72,14.01-5.33,20.22c-5.39,9.3-10.78,18.59-16.18,27.89c2.24,1.02,4.96,0.38,6.99-1
	c2.04-1.38,3.53-3.41,4.98-5.4c3.61-4.93,7.34-10.17,8.01-16.24c2.58,5.08,5.56,9.96,8.88,14.58c1.01-5.43,0.92-11.06-0.27-16.46
	c0.24,3.92,1.74,7.76,4.23,10.79c-0.82-7.05,1.68-14,3.24-20.92c1.56-6.92,2-14.81-2.26-20.49c-0.31-0.41-0.68-0.83-1.19-0.91
	c-0.56-0.09-1.08,0.27-1.52,0.61c-7.17,5.66-11.05,15.22-9.85,24.27"/>
<path class="st5" d="M77.14,67.15c0.29,0.68,0.99-0.8,0.26-0.88c-0.73-0.09-1.18,0.76-1.44,1.45c-1.67,4.39-4.82,8.21-8.82,10.69
	c-0.49-1.16-0.99-2.31-1.48-3.47c-2.81,3.62-6.29,6.66-9.74,9.68c-0.71,0.62-1.42,1.24-2.13,1.86c-4.21,3.68-8.42,7.36-12.63,11.04
	c6.7-5.85,13.75-13.71,20.53-20.05c8.35-7.82,12.2-19.6,22.74-25.2c3.41-1.81,17-6.52,19.52-1.09c2.37,5.11-11.41,22.09-13.71,3.53
	C84.6,56.73,79.84,61.82,77.14,67.15z"/>
<path class="st5" d="M292.52,89.17c1.43,1.59,4.24,2.14,5.66,0.54c0.58-0.65,0.82-1.52,0.99-2.38c0.6-3.05,0.38-6.26-0.63-9.19
	c0.6,2.15,1.32,4.47,3.13,5.79c1.81,1.32,5.03,0.77,5.45-1.42c0.16-0.81-0.09-1.63-0.35-2.41c-1.08-3.22-2.49-6.34-4.19-9.28
	c3.56,4.32,8.09,7.83,13.16,10.2c0.11-5.82-2.44-11.64-6.8-15.51c1.71,2.08,3.62,4.29,6.25,4.88c2.63,0.6,5.93-1.46,5.45-4.11
	c-0.47-2.55-3.9-3.78-4.26-6.35c3.56,3.39,7.82,6.04,12.44,7.73c0.64-3.84-0.8-7.96-3.69-10.56c1.55,1.85,3.82,3.09,6.21,3.37
	c1.26-4.08,0.58-8.72-1.79-12.27c1.8,2.15,4.52,3.5,7.32,3.62c1.32-2.45,0.59-5.81-1.62-7.49c1.9,2.08,4.38,3.62,7.09,4.41
	c1.89-2.28,2.14-5.78,0.58-8.29c2.02,2.09,4.59,3.64,7.37,4.45c0.59-2.76,0.42-5.67-0.47-8.34c-0.04,3.21,3.74,5.82,6.73,4.64
	c2.99-1.18,3.97-5.66,1.75-7.98c1.15,2.18,3.52,3.66,5.99,3.71c1.76-2.64,1.99-6.22,0.58-9.05c0.1,2.5,2.12,4.8,4.58,5.23
	c0.1-2.78,0.19-5.57,0.29-8.35c0.5,1.34,1.35,2.54,2.44,3.46c3.95-6.01,9.06-11.25,14.96-15.35c-7.67,0.31-14.89,3.49-21.91,6.62
	c-6.47,2.89-12.97,5.79-19.04,9.45c-13.95,8.41-25.06,20.44-36.59,31.74c-5.81,5.69-34.12,23.38-22.06,32.09
	c1.77-2.68,2.43-5.85,2.79-9.08C290.61,85.53,291.24,87.74,292.52,89.17z"/>
<path class="st5" d="M464.98,25.6C450,20.3,435.1,14.55,419.96,9.76C432.75,19.32,450.51,20.17,464.98,25.6z"/>
<path class="st5" d="M415.35,17.35c7.71,9.89,24.14,8.98,32.03,18.72c-9.69,0.97-16.28-10.34-25.76-12.57
	c-2.4-0.57-4.91-0.52-7.34-0.94c-4.61-0.8-17.08-4.9-15.24-11.01C399.97,11.6,415.33,17.33,415.35,17.35z"/>
<path class="st6" d="M195.97,215.22c0,0-15.08,20.53-14.64-17.23c9.63,0.07,17.02-9.3,23.58-16.36c13-13.98,26.38-6.52,17.17,20.22
	C219.13,210.42,195.97,215.22,195.97,215.22z"/>
<path class="st7" d="M182.51,101.37c-8.09-2.05-17.17,0.39-23.14,6.21c9.49,2.47,18.72,5.96,27.48,10.39
	c-19.75-0.14-39.29,10.04-50.51,26.3c0.09-2.39,0.19-4.78,0.28-7.17c-9.75,7.49-17.16,17.97-20.98,29.65
	c-1.39-3.26-0.5-7.36,2.11-9.76c-6.31,6.9-9.41,16.62-8.26,25.9c-1.36-2.27-2.73-4.54-4.09-6.82c10.64,16.61,11.2,39.15,1.41,56.28
	c-3.49-1.42-6.97-2.84-10.46-4.26c-2.38-8.8-6.98-16.98-13.26-23.59c-1.92-2.02-4.03-3.95-5.28-6.43c-1.48-2.92-1.62-6.31-1.74-9.59
	c-0.34-9.49-0.68-18.99-1.02-28.48c7.15-2.39,12.41,11.8,19.32,8.8c5.63-2.45,1.99-11.74,5.57-16.73c1.11-1.55,2.84-2.52,4.5-3.44
	c19.23-10.64,38.47-21.28,57.7-31.92c-2.26-4.14-10.13-4.53-9.8-9.24c0.31-4.37,8.25-7.61,5.27-10.82
	c-3.68-1.42-7.74-3.64-9.79-6.83C160.55,87.15,171.19,98.5,182.51,101.37z"/>
<path class="st8" d="M226.47,100.9c-2.12-4.82-4.91-9.34-8.27-13.39c7.39,2.87,14.63,6.12,21.68,9.74
	c-8.34-10.41-24.66-11.31-33.34-21.44c4.49-0.63,9.04-0.76,13.56-0.37c-7.42-0.6-25.02-2.86-15.89,6.42
	C210.51,88.26,222.47,91.81,226.47,100.9z"/>
<path class="st9" d="M344.91,149.59c-0.93-0.45-1.95-0.92-2.97-0.71c-1.93,0.41-2.26,2.95-1.34,4.56c0.92,1.61,2.58,2.81,3.37,4.48
	c1.72,3.63-0.33,7.83-1.66,11.56c-2.84,7.97,16,34.66,16.01,37.15c0.02,2.49,0.61-11.19-1.33-16.46c1.58,2.52,3.74,4.74,6.29,6.47
	c-0.41-3.55-1.55-7.03-3.35-10.19c1.71,1.55,5.54,12.94,9.29,22.07c2.2,5.36,4.37,9.94,6.07,11.29c1.47,1.17,5.37-22.21,3.08-27.18
	c-0.53-1.15-2.09-15.31-7.24-25.67C366.81,158.25,354.09,154.01,344.91,149.59z"/>
<path class="st10" d="M355.82,215.28c0.27,5.42,1.66,10.72,3.04,15.98c0.2-7.34,2.2-14.63,5.77-21.11c0.58-1.04,1.19-2.07,1.81-3.09
	c0.49-0.81,0.98-1.63,1.47-2.44c0.44,2.34,1.25,4.62,2.39,6.73c1.17-2.1,1.82-4.47,1.85-6.86c0.64,1.76,1.46,3.46,2.45,5.07
	c0.35-1.75,0.69-3.5,1.04-5.25c0.71,1.9,1.42,3.79,2.13,5.69c0.37-1.56,0.74-3.12,1.11-4.67c0.36,0.54,0.72,1.09,1.08,1.63
	c0.3-9.98-5.52-19.12-12.03-26.81c0.89,2.14,1.48,4.41,1.73,6.7c-1.35-2.01-3.06-3.78-5.03-5.22c0.1,1.92,0.42,3.83,0.96,5.68
	c-1.37-1.51-2.74-3.02-4.11-4.53c0.38,1.88,0.76,3.76,1.14,5.65c-1.3-1.23-2.61-2.45-3.91-3.68c0.04,1.39,0.08,2.78,0.12,4.18
	c-1.25-1.64-2.95-3.39-4.86-4.26c-0.2,0.77-0.05,1.66,0.3,2.4c-0.94-0.71-1.82-1.5-2.77-2.18c-0.16,2,0.21,6.11,0.09,8.11
	C351.42,195.53,355.51,209.08,355.82,215.28z"/>
<path class="st11" d="M362.64,210.07c-6.73-1.46-4.44,12.55-4.06,19.38c2.49,7.52,2.7,7.87,3.61,12.61
	c6.27-7.69,11.08-13.64,14.63-22.71c2.5-6.38,3.44-13.54,1.9-20.1c-0.65-2.77-1.74-5.43-3.34-7.87c0.38,3.73,0.2,8.12-0.37,10.78
	c-0.4,1.85-8.72,22.06-3.09,7.72c5.62-14.34-0.83-3.66-0.93-5.53c-1.02,2.01-2.05,4.03-3.07,6.04c3.63-4.53-4.17-31.35-8.88-34.48
	C363.96,181.42,365.8,210.75,362.64,210.07z"/>
<path class="st12" d="M349.54,155.5c0.2-1.09-0.36-2.21-1.16-2.97c-0.8-0.75-1.83-1.21-2.83-1.65c-0.55-0.24-1.26-0.45-1.67-0.01
	c-0.22,0.24-0.27,0.6-0.26,0.93c0.02,2.48,2.16,4.76,4.6,4.89c0.23,0.01,0.48,0,0.68-0.12c0.38-0.23,0.45-0.75,0.42-1.19
	c-0.11-2.14-1.58-4.14-3.56-4.86c-0.78-0.28-1.72-0.36-2.38,0.15c-0.67,0.5-0.77,1.73-0.04,2.12c0.32-0.05,2.63,0.89,2.49,0.6
	c-0.13-0.29-0.57-0.39-0.82-0.18c-0.23,0.69,0.59,1.47,1.27,1.21c0-0.27,0-0.55,0-0.82c-0.28,0-0.55,0-0.83,0
	c-0.28,0.57,0.45,1.32,1.03,1.04c0-0.41,0-0.82,0-1.24c-0.69-0.29-1.68-0.49-2.03,0.17c-0.08,0.16-0.11,0.34-0.09,0.52
	c0.07,0.83,1.16,1.39,1.84,0.92c0.69-0.46,0.53-1.74-0.27-1.97c-0.79-0.24-1.62,0.82-1.17,1.52"/>
<path class="st13" d="M346.13,153.47c0.3-0.49-0.04-1.21-0.6-1.37c-0.56-0.15-1.17,0.19-1.43,0.71s-0.19,1.15,0.06,1.67
	c0.11,0.22,0.25,0.43,0.44,0.58c0.55,0.44,1.49,0.23,1.8-0.41c0.31-0.63-0.09-1.5-0.77-1.68"/>
</svg>
