<!-- Generator: Adobe Illustrator 23.0.4, SVG Export Plug-In  -->
<svg version="1.1" xmlns="http://www.w3.org/2000/svg" xmlns:xlink="http://www.w3.org/1999/xlink" x="0px" y="0px"
	 width="388.58px" height="645.17px" viewBox="0 0 388.58 645.17" style="enable-background:new 0 0 388.58 645.17;"
	 xml:space="preserve">
<style type="text/css">
	.st0{fill:#F7F0F0;}
	.st1{opacity:0.6;fill:url(#SVGID_1_);}
	.st2{opacity:0.6;fill:url(#SVGID_2_);}
	.st3{opacity:0.6;fill:#49382C;}
	.st4{opacity:0.6;fill:url(#SVGID_3_);}
	.st5{opacity:0.6;fill:url(#SVGID_4_);}
	.st6{opacity:0.6;fill:url(#SVGID_5_);}
	.st7{opacity:0.6;fill:url(#SVGID_6_);}
	.st8{opacity:0.6;fill:url(#SVGID_7_);}
	.st9{opacity:0.6;fill:url(#SVGID_8_);}
	.st10{opacity:0.6;fill:url(#SVGID_9_);}
	.st11{opacity:0.6;fill:url(#SVGID_10_);}
	.st12{opacity:0.6;fill:url(#SVGID_11_);}
	.st13{opacity:0.6;fill:url(#SVGID_12_);}
	.st14{opacity:0.6;fill:url(#SVGID_13_);}
	.st15{opacity:0.6;fill:url(#SVGID_14_);}
	.st16{opacity:0.6;fill:url(#SVGID_15_);}
	.st17{opacity:0.6;fill:url(#SVGID_16_);}
	.st18{opacity:0.6;fill:url(#SVGID_17_);}
	.st19{opacity:0.6;fill:url(#SVGID_18_);}
	.st20{opacity:0.6;fill:url(#SVGID_19_);}
	.st21{opacity:0.6;fill:url(#SVGID_20_);}
	.st22{opacity:0.6;fill:url(#SVGID_21_);}
	.st23{opacity:0.6;fill:url(#SVGID_22_);}
	.st24{opacity:0.6;fill:url(#SVGID_23_);}
	.st25{opacity:0.6;fill:url(#SVGID_24_);}
	.st26{opacity:0.6;fill:url(#SVGID_25_);}
	.st27{opacity:0.6;fill:url(#SVGID_26_);}
	.st28{opacity:0.6;fill:url(#SVGID_27_);}
	.st29{opacity:0.6;fill:url(#SVGID_28_);}
	.st30{opacity:0.6;fill:url(#SVGID_29_);}
	.st31{opacity:0.6;fill:url(#SVGID_30_);}
</style>
<defs>
</defs>
<path class="st0" d="M356.16,27.57c11.2,8.53,36.81,2.02,31.77-15.66c-4.33-15.18-27.9-13.36-38.35-8.13
	c0.15,0.74,0.5,1.54,0.95,2.15c3.44-1.79,4.19-0.38,6.77,1.07c4.12,2.31,3.69,2.22,3.78,6.93c0.04,2.38,1.44,6.47-0.4,8.95
	c-1.46,1.97-7.4,2.26-3.65,5.41"/>
<linearGradient id="SVGID_1_" gradientUnits="userSpaceOnUse" x1="539.7308" y1="53.866" x2="558.2889" y2="53.866" gradientTransform="matrix(0.915 -0.4035 0.4035 0.915 -162.9061 186.9294)">
	<stop  offset="0" style="stop-color:#724802"/>
	<stop  offset="1" style="stop-color:#9B6719"/>
</linearGradient>
<path class="st1" d="M354.81,23.25c5.45-1.12,2.41-6.62,1.24-9.76c6.39-2.28,1.75-10.05-4.2-7.06c-0.3-0.56-0.51-1.1-0.75-1.69
	c1.49-1.26,5.32-3.9,7.47-3.93c3.94-0.05,4.53,2.65,7.34,5.42c2.47,2.43,3.81,1.96,2.05,4.64c-1.81,2.75-6.11,2.14-4.26,6.72
	c-2.28,1.88-2.5,4.76-2.15,7.51c-0.37,0.32-0.78,0.38-1.16,0.69c0.63,1.16,0.86,2.9,1.56,3.97c-2.85-1.53-5.67-2.74-6.48-6.26"/>
<path class="st0" d="M300.03,21.72c5.79-0.55,10.91-2.12,13.45,4.48c1.17,3.03,1.08,8.46-1.04,11.25c-2.33,3.07-8.89,4.89-12,7.44
	c-3.05,2.5-7.44,5.79-9.23,9.15c9.17-0.2,16.2-11.17,24.09-15.01c5.63-2.74,13.6-7.59,19.82-8.33c6.05-0.72,9.45,2.9,15.79-0.25
	c6.37-3.16,4.46-6.44,5.8-11.78c3.7-1.71,1.18-12.18-2.08-13.54c-3.6-1.5-12.8,6.15-16.77,7.01c-3.38,0.73-6.68-0.71-9.82-0.99
	c-3.49-0.32-6.42,0.27-10.14,1.57c-5.59,1.96-11.02,4.89-16.44,7.28"/>
<linearGradient id="SVGID_2_" gradientUnits="userSpaceOnUse" x1="475.663" y1="48.6407" x2="501.806" y2="48.6407" gradientTransform="matrix(0.915 -0.4035 0.4035 0.915 -162.9061 186.9294)">
	<stop  offset="0" style="stop-color:#724802"/>
	<stop  offset="1" style="stop-color:#9B6719"/>
</linearGradient>
<path class="st2" d="M299.16,25.93c7.38-0.93,17.51,1.45,10.26,9.7c-2.08,2.37-6.06,3.52-7.87,5.73c-0.85,1.04-0.2,3.27-0.8,4.1
	c-1.18,1.61-3.21,2.9-4.36,4.1c4.02-0.12,8.75-4.15,12.57-6.09c5.39-2.73,6.26-6.94,6.39-13.06c0.2-10-10.76-12.64-16.84-4.73"/>
<path class="st3" d="M331.39,25.92c2.21-0.96,5.08-2.9,7.55-2.78c3.49,0.16,2.62,1.75,4.72,3.35c2.64,2.02,1.44,2.86,5.42,1.38
	c0.29-0.11,3.43-3.1,4.94-3.82c-7.24-3.37-15.96-6.82-23.12,0.54C330.97,25.11,331.23,25.43,331.39,25.92"/>
<path class="st0" d="M247.28,57c2.01,5.69,1.55,5.51,6.69,7.02c3.72,1.09,4.7,2.22,7.66,4.15c8.98,5.84,11.95-4.66,17.42-10.99
	c5.38-6.23,15.82-9.58,23.38-13.03c2.26-1.03,7.16-1.67,8.78-3.31c1.87-1.9,0.55-5.16,2.68-7.3c-3.14-15.19-34.27,0.45-41.04,3.44
	c-7.14,3.15-12.35,6.91-18.48,11.03c-5.97,4.01-7.2,4.7-5.22,11.99"/>
<linearGradient id="SVGID_3_" gradientUnits="userSpaceOnUse" x1="425.6507" y1="50.9217" x2="437.7966" y2="50.9217" gradientTransform="matrix(0.915 -0.4035 0.4035 0.915 -162.9061 186.9294)">
	<stop  offset="0" style="stop-color:#724802"/>
	<stop  offset="1" style="stop-color:#9B6719"/>
</linearGradient>
<path class="st4" d="M246.31,58.52c0.15,0.87,0.83,1.9,1.25,2.65c5.13-1.93,8.16-5.18,10.45,1.4c0.75-0.13,1.52-0.52,2.15-0.95
	c-1.05-2.87-2.38-5.83-3.77-8.56c-3.49,1.37-7.5,4.25-11.23,3.84c0.25,0.85,0.57,2,1.1,2.74"/>
<path class="st0" d="M212.02,119.55c-1.86-4.29-3.72-8.64-2.41-13.13c1.89-6.5,10.92-17.14,15.25-22.08
	c5.84-6.65,18.54-19.24,28.14-20.57c4.43-0.62,5.92,4.16,9.15,6.78c4.66,3.78,4.88,3.82-1.33,6.28c-5.54,2.2-12.32,5.15-15.72,9.94
	c-2.96,4.16-3.47,10.75-6.31,15.06c-0.75,1.14-1.78,2.15-2.46,3.25c2.33,4.76-7.09,3.2-9.5,3.4c-4.53,0.36-8.86,1.71-12.62,4.7
	c0.03,2.53,0.43,4.74-1.75,6.15"/>
<linearGradient id="SVGID_4_" gradientUnits="userSpaceOnUse" x1="368.7358" y1="85.7301" x2="396.6587" y2="85.7301" gradientTransform="matrix(0.915 -0.4035 0.4035 0.915 -162.9061 186.9294)">
	<stop  offset="0" style="stop-color:#724802"/>
	<stop  offset="1" style="stop-color:#9B6719"/>
</linearGradient>
<path class="st5" d="M209.4,113.6c1.67,3.53,1.18,7.61,3.35,11.05c0.25-5.72-0.62-9.15,4.98-13.24c2.35-1.72,7.19-4.54,10.14-3.38
	c2.31,0.91,4.06,8.1,7.12,7.87c3.77-0.29,1.19-5.94,0.84-7.85c-6.45-0.21-9.91-6.81-14.87-6.67
	C213.75,101.59,210.12,107.68,209.4,113.6"/>
<path class="st3" d="M212.88,120.26c4.84-1.14,2.3-4.74,3.87-7.58c1.53-2.77,5.37-4.19,8.25-4.4c-0.47-3.24-3.52-3.68-6.05-4.28
	c-0.66,4.89-5.42,8.33-9.72,10.31c1.08,2.25,1.36,4.71,2.51,6.93c1.17-0.1,1.65-0.8,2.06-1.37"/>
<path class="st0" d="M213.8,119.85c3-4.69,5.07-12.59,12.11-10.95c5.61,1.31,10.63,11.12,9.14,16.36c-0.96,3.38-3.53,4.99-4.13,8.65
	c-0.59,3.63-0.58,7.83,0.04,11.17c1.13,6.17,4.36,12.98,6.57,18.87c-4.01,2.05-5.35,2.23-9.53,1.44c-4.83-0.91-3.81-2.28-4.8,3.33
	c-0.62,3.53-0.45,18.01-8.29,10.76c-8.43-7.8-2.05-20.57-2.09-29.68c-0.02-6.43,1.6-13.9,1.36-20.45
	c-0.14-3.92-2.27-7.98-0.28-11.73"/>
<linearGradient id="SVGID_5_" gradientUnits="userSpaceOnUse" x1="350.7101" y1="140.7036" x2="373.7867" y2="140.7036" gradientTransform="matrix(0.915 -0.4035 0.4035 0.915 -162.9061 186.9294)">
	<stop  offset="0" style="stop-color:#724802"/>
	<stop  offset="1" style="stop-color:#9B6719"/>
</linearGradient>
<path class="st6" d="M213.54,171.33c1.54,3.49,7.85,19.6,9.56,6.74c0.5-3.8-2.68-7.36,0.22-10.6c3.34-3.73,3.65-0.55,7.36,0.82
	c1.52,0.56,6.88,2.25,5.97-1.68c-0.38-1.64-11.03-6.54-12.94-6.89c-4.4-0.81-2.3,1.19-4.36,5.25c-1.33,2.62-3.45,3.89-6.31,5.01
	C213.12,170.51,213.43,170.85,213.54,171.33"/>
<path class="st3" d="M215.56,175.91c1.27,2.2,3.97,2.78,6.09,1.6c-1.19-3.64-0.84-12.29,4.06-13.1c2.6,3.64,5.29,6.92,9.83,3.7
	c-1.91-3.4-10.43-8.8-14.47-6.68c-4.98,2.61-2.64,10.51-5.91,13.56"/>
<path class="st0" d="M222.57,174.46c2.81,6.52,3.61,10.24,2.19,17.1c-0.55,2.67-1.2,4.04-1.23,7.49c-0.06,7.43-1.84,13.77,0.6,21.13
	c2.79,8.39,13.21,34.74,22.29,20.81c1.78-2.74,1.39-3.53,4.28-5.2c1.77-1.02,5.21-0.5,6.33-2.75c1.64-3.33-3.85-9.3-5.35-12.38
	c-6.74-13.86-11.08-26.85-12.13-42.14c-0.34-5.04-0.92-9.4-1.94-14.44c-4,1.53-7.23,2.41-11.05,3.01c-4.12,0.65-7.06,1.79-3.74,6.7"
	/>
<path class="st3" d="M235.06,244.91c1.41,3.96,6.16,5.24,8.81,7.59c2.58,2.29,2.76,4.74,7.11,3.91c-0.94-2.52-4.13-7.01-3.56-9.74
	c0.38-1.81,4.13-3.41,3.52-5.45c-0.65-2.19-2.39-0.99-3.39-2.07c-1.42-1.54-2.13-4.1-2.87-6.05c2.7-1.92,6.37,3.53,8.06,5.02
	c1,0.89-7.81,2.5-8.31,2.67C242.08,241.57,237.62,245.75,235.06,244.91"/>
<path class="st0" d="M240.74,247.87c2.43,5.51,3.08,8.35,8.7,10.37c6.14,2.21,9.66,6.69,14.14,11.37
	c11.04,11.53,20.8,23.46,34.15,32.15c4.81,3.13,6.27,5.8,8.82,11.08c2.14,4.43,6.17,7.57,10.42,2.52c1.1-1.31,1.13-3.79,2.04-5.3
	c1.12-1.86,2.86-3.43,4.35-5.04c2.94-3.2,6.65-5.3,3.23-8.83c-0.21-0.21-1.24,0.14-1.5,0.19c-3.81-2.84-8.51-5.69-12.62-7.58
	c-6.19-2.84-10.97-7.07-15.62-11.56c-11.76-11.35-20.68-24.37-28.13-38.88c-2.54,0.54-7.22,0.96-9.6,0.34
	c-3.82-0.99-3.75-2.98-7.97-1.97c-1.65,0.39-6.71,2.16-7.78,3.43c-1.88,2.23,0.09,4.17-1.24,7.1"/>
<linearGradient id="SVGID_6_" gradientUnits="userSpaceOnUse" x1="345.4132" y1="231.1813" x2="360.8308" y2="231.1813" gradientTransform="matrix(0.915 -0.4035 0.4035 0.915 -162.9061 186.9294)">
	<stop  offset="0" style="stop-color:#724802"/>
	<stop  offset="1" style="stop-color:#9B6719"/>
</linearGradient>
<path class="st7" d="M241.45,247.01c1.81,4.1,2.7,9.47,6.66,11.39c2.28,1.11,5.42,1.37,6.43-1.28c1.47,4.18,6.13,9.71,10.71,9.38
	c-1.76-4.75-2.64-12.22-6.53-14.79c-3.07-2.03-6.7-1.74-9.95-2.9c-2.22-0.79-4.25-2.47-6.51-3.61c0.33,0.69,0.59,1.45,0.96,2.12"/>
<linearGradient id="SVGID_7_" gradientUnits="userSpaceOnUse" x1="374.2293" y1="303.8357" x2="402.698" y2="303.8357" gradientTransform="matrix(0.915 -0.4035 0.4035 0.915 -162.9061 186.9294)">
	<stop  offset="0" style="stop-color:#724802"/>
	<stop  offset="1" style="stop-color:#9B6719"/>
</linearGradient>
<path class="st8" d="M299.97,305.36c1.91,4.33,2.43,7.32,6.64,9.14c2.87,1.24,5.83-0.28,6.87,3.96c2.37-1.79,7.04-7.26,8.56-9.86
	c2.39-4.1-0.49-7.01,4.67-9.44c-6.05,2.08-10,2.26-15.67,3.11c-4.58,0.69-6.92,7.51-11.43,5.98"/>
<path class="st0" d="M322.77,305.02c0.74-2.17,2.38-3.38,3.19-5.13c0.79-1.72,0.73-4.79,2.28-5.81c9.37,11.08,5.41,25.89,7.1,39.4
	c1.47,11.77,8.41,21.5,14.52,31.29c1.79,2.87,7.42,9.4,6.24,12.99c-1.34,4.09-8.12,3.9-11.39,4.62c-4.45,0.98-6.48,4.15-10.88,5.77
	c-10.06-8.25-6.45-23.26-10.95-34.53c-3.39-8.47-4.89-17.32-8.62-25.75c-2.62-5.94-4.95-7.24,0.23-11.14
	C319.59,312.89,320.61,311.34,322.77,305.02z"/>
<linearGradient id="SVGID_8_" gradientUnits="userSpaceOnUse" x1="370.9571" y1="379.5797" x2="394.3356" y2="379.5797" gradientTransform="matrix(0.915 -0.4035 0.4035 0.915 -162.9061 186.9294)">
	<stop  offset="0" style="stop-color:#724802"/>
	<stop  offset="1" style="stop-color:#9B6719"/>
</linearGradient>
<path class="st9" d="M327.48,375.19c0.04,2.99,0.75,7.69,3.02,10.28c3.4,3.88,3.92,2.35,7.05,0.43c3.08-1.88,3.8-2.53,7.84-2.35
	c3.13,0.14,6.43,1.37,9.33,0.31c-2.22-5.27-3.57-11.58-10.35-12.16c-3.88-0.33-6.07,4.07-9.68,4.68c-2.66,0.45-4.43-2.06-7.01-0.73"
	/>
<path class="st3" d="M335.73,385.22c-2.1-15.62,14.02,3.84,13.89-5.64c1.32,0.26,2.3,0.75,2.99,1.94c-5.92,2.96-11.21,4.2-17.79,4.1
	"/>
<path class="st0" d="M354.01,476.59c2.72,0.74,4.04,2.94,6.89,2.88c2.16-0.05,5.32-2.18,7.25-3.17c1.19-8.27-8.57-21.47-11.19-29.3
	c-3.18-9.53-1.98-21.48,0.17-30.65c1.16-4.94,1.02-9.62,2.4-14.31c1.19-4.02,2.55-9.31-0.61-12.84c-3.42-3.84-13.48-4.28-18.02-3.06
	c-11.11,3-2.56,14.27-2.72,21.97c-0.15,7.17-4.12,14.33-5.12,21.59c-0.42,3.08-1.92,6.84-2.08,9.53c-0.18,3.12,0.59,6.9,0.61,10.12
	c0.03,7.14,2.9,15.8,5.44,22.47C340.98,482.13,346.32,474.49,354.01,476.59z"/>
<linearGradient id="SVGID_9_" gradientUnits="userSpaceOnUse" x1="366.6818" y1="396.834" x2="380.6733" y2="396.834" gradientTransform="matrix(0.915 -0.4035 0.4035 0.915 -162.9061 186.9294)">
	<stop  offset="0" style="stop-color:#724802"/>
	<stop  offset="1" style="stop-color:#9B6719"/>
</linearGradient>
<path class="st10" d="M332.2,393.33c1.48,3.36,3.83,7.14,4.17,10.64c0.19,1.91-1.69,3.82,0.16,6.51c2.07-1.26,3.23-3.57,5.39-5.05
	c1.79-1.23,4.35-1.87,6.3-2.85c-3.04-7.86-8.76-8.23-15.96-10.36"/>
<path class="st3" d="M338.54,465.95c2.46-1.07,4.97-2.73,7.74-2.33c2.73,0.39,3.82,3.07,6.04,3.9c4.24,1.59,8.02,0.67,12.31,3.29
	c-0.8-2.96-2.88-6.39-4.91-8.65c-7.61,3.53-16.58-7.46-22.5,3.28"/>
<path class="st0" d="M294.99,533.24c2.13,2.34,3.64,4.73,6.53,5.86c2.41,0.95,4.8,0.17,6.87,1.89c4.21,3.51,3.09,10.54,5.19,14.65
	c4,7.85,6.72-2.32,8.17-6.1c2.8-7.25,0.81-15.12,4.17-22.03c7.04-14.49,19.07-25.56,33.15-32.38c6.17-2.99,9.87-5.47,6.83-13.31
	c-2.35-6.07-8.2-6.42-13.75-6.02c-15.55,1.13-24.5,10.29-32.69,22.58c-4.15,6.23-7.05,13.67-10.51,20.61
	c-2.7,5.41-8.9,10.57-13.52,14.04"/>
<path class="st3" d="M340.2,487.07c4.96,1.86,5.76,4.85,8.08,9.47c3.75-1.13,7.96-3.82,11.56-5.64c-1.49-6.77-14.35-6.75-19.18-4.03
	"/>
<linearGradient id="SVGID_10_" gradientUnits="userSpaceOnUse" x1="276.727" y1="517.6311" x2="296.2064" y2="517.6311" gradientTransform="matrix(0.915 -0.4035 0.4035 0.915 -162.9061 186.9294)">
	<stop  offset="0" style="stop-color:#724802"/>
	<stop  offset="1" style="stop-color:#9B6719"/>
</linearGradient>
<path class="st11" d="M294.31,537.91c2.74,2.34,6.7,1.26,10,0.56c3.38,6.64,8.16,11.5,11.63,17.58c1.34-2.84,0.66-7.29,3.78-8.66
	c-0.89-3.32-4.32-2.88-6.55-5.1c-2.2-2.18-1.08-3.79-2.66-6.05c-3.14-4.5-12.13-3.45-15.29,1.28"/>
<path class="st3" d="M307,539.42c0.04,1.52,0.9,3.46,1.81,5.14c1.64-1.79,0.12-8.26-1.12-10.82c-2.36,0.79-3.63,3.56-2.26,5.83"/>
<path class="st0" d="M229.25,582.44c4.13,2.16,8.14,5.97,9.91,10.33c2.51,6.2-1.84,13.33,0.14,18.49c2.57-0.98,5.77-2.02,8.05-3.59
	c3.59-2.47,2.3-3.54,3.71-6.98c3.21-7.83,14.88-13.33,22.15-17.42c8.14-4.57,15.78-9.15,24.5-12.99c3.54-1.56,6.67-3.48,10.28-2.89
	c3.01,0.5,4.16,2.83,7.75,1.97c0.15-9.68-4.23-22.98-12.61-27.66c-11.74-6.55-10.68,2.67-19.44,8c-3.75,2.28-8.35,3.67-12.37,5.44
	c-2.86,1.26-6.08,2.06-8.17,4.4c-1.6,1.79-1.85,4.66-3.49,6.25c-3.56,3.42-12.9,6.47-17.47,8.75c-4.31,2.16-8.87,3.92-13.29,5.86"/>
<linearGradient id="SVGID_11_" gradientUnits="userSpaceOnUse" x1="197.7285" y1="534.6761" x2="220.2215" y2="534.6761" gradientTransform="matrix(0.915 -0.4035 0.4035 0.915 -162.9061 186.9294)">
	<stop  offset="0" style="stop-color:#724802"/>
	<stop  offset="1" style="stop-color:#9B6719"/>
</linearGradient>
<path class="st12" d="M229.91,582.7c3.94-1.74,11.1-6.66,15.45-6.81c4.28-0.15,7.07,5.17,6.98,9.38
	c-0.09,4.03-2.92,10.49-3.93,14.56c-1.16,4.66-3.64,6.33-7.22,9.43c-2.82-4.25,0.16-10.69-1.87-15.4c-1.71-3.99-6.41-6.8-10.43-8.52
	"/>
<path class="st3" d="M234.22,586.27c3.91-0.41,6.03,0.67,5.87,4.46c1.18-2.19,0.56-5.83,0.08-8.08c-3.32-0.5-8.51,1.73-6.72,5.6"/>
<path class="st0" d="M154.7,610.4c7.91,4.68,9.77,5.59,9.1,15.67c-0.3,4.45-0.25,11.34-4.16,13.93c2.55,10.3,15.9-5.83,17.79-7.57
	c6.44-5.95,16.58-9.5,24.43-13.32c6.12-2.98,13.53-7.31,20.59-6.35c6.26,0.85,8.7,4.13,15.5,0.73c-0.5-1.82-1.57-3.92-1.5-5.81
	c0.06-2.02,1.43-2.94,1.59-5.06c0.4-5.33-2.36-8.05-6.53-10.23c-5.37-2.81-10.19-5.58-15.97-3.9c-1.67,0.49-3.45,2.13-5.16,2.31
	c-2.54,0.27-5.26-1.55-8.1-1.28c-8.3,0.79-15.79,7.62-22.72,11.52c-3.91,2.2-8.18,4.92-12.65,6.03c-3.93,0.98-7.71,0.83-11.49,2.46"
	/>
<path class="st3" d="M154.7,610.4c7.03-3.1,12.6-6.72,19.74-3.38c4.12,1.93,6.84,3.35,12.11,3.53c3.47,0.12,7.24-0.04,10.71-0.33
	c4.07-0.34,7.58-0.94,11.42-0.13c2.76,0.58,6.96,2.01,9.17,1.96c-7.98,3.53-15.95,7.04-24.09,10.08
	c-8.65,3.23-15.22,4.51-20.53,11.65c-2.74,3.69-15.09,12.93-12.54,2.43c1.42-5.82,4.83-6.45,3.14-12.52
	c-1.4-5-4.01-10.34-8.48-13.03"/>
<linearGradient id="SVGID_12_" gradientUnits="userSpaceOnUse" x1="120.7293" y1="524.3931" x2="145.7959" y2="524.3931" gradientTransform="matrix(0.915 -0.4035 0.4035 0.915 -162.9061 186.9294)">
	<stop  offset="0" style="stop-color:#724802"/>
	<stop  offset="1" style="stop-color:#9B6719"/>
</linearGradient>
<path class="st13" d="M156.62,612.29c6.4-2.82,10.73-6.61,16.72-2.99c4.27,2.58,5.63,3.96,10.87,3.42c-3.98,1.09-12,8.4-17.31,8.06
	c-4.74-0.31-5.68-10.61-9.87-7.57"/>
<path class="st0" d="M85.26,638.83c-5.47-9.03,6.18-11.63,9.85-17.04c5.53-8.13-4.26-14.24-10.71-14.7
	c5.7-3.05,8.24-3.17,14.15-1.33c5.44,1.7,9.65,3.24,15.33,1.31c4.33-1.47,9.06-4.9,13.62-5.06c5.05-0.17,9.29,4.7,13.52,7.04
	c8.75,4.86,20.99,0.79,23.19,14.49c0.7,4.32-1.82,9.5-3.21,13.6c-1.53,4.51-1.14,8.09-5.84,8.01c-6.41-0.1-10.44-7.11-16.3-9.33
	c-7.64-2.9-15.56-4.36-23.59-4.74c-8.75-0.41-21.37,11.86-28.94,8.9"/>
<path class="st3" d="M87.55,637.82c-5.28,3.72-5.21-4.2-2.58-7.09c3.23-3.54,8.96-5.1,12.41-8.82c-0.6-4.32-2.19-8.43-4.59-12.02
	c6.03-2.33,14.69,5.52,19.37,8.75c2.49,1.72,4.51,4.33,7.13,5.72c3.65,1.94,7.72,0.64,11.58,1.34c8.37,1.52,15.01,9.6,20.2,16.27
	c-5.51,1.01-11.7-6.6-16.89-8.36c-5.07-1.72-13.51-1.02-19.12-0.71c-10.47,0.57-20.04,5.99-29.8,5.93"/>
<linearGradient id="SVGID_13_" gradientUnits="userSpaceOnUse" x1="45.3669" y1="502.9317" x2="70.2924" y2="502.9317" gradientTransform="matrix(0.915 -0.4035 0.4035 0.915 -162.9061 186.9294)">
	<stop  offset="0" style="stop-color:#724802"/>
	<stop  offset="1" style="stop-color:#9B6719"/>
</linearGradient>
<path class="st14" d="M87.96,638.74c-8.35-2.99,0.75-11.87,4.3-15.04c3.08-2.75,7.89-3.43,6.23-8.17c-1.33-3.81-5.81-3.73-9.09-4.67
	c5.97,2.47,11.31,4.4,15.55,9.26c-9.29,1.52-17.32,8.06-10.27,16.66c-1.67,1.48-3.88,3.04-6.06,2.22"/>
<path class="st0" d="M24.4,619.77c13.45-4.41,35.73-0.64,44.7,10.87c3.81,4.89,2.41,10.63,10.06,5.86
	c4.26-2.65,8.3-8.49,10.94-12.41c2.3-3.41,3.82-7.74-0.51-11.48c-1.25-1.08-3.47-0.94-4.82-1.92c-2.41-1.76-3.14-4.42-4.94-6.59
	c-8.34-10.01-28.14-24.55-42.19-18.58c-7.76,3.3-2.56,8.38-0.06,14.68c-3.56,3.01-7.65,4.35-11.76,6.47c-0.3,4.24-6.84,6.48-7,8.96
	c-0.32,5.01,7.34,2.91,9.7,2.32"/>
<linearGradient id="SVGID_14_" gradientUnits="userSpaceOnUse" x1="5.7328" y1="488.783" x2="34.9103" y2="488.783" gradientTransform="matrix(0.915 -0.4035 0.4035 0.915 -162.9061 186.9294)">
	<stop  offset="0" style="stop-color:#724802"/>
	<stop  offset="1" style="stop-color:#9B6719"/>
</linearGradient>
<path class="st15" d="M33.24,617.51c5.37,0.07,11.09-1.32,16.05-3.25c3.56-1.39,5.52-3.08,9.24-1.91
	c7.82,2.45,10.43,15.51,13.44,22.35c-5.51-9.18-25.17-17.18-35.58-17.48"/>
<linearGradient id="SVGID_15_" gradientUnits="userSpaceOnUse" x1="-9.7673" y1="459.7994" x2="22.6756" y2="459.7994" gradientTransform="matrix(0.915 -0.4035 0.4035 0.915 -162.9061 186.9294)">
	<stop  offset="0" style="stop-color:#724802"/>
	<stop  offset="1" style="stop-color:#9B6719"/>
</linearGradient>
<path class="st16" d="M17.44,620.1c-0.41-4.55,4.1-4.92,4.95-8.3c1.05-4.23-5.66-10.02-8.53-12.34c5.08,2.18,11.41,8.35,18.02,4.89
	c5.43-2.84,0.88-8.55-0.84-13.1c2.41-2,3.55-4.47,6.83-5.21c1.65,3.07,0.23,7.01,1.33,10.26c0.89,2.63,2.74,4.46,3.6,7.06
	c-4.12,3.36-15.32,5.49-15.92,10.9c-0.49,4.43,3.23,2.66-0.39,6.22c-2,1.97-6.43,3.23-8.44,0.99"/>
<path class="st3" d="M21.05,619.61c-2.47-3.46,0.96-4.41,0.87-6.78c-0.13-3.78-4.69-6.99-8.59-7.31c-4.95-0.41-9.35,1.82-13.33-2.76
	c3.47-1.7,7.61-1.21,10.97-3.37c-0.05-0.48-0.34-0.82-0.42-1.3c8.77-1.87,11.33,11.48,21.16,8.71c3.99,6.67-9.05,9.89-11.32,12.56"
	/>
</svg>
