<!-- Generator: Adobe Illustrator 23.0.4, SVG Export Plug-In  -->
<svg version="1.1" xmlns="http://www.w3.org/2000/svg" xmlns:xlink="http://www.w3.org/1999/xlink" x="0px" y="0px" width="88.18px"
	 height="121.47px" viewBox="0 0 88.18 121.47" style="enable-background:new 0 0 88.18 121.47;" xml:space="preserve">
<style type="text/css">
	.st0{fill:#F4EAEA;}
	.st1{fill:#F99187;fill-opacity:0.68;}
	.st2{fill:#FC7070;fill-opacity:0.8;}
	.st3{fill:#FFD8D4;fill-opacity:0.95;}
	.st4{fill:#FFF2F0;fill-opacity:0.95;}
	.st5{fill:#F99187;}
	.st6{fill:#0A0404;fill-opacity:0.75;}
	.st7{fill:#F4E4E9;fill-opacity:0.95;}
	.st8{opacity:0.9;fill:#F9EFEF;}
	.st9{opacity:0.8;fill:#FCF1ED;}
	.st10{opacity:0.9;fill:#EABEBE;}
	.st11{opacity:0.9;fill:#352626;}
	.st12{opacity:0.8;fill:#EDB4B4;}
	.st13{opacity:0.8;fill:#352626;}
	.st14{fill:#FCE195;}
	.st15{fill:#0F0F0E;}
	.st16{fill:none;stroke:#0F0F0E;stroke-width:0.0451;stroke-miterlimit:10;}
</style>
<defs>
</defs>
<g>
	<path class="st0" d="M45.52,66.84C45.5,69.89,47.37,84,46.36,86.87c-0.55,1.58-1.61,3.02-1.25,4.65c0.11,0.48,0.32,0.93,0.49,1.39
		c0.47,1.33,0.54,2.77,0.53,4.18c-0.02,4.41-0.7,8.8-0.59,13.2c0.04,1.64,0.18,3.31-0.32,4.87c-0.5,1.56-1.84,2.98-3.45,2.94
		c1.04,0.2,2.07,0.4,3.11,0.6c0.23,0.04,0.45,0.09,0.68,0.13c0.19,0.27,0.39,0.53,0.58,0.8c-0.03-0.26,0.04-0.54,0.19-0.76
		c1.76,0.45,3.7,0.05,5.15-1.06c-1.59,0.08-3.2-0.59-4.29-1.77c-0.45-8.17-0.15-16.37,0.96-24.47c0.13-0.94,0.27-1.88,0.33-2.82
		c0.09-1.53-0.02-3.07-0.14-4.6c-0.17-2.19-1.75-16.58-1.91-18.78C46.38,64.77,45.53,65.98,45.52,66.84z"/>
	<path class="st0" d="M41.99,80.62c0.3,1.84,0.61,3.72,0.31,5.57c-0.15,0.95-0.46,1.86-0.59,2.81c-0.2,1.42-0.01,2.86,0.03,4.29
		c0.05,1.56-0.07,3.12-0.19,4.67c-0.25,3.23-0.5,6.47-0.75,9.7c-0.18,2.26-0.03,4.67-0.33,6.91c-0.14,1.06-0.33,2.13-0.85,3.06
		s-1.45,1.68-2.5,1.7c1.84-0.21,3.71-0.19,5.55,0.06c-0.95-0.72-1.02-2.11-0.99-3.32c0.19-8.53,1.08-17.04,2.64-25.42
		c0.15-0.8,0.3-1.6,0.28-2.41c-0.03-0.86-0.26-1.71-0.44-2.55c-0.44-2-0.65-4.05-0.62-6.1c0.02-1-1.06-12.64-1.62-13.47
		c-0.28-0.41-1.22,0.9-1.44,1.8C40.25,68.82,41.87,79.88,41.99,80.62z"/>
	<path class="st1" d="M47.83,86.4c-0.02-0.14,0.08-0.29,0.21-0.34c0.29,0.15,0.26,0.68-0.05,0.8c0.15,0.03,0.31,0.07,0.46,0.1
		c-0.34,0.2-0.17,0.84,0.22,0.85c-0.2-0.02-0.29,0.27-0.21,0.45c0.07,0.19,0.23,0.34,0.27,0.54c0.09,0.43-0.41,0.76-0.5,1.19
		c-0.12,0.54,0.43,1.07,0.3,1.61c-0.28,0.33-0.92-0.04-1.21,0.29c-0.09,0.1-0.12,0.24-0.19,0.35c-0.25,0.34-0.92,0.2-1.07,0.6
		c0.1-0.23-0.1-0.47-0.24-0.67c-0.14-0.21-0.17-0.57,0.07-0.63c-0.15,0.04-0.31-0.07-0.34-0.22c0.34,0,0.67-0.1,0.95-0.29
		c0.11-0.07,0.22-0.2,0.15-0.32c-0.04-0.07-0.12-0.09-0.19-0.1c-0.34-0.07-0.68-0.11-1.03-0.11c0.2-0.23,0.46-0.41,0.74-0.52
		c-0.2-0.02-0.4-0.05-0.6-0.07c0.07-0.18,0.19-0.33,0.35-0.42c-0.17-0.09-0.33-0.19-0.5-0.28c0.19-0.33,0.62-0.48,0.97-0.35
		c-0.07-0.35-0.81-0.3-0.71-0.64c0.05-0.16,0.27-0.17,0.42-0.26c0.52-0.32-0.06-1.1,0.28-1.47C46.56,86.27,47.82,86.29,47.83,86.4z"
		/>
	<path class="st1" d="M43.96,86.48c0.21,0.31,0.22,0.74,0.02,1.06c0.16,0.01,0.31,0.03,0.47,0.04c-0.14,0.03-0.23,0.2-0.18,0.33
		c0.18,0.04,0.34,0.13,0.47,0.26c-0.28,0.31-0.04,0.82-0.16,1.22c-0.07,0.22-0.24,0.4-0.29,0.63c-0.03,0.16,0,0.32,0.02,0.47
		c0.11,0.79,0.03,1.6-0.24,2.35c-0.74-0.36-1.76,0.71-2.36,0.15c0.53-0.05,1.03-0.31,1.37-0.72c-0.38,0.02-0.76,0.04-1.14,0.07
		c0.28-0.15,0.55-0.3,0.83-0.45c-0.32-0.02-0.63-0.04-0.95-0.05c0.5-0.25,0.92-0.67,1.17-1.18c-0.49,0.12-0.99,0.21-1.49,0.27
		c0.24-0.24,0.47-0.48,0.71-0.71c-0.33,0.09-0.71-0.03-0.92-0.31c0.37-0.15,0.7-0.41,0.94-0.74c-0.35,0.02-0.71-0.05-1.03-0.19
		c0.27-0.27,0.54-0.54,0.81-0.81c-1.09-0.2,0.5-0.87,0.52-0.88C42.63,87.25,44.29,86.95,43.96,86.48z"/>
	<path class="st2" d="M44.82,116.04c0.28-0.44,0.39-0.97,0.48-1.48c0.23,0.21,0.15,0.58,0.13,0.89s0.17,0.72,0.47,0.64
		c0.05-0.14,0.1-0.29,0.15-0.43c-0.07,0.23,0.02,0.5,0.22,0.62c0.28-0.6,0.47-1.24,0.56-1.89c0,0.76,0.03,1.57,0.47,2.19
		c0.38,0.52,1,0.8,1.63,0.89c0.63,0.09,1.26,0,1.89-0.08c-0.62,0.11-1.24,0.22-1.86,0.32c-0.18,0.03-0.38,0.07-0.5,0.21
		c-0.12,0.14-0.1,0.41,0.08,0.46c-0.39-0.05-0.8,0.05-1.13,0.28c-0.07,0.05-0.15,0.11-0.23,0.1c-0.12-0.02-0.18-0.15-0.21-0.27
		c-0.08-0.26-0.15-0.51-0.23-0.77c-0.2-0.16-0.47,0.11-0.52,0.37c-0.05,0.25-0.05,0.56-0.27,0.7c-0.03-0.32-0.06-0.65-0.08-0.97
		c-0.26,0.62-1.12,0.59-1.77,0.46c-0.58-0.12-1.17-0.21-1.73-0.39C42.6,116.97,44.27,116.99,44.82,116.04z"/>
	<path class="st2" d="M40.34,116.86c0.1,0.21,0.31,0.36,0.54,0.38c0.38-1.36,0.69-2.74,0.92-4.13c0.14,1.8,0.4,3.59,0.75,5.37
		c0.07,0.35,0.13,0.75-0.08,1.04c-0.34,0.44-1.04,0.25-1.56,0.44c-0.21,0.08-0.39,0.22-0.59,0.33c-0.75,0.4-1.67,0.25-2.52,0.22
		c-1.66-0.05-3.27,0.44-4.86,0.92c-0.02-0.22-0.04-0.43-0.06-0.65c1.22-0.21,2.44-0.42,3.66-0.64c0.66-0.12,1.41-0.29,1.75-0.87
		c-0.63-0.25-1.33-0.02-1.98,0.16c-1.7,0.47-3.48,0.63-5.23,0.45c1.81-0.53,3.67-0.93,5.54-1.19c0.97-0.13,1.93-0.27,2.76-0.84
		c-0.03,0.34,0.09,0.57,0.11,0.83C39.55,118.58,40.33,116.84,40.34,116.86z"/>
	<path class="st1" d="M32.78,121.32c0.92-0.58,1.95-0.96,3.02-1.11c1.11-0.16,2.34-0.11,3.22-0.81c0.3-0.24,0.66-0.58,1.01-0.42
		c0.37,0.18,0.38,0.81,0.78,0.9c0.12-0.13,0.24-0.26,0.36-0.4c0.33,0.26,0.71,0.45,1.11,0.57c0.01-0.18,0.08-0.36,0.19-0.49
		c0.62,0.37,1.41,0.42,2.08,0.14c-0.72-0.04-1.58-0.16-1.91-0.8c-0.1-0.19-0.14-0.4-0.18-0.61c-0.23-1.26-0.46-2.52-0.7-3.78
		c-0.21,1.29-0.81,2.52-1.7,3.48c-0.09-0.12-0.18-0.24-0.27-0.36c-0.18,0.74-0.94,1.18-1.65,1.46c-2.2,0.84-4.48,0.77-6.79,0.82
		C31.6,119.96,33.42,120.91,32.78,121.32z"/>
	<path class="st3" d="M15.31,13.28c0.97,2.46-0.42,5.15-1.62,7.51C-1.99,51.66,39.86,70.92,37.41,67.38
		c-5.32-7.66-20.07-33.27-15.54-41.11c2.38-4.12,2.8-9.22,2.42-13.96s-2.82-9.58-7.12-11.6c-0.86-0.41-1.8-0.7-2.75-0.68
		c-1.1,0.01-2.15,0.43-3.11,0.96c-1.87,1.05-3.46,2.6-4.55,4.45C6.21,6.34,6.07,7.88,7.1,8.05c0.72,0.12,1.24-0.63,1.82-1.08
		c0.58-0.45,1.81-0.15,1.52,0.52c-0.77,1.8-4.66,3.08-3.46,6.09C7.82,15.68,13.33,13.8,15.31,13.28z"/>
	<path class="st4" d="M21.86,56.65C26.11,62.62,32.61,67.92,40.47,68c0.91-0.47,1.83-0.95,2.74-1.42c1.87,0.31,3.84,0.17,5.67-0.41
		c0.86-0.27,1.77-0.7,2.13-1.48c0.36-0.78-0.25-1.88-1.14-1.72c1.48-0.23,2.96-0.46,4.43-0.69c-0.61-0.51-1.06-1.17-1.29-1.91
		c0.68,0.13,1.42,0.03,2.05-0.27c-0.48-0.33-0.96-0.66-1.45-0.99c1.56,0.68,3.57,0.45,4.98-0.57c0.46-0.33,0.86-0.74,1.33-1.06
		c1.3-0.86,3.03-0.9,4.5-0.46c1.47,0.44,2.73,1.29,3.97,2.13c-0.25-0.95-0.5-1.9-0.75-2.84c3.52,1.53,7.04,3.05,10.56,4.58
		c-0.22-0.87-0.45-1.73-0.67-2.6c1.17,0.72,2.34,1.45,3.51,2.17c-0.75-1.43-1.51-2.85-2.26-4.28c-0.25-0.48-0.52-0.97-0.99-1.28
		c-0.37-0.24-0.83-0.34-1.27-0.43c-3.27-0.64-6.65-0.9-10.02-0.77c0.32-0.47,0.47-1.04,0.41-1.58c-0.62,0.22-1.24,0.44-1.86,0.65
		c0.34-0.35,0.5-0.84,0.43-1.29c-0.78,0.49-1.55,0.98-2.33,1.47c0.31-0.71,0.41-1.5,0.26-2.23c-2.46,2.14-5.75,3.43-9.05,3.58
		c-0.55-1.53-1.1-3.07-1.65-4.6c0.69,0.52,1.39,1.03,2.08,1.55c-0.26-0.81-0.52-1.62-0.78-2.43c1.12,0.61,1.96,1.64,2.28,2.82
		c-0.36-0.38,0.71-0.62,0.96-0.17c0.25,0.45,0.23,1.12,0.75,1.28c0.08-0.45,0.16-0.9,0.24-1.35c0.22,0.73,0.45,1.46,0.67,2.19
		c1.04-0.64,1.52-1.98,1.08-3.03c0.57,0.43,1.25,0.72,1.97,0.86c0.33-2.85-0.67-5.77-2.71-7.83c1.49-0.15,2.91,0.59,3.87,1.62
		s1.52,2.31,2.08,3.58c0.24-1.25,0.21-2.54-0.09-3.77c1.24,1.14,2.2,2.54,2.8,4.07c0.47-0.86,0.6-1.88,0.34-2.79
		c0.68,0.72,1.35,1.44,2.03,2.16c-0.57-1.81-1.5-3.5-2.72-4.98c2.67,0.86,5.03,2.45,6.72,4.53c-2.42-9.85-33.09-23.92-44.81-16.53
		c-6.57,4.14-11.4,5.93-11.94,12.6C17.15,48.72,19.22,52.95,21.86,56.65z"/>
	<path class="st5" d="M36.51,33.01c1.64,1.28,3.01,2.9,4,4.73c-1.09-0.09-2.16-0.36-3.16-0.81c0.03,0.5-0.02,1-0.15,1.48
		c-1.72-1.28-3.9-1.92-6.03-1.78c0.14-0.65,0.76-1.17,1.43-1.2c-0.6-0.74-1.03-1.62-1.25-2.55c1.39,1,2.77,2,4.16,3
		c0.31,0.23,0.76,0.45,1.05,0.19c0.22-0.2,0.17-0.55,0.11-0.84c-0.13-0.56-0.25-1.13-0.38-1.69"/>
	<path class="st5" d="M43.38,41.43c1.56,1.41,2.93,3.01,4.07,4.77c0.3-1.27-0.21-2.57-0.72-3.77c0.89,0.7,1.77,1.4,2.66,2.1
		c-1.1-2.31-2.35-4.78-4.64-5.93c0.24,0.88,0.49,1.75,0.73,2.63c-1.13,0.51-2.25-1.05-3.43-0.8c-0.27,0.31-0.49,0.68-0.83,1.01
		c0.61,0.78,1.62,1.49,2.4,2.19C43.61,43.23,43.68,41.7,43.38,41.43z"/>
	<path class="st5" d="M35.81,40.83c1.57-0.09,3.13,1.04,3.54,2.56c-1.07-1.03-2.31-1.89-3.65-2.54"/>
	<path class="st5" d="M50.86,38.33c-0.19-0.61-0.63-1.1-1.06-1.56c-1.29-1.42-2.6-2.85-4.23-3.86c-1.4-0.87-3.16-1.45-4.82-1.14
		C44.39,33.81,47.9,35.14,50.86,38.33z"/>
	<path class="st1" d="M33.23,64.26c-2.08-1.93-4.02-4-5.83-6.18c0.6,0.31,1.34,0.34,1.96,0.08c-2.05-1.47-4.1-2.93-6.16-4.4
		c0.2,0.5,0.4,1,0.6,1.5c-2.1-1.17-4.02-2.65-5.7-4.37c0.15,0.37,0.2,0.79,0.15,1.19c-0.78-0.58-1.17-1.2-1.95-1.78
		c1.63,2.33,3.44,4.53,5.39,6.58c0-0.52-0.11-1.05-0.31-1.53c1.78,2,3.57,4,5.35,6.01c-0.24-0.67,0.36-0.73,0.12-1.4
		c0.91,1.18,2.09,2.15,3.41,2.83"/>
	<path class="st6" d="M53.22,59.25c0.07-0.02,0.13-0.03,0.2-0.05c1.42-0.37,2.87,0.64,4.33,0.77c0.95,0.08,2,0.1,2.76-0.49
		c0.39-0.3,0.67-0.74,1.12-0.94c0.52-0.24,1.13-0.09,1.68,0.09c1.2,0.41,2.33,1.01,3.34,1.77c-0.31-0.68-0.61-1.35-0.92-2.03
		c1.05-0.29,2.09-0.59,3.14-0.88c-0.56-0.28-1.04-0.71-1.39-1.23c0.58-0.19,1.13-0.48,1.62-0.86c-4.44-0.45-9.02-0.58-13.24,0.87
		c-1.53,0.53-3.06,1.27-4.68,1.2c0.9,0.29,1.83,0.5,2.76,0.61C53.63,58.39,53.54,58.95,53.22,59.25z"/>
	<path class="st1" d="M48.79,56.16c0.55,1.06,1.08,2.24,2.13,2.81c-0.09-0.91-0.19-1.83-0.28-2.74c1.27,0.73,2.33,1.81,3.05,3.09
		c-0.03-1.24-0.39-2.47-1.02-3.53c0.82,1.06,1.77,2.06,2.98,2.63s2.73,0.63,3.83-0.13c-0.95,0.13-1.95-0.37-2.41-1.21
		c1.15,0.58,2.49,0.79,3.75,0.57c-0.56-0.16-1.06-0.54-1.35-1.04c1.22,0.27,2.43,0.61,3.61,1.03c-0.18-0.66-0.5-1.28-0.95-1.79
		c1.08,0.25,2.09,0.81,2.86,1.6c-0.51-1.08-0.42-2.34-0.48-3.53c-0.06-1.2-0.33-2.51-1.29-3.22c0.27,0.58,0.22,1.31-0.13,1.85
		c-1.66-0.55-3.13-1.67-4.1-3.13c0.18,0.7,0.19,1.44,0.03,2.15c-1.23-1.28-2.89-2.13-4.65-2.39c0.98,0.22,1.46,1.33,1.69,2.31
		c0.05,0.21,0.09,0.43,0.02,0.63c-0.23,0.64-1.19,0.41-1.77,0.05c-0.92-0.58-1.81-1.19-2.68-1.84c0.71,0.96,1.18,2.1,1.35,3.28
		c-1.73-0.86-3.71-1.21-5.64-0.99c0.97,0.31,1.81,1.01,2.28,1.91c-0.83-0.47-1.84-0.85-2.8-0.85
		C47.25,54.51,48.28,55.19,48.79,56.16z"/>
	<path class="st7" d="M53.58,65.51c-0.12-0.18-0.24-0.36-0.36-0.54c0.81-0.13,1.59-0.36,2.35-0.68c-0.06-0.46,0.51-0.71,0.96-0.84
		c0.45-0.13,0.99-0.49,0.81-0.92c0.25-0.03,0.51-0.07,0.76-0.1c-0.03-0.2-0.06-0.39-0.1-0.59c0.45,0.11,0.96-0.11,1.19-0.52
		c0.34,0.02,0.69,0.04,1.03,0.06c0.17-0.41,0.35-0.82,0.52-1.23c0.1-0.23,0.21-0.47,0.42-0.58c0.3-0.16,0.69,0,1.01-0.13
		c0.28-0.11,0.43-0.41,0.65-0.62c0.77-0.75,2.43-0.52,2.69-1.56c-2.29,0.55-4.7,0.58-7,0.09c0.1,0.23,0.21,0.46,0.31,0.69
		c-0.37-0.03-0.74-0.06-1.11-0.09c-0.04,0.24-0.28,0.38-0.49,0.48c-0.55,0.28-1.12,0.56-1.73,0.62c-0.74,0.08-1.47-0.17-2.18-0.41
		c0.14,0.35,0.38,0.67,0.67,0.92c-0.29-0.13-0.6-0.27-0.92-0.25c-0.32,0.02-0.65,0.26-0.65,0.58c-0.2-0.01-0.4-0.02-0.6-0.04
		c0,0.4,0.12,0.81,0.35,1.15c-0.93-0.1-1.85-0.3-2.74-0.6c0.4,0.34,0.79,0.69,1.19,1.03c-0.84-0.41-1.53,1.52-2.34,1.07
		c0.03,0.19,0.07,0.37,0.1,0.56c-0.29,0.13-0.61,0.18-0.92,0.15c0.08,0.23,0.17,0.45,0.25,0.68c-0.34,0.01-0.66,0-0.96,0.12
		C48.36,65.7,51.42,66.07,53.58,65.51z"/>
	<path class="st2" d="M52.89,54.61c0.23,0.11,0.52,0.22,0.74,0.08c0.25-0.16,0.23-0.52,0.17-0.81c-0.42-2.28-1.34-4.47-2.66-6.38
		c2.71,0.21,3.98,3.79,6.59,4.54c0.38,0.11,0.83,0.14,1.14-0.11c0.38-0.31,0.37-0.9,0.29-1.39c-0.33-2.19-1.12-4.32-2.3-6.2
		c1.32,0.55,2.53,1.34,3.56,2.33c-1.21-1.76-2.54-3.44-3.97-5.04c3.2,1.18,6.03,3.34,8.02,6.11c-0.11-1.63-0.56-3.25-1.3-4.71
		c2.02,1.45,3.91,3.1,5.62,4.9c-0.27-2.26-1.04-4.46-2.23-6.41c8.14,5.44,15.3,12.33,21.04,20.25c-1.46-1.54-3.04-2.96-4.72-4.26
		c1.76,1.97,3.14,4.27,4.06,6.74c-2.27-3.16-5.07-5.94-8.25-8.19c-1.21-0.85-2.51-1.65-3.96-1.91c-1.65-0.3-3.34,0.11-5.01,0.29
		c-2.76,0.29-5.58-0.06-8.18-1.03c0.69-0.22,1.38-0.45,2.07-0.67c-3.87,1.02-7.73,2.09-11.61,3.06c-3.97,0.99-2.86-0.55-4.03-3.51
		C49.64,53,51.26,53.84,52.89,54.61z"/>
	<path class="st7" d="M6.84,14.83c0.32-0.25,0.67-0.5,0.81-0.88c0.08-0.2,0.08-0.43,0.12-0.64C7.83,12.9,8,12.52,8.16,12.14
		C8.65,11,9.16,9.81,10.09,8.99c0.4-0.36,0.88-0.65,1.21-1.07c0.33-0.43,0.48-1.07,0.16-1.5c-0.33-0.44-1-0.46-1.5-0.24
		S9.07,6.8,8.63,7.13C8.52,7.22,8.4,7.3,8.25,7.32c-0.14,0.02-0.27-0.03-0.4-0.08c-0.48-0.18-1-0.39-1.25-0.83
		c0.11,0.27,0.01,0.6-0.18,0.83C6.23,7.47,5.98,7.63,5.74,7.81c-0.42,0.32-0.78,0.7-1.17,1.05c-0.84,0.74-1.82,1.32-2.66,2.06
		c-0.84,0.75-1.56,1.73-1.63,2.85c-0.04,0.7,0.17,1.39,0.28,2.08c0.19,1.13,0.11,2.28,0.19,3.41c0.08,1.14,0.34,2.32,1.08,3.19
		c0.03,0.03,0.05,0.06,0.08,0.08c0.07,0.04,0.16,0.03,0.23,0c0.3-0.12,0.47-0.46,0.51-0.79c0.04-0.32-0.01-0.65,0.02-0.98
		c0.09-1.22,1.07-1.85,1.7-2.78C5.16,16.83,5.71,15.72,6.84,14.83z"/>
	<path class="st8" d="M3.01,12.18c0.07-0.08,0.19-0.12,0.29-0.09c-0.08,0.2,0.06,0.43,0.24,0.55c0.17,0.13,0.39,0.19,0.57,0.31
		c0.31,0.21,0.48,0.57,0.64,0.91c0.25,0.54,0.5,1.08,0.58,1.67c0.28,0,0.52-0.2,0.68-0.42c0.17-0.22,0.29-0.48,0.5-0.67
		c0.39-0.37,1-0.44,1.35-0.85c0.42-0.48,0.33-1.29,0.82-1.71c0.13-0.11,0.3-0.2,0.32-0.37c0.03-0.27-0.34-0.38-0.62-0.38
		c-0.18-0.47,0.12-0.97,0.4-1.38c0.24-0.35,0.47-0.7,0.71-1.05c0.24-0.35,0.55-0.75,0.97-0.76c0.16,0,0.31,0.05,0.46,0.06
		c0.61,0.05,1.14-0.66,0.92-1.24c-0.22-0.57-1.09-0.75-1.51-0.31c-0.16,0.17-0.25,0.38-0.36,0.59C9.64,7.71,9.01,8.3,8.27,8.28
		C7.55,8.25,6.93,7.6,6.84,6.87C5.47,8.11,4,9.22,2.43,10.2c-0.4,0.25-1.56,0.92-0.94,1.47C1.54,11.71,3.27,11.88,3.01,12.18z"/>
	<path class="st9" d="M6.84,13.04c0.23-0.43,0.47-0.87,0.7-1.3c0.74-1.37,1.6-2.85,3.06-3.39c0.15-0.06,0.31-0.1,0.44-0.2
		c0.43-0.33,0.21-1.1-0.28-1.32c-0.49-0.22-1.08-0.02-1.51,0.31C8.81,7.46,8.48,7.9,8.07,8.26S7.13,8.89,6.6,8.78
		S5.66,8.03,5.94,7.57c-1.59,1.2-3.18,2.4-4.77,3.6c-0.53,0.4-1.12,0.96-0.96,1.6c0.44-0.21,0.96-0.25,1.43-0.1
		c0.16,0.05,0.32,0.12,0.48,0.1c0.13-0.02,0.24-0.09,0.35-0.16c0.43-0.28,0.85-0.56,1.28-0.84c-0.35,0.38-0.7,0.76-1.05,1.14
		c0.71,0.53,1.25,1.26,1.56,2.09c0.22,0.58,0.11,1.82,0.56,2.17C5.52,15.86,6.11,14.38,6.84,13.04z"/>
	<path class="st10" d="M3.4,9.83C4.1,9.3,4.91,8.86,5.42,8.14C5.57,7.92,5.8,7.63,6.06,7.73c0.16,0.06,0.23,0.26,0.19,0.43
		C6.21,8.33,6.1,8.46,5.98,8.58c-0.3,0.3-0.66,0.54-1.05,0.71c-0.18,0.08-0.37,0.14-0.49,0.3c-0.08,0.1-0.11,0.22-0.17,0.33
		c-0.08,0.13-0.2,0.23-0.31,0.33c-0.24,0.2-1.31,1.37-1.58,0.89C2.16,10.76,3.18,10.03,3.4,9.83z"/>
	<path class="st11" d="M0.62,11.62c-0.59,1.12-0.65,2.45-0.57,3.72s0.29,2.54,0.19,3.8c-0.07,0.95,0.12,1.99,0.66,2.78
		c0.26,0.38,0.34,0.82,0.55,1.23C1.56,23.37,1.8,23.63,2,23.5c0.1-0.06,0.13-0.18,0.19-0.29c0.21-0.4,0.79-0.53,0.92-0.96
		c0.07-0.21,0-0.44-0.02-0.66c-0.23-1.84,1.95-3.32,1.73-5.16C4.76,16,4.58,15.6,4.38,15.21c-0.49-0.95-1.09-1.84-1.78-2.66
		c0.42-0.52,1.07-0.87,1.74-0.93c0.14-0.01,0.12-0.08,0.24-0.01c0.9,0.61,1.73-0.47,2.35-1.36c-0.82,0.42-1.77,0.48-2.68,0.67
		c-0.9,0.19-1.85,0.58-2.28,1.4c-0.02-0.29,0.1-0.59,0.31-0.78c0-0.15-0.25-0.13-0.33-0.01s-0.11,0.29-0.24,0.37
		c-0.09,0.05-0.21,0.04-0.31,0.02C1.11,11.9,0.89,11.73,0.62,11.62z"/>
	<path class="st12" d="M5.31,13.57c0.21-0.09,0.39,0.21,0.38,0.45c-0.02,0.23-0.09,0.5,0.06,0.68c0.69-0.55,0.55-1.72,1.21-2.31
		c0.27,0.44,0.26,1,0.24,1.52c-0.01,0.14-0.01,0.29-0.08,0.41c-0.04,0.07-0.1,0.13-0.15,0.19C6.48,15,6,15.5,5.52,15.99
		c-0.12,0.12-0.27,0.25-0.43,0.21C4.33,15.99,4.95,13.73,5.31,13.57z"/>
	<path class="st13" d="M2.63,10.94c0.29,0.16,0.64-0.06,0.9-0.27c0.32-0.26,0.65-0.53,0.97-0.79c0.18-0.14,0.39-0.29,0.61-0.23
		c0.06,0.2-0.11,0.38-0.27,0.52c-0.61,0.53-1.3,1.09-2.11,1.09c-0.01-0.08-0.01-0.17-0.02-0.25"/>
	<path class="st14" d="M9.45,7.42c0,0.17,0.08,0.35,0.22,0.45C9.83,7.98,10.06,8,10.22,7.89s0.23-0.34,0.14-0.52
		c-0.1-0.18-0.32-0.25-0.52-0.25c-0.11,0-0.22,0.02-0.31,0.09C9.44,7.28,9.42,7.43,9.5,7.5"/>
	<path class="st15" d="M9.81,7.3c0.02,0.08,0.05,0.17,0.13,0.21c0.07,0.04,0.19-0.03,0.17-0.1c-0.01-0.04-0.05-0.06-0.09-0.08
		C9.98,7.31,9.93,7.29,9.89,7.29c-0.04,0-0.09,0.05-0.08,0.09"/>
	<g>
		<path class="st16" d="M37.45,119.29c-0.11,0.01-0.23,0.02-0.34,0.03C37.23,119.32,37.34,119.31,37.45,119.29z"/>
		<path class="st16" d="M88.16,62.87c-3.99-5.5-8.67-10.51-13.88-14.88c-2.45-9.85-33.09-23.9-44.81-16.51
			c-2.92,1.84-5.5,3.22-7.5,4.77c-1.13-4.2-1.37-7.79-0.1-9.98c2.38-4.12,2.8-9.22,2.42-13.96c-0.39-4.74-2.82-9.58-7.12-11.6
			c-0.86-0.41-1.8-0.7-2.75-0.68c-1.1,0.01-2.15,0.43-3.11,0.96c-1.87,1.05-3.46,2.6-4.55,4.45C6.43,5.97,6.26,6.72,6.37,7.28
			C6.37,7.29,6.36,7.3,6.36,7.3C6.2,7.44,6.04,7.57,5.88,7.71C5.9,7.66,5.92,7.61,5.94,7.57C4.82,8.41,3.7,9.26,2.57,10.11
			c-0.05,0.03-0.09,0.06-0.14,0.09c-0.23,0.14-0.7,0.42-0.95,0.74c-0.1,0.08-0.2,0.15-0.31,0.23c-0.18,0.14-0.37,0.29-0.53,0.47
			c-0.01,0-0.01,0-0.02-0.01c-0.01,0.02-0.02,0.03-0.02,0.05c-0.28,0.31-0.47,0.67-0.39,1.06c-0.2,0.84-0.22,1.74-0.16,2.61
			c0.08,1.27,0.29,2.54,0.19,3.8c-0.07,0.95,0.12,1.99,0.66,2.78c0.26,0.38,0.34,0.82,0.55,1.23C1.56,23.37,1.8,23.63,2,23.5
			c0.1-0.06,0.13-0.18,0.19-0.29c0.21-0.4,0.79-0.53,0.92-0.96c0.07-0.21,0-0.44-0.02-0.66C2.9,20.12,4.26,18.88,4.7,17.5
			c0.63-0.98,1.17-1.9,2.14-2.67c0.24-0.19,0.5-0.38,0.68-0.63c1.66,1.02,6.07-0.47,7.79-0.92c0.97,2.46-0.42,5.15-1.62,7.51
			c-10,19.68,3.39,34.64,13.77,41.99c2.1,1.76,4.45,3.2,7.01,4.13c1.7,0.77,2.82,1.05,3.01,0.81c0.97,0.18,1.96,0.27,2.98,0.28
			c-0.14,1.31,1.41,11.9,1.53,12.63c0.3,1.84,0.61,3.72,0.31,5.57c-0.07,0.46-0.18,0.92-0.29,1.37c-0.32,0.19-0.58,0.44-0.13,0.57
			c-0.02,0.08-0.03,0.15-0.05,0.23c-0.2,0.21-0.41,0.41-0.61,0.62c0.16,0.07,0.32,0.12,0.49,0.15c-0.02,0.2-0.04,0.4-0.05,0.59
			c-0.11,0.07-0.23,0.14-0.35,0.19c0.09,0.11,0.2,0.2,0.33,0.25c0,0.22,0,0.43,0,0.65c-0.04,0.04-0.08,0.08-0.12,0.12
			c0.04,0,0.08-0.01,0.12-0.02c0.02,0.69,0.07,1.38,0.1,2.07c0,0-0.01,0-0.01,0c0,0,0.01,0.01,0.01,0.01c0,0.1,0.01,0.19,0.01,0.29
			c0.05,1.56-0.07,3.12-0.19,4.67c-0.25,3.23-0.5,6.47-0.75,9.7c-0.18,2.26-0.03,4.67-0.33,6.91c-0.14,1.06-0.33,2.13-0.85,3.06
			c-0.08,0.13-0.16,0.26-0.25,0.39c0-0.04,0-0.09,0-0.13c-0.83,0.56-1.78,0.7-2.76,0.84c-1.87,0.26-3.73,0.65-5.54,1.19
			c0.13,0.01,0.25,0.02,0.38,0.03c0.34,0.14,1.32,0.68,1.45,1.08c0,0.04,0.01,0.09,0.01,0.13c-0.01,0.06-0.05,0.12-0.13,0.17
			c0.05-0.03,0.09-0.06,0.14-0.08c0.01,0.07,0.01,0.14,0.02,0.2c1.58-0.48,3.2-0.97,4.86-0.92c0.85,0.02,1.77,0.18,2.52-0.22
			c0.2-0.11,0.38-0.25,0.59-0.33c0.25-0.09,0.55-0.1,0.82-0.13c0.18,0.09,0.36,0.16,0.55,0.22c0.01-0.18,0.08-0.36,0.19-0.49
			c0.62,0.37,1.41,0.42,2.08,0.14c-0.72-0.04-1.58-0.16-1.91-0.8c-0.01-0.02-0.02-0.04-0.03-0.07c-0.01-0.12-0.03-0.24-0.06-0.35
			c-0.02-0.08-0.03-0.15-0.04-0.23c0.79,0.15,1.58,0.3,2.37,0.46c0.23,0.04,0.45,0.09,0.68,0.13c0.19,0.27,0.39,0.53,0.58,0.8
			c-0.03-0.26,0.04-0.54,0.19-0.76c1.76,0.45,3.7,0.05,5.15-1.06c-0.6,0.03-1.21-0.05-1.79-0.22c0.38-0.07,0.76-0.13,1.14-0.2
			c-0.46,0.06-0.93,0.12-1.4,0.11c-0.85-0.3-1.62-0.8-2.24-1.47c-0.44-8.11-0.15-16.25,0.94-24.29c0.16,0,0.3-0.03,0.4-0.15
			c0.08-0.35-0.12-0.7-0.24-1.05c0.04-0.32,0.08-0.63,0.11-0.95c0.17-0.26,0.38-0.51,0.32-0.8c-0.03-0.17-0.15-0.3-0.23-0.45
			c0.01-0.15,0.01-0.31,0.01-0.46c0.04-0.05,0.1-0.08,0.16-0.08c-0.06,0-0.11-0.02-0.16-0.05c0.01-1.2-0.08-2.41-0.17-3.61
			c-0.15-1.93-1.39-13.29-1.8-17.49c0.79-0.09,1.58-0.25,2.34-0.49c0.42-0.13,0.86-0.3,1.23-0.54c1.19,0.2,2.42,0.15,3.46-0.12
			c-0.12-0.18-0.24-0.36-0.36-0.54c0.81-0.13,1.59-0.36,2.35-0.68c-0.06-0.46,0.51-0.71,0.96-0.84s0.99-0.49,0.81-0.92
			c0.25-0.03,0.51-0.07,0.76-0.1c-0.03-0.2-0.06-0.39-0.1-0.59c0.45,0.11,0.96-0.11,1.19-0.52c0.34,0.02,0.69,0.04,1.03,0.06
			c0.17-0.41,0.35-0.82,0.52-1.23c0.1-0.23,0.21-0.47,0.42-0.58c0.3-0.16,0.69,0,1.01-0.13c0.28-0.11,0.43-0.41,0.65-0.62
			c0.09-0.09,0.2-0.16,0.31-0.23c0.06,0.02,0.12,0.04,0.17,0.06c1.2,0.41,2.33,1.01,3.34,1.77c-0.31-0.68-0.61-1.35-0.92-2.03
			c0.35-0.1,0.69-0.19,1.04-0.29c0.56,0.34,1.11,0.7,1.65,1.07c-0.13-0.47-0.25-0.95-0.38-1.42c0.28-0.08,0.56-0.16,0.84-0.24
			c-0.43-0.21-0.82-0.52-1.13-0.89c-0.03-0.1-0.05-0.19-0.08-0.29c3.52,1.53,7.04,3.05,10.56,4.58c-0.22-0.87-0.45-1.73-0.67-2.6
			c1.17,0.72,2.34,1.45,3.51,2.17c-0.57-1.07-1.13-2.14-1.7-3.21c3.13,2.23,5.89,4.98,8.13,8.11c-0.92-2.47-2.3-4.77-4.06-6.74
			C85.12,59.91,86.7,61.33,88.16,62.87z M67.61,43.49c0.02,0.04,0.04,0.08,0.06,0.12c-0.04-0.05-0.07-0.09-0.11-0.14
			C67.58,43.48,67.59,43.49,67.61,43.49z M68.26,46.3c0.24,0.26,0.48,0.51,0.72,0.77c0.16,0.65,0.29,1.3,0.37,1.96
			c-0.34-0.35-0.68-0.7-1.03-1.04C68.42,47.42,68.41,46.84,68.26,46.3z M74.24,47.97c-1.57-1.31-3.19-2.57-4.85-3.76
			C71.29,45.11,72.96,46.4,74.24,47.97z M65.89,45.8c-0.24-0.2-0.48-0.39-0.72-0.59c-0.01-0.07-0.03-0.13-0.04-0.2
			C65.39,45.26,65.64,45.53,65.89,45.8z M63.13,45.2c0.81,0.87,1.35,1.94,1.83,3.01c0.02,0.21,0.04,0.41,0.06,0.62
			c-1.43-1.99-3.29-3.65-5.4-4.87c-0.11-0.13-0.23-0.25-0.35-0.38C60.76,43.44,62.18,44.18,63.13,45.2z M54.63,49.19
			c-0.08-0.02-0.17-0.03-0.26-0.04c0.14,0.03,0.26,0.08,0.38,0.14c0.31,0.25,0.58,0.53,0.82,0.84c0.23,0.4,0.39,0.88,0.49,1.32
			c0.02,0.1,0.04,0.2,0.05,0.3c-0.57-0.54-1.11-1.15-1.67-1.69c-0.14-0.42-0.27-0.84-0.41-1.27C54.24,48.92,54.44,49.05,54.63,49.19
			z M37.84,119.19c-0.06,0.02-0.13,0.04-0.19,0.06c-0.07,0.02-0.13,0.03-0.2,0.04c0.03,0,0.06-0.01,0.09-0.01
			c-0.92,0.28-1.86,0.43-2.81,0.51c0.53-0.08,1.05-0.2,1.57-0.34C36.8,119.31,37.33,119.14,37.84,119.19z M34.52,120.5
			c0.42-0.14,0.85-0.24,1.28-0.3c0.37-0.05,0.75-0.08,1.13-0.13c-0.13,0.03-0.27,0.06-0.4,0.08
			C35.86,120.27,35.19,120.39,34.52,120.5z M42.45,117.91c0.07,0.02,0.15,0.04,0.22,0.06c-0.07,0.02-0.13,0.04-0.2,0.05
			C42.46,117.99,42.46,117.95,42.45,117.91z M46.48,86.41c-0.05,0.02-0.09,0.04-0.11,0.06c-0.14,0.15-0.12,0.38-0.09,0.61
			c-0.12,0.32-0.26,0.64-0.4,0.95c-0.09,0.04-0.18,0.08-0.2,0.17c-0.02,0.08,0,0.13,0.05,0.18c-0.46,1.03-0.86,2.04-0.61,3.14
			c0.11,0.48,0.32,0.93,0.49,1.39c0.47,1.33,0.54,2.77,0.53,4.18c-0.02,4.41-0.7,8.8-0.59,13.2c0.03,1.45,0.15,2.93-0.17,4.33
			c-0.02-0.03-0.04-0.05-0.06-0.07c-0.1,0.51-0.21,1.04-0.48,1.48c-0.52,0.91-2.06,0.93-2.4,1.72c-0.28-1.54-0.49-3.09-0.62-4.65
			c-0.01,0.08-0.03,0.16-0.04,0.24c0.27-6.89,1-13.77,2.17-20.57c0.05,0.01,0.1,0.03,0.15,0.05c0.26-0.72,0.34-1.51,0.25-2.27
			c0.06-0.32,0.12-0.65,0.17-0.97c0.04-0.07,0.07-0.14,0.09-0.21c0.12-0.4-0.12-0.91,0.16-1.22c-0.05-0.05-0.11-0.09-0.17-0.13
			c-0.05-0.79-0.26-1.57-0.43-2.35c-0.44-2-0.65-4.05-0.62-6.1c0.01-0.86-0.77-9.46-1.35-12.48c0.34-0.18,0.68-0.35,1.03-0.53
			c0.76,0.13,1.54,0.17,2.31,0.15c0,0.04-0.01,0.08-0.01,0.12C45.5,69.76,47.2,82.73,46.48,86.41z"/>
	</g>
</g>
</svg>
