<!-- Generator: Adobe Illustrator 23.0.4, SVG Export Plug-In  -->
<svg version="1.1" xmlns="http://www.w3.org/2000/svg" xmlns:xlink="http://www.w3.org/1999/xlink" x="0px" y="0px"
	 width="112.96px" height="26.97px" viewBox="0 0 112.96 26.97" style="enable-background:new 0 0 112.96 26.97;"
	 xml:space="preserve">
<style type="text/css">
	.st0{fill:#ADC4D8;}
</style>
<defs>
</defs>
<path class="st0" d="M0,0c6.92,1.7,13.45,5,18.93,9.55c-6.12,0.59-12.18,1.8-18.05,3.61c6.27,4.6,13.46,7.94,21.02,9.76
	c-2.69,1.63-5.68,2.75-8.78,3.27c33.41,2.2,67.12-0.32,99.83-7.46c-4.67-3.89-9.92-7-15.04-10.12c1.33-0.86,2.55-2.59,3.96-3.36
	C87.26,3.93,72.84,1.97,58.1,1.84C40.51,1.68,16.94,4.84,0,0z"/>
</svg>
