<!-- Generator: Adobe Illustrator 23.0.4, SVG Export Plug-In  -->
<svg version="1.1" xmlns="http://www.w3.org/2000/svg" xmlns:xlink="http://www.w3.org/1999/xlink" x="0px" y="0px"
	 width="515.14px" height="67.87px" viewBox="0 0 515.14 67.87" style="enable-background:new 0 0 515.14 67.87;"
	 xml:space="preserve">
<style type="text/css">
	.st0{fill:#ADC4D8;}
	.st1{fill:#7AA0BC;}
</style>
<defs>
</defs>
<path class="st0" d="M404.32,2.81c-33.07-3.89-195.39-1.78-205.04-0.59c-19.36,2.39-38.87-1.78-58.35-1.43
	c-13.61,0.25-27.1,2.71-40.54,5.17C69.27,11.65,37.92,17.4,8.37,29.68c-4.46,1.85-9.82,6.11-8,11.01
	c28.98-0.37,82.25,12.6,80.08,15.32c45.43,11.29,92.73,13.14,138.76,5.42c-0.97,3.86-4.55,6.68-8.14,6.42
	c23.56-10.72,50.17-5.81,75.55-7.85c11.42-0.92,22.72-3.27,34.14-4.07c30.03-2.1,60.05,0.78,90.09,3.09
	c53.63,4.14,126.2-9.42,97.98-17.54c-22.75-4.52-45.75-9.12-66.94-19.43c-8.48-4.13-16.64-9.16-25.45-12.32
	c-5-1.8-10.16-2.97-15.31-4.15c-2.38-0.54-4.76-1.08-7.13-1.62C386.85,2.33,379.68,0.7,372.41,0"/>
<path class="st1" d="M128.33,20.07c3.36-1.2,6.71-2.4,10.07-3.59c3.15-1.13,7.19-2.05,9.42,0.44c1.45,1.62,1.45,4.04,2.39,6
	c2.42,5.07,9.51,5.11,15.08,4.39c-4.29,2.16-9.83,1.55-13.55-1.49c-1.02-0.83-1.92-1.83-3.04-2.51c-3.34-2-7.57-0.73-11.46-0.63
	c-4,0.11-8.03-1.15-11.26-3.51"/>
<path class="st1" d="M263.59,10.5c-5-1.76-10.38,0.58-15.37,2.37c-6.93,2.5-15.65,5.05-22.85,3.95
	C230.08,6.5,254.35,9.97,263.59,10.5z"/>
<path class="st1" d="M259.62,38.66c-12.66,6.18-26.81,8.56-40.82,10.06c-16.32,1.75-32.77,2.39-49.18,1.91
	c12.44,4.35,26.09,2.55,39.14,0.7c10.23-1.45,20.59-2.96,30.44-6.19c6.86-2.25,18.54-11.95,24.89-10.46
	C263.08,36.5,261.51,37.74,259.62,38.66z"/>
<path class="st1" d="M136.26,41.91c-12.16-6.56-25.77-9.84-39.2-13.05c-7.92-1.89-16.26-4.67-24.28-5.38
	C84.99,42.17,119.79,33.05,136.26,41.91z"/>
<path class="st1" d="M193.01,43.87c-15.92,2.63-34.73,1.2-49.12-6.52C154.77,31.65,179.21,46.15,193.01,43.87z"/>
<path class="st1" d="M298,3.23c9.98,4.06,18.97,10.53,25.99,18.71c1.68,1.96,3.28,4.07,4.09,6.53c2.03,6.16-1.57,13.07-6.86,16.81
	c-5.29,3.75-11.9,5.01-18.32,5.98c-14.12,2.12-28.39,3.24-42.66,3.35c13.12-3.38,26.25-6.75,39.37-10.13
	c5.7-1.47,12.01-3.39,14.85-8.54c2.22-4.01,1.66-9.09-0.32-13.23c-1.98-4.13-5.19-7.52-8.36-10.83c-3.05-3.19-6.16-6.43-9.98-8.63
	s-8.53-3.29-12.71-1.86"/>
<path class="st1" d="M45.19,46.94c42.25,15.74,87.97,22.08,132.91,18.41c-29.53-10.53-63.37-0.51-92.96-10.88
	C75.91,51.24,67.4,46.11,58,43.42c-12.32-3.52-25.4-2.93-37.98-4.95C28.62,40.73,36.86,43.84,45.19,46.94z"/>
<path class="st1" d="M356.59,5.97c17.42,5.17,34.44,11.72,50.84,19.54c2.04,0.98,4.17,2.05,5.45,3.91c1.28,1.87,1.34,4.77-0.47,6.12
	c-1.15,0.86-2.71,0.88-4.15,0.87c-8.55-0.06-17.1-0.13-25.65-0.19c8.97,0.73,18.03,0.32,26.9-1.22c2.4-0.42,5.23-1.33,5.79-3.69
	c0.44-1.85-0.81-3.66-2.09-5.07c-9.21-10.14-23.32-14.21-36.88-16.13c-13.2-1.87-27.59-1.7-40.05-6.81
	C343.04,2.72,350.05,4.03,356.59,5.97z"/>
<path class="st1" d="M90.55,14.78c10.37-1.55,20.75-3.09,31.12-4.64c6.23-0.93,12.47-1.86,18.77-1.96
	c13.54-0.23,51.41,14.79,61.07,5.26c-10.03-10.35-36.12-8.12-49.39-8.38C129.86,4.64,111.75,11.63,90.55,14.78z"/>
</svg>
